# Evaluated render-only extract from Quaternius's CC0 Modular Character Outfits - Fantasy
o Male_Ranger_Head_Hood
v 0.1318987 0.0400094 1.5533423
v 0.0389509 0.0585799 1.5289016
v 0.0582387 -0.0243579 1.8388245
v 0.0891194 0.0329181 1.7807144
v 0.1516306 0.0452804 1.5747759
v 0.0808442 0.0426851 1.5348208
v 0.0336654 -0.0411511 1.8430961
v 0.0753632 0.0019185 1.8257164
v 0.1069881 -0.0338012 1.5971993
v 0.1069881 -0.0338012 1.5971993
v 0.0604204 -0.1049418 1.8003036
v 0.0604204 -0.1049418 1.8003036
v 0.0493233 -0.0513887 1.5264243
v 0.0493233 -0.0513887 1.5264243
v 0.0893191 -0.0565153 1.5360951
v 0.0893191 -0.0565153 1.5360951
v 0.0801083 -0.0945386 1.7855908
v 0.0801083 -0.0945386 1.7855908
v 0.0930934 -0.0793368 1.7557348
v 0.0930934 -0.0793368 1.7557348
v 0.1036504 -0.0460263 1.5674334
v 0.1036504 -0.0460263 1.5674334
v 0.0322689 -0.1192784 1.8071629
v 0.0322689 -0.1192784 1.8071629
v 0.0177800 -0.0490391 1.8458352
v 0.0156209 -0.1331584 1.8107711
v 0.0156209 -0.1331584 1.8107711
v 0.0450891 -0.0021672 1.5271040
v 0.0940057 -0.0333072 1.7733368
v 0.1265350 -0.0122344 1.5558126
v 0.1356625 -0.0032460 1.5885751
v 0.0620508 -0.0770354 1.8182290
v 0.0907052 -0.0142767 1.5321835
v 0.0811578 -0.0592948 1.8057456
v 0.0334171 -0.0896872 1.8219738
v 0.0166067 -0.0959757 1.8253723
v 0.1046065 -0.0460250 1.6824178
v 0.1046065 -0.0460250 1.6824178
v 0.1093006 -0.0062791 1.6847547
v 0.1114858 0.0490681 1.6629572
v 0.0181278 0.1444271 1.8358345
v 0.0334537 0.1609864 1.7447567
v 0.0285892 0.1626492 1.7878556
v 0.0123591 0.1290713 1.8454217
v 0.0499801 0.1234402 1.8100029
v 0.0674355 0.0749154 1.8275031
v 0.0175470 0.0233553 1.8626459
v 0.0154115 0.0848531 1.8610873
v 0.0535789 0.0514205 1.8493357
v 0.0423456 0.1086502 1.8385012
v 0.0277731 0.0941203 1.8543112
v 0.0334146 0.0335787 1.8581474
v 0.0844284 0.0954348 1.7713599
v 0.0636699 0.1289566 1.7536436
v 0.0262440 0.1580515 1.8175628
v 0.0876627 0.1372996 1.5841533
v 0.1286602 0.0988972 1.5673866
v 0.0745717 0.1420437 1.5637695
v 0.1092737 0.0979186 1.5515077
v 0.0715490 0.1048875 1.5362560
v 0.0577367 0.1479980 1.5451125
v 0.0335668 0.1519400 1.5334100
v 0.0389148 0.1156990 1.5285785
v 0.0406370 0.1766915 1.5843408
v 0.0257220 0.1729213 1.5455226
v 0.0420851 0.1684443 1.6165153
v 0.0365612 0.1779401 1.5608114
v 0.1095920 0.0952026 1.6430827
v 0.0839319 0.1286657 1.6486425
v 0.0391857 0.1584219 1.6794238
v 0.1076545 0.0396898 1.5439667
v 0.0584491 0.0500378 1.5299311
v 0.0681706 -0.0122640 1.8337280
v 0.0194039 0.0648833 1.5301187
v 0.1483373 0.0420157 1.5608659
v 0.0455743 -0.0340661 1.8415459
v 0.0815249 0.0175862 1.8116825
v 0.0415826 0.0270965 1.5281447
v 0.0914006 -0.0020473 1.7795990
v 0.1324997 0.0120963 1.5539179
v 0.0227108 -0.1245533 1.8094716
v 0.0227108 -0.1245533 1.8094716
v 0.0211951 0.1822431 1.6268109
v 0.0995510 -0.0528568 1.5507463
v 0.0995510 -0.0528568 1.5507463
v 0.0258878 -0.0469823 1.5253199
v 0.0258878 -0.0469823 1.5253199
v 0.0867405 -0.0890885 1.7744974
v 0.0867405 -0.0890885 1.7744974
v 0.0717864 -0.0992555 1.7939838
v 0.0717864 -0.0992555 1.7939838
v 0.0716173 -0.0552167 1.5288987
v 0.0716173 -0.0552167 1.5288987
v 0.1057141 -0.0387639 1.5804094
v 0.1057141 -0.0387639 1.5804094
v 0.0459837 -0.1123058 1.8043954
v 0.0459837 -0.1123058 1.8043954
v 0.0250408 -0.0456858 1.8445531
v 0.0334498 -0.0692673 1.8317245
v 0.0094914 -0.0523575 1.8471321
v 0.0171420 -0.0755443 1.8343464
v 0.0079181 -0.1385858 1.8113756
v 0.0079181 -0.1385858 1.8113756
v 0.1473668 0.0189896 1.5820508
v 0.0603554 -0.0547240 1.8284982
v 0.0864530 0.0120797 1.5332065
v 0.0785279 -0.0320395 1.8161861
v 0.0193844 0.1726834 1.6868652
v 0.0089489 -0.0999687 1.8271371
v 0.0237971 -0.0929836 1.8235978
v 0.1110835 -0.0149829 1.5426260
v 0.0217130 0.0016154 1.5290711
v 0.0875602 -0.0473039 1.7948414
v 0.0732782 -0.0688809 1.8131787
v 0.0682668 -0.0088368 1.5274322
v 0.0473347 -0.0842618 1.8206382
v 0.1351917 -0.0077922 1.5689377
v 0.1061520 -0.0367638 1.6368045
v 0.1061520 -0.0367638 1.6368045
v 0.1009601 -0.0172246 1.7359152
v 0.0989301 0.0470100 1.7287724
v 0.1000708 -0.0628024 1.7242635
v 0.1000708 -0.0628024 1.7242635
v 0.1220713 -0.0031032 1.6312447
v 0.1321723 0.0484950 1.6106246
v 0.1104335 0.0210114 1.6762193
v 0.0225528 0.1527878 1.8282694
v 0.0305670 0.1627152 1.7688981
v 0.0072271 0.1318873 1.8445883
v 0.0594896 0.1012087 1.8198575
v 0.0743598 0.0857059 1.8068856
v 0.0760262 0.1144682 1.7620609
v 0.0552014 0.1283345 1.7884630
v 0.0311458 0.0653025 1.8591431
v 0.0433551 0.0417632 1.8549644
v 0.0486480 0.0820620 1.8462783
v 0.0351762 0.1010133 1.8478154
v 0.0613664 0.0628707 1.8404794
v 0.0466622 0.1165428 1.8260084
v 0.0088225 0.0203566 1.8643283
v 0.0163215 0.0558796 1.8637511
v 0.0079937 0.0824516 1.8621466
v 0.0253483 0.0277455 1.8611609
v 0.0218354 0.0886818 1.8587166
v 0.0147009 0.1359365 1.8415504
v 0.0277662 0.1612305 1.8039325
v 0.0653663 0.1290554 1.5393616
v 0.0667331 0.1447454 1.5543176
v 0.0922117 0.1219471 1.5556521
v 0.0911321 0.1005763 1.5441508
v 0.0175566 0.1737007 1.7393020
v 0.0171435 0.1518333 1.5304538
v 0.0371279 0.1362271 1.5299046
v 0.0201957 0.1174442 1.5283839
v 0.0470384 0.1505794 1.5380727
v 0.0550053 0.1106150 1.5310003
v 0.0817771 0.1398429 1.5722421
v 0.1092398 0.1198001 1.5725809
v 0.1223325 0.0981077 1.5566868
v 0.0393317 0.1782345 1.5718082
v 0.0146819 0.1764818 1.5463506
v 0.0314772 0.1758883 1.5516769
v 0.0415880 0.1733769 1.5984297
v 0.1002889 0.1132702 1.6420922
v 0.0746145 0.1274265 1.7023300
v 0.0971253 0.0970001 1.7103175
v 0.0365057 0.1585032 1.7138478
v 0.0882925 0.1334024 1.6095514
v 0.1215414 0.0980623 1.5971260
v 0.0410877 0.1620981 1.6455922
v 0.0352663 0.1355358 1.8278205
v 0.0239316 0.1229501 1.8441535
v 0.0143761 0.1130203 1.8514903
v 0.0398556 0.1444104 1.7985373
v 0.0489944 0.1450354 1.7488316
v 0.0619371 0.1430479 1.6635318
v 0.0175930 -0.0133113 1.8555187
v 0.0723505 0.0403609 1.8304329
v 0.0564589 0.0135024 1.8463504
v 0.0879030 0.0670413 1.7778583
v 0.0339456 -0.0042478 1.8525563
v 0.1122115 0.0738240 1.6508198
v 0.1442941 0.0731064 1.5689057
v 0.1234518 0.0695353 1.5517775
v 0.0646643 0.1534411 1.6003107
v 0.0578200 0.1600924 1.5741168
v 0.0762082 0.0749642 1.5353886
v 0.0487416 0.1640882 1.5529003
v 0.0387374 0.0891828 1.5287051
v 0.0292527 0.1643922 1.5392903
v 0.0153394 0.1758370 1.7798363
v 0.0197482 0.1888845 1.5668380
v 0.0214070 0.1911285 1.5920386
v 0.0140976 0.1713620 1.8100736
v 0.0100996 0.1586683 1.8304541
v 0.1458437 0.0151022 1.5645890
v 0.0992648 0.0747064 1.7193511
v 0.0632683 0.0189403 1.5285758
v 0.0710276 -0.0444460 1.8235935
v 0.0846571 -0.0173832 1.8047861
v 0.0193392 0.1369827 1.5283799
v 0.0210385 0.1912963 1.5786369
v 0.1112491 0.0103483 1.5427754
v 0.0254870 -0.0093856 1.8539679
v 0.0788488 0.0538763 1.8122628
v 0.0243033 -0.0728797 1.8329523
v 0.0449290 0.0034881 1.8504224
v 0.0298025 0.1294591 1.8378584
v 0.0192881 0.1173637 1.8485582
v 0.0560167 0.1423890 1.7076861
v 0.0093629 -0.0170991 1.8578056
v 0.0654948 0.0262280 1.8405391
v 0.0092070 -0.0783498 1.8359414
v 0.0077475 0.1118297 1.8528481
v 0.0201722 0.0324194 1.5300729
v 0.0149108 0.1745193 1.7959247
v 0.0539849 0.1624952 1.5630424
v 0.0185246 0.1722464 1.7147714
v 0.0214473 0.1878941 1.6072611
v 0.0407673 0.1645347 1.5448098
v 0.0647631 0.1479065 1.6269559
v 0.0563383 0.0818847 1.5303688
v 0.0128500 0.1647068 1.5358372
v 0.0163334 0.1753222 1.7609116
v 0.1007842 0.0709613 1.5438005
v 0.0995570 0.0144344 1.7352824
v 0.1298341 0.0748688 1.6014799
v 0.0380300 0.1407221 1.8146591
v 0.0433592 0.1462333 1.7782028
v 0.0615361 0.1571396 1.5856198
v 0.1391958 0.0707548 1.5572451
v 0.1288312 0.0211054 1.6219716
v 0.0464994 -0.0631561 1.8307550
v 0.0660435 0.1092433 1.7982546
v 0.0398810 0.0731112 1.8539782
v 0.0547198 0.0916995 1.8350008
v 0.0083204 0.0527719 1.8650401
v 0.0238480 0.0598258 1.8623873
v 0.0793658 0.1249572 1.5476357
v 0.0197962 0.0940135 1.5292649
v 0.0203390 0.1761934 1.6559263
v 0.0519070 0.1332535 1.5333850
v 0.1024239 0.1208083 1.5618975
v 0.0888330 0.1139724 1.7044048
v 0.1075717 0.1171300 1.5996182
v 0.0172153 0.1841568 1.5563049
v 0.0121850 0.1658698 1.8217138
v 0.0080439 0.1443295 1.8379689
v 0.1032687 -0.0304955 1.5967104
v 0.1032687 -0.0304955 1.5967104
v 0.0490764 -0.0514416 1.5314180
v 0.0490764 -0.0514416 1.5314180
v 0.0302509 -0.1173357 1.8029891
v 0.0302509 -0.1173357 1.8029891
v 0.0996537 -0.0450774 1.6819355
v 0.0996537 -0.0450774 1.6819355
v 0.0202045 -0.1229342 1.8053815
v 0.0202045 -0.1229342 1.8053815
v 0.0955726 -0.0507563 1.5529281
v 0.0955726 -0.0507563 1.5529281
v 0.0818837 -0.0882646 1.7729083
v 0.0818837 -0.0882646 1.7729083
v 0.1021363 -0.0353588 1.5796318
v 0.1021363 -0.0353588 1.5796318
v -0.1318987 0.0400094 1.5533425
v -0.0389509 0.0585799 1.5289016
v -0.0582387 -0.0243579 1.8388245
v -0.0891194 0.0329181 1.7807144
v -0.1516306 0.0452804 1.5747761
v -0.0808442 0.0426851 1.5348209
v -0.0336654 -0.0411511 1.8430961
v -0.0753632 0.0019185 1.8257164
v -0.1069881 -0.0338012 1.5971994
v -0.1069881 -0.0338012 1.5971994
v -0.0604204 -0.1049418 1.8003036
v -0.0604204 -0.1049418 1.8003036
v -0.0493233 -0.0513887 1.5264244
v -0.0493233 -0.0513887 1.5264244
v -0.0893191 -0.0565153 1.5360953
v -0.0893191 -0.0565153 1.5360953
v -0.0801083 -0.0945386 1.7855908
v -0.0801083 -0.0945386 1.7855908
v -0.0930934 -0.0793368 1.7557348
v -0.0930934 -0.0793368 1.7557348
v -0.1036504 -0.0460263 1.5674335
v -0.1036504 -0.0460263 1.5674335
v -0.0322689 -0.1192784 1.8071629
v -0.0322689 -0.1192784 1.8071629
v -0.0177800 -0.0490391 1.8458352
v -0.0156209 -0.1331584 1.8107711
v -0.0156209 -0.1331584 1.8107711
v -0.0450891 -0.0021672 1.5271041
v -0.0940057 -0.0333072 1.7733368
v -0.1265350 -0.0122343 1.5558127
v -0.1356625 -0.0032460 1.5885752
v -0.0620508 -0.0770354 1.8182290
v -0.0907052 -0.0142767 1.5321836
v -0.0811578 -0.0592948 1.8057456
v -0.0334171 -0.0896872 1.8219738
v -0.0166067 -0.0959757 1.8253723
v -0.1046065 -0.0460250 1.6824178
v -0.1046065 -0.0460250 1.6824178
v -0.1093006 -0.0062791 1.6847547
v -0.1114858 0.0490680 1.6629572
v -0.0181278 0.1444271 1.8358345
v -0.0334537 0.1609864 1.7447567
v -0.0285892 0.1626492 1.7878556
v -0.0123591 0.1290713 1.8454217
v -0.0499801 0.1234402 1.8100029
v -0.0674355 0.0749154 1.8275031
v -0.0175470 0.0233553 1.8626459
v -0.0154115 0.0848531 1.8610873
v -0.0535789 0.0514205 1.8493357
v -0.0423456 0.1086502 1.8385012
v -0.0277731 0.0941203 1.8543112
v -0.0334146 0.0335787 1.8581474
v -0.0844284 0.0954348 1.7713599
v -0.0636699 0.1289566 1.7536436
v -0.0262440 0.1580515 1.8175628
v -0.0876627 0.1372996 1.5841534
v -0.1286602 0.0988972 1.5673867
v -0.0745717 0.1420437 1.5637695
v -0.1092737 0.0979186 1.5515078
v -0.0715490 0.1048875 1.5362561
v -0.0577367 0.1479979 1.5451125
v -0.0335668 0.1519400 1.5334100
v -0.0389148 0.1156990 1.5285785
v -0.0406370 0.1766915 1.5843409
v -0.0257220 0.1729213 1.5455226
v -0.0420851 0.1684443 1.6165153
v -0.0365612 0.1779401 1.5608114
v -0.1095920 0.0952026 1.6430827
v -0.0839319 0.1286657 1.6486425
v -0.0391857 0.1584219 1.6794238
v -0.1076545 0.0396898 1.5439668
v -0.0584491 0.0500378 1.5299312
v -0.0681706 -0.0122640 1.8337280
v -0.0194039 0.0648833 1.5301187
v -0.1483372 0.0420157 1.5608660
v -0.0455743 -0.0340661 1.8415459
v -0.0815249 0.0175862 1.8116825
v -0.0415826 0.0270965 1.5281447
v -0.0914006 -0.0020473 1.7795990
v -0.1324997 0.0120962 1.5539180
v -0.0227108 -0.1245533 1.8094716
v -0.0227108 -0.1245533 1.8094716
v -0.0211951 0.1822431 1.6268109
v -0.0995510 -0.0528568 1.5507464
v -0.0995510 -0.0528568 1.5507464
v -0.0258878 -0.0469823 1.5253201
v -0.0258878 -0.0469823 1.5253201
v -0.0867405 -0.0890885 1.7744974
v -0.0867405 -0.0890885 1.7744974
v -0.0717864 -0.0992555 1.7939838
v -0.0717864 -0.0992555 1.7939838
v -0.0716173 -0.0552167 1.5288988
v -0.0716173 -0.0552167 1.5288988
v -0.1057141 -0.0387639 1.5804095
v -0.1057141 -0.0387639 1.5804095
v -0.0459837 -0.1123058 1.8043954
v -0.0459837 -0.1123058 1.8043954
v -0.0250408 -0.0456858 1.8445531
v -0.0334498 -0.0692673 1.8317245
v -0.0094914 -0.0523575 1.8471321
v -0.0171420 -0.0755443 1.8343464
v -0.0079181 -0.1385858 1.8113756
v -0.0079181 -0.1385858 1.8113756
v -0.1473667 0.0189896 1.5820509
v -0.0603554 -0.0547240 1.8284982
v -0.0864530 0.0120797 1.5332066
v -0.0785279 -0.0320395 1.8161861
v -0.0193844 0.1726834 1.6868652
v -0.0089489 -0.0999687 1.8271371
v -0.0237971 -0.0929836 1.8235978
v -0.1110835 -0.0149829 1.5426261
v -0.0217130 0.0016154 1.5290711
v -0.0875602 -0.0473039 1.7948414
v -0.0732782 -0.0688808 1.8131787
v -0.0682668 -0.0088368 1.5274323
v -0.0473347 -0.0842618 1.8206382
v -0.1351917 -0.0077922 1.5689378
v -0.1061520 -0.0367638 1.6368046
v -0.1061520 -0.0367638 1.6368046
v -0.1009601 -0.0172246 1.7359152
v -0.0989301 0.0470100 1.7287724
v -0.1000708 -0.0628024 1.7242635
v -0.1000708 -0.0628024 1.7242635
v -0.1220713 -0.0031032 1.6312448
v -0.1321723 0.0484950 1.6106247
v -0.1104335 0.0210114 1.6762193
v -0.0225528 0.1527878 1.8282694
v -0.0305670 0.1627152 1.7688981
v -0.0072271 0.1318873 1.8445883
v -0.0594896 0.1012087 1.8198575
v -0.0743598 0.0857059 1.8068856
v -0.0760262 0.1144682 1.7620609
v -0.0552014 0.1283345 1.7884630
v -0.0311458 0.0653025 1.8591431
v -0.0433551 0.0417632 1.8549644
v -0.0486480 0.0820620 1.8462783
v -0.0351762 0.1010133 1.8478154
v -0.0613664 0.0628707 1.8404794
v -0.0466622 0.1165428 1.8260084
v -0.0088225 0.0203566 1.8643283
v -0.0163215 0.0558795 1.8637511
v -0.0079937 0.0824516 1.8621466
v -0.0253483 0.0277455 1.8611609
v -0.0218354 0.0886818 1.8587166
v -0.0147009 0.1359365 1.8415504
v -0.0277662 0.1612305 1.8039325
v -0.0653663 0.1290554 1.5393616
v -0.0667331 0.1447454 1.5543176
v -0.0922117 0.1219470 1.5556523
v -0.0911321 0.1005763 1.5441509
v -0.0175566 0.1737007 1.7393020
v -0.0171435 0.1518333 1.5304538
v -0.0371279 0.1362271 1.5299046
v -0.0201957 0.1174442 1.5283839
v -0.0470384 0.1505794 1.5380727
v -0.0550053 0.1106150 1.5310003
v -0.0817771 0.1398429 1.5722421
v -0.1092398 0.1198001 1.5725809
v -0.1223325 0.0981077 1.5566869
v -0.0393317 0.1782345 1.5718082
v -0.0146819 0.1764818 1.5463506
v -0.0314772 0.1758883 1.5516769
v -0.0415880 0.1733769 1.5984298
v -0.1002889 0.1132702 1.6420922
v -0.0746145 0.1274265 1.7023300
v -0.0971253 0.0970001 1.7103175
v -0.0365057 0.1585032 1.7138478
v -0.0882925 0.1334023 1.6095515
v -0.1215414 0.0980623 1.5971261
v -0.0410877 0.1620981 1.6455922
v -0.0352663 0.1355358 1.8278205
v -0.0239316 0.1229501 1.8441535
v -0.0143761 0.1130203 1.8514903
v -0.0398556 0.1444104 1.7985373
v -0.0489944 0.1450354 1.7488316
v -0.0619371 0.1430479 1.6635318
v -0.0175930 -0.0133113 1.8555187
v -0.0723505 0.0403609 1.8304329
v -0.0564589 0.0135024 1.8463504
v -0.0879030 0.0670413 1.7778583
v -0.0339456 -0.0042478 1.8525563
v -0.1122115 0.0738240 1.6508198
v -0.1442941 0.0731063 1.5689058
v -0.1234518 0.0695353 1.5517776
v -0.0646643 0.1534411 1.6003108
v -0.0578200 0.1600924 1.5741168
v -0.0762082 0.0749642 1.5353887
v -0.0487416 0.1640881 1.5529003
v -0.0387374 0.0891828 1.5287051
v -0.0292527 0.1643922 1.5392903
v -0.0153394 0.1758370 1.7798363
v -0.0197482 0.1888845 1.5668380
v -0.0214070 0.1911285 1.5920386
v -0.0140976 0.1713620 1.8100736
v -0.0100996 0.1586683 1.8304541
v -0.1458437 0.0151022 1.5645891
v -0.0992648 0.0747064 1.7193511
v -0.0632683 0.0189403 1.5285759
v -0.0710276 -0.0444460 1.8235935
v -0.0846571 -0.0173832 1.8047861
v -0.0193393 0.1369827 1.5283799
v -0.0210385 0.1912963 1.5786369
v -0.1112491 0.0103483 1.5427755
v -0.0254870 -0.0093856 1.8539679
v -0.0788488 0.0538763 1.8122628
v -0.0243033 -0.0728797 1.8329523
v -0.0449290 0.0034881 1.8504224
v -0.0298025 0.1294591 1.8378584
v -0.0192881 0.1173637 1.8485582
v -0.0560167 0.1423890 1.7076861
v -0.0093629 -0.0170991 1.8578056
v -0.0654948 0.0262280 1.8405391
v -0.0092070 -0.0783498 1.8359414
v -0.0077475 0.1118297 1.8528481
v -0.0201722 0.0324194 1.5300729
v -0.0149108 0.1745193 1.7959247
v -0.0539849 0.1624952 1.5630424
v -0.0185246 0.1722464 1.7147714
v -0.0214473 0.1878941 1.6072611
v -0.0407673 0.1645347 1.5448098
v -0.0647631 0.1479064 1.6269559
v -0.0563383 0.0818847 1.5303688
v -0.0128500 0.1647068 1.5358372
v -0.0163334 0.1753222 1.7609116
v -0.1007842 0.0709613 1.5438006
v -0.0995570 0.0144344 1.7352824
v -0.1298341 0.0748688 1.6014800
v -0.0380300 0.1407221 1.8146591
v -0.0433592 0.1462333 1.7782028
v -0.0615361 0.1571396 1.5856199
v -0.1391957 0.0707548 1.5572453
v -0.1288312 0.0211053 1.6219717
v -0.0464994 -0.0631561 1.8307550
v -0.0660435 0.1092433 1.7982546
v -0.0398810 0.0731112 1.8539782
v -0.0547198 0.0916995 1.8350008
v -0.0083204 0.0527719 1.8650401
v -0.0238480 0.0598258 1.8623873
v -0.0793658 0.1249572 1.5476358
v -0.0197962 0.0940135 1.5292649
v -0.0203390 0.1761934 1.6559263
v -0.0519070 0.1332535 1.5333850
v -0.1024239 0.1208083 1.5618976
v -0.0888330 0.1139724 1.7044048
v -0.1075717 0.1171300 1.5996183
v -0.0172153 0.1841568 1.5563049
v -0.0121850 0.1658698 1.8217138
v -0.0080439 0.1443295 1.8379689
v -0.0576996 -0.1026465 1.7967732
v -0.0576996 -0.1026465 1.7967732
v -0.0490764 -0.0514416 1.5314181
v -0.0490764 -0.0514416 1.5314181
v -0.0302509 -0.1173357 1.8029891
v -0.0302509 -0.1173357 1.8029891
v -0.0127600 -0.1318624 1.8067611
v -0.0127600 -0.1318624 1.8067611
v -0.0996537 -0.0450774 1.6819355
v -0.0996537 -0.0450774 1.6819355
v -0.0955725 -0.0507563 1.5529282
v -0.0955725 -0.0507563 1.5529282
v -0.0258779 -0.0473534 1.5303062
v -0.0258779 -0.0473534 1.5303062
v -0.0706082 -0.0549251 1.5337873
v -0.0706082 -0.0549251 1.5337873
v -0.1021363 -0.0353588 1.5796319
v -0.1021363 -0.0353588 1.5796319
v -0.0438953 -0.1100953 1.8004193
v -0.0438953 -0.1100953 1.8004193
v -0.0062203 -0.1373459 1.8067484
v -0.0062203 -0.1373459 1.8067484
v -0.1016914 -0.0345327 1.6364651
v -0.1016914 -0.0345327 1.6364651
v -0.0949784 -0.0624310 1.7235024
v -0.0949784 -0.0624310 1.7235024
v -0.0000000 0.1934669 1.5964170
v -0.0000000 0.1934669 1.5964170
v -0.0000000 0.0688588 1.5321236
v -0.0000000 0.0688588 1.5321236
v -0.0000000 -0.0390644 1.5258987
v -0.0000000 -0.0390644 1.5258987
v -0.0000000 -0.0390644 1.5258987
v -0.0000000 -0.0390644 1.5258987
v 0.0000000 0.1719219 1.8055525
v 0.0000000 0.1719219 1.8055525
v 0.0000000 -0.0524370 1.8449891
v 0.0000000 -0.0524370 1.8449891
v 0.0000000 -0.1410442 1.8088870
v 0.0000000 -0.1410442 1.8088870
v 0.0000000 -0.1410442 1.8088870
v 0.0000000 -0.1410442 1.8088870
v -0.0000000 0.0026009 1.5310395
v -0.0000000 0.0026009 1.5310395
v 0.0000000 0.1773340 1.7756377
v 0.0000000 0.1773340 1.7756377
v 0.0000000 -0.0996873 1.8251945
v 0.0000000 -0.0996873 1.8251945
v 0.0000000 0.1591605 1.8266768
v 0.0000000 0.1591605 1.8266768
v -0.0000000 0.0194402 1.8628278
v -0.0000000 0.0194402 1.8628278
v -0.0000000 0.0808141 1.8603189
v -0.0000000 0.0808141 1.8603189
v -0.0000000 0.1316192 1.8422180
v -0.0000000 0.1316192 1.8422180
v -0.0000000 0.1760850 1.7364970
v -0.0000000 0.1760850 1.7364970
v 0.0000000 0.1479523 1.5319138
v 0.0000000 0.1479523 1.5319138
v 0.0000000 0.1159341 1.5283294
v 0.0000000 0.1159341 1.5283294
v 0.0000000 0.1752504 1.5495691
v 0.0000000 0.1752504 1.5495691
v -0.0000000 0.1855601 1.6305711
v -0.0000000 0.1855601 1.6305711
v 0.0000000 0.1895195 1.5710847
v 0.0000000 0.1895195 1.5710847
v 0.0000000 0.1754876 1.6879433
v 0.0000000 0.1754876 1.6879433
v -0.0000000 0.1907906 1.6114950
v -0.0000000 0.1907906 1.6114950
v 0.0000000 -0.0779030 1.8340338
v 0.0000000 -0.0779030 1.8340338
v -0.0000000 0.0352265 1.5327758
v -0.0000000 0.0352265 1.5327758
v 0.0000000 0.1755156 1.7914367
v 0.0000000 0.1755156 1.7914367
v -0.0000000 0.0514817 1.8634655
v -0.0000000 0.0514817 1.8634655
v 0.0000000 0.1467927 1.8344716
v 0.0000000 0.1467927 1.8344716
v 0.0000000 0.1341743 1.5271347
v 0.0000000 0.1341743 1.5271347
v 0.0000000 0.1776101 1.7574103
v 0.0000000 0.1776101 1.7574103
v 0.0000000 0.1618490 1.5376793
v 0.0000000 0.1618490 1.5376793
v -0.0000000 0.1104259 1.8510438
v -0.0000000 0.1104259 1.8510438
v 0.0000000 -0.0176611 1.8557169
v 0.0000000 -0.0176611 1.8557169
v 0.0000000 0.1793242 1.6586306
v 0.0000000 0.1793242 1.6586306
v 0.0000000 0.1748569 1.7136787
v 0.0000000 0.1748569 1.7136787
v 0.0000000 0.0956794 1.5307790
v 0.0000000 0.0956794 1.5307790
v 0.0000000 0.1838029 1.5601846
v 0.0000000 0.1838029 1.5601846
v 0.0000000 0.1928699 1.5830101
v 0.0000000 0.1928699 1.5830101
v 0.0000000 0.1659403 1.8174585
v 0.0000000 0.1659403 1.8174585
v -0.0703135 -0.0383553 1.5283279
v -0.0726587 -0.0848169 1.8037503
v -0.0872265 -0.0734868 1.7826328
v -0.1047266 -0.0370406 1.5471021
v -0.0233124 -0.1092523 1.8171171
v -0.0243285 -0.0301586 1.5267124
v -0.0467966 -0.0978528 1.8134853
v -0.1069676 -0.0286737 1.6829710
v -0.0161009 -0.1174826 1.8177439
v -0.0329383 -0.1043425 1.8154522
v -0.1134450 -0.0327446 1.5624597
v -0.0936584 -0.0629724 1.7621398
v -0.0477641 -0.0345221 1.5266701
v -0.0807231 -0.0795209 1.7947294
v -0.0899090 -0.0397192 1.5344304
v -0.0614013 -0.0907807 1.8100561
v 0.1138571 -0.0216939 1.6340863
v 0.1006616 -0.0452993 1.7281872
v 0.1178314 -0.0272136 1.5756938
v 0.0703136 -0.0383553 1.5283278
v 0.0726587 -0.0848169 1.8037503
v 0.0872265 -0.0734868 1.7826328
v 0.1047267 -0.0370406 1.5471020
v 0.0233124 -0.1092523 1.8171171
v 0.0243285 -0.0301586 1.5267123
v 0.0467966 -0.0978528 1.8134853
v -0.0083841 -0.1230466 1.8185931
v 0.1069676 -0.0286737 1.6829710
v 0.0161009 -0.1174826 1.8177439
v 0.0329383 -0.1043425 1.8154522
v 0.1134450 -0.0327446 1.5624596
v 0.0936584 -0.0629724 1.7621398
v 0.0477641 -0.0345221 1.5266700
v 0.0807231 -0.0795209 1.7947294
v 0.0899091 -0.0397192 1.5344303
v 0.0614013 -0.0907807 1.8100561
v 0.1192197 -0.0219486 1.5935205
v -0.1192197 -0.0219486 1.5935206
v 0.0083841 -0.1230466 1.8185931
v -0.1178314 -0.0272136 1.5756940
v -0.1006616 -0.0452993 1.7281872
v -0.1138570 -0.0216939 1.6340864
v -0.0000000 -0.0223913 1.5281128
v -0.0000000 -0.0223913 1.5281128
v 0.0000000 -0.1255460 1.8158791
v 0.0000000 -0.1255460 1.8158791
v 0.1298843 0.0401858 1.5579309
v 0.0389577 0.0586293 1.5339047
v 0.0552948 -0.0238139 1.8349211
v 0.0840150 0.0325650 1.7795762
v 0.1466887 0.0449455 1.5742590
v 0.0794172 0.0423186 1.5395985
v 0.0318697 -0.0399234 1.8387761
v 0.0707121 0.0016152 1.8233463
v 0.0576996 -0.1026465 1.7967732
v 0.0576996 -0.1026465 1.7967732
v 0.0867342 -0.0555384 1.5402621
v 0.0867342 -0.0555384 1.5402621
v 0.0756923 -0.0931641 1.7833409
v 0.0756923 -0.0931641 1.7833409
v 0.0880449 -0.0788903 1.7546716
v 0.0880449 -0.0788903 1.7546716
v 0.0996723 -0.0429976 1.5674782
v 0.0996723 -0.0429976 1.5674782
v 0.0160863 -0.0475869 1.8415511
v 0.0127600 -0.1318624 1.8067611
v 0.0127600 -0.1318624 1.8067611
v 0.0451685 -0.0023175 1.5321013
v 0.0888791 -0.0334241 1.7721274
v 0.1228165 -0.0103496 1.5585731
v 0.1312827 -0.0010649 1.5875454
v 0.0593319 -0.0752796 1.8144630
v 0.0889351 -0.0142442 1.5368596
v 0.0765424 -0.0587418 1.8034517
v 0.0318163 -0.0877318 1.8176785
v 0.0144976 -0.0943088 1.8210977
v 0.1043590 -0.0059740 1.6835339
v 0.1067677 0.0486760 1.6611134
v 0.0159265 0.1418233 1.8322788
v 0.0301292 0.1572049 1.7441515
v 0.0248701 0.1593563 1.7873105
v 0.0112076 0.1275232 1.8411070
v 0.0459408 0.1208885 1.8084620
v 0.0630542 0.0736009 1.8251655
v 0.0159651 0.0237540 1.8588054
v 0.0140573 0.0836536 1.8568408
v 0.0503590 0.0508564 1.8456756
v 0.0388656 0.1068347 1.8354386
v 0.0252661 0.0927930 1.8502688
v 0.0309381 0.0335565 1.8540798
v 0.0797525 0.0938802 1.7698671
v 0.0601314 0.1255713 1.7525177
v 0.0227938 0.1549736 1.8156675
v 0.0848332 0.1331807 1.5840716
v 0.1248253 0.0959545 1.5679458
v 0.0716538 0.1383236 1.5653688
v 0.1074598 0.0965773 1.5558872
v 0.0696848 0.1040586 1.5408189
v 0.0547482 0.1452432 1.5480489
v 0.0323540 0.1500679 1.5378848
v 0.0384236 0.1156233 1.5335571
v 0.0373710 0.1729128 1.5841076
v 0.0245334 0.1694859 1.5489554
v 0.0389449 0.1646543 1.6156241
v 0.0339069 0.1740105 1.5623966
v 0.1052280 0.0935111 1.6416475
v 0.0808002 0.1249814 1.6478329
v 0.0361560 0.1544220 1.6785760
v 0.1058653 0.0393755 1.5486246
v 0.0577171 0.0498593 1.5348744
v 0.0641725 -0.0122244 1.8305478
v 0.0198542 0.0650480 1.5350990
v 0.1443377 0.0422428 1.5638794
v 0.0435096 -0.0331117 1.8372550
v 0.0765561 0.0171415 1.8100109
v 0.0416736 0.0269788 1.5331432
v 0.0863069 -0.0024469 1.7783390
v 0.1296123 0.0127932 1.5579454
v 0.1176552 -0.0172258 1.5926027
v 0.0591372 -0.0905406 1.8052207
v 0.0890388 -0.0359454 1.5378869
v 0.0768726 -0.0781290 1.7931597
v 0.0186811 0.1780933 1.6257185
v 0.0258779 -0.0473534 1.5303061
v 0.0258779 -0.0473534 1.5303061
v 0.0681279 -0.0972865 1.7910581
v 0.0681279 -0.0972865 1.7910581
v 0.0706082 -0.0549251 1.5337871
v 0.0706082 -0.0549251 1.5337871
v 0.0438953 -0.1100953 1.8004193
v 0.0438953 -0.1100953 1.8004193
v 0.0232369 -0.0443167 1.8402818
v 0.0318724 -0.0675137 1.8274355
v 0.0083280 -0.0508777 1.8427001
v 0.0153202 -0.0738236 1.8301108
v 0.0062203 -0.1373459 1.8067484
v 0.0062203 -0.1373459 1.8067484
v 0.0475402 -0.0276145 1.5315936
v 0.0892744 -0.0585971 1.7638149
v 0.1121667 -0.0282388 1.5620930
v 0.1425752 0.0200533 1.5810229
v 0.0575778 -0.0535575 1.8246117
v 0.0849581 0.0116772 1.5379605
v 0.0739197 -0.0320596 1.8137734
v 0.0168422 0.1684065 1.6860676
v 0.0312212 -0.1034843 1.8100601
v 0.0136495 -0.1133207 1.8139057
v 0.0073033 -0.0983866 1.8226186
v 0.0219357 -0.0911583 1.8192928
v 0.1081589 -0.0141912 1.5466034
v 0.0221537 0.0013828 1.5340461
v 0.0825889 -0.0472219 1.7932111
v 0.0694034 -0.0677050 1.8101134
v 0.0676119 -0.0089934 1.5323867
v 0.0455230 -0.0822721 1.8165002
v 0.1309765 -0.0052618 1.5698479
v 0.1016914 -0.0345326 1.6364650
v 0.1016914 -0.0345326 1.6364650
v 0.0958529 -0.0173720 1.7348088
v 0.0939043 0.0465813 1.7273892
v 0.0949784 -0.0624310 1.7235024
v 0.0949784 -0.0624310 1.7235024
v 0.1174276 -0.0018879 1.6298313
v 0.1277169 0.0480072 1.6084921
v 0.1056163 0.0207548 1.6745225
v 0.1023338 -0.0275381 1.6845850
v 0.0196665 0.1497892 1.8253187
v 0.0270213 0.1591574 1.7683203
v 0.0065981 0.1303172 1.8402269
v 0.0554068 0.0991177 1.8178185
v 0.0698016 0.0842716 1.8051313
v 0.0719959 0.1117752 1.7607268
v 0.0513822 0.1253479 1.7871745
v 0.0285894 0.0646551 1.8550882
v 0.0407752 0.0414991 1.8509002
v 0.0453652 0.0807805 1.8427815
v 0.0323976 0.0994951 1.8440174
v 0.0573827 0.0618829 1.8374979
v 0.0426460 0.1143935 1.8239260
v 0.0081541 0.0207857 1.8601638
v 0.0148843 0.0553584 1.8597903
v 0.0074120 0.0812333 1.8578253
v 0.0230141 0.0280097 1.8572274
v 0.0196756 0.0874317 1.8545552
v 0.0130999 0.1340798 1.8375134
v 0.0240134 0.1580599 1.8030165
v 0.0628948 0.1271778 1.5432953
v 0.0635645 0.1415452 1.5564404
v 0.0898985 0.1189362 1.5588322
v 0.0891390 0.0992547 1.5485475
v 0.0149640 0.1694479 1.7389873
v 0.0165591 0.1504593 1.5352139
v 0.0362249 0.1354204 1.5347496
v 0.0202554 0.1176532 1.5333866
v 0.0448348 0.1482353 1.5419273
v 0.0537137 0.1101857 1.5358100
v 0.0790878 0.1357537 1.5732501
v 0.1061474 0.1159233 1.5729514
v 0.1197395 0.0958726 1.5601884
v 0.0362121 0.1743591 1.5723072
v 0.0139913 0.1728972 1.5497673
v 0.0295940 0.1721314 1.5543860
v 0.0383551 0.1696181 1.5977820
v 0.0965477 0.1103356 1.6410251
v 0.0713423 0.1239998 1.7014488
v 0.0925007 0.0955768 1.7089170
v 0.0333814 0.1545688 1.7131550
v 0.0852863 0.1294935 1.6088154
v 0.1175274 0.0956292 1.5957874
v 0.0380340 0.1581901 1.6446354
v 0.0315126 0.1333032 1.8254007
v 0.0213607 0.1211016 1.8403138
v 0.0131703 0.1115623 1.8471417
v 0.0357927 0.1416463 1.7975570
v 0.0455912 0.1414881 1.7479776
v 0.0590044 0.1390294 1.6626276
v 0.0160652 -0.0124443 1.8514918
v 0.0677324 0.0397653 1.8281002
v 0.0533446 0.0134894 1.8425857
v 0.0828783 0.0664238 1.7765086
v 0.0318142 -0.0036780 1.8483585
v 0.1075788 0.0731295 1.6490785
v 0.1397237 0.0713560 1.5690762
v 0.1217906 0.0693005 1.5564818
v 0.0616591 0.1494814 1.5997725
v 0.0544739 0.1563995 1.5745239
v 0.0746939 0.0746618 1.5401438
v 0.0456373 0.1607409 1.5549397
v 0.0385658 0.0893436 1.5337071
v 0.0279728 0.1615632 1.5432093
v 0.0128043 0.1715450 1.7794470
v 0.0181501 0.1844319 1.5684569
v 0.0190843 0.1867169 1.5916607
v 0.0120262 0.1671347 1.8083887
v 0.0087707 0.1550541 1.8271443
v 0.1415183 0.0164940 1.5666856
v 0.0943215 0.0741995 1.7179424
v 0.0626099 0.0186299 1.5335225
v 0.0671157 -0.0439273 1.8203999
v 0.0797117 -0.0177050 1.8029950
v 0.0190802 0.1366714 1.5333629
v 0.0189916 0.1867658 1.5791705
v 0.1090784 0.0102516 1.5472792
v 0.0234899 -0.0086508 1.8499824
v 0.0739593 0.0532236 1.8105541
v 0.0225958 -0.0711093 1.8286971
v 0.0425804 0.0037763 1.8462220
v 0.0267507 0.1274412 1.8344300
v 0.0172276 0.1156918 1.8444611
v 0.0451244 -0.0974043 1.8080889
v 0.0529408 0.1384702 1.7067548
v 0.0084699 -0.0161041 1.8534664
v 0.0614328 0.0258591 1.8374648
v 0.0078396 -0.0766508 1.8315383
v 0.0072906 0.1103265 1.8483983
v 0.0067585 -0.1219124 1.8146889
v 0.0211281 -0.1077823 1.8121351
v 0.1030370 -0.0338549 1.5488319
v 0.0206892 0.0323802 1.5350462
v 0.0125179 0.1702013 1.7951312
v 0.0830532 -0.0701856 1.7830724
v 0.0694710 -0.0843958 1.8002746
v 0.0699906 -0.0326894 1.5326536
v 0.1172042 -0.0218455 1.5743208
v 0.0505539 0.1590025 1.5640570
v 0.0159611 0.1679701 1.7142708
v 0.0189867 0.1836661 1.6063499
v 0.0384984 0.1614128 1.5479889
v 0.0618277 0.1439506 1.6261230
v 0.0554308 0.0818214 1.5352877
v 0.0122032 0.1620161 1.5400015
v 0.0137408 0.1710670 1.7606220
v 0.0990579 0.0704808 1.5484670
v 0.0960109 -0.0422471 1.7299728
v 0.0945105 0.0139662 1.7339535
v 0.1255126 0.0734622 1.5996261
v 0.0338802 0.1382820 1.8132739
v 0.0395931 0.1430668 1.7773030
v 0.0584024 0.1532436 1.5855817
v 0.1359857 0.0698249 1.5608840
v 0.1242431 0.0214762 1.6199987
v 0.1097459 -0.0197685 1.6346618
v 0.0446532 -0.0615518 1.8265674
v 0.0619606 0.1067976 1.7966290
v 0.0372117 0.0722172 1.8500091
v 0.0508232 0.0900170 1.8323406
v 0.0076737 0.0523208 1.8608288
v 0.0216326 0.0592715 1.8583660
v 0.0767925 0.1223881 1.5511087
v 0.0201002 0.0942999 1.5342550
v 0.0178089 0.1719886 1.6548934
v 0.0500860 0.1319226 1.5378516
v 0.1000192 0.1172473 1.5643392
v 0.0849207 0.1112754 1.7032062
v 0.1041169 0.1137225 1.5987055
v 0.0161632 0.1800396 1.5589397
v 0.0237246 -0.0243884 1.5323215
v 0.0105543 0.1619572 1.8190619
v 0.0071810 0.1427732 1.8339512
v -0.1298843 0.0401858 1.5579311
v -0.0389577 0.0586293 1.5339047
v -0.0552948 -0.0238139 1.8349211
v -0.0840150 0.0325650 1.7795762
v -0.1466887 0.0449455 1.5742592
v -0.0794172 0.0423186 1.5395986
v -0.0318697 -0.0399234 1.8387761
v -0.0707121 0.0016152 1.8233463
v -0.1032687 -0.0304955 1.5967106
v -0.1032687 -0.0304955 1.5967106
v -0.0867342 -0.0555384 1.5402622
v -0.0867342 -0.0555384 1.5402622
v -0.0756923 -0.0931641 1.7833409
v -0.0756923 -0.0931641 1.7833409
v -0.0880449 -0.0788903 1.7546716
v -0.0880449 -0.0788903 1.7546716
v -0.0996723 -0.0429976 1.5674783
v -0.0996723 -0.0429976 1.5674783
v -0.0160863 -0.0475869 1.8415511
v -0.0451685 -0.0023175 1.5321014
v -0.0888791 -0.0334241 1.7721274
v -0.1228165 -0.0103496 1.5585732
v -0.1312827 -0.0010649 1.5875455
v -0.0593319 -0.0752796 1.8144630
v -0.0889350 -0.0142442 1.5368598
v -0.0765424 -0.0587418 1.8034517
v -0.0318163 -0.0877318 1.8176785
v -0.0144976 -0.0943088 1.8210977
v -0.1043590 -0.0059740 1.6835339
v -0.1067677 0.0486760 1.6611134
v -0.0159265 0.1418233 1.8322788
v -0.0301292 0.1572049 1.7441515
v -0.0248701 0.1593563 1.7873105
v -0.0112076 0.1275232 1.8411070
v -0.0459408 0.1208885 1.8084620
v -0.0630542 0.0736009 1.8251655
v -0.0159651 0.0237540 1.8588054
v -0.0140573 0.0836536 1.8568408
v -0.0503590 0.0508564 1.8456756
v -0.0388656 0.1068347 1.8354386
v -0.0252661 0.0927930 1.8502688
v -0.0309381 0.0335565 1.8540798
v -0.0797525 0.0938802 1.7698671
v -0.0601314 0.1255713 1.7525177
v -0.0227938 0.1549736 1.8156675
v -0.0848332 0.1331807 1.5840718
v -0.1248253 0.0959544 1.5679460
v -0.0716537 0.1383236 1.5653688
v -0.1074598 0.0965772 1.5558873
v -0.0696848 0.1040586 1.5408190
v -0.0547482 0.1452432 1.5480489
v -0.0323540 0.1500679 1.5378848
v -0.0384236 0.1156233 1.5335571
v -0.0373710 0.1729128 1.5841078
v -0.0245334 0.1694859 1.5489554
v -0.0389449 0.1646543 1.6156241
v -0.0339069 0.1740105 1.5623966
v -0.1052280 0.0935111 1.6416475
v -0.0808002 0.1249814 1.6478329
v -0.0361560 0.1544220 1.6785760
v -0.1058653 0.0393755 1.5486248
v -0.0577171 0.0498593 1.5348746
v -0.0641725 -0.0122244 1.8305478
v -0.0198542 0.0650480 1.5350990
v -0.1443377 0.0422428 1.5638795
v -0.0435096 -0.0331117 1.8372550
v -0.0765561 0.0171415 1.8100109
v -0.0416736 0.0269788 1.5331432
v -0.0863069 -0.0024469 1.7783390
v -0.1296123 0.0127932 1.5579455
v -0.0202045 -0.1229342 1.8053815
v -0.0202045 -0.1229342 1.8053815
v -0.1176552 -0.0172258 1.5926028
v -0.0591372 -0.0905406 1.8052207
v -0.0890388 -0.0359454 1.5378870
v -0.0768726 -0.0781290 1.7931597
v -0.0186811 0.1780933 1.6257185
v -0.0818837 -0.0882646 1.7729083
v -0.0818837 -0.0882646 1.7729083
v -0.0681279 -0.0972865 1.7910581
v -0.0681279 -0.0972865 1.7910581
v -0.0232369 -0.0443167 1.8402818
v -0.0318724 -0.0675137 1.8274355
v -0.0083280 -0.0508777 1.8427001
v -0.0153202 -0.0738236 1.8301108
v -0.0475402 -0.0276145 1.5315937
v -0.0892744 -0.0585971 1.7638149
v -0.1121666 -0.0282388 1.5620931
v -0.1425752 0.0200533 1.5810230
v -0.0575778 -0.0535575 1.8246117
v -0.0849581 0.0116772 1.5379606
v -0.0739197 -0.0320596 1.8137734
v -0.0168422 0.1684065 1.6860676
v -0.0312212 -0.1034843 1.8100601
v -0.0136495 -0.1133207 1.8139057
v -0.0073033 -0.0983866 1.8226186
v -0.0219357 -0.0911583 1.8192928
v -0.1081589 -0.0141912 1.5466036
v -0.0221537 0.0013828 1.5340461
v -0.0825889 -0.0472219 1.7932111
v -0.0694034 -0.0677050 1.8101134
v -0.0676119 -0.0089934 1.5323868
v -0.0455230 -0.0822721 1.8165002
v -0.1309765 -0.0052618 1.5698481
v -0.0958529 -0.0173720 1.7348088
v -0.0939043 0.0465813 1.7273892
v -0.1174276 -0.0018879 1.6298314
v -0.1277169 0.0480072 1.6084923
v -0.1056163 0.0207548 1.6745225
v -0.1023338 -0.0275381 1.6845850
v -0.0196665 0.1497892 1.8253187
v -0.0270213 0.1591574 1.7683203
v -0.0065981 0.1303172 1.8402269
v -0.0554068 0.0991177 1.8178185
v -0.0698016 0.0842716 1.8051313
v -0.0719959 0.1117752 1.7607268
v -0.0513822 0.1253479 1.7871745
v -0.0285894 0.0646551 1.8550882
v -0.0407752 0.0414991 1.8509002
v -0.0453652 0.0807805 1.8427815
v -0.0323976 0.0994951 1.8440174
v -0.0573827 0.0618829 1.8374979
v -0.0426460 0.1143935 1.8239260
v -0.0081540 0.0207857 1.8601638
v -0.0148843 0.0553584 1.8597903
v -0.0074121 0.0812333 1.8578253
v -0.0230141 0.0280097 1.8572274
v -0.0196756 0.0874317 1.8545552
v -0.0130999 0.1340798 1.8375134
v -0.0240134 0.1580599 1.8030165
v -0.0628948 0.1271778 1.5432953
v -0.0635645 0.1415452 1.5564404
v -0.0898985 0.1189362 1.5588323
v -0.0891389 0.0992547 1.5485476
v -0.0149640 0.1694479 1.7389873
v -0.0165591 0.1504593 1.5352139
v -0.0362249 0.1354204 1.5347496
v -0.0202554 0.1176532 1.5333866
v -0.0448348 0.1482353 1.5419273
v -0.0537137 0.1101857 1.5358100
v -0.0790877 0.1357537 1.5732501
v -0.1061474 0.1159233 1.5729514
v -0.1197395 0.0958726 1.5601885
v -0.0362121 0.1743591 1.5723072
v -0.0139913 0.1728972 1.5497673
v -0.0295941 0.1721314 1.5543860
v -0.0383551 0.1696181 1.5977821
v -0.0965477 0.1103356 1.6410251
v -0.0713423 0.1239998 1.7014488
v -0.0925007 0.0955768 1.7089170
v -0.0333814 0.1545688 1.7131550
v -0.0852863 0.1294935 1.6088156
v -0.1175274 0.0956292 1.5957875
v -0.0380340 0.1581901 1.6446354
v -0.0315126 0.1333032 1.8254007
v -0.0213607 0.1211016 1.8403138
v -0.0131703 0.1115623 1.8471417
v -0.0357927 0.1416463 1.7975570
v -0.0455912 0.1414881 1.7479776
v -0.0590044 0.1390294 1.6626276
v -0.0160652 -0.0124443 1.8514918
v -0.0677324 0.0397653 1.8281002
v -0.0533446 0.0134894 1.8425857
v -0.0828783 0.0664238 1.7765086
v -0.0318142 -0.0036780 1.8483585
v -0.1075788 0.0731295 1.6490785
v -0.1397237 0.0713560 1.5690763
v -0.1217906 0.0693005 1.5564820
v -0.0616591 0.1494814 1.5997726
v -0.0544739 0.1563995 1.5745239
v -0.0746939 0.0746617 1.5401440
v -0.0456373 0.1607409 1.5549397
v -0.0385658 0.0893436 1.5337071
v -0.0279728 0.1615632 1.5432093
v -0.0128043 0.1715450 1.7794470
v -0.0181501 0.1844319 1.5684569
v -0.0190843 0.1867169 1.5916607
v -0.0120262 0.1671347 1.8083887
v -0.0087707 0.1550541 1.8271443
v -0.1415182 0.0164940 1.5666857
v -0.0943215 0.0741995 1.7179424
v -0.0626099 0.0186299 1.5335226
v -0.0671157 -0.0439273 1.8203999
v -0.0797117 -0.0177050 1.8029950
v -0.0190802 0.1366714 1.5333629
v -0.0189916 0.1867658 1.5791705
v -0.1090784 0.0102516 1.5472794
v -0.0234899 -0.0086508 1.8499824
v -0.0739593 0.0532236 1.8105541
v -0.0225958 -0.0711093 1.8286971
v -0.0425804 0.0037763 1.8462220
v -0.0267507 0.1274412 1.8344300
v -0.0172276 0.1156918 1.8444611
v -0.0451244 -0.0974043 1.8080889
v -0.0529408 0.1384701 1.7067548
v -0.0084699 -0.0161041 1.8534664
v -0.0614328 0.0258591 1.8374648
v -0.0078396 -0.0766508 1.8315383
v -0.0072906 0.1103265 1.8483983
v -0.0067585 -0.1219124 1.8146889
v -0.0211281 -0.1077823 1.8121351
v -0.1030369 -0.0338549 1.5488321
v -0.0206892 0.0323802 1.5350462
v -0.0125179 0.1702013 1.7951312
v -0.0830532 -0.0701856 1.7830724
v -0.0694710 -0.0843958 1.8002746
v -0.0699905 -0.0326894 1.5326537
v -0.1172042 -0.0218455 1.5743209
v -0.0505539 0.1590025 1.5640570
v -0.0159611 0.1679701 1.7142708
v -0.0189867 0.1836661 1.6063499
v -0.0384984 0.1614129 1.5479889
v -0.0618277 0.1439506 1.6261230
v -0.0554308 0.0818214 1.5352877
v -0.0122032 0.1620161 1.5400015
v -0.0137408 0.1710670 1.7606220
v -0.0990579 0.0704808 1.5484672
v -0.0960109 -0.0422471 1.7299728
v -0.0945105 0.0139662 1.7339535
v -0.1255126 0.0734621 1.5996262
v -0.0338802 0.1382820 1.8132739
v -0.0395931 0.1430668 1.7773030
v -0.0584024 0.1532436 1.5855818
v -0.1359857 0.0698249 1.5608841
v -0.1242431 0.0214762 1.6199988
v -0.1097459 -0.0197686 1.6346619
v -0.0446532 -0.0615518 1.8265674
v -0.0619606 0.1067976 1.7966290
v -0.0372117 0.0722172 1.8500091
v -0.0508232 0.0900170 1.8323406
v -0.0076737 0.0523208 1.8608288
v -0.0216326 0.0592715 1.8583660
v -0.0767925 0.1223881 1.5511087
v -0.0201002 0.0942999 1.5342550
v -0.0178089 0.1719886 1.6548934
v -0.0500860 0.1319226 1.5378516
v -0.1000192 0.1172473 1.5643392
v -0.0849207 0.1112754 1.7032062
v -0.1041169 0.1137225 1.5987056
v -0.0161632 0.1800396 1.5589397
v -0.0237246 -0.0243884 1.5323216
v -0.0105543 0.1619572 1.8190619
v -0.0071810 0.1427732 1.8339512
v 0.0000000 0.1905972 1.5934855
v 0.0000000 0.1905972 1.5934855
v 0.0000000 0.0690836 1.5370945
v 0.0000000 0.0690836 1.5370945
v -0.0000000 -0.0396491 1.5308630
v -0.0000000 -0.0396491 1.5308630
v -0.0000000 -0.0396491 1.5308630
v -0.0000000 -0.0396491 1.5308630
v 0.0000000 0.1687763 1.8050842
v 0.0000000 0.1687763 1.8050842
v 0.0000000 -0.0535485 1.8420904
v 0.0000000 -0.0535485 1.8420904
v 0.0000000 -0.1400389 1.8056328
v 0.0000000 -0.1400389 1.8056328
v 0.0000000 -0.1400389 1.8056328
v 0.0000000 -0.1400389 1.8056328
v -0.0000000 0.0023249 1.5360082
v -0.0000000 0.0023249 1.5360082
v 0.0000000 0.1740216 1.7758665
v 0.0000000 0.1740216 1.7758665
v 0.0000000 -0.1011587 1.8222554
v 0.0000000 -0.1011587 1.8222554
v 0.0000000 0.1566029 1.8250322
v 0.0000000 0.1566029 1.8250322
v 0.0000000 0.0183779 1.8602554
v 0.0000000 0.0183779 1.8602554
v -0.0000000 0.0794315 1.8579717
v -0.0000000 0.0794315 1.8579717
v -0.0000000 0.1306891 1.8396566
v -0.0000000 0.1306891 1.8396566
v -0.0000000 0.1727188 1.7359859
v -0.0000000 0.1727188 1.7359859
v 0.0000000 0.1480529 1.5330077
v 0.0000000 0.1480529 1.5330077
v 0.0000000 0.1161569 1.5333287
v 0.0000000 0.1161569 1.5333287
v 0.0000000 0.1733504 1.5495428
v 0.0000000 0.1733504 1.5495428
v -0.0000000 0.1828406 1.6272135
v -0.0000000 0.1828406 1.6272135
v 0.0000000 0.1868611 1.5697733
v 0.0000000 0.1868611 1.5697733
v 0.0000000 0.1722239 1.6858063
v 0.0000000 0.1722239 1.6858063
v -0.0000000 0.1880649 1.6081618
v -0.0000000 0.1880649 1.6081618
v -0.0000000 -0.0223333 1.5337927
v -0.0000000 -0.0223333 1.5337927
v 0.0000000 -0.0790012 1.8311555
v 0.0000000 -0.0790012 1.8311555
v -0.0000000 0.0352151 1.5377418
v -0.0000000 0.0352151 1.5377418
v 0.0000000 -0.1264936 1.8138468
v 0.0000000 -0.1264936 1.8138468
v 0.0000000 0.1722246 1.7915542
v 0.0000000 0.1722246 1.7915542
v -0.0000000 0.0501764 1.8610914
v -0.0000000 0.0501764 1.8610914
v -0.0000000 0.1454426 1.8322741
v -0.0000000 0.1454426 1.8322741
v 0.0000000 0.1341343 1.5321386
v 0.0000000 0.1341343 1.5321386
v 0.0000000 0.1742882 1.7573855
v 0.0000000 0.1742882 1.7573855
v 0.0000000 0.1606472 1.5381950
v 0.0000000 0.1606472 1.5381950
v -0.0000000 0.1092859 1.8484844
v -0.0000000 0.1092859 1.8484844
v 0.0000000 -0.0188257 1.8529826
v 0.0000000 -0.0188257 1.8529826
v -0.0000000 0.1762870 1.6556816
v -0.0000000 0.1762870 1.6556816
v 0.0000000 0.1714622 1.7124425
v 0.0000000 0.1714622 1.7124425
v 0.0000000 0.0960230 1.5357578
v 0.0000000 0.0960230 1.5357578
v 0.0000000 0.1815019 1.5596241
v 0.0000000 0.1815019 1.5596241
v 0.0000000 0.1900138 1.5808393
v 0.0000000 0.1900138 1.5808393
v 0.0000000 0.1631034 1.8162994
v 0.0000000 0.1631034 1.8162994
usemtl MI_Ranger
f 30 80 196
f 30 196 117
f 80 1 75
f 80 75 196
f 196 75 5
f 196 5 104
f 117 196 104
f 117 104 31
f 40 182 197
f 40 197 121
f 182 68 166
f 182 166 197
f 197 166 53
f 197 53 180
f 121 197 180
f 121 180 4
f 33 115 198
f 33 198 106
f 115 28 78
f 115 78 198
f 198 78 2
f 198 2 72
f 106 198 72
f 106 72 6
f 34 107 199
f 34 199 114
f 107 8 73
f 107 73 199
f 199 73 3
f 199 3 105
f 114 199 105
f 114 105 32
f 34 113 200
f 34 200 107
f 113 29 79
f 113 79 200
f 200 79 4
f 200 4 77
f 107 200 77
f 107 77 8
f 599 571 416
f 599 416 487
f 152 62 153
f 152 153 201
f 201 153 63
f 201 63 154
f 573 609 504
f 573 504 418
f 64 160 202
f 64 202 193
f 160 67 192
f 160 192 202
f 616 562 195
f 616 195 247
f 580 614 202
f 580 202 192
f 30 111 203
f 30 203 80
f 111 33 106
f 111 106 203
f 203 106 6
f 203 6 71
f 80 203 71
f 80 71 1
f 7 181 204
f 7 204 98
f 181 52 143
f 181 143 204
f 204 143 47
f 204 47 177
f 98 204 177
f 98 177 25
f 8 77 205
f 8 205 178
f 77 4 180
f 77 180 205
f 205 180 53
f 205 53 131
f 178 205 131
f 178 131 46
f 35 99 206
f 35 206 110
f 99 7 98
f 99 98 206
f 206 98 25
f 206 25 101
f 110 206 101
f 110 101 36
f 3 179 207
f 3 207 76
f 179 49 135
f 179 135 207
f 207 135 52
f 207 52 181
f 76 207 181
f 76 181 7
f 55 127 208
f 55 208 171
f 127 41 172
f 127 172 208
f 208 172 51
f 208 51 137
f 171 208 137
f 171 137 50
f 48 144 209
f 48 209 173
f 144 51 172
f 144 172 209
f 209 172 41
f 209 41 145
f 173 209 145
f 173 145 44
f 652 642 97
f 652 97 12
f 642 116 35
f 642 35 646
f 69 176 210
f 69 210 165
f 176 70 167
f 176 167 210
f 210 167 42
f 210 42 175
f 165 210 175
f 165 175 54
f 25 177 211
f 25 211 100
f 177 47 140
f 177 140 211
f 606 582 108
f 606 108 241
f 572 600 223
f 572 223 152
f 8 178 212
f 8 212 73
f 178 46 138
f 178 138 212
f 212 138 49
f 212 49 179
f 73 212 179
f 73 179 3
f 109 36 101
f 109 101 213
f 213 101 25
f 213 25 100
f 564 604 211
f 564 211 140
f 602 566 142
f 602 142 214
f 142 48 173
f 142 173 214
f 214 173 44
f 214 44 129
f 568 602 214
f 568 214 129
f 646 35 110
f 646 110 640
f 559 585 477
f 559 477 373
f 641 660 556
f 641 556 112
f 640 110 36
f 640 36 645
f 651 639 84
f 651 84 15
f 33 111 639
f 33 639 651
f 639 111 30
f 639 30 647
f 28 112 215
f 28 215 78
f 655 109 560
f 655 560 662
f 556 588 215
f 556 215 112
f 78 215 74
f 78 74 2
f 55 146 216
f 55 216 194
f 146 43 191
f 146 191 216
f 570 598 224
f 570 224 151
f 615 547 458
f 615 458 511
f 648 29 113
f 648 113 638
f 660 641 86
f 660 86 546
f 650 637 91
f 650 91 17
f 638 113 34
f 638 34 650
f 34 114 637
f 34 637 650
f 637 114 32
f 637 32 652
f 649 28 115
f 649 115 636
f 647 30 117
f 647 117 635
f 636 115 33
f 636 33 651
f 635 117 31
f 635 31 653
f 58 148 217
f 58 217 186
f 148 61 188
f 148 188 217
f 217 188 67
f 217 67 160
f 186 217 160
f 186 160 64
f 42 167 218
f 42 218 151
f 167 70 108
f 167 108 218
f 610 574 154
f 610 154 240
f 582 608 218
f 582 218 108
f 66 163 219
f 66 219 83
f 163 64 193
f 163 193 219
f 539 613 466
f 539 466 457
f 605 577 347
f 605 347 505
f 61 155 220
f 61 220 188
f 155 62 190
f 155 190 220
f 220 190 65
f 220 65 162
f 188 220 162
f 188 162 67
f 56 185 221
f 56 221 168
f 185 66 170
f 185 170 221
f 221 170 70
f 221 70 176
f 168 221 176
f 168 176 69
f 6 72 222
f 6 222 187
f 72 2 189
f 72 189 222
f 222 189 63
f 222 63 156
f 187 222 156
f 187 156 60
f 62 152 223
f 62 223 190
f 643 366 551
f 643 551 661
f 611 575 425
f 611 425 510
f 65 190 223
f 65 223 161
f 43 128 224
f 43 224 191
f 128 42 151
f 128 151 224
f 569 607 482
f 569 482 415
f 550 586 213
f 550 213 100
f 1 71 225
f 1 225 184
f 71 6 187
f 71 187 225
f 225 187 60
f 225 60 150
f 184 225 150
f 184 150 59
f 644 634 122
f 644 122 37
f 31 124 633
f 31 633 653
f 634 120 29
f 634 29 648
f 39 126 226
f 39 226 120
f 126 40 121
f 126 121 226
f 226 121 4
f 226 4 79
f 120 226 79
f 120 79 29
f 5 183 227
f 5 227 125
f 183 57 169
f 183 169 227
f 227 169 68
f 227 68 182
f 125 227 182
f 125 182 40
f 50 139 228
f 50 228 171
f 139 45 174
f 139 174 228
f 228 174 43
f 228 43 146
f 171 228 146
f 171 146 55
f 45 133 229
f 45 229 174
f 133 54 175
f 133 175 229
f 229 175 42
f 229 42 128
f 174 229 128
f 174 128 43
f 56 157 230
f 56 230 185
f 157 58 186
f 157 186 230
f 230 186 64
f 230 64 163
f 185 230 163
f 185 163 66
f 5 75 231
f 5 231 183
f 75 1 184
f 75 184 231
f 231 184 59
f 231 59 159
f 183 231 159
f 183 159 57
f 31 104 232
f 31 232 124
f 104 5 125
f 104 125 232
f 232 125 40
f 232 40 126
f 124 232 126
f 124 126 39
f 653 633 118
f 653 118 9
f 39 120 634
f 39 634 644
f 661 559 373
f 661 373 643
f 633 124 39
f 633 39 644
f 7 99 233
f 7 233 76
f 99 35 116
f 99 116 233
f 233 116 32
f 233 32 105
f 76 233 105
f 76 105 3
f 46 131 234
f 46 234 130
f 131 53 132
f 131 132 234
f 234 132 54
f 234 54 133
f 130 234 133
f 130 133 45
f 52 135 235
f 52 235 134
f 135 49 136
f 135 136 235
f 235 136 50
f 235 50 137
f 134 235 137
f 134 137 51
f 49 138 236
f 49 236 136
f 138 46 130
f 138 130 236
f 236 130 45
f 236 45 139
f 136 236 139
f 136 139 50
f 603 563 404
f 603 404 475
f 140 47 141
f 140 141 237
f 237 141 48
f 237 48 142
f 604 550 100
f 604 100 211
f 47 143 238
f 47 238 141
f 143 52 134
f 143 134 238
f 238 134 51
f 238 51 144
f 141 238 144
f 141 144 48
f 61 148 239
f 61 239 147
f 148 58 149
f 148 149 239
f 239 149 59
f 239 59 150
f 147 239 150
f 147 150 60
f 2 74 240
f 2 240 189
f 612 580 192
f 612 192 246
f 542 610 240
f 542 240 74
f 189 240 154
f 189 154 63
f 70 170 241
f 70 241 108
f 170 66 83
f 170 83 241
f 608 570 151
f 608 151 218
f 578 606 241
f 578 241 83
f 62 155 242
f 62 242 153
f 155 61 147
f 155 147 242
f 242 147 60
f 242 60 156
f 153 242 156
f 153 156 63
f 58 157 243
f 58 243 149
f 157 56 158
f 157 158 243
f 243 158 57
f 243 57 159
f 149 243 159
f 149 159 59
f 69 165 244
f 69 244 164
f 165 54 132
f 165 132 244
f 244 132 53
f 244 53 166
f 164 244 166
f 164 166 68
f 56 168 245
f 56 245 158
f 168 69 164
f 168 164 245
f 245 164 68
f 245 68 169
f 158 245 169
f 158 169 57
f 67 162 246
f 67 246 192
f 162 65 161
f 162 161 246
f 614 540 193
f 614 193 202
f 576 612 246
f 576 246 161
f 623 626 299
f 623 299 380
f 544 1165 526
f 544 526 350
f 590 548 194
f 590 194 216
f 641 112 28
f 641 28 649
f 41 127 247
f 41 247 195
f 127 55 194
f 127 194 247
f 566 592 237
f 566 237 142
f 548 616 247
f 548 247 194
f 565 601 478
f 565 478 406
f 248 129 44
f 248 44 145
f 195 248 145
f 195 145 41
f 1166 543 87
f 1166 87 741
f 23 81 257
f 23 257 253
f 81 27 682
f 81 682 257
f 16 85 259
f 16 259 673
f 85 22 679
f 85 679 259
f 1171 554 367
f 1171 367 534
f 87 14 252
f 87 252 741
f 19 89 261
f 19 261 677
f 89 18 675
f 89 675 261
f 18 90 742
f 18 742 675
f 90 11 671
f 90 671 742
f 14 93 744
f 14 744 252
f 93 16 673
f 93 673 744
f 22 95 263
f 22 263 679
f 95 10 249
f 95 249 263
f 11 96 746
f 11 746 671
f 96 23 253
f 96 253 746
f 27 103 752
f 27 752 682
f 553 1172 752
f 553 752 103
f 10 119 773
f 10 773 249
f 119 38 255
f 119 255 773
f 38 123 777
f 38 777 255
f 123 19 677
f 123 677 777
f 294 381 460
f 294 460 344
f 344 460 339
f 344 339 265
f 460 368 269
f 460 269 339
f 381 295 368
f 381 368 460
f 304 385 461
f 304 461 446
f 446 461 430
f 446 430 332
f 461 444 317
f 461 317 430
f 385 268 444
f 385 444 461
f 297 370 462
f 297 462 379
f 379 462 342
f 379 342 292
f 462 336 266
f 462 266 342
f 370 270 336
f 370 336 462
f 298 378 463
f 298 463 371
f 371 463 337
f 371 337 272
f 463 369 267
f 463 267 337
f 378 296 369
f 378 369 463
f 298 371 464
f 298 464 377
f 377 464 343
f 377 343 293
f 464 341 268
f 464 268 343
f 371 272 341
f 371 341 464
f 571 595 465
f 571 465 416
f 416 465 417
f 416 417 326
f 465 418 327
f 465 327 417
f 595 573 418
f 595 418 465
f 328 457 466
f 328 466 424
f 424 466 456
f 424 456 331
f 581 605 505
f 581 505 372
f 609 541 338
f 609 338 504
f 294 344 467
f 294 467 375
f 375 467 370
f 375 370 297
f 467 335 270
f 467 270 370
f 344 265 335
f 344 335 467
f 271 362 468
f 271 468 445
f 445 468 407
f 445 407 316
f 468 441 311
f 468 311 407
f 362 289 441
f 362 441 468
f 272 442 469
f 272 469 341
f 341 469 444
f 341 444 268
f 469 395 317
f 469 317 444
f 442 310 395
f 442 395 469
f 299 374 470
f 299 470 363
f 363 470 362
f 363 362 271
f 470 365 289
f 470 289 362
f 374 300 365
f 374 365 470
f 267 340 471
f 267 471 443
f 443 471 399
f 443 399 313
f 471 445 316
f 471 316 399
f 340 271 445
f 340 445 471
f 319 435 472
f 319 472 391
f 391 472 436
f 391 436 305
f 472 401 315
f 472 315 436
f 435 314 401
f 435 401 472
f 312 437 473
f 312 473 408
f 408 473 436
f 408 436 315
f 473 409 305
f 473 305 436
f 437 308 409
f 437 409 473
f 380 296 632
f 380 632 623
f 656 627 286
f 656 286 359
f 623 632 276
f 623 276 361
f 333 429 474
f 333 474 440
f 440 474 431
f 440 431 334
f 474 439 306
f 474 306 431
f 429 318 439
f 429 439 474
f 289 364 475
f 289 475 441
f 441 475 404
f 441 404 311
f 593 561 459
f 593 459 512
f 588 542 74
f 588 74 215
f 272 337 476
f 272 476 442
f 442 476 402
f 442 402 310
f 476 443 313
f 476 313 402
f 337 267 443
f 337 443 476
f 373 477 365
f 373 365 300
f 477 364 289
f 477 289 365
f 549 603 475
f 549 475 364
f 594 568 129
f 594 129 248
f 406 478 437
f 406 437 312
f 478 393 308
f 478 308 437
f 600 576 161
f 600 161 223
f 621 625 300
f 621 300 374
f 643 373 300
f 643 300 625
f 562 594 248
f 562 248 195
f 622 659 545
f 622 545 351
f 645 36 109
f 645 109 655
f 630 619 353
f 630 353 282
f 620 375 297
f 620 297 631
f 621 626 288
f 621 288 346
f 374 299 626
f 374 626 621
f 292 342 479
f 292 479 376
f 592 564 140
f 592 140 237
f 384 303 624
f 384 624 657
f 342 266 338
f 342 338 479
f 319 458 480
f 319 480 410
f 410 480 455
f 410 455 307
f 589 557 455
f 589 455 480
f 547 589 480
f 547 480 458
f 378 298 630
f 378 630 618
f 627 294 375
f 627 375 620
f 298 377 619
f 298 619 630
f 631 617 357
f 631 357 280
f 618 632 296
f 618 296 378
f 381 294 627
f 381 627 656
f 619 377 293
f 619 293 628
f 618 630 282
f 618 282 355
f 388 295 654
f 388 654 658
f 322 450 481
f 322 481 412
f 412 481 452
f 412 452 325
f 481 424 331
f 481 331 452
f 450 328 424
f 450 424 481
f 306 415 482
f 306 482 431
f 431 482 372
f 431 372 334
f 574 596 201
f 574 201 154
f 330 347 483
f 330 483 427
f 427 483 457
f 427 457 328
f 483 583 539
f 483 539 457
f 577 583 483
f 577 483 347
f 325 452 484
f 325 484 419
f 419 484 454
f 419 454 326
f 484 426 329
f 484 329 454
f 452 331 426
f 452 426 484
f 320 432 485
f 320 485 449
f 449 485 434
f 449 434 330
f 485 440 334
f 485 334 434
f 432 333 440
f 432 440 485
f 270 451 486
f 270 486 336
f 336 486 453
f 336 453 266
f 486 420 327
f 486 327 453
f 451 324 420
f 451 420 486
f 326 454 487
f 326 487 416
f 598 558 191
f 598 191 224
f 575 599 487
f 575 487 425
f 329 425 487
f 329 487 454
f 307 455 488
f 307 488 392
f 392 488 415
f 392 415 306
f 597 569 415
f 597 415 488
f 557 597 488
f 557 488 455
f 265 448 489
f 265 489 335
f 335 489 451
f 335 451 270
f 489 414 324
f 489 324 451
f 448 323 414
f 448 414 489
f 617 379 292
f 617 292 629
f 656 654 295
f 656 295 381
f 303 384 490
f 303 490 390
f 390 490 385
f 390 385 304
f 490 343 268
f 490 268 385
f 384 293 343
f 384 343 490
f 269 389 491
f 269 491 447
f 447 491 433
f 447 433 321
f 491 446 332
f 491 332 433
f 389 304 446
f 389 446 491
f 314 435 492
f 314 492 403
f 403 492 438
f 403 438 309
f 492 410 307
f 492 307 438
f 435 319 410
f 435 410 492
f 309 438 493
f 309 493 397
f 397 493 439
f 397 439 318
f 493 392 306
f 493 306 439
f 438 307 392
f 438 392 493
f 320 449 494
f 320 494 421
f 421 494 450
f 421 450 322
f 494 427 328
f 494 328 450
f 449 330 427
f 449 427 494
f 269 447 495
f 269 495 339
f 339 495 448
f 339 448 265
f 495 423 323
f 495 323 448
f 447 321 423
f 447 423 495
f 295 388 496
f 295 496 368
f 368 496 389
f 368 389 269
f 496 390 304
f 496 304 389
f 388 303 390
f 388 390 496
f 658 624 303
f 658 303 388
f 657 628 293
f 657 293 384
f 271 340 497
f 271 497 363
f 363 497 380
f 363 380 299
f 497 369 296
f 497 296 380
f 340 267 369
f 340 369 497
f 310 394 498
f 310 498 395
f 395 498 396
f 395 396 317
f 498 397 318
f 498 318 396
f 394 309 397
f 394 397 498
f 316 398 499
f 316 499 399
f 399 499 400
f 399 400 313
f 499 401 314
f 499 314 400
f 398 315 401
f 398 401 499
f 313 400 500
f 313 500 402
f 402 500 394
f 402 394 310
f 500 403 309
f 500 309 394
f 400 314 403
f 400 403 500
f 563 591 501
f 563 501 404
f 404 501 405
f 404 405 311
f 501 406 312
f 501 312 405
f 591 565 406
f 591 406 501
f 311 405 502
f 311 502 407
f 407 502 398
f 407 398 316
f 502 408 315
f 502 315 398
f 405 312 408
f 405 408 502
f 325 411 503
f 325 503 412
f 412 503 413
f 412 413 322
f 503 414 323
f 503 323 413
f 411 324 414
f 411 414 503
f 266 453 504
f 266 504 338
f 541 587 479
f 541 479 338
f 601 567 393
f 601 393 478
f 453 327 418
f 453 418 504
f 334 372 505
f 334 505 434
f 434 505 347
f 434 347 330
f 579 611 510
f 579 510 456
f 607 581 372
f 607 372 482
f 326 417 506
f 326 506 419
f 419 506 411
f 419 411 325
f 506 420 324
f 506 324 411
f 417 327 420
f 417 420 506
f 322 413 507
f 322 507 421
f 421 507 422
f 421 422 320
f 507 423 321
f 507 321 422
f 413 323 423
f 413 423 507
f 333 428 508
f 333 508 429
f 429 508 396
f 429 396 318
f 508 430 317
f 508 317 396
f 428 332 430
f 428 430 508
f 320 422 509
f 320 509 432
f 432 509 428
f 432 428 333
f 509 433 332
f 509 332 428
f 422 321 433
f 422 433 509
f 331 456 510
f 331 510 426
f 426 510 425
f 426 425 329
f 540 584 219
f 540 219 193
f 613 579 456
f 613 456 466
f 587 555 376
f 587 376 479
f 658 654 274
f 658 274 383
f 305 459 511
f 305 511 391
f 391 511 458
f 391 458 319
f 585 549 364
f 585 364 477
f 561 615 511
f 561 511 459
f 567 593 512
f 567 512 393
f 596 572 152
f 596 152 201
f 512 409 308
f 512 308 393
f 459 305 409
f 459 409 512
f 287 518 987
f 287 987 345
f 345 987 520
f 345 520 291
f 279 926 523
f 279 523 348
f 348 523 932
f 348 932 285
f 558 590 216
f 558 216 191
f 350 526 516
f 350 516 277
f 283 931 993
f 283 993 352
f 352 993 928
f 352 928 281
f 281 928 996
f 281 996 354
f 354 996 514
f 354 514 275
f 277 516 527
f 277 527 356
f 356 527 926
f 356 926 279
f 285 932 529
f 285 529 358
f 358 529 924
f 358 924 273
f 275 514 532
f 275 532 360
f 360 532 518
f 360 518 287
f 291 520 534
f 291 534 367
f 273 924 535
f 273 535 382
f 382 535 521
f 382 521 301
f 301 521 537
f 301 537 386
f 386 537 931
f 386 931 283
f 586 560 109
f 586 109 213
f 657 624 302
f 657 302 387
f 629 292 376
f 629 376 622
f 32 116 642
f 32 642 652
f 662 552 102
f 662 102 655
f 646 24 97
f 646 97 642
f 655 102 26
f 655 26 645
f 640 82 24
f 640 24 646
f 645 26 82
f 645 82 640
f 638 88 20
f 638 20 648
f 647 21 84
f 647 84 639
f 650 17 88
f 650 88 638
f 652 12 91
f 652 91 637
f 636 92 13
f 636 13 649
f 635 94 21
f 635 21 647
f 651 15 92
f 651 92 636
f 653 9 94
f 653 94 635
f 648 20 122
f 648 122 634
f 644 37 118
f 644 118 633
f 649 13 86
f 649 86 641
f 658 383 302
f 658 302 624
f 623 361 288
f 623 288 626
f 625 290 366
f 625 366 643
f 555 659 622
f 555 622 376
f 621 346 290
f 621 290 625
f 631 280 349
f 631 349 620
f 628 284 353
f 628 353 619
f 620 349 286
f 620 286 627
f 618 355 276
f 618 276 632
f 629 278 357
f 629 357 617
f 656 359 274
f 656 274 654
f 622 351 278
f 622 278 629
f 657 387 284
f 657 284 628
f 297 379 617
f 297 617 631
f 584 578 83
f 584 83 219
f 1192 1224 1130
f 1192 1130 1051
f 686 772 852
f 686 852 734
f 734 852 729
f 734 729 663
f 852 757 667
f 852 667 729
f 772 687 757
f 772 757 852
f 694 776 853
f 694 853 838
f 838 853 822
f 838 822 722
f 853 836 707
f 853 707 822
f 776 666 836
f 776 836 853
f 689 759 854
f 689 854 770
f 770 854 732
f 770 732 684
f 854 726 664
f 854 664 732
f 759 668 726
f 759 726 854
f 690 769 855
f 690 855 760
f 760 855 727
f 760 727 670
f 855 758 665
f 855 665 727
f 769 688 758
f 769 758 855
f 690 760 856
f 690 856 768
f 768 856 733
f 768 733 685
f 856 731 666
f 856 666 733
f 760 670 731
f 760 731 856
f 1204 1198 992
f 1204 992 1126
f 808 857 809
f 808 809 716
f 857 810 717
f 857 717 809
f 1162 1234 1149
f 1162 1149 979
f 718 849 858
f 718 858 816
f 816 858 848
f 816 848 721
f 1198 1230 1150
f 1198 1150 992
f 1159 1237 858
f 1159 858 849
f 686 734 859
f 686 859 766
f 766 859 759
f 766 759 689
f 859 725 668
f 859 668 759
f 734 663 725
f 734 725 859
f 669 748 860
f 669 860 837
f 837 860 799
f 837 799 706
f 860 833 701
f 860 701 799
f 748 681 833
f 748 833 860
f 670 834 861
f 670 861 731
f 731 861 836
f 731 836 666
f 861 787 707
f 861 707 836
f 834 700 787
f 834 787 861
f 691 765 862
f 691 862 749
f 749 862 748
f 749 748 669
f 862 751 681
f 862 681 748
f 765 692 751
f 765 751 862
f 665 730 863
f 665 863 835
f 835 863 791
f 835 791 703
f 863 837 706
f 863 706 791
f 730 669 837
f 730 837 863
f 709 827 864
f 709 864 783
f 783 864 828
f 783 828 695
f 864 793 705
f 864 705 828
f 827 704 793
f 827 793 864
f 702 829 865
f 702 865 800
f 800 865 828
f 800 828 705
f 865 801 695
f 865 695 828
f 829 698 801
f 829 801 865
f 672 747 866
f 672 866 736
f 736 866 771
f 736 771 688
f 866 762 691
f 866 691 771
f 747 254 762
f 747 762 866
f 723 821 867
f 723 867 832
f 832 867 823
f 832 823 724
f 867 831 696
f 867 696 823
f 821 708 831
f 821 831 867
f 681 750 868
f 681 868 833
f 833 868 796
f 833 796 701
f 1227 1183 796
f 1227 796 868
f 1169 1227 868
f 1169 868 750
f 670 727 869
f 670 869 834
f 834 869 794
f 834 794 700
f 869 835 703
f 869 703 794
f 727 665 835
f 727 835 869
f 1211 1179 764
f 1211 764 872
f 764 870 751
f 764 751 692
f 870 750 681
f 870 681 751
f 1207 1169 750
f 1207 750 870
f 1228 1170 999
f 1228 999 1111
f 798 871 829
f 798 829 702
f 871 785 698
f 871 698 829
f 1185 1225 871
f 1185 871 798
f 1173 1211 872
f 1173 872 753
f 753 872 763
f 753 763 683
f 872 764 692
f 872 692 763
f 1187 1217 915
f 1187 915 785
f 254 258 873
f 254 873 762
f 762 873 765
f 762 765 691
f 873 763 692
f 873 692 765
f 258 683 763
f 258 763 873
f 680 756 874
f 680 874 260
f 260 874 737
f 260 737 674
f 874 766 689
f 874 689 737
f 756 686 766
f 756 766 874
f 684 732 875
f 684 875 767
f 1213 1177 847
f 1213 847 876
f 1233 1161 728
f 1233 728 906
f 732 664 728
f 732 728 875
f 709 850 876
f 709 876 802
f 802 876 847
f 802 847 697
f 1177 1221 888
f 1177 888 847
f 676 738 877
f 676 877 262
f 262 877 755
f 262 755 678
f 877 768 685
f 877 685 755
f 738 690 768
f 738 768 877
f 676 743 878
f 676 878 738
f 738 878 769
f 738 769 690
f 878 736 688
f 878 688 769
f 743 672 736
f 743 736 878
f 674 737 879
f 674 879 745
f 745 879 754
f 745 754 251
f 879 770 684
f 879 684 754
f 737 689 770
f 737 770 879
f 680 264 880
f 680 880 756
f 756 880 772
f 756 772 686
f 880 735 687
f 880 687 772
f 264 250 735
f 264 735 880
f 712 842 881
f 712 881 804
f 804 881 844
f 804 844 715
f 881 816 721
f 881 721 844
f 842 718 816
f 842 816 881
f 696 807 882
f 696 882 823
f 823 882 761
f 823 761 724
f 1189 1231 882
f 1189 882 807
f 720 739 883
f 720 883 819
f 819 883 849
f 819 849 718
f 1200 1238 1101
f 1200 1101 1091
f 1232 1190 1050
f 1232 1050 1125
f 715 844 884
f 715 884 811
f 811 884 846
f 811 846 716
f 884 818 719
f 884 719 846
f 844 721 818
f 844 818 884
f 710 824 885
f 710 885 841
f 841 885 826
f 841 826 720
f 885 832 724
f 885 724 826
f 824 723 832
f 824 832 885
f 668 843 886
f 668 886 726
f 726 886 845
f 726 845 664
f 886 812 717
f 886 717 845
f 843 714 812
f 843 812 886
f 716 846 887
f 716 887 808
f 1191 1219 857
f 1191 857 808
f 1238 1160 1092
f 1238 1092 1101
f 719 817 887
f 719 887 846
f 697 847 888
f 697 888 784
f 784 888 807
f 784 807 696
f 1202 1232 1125
f 1202 1125 1008
f 1216 1184 1039
f 1216 1039 1146
f 663 840 889
f 663 889 725
f 725 889 843
f 725 843 668
f 889 806 714
f 889 714 843
f 840 713 806
f 840 806 889
f 256 778 890
f 256 890 782
f 782 890 775
f 782 775 693
f 890 755 685
f 890 685 775
f 778 678 755
f 778 755 890
f 693 775 891
f 693 891 781
f 781 891 776
f 781 776 694
f 891 733 666
f 891 666 776
f 775 685 733
f 775 733 891
f 667 780 892
f 667 892 839
f 839 892 825
f 839 825 711
f 892 838 722
f 892 722 825
f 780 694 838
f 780 838 892
f 704 827 893
f 704 893 795
f 795 893 830
f 795 830 699
f 893 802 697
f 893 697 830
f 827 709 802
f 827 802 893
f 699 830 894
f 699 894 789
f 789 894 831
f 789 831 708
f 894 784 696
f 894 696 831
f 830 697 784
f 830 784 894
f 710 841 895
f 710 895 813
f 813 895 842
f 813 842 712
f 895 819 718
f 895 718 842
f 841 720 819
f 841 819 895
f 667 839 896
f 667 896 729
f 729 896 840
f 729 840 663
f 896 815 713
f 896 713 840
f 839 711 815
f 839 815 896
f 687 779 897
f 687 897 757
f 757 897 780
f 757 780 667
f 897 781 694
f 897 694 780
f 779 693 781
f 779 781 897
f 250 774 898
f 250 898 735
f 735 898 779
f 735 779 687
f 898 782 693
f 898 693 779
f 774 256 782
f 774 782 898
f 669 730 899
f 669 899 749
f 749 899 771
f 749 771 691
f 899 758 688
f 899 688 771
f 730 665 758
f 730 758 899
f 700 786 900
f 700 900 787
f 787 900 788
f 787 788 707
f 900 789 708
f 900 708 788
f 786 699 789
f 786 789 900
f 706 790 901
f 706 901 791
f 791 901 792
f 791 792 703
f 901 793 704
f 901 704 792
f 790 705 793
f 790 793 901
f 703 792 902
f 703 902 794
f 794 902 786
f 794 786 700
f 902 795 699
f 902 699 786
f 792 704 795
f 792 795 902
f 1230 1202 1008
f 1230 1008 1150
f 796 903 797
f 796 797 701
f 903 798 702
f 903 702 797
f 1226 1186 1041
f 1226 1041 1114
f 701 797 904
f 701 904 799
f 799 904 790
f 799 790 706
f 904 800 705
f 904 705 790
f 797 702 800
f 797 800 904
f 715 803 905
f 715 905 804
f 804 905 805
f 804 805 712
f 905 806 713
f 905 713 805
f 803 714 806
f 803 806 905
f 664 845 906
f 664 906 728
f 1176 1210 1118
f 1176 1118 1014
f 1193 1233 906
f 1193 906 810
f 845 717 810
f 845 810 906
f 724 761 907
f 724 907 826
f 826 907 739
f 826 739 720
f 1229 1197 739
f 1229 739 907
f 1231 1201 761
f 1231 761 882
f 716 809 908
f 716 908 811
f 811 908 803
f 811 803 715
f 908 812 714
f 908 714 803
f 809 717 812
f 809 812 908
f 712 805 909
f 712 909 813
f 813 909 814
f 813 814 710
f 909 815 711
f 909 711 814
f 805 713 815
f 805 815 909
f 723 820 910
f 723 910 821
f 821 910 788
f 821 788 708
f 910 822 707
f 910 707 788
f 820 722 822
f 820 822 910
f 710 814 911
f 710 911 824
f 824 911 820
f 824 820 723
f 911 825 722
f 911 722 820
f 814 711 825
f 814 825 911
f 721 848 912
f 721 912 818
f 818 912 817
f 818 817 719
f 1235 1195 817
f 1235 817 912
f 1237 1199 848
f 1237 848 858
f 251 754 913
f 251 913 740
f 1167 1213 876
f 1167 876 850
f 1209 1175 767
f 1209 767 875
f 754 684 767
f 754 767 913
f 695 851 914
f 695 914 783
f 783 914 850
f 783 850 709
f 1239 1167 850
f 1239 850 914
f 1182 1218 1158
f 1182 1158 1094
f 1181 1239 914
f 1181 914 851
f 1188 1226 1114
f 1188 1114 1028
f 915 801 698
f 915 698 785
f 851 695 801
f 851 801 915
f 1203 1159 849
f 1203 849 883
f 937 985 1095
f 937 1095 1019
f 985 916 980
f 985 980 1095
f 1095 980 920
f 1095 920 1004
f 1019 1095 1004
f 1019 1004 938
f 945 1081 1096
f 945 1096 1021
f 1081 973 1065
f 1081 1065 1096
f 1096 1065 958
f 1096 958 1079
f 1021 1096 1079
f 1021 1079 919
f 940 1017 1097
f 940 1097 1006
f 1017 935 983
f 1017 983 1097
f 1097 983 917
f 1097 917 977
f 1006 1097 977
f 1006 977 921
f 941 1007 1098
f 941 1098 1016
f 1007 923 978
f 1007 978 1098
f 1098 978 918
f 1098 918 1005
f 1016 1098 1005
f 1016 1005 939
f 941 1015 1099
f 941 1099 1007
f 1015 936 984
f 1015 984 1099
f 1099 984 919
f 1099 919 982
f 1007 1099 982
f 1007 982 923
f 1219 1193 810
f 1219 810 857
f 1051 967 1052
f 1051 1052 1100
f 1100 1052 968
f 1100 968 1053
f 1222 1178 1090
f 1222 1090 1131
f 969 1059 1101
f 969 1101 1092
f 1059 972 1091
f 1059 1091 1101
f 1199 1235 912
f 1199 912 848
f 1236 1200 1091
f 1236 1091 1155
f 937 1013 1102
f 937 1102 985
f 1013 940 1006
f 1013 1006 1102
f 1102 1006 921
f 1102 921 976
f 985 1102 976
f 985 976 916
f 922 1080 1103
f 922 1103 997
f 1080 957 1042
f 1080 1042 1103
f 1103 1042 952
f 1103 952 1076
f 997 1103 1076
f 997 1076 934
f 923 982 1104
f 923 1104 1077
f 982 919 1079
f 982 1079 1104
f 1104 1079 958
f 1104 958 1030
f 1077 1104 1030
f 1077 1030 951
f 942 998 1105
f 942 1105 1012
f 998 922 997
f 998 997 1105
f 1105 997 934
f 1105 934 1000
f 1012 1105 1000
f 1012 1000 943
f 918 1078 1106
f 918 1106 981
f 1078 954 1034
f 1078 1034 1106
f 1106 1034 957
f 1106 957 1080
f 981 1106 1080
f 981 1080 922
f 960 1026 1107
f 960 1107 1070
f 1026 946 1071
f 1026 1071 1107
f 1107 1071 956
f 1107 956 1036
f 1070 1107 1036
f 1070 1036 955
f 953 1043 1108
f 953 1108 1072
f 1043 956 1071
f 1043 1071 1108
f 1108 1071 946
f 1108 946 1044
f 1072 1108 1044
f 1072 1044 949
f 513 989 1109
f 513 1109 531
f 989 939 1018
f 989 1018 1109
f 1109 1018 942
f 1109 942 1009
f 531 1109 1009
f 531 1009 517
f 974 1075 1110
f 974 1110 1064
f 1075 975 1066
f 1075 1066 1110
f 1110 1066 947
f 1110 947 1074
f 1064 1110 1074
f 1064 1074 959
f 934 1076 1111
f 934 1111 999
f 1076 952 1039
f 1076 1039 1111
f 1215 1185 798
f 1215 798 903
f 1180 1212 1115
f 1180 1115 1011
f 923 1077 1112
f 923 1112 978
f 1077 951 1037
f 1077 1037 1112
f 1112 1037 954
f 1112 954 1078
f 978 1112 1078
f 978 1078 918
f 1170 1208 1113
f 1170 1113 999
f 1011 943 1000
f 1011 1000 1113
f 1113 1000 934
f 1113 934 999
f 1184 1228 1111
f 1184 1111 1039
f 1220 1192 1051
f 1220 1051 1100
f 1041 953 1072
f 1041 1072 1114
f 1114 1072 949
f 1114 949 1028
f 1221 1189 807
f 1221 807 888
f 1175 1205 913
f 1175 913 767
f 533 519 1010
f 533 1010 1115
f 1115 1010 943
f 1115 943 1011
f 1214 1168 1093
f 1214 1093 1119
f 517 1009 1116
f 517 1116 986
f 1009 942 1012
f 1009 1012 1116
f 1116 1012 943
f 1116 943 1010
f 986 1116 1010
f 986 1010 519
f 933 524 1117
f 933 1117 1003
f 524 927 990
f 524 990 1117
f 1117 990 940
f 1117 940 1013
f 1003 1117 1013
f 1003 1013 937
f 935 1014 1118
f 935 1118 983
f 1212 1174 533
f 1212 533 1115
f 1205 1163 740
f 1205 740 913
f 983 1118 979
f 983 979 917
f 960 1045 1119
f 960 1119 1093
f 1045 948 1090
f 1045 1090 1119
f 1190 1222 1131
f 1190 1131 1050
f 1178 1214 1119
f 1178 1119 1090
f 929 994 1120
f 929 1120 991
f 994 930 1002
f 994 1002 1120
f 1120 1002 936
f 1120 936 1015
f 991 1120 1015
f 991 1015 941
f 929 991 1121
f 929 1121 995
f 991 941 1016
f 991 1016 1121
f 1121 1016 939
f 1121 939 989
f 995 1121 989
f 995 989 513
f 927 528 1122
f 927 1122 990
f 528 515 1001
f 528 1001 1122
f 1122 1001 935
f 1122 935 1017
f 990 1122 1017
f 990 1017 940
f 933 1003 1123
f 933 1123 530
f 1003 937 1019
f 1003 1019 1123
f 1123 1019 938
f 1123 938 988
f 530 1123 988
f 530 988 925
f 963 1047 1124
f 963 1124 1085
f 1047 966 1087
f 1047 1087 1124
f 1124 1087 972
f 1124 972 1059
f 1085 1124 1059
f 1085 1059 969
f 947 1066 1125
f 947 1125 1050
f 1066 975 1008
f 1066 1008 1125
f 1201 1229 907
f 1201 907 761
f 1223 1191 808
f 1223 808 887
f 971 1062 1126
f 971 1126 992
f 1062 969 1092
f 1062 1092 1126
f 1206 1176 1014
f 1206 1014 1156
f 1160 1204 1126
f 1160 1126 1092
f 966 1054 1127
f 966 1127 1087
f 1054 967 1089
f 1054 1089 1127
f 1127 1089 970
f 1127 970 1061
f 1087 1127 1061
f 1087 1061 972
f 961 1084 1128
f 961 1128 1067
f 1084 971 1069
f 1084 1069 1128
f 1128 1069 975
f 1128 975 1075
f 1067 1128 1075
f 1067 1075 974
f 921 977 1129
f 921 1129 1086
f 977 917 1088
f 977 1088 1129
f 1129 1088 968
f 1129 968 1055
f 1086 1129 1055
f 1086 1055 965
f 967 1051 1130
f 967 1130 1089
f 1194 1220 1100
f 1194 1100 1053
f 1225 1187 785
f 1225 785 871
f 970 1089 1130
f 970 1130 1060
f 948 1027 1131
f 948 1131 1090
f 1027 947 1050
f 1027 1050 1131
f 1224 1196 1060
f 1224 1060 1130
f 1179 1207 870
f 1179 870 764
f 916 976 1132
f 916 1132 1083
f 976 921 1086
f 976 1086 1132
f 1132 1086 965
f 1132 965 1049
f 1083 1132 1049
f 1083 1049 964
f 522 1025 1133
f 522 1133 538
f 1025 944 1020
f 1025 1020 1133
f 1133 1020 936
f 1133 936 1002
f 538 1133 1002
f 538 1002 930
f 944 1024 1134
f 944 1134 1020
f 1024 945 1021
f 1024 1021 1134
f 1134 1021 919
f 1134 919 984
f 1020 1134 984
f 1020 984 936
f 920 1082 1135
f 920 1135 1023
f 1082 962 1068
f 1082 1068 1135
f 1135 1068 973
f 1135 973 1081
f 1023 1135 1081
f 1023 1081 945
f 955 1038 1136
f 955 1136 1070
f 1038 950 1073
f 1038 1073 1136
f 1136 1073 948
f 1136 948 1045
f 1070 1136 1045
f 1070 1045 960
f 950 1032 1137
f 950 1137 1073
f 1032 959 1074
f 1032 1074 1137
f 1137 1074 947
f 1137 947 1027
f 1073 1137 1027
f 1073 1027 948
f 961 1056 1138
f 961 1138 1084
f 1056 963 1085
f 1056 1085 1138
f 1138 1085 969
f 1138 969 1062
f 1084 1138 1062
f 1084 1062 971
f 920 980 1139
f 920 1139 1082
f 980 916 1083
f 980 1083 1139
f 1139 1083 964
f 1139 964 1058
f 1082 1139 1058
f 1082 1058 962
f 938 1004 1140
f 938 1140 1022
f 1004 920 1023
f 1004 1023 1140
f 1140 1023 945
f 1140 945 1024
f 1022 1140 1024
f 1022 1024 944
f 925 988 1141
f 925 1141 536
f 988 938 1022
f 988 1022 1141
f 1141 1022 944
f 1141 944 1025
f 536 1141 1025
f 536 1025 522
f 922 998 1142
f 922 1142 981
f 998 942 1018
f 998 1018 1142
f 1142 1018 939
f 1142 939 1005
f 981 1142 1005
f 981 1005 918
f 951 1030 1143
f 951 1143 1029
f 1030 958 1031
f 1030 1031 1143
f 1143 1031 959
f 1143 959 1032
f 1029 1143 1032
f 1029 1032 950
f 957 1034 1144
f 957 1144 1033
f 1034 954 1035
f 1034 1035 1144
f 1144 1035 955
f 1144 955 1036
f 1033 1144 1036
f 1033 1036 956
f 954 1037 1145
f 954 1145 1035
f 1037 951 1029
f 1037 1029 1145
f 1145 1029 950
f 1145 950 1038
f 1035 1145 1038
f 1035 1038 955
f 1186 1216 1146
f 1186 1146 1041
f 1039 952 1040
f 1039 1040 1146
f 1146 1040 953
f 1146 953 1041
f 1217 1181 851
f 1217 851 915
f 952 1042 1147
f 952 1147 1040
f 1042 957 1033
f 1042 1033 1147
f 1147 1033 956
f 1147 956 1043
f 1040 1147 1043
f 1040 1043 953
f 966 1047 1148
f 966 1148 1046
f 1047 963 1048
f 1047 1048 1148
f 1148 1048 964
f 1148 964 1049
f 1046 1148 1049
f 1046 1049 965
f 917 979 1149
f 917 1149 1088
f 1161 1209 875
f 1161 875 728
f 1195 1223 887
f 1195 887 817
f 1088 1149 1053
f 1088 1053 968
f 975 1069 1150
f 975 1150 1008
f 1069 971 992
f 1069 992 1150
f 1196 1236 1155
f 1196 1155 1060
f 1234 1194 1053
f 1234 1053 1149
f 967 1054 1151
f 967 1151 1052
f 1054 966 1046
f 1054 1046 1151
f 1151 1046 965
f 1151 965 1055
f 1052 1151 1055
f 1052 1055 968
f 963 1056 1152
f 963 1152 1048
f 1056 961 1057
f 1056 1057 1152
f 1152 1057 962
f 1152 962 1058
f 1048 1152 1058
f 1048 1058 964
f 974 1064 1153
f 974 1153 1063
f 1064 959 1031
f 1064 1031 1153
f 1153 1031 958
f 1153 958 1065
f 1063 1153 1065
f 1063 1065 973
f 961 1067 1154
f 961 1154 1057
f 1067 974 1063
f 1067 1063 1154
f 1154 1063 973
f 1154 973 1068
f 1057 1154 1068
f 1057 1068 962
f 972 1061 1155
f 972 1155 1091
f 1061 970 1060
f 1061 1060 1155
f 1197 1203 883
f 1197 883 739
f 1240 1182 1094
f 1240 1094 1157
f 515 525 1156
f 515 1156 1001
f 1208 1180 1011
f 1208 1011 1113
f 1164 1206 1156
f 1164 1156 525
f 1001 1156 1014
f 1001 1014 935
f 946 1026 1157
f 946 1157 1094
f 1026 960 1093
f 1026 1093 1157
f 1210 1162 979
f 1210 979 1118
f 1183 1215 903
f 1183 903 796
f 1168 1240 1157
f 1168 1157 1093
f 1218 1188 1028
f 1218 1028 1158
f 1158 1028 949
f 1158 949 1044
f 1094 1158 1044
f 1094 1044 946
