# Evaluated render-only extract from Quaternius's CC0 Modular Character Outfits - Fantasy
o Male_Ranger_Legs
v 0.0000000 -0.0670254 1.0513945
v 0.0000000 -0.0670254 1.0513945
v 0.0000000 -0.0722221 1.0095260
v 0.0000000 -0.0722221 1.0095260
v 0.0400915 -0.0651305 1.0105278
v 0.0391534 -0.0621679 1.0512371
v 0.0996805 -0.0401078 1.0511885
v 0.1050976 -0.0450600 1.0100083
v 0.1364079 -0.0139563 1.0111196
v 0.1280499 -0.0052419 1.0511506
v 0.1277023 0.0255949 1.0511024
v 0.1387138 0.0242440 1.0122511
v 0.1387991 0.0666529 1.0128696
v 0.1215394 0.0617768 1.0508319
v 0.0925859 0.1258992 1.0148654
v 0.0851406 0.1110955 1.0509394
v 0.0321396 0.1200186 1.0506231
v 0.0351246 0.1381143 1.0146343
v 0.0000000 0.1388694 1.0129179
v 0.0000000 0.1388694 1.0129179
v 0.0000000 0.1199843 1.0507531
v 0.0000000 0.1199843 1.0507531
v 0.0000000 0.1457420 0.9796031
v 0.0000000 0.1457420 0.9796031
v 0.0361057 0.1508069 0.9821928
v 0.0991968 0.1348976 0.9838271
v 0.1493495 0.0716492 0.9808010
v 0.1510564 0.0234725 0.9788492
v 0.1471495 -0.0179224 0.9776044
v 0.1135487 -0.0491160 0.9777051
v 0.0385644 -0.0685351 0.9681947
v 0.0000000 -0.0733959 0.9686222
v 0.0000000 -0.0733959 0.9686222
v -0.0000000 -0.0494058 0.9047516
v -0.0000000 -0.0494058 0.9047516
v 0.0267505 -0.0510053 0.9044580
v 0.1128105 -0.0541693 0.9165568
v 0.1554260 -0.0237882 0.9185928
v 0.1612549 0.0211337 0.9174841
v 0.1581421 0.0705264 0.9200808
v 0.1065291 0.1296533 0.9176300
v 0.0302129 0.1094123 0.9036259
v 0.0000000 0.0948945 0.9186069
v 0.0000000 0.0948945 0.9186069
v -0.0000000 -0.0669441 0.9344851
v -0.0000000 -0.0669441 0.9344851
v 0.0305960 -0.0670251 0.9347478
v 0.1161158 -0.0507698 0.9422014
v 0.1535993 -0.0217165 0.9428437
v 0.1588178 0.0221493 0.9428805
v 0.1564997 0.0713295 0.9446173
v 0.0299967 0.1319564 0.9266697
v 0.1055501 0.1386032 0.9343688
v 0.0000000 0.1137038 0.9306079
v 0.0000000 0.1137038 0.9306079
v 0.0615477 0.1179198 1.0508730
v 0.0652842 0.1343449 1.0153837
v 0.0691993 0.1458139 0.9828116
v 0.0661144 0.1306765 0.9111214
v 0.0676486 0.1434635 0.9315984
v 0.0100632 -0.0119932 0.8853946
v -0.0000000 -0.0131834 0.8888983
v -0.0000000 -0.0131834 0.8888983
v 0.0039005 0.0217288 0.8806049
v 0.0039005 0.0217288 0.8806049
v 0.0000000 0.0164187 0.8822059
v 0.0000000 0.0164187 0.8822059
v 0.0000000 0.0164187 0.8822059
v 0.0000000 0.0164187 0.8822059
v 0.0000000 0.0561507 0.8899326
v 0.0000000 0.0561507 0.8899326
v 0.0049057 0.0566409 0.8880324
v 0.0385163 -0.0480898 0.8142786
v 0.1211122 -0.0537539 0.8192080
v 0.1595527 -0.0274179 0.8211727
v 0.1707048 0.0207082 0.8214239
v 0.1650696 0.0708926 0.8206183
v 0.1131477 0.1282013 0.8181620
v 0.0391442 0.1044150 0.8122507
v 0.0772135 0.1255731 0.8162158
v 0.0168010 -0.0230947 0.8119345
v 0.0092855 0.0213201 0.8120819
v 0.0092855 0.0213201 0.8120819
v 0.0103166 0.0572151 0.8121415
v 0.0490246 -0.0413081 0.6904589
v 0.1274820 -0.0531994 0.6986461
v 0.1636306 -0.0388317 0.7025630
v 0.1783752 0.0251277 0.7014120
v 0.1743383 0.0875515 0.7021701
v 0.1134359 0.1230808 0.6982062
v 0.0499739 0.1059382 0.6939393
v 0.0824743 0.1226018 0.6962238
v 0.0247214 -0.0151704 0.6912356
v 0.0135512 0.0149171 0.6904114
v 0.0135512 0.0149171 0.6904114
v 0.0180078 0.0572148 0.6897956
v 0.0452758 -0.0164505 0.5119374
v 0.1427870 0.0078909 0.5130402
v 0.1650846 0.0340687 0.5129102
v 0.1707879 0.0674188 0.5161742
v 0.1776512 0.0834566 0.5249432
v 0.1090088 0.1523440 0.5158306
v 0.0435943 0.1300662 0.5090452
v 0.0805549 0.1443789 0.5065914
v 0.0248335 0.0031462 0.5068783
v 0.0159668 0.0248770 0.5098740
v 0.0159668 0.0248770 0.5098740
v 0.0141146 0.0755883 0.5020848
v 0.0642047 0.0139764 0.4254588
v 0.1143328 0.0159336 0.4267924
v 0.1359413 0.0412080 0.4286188
v 0.1432180 0.0566096 0.4277694
v 0.1473060 0.0880253 0.4307189
v 0.1040802 0.1382754 0.4341847
v 0.0477129 0.1018083 0.4322972
v 0.0790481 0.1320193 0.4319493
v 0.0519104 0.0234072 0.4285886
v 0.0425110 0.0405886 0.4284970
v 0.0425110 0.0405886 0.4284970
v 0.0363913 0.0733464 0.4298449
v 0.0741257 -0.0499010 1.0514363
v 0.0776509 -0.0544228 1.0102483
v 0.0827760 -0.0578936 0.9773522
v 0.0766631 -0.0605316 0.9148903
v 0.0771502 -0.0623108 0.9441975
v 0.0804448 -0.0598513 0.8171705
v 0.0825411 -0.0532373 0.6932557
v 0.0876541 -0.0080868 0.5074825
v 0.0866130 0.0088920 0.4226158
v 0.1597290 0.0108492 0.5650272
v 0.1340021 -0.0298245 0.5638943
v 0.0496491 -0.0213973 0.5617543
v 0.0345459 0.0093081 0.5589774
v 0.1107216 0.1280825 0.5675064
v 0.1648803 0.0829020 0.5690836
v 0.0191732 0.0574574 0.5612957
v 0.0191732 0.0574574 0.5612957
v 0.0789680 0.1373599 0.5589195
v 0.1751245 0.0519684 0.5703679
v 0.0211967 0.0695805 0.5621615
v 0.0432739 0.1183474 0.5770909
v 0.0803395 -0.0466578 0.5668563
v 0.1638794 -0.0129545 0.6312680
v 0.0497047 -0.0331850 0.6270580
v 0.1178360 0.1424258 0.6348454
v 0.0853570 0.1327477 0.6332585
v 0.0235245 0.0538703 0.6272357
v 0.1326642 -0.0592320 0.6347039
v 0.0298462 -0.0084226 0.6272148
v 0.1670732 0.0794616 0.6362591
v 0.0205078 0.0234683 0.6277545
v 0.0205078 0.0234683 0.6277545
v 0.1773347 0.0376817 0.6361988
v 0.0578155 0.1113298 0.6329463
v 0.0843755 -0.0394470 0.6285352
v 0.1083049 -0.0297311 0.4671708
v 0.0806556 -0.0279615 0.4789385
v 0.1646681 0.0392474 0.5004103
v 0.0445282 -0.0214080 0.4988613
v 0.1210179 0.1078219 1.0135612
v 0.1026843 0.0918006 1.0508720
v 0.1333576 0.1123660 0.9832512
v 0.1325283 0.1069850 0.9196652
v 0.1310324 0.1078147 0.9428003
v 0.1402565 0.1087958 0.8197702
v 0.1469161 0.1155415 0.7002110
v 0.1700786 0.1071691 0.5197918
v 0.1406860 0.1117862 0.4323384
v 0.1547911 0.1068649 0.5724270
v 0.1459122 0.1115420 0.6379671
v 0.1703281 0.0675052 0.4833126
v 0.1703281 0.0675052 0.4833126
v 0.1816058 0.0909130 0.4702191
v 0.1122852 0.1531235 0.4971871
v 0.1666962 0.1266455 0.4716585
v 0.0827675 0.1416629 0.6096492
v 0.1467596 0.1280923 0.6637470
v 0.0836868 0.1342166 0.5942493
v 0.1158066 0.1318973 0.6120372
v 0.0662460 0.1293643 0.5748745
v 0.1721802 0.0840476 0.6769446
v 0.1767578 0.0295928 0.6732824
v 0.1613464 -0.0396783 0.6828420
v 0.0203610 0.0503307 0.5302104
v 0.0203610 0.0503307 0.5302104
v 0.0318897 0.0114048 0.5235618
v 0.0187533 0.0789015 0.5305075
v 0.0809618 0.1472543 0.4796887
v 0.0368252 0.1293811 0.4773450
v 0.0279402 0.0065328 0.5164122
v 0.0190618 0.0354793 0.5196081
v 0.0190618 0.0354793 0.5196081
v 0.1494552 0.0897344 0.4964022
v 0.1494552 0.0897344 0.4964022
v 0.0426069 -0.0145230 0.5056154
v 0.1118225 0.1531640 0.5059928
v 0.1325232 -0.0167497 0.4886636
v 0.0855863 -0.0141436 0.4972298
v 0.1639583 0.0378397 0.5074967
v 0.1486804 0.0636873 0.5028204
v 0.1486804 0.0636873 0.5028204
v 0.1506661 0.1208610 0.4976012
v 0.0179996 0.0773375 0.5202723
v 0.0803871 0.1428225 0.4910809
v 0.0410309 0.1306460 0.4901187
v 0.1359815 0.1396276 0.5143837
v 0.1340613 0.1435303 0.5039372
v 0.1327120 0.1498000 0.4898144
v 0.1207886 0.1343386 0.4325940
v 0.0644951 0.1398928 0.5456845
v 0.1585496 0.0607360 0.4594022
v 0.0195988 0.0585450 0.4650659
v 0.0338290 0.1331636 0.4658990
v 0.0810630 0.1539878 0.4601315
v 0.1488899 0.0409113 0.4631302
v 0.0265808 0.0312197 0.4620054
v 0.0265808 0.0312197 0.4620054
v 0.0365600 0.0040591 0.4589536
v 0.0796976 -0.0302308 0.4601296
v 0.0496540 -0.0096030 0.4569972
v 0.1539001 0.1238406 0.4552304
v 0.1597061 0.0955766 0.4521188
v 0.1109466 0.1486209 0.4629056
v 0.1323547 0.1430972 0.4644582
v 0.1077001 -0.0305444 0.4639284
v 0.1493807 0.0590535 0.4465216
v 0.0336175 0.1345867 0.4601405
v 0.0795555 0.1419070 0.4490086
v 0.1433096 0.0395696 0.4490269
v 0.0367737 0.0042422 0.4533994
v 0.0793890 -0.0244819 0.4533101
v 0.1398010 0.1147006 0.4472196
v 0.1251831 0.1357119 0.4494321
v 0.0194411 0.0574789 0.4585268
v 0.0263061 0.0308535 0.4564664
v 0.0263061 0.0308535 0.4564664
v 0.0502785 -0.0099962 0.4515160
v 0.1489816 0.0898187 0.4439414
v 0.1078491 0.1427615 0.4499662
v 0.1060735 -0.0258883 0.4591608
v 0.1435716 0.0565969 0.4392421
v 0.0437947 0.1098882 0.4439455
v 0.0782928 0.1316531 0.4382474
v 0.1409302 0.0360568 0.4371017
v 0.0458069 0.0177004 0.4417417
v 0.0839809 0.0030433 0.4440538
v 0.1398315 0.1127017 0.4393384
v 0.1212158 0.1322940 0.4411179
v 0.1121751 0.0143491 0.4450950
v 0.0297571 0.0770231 0.4428771
v 0.0360412 0.0373233 0.4434202
v 0.0360412 0.0373233 0.4434202
v 0.0606264 0.0085434 0.4416517
v 0.1487076 0.0881175 0.4372132
v 0.1033783 0.1363833 0.4410512
v 0.0194092 0.0529788 0.4797818
v 0.0252838 0.0242312 0.4777029
v 0.0252838 0.0242312 0.4777029
v 0.0471191 -0.0112302 0.4740674
v 0.1709507 0.0953830 0.4577836
v 0.1136474 0.1526797 0.4785573
v 0.1592881 0.0618285 0.4706440
v 0.0345611 0.1307071 0.4704053
v 0.0792184 0.1537179 0.4696768
v 0.1499328 0.0398867 0.4740903
v 0.0331268 0.0050357 0.4751967
v 0.0807648 -0.0254209 0.4690759
v 0.1593323 0.1271518 0.4624822
v 0.1350098 0.1476138 0.4791829
v 0.1069223 -0.0303818 0.4617636
v 0.1552995 0.0169190 0.5102299
v 0.1271599 0.0324835 0.4280730
v 0.1519165 -0.0187833 0.5746724
v 0.1518860 -0.0349424 0.6266854
v 0.1465469 0.0179168 0.4867821
v 0.1486587 0.0186564 0.4936692
v 0.1358821 0.0145067 0.4514370
v 0.1321446 0.0238368 0.4396216
v 0.1434631 0.0195620 0.4736402
v 0.1406275 0.0168557 0.4617344
v 0.0798439 0.1240874 0.7562197
v 0.1132918 0.1256410 0.7581841
v 0.1697039 0.0792220 0.7613942
v 0.1812134 0.0224068 0.7580160
v 0.0141622 0.0572149 0.7509685
v 0.0439122 0.1059622 0.7527044
v 0.1615916 -0.0331248 0.7618679
v 0.0114184 0.0181186 0.7512467
v 0.0114184 0.0181186 0.7512467
v 0.1242971 -0.0534766 0.7589271
v 0.0437705 -0.0446990 0.7523687
v 0.0207612 -0.0191325 0.7515851
v 0.0814930 -0.0565443 0.7552131
v 0.1435863 0.1121686 0.7599906
v 0.1616058 0.0707095 0.8703495
v 0.1659798 0.0209210 0.8694540
v 0.0065930 0.0215244 0.8463434
v 0.0065930 0.0215244 0.8463434
v 0.0076112 0.0569280 0.8500869
v 0.0320183 -0.0539063 0.8614107
v 0.0134321 -0.0175439 0.8486645
v 0.0359606 0.1053001 0.8587096
v 0.1574894 -0.0256031 0.8698828
v 0.1169614 -0.0539616 0.8678824
v 0.0716639 0.1281248 0.8636685
v 0.1098384 0.1289273 0.8678960
v 0.0785540 -0.0601915 0.8660303
v 0.1363924 0.1078904 0.8697177
v -0.0000000 -0.0617555 0.9130218
v -0.0000000 -0.0617555 0.9130218
v 0.0301489 -0.0679745 0.9143166
v 0.0765092 -0.0651077 0.9302287
v 0.1515565 -0.0201151 0.9580947
v 0.1564485 0.0228185 0.9581439
v 0.1159487 -0.0505185 0.9580557
v 0.1547127 0.0712135 0.9581246
v 0.0707472 0.1478256 0.9534426
v 0.1058868 0.1380428 0.9553480
v 0.0000000 0.1358137 0.9501652
v 0.0000000 0.1358137 0.9501652
v 0.0342900 0.1498347 0.9512202
v 0.1319320 0.1116581 0.9561143
v 0.0125236 0.0759122 0.8956802
v 0.0000000 0.0698679 0.8993246
v 0.0000000 0.0698679 0.8993246
v 0.0185472 0.0745404 0.8128966
v 0.0262568 0.0795269 0.6915389
v 0.0408020 0.0876162 0.4303586
v 0.0304339 0.0961444 0.5711868
v 0.0306439 0.0839770 0.6265951
v 0.0255096 0.1084547 0.5179166
v 0.0206909 0.1073916 0.4873349
v 0.0232544 0.1109622 0.5021054
v 0.0169983 0.1076053 0.4607541
v 0.0187988 0.1050418 0.4555509
v 0.0352783 0.0938723 0.4425961
v 0.0167541 0.1042788 0.4701383
v 0.0216272 0.0781490 0.7502397
v 0.0160512 0.0746842 0.8537200
v -0.0400915 -0.0651305 1.0105278
v -0.0391534 -0.0621679 1.0512371
v -0.0996805 -0.0401078 1.0511885
v -0.1050976 -0.0450600 1.0100083
v -0.1364079 -0.0139563 1.0111196
v -0.1280499 -0.0052419 1.0511506
v -0.1277023 0.0255949 1.0511024
v -0.1387138 0.0242440 1.0122511
v -0.1387991 0.0666529 1.0128696
v -0.1215394 0.0617768 1.0508319
v -0.0925859 0.1258992 1.0148654
v -0.0851406 0.1110955 1.0509394
v -0.0321396 0.1200186 1.0506231
v -0.0351246 0.1381143 1.0146340
v -0.0361057 0.1508069 0.9821928
v -0.0991968 0.1348976 0.9838270
v -0.1493495 0.0716492 0.9808010
v -0.1510564 0.0234725 0.9788492
v -0.1471495 -0.0179224 0.9776044
v -0.1135487 -0.0491160 0.9777051
v -0.0385644 -0.0685350 0.9681947
v -0.0267505 -0.0510053 0.9044579
v -0.1128105 -0.0541693 0.9165568
v -0.1554260 -0.0237882 0.9185928
v -0.1612549 0.0211337 0.9174841
v -0.1581421 0.0705264 0.9200808
v -0.1065291 0.1296533 0.9176300
v -0.0302129 0.1094123 0.9036259
v -0.0305960 -0.0670251 0.9347478
v -0.1161158 -0.0507698 0.9422014
v -0.1535993 -0.0217165 0.9428437
v -0.1588178 0.0221493 0.9428805
v -0.1564997 0.0713295 0.9446173
v -0.0299967 0.1319564 0.9266697
v -0.1055501 0.1386032 0.9343688
v -0.0615477 0.1179198 1.0508730
v -0.0652842 0.1343449 1.0153837
v -0.0691993 0.1458139 0.9828116
v -0.0661144 0.1306765 0.9111214
v -0.0676486 0.1434635 0.9315984
v -0.0100632 -0.0119932 0.8853946
v -0.0039005 0.0217288 0.8806049
v -0.0039005 0.0217288 0.8806049
v -0.0049057 0.0566409 0.8880324
v -0.0385163 -0.0480898 0.8142786
v -0.1211122 -0.0537539 0.8192080
v -0.1595527 -0.0274179 0.8211727
v -0.1707048 0.0207082 0.8214239
v -0.1650696 0.0708926 0.8206183
v -0.1131477 0.1282013 0.8181620
v -0.0391442 0.1044150 0.8122507
v -0.0772135 0.1255731 0.8162158
v -0.0168010 -0.0230947 0.8119345
v -0.0092855 0.0213201 0.8120819
v -0.0092855 0.0213201 0.8120819
v -0.0103166 0.0572151 0.8121415
v -0.0490246 -0.0413081 0.6904589
v -0.1274820 -0.0531994 0.6986461
v -0.1636306 -0.0388317 0.7025630
v -0.1783752 0.0251277 0.7014120
v -0.1743383 0.0875515 0.7021701
v -0.1134359 0.1230808 0.6982062
v -0.0499739 0.1059382 0.6939393
v -0.0824743 0.1226018 0.6962238
v -0.0247214 -0.0151704 0.6912356
v -0.0135512 0.0149171 0.6904114
v -0.0135512 0.0149171 0.6904114
v -0.0180078 0.0572148 0.6897956
v -0.0452758 -0.0164505 0.5119373
v -0.1427870 0.0078910 0.5130400
v -0.1650846 0.0340687 0.5129101
v -0.1707879 0.0674188 0.5161740
v -0.1776512 0.0834566 0.5249431
v -0.1090088 0.1523441 0.5158305
v -0.0435943 0.1300662 0.5090451
v -0.0805549 0.1443790 0.5065913
v -0.0248335 0.0031462 0.5068781
v -0.0159668 0.0248770 0.5098739
v -0.0159668 0.0248770 0.5098739
v -0.0141146 0.0755883 0.5020847
v -0.0642047 0.0139764 0.4254587
v -0.1143328 0.0159337 0.4267924
v -0.1359413 0.0412080 0.4286187
v -0.1432180 0.0566096 0.4277693
v -0.1473060 0.0880254 0.4307188
v -0.1040802 0.1382754 0.4341846
v -0.0477129 0.1018084 0.4322971
v -0.0790481 0.1320193 0.4319493
v -0.0519104 0.0234072 0.4285886
v -0.0425110 0.0405886 0.4284970
v -0.0425110 0.0405886 0.4284970
v -0.0363913 0.0733464 0.4298448
v -0.0741257 -0.0499010 1.0514363
v -0.0776509 -0.0544228 1.0102483
v -0.0827760 -0.0578936 0.9773522
v -0.0766631 -0.0605316 0.9148903
v -0.0771502 -0.0623108 0.9441975
v -0.0804448 -0.0598513 0.8171705
v -0.0825411 -0.0532373 0.6932557
v -0.0876541 -0.0080868 0.5074824
v -0.0866130 0.0088920 0.4226157
v -0.1597290 0.0108492 0.5650272
v -0.1340021 -0.0298245 0.5638943
v -0.0496491 -0.0213973 0.5617543
v -0.0345459 0.0093081 0.5589774
v -0.1107216 0.1280826 0.5675064
v -0.1648803 0.0829020 0.5690836
v -0.0191732 0.0574574 0.5612957
v -0.0191732 0.0574574 0.5612957
v -0.0789680 0.1373599 0.5589195
v -0.1751245 0.0519684 0.5703679
v -0.0211967 0.0695805 0.5621615
v -0.0432739 0.1183474 0.5770909
v -0.0803395 -0.0466578 0.5668563
v -0.1638794 -0.0129545 0.6312680
v -0.0497047 -0.0331850 0.6270580
v -0.1178360 0.1424258 0.6348454
v -0.0853570 0.1327477 0.6332585
v -0.0235245 0.0538703 0.6272357
v -0.1326642 -0.0592320 0.6347039
v -0.0298462 -0.0084226 0.6272148
v -0.1670732 0.0794616 0.6362591
v -0.0205078 0.0234683 0.6277545
v -0.0205078 0.0234683 0.6277545
v -0.1773347 0.0376817 0.6361988
v -0.0578155 0.1113298 0.6329463
v -0.0843755 -0.0394470 0.6285353
v -0.1083049 -0.0297311 0.4671707
v -0.0806556 -0.0279615 0.4789384
v -0.1646681 0.0392474 0.5004101
v -0.0445282 -0.0214080 0.4988613
v -0.1210179 0.1078219 1.0135612
v -0.1026843 0.0918006 1.0508720
v -0.1333576 0.1123660 0.9832512
v -0.1325283 0.1069850 0.9196652
v -0.1310324 0.1078147 0.9428003
v -0.1402565 0.1087958 0.8197702
v -0.1469161 0.1155415 0.7002110
v -0.1700786 0.1071691 0.5197917
v -0.1406860 0.1117862 0.4323383
v -0.1547911 0.1068649 0.5724270
v -0.1459122 0.1115420 0.6379671
v -0.1703281 0.0675052 0.4833125
v -0.1703281 0.0675052 0.4833125
v -0.1816058 0.0909130 0.4702190
v -0.1122852 0.1531236 0.4971870
v -0.1666962 0.1266456 0.4716584
v -0.0827675 0.1416629 0.6096492
v -0.1467596 0.1280923 0.6637470
v -0.0836868 0.1342166 0.5942493
v -0.1158066 0.1318972 0.6120372
v -0.0662460 0.1293643 0.5748745
v -0.1721802 0.0840476 0.6769445
v -0.1767578 0.0295928 0.6732824
v -0.1613464 -0.0396783 0.6828420
v -0.0203610 0.0503307 0.5302103
v -0.0203610 0.0503307 0.5302103
v -0.0318897 0.0114048 0.5235617
v -0.0187533 0.0789015 0.5305073
v -0.0809618 0.1472543 0.4796886
v -0.0368252 0.1293811 0.4773449
v -0.0279402 0.0065328 0.5164120
v -0.0190618 0.0354794 0.5196080
v -0.0190618 0.0354794 0.5196080
v -0.1494552 0.0897344 0.4964021
v -0.1494552 0.0897344 0.4964021
v -0.0426069 -0.0145230 0.5056152
v -0.1118225 0.1531640 0.5059927
v -0.1325232 -0.0167497 0.4886635
v -0.0855863 -0.0141436 0.4972298
v -0.1639583 0.0378397 0.5074965
v -0.1486804 0.0636873 0.5028203
v -0.1486804 0.0636873 0.5028203
v -0.1506661 0.1208610 0.4976011
v -0.0179996 0.0773375 0.5202721
v -0.0803871 0.1428225 0.4910809
v -0.0410309 0.1306460 0.4901186
v -0.1359815 0.1396276 0.5143836
v -0.1340613 0.1435303 0.5039371
v -0.1327120 0.1498000 0.4898143
v -0.1207886 0.1343386 0.4325939
v -0.0644951 0.1398928 0.5456843
v -0.1585496 0.0607360 0.4594021
v -0.0195988 0.0585450 0.4650658
v -0.0338290 0.1331636 0.4658989
v -0.0810630 0.1539878 0.4601314
v -0.1488899 0.0409113 0.4631301
v -0.0265808 0.0312197 0.4620053
v -0.0265808 0.0312197 0.4620053
v -0.0365600 0.0040591 0.4589535
v -0.0796976 -0.0302307 0.4601295
v -0.0496540 -0.0096030 0.4569972
v -0.1539001 0.1238406 0.4552303
v -0.1597061 0.0955766 0.4521187
v -0.1109466 0.1486209 0.4629055
v -0.1323547 0.1430972 0.4644581
v -0.1077001 -0.0305444 0.4639284
v -0.1493807 0.0590535 0.4465215
v -0.0336175 0.1345867 0.4601404
v -0.0795555 0.1419070 0.4490086
v -0.1433096 0.0395696 0.4490269
v -0.0367737 0.0042422 0.4533993
v -0.0793890 -0.0244819 0.4533100
v -0.1398010 0.1147006 0.4472195
v -0.1251831 0.1357120 0.4494320
v -0.0194411 0.0574789 0.4585268
v -0.0263061 0.0308535 0.4564663
v -0.0263061 0.0308535 0.4564663
v -0.0502785 -0.0099962 0.4515159
v -0.1489816 0.0898187 0.4439413
v -0.1078491 0.1427615 0.4499660
v -0.1060735 -0.0258883 0.4591607
v -0.1435716 0.0565969 0.4392420
v -0.0437947 0.1098882 0.4439454
v -0.0782928 0.1316531 0.4382473
v -0.1409302 0.0360568 0.4371016
v -0.0458069 0.0177005 0.4417416
v -0.0839809 0.0030433 0.4440537
v -0.1398315 0.1127017 0.4393383
v -0.1212158 0.1322940 0.4411179
v -0.1121751 0.0143491 0.4450949
v -0.0297571 0.0770231 0.4428770
v -0.0360412 0.0373233 0.4434201
v -0.0360412 0.0373233 0.4434201
v -0.0606264 0.0085434 0.4416516
v -0.1487076 0.0881175 0.4372132
v -0.1033783 0.1363833 0.4410511
v -0.0194092 0.0529788 0.4797817
v -0.0252838 0.0242312 0.4777028
v -0.0252838 0.0242312 0.4777028
v -0.0471191 -0.0112302 0.4740674
v -0.1709507 0.0953830 0.4577835
v -0.1136474 0.1526797 0.4785572
v -0.1592881 0.0618285 0.4706439
v -0.0345611 0.1307071 0.4704052
v -0.0792184 0.1537179 0.4696767
v -0.1499328 0.0398867 0.4740902
v -0.0331268 0.0050357 0.4751965
v -0.0807648 -0.0254209 0.4690758
v -0.1593323 0.1271518 0.4624821
v -0.1350098 0.1476138 0.4791828
v -0.1069223 -0.0303818 0.4617636
v -0.1552995 0.0169190 0.5102298
v -0.1271599 0.0324835 0.4280729
v -0.1519165 -0.0187833 0.5746724
v -0.1518860 -0.0349424 0.6266854
v -0.1465469 0.0179168 0.4867820
v -0.1486587 0.0186564 0.4936692
v -0.1358821 0.0145067 0.4514369
v -0.1321446 0.0238368 0.4396215
v -0.1434631 0.0195620 0.4736401
v -0.1406275 0.0168557 0.4617343
v -0.0798439 0.1240874 0.7562197
v -0.1132918 0.1256410 0.7581841
v -0.1697039 0.0792221 0.7613942
v -0.1812134 0.0224068 0.7580160
v -0.0141622 0.0572149 0.7509685
v -0.0439122 0.1059622 0.7527044
v -0.1615916 -0.0331248 0.7618679
v -0.0114184 0.0181186 0.7512467
v -0.0114184 0.0181186 0.7512467
v -0.1242971 -0.0534766 0.7589271
v -0.0437705 -0.0446990 0.7523687
v -0.0207612 -0.0191325 0.7515851
v -0.0814930 -0.0565443 0.7552131
v -0.1435863 0.1121686 0.7599906
v -0.1616058 0.0707095 0.8703495
v -0.1659798 0.0209210 0.8694540
v -0.0065930 0.0215244 0.8463434
v -0.0065930 0.0215244 0.8463434
v -0.0076112 0.0569280 0.8500870
v -0.0320183 -0.0539063 0.8614107
v -0.0134321 -0.0175439 0.8486645
v -0.0359606 0.1053001 0.8587096
v -0.1574894 -0.0256031 0.8698828
v -0.1169614 -0.0539616 0.8678824
v -0.0716639 0.1281248 0.8636685
v -0.1098384 0.1289273 0.8678960
v -0.0785540 -0.0601915 0.8660303
v -0.1363924 0.1078904 0.8697177
v -0.0301489 -0.0679745 0.9143166
v -0.0765092 -0.0651077 0.9302288
v -0.1515565 -0.0201151 0.9580947
v -0.1564485 0.0228185 0.9581439
v -0.1159487 -0.0505185 0.9580557
v -0.1547127 0.0712135 0.9581246
v -0.0707472 0.1478256 0.9534426
v -0.1058868 0.1380428 0.9553480
v -0.0342900 0.1498347 0.9512202
v -0.1319320 0.1116581 0.9561143
v -0.0125236 0.0759122 0.8956802
v -0.0185472 0.0745404 0.8128966
v -0.0262568 0.0795269 0.6915389
v -0.0408020 0.0876162 0.4303585
v -0.0304339 0.0961444 0.5711868
v -0.0306439 0.0839770 0.6265951
v -0.0255096 0.1084547 0.5179165
v -0.0206909 0.1073916 0.4873348
v -0.0232544 0.1109622 0.5021053
v -0.0169983 0.1076053 0.4607540
v -0.0187988 0.1050418 0.4555508
v -0.0352783 0.0938724 0.4425960
v -0.0167541 0.1042789 0.4701382
v -0.0216272 0.0781490 0.7502397
v -0.0160512 0.0746842 0.8537200
usemtl MI_Ranger
f 1 3 5
f 1 5 6
f 122 8 7
f 122 7 121
f 7 8 9
f 7 9 10
f 9 12 11
f 9 11 10
f 11 12 13
f 11 13 14
f 160 15 16
f 160 16 161
f 56 57 18
f 56 18 17
f 17 18 19
f 17 19 21
f 19 18 25
f 19 25 23
f 58 57 15
f 58 15 26
f 160 13 27
f 160 27 162
f 27 13 12
f 27 12 28
f 28 12 9
f 28 9 29
f 29 9 8
f 29 8 30
f 123 122 5
f 123 5 31
f 31 5 3
f 31 3 32
f 309 34 36
f 309 36 311
f 125 315 30
f 125 30 123
f 48 37 38
f 48 38 49
f 49 50 314
f 49 314 313
f 50 39 40
f 50 40 51
f 164 53 318
f 164 318 322
f 52 42 43
f 52 43 54
f 60 53 41
f 60 41 59
f 58 26 318
f 58 318 317
f 25 321 319
f 25 319 23
f 163 41 53
f 163 53 164
f 28 314 316
f 28 316 27
f 38 39 50
f 38 50 49
f 30 315 313
f 30 313 29
f 124 48 315
f 124 315 312
f 32 45 47
f 32 47 31
f 25 58 317
f 25 317 321
f 52 60 59
f 52 59 42
f 25 18 57
f 25 57 58
f 16 15 57
f 16 57 56
f 36 34 62
f 36 62 61
f 61 62 66
f 61 66 64
f 67 70 72
f 67 72 65
f 324 43 42
f 324 42 323
f 295 296 76
f 295 76 77
f 298 299 84
f 298 84 83
f 300 301 81
f 300 81 73
f 339 302 79
f 339 79 326
f 303 304 74
f 303 74 75
f 305 306 78
f 305 78 80
f 302 305 80
f 302 80 79
f 307 300 73
f 307 73 126
f 296 303 75
f 296 75 76
f 308 295 77
f 308 77 165
f 301 297 82
f 301 82 81
f 281 282 90
f 281 90 92
f 283 284 88
f 283 88 89
f 338 286 91
f 338 91 327
f 286 281 92
f 286 92 91
f 284 287 87
f 284 87 88
f 289 285 96
f 289 96 95
f 287 290 86
f 287 86 87
f 291 292 93
f 291 93 85
f 294 283 89
f 294 89 166
f 293 291 85
f 293 85 127
f 292 288 94
f 292 94 93
f 273 131 98
f 273 98 271
f 169 135 101
f 169 101 167
f 142 97 128
f 133 136 184
f 133 184 186
f 135 139 100
f 135 100 101
f 329 141 103
f 329 103 331
f 139 130 99
f 139 99 100
f 137 140 187
f 137 187 185
f 193 201 171
f 193 171 173
f 336 242 115
f 336 115 328
f 205 204 188
f 205 188 189
f 201 199 158
f 201 158 171
f 252 250 120
f 252 120 119
f 276 197 156
f 276 156 275
f 97 186 190
f 97 190 195
f 202 193 173
f 202 173 175
f 198 195 159
f 198 159 157
f 245 251 118
f 245 118 117
f 204 196 174
f 204 174 188
f 197 198 157
f 197 157 156
f 131 142 128
f 131 128 98
f 290 293 127
f 290 127 86
f 304 307 126
f 304 126 74
f 311 312 125
f 311 125 47
f 47 125 123
f 47 123 31
f 30 8 122
f 30 122 123
f 5 122 121
f 5 121 6
f 148 142 131
f 152 147 140
f 152 140 137
f 153 143 130
f 153 130 139
f 154 146 176
f 154 176 141
f 330 154 141
f 330 141 329
f 150 153 139
f 150 139 135
f 146 145 176
f 149 151 136
f 149 136 133
f 155 144 132
f 155 132 142
f 170 150 135
f 170 135 169
f 144 149 133
f 144 133 132
f 274 148 131
f 274 131 273
f 85 93 149
f 85 149 144
f 166 89 177
f 127 85 144
f 127 144 155
f 93 94 151
f 93 151 149
f 92 90 145
f 92 145 146
f 89 88 182
f 89 182 181
f 327 91 154
f 327 154 330
f 91 92 146
f 91 146 154
f 88 87 183
f 88 183 182
f 95 96 147
f 95 147 152
f 86 127 155
f 86 155 148
f 148 183 87
f 148 87 86
f 142 148 155
f 97 142 132
f 186 97 132
f 186 132 133
f 253 245 117
f 253 117 109
f 246 253 109
f 246 109 129
f 90 166 177
f 90 177 145
f 145 170 179
f 196 207 208
f 196 208 174
f 134 169 167
f 134 167 206
f 282 294 166
f 282 166 90
f 306 308 165
f 306 165 78
f 40 163 164
f 40 164 51
f 51 164 322
f 51 322 316
f 15 160 162
f 15 162 26
f 13 160 161
f 13 161 14
f 241 244 111
f 241 111 112
f 254 241 112
f 254 112 113
f 247 254 113
f 247 113 168
f 255 248 209
f 255 209 114
f 177 89 181
f 177 181 170
f 145 177 170
f 176 145 179
f 176 179 178
f 141 176 178
f 141 178 180
f 178 179 134
f 179 170 169
f 179 169 134
f 206 102 138
f 206 138 134
f 181 182 153
f 181 153 150
f 170 181 150
f 182 183 143
f 182 143 153
f 183 148 274
f 183 274 143
f 332 108 203
f 332 203 333
f 190 191 106
f 190 106 105
f 192 203 108
f 192 108 107
f 333 203 187
f 333 187 331
f 242 243 116
f 242 116 115
f 243 255 114
f 243 114 116
f 195 190 105
f 195 105 159
f 185 187 203
f 185 203 192
f 186 184 191
f 186 191 190
f 102 206 207
f 102 207 196
f 98 128 198
f 98 198 197
f 104 102 196
f 104 196 204
f 128 97 195
f 128 195 198
f 167 101 194
f 167 194 202
f 271 98 197
f 271 197 276
f 100 99 199
f 100 199 200
f 103 104 204
f 103 204 205
f 101 100 200
f 101 200 194
f 138 102 104
f 138 104 210
f 134 138 180
f 134 180 178
f 104 103 141
f 104 141 210
f 207 206 167
f 207 167 202
f 208 207 202
f 208 202 175
f 269 208 175
f 269 175 268
f 210 141 180
f 210 180 138
f 233 224 232
f 264 261 223
f 264 223 214
f 263 264 214
f 263 214 213
f 261 269 224
f 261 224 223
f 268 260 222
f 268 222 221
f 260 262 211
f 260 211 222
f 262 265 215
f 262 215 211
f 248 233 232
f 248 232 247
f 267 259 220
f 267 220 219
f 259 266 218
f 259 218 220
f 266 257 216
f 266 216 218
f 258 256 212
f 258 212 217
f 337 263 213
f 337 213 334
f 278 272 111
f 278 111 244
f 249 246 129
f 249 129 110
f 219 270 225
f 219 225 267
f 214 223 239
f 214 239 228
f 213 214 228
f 213 228 227
f 223 224 233
f 223 233 239
f 221 222 238
f 221 238 232
f 222 211 226
f 222 226 238
f 211 215 229
f 211 229 226
f 219 220 237
f 219 237 231
f 220 218 230
f 220 230 237
f 218 216 235
f 218 235 230
f 217 212 234
f 217 234 236
f 334 213 227
f 334 227 335
f 240 231 246
f 240 246 249
f 232 224 221
f 277 278 244
f 277 244 229
f 209 248 247
f 209 247 168
f 228 239 255
f 228 255 243
f 335 336 250
f 335 250 234
f 239 233 248
f 239 248 255
f 232 238 254
f 232 254 247
f 238 226 241
f 238 241 254
f 226 229 244
f 226 244 241
f 231 237 253
f 231 253 246
f 237 230 245
f 237 245 253
f 230 235 251
f 230 251 245
f 236 234 250
f 236 250 252
f 275 156 225
f 275 225 279
f 227 228 243
f 227 243 242
f 107 108 256
f 107 256 258
f 332 189 263
f 332 263 337
f 105 106 257
f 105 257 266
f 159 105 266
f 159 266 259
f 157 159 259
f 157 259 267
f 172 158 265
f 172 265 262
f 173 172 262
f 173 262 260
f 175 173 260
f 175 260 268
f 174 208 269
f 174 269 261
f 189 188 264
f 189 264 263
f 188 174 261
f 188 261 264
f 224 269 268
f 224 268 221
f 156 157 267
f 156 267 225
f 279 280 215
f 279 215 265
f 280 270 277
f 270 219 231
f 270 231 240
f 48 124 37
f 215 280 277
f 215 277 229
f 225 270 280
f 225 280 279
f 158 275 279
f 158 279 265
f 240 249 278
f 240 278 277
f 249 110 272
f 249 272 278
f 99 271 276
f 99 276 199
f 143 274 273
f 143 273 130
f 199 276 275
f 199 275 158
f 130 273 271
f 130 271 99
f 277 270 240
f 78 165 294
f 78 294 282
f 74 126 293
f 74 293 290
f 81 82 288
f 81 288 292
f 126 73 291
f 126 291 293
f 165 77 283
f 165 283 294
f 73 81 292
f 73 292 291
f 75 74 290
f 75 290 287
f 83 84 285
f 83 285 289
f 76 75 287
f 76 287 284
f 79 80 281
f 79 281 286
f 326 79 286
f 326 286 338
f 77 76 284
f 77 284 283
f 80 78 282
f 80 282 281
f 41 163 308
f 41 308 306
f 37 124 307
f 37 307 304
f 61 64 297
f 61 297 301
f 163 40 295
f 163 295 308
f 39 38 303
f 39 303 296
f 124 36 300
f 124 300 307
f 42 59 305
f 42 305 302
f 59 41 306
f 59 306 305
f 38 37 304
f 38 304 303
f 323 42 302
f 323 302 339
f 36 61 301
f 36 301 300
f 65 72 299
f 65 299 298
f 40 39 296
f 40 296 295
f 36 124 312
f 36 312 311
f 45 309 311
f 45 311 47
f 313 314 28
f 313 28 29
f 312 315 125
f 316 314 50
f 316 50 51
f 313 315 48
f 313 48 49
f 316 322 162
f 316 162 27
f 317 318 53
f 317 53 60
f 322 318 26
f 322 26 162
f 319 321 52
f 319 52 54
f 321 317 60
f 321 60 52
f 72 323 339
f 72 339 299
f 84 326 338
f 84 338 285
f 108 332 337
f 108 337 256
f 227 242 336
f 227 336 335
f 212 334 335
f 212 335 234
f 256 337 334
f 256 334 212
f 205 333 331
f 205 331 103
f 189 332 333
f 189 333 205
f 96 327 330
f 96 330 147
f 147 330 329
f 147 329 140
f 250 336 328
f 250 328 120
f 140 329 331
f 140 331 187
f 285 338 327
f 285 327 96
f 299 339 326
f 299 326 84
f 70 324 323
f 70 323 72
f 2 341 340
f 2 340 4
f 433 432 342
f 433 342 343
f 342 345 344
f 342 344 343
f 344 345 346
f 344 346 347
f 346 349 348
f 346 348 347
f 471 472 351
f 471 351 350
f 375 352 353
f 375 353 376
f 352 22 20
f 352 20 353
f 20 24 354
f 20 354 353
f 377 355 350
f 377 350 376
f 471 473 356
f 471 356 348
f 356 357 347
f 356 347 348
f 357 358 344
f 357 344 347
f 358 359 343
f 358 343 344
f 434 360 340
f 434 340 433
f 360 33 4
f 360 4 340
f 310 620 361
f 310 361 35
f 436 434 359
f 436 359 624
f 369 370 363
f 369 363 362
f 370 622 623
f 370 623 371
f 371 372 365
f 371 365 364
f 475 629 627
f 475 627 374
f 373 55 44
f 373 44 367
f 379 378 366
f 379 366 374
f 377 626 627
f 377 627 355
f 354 24 320
f 354 320 628
f 474 475 374
f 474 374 366
f 357 356 625
f 357 625 623
f 363 370 371
f 363 371 364
f 359 358 622
f 359 622 624
f 435 621 624
f 435 624 369
f 33 360 368
f 33 368 46
f 354 628 626
f 354 626 377
f 373 367 378
f 373 378 379
f 354 377 376
f 354 376 353
f 351 375 376
f 351 376 350
f 361 380 63
f 361 63 35
f 380 381 68
f 380 68 63
f 69 382 383
f 69 383 71
f 325 630 367
f 325 367 44
f 606 388 387
f 606 387 607
f 609 394 395
f 609 395 610
f 611 384 392
f 611 392 612
f 644 631 390
f 644 390 613
f 614 386 385
f 614 385 615
f 616 391 389
f 616 389 617
f 613 390 391
f 613 391 616
f 618 437 384
f 618 384 611
f 607 387 386
f 607 386 614
f 619 476 388
f 619 388 606
f 612 392 393
f 612 393 608
f 592 403 401
f 592 401 593
f 594 400 399
f 594 399 595
f 643 632 402
f 643 402 597
f 597 402 403
f 597 403 592
f 595 399 398
f 595 398 598
f 600 406 407
f 600 407 596
f 598 398 397
f 598 397 601
f 602 396 404
f 602 404 603
f 605 477 400
f 605 400 594
f 604 438 396
f 604 396 602
f 603 404 405
f 603 405 599
f 584 582 409
f 584 409 442
f 480 478 412
f 480 412 446
f 453 439 408
f 444 497 495
f 444 495 447
f 446 412 411
f 446 411 450
f 634 636 414
f 634 414 452
f 450 411 410
f 450 410 441
f 448 496 498
f 448 498 451
f 504 484 482
f 504 482 512
f 641 633 426
f 641 426 553
f 516 500 499
f 516 499 515
f 512 482 469
f 512 469 510
f 563 430 431
f 563 431 561
f 587 586 467
f 587 467 508
f 408 506 501
f 408 501 497
f 513 486 484
f 513 484 504
f 509 468 470
f 509 470 506
f 556 428 429
f 556 429 562
f 515 499 485
f 515 485 507
f 508 467 468
f 508 468 509
f 442 409 439
f 442 439 453
f 601 397 438
f 601 438 604
f 615 385 437
f 615 437 618
f 620 368 436
f 620 436 621
f 368 360 434
f 368 434 436
f 359 434 433
f 359 433 343
f 340 341 432
f 340 432 433
f 459 442 453
f 463 448 451
f 463 451 458
f 464 450 441
f 464 441 454
f 465 452 487
f 465 487 457
f 635 634 452
f 635 452 465
f 461 446 450
f 461 450 464
f 457 487 456
f 460 444 447
f 460 447 462
f 466 453 443
f 466 443 455
f 481 480 446
f 481 446 461
f 455 443 444
f 455 444 460
f 585 584 442
f 585 442 459
f 396 455 460
f 396 460 404
f 477 488 400
f 438 466 455
f 438 455 396
f 404 460 462
f 404 462 405
f 403 457 456
f 403 456 401
f 400 492 493
f 400 493 399
f 632 635 465
f 632 465 402
f 402 465 457
f 402 457 403
f 399 493 494
f 399 494 398
f 406 463 458
f 406 458 407
f 397 459 466
f 397 466 438
f 459 397 398
f 459 398 494
f 453 466 459
f 408 443 453
f 497 444 443
f 497 443 408
f 564 420 428
f 564 428 556
f 557 440 420
f 557 420 564
f 401 456 488
f 401 488 477
f 456 490 481
f 507 485 519
f 507 519 518
f 445 517 478
f 445 478 480
f 593 401 477
f 593 477 605
f 617 389 476
f 617 476 619
f 365 372 475
f 365 475 474
f 372 625 629
f 372 629 475
f 350 355 473
f 350 473 471
f 348 349 472
f 348 472 471
f 552 423 422
f 552 422 555
f 565 424 423
f 565 423 552
f 558 479 424
f 558 424 565
f 566 425 520
f 566 520 559
f 488 481 492
f 488 492 400
f 456 481 488
f 487 489 490
f 487 490 456
f 452 491 489
f 452 489 487
f 489 445 490
f 490 445 480
f 490 480 481
f 517 445 449
f 517 449 413
f 492 461 464
f 492 464 493
f 481 461 492
f 493 464 454
f 493 454 494
f 494 454 585
f 494 585 459
f 637 638 514
f 637 514 419
f 501 416 417
f 501 417 502
f 503 418 419
f 503 419 514
f 638 636 498
f 638 498 514
f 553 426 427
f 553 427 554
f 554 427 425
f 554 425 566
f 506 470 416
f 506 416 501
f 496 503 514
f 496 514 498
f 497 501 502
f 497 502 495
f 413 507 518
f 413 518 517
f 409 508 509
f 409 509 439
f 415 515 507
f 415 507 413
f 439 509 506
f 439 506 408
f 478 513 505
f 478 505 412
f 582 587 508
f 582 508 409
f 411 511 510
f 411 510 410
f 414 516 515
f 414 515 415
f 412 505 511
f 412 511 411
f 449 521 415
f 449 415 413
f 445 489 491
f 445 491 449
f 415 521 452
f 415 452 414
f 518 513 478
f 518 478 517
f 519 486 513
f 519 513 518
f 580 579 486
f 580 486 519
f 521 449 491
f 521 491 452
f 544 543 535
f 575 525 534
f 575 534 572
f 574 524 525
f 574 525 575
f 572 534 535
f 572 535 580
f 579 532 533
f 579 533 571
f 571 533 522
f 571 522 573
f 573 522 526
f 573 526 576
f 559 558 543
f 559 543 544
f 578 530 531
f 578 531 570
f 570 531 529
f 570 529 577
f 577 529 527
f 577 527 568
f 569 528 523
f 569 523 567
f 642 639 524
f 642 524 574
f 589 555 422
f 589 422 583
f 560 421 440
f 560 440 557
f 530 578 536
f 530 536 581
f 525 539 550
f 525 550 534
f 524 538 539
f 524 539 525
f 534 550 544
f 534 544 535
f 532 543 549
f 532 549 533
f 533 549 537
f 533 537 522
f 522 537 540
f 522 540 526
f 530 542 548
f 530 548 531
f 531 548 541
f 531 541 529
f 529 541 546
f 529 546 527
f 528 547 545
f 528 545 523
f 639 640 538
f 639 538 524
f 551 560 557
f 551 557 542
f 543 532 535
f 588 540 555
f 588 555 589
f 520 479 558
f 520 558 559
f 539 554 566
f 539 566 550
f 640 545 561
f 640 561 641
f 550 566 559
f 550 559 544
f 543 558 565
f 543 565 549
f 549 565 552
f 549 552 537
f 537 552 555
f 537 555 540
f 542 557 564
f 542 564 548
f 548 564 556
f 548 556 541
f 541 556 562
f 541 562 546
f 547 563 561
f 547 561 545
f 586 590 536
f 586 536 467
f 538 553 554
f 538 554 539
f 418 569 567
f 418 567 419
f 637 642 574
f 637 574 500
f 416 577 568
f 416 568 417
f 470 570 577
f 470 577 416
f 468 578 570
f 468 570 470
f 483 573 576
f 483 576 469
f 484 571 573
f 484 573 483
f 486 579 571
f 486 571 484
f 485 572 580
f 485 580 519
f 500 574 575
f 500 575 499
f 499 575 572
f 499 572 485
f 535 532 579
f 535 579 580
f 467 536 578
f 467 578 468
f 590 576 526
f 590 526 591
f 591 588 581
f 581 551 542
f 581 542 530
f 369 362 435
f 526 540 588
f 526 588 591
f 536 590 591
f 536 591 581
f 469 576 590
f 469 590 586
f 551 588 589
f 551 589 560
f 560 589 583
f 560 583 421
f 410 510 587
f 410 587 582
f 454 441 584
f 454 584 585
f 510 469 586
f 510 586 587
f 441 410 582
f 441 582 584
f 588 551 581
f 389 593 605
f 389 605 476
f 385 601 604
f 385 604 437
f 392 603 599
f 392 599 393
f 437 604 602
f 437 602 384
f 476 605 594
f 476 594 388
f 384 602 603
f 384 603 392
f 386 598 601
f 386 601 385
f 394 600 596
f 394 596 395
f 387 595 598
f 387 598 386
f 390 597 592
f 390 592 391
f 631 643 597
f 631 597 390
f 388 594 595
f 388 595 387
f 391 592 593
f 391 593 389
f 366 617 619
f 366 619 474
f 362 615 618
f 362 618 435
f 380 612 608
f 380 608 381
f 474 619 606
f 474 606 365
f 364 607 614
f 364 614 363
f 435 618 611
f 435 611 361
f 367 613 616
f 367 616 378
f 378 616 617
f 378 617 366
f 363 614 615
f 363 615 362
f 630 644 613
f 630 613 367
f 361 611 612
f 361 612 380
f 382 609 610
f 382 610 383
f 365 606 607
f 365 607 364
f 361 620 621
f 361 621 435
f 46 368 620
f 46 620 310
f 622 358 357
f 622 357 623
f 621 436 624
f 625 372 371
f 625 371 623
f 622 370 369
f 622 369 624
f 625 356 473
f 625 473 629
f 626 379 374
f 626 374 627
f 629 473 355
f 629 355 627
f 320 55 373
f 320 373 628
f 628 373 379
f 628 379 626
f 383 610 644
f 383 644 630
f 395 596 643
f 395 643 631
f 419 567 642
f 419 642 637
f 538 640 641
f 538 641 553
f 523 545 640
f 523 640 639
f 567 523 639
f 567 639 642
f 516 414 636
f 516 636 638
f 500 516 638
f 500 638 637
f 407 458 635
f 407 635 632
f 458 451 634
f 458 634 635
f 561 431 633
f 561 633 641
f 451 498 636
f 451 636 634
f 596 407 632
f 596 632 643
f 610 395 631
f 610 631 644
f 71 383 630
f 71 630 325
