# Evaluated render-only extract from Quaternius's CC0 Modular Character Outfits - Fantasy
o Male_Ranger_Acc_Pauldron
v 0.1933699 -0.0291139 1.4697543
v 0.1933699 -0.0291139 1.4697543
v 0.1933699 -0.0291139 1.4697543
v 0.1933699 -0.0291139 1.4697543
v 0.2510165 0.0026325 1.5337995
v 0.2510165 0.0026325 1.5337995
v 0.2026256 0.0243326 1.5594069
v 0.3090640 0.0655483 1.5350202
v 0.3090640 0.0655483 1.5350202
v 0.3090640 0.0655483 1.5350202
v 0.1332813 0.0519339 1.5670792
v 0.1332813 0.0519339 1.5670792
v 0.2805202 0.0321267 1.5449483
v 0.2805202 0.0321267 1.5449483
v 0.2108334 0.0535162 1.5738193
v 0.1715136 -0.0283249 1.4882648
v 0.1715136 -0.0283249 1.4882648
v 0.1715136 -0.0283249 1.4882648
v 0.2228537 0.0152202 1.5505561
v 0.2430819 0.0509391 1.5692145
v 0.2114962 -0.0236662 1.4894956
v 0.2114962 -0.0236662 1.4894956
v 0.1564232 0.0109631 1.5438015
v 0.1564232 0.0109631 1.5438015
v 0.1564232 0.0109631 1.5438015
v 0.1564232 0.0109631 1.5438015
v 0.1526785 0.0508299 1.5558386
v 0.1526785 0.0508299 1.5558386
v 0.1768891 -0.0171992 1.5134817
v 0.1768891 -0.0171992 1.5134817
v 0.3090640 0.0687905 1.5350202
v 0.3090640 0.0687905 1.5350202
v 0.1398790 0.0177142 1.5575936
v 0.1398790 0.0177142 1.5575936
v 0.1398790 0.0177142 1.5575936
v 0.2116707 0.0694554 1.5744172
v 0.2812620 0.0687905 1.5499851
v 0.2455338 0.0693619 1.5717262
v 0.1521521 0.0687905 1.5568234
v 0.1521521 0.0687905 1.5568234
v 0.2287572 -0.0135039 1.5097933
v 0.2287572 -0.0135039 1.5097933
v 0.1762485 0.0511293 1.5602611
v 0.1817356 0.0165191 1.5492183
v 0.2020303 -0.0024252 1.5296370
v 0.1759431 0.0687905 1.5613774
v 0.1327852 0.0687905 1.5680833
v 0.1327852 0.0687905 1.5680833
v 0.2050915 -0.0356069 1.4699273
v 0.2050915 -0.0356069 1.4699273
v 0.2050915 -0.0356069 1.4699273
v 0.2573552 -0.0048611 1.5264019
v 0.2573552 -0.0048611 1.5264019
v 0.3253577 0.0606387 1.5360564
v 0.3253577 0.0606387 1.5360564
v 0.3253577 0.0606387 1.5360564
v 0.3253577 0.0606387 1.5360564
v 0.2889431 0.0229776 1.5411506
v 0.2889431 0.0229776 1.5411506
v 0.2168830 -0.0327157 1.4820462
v 0.2168830 -0.0327157 1.4820462
v 0.3253577 0.0687905 1.5360563
v 0.3253577 0.0687905 1.5360563
v 0.2340107 -0.0225398 1.5022613
v 0.2340107 -0.0225398 1.5022613
v 0.2358907 0.0090045 1.5416754
v 0.2392751 -0.0061169 1.5223569
v 0.2392751 -0.0061169 1.5223569
v 0.2949033 0.0485166 1.5417453
v 0.2949033 0.0485166 1.5417453
v 0.1427754 0.0513146 1.5601999
v 0.1910987 0.0529387 1.5683773
v 0.2596472 0.0463903 1.5605134
v 0.2080377 0.0390795 1.5699022
v 0.2657667 0.0168067 1.5422814
v 0.2657667 0.0168067 1.5422814
v 0.1824418 -0.0287194 1.4790096
v 0.1824418 -0.0287194 1.4790096
v 0.2122239 0.0198680 1.5558785
v 0.2284901 0.0524808 1.5729522
v 0.2367129 0.0342448 1.5630847
v 0.1766240 -0.0243593 1.5003949
v 0.1766240 -0.0243593 1.5003949
v 0.2026389 -0.0267247 1.4797196
v 0.2026389 -0.0267247 1.4797196
v 0.1684884 0.0132413 1.5468620
v 0.1919547 -0.0096697 1.5211323
v 0.1972264 -0.0214296 1.5003964
v 0.1540423 0.0336781 1.5530133
v 0.1540423 0.0336781 1.5530133
v 0.1690788 -0.0047153 1.5281633
v 0.1690788 -0.0047153 1.5281633
v 0.1347994 0.0356839 1.5643284
v 0.1347994 0.0356839 1.5643284
v 0.2302244 0.0694180 1.5745070
v 0.2651938 0.0693358 1.5626661
v 0.1629679 0.0687905 1.5569260
v 0.2947968 0.0687905 1.5424852
v 0.2198337 -0.0193489 1.4991525
v 0.2198337 -0.0193489 1.4991525
v 0.1635121 0.0506552 1.5559530
v 0.1920854 0.0214116 1.5550413
v 0.2121342 0.0060536 1.5408382
v 0.1912033 0.0694404 1.5690949
v 0.1917973 0.0051748 1.5386823
v 0.1772876 0.0351561 1.5571743
v 0.2150576 -0.0086533 1.5196095
v 0.1422756 0.0687905 1.5612012
v 0.1472903 0.0127442 1.5509983
v 0.1472903 0.0127442 1.5509983
v 0.2446060 -0.0148778 1.5145122
v 0.2446060 -0.0148778 1.5145122
v 0.3067979 0.0410901 1.5405887
v 0.3067979 0.0410901 1.5405887
v 0.2725267 0.0078910 1.5354785
v 0.2725267 0.0078910 1.5354785
v 0.2083926 -0.0354738 1.4728442
v 0.2083926 -0.0354738 1.4728442
v 0.2251552 -0.0283917 1.4916608
v 0.2251552 -0.0283917 1.4916608
v 0.2303522 -0.0185850 1.5067438
v 0.2130911 -0.0287472 1.4864463
v 0.3172109 0.0630935 1.5355382
v 0.3172109 0.0630935 1.5355382
v 0.2845742 0.0274833 1.5433851
v 0.1987278 -0.0344467 1.4696956
v 0.1987278 -0.0344467 1.4696956
v 0.1987278 -0.0344467 1.4696956
v 0.3172109 0.0687905 1.5355381
v 0.2537453 -0.0010634 1.5310799
v 0.2236910 0.0370724 1.5681380
v 0.2504825 0.0275058 1.5528288
v 0.1899331 -0.0256484 1.4899458
v 0.2057859 -0.0156578 1.5097286
v 0.1649970 0.0338644 1.5532775
v 0.1813402 -0.0006330 1.5322695
v 0.2016239 0.0123291 1.5477753
v 0.1902764 0.0380965 1.5638323
v 0.2249917 -0.0000332 1.5316585
v 0.1441331 0.0343919 1.5574632
v 0.2214286 -0.0244300 1.4961030
v 0.3008505 0.0448033 1.5411668
v 0.2042876 -0.0317547 1.4767605
v 0.2685964 0.0119949 1.5396990
v 0.2410284 -0.0109833 1.5190870
v 0.1966024 -0.0191237 1.4641480
v 0.1966024 -0.0191237 1.4641480
v 0.1966024 -0.0191237 1.4641480
v 0.1966024 -0.0191237 1.4641480
v 0.2501544 0.0108662 1.5269619
v 0.2501544 0.0108662 1.5269619
v 0.2029675 0.0319009 1.5498004
v 0.3066158 0.0648146 1.5233949
v 0.3066158 0.0648146 1.5233949
v 0.3066158 0.0648146 1.5233949
v 0.1263471 0.0525571 1.5574371
v 0.1263471 0.0525571 1.5574371
v 0.2768775 0.0349605 1.5339762
v 0.2768775 0.0349605 1.5339762
v 0.2102207 0.0553194 1.5611902
v 0.1700921 -0.0168269 1.4855338
v 0.1700921 -0.0168269 1.4855338
v 0.1700921 -0.0168269 1.4855338
v 0.2232495 0.0230275 1.5420851
v 0.2395805 0.0531838 1.5566101
v 0.2141824 -0.0140564 1.4830055
v 0.2141824 -0.0140564 1.4830055
v 0.1528011 0.0125632 1.5332433
v 0.1528011 0.0125632 1.5332433
v 0.1528011 0.0125632 1.5332433
v 0.1528011 0.0125632 1.5332433
v 0.1528011 0.0125632 1.5332433
v 0.1478042 0.0513789 1.5437886
v 0.1478042 0.0513789 1.5437886
v 0.1733402 -0.0102114 1.5065945
v 0.1733402 -0.0102114 1.5065945
v 0.3065964 0.0687905 1.5233757
v 0.3065964 0.0687905 1.5233757
v 0.1330570 0.0198854 1.5480841
v 0.1330570 0.0198854 1.5480841
v 0.1330570 0.0198854 1.5480841
v 0.2115021 0.0687905 1.5627323
v 0.2754602 0.0687905 1.5395920
v 0.2411876 0.0687905 1.5581220
v 0.1472479 0.0687905 1.5446891
v 0.1472479 0.0687905 1.5446891
v 0.2310766 -0.0045138 1.5023447
v 0.2310766 -0.0045138 1.5023447
v 0.1803603 0.0527765 1.5492907
v 0.1828389 0.0238039 1.5398695
v 0.2017582 0.0070315 1.5224135
v 0.1803627 0.0687905 1.5503252
v 0.1257997 0.0687905 1.5584455
v 0.1257997 0.0687905 1.5584455
v 0.2161683 -0.0301614 1.4634494
v 0.2161683 -0.0301614 1.4634494
v 0.2161683 -0.0301614 1.4634494
v 0.2651420 0.0006158 1.5182601
v 0.2651420 0.0006158 1.5182601
v 0.3322167 0.0596040 1.5240129
v 0.3322167 0.0596040 1.5240129
v 0.3322167 0.0596040 1.5240129
v 0.3322167 0.0596040 1.5240129
v 0.2941365 0.0252493 1.5300671
v 0.2941365 0.0252493 1.5300671
v 0.2277059 -0.0272340 1.4753938
v 0.2277059 -0.0272340 1.4753938
v 0.3330434 0.0687905 1.5239916
v 0.3330434 0.0687905 1.5239916
v 0.2441774 -0.0169908 1.4952004
v 0.2441774 -0.0169908 1.4952004
v 0.2363514 0.0169731 1.5356994
v 0.2406214 0.0030582 1.5148946
v 0.2406214 0.0030582 1.5148946
v 0.2911726 0.0486935 1.5304433
v 0.2911726 0.0486935 1.5304433
v 0.1368767 0.0521107 1.5499105
v 0.1955517 0.0542046 1.5562814
v 0.2545825 0.0484146 1.5476648
v 0.2072215 0.0436636 1.5571803
v 0.2631616 0.0227534 1.5323048
v 0.2631616 0.0227534 1.5323048
v 0.1812052 -0.0171347 1.4765704
v 0.1812052 -0.0171347 1.4765704
v 0.2107559 0.0283422 1.5471444
v 0.2245080 0.0548660 1.5611684
v 0.2348299 0.0393207 1.5523781
v 0.1751244 -0.0132492 1.4963949
v 0.1751244 -0.0132492 1.4963949
v 0.2055737 -0.0167354 1.4739501
v 0.2055737 -0.0167354 1.4739501
v 0.1691731 0.0201950 1.5372257
v 0.1691731 0.0201950 1.5372257
v 0.1911986 -0.0000977 1.5140978
v 0.1959062 -0.0105878 1.4956638
v 0.1491579 0.0359159 1.5412929
v 0.1491579 0.0359159 1.5412929
v 0.1664695 -0.0015621 1.5196785
v 0.1664695 -0.0015621 1.5196785
v 0.1279323 0.0370583 1.5547199
v 0.1279323 0.0370583 1.5547199
v 0.2259474 0.0687905 1.5627058
v 0.2574598 0.0687905 1.5499910
v 0.1649739 0.0687905 1.5451932
v 0.2891956 0.0687905 1.5319824
v 0.2222756 -0.0101397 1.4920175
v 0.2222756 -0.0101397 1.4920175
v 0.1654001 0.0520973 1.5443444
v 0.1943338 0.0283130 1.5453511
v 0.2127015 0.0146836 1.5322670
v 0.1962516 0.0687905 1.5576516
v 0.1906723 0.0148905 1.5317674
v 0.1804777 0.0390427 1.5465337
v 0.2144412 0.0014041 1.5132729
v 0.1363316 0.0687905 1.5508884
v 0.1413659 0.0159817 1.5411950
v 0.1413659 0.0159817 1.5411950
v 0.2540485 -0.0092433 1.5071054
v 0.2540485 -0.0092433 1.5071054
v 0.3123179 0.0401366 1.5286224
v 0.3123179 0.0401366 1.5286224
v 0.2784046 0.0122235 1.5264293
v 0.2784046 0.0122235 1.5264293
v 0.2194344 -0.0300227 1.4663419
v 0.2194344 -0.0300227 1.4663419
v 0.2356567 -0.0228770 1.4847971
v 0.2356567 -0.0228770 1.4847971
v 0.2355536 -0.0118608 1.4984124
v 0.2191235 -0.0221435 1.4785922
v 0.3170261 0.0618577 1.5237010
v 0.3170261 0.0618577 1.5237010
v 0.2828843 0.0296805 1.5318093
v 0.2051506 -0.0278953 1.4621122
v 0.2051506 -0.0278953 1.4621122
v 0.2051506 -0.0278953 1.4621122
v 0.3179663 0.0687905 1.5236590
v 0.2549504 0.0061285 1.5216720
v 0.2204381 0.0425709 1.5569175
v 0.2481333 0.0330630 1.5434481
v 0.1886421 -0.0142610 1.4867294
v 0.2046708 -0.0053137 1.5039458
v 0.1665990 0.0372603 1.5420789
v 0.1798492 0.0092964 1.5256536
v 0.2012964 0.0211627 1.5392410
v 0.1941795 0.0418197 1.5528128
v 0.2255725 0.0091069 1.5245643
v 0.1381863 0.0362316 1.5473473
v 0.2270700 -0.0177915 1.4879923
v 0.2992022 0.0437544 1.5294251
v 0.2106287 -0.0251895 1.4691204
v 0.2677357 0.0172779 1.5290672
v 0.2449380 -0.0038327 1.5104111
v 0.1933699 0.1666949 1.4697543
v 0.1933699 0.1666949 1.4697543
v 0.1933699 0.1666949 1.4697543
v 0.1933699 0.1666949 1.4697543
v 0.2510165 0.1349486 1.5337995
v 0.2510165 0.1349486 1.5337995
v 0.2022070 0.1145483 1.5581809
v 0.3090640 0.0720327 1.5350202
v 0.3090640 0.0720327 1.5350202
v 0.3090640 0.0720327 1.5350202
v 0.1332813 0.0856472 1.5670792
v 0.1332813 0.0856472 1.5670792
v 0.2805202 0.1054544 1.5449483
v 0.2805202 0.1054544 1.5449483
v 0.2104148 0.0853479 1.5725335
v 0.1715136 0.1659060 1.4882648
v 0.1715136 0.1659060 1.4882648
v 0.1715136 0.1659060 1.4882648
v 0.2231976 0.1236401 1.5516325
v 0.2431118 0.0878297 1.5692444
v 0.2114962 0.1612472 1.4894956
v 0.2114962 0.1612472 1.4894956
v 0.1564232 0.1266180 1.5438015
v 0.1564232 0.1266180 1.5438015
v 0.1564232 0.1266180 1.5438015
v 0.1564232 0.1266180 1.5438015
v 0.1526785 0.0867512 1.5558386
v 0.1526785 0.0867512 1.5558386
v 0.1768891 0.1547803 1.5134817
v 0.1768891 0.1547803 1.5134817
v 0.1398790 0.1198669 1.5575936
v 0.1398790 0.1198669 1.5575936
v 0.1398790 0.1198669 1.5575936
v 0.2287572 0.1510850 1.5097933
v 0.2287572 0.1510850 1.5097933
v 0.1762485 0.0864518 1.5602611
v 0.1817356 0.1210620 1.5492183
v 0.2020303 0.1400063 1.5296370
v 0.2040049 0.1737221 1.4705627
v 0.2040049 0.1737221 1.4705627
v 0.2040049 0.1737221 1.4705627
v 0.2565912 0.1429794 1.5272009
v 0.2565912 0.1429794 1.5272009
v 0.3253577 0.0769423 1.5360564
v 0.3253577 0.0769423 1.5360564
v 0.3253577 0.0769423 1.5360564
v 0.3253577 0.0769423 1.5360564
v 0.2886283 0.1147411 1.5418222
v 0.2886283 0.1147411 1.5418222
v 0.2158212 0.1708345 1.4826990
v 0.2158212 0.1708345 1.4826990
v 0.2330133 0.1606652 1.5029539
v 0.2330133 0.1606652 1.5029539
v 0.2369821 0.1299324 1.5449049
v 0.2392751 0.1436979 1.5223569
v 0.2392751 0.1436979 1.5223569
v 0.2949033 0.0890645 1.5417453
v 0.2949033 0.0890645 1.5417453
v 0.1427754 0.0862665 1.5601999
v 0.1906800 0.0859291 1.5671214
v 0.2596921 0.0923242 1.5606928
v 0.2072004 0.0997528 1.5674503
v 0.2657667 0.1207744 1.5422814
v 0.2657667 0.1207744 1.5422814
v 0.1824418 0.1663004 1.4790096
v 0.1824418 0.1663004 1.4790096
v 0.2122837 0.1189606 1.5560579
v 0.2283705 0.0863421 1.5726234
v 0.2367578 0.1045912 1.5632641
v 0.1766240 0.1619403 1.5003949
v 0.1766240 0.1619403 1.5003949
v 0.2026389 0.1643057 1.4797196
v 0.2026389 0.1643057 1.4797196
v 0.1684884 0.1243397 1.5468620
v 0.1919547 0.1472508 1.5211323
v 0.1972264 0.1590106 1.5003964
v 0.1540423 0.1039030 1.5530133
v 0.1540423 0.1039030 1.5530133
v 0.1690788 0.1422963 1.5281633
v 0.1690788 0.1422963 1.5281633
v 0.1347994 0.1018972 1.5643284
v 0.1347994 0.1018972 1.5643284
v 0.2198336 0.1569300 1.4991525
v 0.2198336 0.1569300 1.4991525
v 0.1635121 0.0869259 1.5559530
v 0.1915771 0.1175029 1.5535165
v 0.2121790 0.1327656 1.5410776
v 0.1917973 0.1324063 1.5386823
v 0.1772876 0.1024249 1.5571743
v 0.2150576 0.1462344 1.5196095
v 0.1472903 0.1248369 1.5509983
v 0.1472903 0.1248369 1.5509983
v 0.2436796 0.1530116 1.5152390
v 0.2436796 0.1530116 1.5152390
v 0.3067979 0.0964910 1.5405887
v 0.3067979 0.0964910 1.5405887
v 0.2719398 0.1301227 1.5363818
v 0.2719398 0.1301227 1.5363818
v 0.2073094 0.1735896 1.4734824
v 0.2073094 0.1735896 1.4734824
v 0.2241249 0.1665138 1.4923341
v 0.2241249 0.1665138 1.4923341
v 0.2303522 0.1561661 1.5067438
v 0.2130911 0.1663283 1.4864463
v 0.3172109 0.0744875 1.5355382
v 0.3172109 0.0744875 1.5355382
v 0.2845742 0.1100977 1.5433851
v 0.1987278 0.1720277 1.4696956
v 0.1987278 0.1720277 1.4696956
v 0.1987278 0.1720277 1.4696956
v 0.2537453 0.1386445 1.5310799
v 0.2233471 0.1017375 1.5671513
v 0.2512300 0.1113152 1.5549815
v 0.1899331 0.1632294 1.4899458
v 0.2057859 0.1532389 1.5097286
v 0.1649970 0.1037167 1.5532775
v 0.1813402 0.1382141 1.5322695
v 0.2012800 0.1265237 1.5467287
v 0.1897531 0.1008180 1.5622776
v 0.2257990 0.1388336 1.5340508
v 0.1441331 0.1031892 1.5574632
v 0.2214286 0.1620110 1.4961030
v 0.3008505 0.0927777 1.5411668
v 0.2042876 0.1693357 1.4767605
v 0.2685964 0.1255861 1.5396990
v 0.2410284 0.1485644 1.5190870
v 0.1966024 0.1567048 1.4641480
v 0.1966024 0.1567048 1.4641480
v 0.1966024 0.1567048 1.4641480
v 0.1966024 0.1567048 1.4641480
v 0.2501544 0.1267149 1.5269619
v 0.2501544 0.1267149 1.5269619
v 0.2029675 0.1056802 1.5498004
v 0.3066158 0.0727664 1.5233949
v 0.3066158 0.0727664 1.5233949
v 0.3066158 0.0727664 1.5233949
v 0.1263471 0.0850240 1.5574371
v 0.1263471 0.0850240 1.5574371
v 0.2768775 0.1026206 1.5339762
v 0.2768775 0.1026206 1.5339762
v 0.2102207 0.0822617 1.5611902
v 0.1700921 0.1544079 1.4855338
v 0.1700921 0.1544079 1.4855338
v 0.1700921 0.1544079 1.4855338
v 0.2232495 0.1145535 1.5420851
v 0.2395805 0.0843972 1.5566101
v 0.2141824 0.1516375 1.4830055
v 0.2141824 0.1516375 1.4830055
v 0.1528011 0.1250179 1.5332433
v 0.1528011 0.1250179 1.5332433
v 0.1528011 0.1250179 1.5332433
v 0.1528011 0.1250179 1.5332433
v 0.1528011 0.1250179 1.5332433
v 0.1478042 0.0862022 1.5437886
v 0.1478042 0.0862022 1.5437886
v 0.1733402 0.1477924 1.5065945
v 0.1733402 0.1477924 1.5065945
v 0.1330570 0.1176957 1.5480841
v 0.1330570 0.1176957 1.5480841
v 0.1330570 0.1176957 1.5480841
v 0.2310766 0.1420948 1.5023447
v 0.2310766 0.1420948 1.5023447
v 0.1803603 0.0848046 1.5492907
v 0.1828389 0.1137772 1.5398695
v 0.2017582 0.1305496 1.5224135
v 0.2161683 0.1677424 1.4634494
v 0.2161683 0.1677424 1.4634494
v 0.2161683 0.1677424 1.4634494
v 0.2651420 0.1369653 1.5182601
v 0.2651420 0.1369653 1.5182601
v 0.3322167 0.0779770 1.5240129
v 0.3322167 0.0779770 1.5240129
v 0.3322167 0.0779770 1.5240129
v 0.3322167 0.0779770 1.5240129
v 0.2941365 0.1123318 1.5300671
v 0.2941365 0.1123318 1.5300671
v 0.2277059 0.1648150 1.4753938
v 0.2277059 0.1648150 1.4753938
v 0.2441774 0.1545718 1.4952004
v 0.2441774 0.1545718 1.4952004
v 0.2363514 0.1206079 1.5356994
v 0.2406214 0.1345228 1.5148946
v 0.2406214 0.1345228 1.5148946
v 0.2911726 0.0888876 1.5304433
v 0.2911726 0.0888876 1.5304433
v 0.1368767 0.0854704 1.5499105
v 0.1955517 0.0833764 1.5562814
v 0.2545825 0.0891665 1.5476648
v 0.2072215 0.0939175 1.5571803
v 0.2631616 0.1148276 1.5323048
v 0.2631616 0.1148276 1.5323048
v 0.1812052 0.1547158 1.4765704
v 0.1812052 0.1547158 1.4765704
v 0.2107559 0.1092389 1.5471444
v 0.2245080 0.0827151 1.5611684
v 0.2348299 0.0982604 1.5523781
v 0.1751244 0.1508303 1.4963949
v 0.1751244 0.1508303 1.4963949
v 0.2055737 0.1543164 1.4739501
v 0.2055737 0.1543164 1.4739501
v 0.1691731 0.1173860 1.5372257
v 0.1691731 0.1173860 1.5372257
v 0.1911986 0.1376788 1.5140978
v 0.1959062 0.1481688 1.4956638
v 0.1491579 0.1016652 1.5412929
v 0.1491579 0.1016652 1.5412929
v 0.1664695 0.1391432 1.5196785
v 0.1664695 0.1391432 1.5196785
v 0.1279323 0.1005228 1.5547199
v 0.1279323 0.1005228 1.5547199
v 0.2222756 0.1477207 1.4920175
v 0.2222756 0.1477207 1.4920175
v 0.1654001 0.0854837 1.5443444
v 0.1943338 0.1092680 1.5453511
v 0.2127015 0.1228974 1.5322670
v 0.1906723 0.1226906 1.5317674
v 0.1804777 0.0985384 1.5465337
v 0.2144412 0.1361769 1.5132729
v 0.1413659 0.1215994 1.5411950
v 0.1413659 0.1215994 1.5411950
v 0.2540485 0.1468243 1.5071054
v 0.2540485 0.1468243 1.5071054
v 0.3123179 0.0974445 1.5286224
v 0.3123179 0.0974445 1.5286224
v 0.2784046 0.1253575 1.5264293
v 0.2784046 0.1253575 1.5264293
v 0.2194344 0.1676037 1.4663419
v 0.2194344 0.1676037 1.4663419
v 0.2356567 0.1604580 1.4847971
v 0.2356567 0.1604580 1.4847971
v 0.2355536 0.1494418 1.4984124
v 0.2191235 0.1597246 1.4785922
v 0.3170261 0.0757234 1.5237010
v 0.3170261 0.0757234 1.5237010
v 0.2828843 0.1079006 1.5318093
v 0.2051506 0.1654764 1.4621122
v 0.2051506 0.1654764 1.4621122
v 0.2051506 0.1654764 1.4621122
v 0.2549504 0.1314525 1.5216720
v 0.2204381 0.0950101 1.5569175
v 0.2481333 0.1045181 1.5434481
v 0.1886421 0.1518420 1.4867294
v 0.2046708 0.1428948 1.5039458
v 0.1665990 0.1003208 1.5420789
v 0.1798492 0.1282847 1.5256536
v 0.2012964 0.1164183 1.5392410
v 0.1941795 0.0957614 1.5528128
v 0.2255725 0.1284741 1.5245643
v 0.1381863 0.1013495 1.5473473
v 0.2270700 0.1553725 1.4879923
v 0.2992022 0.0938267 1.5294251
v 0.2106287 0.1627705 1.4691204
v 0.2677357 0.1203032 1.5290672
v 0.2449380 0.1414138 1.5104111
v 0.2194198 0.1668689 1.4449855
v 0.2194198 0.1668689 1.4449855
v 0.2194198 0.1668689 1.4449855
v 0.2194198 0.1668689 1.4449855
v 0.2770664 0.1351226 1.5090307
v 0.2770664 0.1351226 1.5090307
v 0.2286755 0.1134225 1.5346380
v 0.3351139 0.0722067 1.5102514
v 0.3351139 0.0722067 1.5102514
v 0.3351139 0.0722067 1.5102514
v 0.1593313 0.0858212 1.5423104
v 0.1593313 0.0858212 1.5423104
v 0.3065701 0.1056283 1.5201795
v 0.3065701 0.1056283 1.5201795
v 0.2368834 0.0842389 1.5490505
v 0.1975635 0.1660800 1.4634960
v 0.1975635 0.1660800 1.4634960
v 0.1975635 0.1660800 1.4634960
v 0.2489037 0.1225349 1.5257872
v 0.2691318 0.0868160 1.5444456
v 0.2375461 0.1614212 1.4647268
v 0.2375461 0.1614212 1.4647268
v 0.1824732 0.1267920 1.5190327
v 0.1824732 0.1267920 1.5190327
v 0.1824732 0.1267920 1.5190327
v 0.1824732 0.1267920 1.5190327
v 0.1787284 0.0869252 1.5310698
v 0.1787284 0.0869252 1.5310698
v 0.2029390 0.1549543 1.4887129
v 0.2029390 0.1549543 1.4887129
v 0.3351139 0.0689645 1.5102514
v 0.3351139 0.0689645 1.5102514
v 0.1659289 0.1200408 1.5328248
v 0.1659289 0.1200408 1.5328248
v 0.1659289 0.1200408 1.5328248
v 0.2377206 0.0682997 1.5496484
v 0.3073120 0.0689645 1.5252162
v 0.2715837 0.0683931 1.5469574
v 0.1782020 0.0689645 1.5320545
v 0.1782020 0.0689645 1.5320545
v 0.2548071 0.1512590 1.4850245
v 0.2548071 0.1512590 1.4850245
v 0.2022984 0.0866258 1.5354923
v 0.2077855 0.1212360 1.5244495
v 0.2280803 0.1401802 1.5048681
v 0.2019930 0.0689645 1.5366086
v 0.1588352 0.0689645 1.5433145
v 0.1588352 0.0689645 1.5433145
v 0.2311415 0.1733619 1.4451585
v 0.2311415 0.1733619 1.4451585
v 0.2311415 0.1733619 1.4451585
v 0.2834051 0.1426161 1.5016330
v 0.2834051 0.1426161 1.5016330
v 0.3514076 0.0771163 1.5112876
v 0.3514076 0.0771163 1.5112876
v 0.3514076 0.0771163 1.5112876
v 0.3514076 0.0771163 1.5112876
v 0.3149930 0.1147774 1.5163817
v 0.3149930 0.1147774 1.5163817
v 0.2429329 0.1704707 1.4572774
v 0.2429329 0.1704707 1.4572774
v 0.3514076 0.0689645 1.5112875
v 0.3514076 0.0689645 1.5112875
v 0.2600607 0.1602948 1.4774925
v 0.2600607 0.1602948 1.4774925
v 0.2619406 0.1287506 1.5169066
v 0.2653250 0.1438719 1.4975880
v 0.2653250 0.1438719 1.4975880
v 0.3209532 0.0892385 1.5169765
v 0.3209532 0.0892385 1.5169765
v 0.1688254 0.0864405 1.5354310
v 0.2171486 0.0848164 1.5436084
v 0.2856972 0.0913647 1.5357445
v 0.2340876 0.0986756 1.5451334
v 0.2918166 0.1209484 1.5175126
v 0.2918166 0.1209484 1.5175126
v 0.2084917 0.1664744 1.4542408
v 0.2084917 0.1664744 1.4542408
v 0.2382738 0.1178871 1.5311097
v 0.2545401 0.0852742 1.5481833
v 0.2627629 0.1035102 1.5383159
v 0.2026739 0.1621143 1.4756261
v 0.2026739 0.1621143 1.4756261
v 0.2286888 0.1644797 1.4549508
v 0.2286888 0.1644797 1.4549508
v 0.1945383 0.1245137 1.5220932
v 0.2180047 0.1474248 1.4963635
v 0.2232764 0.1591846 1.4756275
v 0.1800923 0.1040770 1.5282445
v 0.1800923 0.1040770 1.5282445
v 0.1951287 0.1424703 1.5033945
v 0.1951287 0.1424703 1.5033945
v 0.1608493 0.1020712 1.5395596
v 0.1608493 0.1020712 1.5395596
v 0.2562743 0.0683371 1.5497382
v 0.2912438 0.0684193 1.5378972
v 0.1890178 0.0689645 1.5321572
v 0.3208467 0.0689645 1.5177164
v 0.2458836 0.1571039 1.4743837
v 0.2458836 0.1571039 1.4743837
v 0.1895621 0.0870998 1.5311842
v 0.2181354 0.1163434 1.5302725
v 0.2381841 0.1317015 1.5160694
v 0.2172533 0.0683146 1.5443261
v 0.2178473 0.1325803 1.5139135
v 0.2033376 0.1025989 1.5324055
v 0.2411076 0.1464083 1.4948406
v 0.1683255 0.0689645 1.5364324
v 0.1733402 0.1250109 1.5262295
v 0.1733402 0.1250109 1.5262295
v 0.2706559 0.1526328 1.4897434
v 0.2706559 0.1526328 1.4897434
v 0.3328478 0.0966649 1.5158199
v 0.3328478 0.0966649 1.5158199
v 0.2985767 0.1298641 1.5107096
v 0.2985767 0.1298641 1.5107096
v 0.2344426 0.1732288 1.4480755
v 0.2344426 0.1732288 1.4480755
v 0.2512051 0.1661467 1.4668920
v 0.2512051 0.1661467 1.4668920
v 0.2564021 0.1563401 1.4819750
v 0.2391411 0.1665023 1.4616774
v 0.3432608 0.0746615 1.5107694
v 0.3432608 0.0746615 1.5107694
v 0.3106241 0.1102717 1.5186163
v 0.2247777 0.1722017 1.4449267
v 0.2247777 0.1722017 1.4449267
v 0.2247777 0.1722017 1.4449267
v 0.3432608 0.0689645 1.5107692
v 0.2797952 0.1388185 1.5063111
v 0.2497409 0.1006827 1.5433692
v 0.2765324 0.1102492 1.5280600
v 0.2159831 0.1634034 1.4651769
v 0.2318359 0.1534129 1.4849597
v 0.1910469 0.1038907 1.5285087
v 0.2073901 0.1383881 1.5075006
v 0.2276738 0.1254259 1.5230064
v 0.2163263 0.0996586 1.5390635
v 0.2510416 0.1377882 1.5068897
v 0.1701831 0.1033632 1.5326943
v 0.2474785 0.1621850 1.4713342
v 0.3269004 0.0929517 1.5163980
v 0.2303375 0.1695097 1.4519917
v 0.2946463 0.1257601 1.5149301
v 0.2670784 0.1487383 1.4943181
v 0.2226523 0.1568788 1.4393792
v 0.2226523 0.1568788 1.4393792
v 0.2226523 0.1568788 1.4393792
v 0.2226523 0.1568788 1.4393792
v 0.2762043 0.1268888 1.5021931
v 0.2762043 0.1268888 1.5021931
v 0.2290175 0.1058542 1.5250316
v 0.3326657 0.0729404 1.4986261
v 0.3326657 0.0729404 1.4986261
v 0.3326657 0.0729404 1.4986261
v 0.1523970 0.0851979 1.5326682
v 0.1523970 0.0851979 1.5326682
v 0.3029274 0.1027946 1.5092074
v 0.3029274 0.1027946 1.5092074
v 0.2362706 0.0824356 1.5364214
v 0.1961420 0.1545820 1.4607650
v 0.1961420 0.1545820 1.4607650
v 0.1961420 0.1545820 1.4607650
v 0.2492995 0.1147275 1.5173162
v 0.2656305 0.0845712 1.5318413
v 0.2402323 0.1518115 1.4582367
v 0.2402323 0.1518115 1.4582367
v 0.1788510 0.1251919 1.5084745
v 0.1788510 0.1251919 1.5084745
v 0.1788510 0.1251919 1.5084745
v 0.1788510 0.1251919 1.5084745
v 0.1788510 0.1251919 1.5084745
v 0.1738542 0.0863762 1.5190197
v 0.1738542 0.0863762 1.5190197
v 0.1993901 0.1479664 1.4818257
v 0.1993901 0.1479664 1.4818257
v 0.3326463 0.0689645 1.4986069
v 0.3326463 0.0689645 1.4986069
v 0.1591069 0.1178697 1.5233153
v 0.1591069 0.1178697 1.5233153
v 0.1591069 0.1178697 1.5233153
v 0.2375520 0.0689645 1.5379635
v 0.3015102 0.0689645 1.5148232
v 0.2672376 0.0689645 1.5333532
v 0.1732979 0.0689645 1.5199202
v 0.1732979 0.0689645 1.5199202
v 0.2571265 0.1422688 1.4775759
v 0.2571265 0.1422688 1.4775759
v 0.2064102 0.0849786 1.5245218
v 0.2088888 0.1139511 1.5151007
v 0.2278081 0.1307236 1.4976447
v 0.2064126 0.0689645 1.5255563
v 0.1518496 0.0689645 1.5336766
v 0.1518496 0.0689645 1.5336766
v 0.2422182 0.1679164 1.4386806
v 0.2422182 0.1679164 1.4386806
v 0.2422182 0.1679164 1.4386806
v 0.2911919 0.1371392 1.4934913
v 0.2911919 0.1371392 1.4934913
v 0.3582666 0.0781510 1.4992441
v 0.3582666 0.0781510 1.4992441
v 0.3582666 0.0781510 1.4992441
v 0.3582666 0.0781510 1.4992441
v 0.3201865 0.1125057 1.5052983
v 0.3201865 0.1125057 1.5052983
v 0.2537559 0.1649890 1.4506249
v 0.2537559 0.1649890 1.4506249
v 0.3590933 0.0689645 1.4992228
v 0.3590933 0.0689645 1.4992228
v 0.2702273 0.1547458 1.4704316
v 0.2702273 0.1547458 1.4704316
v 0.2624013 0.1207819 1.5109305
v 0.2666714 0.1346968 1.4901258
v 0.2666714 0.1346968 1.4901258
v 0.3172225 0.0890616 1.5056745
v 0.3172225 0.0890616 1.5056745
v 0.1629266 0.0856444 1.5251417
v 0.2216016 0.0835504 1.5315126
v 0.2806324 0.0893405 1.5228959
v 0.2332714 0.0940915 1.5324115
v 0.2892115 0.1150016 1.5075359
v 0.2892115 0.1150016 1.5075359
v 0.2072551 0.1548898 1.4518015
v 0.2072551 0.1548898 1.4518015
v 0.2368058 0.1094129 1.5223756
v 0.2505580 0.0828891 1.5363996
v 0.2608798 0.0984344 1.5276092
v 0.2011743 0.1510043 1.4716260
v 0.2011743 0.1510043 1.4716260
v 0.2316237 0.1544904 1.4491813
v 0.2316237 0.1544904 1.4491813
v 0.1952230 0.1175600 1.5124569
v 0.1952230 0.1175600 1.5124569
v 0.2172485 0.1378528 1.4893290
v 0.2219562 0.1483428 1.4708949
v 0.1752079 0.1018392 1.5165241
v 0.1752079 0.1018392 1.5165241
v 0.1925195 0.1393172 1.4949096
v 0.1925195 0.1393172 1.4949096
v 0.1539823 0.1006967 1.5299511
v 0.1539823 0.1006967 1.5299511
v 0.2519974 0.0689645 1.5379369
v 0.2835097 0.0689645 1.5252222
v 0.1910238 0.0689645 1.5204244
v 0.3152455 0.0689645 1.5072136
v 0.2483256 0.1478947 1.4672487
v 0.2483256 0.1478947 1.4672487
v 0.1914500 0.0856577 1.5195756
v 0.2203837 0.1094420 1.5205823
v 0.2387515 0.1230714 1.5074981
v 0.2223015 0.0689645 1.5328828
v 0.2167222 0.1228645 1.5069985
v 0.2065276 0.0987123 1.5217649
v 0.2404912 0.1363509 1.4885041
v 0.1623815 0.0689645 1.5261196
v 0.1674159 0.1217734 1.5164262
v 0.1674159 0.1217734 1.5164262
v 0.2800985 0.1469983 1.4823365
v 0.2800985 0.1469983 1.4823365
v 0.3383678 0.0976184 1.5038536
v 0.3383678 0.0976184 1.5038536
v 0.3044546 0.1255315 1.5016605
v 0.3044546 0.1255315 1.5016605
v 0.2454843 0.1677777 1.4415730
v 0.2454843 0.1677777 1.4415730
v 0.2617067 0.1606320 1.4600283
v 0.2617067 0.1606320 1.4600283
v 0.2616035 0.1496158 1.4736435
v 0.2451734 0.1598986 1.4538233
v 0.3430760 0.0758974 1.4989321
v 0.3430760 0.0758974 1.4989321
v 0.3089342 0.1080746 1.5070405
v 0.2312005 0.1656504 1.4373434
v 0.2312005 0.1656504 1.4373434
v 0.2312005 0.1656504 1.4373434
v 0.3440163 0.0689645 1.4988902
v 0.2810003 0.1316265 1.4969032
v 0.2464880 0.0951841 1.5321487
v 0.2741832 0.1046921 1.5186793
v 0.2146921 0.1520161 1.4619606
v 0.2307208 0.1430688 1.4791770
v 0.1926489 0.1004947 1.5173100
v 0.2058991 0.1284586 1.5008848
v 0.2273463 0.1165923 1.5144721
v 0.2202294 0.0959354 1.5280440
v 0.2516224 0.1286481 1.4997954
v 0.1642362 0.1015235 1.5225785
v 0.2531199 0.1555465 1.4632235
v 0.3252521 0.0940007 1.5046563
v 0.2366786 0.1629445 1.4443516
v 0.2937856 0.1204772 1.5042983
v 0.2709879 0.1415877 1.4856423
v 0.2194198 -0.0289398 1.4449855
v 0.2194198 -0.0289398 1.4449855
v 0.2194198 -0.0289398 1.4449855
v 0.2194198 -0.0289398 1.4449855
v 0.2770664 0.0028065 1.5090307
v 0.2770664 0.0028065 1.5090307
v 0.2282569 0.0232068 1.5334121
v 0.3351139 0.0657223 1.5102514
v 0.3351139 0.0657223 1.5102514
v 0.3351139 0.0657223 1.5102514
v 0.1593313 0.0521078 1.5423104
v 0.1593313 0.0521078 1.5423104
v 0.3065701 0.0323007 1.5201795
v 0.3065701 0.0323007 1.5201795
v 0.2364648 0.0524072 1.5477647
v 0.1975635 -0.0281509 1.4634960
v 0.1975635 -0.0281509 1.4634960
v 0.1975635 -0.0281509 1.4634960
v 0.2492475 0.0141149 1.5268637
v 0.2691618 0.0499254 1.5444756
v 0.2375461 -0.0234922 1.4647268
v 0.2375461 -0.0234922 1.4647268
v 0.1824732 0.0111371 1.5190327
v 0.1824732 0.0111371 1.5190327
v 0.1824732 0.0111371 1.5190327
v 0.1824732 0.0111371 1.5190327
v 0.1787284 0.0510038 1.5310698
v 0.1787284 0.0510038 1.5310698
v 0.2029390 -0.0170252 1.4887129
v 0.2029390 -0.0170252 1.4887129
v 0.1659289 0.0178882 1.5328248
v 0.1659289 0.0178882 1.5328248
v 0.1659289 0.0178882 1.5328248
v 0.2548071 -0.0133299 1.4850245
v 0.2548071 -0.0133299 1.4850245
v 0.2022984 0.0513033 1.5354923
v 0.2077855 0.0166930 1.5244495
v 0.2280803 -0.0022512 1.5048681
v 0.2300548 -0.0359671 1.4457939
v 0.2300548 -0.0359671 1.4457939
v 0.2300548 -0.0359671 1.4457939
v 0.2826412 -0.0052244 1.5024321
v 0.2826412 -0.0052244 1.5024321
v 0.3514076 0.0608127 1.5112876
v 0.3514076 0.0608127 1.5112876
v 0.3514076 0.0608127 1.5112876
v 0.3514076 0.0608127 1.5112876
v 0.3146783 0.0230139 1.5170534
v 0.3146783 0.0230139 1.5170534
v 0.2418711 -0.0330795 1.4579302
v 0.2418711 -0.0330795 1.4579302
v 0.2590633 -0.0229102 1.4781851
v 0.2590633 -0.0229102 1.4781851
v 0.2630320 0.0078226 1.5201361
v 0.2653250 -0.0059429 1.4975880
v 0.2653250 -0.0059429 1.4975880
v 0.3209532 0.0486905 1.5169765
v 0.3209532 0.0486905 1.5169765
v 0.1688254 0.0514885 1.5354310
v 0.2167300 0.0518260 1.5423526
v 0.2857420 0.0454309 1.5359240
v 0.2332504 0.0380023 1.5426815
v 0.2918166 0.0169806 1.5175126
v 0.2918166 0.0169806 1.5175126
v 0.2084917 -0.0285454 1.4542408
v 0.2084917 -0.0285454 1.4542408
v 0.2383336 0.0187945 1.5312891
v 0.2544205 0.0514130 1.5478545
v 0.2628078 0.0331639 1.5384953
v 0.2026739 -0.0241853 1.4756261
v 0.2026739 -0.0241853 1.4756261
v 0.2286888 -0.0265507 1.4549508
v 0.2286888 -0.0265507 1.4549508
v 0.1945383 0.0134153 1.5220932
v 0.2180047 -0.0094957 1.4963635
v 0.2232764 -0.0212556 1.4756275
v 0.1800923 0.0338520 1.5282445
v 0.1800923 0.0338520 1.5282445
v 0.1951287 -0.0045413 1.5033945
v 0.1951287 -0.0045413 1.5033945
v 0.1608493 0.0358578 1.5395596
v 0.1608493 0.0358578 1.5395596
v 0.2458836 -0.0191749 1.4743837
v 0.2458836 -0.0191749 1.4743837
v 0.1895621 0.0508292 1.5311842
v 0.2176270 0.0202522 1.5287477
v 0.2382289 0.0049895 1.5163088
v 0.2178473 0.0053487 1.5139135
v 0.2033376 0.0353301 1.5324055
v 0.2411076 -0.0084793 1.4948406
v 0.1733402 0.0129182 1.5262295
v 0.1733402 0.0129182 1.5262295
v 0.2697295 -0.0152565 1.4904702
v 0.2697295 -0.0152565 1.4904702
v 0.3328478 0.0412641 1.5158199
v 0.3328478 0.0412641 1.5158199
v 0.2979897 0.0076323 1.5116130
v 0.2979897 0.0076323 1.5116130
v 0.2333593 -0.0358346 1.4487135
v 0.2333593 -0.0358346 1.4487135
v 0.2501749 -0.0287588 1.4675653
v 0.2501749 -0.0287588 1.4675653
v 0.2564021 -0.0184110 1.4819750
v 0.2391411 -0.0285732 1.4616774
v 0.3432608 0.0632675 1.5107694
v 0.3432608 0.0632675 1.5107694
v 0.3106241 0.0276573 1.5186163
v 0.2247777 -0.0342727 1.4449267
v 0.2247777 -0.0342727 1.4449267
v 0.2247777 -0.0342727 1.4449267
v 0.2797952 -0.0008895 1.5063111
v 0.2493971 0.0360176 1.5423825
v 0.2772799 0.0264399 1.5302126
v 0.2159831 -0.0254744 1.4651769
v 0.2318359 -0.0154839 1.4849597
v 0.1910469 0.0340383 1.5285087
v 0.2073901 -0.0004590 1.5075006
v 0.2273300 0.0112314 1.5219599
v 0.2158030 0.0369371 1.5375087
v 0.2518489 -0.0010786 1.5092820
v 0.1701831 0.0345658 1.5326943
v 0.2474785 -0.0242560 1.4713342
v 0.3269004 0.0449773 1.5163980
v 0.2303375 -0.0315807 1.4519917
v 0.2946463 0.0121689 1.5149301
v 0.2670784 -0.0108093 1.4943181
v 0.2226523 -0.0189497 1.4393792
v 0.2226523 -0.0189497 1.4393792
v 0.2226523 -0.0189497 1.4393792
v 0.2226523 -0.0189497 1.4393792
v 0.2762043 0.0110402 1.5021931
v 0.2762043 0.0110402 1.5021931
v 0.2290175 0.0320748 1.5250316
v 0.3326657 0.0649886 1.4986261
v 0.3326657 0.0649886 1.4986261
v 0.3326657 0.0649886 1.4986261
v 0.1523970 0.0527311 1.5326682
v 0.1523970 0.0527311 1.5326682
v 0.3029274 0.0351344 1.5092074
v 0.3029274 0.0351344 1.5092074
v 0.2362706 0.0554934 1.5364214
v 0.1961420 -0.0166529 1.4607650
v 0.1961420 -0.0166529 1.4607650
v 0.1961420 -0.0166529 1.4607650
v 0.2492995 0.0232015 1.5173162
v 0.2656305 0.0533578 1.5318413
v 0.2402323 -0.0138824 1.4582367
v 0.2402323 -0.0138824 1.4582367
v 0.1788510 0.0127372 1.5084745
v 0.1788510 0.0127372 1.5084745
v 0.1788510 0.0127372 1.5084745
v 0.1788510 0.0127372 1.5084745
v 0.1788510 0.0127372 1.5084745
v 0.1738542 0.0515529 1.5190197
v 0.1738542 0.0515529 1.5190197
v 0.1993901 -0.0100374 1.4818257
v 0.1993901 -0.0100374 1.4818257
v 0.1591069 0.0200594 1.5233153
v 0.1591069 0.0200594 1.5233153
v 0.1591069 0.0200594 1.5233153
v 0.2571265 -0.0043398 1.4775759
v 0.2571265 -0.0043398 1.4775759
v 0.2064102 0.0529505 1.5245218
v 0.2088888 0.0239779 1.5151007
v 0.2278081 0.0072055 1.4976447
v 0.2422182 -0.0299873 1.4386805
v 0.2422182 -0.0299873 1.4386805
v 0.2422182 -0.0299873 1.4386805
v 0.2911919 0.0007898 1.4934913
v 0.2911919 0.0007898 1.4934913
v 0.3582666 0.0597780 1.4992441
v 0.3582666 0.0597780 1.4992441
v 0.3582666 0.0597780 1.4992441
v 0.3582666 0.0597780 1.4992441
v 0.3201865 0.0254233 1.5052983
v 0.3201865 0.0254233 1.5052983
v 0.2537559 -0.0270600 1.4506249
v 0.2537559 -0.0270600 1.4506249
v 0.2702273 -0.0168168 1.4704316
v 0.2702273 -0.0168168 1.4704316
v 0.2624013 0.0171471 1.5109305
v 0.2666714 0.0032322 1.4901258
v 0.2666714 0.0032322 1.4901258
v 0.3172225 0.0488674 1.5056745
v 0.3172225 0.0488674 1.5056745
v 0.1629266 0.0522847 1.5251417
v 0.2216016 0.0543786 1.5315126
v 0.2806324 0.0485885 1.5228959
v 0.2332714 0.0438376 1.5324115
v 0.2892115 0.0229274 1.5075359
v 0.2892115 0.0229274 1.5075359
v 0.2072551 -0.0169607 1.4518015
v 0.2072551 -0.0169607 1.4518015
v 0.2368058 0.0285161 1.5223756
v 0.2505580 0.0550399 1.5363996
v 0.2608798 0.0394946 1.5276092
v 0.2011743 -0.0130752 1.4716260
v 0.2011743 -0.0130752 1.4716260
v 0.2316237 -0.0165614 1.4491813
v 0.2316237 -0.0165614 1.4491813
v 0.1952230 0.0203690 1.5124569
v 0.1952230 0.0203690 1.5124569
v 0.2172485 0.0000763 1.4893290
v 0.2219562 -0.0104138 1.4708949
v 0.1752079 0.0360899 1.5165241
v 0.1752079 0.0360899 1.5165241
v 0.1925195 -0.0013881 1.4949096
v 0.1925195 -0.0013881 1.4949096
v 0.1539823 0.0372323 1.5299511
v 0.1539823 0.0372323 1.5299511
v 0.2483256 -0.0099657 1.4672487
v 0.2483256 -0.0099657 1.4672487
v 0.1914500 0.0522713 1.5195756
v 0.2203837 0.0284870 1.5205823
v 0.2387515 0.0148576 1.5074981
v 0.2167222 0.0150645 1.5069985
v 0.2065276 0.0392167 1.5217649
v 0.2404912 0.0015781 1.4885041
v 0.1674159 0.0161556 1.5164262
v 0.1674159 0.0161556 1.5164262
v 0.2800985 -0.0090693 1.4823365
v 0.2800985 -0.0090693 1.4823365
v 0.3383678 0.0403106 1.5038536
v 0.3383678 0.0403106 1.5038536
v 0.3044546 0.0123975 1.5016605
v 0.3044546 0.0123975 1.5016605
v 0.2454843 -0.0298486 1.4415730
v 0.2454843 -0.0298486 1.4415730
v 0.2617067 -0.0227030 1.4600283
v 0.2617067 -0.0227030 1.4600283
v 0.2616035 -0.0116868 1.4736435
v 0.2451734 -0.0219695 1.4538233
v 0.3430760 0.0620317 1.4989321
v 0.3430760 0.0620317 1.4989321
v 0.3089342 0.0298545 1.5070405
v 0.2312005 -0.0277213 1.4373434
v 0.2312005 -0.0277213 1.4373434
v 0.2312005 -0.0277213 1.4373434
v 0.2810003 0.0063025 1.4969032
v 0.2464880 0.0427449 1.5321487
v 0.2741832 0.0332370 1.5186793
v 0.2146921 -0.0140870 1.4619606
v 0.2307208 -0.0051397 1.4791770
v 0.1926489 0.0374343 1.5173100
v 0.2058991 0.0094704 1.5008848
v 0.2273463 0.0213367 1.5144721
v 0.2202294 0.0419937 1.5280440
v 0.2516224 0.0092809 1.4997954
v 0.1642362 0.0364056 1.5225785
v 0.2531199 -0.0176175 1.4632235
v 0.3252521 0.0439284 1.5046563
v 0.2366786 -0.0250155 1.4443516
v 0.2937856 0.0174519 1.5042983
v 0.2709879 -0.0036587 1.4856423
usemtl MI_Ranger
f 98 70 9
f 98 9 31
f 27 39 108
f 27 108 71
f 20 80 131
f 20 131 81
f 80 15 74
f 80 74 131
f 131 74 7
f 131 7 79
f 81 131 79
f 81 79 19
f 14 73 132
f 14 132 76
f 73 20 81
f 73 81 132
f 132 81 19
f 132 19 66
f 76 132 66
f 76 66 5
f 21 88 133
f 21 133 84
f 88 29 82
f 88 82 133
f 133 82 16
f 133 16 77
f 84 133 77
f 84 77 1
f 41 107 134
f 41 134 99
f 107 45 87
f 107 87 134
f 134 87 29
f 134 29 88
f 99 134 88
f 99 88 21
f 43 101 135
f 43 135 106
f 101 28 90
f 101 90 135
f 135 90 24
f 135 24 86
f 106 135 86
f 106 86 44
f 45 105 136
f 45 136 87
f 105 44 86
f 105 86 136
f 136 86 24
f 136 24 91
f 87 136 91
f 87 91 29
f 71 108 47
f 71 47 11
f 20 38 95
f 20 95 80
f 14 37 96
f 14 96 73
f 80 95 36
f 80 36 15
f 15 36 104
f 15 104 72
f 73 96 38
f 73 38 20
f 43 46 97
f 43 97 101
f 72 104 46
f 72 46 43
f 10 124 129
f 10 129 32
f 101 97 40
f 101 40 28
f 19 79 137
f 19 137 103
f 79 7 102
f 79 102 137
f 137 102 44
f 137 44 105
f 103 137 105
f 103 105 45
f 15 72 138
f 15 138 74
f 72 43 106
f 72 106 138
f 138 106 44
f 138 44 102
f 74 138 102
f 74 102 7
f 5 66 139
f 5 139 67
f 66 19 103
f 66 103 139
f 139 103 45
f 139 45 107
f 67 139 107
f 67 107 41
f 23 89 140
f 23 140 109
f 89 27 71
f 89 71 140
f 140 71 11
f 140 11 93
f 109 140 93
f 109 93 33
f 42 100 141
f 42 141 121
f 100 22 122
f 100 122 141
f 141 122 61
f 141 61 120
f 121 141 120
f 121 120 65
f 8 69 142
f 8 142 123
f 69 13 125
f 69 125 142
f 142 125 58
f 142 58 113
f 123 142 113
f 123 113 54
f 22 85 143
f 22 143 122
f 85 3 127
f 85 127 143
f 143 127 51
f 143 51 118
f 122 143 118
f 122 118 61
f 129 124 57
f 129 57 63
f 13 75 144
f 13 144 125
f 75 6 130
f 75 130 144
f 144 130 52
f 144 52 115
f 125 144 115
f 125 115 58
f 6 68 145
f 6 145 130
f 68 42 121
f 68 121 145
f 145 121 65
f 145 65 112
f 130 145 112
f 130 112 52
f 216 159 183
f 216 183 245
f 245 178 155
f 245 155 216
f 255 186 174
f 255 174 217
f 165 227 278
f 165 278 226
f 226 278 220
f 226 220 160
f 278 225 152
f 278 152 220
f 227 164 225
f 227 225 278
f 159 222 279
f 159 279 219
f 219 279 227
f 219 227 165
f 279 212 164
f 279 164 227
f 222 151 212
f 222 212 279
f 167 231 280
f 167 280 235
f 235 280 228
f 235 228 175
f 280 223 161
f 280 161 228
f 231 147 223
f 231 223 280
f 188 247 281
f 188 281 254
f 254 281 234
f 254 234 191
f 281 235 175
f 281 175 234
f 247 167 235
f 247 235 281
f 189 253 282
f 189 282 248
f 248 282 236
f 248 236 173
f 282 232 168
f 282 168 236
f 253 190 232
f 253 232 282
f 191 234 283
f 191 283 252
f 252 283 233
f 252 233 190
f 283 238 169
f 283 169 233
f 234 175 238
f 234 238 283
f 217 156 193
f 217 193 255
f 226 242 184
f 226 184 165
f 219 243 183
f 219 183 159
f 160 182 242
f 160 242 226
f 218 251 182
f 218 182 160
f 165 184 243
f 165 243 219
f 248 244 192
f 248 192 189
f 189 192 251
f 189 251 218
f 270 153 177
f 270 177 276
f 173 185 244
f 173 244 248
f 164 250 284
f 164 284 225
f 225 284 249
f 225 249 152
f 284 252 190
f 284 190 249
f 250 191 252
f 250 252 284
f 160 220 285
f 160 285 218
f 218 285 253
f 218 253 189
f 285 249 190
f 285 190 253
f 220 152 249
f 220 249 285
f 151 214 286
f 151 286 212
f 212 286 250
f 212 250 164
f 286 254 191
f 286 191 250
f 214 188 254
f 214 254 286
f 171 257 287
f 171 287 237
f 237 287 217
f 237 217 174
f 287 240 156
f 287 156 217
f 257 180 240
f 257 240 287
f 187 268 288
f 187 288 246
f 246 288 269
f 246 269 166
f 288 266 206
f 288 206 269
f 268 210 266
f 268 266 288
f 154 271 289
f 154 289 215
f 215 289 272
f 215 272 158
f 289 261 205
f 289 205 272
f 271 203 261
f 271 261 289
f 166 269 290
f 166 290 230
f 230 290 273
f 230 273 146
f 290 264 195
f 290 195 273
f 269 206 264
f 269 264 290
f 276 208 200
f 276 200 270
f 158 272 291
f 158 291 221
f 221 291 277
f 221 277 150
f 291 263 198
f 291 198 277
f 272 205 263
f 272 263 291
f 150 277 292
f 150 292 213
f 213 292 268
f 213 268 187
f 292 258 210
f 292 210 268
f 277 198 258
f 277 258 292
f 12 48 194
f 12 194 157
f 4 78 224
f 4 224 149
f 78 17 162
f 78 162 224
f 83 30 176
f 83 176 229
f 18 83 229
f 18 229 163
f 62 56 202
f 62 202 209
f 92 26 172
f 92 172 239
f 30 92 239
f 30 239 176
f 94 12 157
f 94 157 241
f 35 94 241
f 35 241 181
f 110 34 179
f 110 179 256
f 25 110 256
f 25 256 170
f 111 64 211
f 111 211 259
f 53 111 259
f 53 259 199
f 114 59 204
f 114 204 260
f 55 114 260
f 55 260 201
f 116 53 199
f 116 199 262
f 59 116 262
f 59 262 204
f 117 49 196
f 117 196 265
f 60 117 265
f 60 265 207
f 119 60 207
f 119 207 267
f 64 119 267
f 64 267 211
f 128 2 148
f 128 148 275
f 50 126 274
f 50 274 197
f 14 70 98
f 14 98 37
f 98 31 301
f 98 301 350
f 319 351 108
f 319 108 39
f 312 361 404
f 312 404 360
f 360 404 354
f 360 354 307
f 404 359 299
f 404 299 354
f 361 311 359
f 361 359 404
f 306 356 405
f 306 405 353
f 353 405 361
f 353 361 312
f 405 346 311
f 405 311 361
f 356 297 346
f 356 346 405
f 313 364 406
f 313 406 368
f 368 406 362
f 368 362 321
f 406 357 308
f 406 308 362
f 364 293 357
f 364 357 406
f 326 375 407
f 326 407 382
f 382 407 367
f 382 367 330
f 407 368 321
f 407 321 367
f 375 313 368
f 375 368 407
f 328 381 408
f 328 408 377
f 377 408 370
f 377 370 320
f 408 366 316
f 408 316 370
f 381 329 366
f 381 366 408
f 330 367 409
f 330 409 380
f 380 409 366
f 380 366 329
f 409 371 316
f 409 316 366
f 367 321 371
f 367 371 409
f 351 303 47
f 351 47 108
f 312 360 95
f 312 95 38
f 306 353 96
f 306 96 37
f 360 307 36
f 360 36 95
f 307 352 104
f 307 104 36
f 353 312 38
f 353 38 96
f 328 377 97
f 328 97 46
f 352 328 46
f 352 46 104
f 302 32 129
f 302 129 398
f 377 320 40
f 377 40 97
f 311 379 410
f 311 410 359
f 359 410 378
f 359 378 299
f 410 380 329
f 410 329 378
f 379 330 380
f 379 380 410
f 307 354 411
f 307 411 352
f 352 411 381
f 352 381 328
f 411 378 329
f 411 329 381
f 354 299 378
f 354 378 411
f 297 347 412
f 297 412 346
f 346 412 379
f 346 379 311
f 412 382 330
f 412 330 379
f 347 326 382
f 347 382 412
f 315 383 413
f 315 413 369
f 369 413 351
f 369 351 319
f 413 373 303
f 413 303 351
f 383 323 373
f 383 373 413
f 327 395 414
f 327 414 376
f 376 414 396
f 376 396 314
f 414 394 343
f 414 343 396
f 395 345 394
f 395 394 414
f 300 397 415
f 300 415 349
f 349 415 399
f 349 399 305
f 415 387 340
f 415 340 399
f 397 336 387
f 397 387 415
f 314 396 416
f 314 416 365
f 365 416 402
f 365 402 295
f 416 392 333
f 416 333 402
f 396 343 392
f 396 392 416
f 129 63 339
f 129 339 398
f 305 399 417
f 305 417 355
f 355 417 403
f 355 403 298
f 417 389 335
f 417 335 403
f 399 340 389
f 399 389 417
f 298 403 418
f 298 418 348
f 348 418 395
f 348 395 327
f 418 386 345
f 418 345 395
f 403 335 386
f 403 386 418
f 477 245 183
f 477 183 432
f 245 477 428
f 245 428 178
f 255 478 447
f 255 447 186
f 438 487 532
f 438 532 488
f 487 433 481
f 487 481 532
f 532 481 425
f 532 425 486
f 488 532 486
f 488 486 437
f 432 480 533
f 432 533 483
f 480 438 488
f 480 488 533
f 533 488 437
f 533 437 473
f 483 533 473
f 483 473 424
f 440 496 534
f 440 534 492
f 496 448 489
f 496 489 534
f 534 489 434
f 534 434 484
f 492 534 484
f 492 484 420
f 454 510 535
f 454 535 504
f 510 457 495
f 510 495 535
f 535 495 448
f 535 448 496
f 504 535 496
f 504 496 440
f 455 505 536
f 455 536 509
f 505 446 497
f 505 497 536
f 536 497 441
f 536 441 493
f 509 536 493
f 509 493 456
f 457 508 537
f 457 537 495
f 508 456 494
f 508 494 537
f 537 494 442
f 537 442 499
f 495 537 499
f 495 499 448
f 478 255 193
f 478 193 429
f 487 438 184
f 487 184 242
f 480 432 183
f 480 183 243
f 433 487 242
f 433 242 182
f 479 433 182
f 479 182 251
f 438 480 243
f 438 243 184
f 505 455 192
f 505 192 244
f 455 479 251
f 455 251 192
f 525 276 177
f 525 177 426
f 446 505 244
f 446 244 185
f 437 486 538
f 437 538 507
f 486 425 506
f 486 506 538
f 538 506 456
f 538 456 508
f 507 538 508
f 507 508 457
f 433 479 539
f 433 539 481
f 479 455 509
f 479 509 539
f 539 509 456
f 539 456 506
f 481 539 506
f 481 506 425
f 424 473 540
f 424 540 475
f 473 437 507
f 473 507 540
f 540 507 457
f 540 457 510
f 475 540 510
f 475 510 454
f 444 498 541
f 444 541 512
f 498 447 478
f 498 478 541
f 541 478 429
f 541 429 501
f 512 541 501
f 512 501 451
f 453 503 542
f 453 542 523
f 503 439 524
f 503 524 542
f 542 524 469
f 542 469 521
f 523 542 521
f 523 521 471
f 427 476 543
f 427 543 526
f 476 431 527
f 476 527 543
f 543 527 468
f 543 468 516
f 526 543 516
f 526 516 466
f 439 491 544
f 439 544 524
f 491 419 528
f 491 528 544
f 544 528 458
f 544 458 519
f 524 544 519
f 524 519 469
f 276 525 463
f 276 463 208
f 431 482 545
f 431 545 527
f 482 423 531
f 482 531 545
f 545 531 461
f 545 461 518
f 527 545 518
f 527 518 468
f 423 474 546
f 423 546 531
f 474 453 523
f 474 523 546
f 546 523 471
f 546 471 513
f 531 546 513
f 531 513 461
f 304 430 194
f 304 194 48
f 296 422 485
f 296 485 358
f 358 485 435
f 358 435 309
f 363 490 449
f 363 449 322
f 310 436 490
f 310 490 363
f 62 209 465
f 62 465 338
f 372 500 445
f 372 445 318
f 322 449 500
f 322 500 372
f 374 502 430
f 374 430 304
f 325 452 502
f 325 502 374
f 384 511 450
f 384 450 324
f 317 443 511
f 317 511 384
f 385 514 472
f 385 472 344
f 334 462 514
f 334 514 385
f 388 515 467
f 388 467 341
f 337 464 515
f 337 515 388
f 390 517 462
f 390 462 334
f 341 467 517
f 341 517 390
f 391 520 459
f 391 459 331
f 342 470 520
f 342 520 391
f 393 522 470
f 393 470 342
f 344 472 522
f 344 522 393
f 401 530 421
f 401 421 294
f 332 460 529
f 332 529 400
f 306 37 98
f 306 98 350
f 644 577 555
f 644 555 616
f 573 617 654
f 573 654 585
f 566 627 677
f 566 677 626
f 626 677 620
f 626 620 561
f 677 625 553
f 677 553 620
f 627 565 625
f 627 625 677
f 560 622 678
f 560 678 619
f 619 678 627
f 619 627 566
f 678 612 565
f 678 565 627
f 622 551 612
f 622 612 678
f 567 630 679
f 567 679 634
f 634 679 628
f 634 628 575
f 679 623 562
f 679 562 628
f 630 547 623
f 630 623 679
f 587 645 680
f 587 680 653
f 653 680 633
f 653 633 591
f 680 634 575
f 680 575 633
f 645 567 634
f 645 634 680
f 589 652 681
f 589 681 647
f 647 681 636
f 647 636 574
f 681 632 570
f 681 570 636
f 652 590 632
f 652 632 681
f 591 633 682
f 591 682 651
f 651 682 632
f 651 632 590
f 682 637 570
f 682 570 632
f 633 575 637
f 633 637 682
f 617 557 593
f 617 593 654
f 566 626 641
f 566 641 584
f 560 619 642
f 560 642 583
f 626 561 582
f 626 582 641
f 561 618 650
f 561 650 582
f 619 566 584
f 619 584 642
f 589 647 643
f 589 643 592
f 618 589 592
f 618 592 650
f 556 578 675
f 556 675 670
f 647 574 586
f 647 586 643
f 565 649 683
f 565 683 625
f 625 683 648
f 625 648 553
f 683 651 590
f 683 590 648
f 649 591 651
f 649 651 683
f 561 620 684
f 561 684 618
f 618 684 652
f 618 652 589
f 684 648 590
f 684 590 652
f 620 553 648
f 620 648 684
f 551 613 685
f 551 685 612
f 612 685 649
f 612 649 565
f 685 653 591
f 685 591 649
f 613 587 653
f 613 653 685
f 569 655 686
f 569 686 635
f 635 686 617
f 635 617 573
f 686 639 557
f 686 557 617
f 655 579 639
f 655 639 686
f 588 667 687
f 588 687 646
f 646 687 668
f 646 668 568
f 687 666 607
f 687 607 668
f 667 611 666
f 667 666 687
f 554 669 688
f 554 688 615
f 615 688 671
f 615 671 559
f 688 659 604
f 688 604 671
f 669 600 659
f 669 659 688
f 568 668 689
f 568 689 631
f 631 689 673
f 631 673 549
f 689 664 597
f 689 597 673
f 668 607 664
f 668 664 689
f 675 609 603
f 675 603 670
f 559 671 690
f 559 690 621
f 621 690 676
f 621 676 552
f 690 661 598
f 690 598 676
f 671 604 661
f 671 661 690
f 552 676 691
f 552 691 614
f 614 691 667
f 614 667 588
f 691 658 611
f 691 611 667
f 676 598 658
f 676 658 691
f 762 791 729
f 762 729 705
f 791 762 701
f 791 701 724
f 801 763 720
f 801 720 732
f 711 772 824
f 711 824 773
f 772 706 766
f 772 766 824
f 824 766 698
f 824 698 771
f 773 824 771
f 773 771 710
f 705 765 825
f 705 825 768
f 765 711 773
f 765 773 825
f 825 773 710
f 825 710 758
f 768 825 758
f 768 758 697
f 713 781 826
f 713 826 777
f 781 721 774
f 781 774 826
f 826 774 707
f 826 707 769
f 777 826 769
f 777 769 693
f 734 800 827
f 734 827 793
f 800 737 780
f 800 780 827
f 827 780 721
f 827 721 781
f 793 827 781
f 793 781 713
f 735 794 828
f 735 828 799
f 794 719 782
f 794 782 828
f 828 782 714
f 828 714 778
f 799 828 778
f 799 778 736
f 737 798 829
f 737 829 780
f 798 736 779
f 798 779 829
f 829 779 715
f 829 715 784
f 780 829 784
f 780 784 721
f 763 801 739
f 763 739 702
f 772 711 730
f 772 730 788
f 765 705 729
f 765 729 789
f 706 772 788
f 706 788 728
f 764 706 728
f 764 728 797
f 711 765 789
f 711 789 730
f 794 735 738
f 794 738 790
f 735 764 797
f 735 797 738
f 816 822 723
f 816 723 699
f 719 794 790
f 719 790 731
f 710 771 830
f 710 830 796
f 771 698 795
f 771 795 830
f 830 795 736
f 830 736 798
f 796 830 798
f 796 798 737
f 706 764 831
f 706 831 766
f 764 735 799
f 764 799 831
f 831 799 736
f 831 736 795
f 766 831 795
f 766 795 698
f 697 758 832
f 697 832 760
f 758 710 796
f 758 796 832
f 832 796 737
f 832 737 800
f 760 832 800
f 760 800 734
f 717 783 833
f 717 833 803
f 783 720 763
f 783 763 833
f 833 763 702
f 833 702 786
f 803 833 786
f 803 786 726
f 733 792 834
f 733 834 814
f 792 712 815
f 792 815 834
f 834 815 752
f 834 752 812
f 814 834 812
f 814 812 756
f 700 761 835
f 700 835 817
f 761 704 818
f 761 818 835
f 835 818 751
f 835 751 807
f 817 835 807
f 817 807 749
f 712 776 836
f 712 836 815
f 776 692 819
f 776 819 836
f 836 819 741
f 836 741 810
f 815 836 810
f 815 810 752
f 822 816 746
f 822 746 754
f 704 767 837
f 704 837 818
f 767 696 823
f 767 823 837
f 837 823 744
f 837 744 809
f 818 837 809
f 818 809 751
f 696 759 838
f 696 838 823
f 759 733 814
f 759 814 838
f 838 814 756
f 838 756 804
f 823 838 804
f 823 804 744
f 558 703 740
f 558 740 594
f 550 695 770
f 550 770 624
f 624 770 708
f 624 708 563
f 629 775 722
f 629 722 576
f 564 709 775
f 564 775 629
f 608 755 748
f 608 748 602
f 638 785 718
f 638 718 572
f 576 722 785
f 576 785 638
f 640 787 703
f 640 703 558
f 581 727 787
f 581 787 640
f 656 802 725
f 656 725 580
f 571 716 802
f 571 802 656
f 657 805 757
f 657 757 610
f 599 745 805
f 599 805 657
f 660 806 750
f 660 750 605
f 601 747 806
f 601 806 660
f 662 808 745
f 662 745 599
f 605 750 808
f 605 808 662
f 663 811 742
f 663 742 595
f 606 753 811
f 606 811 663
f 665 813 753
f 665 753 606
f 610 757 813
f 610 813 665
f 674 821 694
f 674 694 548
f 596 743 820
f 596 820 672
f 560 583 644
f 560 644 616
f 644 896 847
f 644 847 577
f 865 585 654
f 865 654 897
f 858 906 950
f 858 950 907
f 906 853 900
f 906 900 950
f 950 900 845
f 950 845 905
f 907 950 905
f 907 905 857
f 852 899 951
f 852 951 902
f 899 858 907
f 899 907 951
f 951 907 857
f 951 857 892
f 902 951 892
f 902 892 843
f 859 914 952
f 859 952 910
f 914 867 908
f 914 908 952
f 952 908 854
f 952 854 903
f 910 952 903
f 910 903 839
f 872 928 953
f 872 953 921
f 928 876 913
f 928 913 953
f 953 913 867
f 953 867 914
f 921 953 914
f 921 914 859
f 874 923 954
f 874 954 927
f 923 866 916
f 923 916 954
f 954 916 862
f 954 862 912
f 927 954 912
f 927 912 875
f 876 926 955
f 876 955 913
f 926 875 912
f 926 912 955
f 955 912 862
f 955 862 917
f 913 955 917
f 913 917 867
f 897 654 593
f 897 593 849
f 858 584 641
f 858 641 906
f 852 583 642
f 852 642 899
f 906 641 582
f 906 582 853
f 853 582 650
f 853 650 898
f 899 642 584
f 899 584 858
f 874 592 643
f 874 643 923
f 898 650 592
f 898 592 874
f 848 944 675
f 848 675 578
f 923 643 586
f 923 586 866
f 857 905 956
f 857 956 925
f 905 845 924
f 905 924 956
f 956 924 875
f 956 875 926
f 925 956 926
f 925 926 876
f 853 898 957
f 853 957 900
f 898 874 927
f 898 927 957
f 957 927 875
f 957 875 924
f 900 957 924
f 900 924 845
f 843 892 958
f 843 958 893
f 892 857 925
f 892 925 958
f 958 925 876
f 958 876 928
f 893 958 928
f 893 928 872
f 861 915 959
f 861 959 929
f 915 865 897
f 915 897 959
f 959 897 849
f 959 849 919
f 929 959 919
f 929 919 869
f 873 922 960
f 873 960 941
f 922 860 942
f 922 942 960
f 960 942 889
f 960 889 940
f 941 960 940
f 941 940 891
f 846 895 961
f 846 961 943
f 895 851 945
f 895 945 961
f 961 945 886
f 961 886 933
f 943 961 933
f 943 933 882
f 860 911 962
f 860 962 942
f 911 841 948
f 911 948 962
f 962 948 879
f 962 879 938
f 942 962 938
f 942 938 889
f 675 944 885
f 675 885 609
f 851 901 963
f 851 963 945
f 901 844 949
f 901 949 963
f 963 949 881
f 963 881 935
f 945 963 935
f 945 935 886
f 844 894 964
f 844 964 949
f 894 873 941
f 894 941 964
f 964 941 891
f 964 891 932
f 949 964 932
f 949 932 881
f 1023 978 729
f 1023 729 791
f 791 724 974
f 791 974 1023
f 801 732 993
f 801 993 1024
f 984 1034 1078
f 984 1078 1033
f 1033 1078 1027
f 1033 1027 979
f 1078 1032 971
f 1078 971 1027
f 1034 983 1032
f 1034 1032 1078
f 978 1029 1079
f 978 1079 1026
f 1026 1079 1034
f 1026 1034 984
f 1079 1019 983
f 1079 983 1034
f 1029 970 1019
f 1029 1019 1079
f 986 1038 1080
f 986 1080 1042
f 1042 1080 1035
f 1042 1035 994
f 1080 1030 980
f 1080 980 1035
f 1038 966 1030
f 1038 1030 1080
f 1000 1050 1081
f 1000 1081 1056
f 1056 1081 1041
f 1056 1041 1003
f 1081 1042 994
f 1081 994 1041
f 1050 986 1042
f 1050 1042 1081
f 1001 1055 1082
f 1001 1082 1051
f 1051 1082 1043
f 1051 1043 992
f 1082 1039 987
f 1082 987 1043
f 1055 1002 1039
f 1055 1039 1082
f 1003 1041 1083
f 1003 1083 1054
f 1054 1083 1040
f 1054 1040 1002
f 1083 1045 988
f 1083 988 1040
f 1041 994 1045
f 1041 1045 1083
f 1024 975 739
f 1024 739 801
f 1033 788 730
f 1033 730 984
f 1026 789 729
f 1026 729 978
f 979 728 788
f 979 788 1033
f 1025 797 728
f 1025 728 979
f 984 730 789
f 984 789 1026
f 1051 790 738
f 1051 738 1001
f 1001 738 797
f 1001 797 1025
f 1071 972 723
f 1071 723 822
f 992 731 790
f 992 790 1051
f 983 1053 1084
f 983 1084 1032
f 1032 1084 1052
f 1032 1052 971
f 1084 1054 1002
f 1084 1002 1052
f 1053 1003 1054
f 1053 1054 1084
f 979 1027 1085
f 979 1085 1025
f 1025 1085 1055
f 1025 1055 1001
f 1085 1052 1002
f 1085 1002 1055
f 1027 971 1052
f 1027 1052 1085
f 970 1021 1086
f 970 1086 1019
f 1019 1086 1053
f 1019 1053 983
f 1086 1056 1003
f 1086 1003 1053
f 1021 1000 1056
f 1021 1056 1086
f 990 1058 1087
f 990 1087 1044
f 1044 1087 1024
f 1044 1024 993
f 1087 1047 975
f 1087 975 1024
f 1058 997 1047
f 1058 1047 1087
f 999 1069 1088
f 999 1088 1049
f 1049 1088 1070
f 1049 1070 985
f 1088 1067 1015
f 1088 1015 1070
f 1069 1017 1067
f 1069 1067 1088
f 973 1072 1089
f 973 1089 1022
f 1022 1089 1073
f 1022 1073 977
f 1089 1062 1014
f 1089 1014 1073
f 1072 1012 1062
f 1072 1062 1089
f 985 1070 1090
f 985 1090 1037
f 1037 1090 1074
f 1037 1074 965
f 1090 1065 1004
f 1090 1004 1074
f 1070 1015 1065
f 1070 1065 1090
f 822 754 1009
f 822 1009 1071
f 977 1073 1091
f 977 1091 1028
f 1028 1091 1077
f 1028 1077 969
f 1091 1064 1007
f 1091 1007 1077
f 1073 1014 1064
f 1073 1064 1091
f 969 1077 1092
f 969 1092 1020
f 1020 1092 1069
f 1020 1069 999
f 1092 1059 1017
f 1092 1017 1069
f 1077 1007 1059
f 1077 1059 1092
f 850 594 740
f 850 740 976
f 842 904 1031
f 842 1031 968
f 904 855 981
f 904 981 1031
f 909 868 995
f 909 995 1036
f 856 909 1036
f 856 1036 982
f 608 884 1011
f 608 1011 755
f 918 864 991
f 918 991 1046
f 868 918 1046
f 868 1046 995
f 920 850 976
f 920 976 1048
f 871 920 1048
f 871 1048 998
f 930 870 996
f 930 996 1057
f 863 930 1057
f 863 1057 989
f 931 890 1018
f 931 1018 1060
f 880 931 1060
f 880 1060 1008
f 934 887 1013
f 934 1013 1061
f 883 934 1061
f 883 1061 1010
f 936 880 1008
f 936 1008 1063
f 887 936 1063
f 887 1063 1013
f 937 877 1005
f 937 1005 1066
f 888 937 1066
f 888 1066 1016
f 939 888 1016
f 939 1016 1068
f 890 939 1068
f 890 1068 1018
f 947 840 967
f 947 967 1076
f 878 946 1075
f 878 1075 1006
f 852 896 644
f 852 644 583
