# Evaluated render-only extract from Quaternius's CC0 Modular Character Outfits - Fantasy
o Male_Ranger_Body_Belt_2
v -0.0116347 -0.1203262 1.1652857
v -0.0116347 -0.1203262 1.1652857
v -0.0116347 -0.1203262 1.1652857
v -0.0116347 -0.1203262 1.1652857
v -0.0116347 -0.1203262 1.1392075
v -0.0116347 -0.1203262 1.1392075
v -0.0116347 -0.1203262 1.1392075
v -0.0116347 -0.1203262 1.1392075
v 0.0211013 -0.1078513 1.1364501
v 0.0211013 -0.1078513 1.1364501
v 0.0211013 -0.1078513 1.1364501
v 0.0211013 -0.1078513 1.1364501
v 0.0211013 -0.1078513 1.1680433
v 0.0211013 -0.1078513 1.1680433
v 0.0211013 -0.1078513 1.1680433
v 0.0211013 -0.1078513 1.1680433
v -0.0116347 -0.1203262 1.1522466
v -0.0116347 -0.1203262 1.1522466
v -0.0229748 -0.1166914 1.1253091
v -0.0229748 -0.1166914 1.1253091
v -0.0229748 -0.1166914 1.1253091
v -0.0229748 -0.1166914 1.1253091
v 0.0271253 -0.0977313 1.1280482
v 0.0271253 -0.0977313 1.1280482
v 0.0271253 -0.0977313 1.1280482
v 0.0271253 -0.0977313 1.1280482
v 0.0271253 -0.0977314 1.1764450
v 0.0271253 -0.0977314 1.1764450
v 0.0271253 -0.0977314 1.1764450
v 0.0271253 -0.0977314 1.1764450
v -0.0229748 -0.1166914 1.1791837
v -0.0229748 -0.1166914 1.1791837
v -0.0229748 -0.1166914 1.1791837
v -0.0229748 -0.1166914 1.1791837
v -0.0142679 -0.1133872 1.1392075
v -0.0142679 -0.1133872 1.1392075
v -0.0142679 -0.1133872 1.1392075
v -0.0142679 -0.1133872 1.1392075
v 0.0183491 -0.1009534 1.1364501
v 0.0183491 -0.1009534 1.1364501
v 0.0183491 -0.1009534 1.1364501
v 0.0183491 -0.1009534 1.1364501
v 0.0183491 -0.1009534 1.1680433
v 0.0183491 -0.1009534 1.1680433
v 0.0183491 -0.1009534 1.1680433
v 0.0183491 -0.1009534 1.1680433
v -0.0142679 -0.1133872 1.1652857
v -0.0142679 -0.1133872 1.1652857
v -0.0142679 -0.1133872 1.1652857
v -0.0142679 -0.1133872 1.1652857
v -0.0368143 -0.1214721 1.1522466
v -0.0368143 -0.1214721 1.1522466
v -0.0368143 -0.1214721 1.1522466
v -0.0368143 -0.1214721 1.1522466
v -0.0142679 -0.1133872 1.1522466
v -0.0142679 -0.1133872 1.1522466
v 0.0211013 -0.1078513 1.1660482
v 0.0211013 -0.1078513 1.1660482
v 0.0211013 -0.1078513 1.1384449
v 0.0211013 -0.1078513 1.1384449
v 0.0271253 -0.0977314 1.1667918
v 0.0271253 -0.0977314 1.1667918
v 0.0271253 -0.0977313 1.1377013
v 0.0271253 -0.0977313 1.1377013
v 0.0183491 -0.1009534 1.1384449
v 0.0183491 -0.1009534 1.1384449
v 0.0183491 -0.1009534 1.1660482
v 0.0183491 -0.1009534 1.1660482
v -0.0174793 -0.1298266 1.1253091
v -0.0174793 -0.1298266 1.1253091
v -0.0174793 -0.1298266 1.1253091
v -0.0174793 -0.1298266 1.1253091
v -0.0152315 -0.1306885 1.1293011
v -0.0152315 -0.1306885 1.1293011
v -0.0152315 -0.1306885 1.1293011
v -0.0152315 -0.1306885 1.1293011
v 0.0284673 -0.1059213 1.1316193
v 0.0284673 -0.1059213 1.1316193
v 0.0284673 -0.1059213 1.1316193
v 0.0284673 -0.1059213 1.1316193
v 0.0292151 -0.1033832 1.1280482
v 0.0292151 -0.1033832 1.1280482
v 0.0292151 -0.1033832 1.1280482
v 0.0292151 -0.1033832 1.1280482
v -0.0152314 -0.1306885 1.1751920
v -0.0152314 -0.1306885 1.1751920
v -0.0152314 -0.1306885 1.1751920
v -0.0152314 -0.1306885 1.1751920
v -0.0174793 -0.1298266 1.1791837
v -0.0174793 -0.1298266 1.1791837
v -0.0174793 -0.1298266 1.1791837
v -0.0174793 -0.1298266 1.1791837
v 0.0292151 -0.1033832 1.1764450
v 0.0292151 -0.1033832 1.1764450
v 0.0292151 -0.1033832 1.1764450
v 0.0292151 -0.1033832 1.1764450
v 0.0284673 -0.1059213 1.1728737
v 0.0284673 -0.1059213 1.1728737
v 0.0284673 -0.1059213 1.1728737
v 0.0284673 -0.1059213 1.1728737
v -0.0181353 -0.1339480 1.1522466
v -0.0181353 -0.1339480 1.1522466
v -0.0181353 -0.1339480 1.1522466
v -0.0304247 -0.1366679 1.1522466
v -0.0304247 -0.1366679 1.1522466
v -0.0304247 -0.1366679 1.1522466
v -0.0304247 -0.1366679 1.1522466
v 0.0292151 -0.1033832 1.1377013
v 0.0292151 -0.1033832 1.1377013
v 0.0284722 -0.1059186 1.1392537
v 0.0284722 -0.1059186 1.1392537
v 0.0284722 -0.1059186 1.1652395
v 0.0284722 -0.1059186 1.1652395
v 0.0292151 -0.1033832 1.1667918
v 0.0292151 -0.1033832 1.1667918
v 0.1227926 -0.0727725 1.1322297
v 0.1227926 -0.0727725 1.1322297
v 0.1227926 -0.0727725 1.1692628
v 0.1227926 -0.0727725 1.1692628
v 0.1275616 -0.0801438 1.1692628
v 0.1275616 -0.0801438 1.1692628
v 0.1275616 -0.0801438 1.1322297
v 0.1275616 -0.0801438 1.1322297
v 0.1166974 -0.0766715 1.1322297
v 0.1166974 -0.0766715 1.1322297
v 0.1166974 -0.0766715 1.1692628
v 0.1166974 -0.0766715 1.1692628
v 0.1214248 -0.0840691 1.1692628
v 0.1214248 -0.0840691 1.1692628
v 0.1214248 -0.0840691 1.1322297
v 0.1214248 -0.0840691 1.1322297
v 0.1336203 -0.0657586 1.1365570
v 0.1336203 -0.0657586 1.1365570
v 0.1383893 -0.0731300 1.1365570
v 0.1383893 -0.0731300 1.1365570
v 0.1383893 -0.0731299 1.1649354
v 0.1383893 -0.0731299 1.1649354
v 0.1336203 -0.0657586 1.1649354
v 0.1336203 -0.0657586 1.1649354
v 0.1427717 -0.0598306 1.1475737
v 0.1427717 -0.0598306 1.1475737
v 0.1475407 -0.0672019 1.1475737
v 0.1475407 -0.0672019 1.1475737
v 0.1475407 -0.0672019 1.1539187
v 0.1475407 -0.0672019 1.1539187
v 0.1427717 -0.0598306 1.1539187
v 0.1427717 -0.0598306 1.1539187
v 0.1329755 -0.0766369 1.1334809
v 0.1329755 -0.0766369 1.1334809
v 0.1329755 -0.0766369 1.1680114
v 0.1329755 -0.0766369 1.1680114
v 0.1282065 -0.0692655 1.1334809
v 0.1282065 -0.0692655 1.1334809
v 0.1282065 -0.0692655 1.1680114
v 0.1282065 -0.0692655 1.1680114
v 0.1383893 -0.0731299 1.1507462
v 0.1336203 -0.0657586 1.1507462
v 0.1483646 -0.0666683 1.1507462
v 0.1483646 -0.0666683 1.1507462
v 0.1435956 -0.0592969 1.1507462
v 0.1435956 -0.0592969 1.1507462
v 0.1435956 -0.0592969 1.1507462
v 0.1282065 -0.0692655 1.1507462
v 0.1329755 -0.0766369 1.1507462
v 0.1275616 -0.0801438 1.1642020
v 0.1275616 -0.0801438 1.1372905
v 0.1329585 -0.0766479 1.1507462
v 0.1227926 -0.0727725 1.1372905
v 0.1227926 -0.0727725 1.1642020
v 0.1281895 -0.0692765 1.1507462
v 0.1214248 -0.0840691 1.1372905
v 0.1214248 -0.0840691 1.1372905
v 0.1214248 -0.0840691 1.1372905
v 0.1214248 -0.0840691 1.1642020
v 0.1214248 -0.0840691 1.1642020
v 0.1214248 -0.0840691 1.1642020
v 0.1166974 -0.0766715 1.1642020
v 0.1166974 -0.0766715 1.1642020
v 0.1166974 -0.0766715 1.1642020
v 0.1166974 -0.0766715 1.1372905
v 0.1166974 -0.0766715 1.1372905
v 0.1166974 -0.0766715 1.1372905
v 0.1180128 -0.0862466 1.1692628
v 0.1180128 -0.0862466 1.1692628
v 0.1180128 -0.0862466 1.1692628
v 0.1132854 -0.0788490 1.1692628
v 0.1132854 -0.0788490 1.1692628
v 0.1132854 -0.0788490 1.1692628
v 0.1132854 -0.0788490 1.1322297
v 0.1132854 -0.0788490 1.1322297
v 0.1132854 -0.0788490 1.1322297
v 0.1180128 -0.0862466 1.1322297
v 0.1180128 -0.0862466 1.1322297
v 0.1180128 -0.0862466 1.1322297
v 0.1158413 -0.0772178 1.1405346
v 0.1158413 -0.0772178 1.1405346
v 0.1158413 -0.0772178 1.1609578
v 0.1158413 -0.0772178 1.1609578
v 0.1221626 -0.0731751 1.1507462
v 0.1151405 -0.0776651 1.1441900
v 0.1151405 -0.0776651 1.1441900
v 0.1147720 -0.0779002 1.1484871
v 0.1147720 -0.0779002 1.1484871
v 0.1147720 -0.0779003 1.1530054
v 0.1147720 -0.0779003 1.1530054
v 0.1151405 -0.0776651 1.1573025
v 0.1151405 -0.0776651 1.1573025
v 0.1205687 -0.0846154 1.1609578
v 0.1205687 -0.0846154 1.1609578
v 0.1205687 -0.0846154 1.1405346
v 0.1205687 -0.0846154 1.1405346
v 0.1198679 -0.0850627 1.1573025
v 0.1198679 -0.0850627 1.1573025
v 0.1194994 -0.0852978 1.1530054
v 0.1194994 -0.0852978 1.1530054
v 0.1194994 -0.0852978 1.1484871
v 0.1194994 -0.0852978 1.1484871
v 0.1198679 -0.0850627 1.1441900
v 0.1198679 -0.0850627 1.1441900
v 0.1261473 -0.0781945 1.1310048
v 0.1261473 -0.0781945 1.1310048
v 0.1261473 -0.0781945 1.1704876
v 0.1261473 -0.0781945 1.1704876
v 0.1196166 -0.0823717 1.1704876
v 0.1196166 -0.0823717 1.1704876
v 0.1196167 -0.0823717 1.1310048
v 0.1196167 -0.0823717 1.1310048
v 0.1376912 -0.0707166 1.1356184
v 0.1376912 -0.0707166 1.1356184
v 0.1376912 -0.0707166 1.1658739
v 0.1376912 -0.0707166 1.1658739
v 0.1474479 -0.0643965 1.1473639
v 0.1474479 -0.0643965 1.1473639
v 0.1474479 -0.0643965 1.1541287
v 0.1474479 -0.0643965 1.1541287
v 0.1319192 -0.0744555 1.1691536
v 0.1319192 -0.0744555 1.1691536
v 0.1319192 -0.0744556 1.1323389
v 0.1319192 -0.0744556 1.1323389
v 0.1483263 -0.0638275 1.1507462
v 0.1483263 -0.0638275 1.1507462
v 0.1483263 -0.0638275 1.1507462
v 0.1183731 -0.0831940 1.1649728
v 0.1183731 -0.0831940 1.1649728
v 0.1183731 -0.0831940 1.1649728
v 0.1183731 -0.0831940 1.1649728
v 0.1183731 -0.0831940 1.1362810
v 0.1183731 -0.0831940 1.1362810
v 0.1183731 -0.0831940 1.1362810
v 0.1183731 -0.0831940 1.1362810
v 0.1147354 -0.0855155 1.1703684
v 0.1147354 -0.0855155 1.1703684
v 0.1147354 -0.0855155 1.1703684
v 0.1147354 -0.0855155 1.1703684
v 0.1147354 -0.0855155 1.1308856
v 0.1147354 -0.0855155 1.1308856
v 0.1147354 -0.0855155 1.1308856
v 0.1147354 -0.0855155 1.1308856
v 0.1174603 -0.0837765 1.1397399
v 0.1174603 -0.0837765 1.1397399
v 0.1167131 -0.0842533 1.1436371
v 0.1167131 -0.0842533 1.1436371
v 0.1163203 -0.0845040 1.1482184
v 0.1163203 -0.0845040 1.1482184
v 0.1163203 -0.0845040 1.1530355
v 0.1163203 -0.0845040 1.1530355
v 0.1167131 -0.0842533 1.1576170
v 0.1167131 -0.0842533 1.1576170
v 0.1174603 -0.0837765 1.1615140
v 0.1174603 -0.0837765 1.1615140
v 0.1407983 -0.0611089 1.1439507
v 0.1407983 -0.0611089 1.1439507
v 0.1371403 -0.0634784 1.1394160
v 0.1371403 -0.0634784 1.1394160
v 0.1455673 -0.0684803 1.1439508
v 0.1455673 -0.0684803 1.1439508
v 0.1419073 -0.0708511 1.1394144
v 0.1419073 -0.0708511 1.1394144
v 0.1419073 -0.0708511 1.1620781
v 0.1419073 -0.0708511 1.1620781
v 0.1455673 -0.0684802 1.1575416
v 0.1455673 -0.0684802 1.1575416
v 0.1371403 -0.0634784 1.1620766
v 0.1371403 -0.0634784 1.1620766
v 0.1407983 -0.0611089 1.1575418
v 0.1407983 -0.0611089 1.1575418
v 0.1455991 -0.0684596 1.1507462
v 0.1418988 -0.0708566 1.1507462
v 0.1408301 -0.0610883 1.1507462
v 0.1371317 -0.0634840 1.1507462
v 0.1415900 -0.0681911 1.1387850
v 0.1415900 -0.0681911 1.1387850
v 0.1452335 -0.0658309 1.1432984
v 0.1452335 -0.0658309 1.1432984
v 0.1452335 -0.0658309 1.1581942
v 0.1452335 -0.0658309 1.1581942
v 0.1415900 -0.0681911 1.1627074
v 0.1415900 -0.0681911 1.1627074
v 0.0660570 -0.1101481 1.1696614
v 0.0660570 -0.1101481 1.1696614
v 0.0660570 -0.1101481 1.1696614
v 0.0679913 -0.1112217 1.1712644
v 0.0679913 -0.1112217 1.1712644
v 0.0679913 -0.1112217 1.1712644
v 0.0679913 -0.1112217 1.1712644
v 0.0660570 -0.1101481 1.1319878
v 0.0660570 -0.1101481 1.1319878
v 0.0660570 -0.1101481 1.1319878
v 0.0679913 -0.1112217 1.1303847
v 0.0679913 -0.1112217 1.1303847
v 0.0679913 -0.1112217 1.1303847
v 0.0679913 -0.1112217 1.1303847
v 0.0800223 -0.1057876 1.1696614
v 0.0800223 -0.1057876 1.1696614
v 0.0800223 -0.1057876 1.1696614
v 0.0789841 -0.1077909 1.1712644
v 0.0789841 -0.1077909 1.1712644
v 0.0789841 -0.1077909 1.1712644
v 0.0789841 -0.1077909 1.1712644
v 0.0800223 -0.1057876 1.1319878
v 0.0800223 -0.1057876 1.1319878
v 0.0800223 -0.1057876 1.1319878
v 0.0789840 -0.1077909 1.1303847
v 0.0789840 -0.1077909 1.1303847
v 0.0789840 -0.1077909 1.1303847
v 0.0789840 -0.1077909 1.1303847
v 0.0631330 -0.0988954 1.1696614
v 0.0631330 -0.0988954 1.1696614
v 0.0631330 -0.0988954 1.1696614
v 0.0642599 -0.0968624 1.1712644
v 0.0642599 -0.0968624 1.1712644
v 0.0642599 -0.0968624 1.1712644
v 0.0642599 -0.0968624 1.1712644
v 0.0764490 -0.0947073 1.1696614
v 0.0764490 -0.0947073 1.1696614
v 0.0764490 -0.0947073 1.1696614
v 0.0744279 -0.0936628 1.1712644
v 0.0744279 -0.0936628 1.1712644
v 0.0744279 -0.0936628 1.1712644
v 0.0744279 -0.0936628 1.1712644
v 0.0631330 -0.0988954 1.1319878
v 0.0631330 -0.0988954 1.1319878
v 0.0631330 -0.0988954 1.1319878
v 0.0642599 -0.0968624 1.1303847
v 0.0642599 -0.0968624 1.1303847
v 0.0642599 -0.0968624 1.1303847
v 0.0642599 -0.0968624 1.1303847
v 0.0764490 -0.0947073 1.1319878
v 0.0764490 -0.0947073 1.1319878
v 0.0764490 -0.0947073 1.1319878
v 0.0744279 -0.0936628 1.1303847
v 0.0744279 -0.0936628 1.1303847
v 0.0744279 -0.0936628 1.1303847
v 0.0744279 -0.0936628 1.1303847
v 0.0764490 -0.0947073 1.1615224
v 0.0764490 -0.0947073 1.1615224
v 0.0764490 -0.0947073 1.1401268
v 0.0764490 -0.0947073 1.1401268
v 0.0764490 -0.0947073 1.1508245
v 0.0764490 -0.0947073 1.1508245
v 0.0744279 -0.0936628 1.1401263
v 0.0744279 -0.0936628 1.1401263
v 0.0744279 -0.0936628 1.1615227
v 0.0744279 -0.0936628 1.1615227
v 0.0744279 -0.0936628 1.1508245
v 0.0744279 -0.0936628 1.1508245
v 0.0642599 -0.0968624 1.1615227
v 0.0642599 -0.0968624 1.1615227
v 0.0642599 -0.0968624 1.1401263
v 0.0642599 -0.0968624 1.1401263
v 0.0642599 -0.0968624 1.1508245
v 0.0642599 -0.0968624 1.1508245
v 0.0631330 -0.0988954 1.1401268
v 0.0631330 -0.0988954 1.1401268
v 0.0631330 -0.0988954 1.1615224
v 0.0631330 -0.0988954 1.1615224
v 0.0631330 -0.0988954 1.1508245
v 0.0631330 -0.0988954 1.1508245
v 0.0801850 -0.1063231 1.1401277
v 0.0801850 -0.1063231 1.1401277
v 0.0801850 -0.1063231 1.1615214
v 0.0801850 -0.1063231 1.1615214
v 0.0802736 -0.1066146 1.1508245
v 0.0802736 -0.1066146 1.1508245
v 0.0791635 -0.1083815 1.1615225
v 0.0791635 -0.1083815 1.1615225
v 0.0791635 -0.1083815 1.1401267
v 0.0791635 -0.1083815 1.1401267
v 0.0792452 -0.1086502 1.1508245
v 0.0792452 -0.1086502 1.1508245
v 0.0681707 -0.1118124 1.1401267
v 0.0681707 -0.1118124 1.1401267
v 0.0681707 -0.1118124 1.1615225
v 0.0681707 -0.1118124 1.1615225
v 0.0682524 -0.1120810 1.1508245
v 0.0682524 -0.1120810 1.1508245
v 0.0662197 -0.1106836 1.1615214
v 0.0662197 -0.1106836 1.1615214
v 0.0662197 -0.1106836 1.1401277
v 0.0662197 -0.1106836 1.1401277
v 0.0663083 -0.1109751 1.1508245
v 0.0663083 -0.1109751 1.1508245
v -0.0142705 -0.1117357 1.1358080
v -0.0142705 -0.1117357 1.1358080
v -0.0142705 -0.1117357 1.1687243
v -0.0142705 -0.1117357 1.1687243
v -0.0140304 -0.1181853 1.1687243
v -0.0140304 -0.1181853 1.1687243
v -0.0140304 -0.1181853 1.1358080
v -0.0140304 -0.1181853 1.1358080
v 0.0063407 -0.1110719 1.1358080
v 0.0063407 -0.1110719 1.1358080
v 0.0063407 -0.1110719 1.1687243
v 0.0063407 -0.1110719 1.1687243
v 0.0065641 -0.1175222 1.1687243
v 0.0065641 -0.1175222 1.1687243
v 0.0065641 -0.1175222 1.1358080
v 0.0065641 -0.1175222 1.1358080
v 0.0229572 -0.1104571 1.1358080
v 0.0229572 -0.1104571 1.1358080
v 0.0229572 -0.1104570 1.1687243
v 0.0229572 -0.1104570 1.1687243
v 0.0233238 -0.1169008 1.1687243
v 0.0233238 -0.1169008 1.1687243
v 0.0233238 -0.1169008 1.1358080
v 0.0233238 -0.1169008 1.1358080
v 0.0368371 -0.1093947 1.1358080
v 0.0368371 -0.1093947 1.1358080
v 0.0368371 -0.1093947 1.1687243
v 0.0368371 -0.1093947 1.1687243
v 0.0375939 -0.1158043 1.1687243
v 0.0375939 -0.1158043 1.1687243
v 0.0375939 -0.1158043 1.1358080
v 0.0375939 -0.1158043 1.1358080
v 0.0493258 -0.1074021 1.1358080
v 0.0493258 -0.1074021 1.1358080
v 0.0493258 -0.1074021 1.1687243
v 0.0493258 -0.1074021 1.1687243
v 0.0506874 -0.1137110 1.1687243
v 0.0506874 -0.1137110 1.1687243
v 0.0506874 -0.1137110 1.1358080
v 0.0506874 -0.1137110 1.1358080
v 0.0620082 -0.1039313 1.1358080
v 0.0620082 -0.1039313 1.1358080
v 0.0620082 -0.1039313 1.1687243
v 0.0620082 -0.1039313 1.1687243
v 0.0638298 -0.1101230 1.1687243
v 0.0638298 -0.1101230 1.1687243
v 0.0638298 -0.1101230 1.1358080
v 0.0638298 -0.1101230 1.1358080
v 0.0780912 -0.0986925 1.1358080
v 0.0780912 -0.0986925 1.1358080
v 0.0780911 -0.0986925 1.1687243
v 0.0780911 -0.0986925 1.1687243
v 0.0801980 -0.1047820 1.1687243
v 0.0801980 -0.1047820 1.1687243
v 0.0801980 -0.1047820 1.1358080
v 0.0801980 -0.1047820 1.1358080
v 0.0919354 -0.0922342 1.1358080
v 0.0919354 -0.0922342 1.1358080
v 0.0919354 -0.0922342 1.1687243
v 0.0919354 -0.0922342 1.1687243
v 0.0949127 -0.0979606 1.1687243
v 0.0949127 -0.0979606 1.1687243
v 0.0949127 -0.0979606 1.1358080
v 0.0949127 -0.0979606 1.1358080
v 0.1037719 -0.0852691 1.1358080
v 0.1037719 -0.0852691 1.1358080
v 0.1037719 -0.0852691 1.1687243
v 0.1037719 -0.0852691 1.1687243
v 0.1071468 -0.0907705 1.1687243
v 0.1071468 -0.0907705 1.1687243
v 0.1071468 -0.0907705 1.1358080
v 0.1071468 -0.0907705 1.1358080
v 0.1179729 -0.0761849 1.1358080
v 0.1179729 -0.0761849 1.1358080
v 0.1179729 -0.0761849 1.1358080
v 0.1179729 -0.0761849 1.1687243
v 0.1179729 -0.0761849 1.1687243
v 0.1179729 -0.0761849 1.1687243
v 0.1214448 -0.0816252 1.1687243
v 0.1214448 -0.0816252 1.1687243
v 0.1214448 -0.0816252 1.1687243
v 0.1214448 -0.0816252 1.1358080
v 0.1214448 -0.0816252 1.1358080
v 0.1214448 -0.0816252 1.1358080
v 0.0049990 -0.1107990 1.1543268
v 0.0049990 -0.1107990 1.1543268
v 0.0049990 -0.1107990 1.1482853
v 0.0049990 -0.1107990 1.1482853
v 0.0096984 -0.1153239 1.1534647
v 0.0096984 -0.1153239 1.1534647
v 0.0106157 -0.1162071 1.1520444
v 0.0106157 -0.1162071 1.1520444
v 0.0106157 -0.1162071 1.1505675
v 0.0106157 -0.1162071 1.1505675
v 0.0096984 -0.1153239 1.1491473
v 0.0096984 -0.1153239 1.1491473
v -0.0091396 -0.1274267 1.1553200
v -0.0091396 -0.1274267 1.1553200
v -0.0091396 -0.1274267 1.1553200
v -0.0091396 -0.1274267 1.1553200
v -0.0095609 -0.1284797 1.1541357
v -0.0095609 -0.1284797 1.1541357
v -0.0095609 -0.1284797 1.1541357
v -0.0095609 -0.1284797 1.1541357
v -0.0072687 -0.1277061 1.1539166
v -0.0072687 -0.1277061 1.1539166
v -0.0072687 -0.1277061 1.1539166
v -0.0072687 -0.1277061 1.1539166
v -0.0091396 -0.1274267 1.1472919
v -0.0091396 -0.1274267 1.1472919
v -0.0091396 -0.1274267 1.1472919
v -0.0091396 -0.1274267 1.1472919
v -0.0072687 -0.1277061 1.1486955
v -0.0072687 -0.1277061 1.1486955
v -0.0072687 -0.1277061 1.1486955
v -0.0072687 -0.1277061 1.1486955
v -0.0095609 -0.1284797 1.1484764
v -0.0095609 -0.1284797 1.1484764
v -0.0095609 -0.1284797 1.1484764
v -0.0095609 -0.1284797 1.1484764
v -0.0117050 -0.1286508 1.1543241
v -0.0117050 -0.1286508 1.1543241
v -0.0117050 -0.1286508 1.1543241
v -0.0118506 -0.1276521 1.1556021
v -0.0118506 -0.1276521 1.1556021
v -0.0118506 -0.1276521 1.1556021
v -0.0118506 -0.1276521 1.1556021
v -0.0117050 -0.1286508 1.1482879
v -0.0117050 -0.1286508 1.1482879
v -0.0117050 -0.1286508 1.1482879
v -0.0118506 -0.1276521 1.1470098
v -0.0118506 -0.1276521 1.1470098
v -0.0118506 -0.1276521 1.1470098
v -0.0118506 -0.1276521 1.1470098
v 0.0003516 -0.1141054 1.1357886
v 0.0003516 -0.1141054 1.1357886
v 0.0003516 -0.1141054 1.1687049
v 0.0003516 -0.1141054 1.1687049
v 0.0002745 -0.1046533 1.1687049
v 0.0002745 -0.1046533 1.1687049
v 0.0002745 -0.1046533 1.1357886
v 0.0002745 -0.1046533 1.1357886
v -0.0191774 -0.1134168 1.1357886
v -0.0191774 -0.1134168 1.1357886
v -0.0191774 -0.1134168 1.1687049
v -0.0191774 -0.1134168 1.1687049
v -0.0183625 -0.1039996 1.1687049
v -0.0183625 -0.1039996 1.1687049
v -0.0183625 -0.1039996 1.1357886
v -0.0183625 -0.1039996 1.1357886
v -0.0383533 -0.1107639 1.1357886
v -0.0383533 -0.1107639 1.1357886
v -0.0383533 -0.1107639 1.1687049
v -0.0383533 -0.1107639 1.1687049
v -0.0365905 -0.1014774 1.1687049
v -0.0365905 -0.1014774 1.1687049
v -0.0365905 -0.1014773 1.1357886
v -0.0365905 -0.1014773 1.1357886
v -0.0568898 -0.1062727 1.1357886
v -0.0568898 -0.1062727 1.1357886
v -0.0568898 -0.1062727 1.1687049
v -0.0568898 -0.1062727 1.1687049
v -0.0542063 -0.0972092 1.1687049
v -0.0542063 -0.0972092 1.1687049
v -0.0542063 -0.0972092 1.1357886
v -0.0542063 -0.0972092 1.1357886
v -0.0745479 -0.1000660 1.1357886
v -0.0745479 -0.1000660 1.1357886
v -0.0745479 -0.1000660 1.1687049
v -0.0745479 -0.1000660 1.1687049
v -0.0709595 -0.0913212 1.1687049
v -0.0709595 -0.0913212 1.1687049
v -0.0709595 -0.0913212 1.1357886
v -0.0709595 -0.0913212 1.1357886
v -0.0910886 -0.0922622 1.1357886
v -0.0910886 -0.0922622 1.1357886
v -0.0910886 -0.0922622 1.1687049
v -0.0910886 -0.0922622 1.1687049
v -0.0865995 -0.0839438 1.1687049
v -0.0865995 -0.0839438 1.1687049
v -0.0865995 -0.0839438 1.1357886
v -0.0865995 -0.0839438 1.1357886
v -0.1062712 -0.0829747 1.1357886
v -0.1062712 -0.0829747 1.1357886
v -0.1062712 -0.0829747 1.1687049
v -0.1062712 -0.0829747 1.1687049
v -0.1008776 -0.0752121 1.1687049
v -0.1008776 -0.0752121 1.1687049
v -0.1008776 -0.0752121 1.1357886
v -0.1008776 -0.0752121 1.1357886
v -0.1198511 -0.0723116 1.1357886
v -0.1198511 -0.0723116 1.1357886
v -0.1198511 -0.0723116 1.1687049
v -0.1198511 -0.0723116 1.1687049
v -0.1135488 -0.0652669 1.1687049
v -0.1135488 -0.0652669 1.1687049
v -0.1135488 -0.0652669 1.1357886
v -0.1135488 -0.0652669 1.1357886
v -0.1315764 -0.0603766 1.1357886
v -0.1315764 -0.0603766 1.1357886
v -0.1315764 -0.0603766 1.1687049
v -0.1315764 -0.0603766 1.1687049
v -0.1243756 -0.0542531 1.1687049
v -0.1243756 -0.0542531 1.1687049
v -0.1243756 -0.0542531 1.1357886
v -0.1243756 -0.0542531 1.1357886
v -0.1411825 -0.0472724 1.1357886
v -0.1411825 -0.0472724 1.1357886
v -0.1411825 -0.0472724 1.1687049
v -0.1411825 -0.0472724 1.1687049
v -0.1331331 -0.0423171 1.1687049
v -0.1331331 -0.0423171 1.1687049
v -0.1331331 -0.0423171 1.1357886
v -0.1331331 -0.0423171 1.1357886
v -0.1483883 -0.0331095 1.1357886
v -0.1483883 -0.0331095 1.1357886
v -0.1483883 -0.0331095 1.1687049
v -0.1483883 -0.0331095 1.1687049
v -0.1396140 -0.0295944 1.1687044
v -0.1396140 -0.0295944 1.1687044
v -0.1396140 -0.0295944 1.1357882
v -0.1396140 -0.0295944 1.1357882
v -0.1529147 -0.0179870 1.1357824
v -0.1529147 -0.0179870 1.1357824
v -0.1529147 -0.0179870 1.1686987
v -0.1529147 -0.0179870 1.1686987
v -0.1436945 -0.0160558 1.1686778
v -0.1436945 -0.0160558 1.1686778
v -0.1436945 -0.0160558 1.1357616
v -0.1436945 -0.0160558 1.1357616
v -0.1545789 -0.0018746 1.1357288
v -0.1545789 -0.0018746 1.1357288
v -0.1545789 -0.0018746 1.1686451
v -0.1545789 -0.0018746 1.1686451
v -0.1452315 -0.0016420 1.1686064
v -0.1452315 -0.0016420 1.1686064
v -0.1452315 -0.0016420 1.1356901
v -0.1452315 -0.0016420 1.1356901
v -0.1534036 0.0146701 1.1356196
v -0.1534036 0.0146701 1.1356196
v -0.1534036 0.0146701 1.1685359
v -0.1534036 0.0146701 1.1685359
v -0.1442278 0.0132671 1.1684889
v -0.1442278 0.0132671 1.1684889
v -0.1442278 0.0132671 1.1355726
v -0.1442278 0.0132671 1.1355726
v -0.1496700 0.0310271 1.1354642
v -0.1496700 0.0310271 1.1354642
v -0.1496700 0.0310271 1.1683804
v -0.1496700 0.0310271 1.1683804
v -0.1408946 0.0281263 1.1683327
v -0.1408946 0.0281263 1.1683327
v -0.1408946 0.0281263 1.1354164
v -0.1408946 0.0281263 1.1354164
v -0.1435312 0.0469370 1.1352751
v -0.1435312 0.0469370 1.1352751
v -0.1435312 0.0469370 1.1681914
v -0.1435312 0.0469370 1.1681914
v -0.1353298 0.0426852 1.1681489
v -0.1353298 0.0426852 1.1681489
v -0.1353298 0.0426852 1.1352326
v -0.1353298 0.0426852 1.1352326
v -0.1351201 0.0620983 1.1350724
v -0.1351201 0.0620983 1.1350724
v -0.1351201 0.0620983 1.1679887
v -0.1351201 0.0620983 1.1679887
v -0.1276173 0.0566659 1.1679544
v -0.1276173 0.0566659 1.1679544
v -0.1276173 0.0566659 1.1350381
v -0.1276173 0.0566659 1.1350381
v -0.1245471 0.0761874 1.1348811
v -0.1245471 0.0761874 1.1348811
v -0.1245471 0.0761874 1.1677974
v -0.1245471 0.0761874 1.1677974
v -0.1178297 0.0697420 1.1677730
v -0.1178297 0.0697420 1.1677730
v -0.1178297 0.0697420 1.1348567
v -0.1178297 0.0697420 1.1348567
v -0.1119144 0.0888831 1.1347266
v -0.1119144 0.0888831 1.1347266
v -0.1119144 0.0888831 1.1676430
v -0.1119144 0.0888831 1.1676430
v -0.1060275 0.0815438 1.1676357
v -0.1060275 0.0815438 1.1676357
v -0.1060275 0.0815438 1.1347194
v -0.1060275 0.0815438 1.1347194
v -0.0972381 0.0996966 1.1346642
v -0.0972381 0.0996966 1.1346642
v -0.0972381 0.0996966 1.1675804
v -0.0972381 0.0996966 1.1675804
v -0.0922579 0.0916625 1.1675804
v -0.0922579 0.0916625 1.1675804
v -0.0922579 0.0916625 1.1346642
v -0.0922579 0.0916625 1.1346642
v -0.0805804 0.1082404 1.1347303
v -0.0805804 0.1082404 1.1347303
v -0.0805804 0.1082404 1.1676466
v -0.0805804 0.1082404 1.1676466
v -0.0765869 0.0997225 1.1676395
v -0.0765869 0.0997225 1.1676395
v -0.0765869 0.0997225 1.1347232
v -0.0765869 0.0997225 1.1347232
v -0.0621417 0.1144988 1.1348560
v -0.0621417 0.1144988 1.1348560
v -0.0621417 0.1144988 1.1677723
v -0.0621417 0.1144988 1.1677723
v -0.0591883 0.1057112 1.1677163
v -0.0591883 0.1057112 1.1677163
v -0.0591883 0.1057112 1.1348000
v -0.0591883 0.1057112 1.1348000
v -0.0421746 0.1187996 1.1348000
v -0.0421746 0.1187996 1.1348000
v -0.0421746 0.1187996 1.1677163
v -0.0421746 0.1187996 1.1677163
v -0.0402682 0.1098007 1.1676279
v -0.0402682 0.1098007 1.1676279
v -0.0402682 0.1098007 1.1347116
v -0.0402682 0.1098007 1.1347116
v -0.0209484 0.1211114 1.1345652
v -0.0209484 0.1211114 1.1345652
v -0.0209484 0.1211114 1.1674815
v -0.0209484 0.1211114 1.1674815
v -0.0201060 0.1119727 1.1673863
v -0.0201060 0.1119727 1.1673863
v -0.0201060 0.1119727 1.1344700
v -0.0201060 0.1119727 1.1344700
v 0.0011349 0.1214380 1.1341922
v 0.0011349 0.1214380 1.1341922
v 0.0011349 0.1214380 1.1671084
v 0.0011349 0.1214380 1.1671084
v 0.0010605 0.1122150 1.1670262
v 0.0010605 0.1122150 1.1670262
v 0.0010605 0.1122150 1.1341100
v 0.0010605 0.1122150 1.1341100
v 0.0217665 0.1204943 1.1337820
v 0.0217665 0.1204943 1.1337820
v 0.0217665 0.1204944 1.1666985
v 0.0217665 0.1204944 1.1666985
v 0.0210272 0.1111945 1.1666471
v 0.0210272 0.1111945 1.1666471
v 0.0210272 0.1111945 1.1337309
v 0.0210272 0.1111945 1.1337309
v 0.0410186 0.1187848 1.1334168
v 0.0410186 0.1187848 1.1334168
v 0.0410186 0.1187848 1.1663331
v 0.0410186 0.1187848 1.1663331
v 0.0396377 0.1094488 1.1663212
v 0.0396377 0.1094488 1.1663212
v 0.0396377 0.1094488 1.1334049
v 0.0396377 0.1094488 1.1334049
v 0.0590639 0.1155582 1.1332747
v 0.0590639 0.1155582 1.1332747
v 0.0590639 0.1155582 1.1661910
v 0.0590639 0.1155582 1.1661910
v 0.0568651 0.1063650 1.1661910
v 0.0568651 0.1063650 1.1661910
v 0.0568651 0.1063650 1.1332747
v 0.0568651 0.1063650 1.1332747
v 0.0758276 0.1105122 1.1334047
v 0.0758276 0.1105122 1.1334047
v 0.0758276 0.1105122 1.1663210
v 0.0758276 0.1105122 1.1663210
v 0.0726654 0.1016225 1.1663071
v 0.0726654 0.1016225 1.1663071
v 0.0726654 0.1016225 1.1333908
v 0.0726654 0.1016225 1.1333908
v 0.0911908 0.1035952 1.1337237
v 0.0911908 0.1035952 1.1337237
v 0.0911908 0.1035951 1.1666399
v 0.0911908 0.1035951 1.1666399
v 0.0869278 0.0952263 1.1665894
v 0.0869278 0.0952263 1.1665894
v 0.0869278 0.0952263 1.1336731
v 0.0869278 0.0952263 1.1336731
v 0.1050212 0.0947848 1.1341232
v 0.1050212 0.0947848 1.1341232
v 0.1050212 0.0947848 1.1670395
v 0.1050212 0.0947848 1.1670395
v 0.0995604 0.0871812 1.1669586
v 0.0995604 0.0871812 1.1669586
v 0.0995604 0.0871812 1.1340423
v 0.0995604 0.0871812 1.1340423
v 0.1171492 0.0840056 1.1345491
v 0.1171492 0.0840056 1.1345491
v 0.1171492 0.0840056 1.1674653
v 0.1171492 0.0840056 1.1674653
v 0.1104906 0.0774492 1.1673599
v 0.1104906 0.0774492 1.1673599
v 0.1104906 0.0774492 1.1344436
v 0.1104906 0.0774492 1.1344436
v 0.1273850 0.0711944 1.1349633
v 0.1273850 0.0711944 1.1349633
v 0.1273850 0.0711944 1.1678796
v 0.1273850 0.0711944 1.1678796
v 0.1196585 0.0659380 1.1677573
v 0.1196585 0.0659380 1.1677573
v 0.1196585 0.0659380 1.1348410
v 0.1196585 0.0659380 1.1348410
v 0.1355461 0.0563225 1.1353302
v 0.1355461 0.0563225 1.1353302
v 0.1355461 0.0563225 1.1682464
v 0.1355461 0.0563225 1.1682464
v 0.1269938 0.0525049 1.1681246
v 0.1269938 0.0525049 1.1681246
v 0.1269938 0.0525049 1.1352082
v 0.1269938 0.0525049 1.1352082
v 0.1414833 0.0393798 1.1356158
v 0.1414833 0.0393798 1.1356158
v 0.1414833 0.0393798 1.1685321
v 0.1414833 0.0393798 1.1685321
v 0.1323925 0.0369873 1.1684352
v 0.1323925 0.0369873 1.1684352
v 0.1323925 0.0369873 1.1355189
v 0.1323925 0.0369873 1.1355189
v 0.1450875 0.0203595 1.1357752
v 0.1450875 0.0203595 1.1357752
v 0.1450875 0.0203595 1.1686915
v 0.1450875 0.0203595 1.1686915
v 0.1357163 0.0192497 1.1686492
v 0.1357163 0.0192497 1.1686492
v 0.1357163 0.0192496 1.1357329
v 0.1357163 0.0192496 1.1357329
v 0.1462637 -0.0008505 1.1357886
v 0.1462637 -0.0008505 1.1357886
v 0.1462637 -0.0008505 1.1687049
v 0.1462637 -0.0008505 1.1687049
v 0.1368119 -0.0007428 1.1687049
v 0.1368119 -0.0007428 1.1687049
v 0.1368119 -0.0007428 1.1357886
v 0.1368119 -0.0007428 1.1357886
v 0.1447784 -0.0197048 1.1357886
v 0.1447784 -0.0197048 1.1357886
v 0.1447784 -0.0197048 1.1687049
v 0.1447784 -0.0197048 1.1687049
v 0.1354456 -0.0182059 1.1687049
v 0.1354456 -0.0182059 1.1687049
v 0.1354456 -0.0182059 1.1357886
v 0.1354456 -0.0182059 1.1357886
v 0.1405930 -0.0367896 1.1357886
v 0.1405930 -0.0367896 1.1357886
v 0.1405930 -0.0367896 1.1687049
v 0.1405930 -0.0367896 1.1687049
v 0.1316393 -0.0337600 1.1687049
v 0.1316393 -0.0337600 1.1687049
v 0.1316393 -0.0337600 1.1357886
v 0.1316393 -0.0337600 1.1357886
v 0.1339057 -0.0520742 1.1357886
v 0.1339057 -0.0520742 1.1357886
v 0.1339057 -0.0520742 1.1687049
v 0.1339057 -0.0520742 1.1687049
v 0.1256087 -0.0475457 1.1687049
v 0.1256087 -0.0475457 1.1687049
v 0.1256087 -0.0475457 1.1357886
v 0.1256087 -0.0475457 1.1357886
v 0.1249443 -0.0655531 1.1357886
v 0.1249443 -0.0655531 1.1357886
v 0.1249443 -0.0655531 1.1687049
v 0.1249443 -0.0655531 1.1687049
v 0.1175394 -0.0596782 1.1687049
v 0.1175394 -0.0596782 1.1687049
v 0.1175394 -0.0596782 1.1357886
v 0.1175394 -0.0596782 1.1357886
v 0.1139606 -0.0772398 1.1357886
v 0.1139606 -0.0772398 1.1357886
v 0.1139606 -0.0772398 1.1687049
v 0.1139606 -0.0772398 1.1687049
v 0.1075936 -0.0702535 1.1687049
v 0.1075936 -0.0702535 1.1687049
v 0.1075935 -0.0702535 1.1357886
v 0.1075935 -0.0702535 1.1357886
v 0.1012111 -0.0871769 1.1357886
v 0.1012111 -0.0871769 1.1357886
v 0.1012111 -0.0871769 1.1687049
v 0.1012111 -0.0871769 1.1687049
v 0.0959282 -0.0793387 1.1687049
v 0.0959282 -0.0793387 1.1687049
v 0.0959282 -0.0793386 1.1357886
v 0.0959282 -0.0793386 1.1357886
v 0.0869412 -0.0954307 1.1357886
v 0.0869412 -0.0954307 1.1357886
v 0.0869412 -0.0954307 1.1687049
v 0.0869412 -0.0954307 1.1687049
v 0.0827118 -0.0869773 1.1687049
v 0.0827118 -0.0869773 1.1687049
v 0.0827118 -0.0869773 1.1357886
v 0.0827118 -0.0869773 1.1357886
v 0.0713792 -0.1020781 1.1357886
v 0.0713792 -0.1020781 1.1357886
v 0.0713792 -0.1020781 1.1687049
v 0.0713792 -0.1020781 1.1687049
v 0.0681294 -0.0932019 1.1687049
v 0.0681294 -0.0932019 1.1687049
v 0.0681293 -0.0932019 1.1357886
v 0.0681293 -0.0932019 1.1357886
v 0.0547400 -0.1071973 1.1357886
v 0.0547400 -0.1071973 1.1357886
v 0.0547400 -0.1071973 1.1687049
v 0.0547400 -0.1071973 1.1687049
v 0.0523801 -0.0980442 1.1687049
v 0.0523801 -0.0980442 1.1687049
v 0.0523801 -0.0980442 1.1357886
v 0.0523801 -0.0980442 1.1357886
v 0.0372292 -0.1108626 1.1357886
v 0.0372292 -0.1108626 1.1357886
v 0.0372292 -0.1108626 1.1687049
v 0.0372292 -0.1108626 1.1687049
v 0.0356718 -0.1015394 1.1687049
v 0.0356718 -0.1015394 1.1687049
v 0.0356718 -0.1015394 1.1357886
v 0.0356718 -0.1015394 1.1357886
v 0.0190484 -0.1131434 1.1357886
v 0.0190484 -0.1131434 1.1357886
v 0.0190484 -0.1131434 1.1357886
v 0.0190484 -0.1131434 1.1357886
v 0.0190484 -0.1131435 1.1687049
v 0.0190484 -0.1131435 1.1687049
v 0.0190484 -0.1131435 1.1687049
v 0.0190484 -0.1131435 1.1687049
v 0.0182166 -0.1037277 1.1687049
v 0.0182166 -0.1037277 1.1687049
v 0.0182166 -0.1037277 1.1687049
v 0.0182166 -0.1037277 1.1687049
v 0.0182166 -0.1037277 1.1357886
v 0.0182166 -0.1037277 1.1357886
v 0.0182166 -0.1037277 1.1357886
v 0.0182166 -0.1037277 1.1357886
usemtl MI_Ranger.001
f 16 46 68
f 16 68 58
f 88 103 17
f 88 17 3
f 107 54 22
f 107 22 72
f 77 110 59
f 77 59 10
f 92 34 53
f 92 53 106
f 26 41 65
f 26 65 64
f 30 45 50
f 30 50 33
f 21 38 40
f 21 40 25
f 52 56 37
f 52 37 20
f 32 49 56
f 32 56 51
f 8 36 55
f 8 55 18
f 1 47 43
f 1 43 13
f 112 97 14
f 112 14 57
f 18 55 48
f 18 48 4
f 75 78 11
f 75 11 6
f 83 24 63
f 83 63 108
f 98 87 2
f 98 2 15
f 9 39 35
f 9 35 5
f 103 76 7
f 103 7 17
f 62 67 44
f 62 44 29
f 60 66 42
f 60 42 12
f 114 61 28
f 114 28 95
f 93 27 31
f 93 31 89
f 60 58 68
f 60 68 66
f 62 64 65
f 62 65 67
f 114 108 63
f 114 63 61
f 57 59 110
f 57 110 112
f 73 70 82
f 73 82 79
f 99 94 90
f 99 90 85
f 86 91 104
f 86 104 101
f 111 109 115
f 111 115 113
f 113 115 96
f 113 96 100
f 109 111 80
f 109 80 84
f 102 105 71
f 102 71 74
f 69 19 23
f 69 23 81
f 226 220 122
f 226 122 130
f 153 117 168
f 168 170 163
f 168 163 153
f 225 223 118
f 225 118 126
f 151 121 165
f 165 167 164
f 165 164 151
f 164 149 134
f 164 134 156
f 138 230 297
f 138 297 283
f 238 152 132
f 238 132 228
f 163 155 139
f 163 139 157
f 237 150 137
f 237 137 231
f 281 287 158
f 281 158 144
f 135 229 292
f 135 292 278
f 136 156 288
f 136 288 279
f 231 137 280
f 231 280 298
f 241 161 146
f 241 146 234
f 276 294 233
f 276 233 143
f 285 295 234
f 285 234 146
f 272 289 162
f 272 162 141
f 222 120 150
f 222 150 237
f 180 168 117
f 180 117 125
f 221 116 152
f 221 152 238
f 174 165 121
f 174 121 129
f 127 119 169
f 127 169 177
f 228 132 273
f 228 273 291
f 289 286 147
f 289 147 162
f 232 140 160
f 232 160 240
f 296 282 145
f 296 145 235
f 153 163 157
f 153 157 133
f 293 271 140
f 293 140 232
f 151 164 156
f 151 156 136
f 164 167 166
f 166 123 149
f 166 149 164
f 163 170 169
f 169 119 155
f 169 155 163
f 165 174 208
f 165 208 167
f 260 196 182
f 260 182 250
f 131 123 166
f 131 166 171
f 170 168 180
f 180 195 199
f 180 199 170
f 225 126 186
f 225 186 252
f 127 177 187
f 249 181 191
f 249 191 258
f 169 170 199
f 199 197 177
f 199 177 169
f 174 129 184
f 180 125 190
f 226 130 192
f 226 192 255
f 167 210 171
f 167 171 166
f 131 171 193
f 244 176 185
f 244 185 253
f 195 200 199
f 200 202 199
f 202 204 199
f 204 206 199
f 206 197 199
f 208 212 167
f 212 214 167
f 214 216 167
f 216 218 167
f 218 210 167
f 259 211 219
f 259 219 261
f 261 219 217
f 261 217 263
f 263 217 215
f 263 215 265
f 265 215 213
f 265 213 267
f 267 213 209
f 267 209 269
f 246 179 198
f 246 198 270
f 175 243 269
f 175 269 209
f 207 268 270
f 207 270 198
f 205 266 268
f 205 268 207
f 203 264 266
f 203 266 205
f 201 262 264
f 201 264 203
f 196 260 262
f 196 262 201
f 178 245 254
f 178 254 188
f 124 227 256
f 124 256 189
f 173 248 257
f 173 257 194
f 128 224 251
f 128 251 183
f 211 259 247
f 211 247 172
f 143 233 242
f 143 242 159
f 122 220 239
f 122 239 148
f 118 223 236
f 118 236 154
f 156 134 277
f 156 277 288
f 159 242 235
f 159 235 145
f 287 275 142
f 287 142 158
f 157 139 284
f 157 284 290
f 154 236 230
f 154 230 138
f 148 239 229
f 148 229 135
f 128 120 222
f 128 222 224
f 124 116 221
f 124 221 227
f 294 276 278
f 294 278 292
f 288 277 275
f 288 275 287
f 290 284 286
f 290 286 289
f 298 280 282
f 298 282 296
f 279 288 287
f 279 287 281
f 274 290 289
f 274 289 272
f 271 293 291
f 271 291 273
f 283 297 295
f 283 295 285
f 133 157 290
f 133 290 274
f 309 344 351
f 309 351 323
f 319 386 381
f 319 381 314
f 331 340 364
f 331 364 367
f 322 350 358
f 322 358 380
f 352 361 357
f 352 357 348
f 310 324 387
f 310 387 391
f 393 385 317
f 393 317 303
f 342 373 370
f 342 370 347
f 382 356 336
f 382 336 315
f 313 335 339
f 313 339 318
f 327 300 305
f 327 305 332
f 325 353 349
f 325 349 320
f 346 312 307
f 346 307 341
f 302 316 337
f 302 337 330
f 308 400 374
f 308 374 343
f 388 326 321
f 388 321 379
f 399 306 311
f 399 311 392
f 299 397 394
f 299 394 304
f 369 362 354
f 369 354 345
f 375 328 333
f 375 333 368
f 398 301 329
f 398 329 376
f 399 392 396
f 399 396 401
f 401 396 394
f 401 394 397
f 388 379 383
f 388 383 390
f 390 383 381
f 390 381 386
f 363 355 359
f 363 359 365
f 365 359 357
f 365 357 361
f 375 368 372
f 375 372 377
f 377 372 370
f 377 370 373
f 385 393 395
f 385 395 389
f 389 395 391
f 389 391 387
f 356 382 384
f 356 384 360
f 360 384 380
f 360 380 358
f 362 369 371
f 362 371 366
f 366 371 367
f 366 367 364
f 398 376 378
f 398 378 402
f 402 378 374
f 402 374 400
f 363 338 334
f 363 334 355
f 403 411 417
f 403 417 409
f 406 414 412
f 406 412 404
f 407 415 413
f 407 413 405
f 411 419 425
f 411 425 417
f 414 422 420
f 414 420 412
f 415 423 421
f 415 421 413
f 419 427 433
f 419 433 425
f 422 430 428
f 422 428 420
f 423 431 429
f 423 429 421
f 427 435 441
f 427 441 433
f 430 438 436
f 430 436 428
f 431 439 437
f 431 437 429
f 435 443 449
f 435 449 441
f 438 446 444
f 438 444 436
f 439 447 445
f 439 445 437
f 443 451 457
f 443 457 449
f 446 454 452
f 446 452 444
f 447 455 453
f 447 453 445
f 454 462 460
f 454 460 452
f 455 463 461
f 455 461 453
f 459 467 473
f 459 473 465
f 462 470 468
f 462 468 460
f 463 471 469
f 463 469 461
f 483 486 476
f 483 476 479
f 451 459 465
f 451 465 457
f 471 481 478
f 471 478 469
f 470 480 477
f 470 477 468
f 467 475 484
f 467 484 473
f 482 472 474
f 482 474 485
f 472 464 466
f 472 466 474
f 464 456 458
f 464 458 466
f 456 448 450
f 456 450 458
f 448 440 442
f 448 442 450
f 440 432 434
f 440 434 442
f 432 424 426
f 432 426 434
f 424 416 418
f 424 418 426
f 416 408 410
f 416 410 418
f 510 518 496
f 510 496 494
f 488 490 535
f 488 535 528
f 534 489 497
f 534 497 512
f 523 530 519
f 523 519 503
f 501 505 507
f 513 515 521
f 532 525 529
f 532 529 536
f 499 526 524
f 499 524 504
f 533 511 520
f 533 520 531
f 516 508 506
f 516 506 522
f 492 502 509
f 492 509 493
f 514 498 495
f 514 495 517
f 487 527 500
f 487 500 491
f 537 545 551
f 537 551 543
f 541 549 547
f 541 547 539
f 544 552 550
f 544 550 542
f 545 553 559
f 545 559 551
f 549 557 555
f 549 555 547
f 552 560 558
f 552 558 550
f 553 561 567
f 553 567 559
f 557 565 563
f 557 563 555
f 560 568 566
f 560 566 558
f 561 569 575
f 561 575 567
f 565 573 571
f 565 571 563
f 568 576 574
f 568 574 566
f 569 577 583
f 569 583 575
f 573 581 579
f 573 579 571
f 576 584 582
f 576 582 574
f 577 585 591
f 577 591 583
f 581 589 587
f 581 587 579
f 584 592 590
f 584 590 582
f 585 593 599
f 585 599 591
f 589 597 595
f 589 595 587
f 592 600 598
f 592 598 590
f 593 601 607
f 593 607 599
f 597 605 603
f 597 603 595
f 600 608 606
f 600 606 598
f 601 609 615
f 601 615 607
f 605 613 611
f 605 611 603
f 608 616 614
f 608 614 606
f 609 617 624
f 609 624 615
f 613 621 619
f 613 619 611
f 616 623 622
f 616 622 614
f 617 625 632
f 617 632 624
f 621 629 627
f 621 627 619
f 623 631 630
f 623 630 622
f 625 633 640
f 625 640 632
f 629 637 635
f 629 635 627
f 631 639 638
f 631 638 630
f 633 641 648
f 633 648 640
f 637 645 643
f 637 643 635
f 639 647 646
f 639 646 638
f 641 649 656
f 641 656 648
f 645 653 651
f 645 651 643
f 647 655 654
f 647 654 646
f 649 657 664
f 649 664 656
f 653 661 659
f 653 659 651
f 655 663 662
f 655 662 654
f 657 665 672
f 657 672 664
f 661 669 667
f 661 667 659
f 663 671 670
f 663 670 662
f 665 673 680
f 665 680 672
f 669 677 675
f 669 675 667
f 671 679 678
f 671 678 670
f 673 681 688
f 673 688 680
f 677 685 683
f 677 683 675
f 679 687 686
f 679 686 678
f 681 689 695
f 681 695 688
f 685 693 691
f 685 691 683
f 687 696 694
f 687 694 686
f 689 697 703
f 689 703 695
f 693 702 699
f 693 699 691
f 696 704 701
f 696 701 694
f 697 705 712
f 697 712 703
f 702 709 707
f 702 707 699
f 704 711 710
f 704 710 701
f 705 713 720
f 705 720 712
f 709 717 715
f 709 715 707
f 711 719 718
f 711 718 710
f 713 721 728
f 713 728 720
f 717 725 723
f 717 723 715
f 719 727 726
f 719 726 718
f 721 730 735
f 721 735 728
f 725 733 732
f 725 732 723
f 727 736 734
f 727 734 726
f 730 738 743
f 730 743 735
f 733 741 739
f 733 739 732
f 736 744 742
f 736 742 734
f 738 746 751
f 738 751 743
f 741 749 747
f 741 747 739
f 744 752 750
f 744 750 742
f 746 754 759
f 746 759 751
f 749 757 755
f 749 755 747
f 752 760 758
f 752 758 750
f 754 761 767
f 754 767 759
f 757 765 764
f 757 764 755
f 760 768 766
f 760 766 758
f 761 769 775
f 761 775 767
f 765 773 772
f 765 772 764
f 768 776 774
f 768 774 766
f 769 777 783
f 769 783 775
f 773 781 780
f 773 780 772
f 776 784 782
f 776 782 774
f 777 785 791
f 777 791 783
f 781 789 788
f 781 788 780
f 784 792 790
f 784 790 782
f 785 793 799
f 785 799 791
f 789 797 796
f 789 796 788
f 792 800 798
f 792 798 790
f 793 801 807
f 793 807 799
f 797 805 804
f 797 804 796
f 800 808 806
f 800 806 798
f 801 809 815
f 801 815 807
f 805 813 812
f 805 812 804
f 808 816 814
f 808 814 806
f 809 817 823
f 809 823 815
f 813 821 820
f 813 820 812
f 816 824 822
f 816 822 814
f 817 825 831
f 817 831 823
f 821 829 828
f 821 828 820
f 824 832 830
f 824 830 822
f 825 833 839
f 825 839 831
f 829 837 835
f 829 835 828
f 832 840 838
f 832 838 830
f 833 841 847
f 833 847 839
f 837 845 843
f 837 843 835
f 840 848 846
f 840 846 838
f 841 849 855
f 841 855 847
f 845 853 851
f 845 851 843
f 848 856 854
f 848 854 846
f 849 857 863
f 849 863 855
f 853 861 859
f 853 859 851
f 856 864 862
f 856 862 854
f 857 865 871
f 857 871 863
f 861 869 867
f 861 867 859
f 864 872 870
f 864 870 862
f 865 873 879
f 865 879 871
f 869 877 875
f 869 875 867
f 872 880 878
f 872 878 870
f 873 881 887
f 873 887 879
f 877 885 883
f 877 883 875
f 880 888 886
f 880 886 878
f 881 889 895
f 881 895 887
f 885 893 891
f 885 891 883
f 888 896 894
f 888 894 886
f 889 897 903
f 889 903 895
f 893 901 899
f 893 899 891
f 896 904 902
f 896 902 894
f 897 905 911
f 897 911 903
f 901 909 907
f 901 907 899
f 904 912 910
f 904 910 902
f 905 914 926
f 905 926 911
f 909 921 917
f 909 917 907
f 912 928 924
f 912 924 910
f 913 537 543
f 913 543 925
f 922 541 539
f 922 539 918
f 927 544 542
f 927 542 923
f 540 538 915
f 540 915 919
f 892 890 882
f 892 882 884
f 860 858 850
f 860 850 852
f 908 906 898
f 908 898 900
f 850 842 844
f 850 844 852
f 868 866 858
f 868 858 860
f 882 874 876
f 882 876 884
f 874 866 868
f 874 868 876
f 916 906 908
f 916 908 920
f 898 890 892
f 898 892 900
f 842 834 836
f 842 836 844
f 834 826 827
f 834 827 836
f 826 818 819
f 826 819 827
f 818 810 811
f 818 811 819
f 810 802 803
f 810 803 811
f 802 794 795
f 802 795 803
f 794 786 787
f 794 787 795
f 786 778 779
f 786 779 787
f 778 770 771
f 778 771 779
f 770 762 763
f 770 763 771
f 762 753 756
f 762 756 763
f 753 745 748
f 753 748 756
f 745 737 740
f 745 740 748
f 737 729 731
f 737 731 740
f 729 722 724
f 729 724 731
f 722 714 716
f 722 716 724
f 714 706 708
f 714 708 716
f 706 698 700
f 706 700 708
f 698 690 692
f 698 692 700
f 690 682 684
f 690 684 692
f 682 674 676
f 682 676 684
f 674 666 668
f 674 668 676
f 666 658 660
f 666 660 668
f 658 650 652
f 658 652 660
f 650 642 644
f 650 644 652
f 642 634 636
f 642 636 644
f 634 626 628
f 634 628 636
f 626 618 620
f 626 620 628
f 618 610 612
f 618 612 620
f 610 602 604
f 610 604 612
f 602 594 596
f 602 596 604
f 594 586 588
f 594 588 596
f 586 578 580
f 586 580 588
f 578 570 572
f 578 572 580
f 570 562 564
f 570 564 572
f 562 554 556
f 562 556 564
f 554 546 548
f 554 548 556
f 546 538 540
f 546 540 548
