# Evaluated render-only extract from Quaternius's CC0 Modular Character Outfits - Fantasy
o Male_Ranger_Body_Belt_1
v -0.0099883 -0.1180496 1.2223301
v -0.0099883 -0.1180496 1.2223301
v -0.0099883 -0.1180496 1.2223301
v -0.0099883 -0.1180496 1.2223301
v -0.0099883 -0.1180496 1.1970876
v -0.0099883 -0.1180496 1.1970876
v -0.0099883 -0.1180496 1.1970876
v -0.0099883 -0.1180496 1.1970876
v 0.0216984 -0.1059745 1.1944185
v 0.0216984 -0.1059745 1.1944185
v 0.0216984 -0.1059745 1.1944185
v 0.0216984 -0.1059745 1.1944185
v 0.0216984 -0.1059745 1.2249992
v 0.0216984 -0.1059745 1.2249992
v 0.0216984 -0.1059745 1.2249992
v 0.0216984 -0.1059745 1.2249992
v -0.0099883 -0.1180496 1.2097088
v -0.0099883 -0.1180496 1.2097088
v -0.0209650 -0.1145313 1.1836349
v -0.0209650 -0.1145313 1.1836349
v -0.0209650 -0.1145313 1.1836349
v -0.0209650 -0.1145313 1.1836349
v 0.0275294 -0.0961789 1.1862860
v 0.0275294 -0.0961789 1.1862860
v 0.0275294 -0.0961789 1.1862860
v 0.0275294 -0.0961789 1.1862860
v 0.0275294 -0.0961789 1.2331316
v 0.0275294 -0.0961789 1.2331316
v 0.0275294 -0.0961789 1.2331316
v 0.0275294 -0.0961789 1.2331316
v -0.0209650 -0.1145313 1.2357826
v -0.0209650 -0.1145313 1.2357826
v -0.0209650 -0.1145313 1.2357826
v -0.0209650 -0.1145313 1.2357826
v -0.0125372 -0.1113330 1.1970876
v -0.0125372 -0.1113330 1.1970876
v -0.0125372 -0.1113330 1.1970876
v -0.0125372 -0.1113330 1.1970876
v 0.0190344 -0.0992977 1.1944185
v 0.0190344 -0.0992977 1.1944185
v 0.0190344 -0.0992977 1.1944185
v 0.0190344 -0.0992977 1.1944185
v 0.0190344 -0.0992977 1.2249992
v 0.0190344 -0.0992977 1.2249992
v 0.0190344 -0.0992977 1.2249992
v 0.0190344 -0.0992977 1.2249992
v -0.0125372 -0.1113330 1.2223301
v -0.0125372 -0.1113330 1.2223301
v -0.0125372 -0.1113330 1.2223301
v -0.0125372 -0.1113330 1.2223301
v -0.0343609 -0.1191588 1.2097088
v -0.0343609 -0.1191588 1.2097088
v -0.0343609 -0.1191588 1.2097088
v -0.0343609 -0.1191588 1.2097088
v -0.0125372 -0.1113330 1.2097088
v -0.0125372 -0.1113330 1.2097088
v 0.0216984 -0.1059745 1.2230681
v 0.0216984 -0.1059745 1.2230681
v 0.0216984 -0.1059745 1.1963495
v 0.0216984 -0.1059745 1.1963495
v 0.0275294 -0.0961789 1.2237879
v 0.0275294 -0.0961789 1.2237879
v 0.0275294 -0.0961789 1.1956297
v 0.0275294 -0.0961789 1.1956297
v 0.0190344 -0.0992977 1.1963495
v 0.0190344 -0.0992977 1.1963495
v 0.0190344 -0.0992977 1.2230681
v 0.0190344 -0.0992977 1.2230681
v -0.0156456 -0.1272455 1.1836349
v -0.0156456 -0.1272455 1.1836349
v -0.0156456 -0.1272455 1.1836349
v -0.0156456 -0.1272455 1.1836349
v -0.0134698 -0.1280798 1.1874988
v -0.0134698 -0.1280798 1.1874988
v -0.0134698 -0.1280798 1.1874988
v -0.0134698 -0.1280798 1.1874988
v 0.0288284 -0.1041064 1.1897427
v 0.0288284 -0.1041064 1.1897427
v 0.0288284 -0.1041064 1.1897427
v 0.0288284 -0.1041064 1.1897427
v 0.0295522 -0.1016496 1.1862860
v 0.0295522 -0.1016496 1.1862860
v 0.0295522 -0.1016496 1.1862860
v 0.0295522 -0.1016496 1.1862860
v -0.0134698 -0.1280798 1.2319188
v -0.0134698 -0.1280798 1.2319188
v -0.0134698 -0.1280798 1.2319188
v -0.0134698 -0.1280798 1.2319188
v -0.0156456 -0.1272455 1.2357826
v -0.0156456 -0.1272455 1.2357826
v -0.0156456 -0.1272455 1.2357826
v -0.0156456 -0.1272455 1.2357826
v 0.0295522 -0.1016496 1.2331316
v 0.0295522 -0.1016496 1.2331316
v 0.0295522 -0.1016496 1.2331316
v 0.0295522 -0.1016496 1.2331316
v 0.0288284 -0.1041064 1.2296749
v 0.0288284 -0.1041064 1.2296749
v 0.0288284 -0.1041064 1.2296749
v 0.0288284 -0.1041064 1.2296749
v -0.0162806 -0.1312349 1.2097088
v -0.0162806 -0.1312349 1.2097088
v -0.0162806 -0.1312349 1.2097088
v -0.0281761 -0.1338675 1.2097088
v -0.0281761 -0.1338675 1.2097088
v -0.0281761 -0.1338675 1.2097088
v -0.0281761 -0.1338675 1.2097088
v 0.0295522 -0.1016496 1.1956297
v 0.0295522 -0.1016496 1.1956297
v 0.0288331 -0.1041038 1.1971325
v 0.0288331 -0.1041038 1.1971325
v 0.0288331 -0.1041038 1.2222853
v 0.0288331 -0.1041038 1.2222853
v 0.0295522 -0.1016496 1.2237879
v 0.0295522 -0.1016496 1.2237879
v 0.1201306 -0.0720200 1.1903335
v 0.1201306 -0.0720200 1.1903335
v 0.1201305 -0.0720200 1.2261796
v 0.1201305 -0.0720200 1.2261796
v 0.1247467 -0.0791551 1.2261796
v 0.1247467 -0.0791551 1.2261796
v 0.1247467 -0.0791551 1.1903335
v 0.1247467 -0.0791551 1.1903335
v 0.1142307 -0.0757940 1.1903335
v 0.1142307 -0.0757940 1.1903335
v 0.1142307 -0.0757940 1.2261796
v 0.1142307 -0.0757940 1.2261796
v 0.1188066 -0.0829545 1.2261796
v 0.1188066 -0.0829545 1.2261796
v 0.1188066 -0.0829545 1.1903335
v 0.1188066 -0.0829545 1.1903335
v 0.1306112 -0.0652309 1.1945221
v 0.1306112 -0.0652309 1.1945221
v 0.1352274 -0.0723660 1.1945221
v 0.1352274 -0.0723660 1.1945221
v 0.1352274 -0.0723660 1.2219909
v 0.1352274 -0.0723660 1.2219909
v 0.1306112 -0.0652309 1.2219909
v 0.1306112 -0.0652309 1.2219909
v 0.1394693 -0.0594929 1.2051858
v 0.1394693 -0.0594929 1.2051858
v 0.1440854 -0.0666280 1.2051858
v 0.1440854 -0.0666280 1.2051858
v 0.1440854 -0.0666280 1.2113274
v 0.1440854 -0.0666280 1.2113274
v 0.1394693 -0.0594929 1.2113274
v 0.1394693 -0.0594929 1.2113274
v 0.1299870 -0.0757605 1.1915447
v 0.1299870 -0.0757605 1.1915447
v 0.1299870 -0.0757605 1.2249684
v 0.1299870 -0.0757605 1.2249684
v 0.1253709 -0.0686254 1.1915447
v 0.1253709 -0.0686254 1.1915447
v 0.1253709 -0.0686254 1.2249684
v 0.1253709 -0.0686254 1.2249684
v 0.1352274 -0.0723660 1.2082566
v 0.1306112 -0.0652309 1.2082566
v 0.1448829 -0.0661114 1.2082566
v 0.1448829 -0.0661114 1.2082566
v 0.1402667 -0.0589763 1.2082566
v 0.1402667 -0.0589763 1.2082566
v 0.1402667 -0.0589763 1.2082566
v 0.1253709 -0.0686254 1.2082566
v 0.1299870 -0.0757605 1.2082566
v 0.1247467 -0.0791551 1.2212811
v 0.1247467 -0.0791551 1.1952320
v 0.1299706 -0.0757712 1.2082566
v 0.1201306 -0.0720200 1.1952320
v 0.1201305 -0.0720200 1.2212811
v 0.1253544 -0.0686361 1.2082566
v 0.1188066 -0.0829545 1.1952320
v 0.1188066 -0.0829545 1.1952320
v 0.1188066 -0.0829545 1.1952320
v 0.1188066 -0.0829545 1.2212811
v 0.1188066 -0.0829545 1.2212811
v 0.1188066 -0.0829545 1.2212811
v 0.1142307 -0.0757940 1.2212811
v 0.1142307 -0.0757940 1.2212811
v 0.1142307 -0.0757940 1.2212811
v 0.1142307 -0.0757940 1.1952320
v 0.1142307 -0.0757940 1.1952320
v 0.1142307 -0.0757940 1.1952320
v 0.1155039 -0.0850622 1.2261796
v 0.1155039 -0.0850622 1.2261796
v 0.1155039 -0.0850622 1.2261796
v 0.1109280 -0.0779017 1.2261796
v 0.1109280 -0.0779017 1.2261796
v 0.1109280 -0.0779017 1.2261796
v 0.1109281 -0.0779017 1.1903335
v 0.1109281 -0.0779017 1.1903335
v 0.1109281 -0.0779017 1.1903335
v 0.1155039 -0.0850623 1.1903335
v 0.1155039 -0.0850623 1.1903335
v 0.1155039 -0.0850623 1.1903335
v 0.1134020 -0.0763229 1.1983722
v 0.1134020 -0.0763229 1.1983722
v 0.1134020 -0.0763229 1.2181408
v 0.1134020 -0.0763229 1.2181408
v 0.1195208 -0.0724097 1.2082566
v 0.1127236 -0.0767558 1.2019104
v 0.1127236 -0.0767558 1.2019104
v 0.1123670 -0.0769834 1.2060698
v 0.1123670 -0.0769834 1.2060698
v 0.1123670 -0.0769834 1.2104433
v 0.1123670 -0.0769834 1.2104433
v 0.1127236 -0.0767558 1.2146027
v 0.1127236 -0.0767558 1.2146027
v 0.1179779 -0.0834834 1.2181408
v 0.1179779 -0.0834834 1.2181408
v 0.1179779 -0.0834834 1.1983722
v 0.1179779 -0.0834834 1.1983722
v 0.1172995 -0.0839163 1.2146027
v 0.1172995 -0.0839163 1.2146027
v 0.1169429 -0.0841439 1.2104433
v 0.1169429 -0.0841439 1.2104433
v 0.1169429 -0.0841439 1.2060698
v 0.1169429 -0.0841439 1.2060698
v 0.1172995 -0.0839163 1.2019104
v 0.1172995 -0.0839163 1.2019104
v 0.1233777 -0.0772682 1.1891478
v 0.1233777 -0.0772682 1.1891478
v 0.1233777 -0.0772682 1.2273653
v 0.1233777 -0.0772682 1.2273653
v 0.1170564 -0.0813116 1.2273653
v 0.1170564 -0.0813116 1.2273653
v 0.1170564 -0.0813116 1.1891478
v 0.1170564 -0.0813116 1.1891478
v 0.1345516 -0.0700300 1.1936136
v 0.1345516 -0.0700300 1.1936136
v 0.1345516 -0.0700300 1.2228994
v 0.1345516 -0.0700300 1.2228994
v 0.1439957 -0.0639125 1.2049826
v 0.1439957 -0.0639125 1.2049826
v 0.1439956 -0.0639124 1.2115306
v 0.1439956 -0.0639124 1.2115306
v 0.1289646 -0.0736491 1.2260740
v 0.1289646 -0.0736491 1.2260740
v 0.1289646 -0.0736491 1.1904392
v 0.1289646 -0.0736491 1.1904392
v 0.1448459 -0.0633617 1.2082566
v 0.1448459 -0.0633617 1.2082566
v 0.1448459 -0.0633617 1.2082566
v 0.1158526 -0.0821075 1.2220272
v 0.1158526 -0.0821075 1.2220272
v 0.1158526 -0.0821075 1.2220272
v 0.1158526 -0.0821075 1.2220272
v 0.1158526 -0.0821075 1.1942550
v 0.1158526 -0.0821075 1.1942550
v 0.1158526 -0.0821075 1.1942550
v 0.1158526 -0.0821075 1.1942550
v 0.1123315 -0.0843546 1.2272499
v 0.1123315 -0.0843546 1.2272499
v 0.1123315 -0.0843546 1.2272499
v 0.1123315 -0.0843546 1.2272499
v 0.1123315 -0.0843546 1.1890324
v 0.1123315 -0.0843546 1.1890324
v 0.1123315 -0.0843546 1.1890324
v 0.1123315 -0.0843546 1.1890324
v 0.1149691 -0.0826713 1.1976030
v 0.1149691 -0.0826713 1.1976030
v 0.1142459 -0.0831329 1.2013752
v 0.1142459 -0.0831329 1.2013752
v 0.1138657 -0.0833755 1.2058097
v 0.1138657 -0.0833755 1.2058097
v 0.1138657 -0.0833755 1.2104725
v 0.1138657 -0.0833755 1.2104725
v 0.1142459 -0.0831329 1.2149071
v 0.1142459 -0.0831329 1.2149071
v 0.1149691 -0.0826713 1.2186793
v 0.1149691 -0.0826713 1.2186793
v 0.1375591 -0.0607302 1.2016789
v 0.1375591 -0.0607302 1.2016789
v 0.1340184 -0.0630238 1.1972895
v 0.1340184 -0.0630238 1.1972895
v 0.1421753 -0.0678653 1.2016790
v 0.1421753 -0.0678653 1.2016790
v 0.1386326 -0.0701602 1.1972879
v 0.1386326 -0.0701602 1.1972879
v 0.1386326 -0.0701602 1.2192253
v 0.1386326 -0.0701602 1.2192253
v 0.1421753 -0.0678653 1.2148342
v 0.1421753 -0.0678653 1.2148342
v 0.1340184 -0.0630238 1.2192237
v 0.1340184 -0.0630238 1.2192237
v 0.1375591 -0.0607302 1.2148343
v 0.1375591 -0.0607302 1.2148343
v 0.1422061 -0.0678454 1.2082566
v 0.1386244 -0.0701655 1.2082566
v 0.1375899 -0.0607103 1.2082566
v 0.1340100 -0.0630292 1.2082566
v 0.1383255 -0.0675854 1.1966788
v 0.1383255 -0.0675854 1.1966788
v 0.1418522 -0.0653009 1.2010474
v 0.1418522 -0.0653009 1.2010474
v 0.1418522 -0.0653009 1.2154658
v 0.1418522 -0.0653009 1.2154658
v 0.1383255 -0.0675854 1.2198344
v 0.1383255 -0.0675854 1.2198344
v 0.0652133 -0.1081977 1.2265655
v 0.0652133 -0.1081977 1.2265655
v 0.0652133 -0.1081977 1.2265655
v 0.0670856 -0.1092369 1.2281171
v 0.0670856 -0.1092369 1.2281171
v 0.0670856 -0.1092369 1.2281171
v 0.0670856 -0.1092369 1.2281171
v 0.0652133 -0.1081977 1.1900994
v 0.0652133 -0.1081977 1.1900994
v 0.0652133 -0.1081977 1.1900994
v 0.0670856 -0.1092369 1.1885476
v 0.0670856 -0.1092369 1.1885476
v 0.0670856 -0.1092369 1.1885476
v 0.0670856 -0.1092369 1.1885476
v 0.0787310 -0.1039770 1.2265655
v 0.0787310 -0.1039770 1.2265655
v 0.0787310 -0.1039770 1.2265655
v 0.0777260 -0.1059160 1.2281171
v 0.0777260 -0.1059160 1.2281171
v 0.0777260 -0.1059160 1.2281171
v 0.0777260 -0.1059160 1.2281171
v 0.0787310 -0.1039770 1.1900994
v 0.0787310 -0.1039770 1.1900994
v 0.0787310 -0.1039770 1.1900994
v 0.0777260 -0.1059160 1.1885476
v 0.0777260 -0.1059160 1.1885476
v 0.0777260 -0.1059160 1.1885476
v 0.0777260 -0.1059160 1.1885476
v 0.0623830 -0.0973057 1.2265655
v 0.0623830 -0.0973057 1.2265655
v 0.0623830 -0.0973057 1.2265655
v 0.0634738 -0.0953378 1.2281171
v 0.0634738 -0.0953378 1.2281171
v 0.0634738 -0.0953378 1.2281171
v 0.0634738 -0.0953378 1.2281171
v 0.0752723 -0.0932518 1.2265655
v 0.0752723 -0.0932518 1.2265655
v 0.0752723 -0.0932518 1.2265655
v 0.0733159 -0.0922408 1.2281171
v 0.0733159 -0.0922408 1.2281171
v 0.0733159 -0.0922408 1.2281171
v 0.0733159 -0.0922408 1.2281171
v 0.0623830 -0.0973057 1.1900994
v 0.0623830 -0.0973057 1.1900994
v 0.0623830 -0.0973057 1.1900994
v 0.0634738 -0.0953378 1.1885476
v 0.0634738 -0.0953378 1.1885476
v 0.0634738 -0.0953378 1.1885476
v 0.0634738 -0.0953378 1.1885476
v 0.0752723 -0.0932518 1.1900994
v 0.0752723 -0.0932518 1.1900994
v 0.0752723 -0.0932518 1.1900994
v 0.0733159 -0.0922408 1.1885476
v 0.0733159 -0.0922408 1.1885476
v 0.0733159 -0.0922408 1.1885476
v 0.0733159 -0.0922408 1.1885476
v 0.0752723 -0.0932518 1.2186873
v 0.0752723 -0.0932518 1.2186873
v 0.0752723 -0.0932518 1.1979775
v 0.0752723 -0.0932518 1.1979775
v 0.0752723 -0.0932518 1.2083324
v 0.0752723 -0.0932518 1.2083324
v 0.0733159 -0.0922408 1.1979771
v 0.0733159 -0.0922408 1.1979771
v 0.0733159 -0.0922408 1.2186877
v 0.0733159 -0.0922408 1.2186877
v 0.0733159 -0.0922408 1.2083324
v 0.0733159 -0.0922408 1.2083324
v 0.0634738 -0.0953378 1.2186877
v 0.0634738 -0.0953378 1.2186877
v 0.0634738 -0.0953378 1.1979771
v 0.0634738 -0.0953378 1.1979771
v 0.0634738 -0.0953378 1.2083324
v 0.0634738 -0.0953378 1.2083324
v 0.0623830 -0.0973057 1.1979775
v 0.0623830 -0.0973057 1.1979775
v 0.0623830 -0.0973057 1.2186873
v 0.0623830 -0.0973057 1.2186873
v 0.0623830 -0.0973057 1.2083324
v 0.0623830 -0.0973057 1.2083324
v 0.0788885 -0.1044953 1.1979784
v 0.0788885 -0.1044953 1.1979784
v 0.0788885 -0.1044953 1.2186865
v 0.0788885 -0.1044953 1.2186865
v 0.0789743 -0.1047775 1.2083324
v 0.0789743 -0.1047775 1.2083324
v 0.0778998 -0.1064877 1.2186874
v 0.0778998 -0.1064877 1.2186874
v 0.0778998 -0.1064878 1.1979774
v 0.0778998 -0.1064878 1.1979774
v 0.0779788 -0.1067478 1.2083324
v 0.0779788 -0.1067478 1.2083324
v 0.0672593 -0.1098087 1.1979774
v 0.0672593 -0.1098087 1.1979774
v 0.0672593 -0.1098087 1.2186874
v 0.0672593 -0.1098087 1.2186874
v 0.0673383 -0.1100687 1.2083324
v 0.0673383 -0.1100687 1.2083324
v 0.0653708 -0.1087160 1.2186865
v 0.0653708 -0.1087160 1.2186865
v 0.0653708 -0.1087160 1.1979784
v 0.0653708 -0.1087160 1.1979784
v 0.0654565 -0.1089982 1.2083324
v 0.0654565 -0.1089982 1.2083324
v -0.0125397 -0.1097344 1.1937971
v -0.0125397 -0.1097344 1.1937971
v -0.0125397 -0.1097344 1.2256584
v -0.0125397 -0.1097344 1.2256584
v -0.0123073 -0.1159774 1.2256584
v -0.0123073 -0.1159774 1.2256584
v -0.0123073 -0.1159774 1.1937971
v -0.0123073 -0.1159774 1.1937971
v 0.0074109 -0.1090919 1.1937971
v 0.0074109 -0.1090919 1.1937971
v 0.0074109 -0.1090919 1.2256584
v 0.0074109 -0.1090919 1.2256584
v 0.0076271 -0.1153355 1.2256584
v 0.0076271 -0.1153355 1.2256584
v 0.0076271 -0.1153355 1.1937971
v 0.0076271 -0.1153355 1.1937971
v 0.0234949 -0.1084968 1.1937971
v 0.0234949 -0.1084968 1.1937971
v 0.0234949 -0.1084968 1.2256584
v 0.0234949 -0.1084968 1.2256584
v 0.0238497 -0.1147340 1.2256584
v 0.0238497 -0.1147340 1.2256584
v 0.0238497 -0.1147340 1.1937971
v 0.0238497 -0.1147340 1.1937971
v 0.0369299 -0.1074684 1.1937971
v 0.0369299 -0.1074684 1.1937971
v 0.0369299 -0.1074684 1.2256584
v 0.0369299 -0.1074684 1.2256584
v 0.0376624 -0.1136726 1.2256584
v 0.0376624 -0.1136726 1.2256584
v 0.0376624 -0.1136726 1.1937971
v 0.0376624 -0.1136726 1.1937971
v 0.0490183 -0.1055397 1.1937971
v 0.0490183 -0.1055397 1.1937971
v 0.0490183 -0.1055397 1.2256584
v 0.0490183 -0.1055397 1.2256584
v 0.0503363 -0.1116464 1.2256584
v 0.0503363 -0.1116464 1.2256584
v 0.0503363 -0.1116464 1.1937971
v 0.0503363 -0.1116464 1.1937971
v 0.0612942 -0.1021802 1.1937971
v 0.0612942 -0.1021802 1.1937971
v 0.0612942 -0.1021802 1.2256584
v 0.0612942 -0.1021802 1.2256584
v 0.0630575 -0.1081735 1.2256584
v 0.0630575 -0.1081735 1.2256584
v 0.0630575 -0.1081735 1.1937971
v 0.0630575 -0.1081735 1.1937971
v 0.0768618 -0.0971092 1.1937971
v 0.0768618 -0.0971092 1.1937971
v 0.0768618 -0.0971092 1.2256584
v 0.0768618 -0.0971092 1.2256584
v 0.0789011 -0.1030036 1.2256584
v 0.0789011 -0.1030036 1.2256584
v 0.0789011 -0.1030036 1.1937971
v 0.0789011 -0.1030036 1.1937971
v 0.0902623 -0.0908580 1.1937971
v 0.0902623 -0.0908580 1.1937971
v 0.0902623 -0.0908580 1.2256584
v 0.0902623 -0.0908580 1.2256584
v 0.0931442 -0.0964008 1.2256584
v 0.0931442 -0.0964008 1.2256584
v 0.0931442 -0.0964008 1.1937971
v 0.0931442 -0.0964008 1.1937971
v 0.1017194 -0.0841160 1.1937971
v 0.1017194 -0.0841160 1.1937971
v 0.1017194 -0.0841160 1.2256584
v 0.1017194 -0.0841160 1.2256584
v 0.1049862 -0.0894412 1.2256584
v 0.1049862 -0.0894412 1.2256584
v 0.1049862 -0.0894412 1.1937971
v 0.1049862 -0.0894412 1.1937971
v 0.1154652 -0.0753230 1.1937971
v 0.1154652 -0.0753230 1.1937971
v 0.1154652 -0.0753230 1.1937971
v 0.1154652 -0.0753230 1.2256584
v 0.1154652 -0.0753230 1.2256584
v 0.1154652 -0.0753230 1.2256584
v 0.1188259 -0.0805889 1.2256584
v 0.1188259 -0.0805889 1.2256584
v 0.1188259 -0.0805889 1.2256584
v 0.1188259 -0.0805890 1.1937971
v 0.1188259 -0.0805890 1.1937971
v 0.1188259 -0.0805890 1.1937971
v 0.0061123 -0.1088278 1.2117224
v 0.0061123 -0.1088278 1.2117224
v 0.0061123 -0.1088278 1.2058744
v 0.0061123 -0.1088278 1.2058744
v 0.0106610 -0.1132076 1.2108879
v 0.0106610 -0.1132076 1.2108879
v 0.0115490 -0.1140625 1.2095132
v 0.0115490 -0.1140625 1.2095132
v 0.0115489 -0.1140625 1.2080836
v 0.0115489 -0.1140625 1.2080836
v 0.0106610 -0.1132076 1.2067089
v 0.0106610 -0.1132076 1.2067089
v -0.0075732 -0.1249225 1.2126838
v -0.0075732 -0.1249225 1.2126838
v -0.0075732 -0.1249225 1.2126838
v -0.0075732 -0.1249225 1.2126838
v -0.0079810 -0.1259418 1.2115374
v -0.0079810 -0.1259418 1.2115374
v -0.0079810 -0.1259418 1.2115374
v -0.0079810 -0.1259418 1.2115374
v -0.0057623 -0.1251930 1.2113253
v -0.0057623 -0.1251930 1.2113253
v -0.0057623 -0.1251930 1.2113253
v -0.0057623 -0.1251930 1.2113253
v -0.0075732 -0.1249225 1.2049129
v -0.0075732 -0.1249225 1.2049129
v -0.0075732 -0.1249225 1.2049129
v -0.0075732 -0.1249225 1.2049129
v -0.0057623 -0.1251930 1.2062715
v -0.0057623 -0.1251930 1.2062715
v -0.0057623 -0.1251930 1.2062715
v -0.0057623 -0.1251930 1.2062715
v -0.0079810 -0.1259418 1.2060595
v -0.0079810 -0.1259418 1.2060595
v -0.0079810 -0.1259418 1.2060595
v -0.0079810 -0.1259418 1.2060595
v -0.0100564 -0.1261074 1.2117198
v -0.0100564 -0.1261074 1.2117198
v -0.0100564 -0.1261074 1.2117198
v -0.0101973 -0.1251407 1.2129568
v -0.0101973 -0.1251407 1.2129568
v -0.0101973 -0.1251407 1.2129568
v -0.0101973 -0.1251407 1.2129568
v -0.0100564 -0.1261074 1.2058771
v -0.0100564 -0.1261074 1.2058771
v -0.0100564 -0.1261074 1.2058771
v -0.0101973 -0.1251407 1.2046399
v -0.0101973 -0.1251407 1.2046399
v -0.0101973 -0.1251407 1.2046399
v -0.0101973 -0.1251407 1.2046399
v 0.0016138 -0.1120282 1.1937783
v 0.0016138 -0.1120282 1.1937783
v 0.0016138 -0.1120282 1.2256396
v 0.0016138 -0.1120282 1.2256396
v 0.0015391 -0.1028791 1.2256396
v 0.0015391 -0.1028791 1.2256396
v 0.0015391 -0.1028791 1.1937783
v 0.0015391 -0.1028791 1.1937783
v -0.0172893 -0.1113617 1.1937783
v -0.0172893 -0.1113617 1.1937783
v -0.0172893 -0.1113617 1.2256396
v -0.0172893 -0.1113617 1.2256396
v -0.0165005 -0.1022463 1.2256396
v -0.0165005 -0.1022463 1.2256396
v -0.0165005 -0.1022463 1.1937783
v -0.0165005 -0.1022463 1.1937783
v -0.0358507 -0.1087938 1.1937783
v -0.0358507 -0.1087938 1.1937783
v -0.0358507 -0.1087938 1.2256396
v -0.0358507 -0.1087938 1.2256396
v -0.0341443 -0.0998049 1.2256396
v -0.0341443 -0.0998049 1.2256396
v -0.0341443 -0.0998049 1.1937783
v -0.0341443 -0.0998049 1.1937783
v -0.0537930 -0.1044465 1.1937783
v -0.0537930 -0.1044465 1.1937783
v -0.0537930 -0.1044466 1.2256396
v -0.0537930 -0.1044466 1.2256396
v -0.0511956 -0.0956735 1.2256396
v -0.0511956 -0.0956735 1.2256396
v -0.0511956 -0.0956735 1.1937783
v -0.0511956 -0.0956735 1.1937783
v -0.0708852 -0.0984388 1.1937783
v -0.0708852 -0.0984388 1.1937783
v -0.0708852 -0.0984388 1.2256396
v -0.0708852 -0.0984388 1.2256396
v -0.0674118 -0.0899743 1.2256396
v -0.0674118 -0.0899743 1.2256396
v -0.0674118 -0.0899742 1.1937783
v -0.0674118 -0.0899742 1.1937783
v -0.0868957 -0.0908851 1.1937783
v -0.0868957 -0.0908851 1.1937783
v -0.0868957 -0.0908851 1.2256396
v -0.0868957 -0.0908851 1.2256396
v -0.0825505 -0.0828332 1.2256396
v -0.0825505 -0.0828332 1.2256396
v -0.0825505 -0.0828332 1.1937783
v -0.0825505 -0.0828332 1.1937783
v -0.1015917 -0.0818952 1.1937783
v -0.1015917 -0.0818952 1.1937783
v -0.1015917 -0.0818952 1.2256396
v -0.1015917 -0.0818952 1.2256396
v -0.0963710 -0.0743814 1.2256396
v -0.0963710 -0.0743814 1.2256396
v -0.0963710 -0.0743814 1.1937783
v -0.0963710 -0.0743814 1.1937783
v -0.1147364 -0.0715739 1.1937783
v -0.1147364 -0.0715739 1.1937783
v -0.1147364 -0.0715739 1.2256396
v -0.1147364 -0.0715739 1.2256396
v -0.1086361 -0.0647549 1.2256396
v -0.1086361 -0.0647549 1.2256396
v -0.1086361 -0.0647549 1.1937783
v -0.1086361 -0.0647549 1.1937783
v -0.1260859 -0.0600214 1.1937783
v -0.1260859 -0.0600214 1.1937783
v -0.1260859 -0.0600214 1.2256396
v -0.1260859 -0.0600214 1.2256396
v -0.1191159 -0.0540942 1.2256396
v -0.1191159 -0.0540942 1.2256396
v -0.1191159 -0.0540942 1.1937783
v -0.1191159 -0.0540942 1.1937783
v -0.1353841 -0.0473372 1.1937783
v -0.1353841 -0.0473372 1.1937783
v -0.1353841 -0.0473372 1.2256396
v -0.1353841 -0.0473372 1.2256396
v -0.1275927 -0.0425407 1.2256396
v -0.1275927 -0.0425407 1.2256396
v -0.1275927 -0.0425407 1.1937783
v -0.1275927 -0.0425407 1.1937783
v -0.1423590 -0.0336282 1.1937783
v -0.1423590 -0.0336282 1.1937783
v -0.1423590 -0.0336282 1.2256396
v -0.1423590 -0.0336282 1.2256396
v -0.1338659 -0.0302258 1.2256392
v -0.1338659 -0.0302258 1.2256392
v -0.1338659 -0.0302258 1.1937779
v -0.1338659 -0.0302258 1.1937779
v -0.1467403 -0.0189904 1.1937723
v -0.1467403 -0.0189904 1.1937723
v -0.1467403 -0.0189904 1.2256336
v -0.1467403 -0.0189904 1.2256336
v -0.1378156 -0.0171211 1.2256135
v -0.1378156 -0.0171211 1.2256135
v -0.1378156 -0.0171211 1.1937522
v -0.1378156 -0.0171211 1.1937522
v -0.1483512 -0.0033944 1.1937205
v -0.1483512 -0.0033944 1.1937205
v -0.1483512 -0.0033944 1.2255818
v -0.1483512 -0.0033944 1.2255818
v -0.1393034 -0.0031692 1.2255443
v -0.1393034 -0.0031692 1.2255443
v -0.1393034 -0.0031692 1.1936830
v -0.1393034 -0.0031692 1.1936830
v -0.1472135 0.0126200 1.1936148
v -0.1472135 0.0126200 1.1936148
v -0.1472135 0.0126200 1.2254761
v -0.1472135 0.0126200 1.2254761
v -0.1383318 0.0112620 1.2254305
v -0.1383318 0.0112620 1.2254305
v -0.1383318 0.0112620 1.1935692
v -0.1383318 0.0112620 1.1935692
v -0.1435996 0.0284528 1.1934643
v -0.1435996 0.0284528 1.1934643
v -0.1435996 0.0284528 1.2253257
v -0.1435996 0.0284528 1.2253257
v -0.1351055 0.0256449 1.2252793
v -0.1351055 0.0256449 1.2252793
v -0.1351055 0.0256449 1.1934180
v -0.1351055 0.0256449 1.1934180
v -0.1376576 0.0438528 1.1932813
v -0.1376576 0.0438528 1.1932813
v -0.1376576 0.0438528 1.2251427
v -0.1376576 0.0438528 1.2251427
v -0.1297190 0.0397372 1.2251016
v -0.1297190 0.0397372 1.2251016
v -0.1297190 0.0397372 1.1932402
v -0.1297190 0.0397372 1.1932402
v -0.1295160 0.0585281 1.1930851
v -0.1295160 0.0585281 1.1930851
v -0.1295160 0.0585281 1.2249465
v -0.1295160 0.0585281 1.2249465
v -0.1222537 0.0532698 1.2249134
v -0.1222537 0.0532698 1.2249134
v -0.1222537 0.0532698 1.1930519
v -0.1222537 0.0532698 1.1930519
v -0.1192819 0.0721657 1.1929001
v -0.1192819 0.0721657 1.1929001
v -0.1192819 0.0721657 1.2247614
v -0.1192819 0.0721657 1.2247614
v -0.1127798 0.0659269 1.2247378
v -0.1127798 0.0659269 1.2247378
v -0.1127798 0.0659269 1.1928765
v -0.1127798 0.0659269 1.1928765
v -0.1070541 0.0844545 1.1927506
v -0.1070541 0.0844545 1.1927506
v -0.1070541 0.0844545 1.2246119
v -0.1070541 0.0844545 1.2246119
v -0.1013558 0.0773504 1.2246048
v -0.1013558 0.0773504 1.2246048
v -0.1013558 0.0773504 1.1927435
v -0.1013558 0.0773504 1.1927435
v -0.0928482 0.0949214 1.1926900
v -0.0928482 0.0949214 1.1926900
v -0.0928482 0.0949214 1.2245513
v -0.0928482 0.0949214 1.2245513
v -0.0880276 0.0871448 1.2245513
v -0.0880276 0.0871448 1.2245513
v -0.0880276 0.0871448 1.1926900
v -0.0880276 0.0871448 1.1926900
v -0.0767243 0.1031914 1.1927541
v -0.0767243 0.1031914 1.1927541
v -0.0767243 0.1031914 1.2246155
v -0.0767243 0.1031914 1.2246155
v -0.0728589 0.0949464 1.2246085
v -0.0728589 0.0949464 1.2246085
v -0.0728589 0.0949464 1.1927472
v -0.0728589 0.0949464 1.1927472
v -0.0588766 0.1092492 1.1928757
v -0.0588766 0.1092492 1.1928757
v -0.0588766 0.1092492 1.2247370
v -0.0588766 0.1092492 1.2247370
v -0.0560178 0.1007433 1.2246828
v -0.0560178 0.1007433 1.2246828
v -0.0560178 0.1007433 1.1928215
v -0.0560178 0.1007433 1.1928215
v -0.0395495 0.1134122 1.1928215
v -0.0395495 0.1134122 1.1928215
v -0.0395495 0.1134122 1.2246828
v -0.0395495 0.1134122 1.2246828
v -0.0377042 0.1047017 1.2245973
v -0.0377042 0.1047017 1.2245973
v -0.0377042 0.1047017 1.1927360
v -0.0377042 0.1047017 1.1927360
v -0.0190035 0.1156498 1.1925943
v -0.0190035 0.1156498 1.1925943
v -0.0190035 0.1156498 1.2244556
v -0.0190035 0.1156498 1.2244556
v -0.0181881 0.1068041 1.2243634
v -0.0181881 0.1068041 1.2243634
v -0.0181881 0.1068041 1.1925021
v -0.0181881 0.1068041 1.1925021
v 0.0023719 0.1159660 1.1922332
v 0.0023719 0.1159660 1.1922332
v 0.0023719 0.1159660 1.2240945
v 0.0023719 0.1159660 1.2240945
v 0.0023000 0.1070386 1.2240149
v 0.0023000 0.1070386 1.2240149
v 0.0023000 0.1070386 1.1921536
v 0.0023000 0.1070386 1.1921536
v 0.0223424 0.1150526 1.1918362
v 0.0223424 0.1150526 1.1918362
v 0.0223424 0.1150526 1.2236977
v 0.0223424 0.1150526 1.2236977
v 0.0216267 0.1060508 1.2236480
v 0.0216267 0.1060508 1.2236480
v 0.0216267 0.1060508 1.1917866
v 0.0216267 0.1060508 1.1917866
v 0.0409774 0.1133978 1.1914827
v 0.0409774 0.1133978 1.1914827
v 0.0409774 0.1133978 1.2233440
v 0.0409774 0.1133978 1.2233440
v 0.0396407 0.1043611 1.2233324
v 0.0396407 0.1043611 1.2233324
v 0.0396407 0.1043611 1.1914711
v 0.0396407 0.1043611 1.1914711
v 0.0584443 0.1102746 1.1913451
v 0.0584443 0.1102746 1.1913451
v 0.0584443 0.1102746 1.2232064
v 0.0584443 0.1102746 1.2232064
v 0.0563160 0.1013761 1.2232064
v 0.0563160 0.1013761 1.2232064
v 0.0563160 0.1013761 1.1913451
v 0.0563160 0.1013761 1.1913451
v 0.0746707 0.1053904 1.1914710
v 0.0746707 0.1053904 1.1914710
v 0.0746707 0.1053903 1.2233323
v 0.0746707 0.1053903 1.2233323
v 0.0716099 0.0967856 1.2233188
v 0.0716099 0.0967856 1.2233188
v 0.0716099 0.0967856 1.1914575
v 0.0716099 0.0967856 1.1914575
v 0.0895416 0.0986950 1.1917797
v 0.0895416 0.0986950 1.1917797
v 0.0895416 0.0986950 1.2236410
v 0.0895416 0.0986950 1.2236410
v 0.0854152 0.0905944 1.2235920
v 0.0854152 0.0905944 1.2235920
v 0.0854152 0.0905944 1.1917307
v 0.0854152 0.0905944 1.1917307
v 0.1029287 0.0901671 1.1921664
v 0.1029287 0.0901671 1.1921664
v 0.1029287 0.0901670 1.2240278
v 0.1029287 0.0901670 1.2240278
v 0.0976429 0.0828071 1.2239494
v 0.0976429 0.0828071 1.2239494
v 0.0976429 0.0828071 1.1920881
v 0.0976429 0.0828071 1.1920881
v 0.1146680 0.0797333 1.1925787
v 0.1146680 0.0797333 1.1925787
v 0.1146680 0.0797333 1.2244400
v 0.1146680 0.0797333 1.2244400
v 0.1082228 0.0733870 1.2243379
v 0.1082228 0.0733870 1.2243379
v 0.1082228 0.0733870 1.1924766
v 0.1082228 0.0733870 1.1924766
v 0.1245757 0.0673327 1.1929796
v 0.1245757 0.0673327 1.1929796
v 0.1245757 0.0673327 1.2248409
v 0.1245757 0.0673327 1.2248409
v 0.1170969 0.0622448 1.2247225
v 0.1170969 0.0622448 1.2247225
v 0.1170969 0.0622448 1.1928611
v 0.1170969 0.0622448 1.1928611
v 0.1324752 0.0529375 1.1933346
v 0.1324752 0.0529375 1.1933346
v 0.1324752 0.0529375 1.2251960
v 0.1324752 0.0529375 1.2251960
v 0.1241971 0.0492422 1.2250780
v 0.1241971 0.0492422 1.2250780
v 0.1241971 0.0492422 1.1932166
v 0.1241971 0.0492422 1.1932166
v 0.1382222 0.0365377 1.1936111
v 0.1382222 0.0365377 1.1936111
v 0.1382222 0.0365378 1.2254726
v 0.1382222 0.0365378 1.2254726
v 0.1294227 0.0342220 1.2253788
v 0.1294227 0.0342220 1.2253788
v 0.1294227 0.0342220 1.1935173
v 0.1294227 0.0342220 1.1935173
v 0.1417108 0.0181271 1.1937654
v 0.1417108 0.0181271 1.1937654
v 0.1417108 0.0181271 1.2256267
v 0.1417108 0.0181271 1.2256267
v 0.1326400 0.0170528 1.2255857
v 0.1326400 0.0170528 1.2255857
v 0.1326400 0.0170528 1.1937244
v 0.1326400 0.0170528 1.1937244
v 0.1428493 -0.0024031 1.1937783
v 0.1428493 -0.0024031 1.1937783
v 0.1428493 -0.0024031 1.2256396
v 0.1428493 -0.0024031 1.2256396
v 0.1337005 -0.0022989 1.2256396
v 0.1337005 -0.0022989 1.2256396
v 0.1337005 -0.0022989 1.1937783
v 0.1337005 -0.0022989 1.1937783
v 0.1414116 -0.0206531 1.1937783
v 0.1414116 -0.0206531 1.1937783
v 0.1414116 -0.0206531 1.2256396
v 0.1414116 -0.0206531 1.2256396
v 0.1323780 -0.0192023 1.2256396
v 0.1323780 -0.0192023 1.2256396
v 0.1323780 -0.0192023 1.1937783
v 0.1323780 -0.0192023 1.1937783
v 0.1373604 -0.0371904 1.1937783
v 0.1373604 -0.0371904 1.1937783
v 0.1373604 -0.0371904 1.2256396
v 0.1373604 -0.0371904 1.2256396
v 0.1286937 -0.0342579 1.2256396
v 0.1286937 -0.0342579 1.2256396
v 0.1286937 -0.0342579 1.1937783
v 0.1286937 -0.0342579 1.1937783
v 0.1308874 -0.0519851 1.1937783
v 0.1308874 -0.0519851 1.1937783
v 0.1308874 -0.0519851 1.2256396
v 0.1308874 -0.0519851 1.2256396
v 0.1228563 -0.0476017 1.2256396
v 0.1228563 -0.0476017 1.2256396
v 0.1228563 -0.0476017 1.1937783
v 0.1228563 -0.0476017 1.1937783
v 0.1222133 -0.0650320 1.1937783
v 0.1222133 -0.0650320 1.1937783
v 0.1222133 -0.0650320 1.2256396
v 0.1222133 -0.0650320 1.2256396
v 0.1150457 -0.0593453 1.2256396
v 0.1150457 -0.0593453 1.2256396
v 0.1150457 -0.0593453 1.1937783
v 0.1150457 -0.0593453 1.1937783
v 0.1115816 -0.0763441 1.1937783
v 0.1115816 -0.0763441 1.1937783
v 0.1115816 -0.0763441 1.2256396
v 0.1115816 -0.0763441 1.2256396
v 0.1054186 -0.0695817 1.2256396
v 0.1054186 -0.0695817 1.2256396
v 0.1054186 -0.0695817 1.1937783
v 0.1054186 -0.0695817 1.1937783
v 0.0992407 -0.0859628 1.1937783
v 0.0992407 -0.0859628 1.1937783
v 0.0992407 -0.0859628 1.2256396
v 0.0992407 -0.0859628 1.2256396
v 0.0941271 -0.0783757 1.2256396
v 0.0941271 -0.0783757 1.2256396
v 0.0941271 -0.0783757 1.1937783
v 0.0941271 -0.0783757 1.1937783
v 0.0854281 -0.0939520 1.1937783
v 0.0854281 -0.0939520 1.1937783
v 0.0854281 -0.0939520 1.2256396
v 0.0854281 -0.0939520 1.2256396
v 0.0813343 -0.0857695 1.2256396
v 0.0813343 -0.0857695 1.2256396
v 0.0813343 -0.0857695 1.1937783
v 0.0813343 -0.0857695 1.1937783
v 0.0703650 -0.1003863 1.1937783
v 0.0703650 -0.1003863 1.1937783
v 0.0703650 -0.1003863 1.2256396
v 0.0703650 -0.1003863 1.2256396
v 0.0672192 -0.0917947 1.2256396
v 0.0672192 -0.0917947 1.2256396
v 0.0672192 -0.0917947 1.1937783
v 0.0672192 -0.0917947 1.1937783
v 0.0542590 -0.1053414 1.1937783
v 0.0542590 -0.1053414 1.1937783
v 0.0542590 -0.1053414 1.2256396
v 0.0542590 -0.1053414 1.2256396
v 0.0519747 -0.0964817 1.2256396
v 0.0519747 -0.0964817 1.2256396
v 0.0519747 -0.0964817 1.1937783
v 0.0519747 -0.0964817 1.1937783
v 0.0373094 -0.1088893 1.1937783
v 0.0373094 -0.1088893 1.1937783
v 0.0373094 -0.1088893 1.2256396
v 0.0373094 -0.1088893 1.2256396
v 0.0358019 -0.0998649 1.2256396
v 0.0358019 -0.0998649 1.2256396
v 0.0358019 -0.0998649 1.1937783
v 0.0358019 -0.0998649 1.1937783
v 0.0197114 -0.1110971 1.1937783
v 0.0197114 -0.1110971 1.1937783
v 0.0197114 -0.1110971 1.1937783
v 0.0197114 -0.1110971 1.1937783
v 0.0197114 -0.1110971 1.2256396
v 0.0197114 -0.1110971 1.2256396
v 0.0197114 -0.1110971 1.2256396
v 0.0197114 -0.1110971 1.2256396
v 0.0189062 -0.1019831 1.2256396
v 0.0189062 -0.1019831 1.2256396
v 0.0189062 -0.1019831 1.2256396
v 0.0189062 -0.1019831 1.2256396
v 0.0189062 -0.1019831 1.1937783
v 0.0189062 -0.1019831 1.1937783
v 0.0189062 -0.1019831 1.1937783
v 0.0189062 -0.1019831 1.1937783
usemtl MI_Ranger.001
f 16 46 68
f 16 68 58
f 88 103 17
f 88 17 3
f 107 54 22
f 107 22 72
f 77 110 59
f 77 59 10
f 92 34 53
f 92 53 106
f 26 41 65
f 26 65 64
f 30 45 50
f 30 50 33
f 21 38 40
f 21 40 25
f 52 56 37
f 52 37 20
f 32 49 56
f 32 56 51
f 8 36 55
f 8 55 18
f 1 47 43
f 1 43 13
f 112 97 14
f 112 14 57
f 18 55 48
f 18 48 4
f 75 78 11
f 75 11 6
f 83 24 63
f 83 63 108
f 98 87 2
f 98 2 15
f 9 39 35
f 9 35 5
f 103 76 7
f 103 7 17
f 62 67 44
f 62 44 29
f 60 66 42
f 60 42 12
f 114 61 28
f 114 28 95
f 93 27 31
f 93 31 89
f 60 58 68
f 60 68 66
f 62 64 65
f 62 65 67
f 114 108 63
f 114 63 61
f 57 59 110
f 57 110 112
f 73 70 82
f 73 82 79
f 99 94 90
f 99 90 85
f 86 91 104
f 86 104 101
f 111 109 115
f 111 115 113
f 113 115 96
f 113 96 100
f 109 111 80
f 109 80 84
f 102 105 71
f 102 71 74
f 69 19 23
f 69 23 81
f 226 220 122
f 226 122 130
f 153 117 168
f 168 170 163
f 168 163 153
f 225 223 118
f 225 118 126
f 151 121 165
f 165 167 164
f 165 164 151
f 164 149 134
f 164 134 156
f 138 230 297
f 138 297 283
f 238 152 132
f 238 132 228
f 163 155 139
f 163 139 157
f 237 150 137
f 237 137 231
f 281 287 158
f 281 158 144
f 135 229 292
f 135 292 278
f 136 156 288
f 136 288 279
f 231 137 280
f 231 280 298
f 240 160 146
f 240 146 234
f 276 294 233
f 276 233 143
f 285 295 234
f 285 234 146
f 272 289 162
f 272 162 141
f 222 120 150
f 222 150 237
f 180 168 117
f 180 117 125
f 221 116 152
f 221 152 238
f 174 165 121
f 174 121 129
f 127 119 169
f 127 169 177
f 228 132 273
f 228 273 291
f 289 286 147
f 289 147 162
f 232 140 161
f 232 161 241
f 296 282 145
f 296 145 235
f 153 163 157
f 153 157 133
f 293 271 140
f 293 140 232
f 151 164 156
f 151 156 136
f 164 167 166
f 166 123 149
f 166 149 164
f 163 170 169
f 169 119 155
f 169 155 163
f 165 174 208
f 165 208 167
f 260 196 182
f 260 182 250
f 131 123 166
f 131 166 171
f 170 168 180
f 180 195 199
f 180 199 170
f 225 126 186
f 225 186 252
f 127 177 187
f 249 181 191
f 249 191 258
f 169 170 199
f 199 197 177
f 199 177 169
f 174 129 184
f 180 125 190
f 226 130 192
f 226 192 255
f 167 210 171
f 167 171 166
f 131 171 193
f 244 176 185
f 244 185 253
f 195 200 199
f 200 202 199
f 202 204 199
f 204 206 199
f 206 197 199
f 208 212 167
f 212 214 167
f 214 216 167
f 216 218 167
f 218 210 167
f 259 211 219
f 259 219 261
f 261 219 217
f 261 217 263
f 263 217 215
f 263 215 265
f 265 215 213
f 265 213 267
f 267 213 209
f 267 209 269
f 246 179 198
f 246 198 270
f 175 243 269
f 175 269 209
f 207 268 270
f 207 270 198
f 205 266 268
f 205 268 207
f 203 264 266
f 203 266 205
f 201 262 264
f 201 264 203
f 196 260 262
f 196 262 201
f 178 245 254
f 178 254 188
f 124 227 256
f 124 256 189
f 173 248 257
f 173 257 194
f 128 224 251
f 128 251 183
f 211 259 247
f 211 247 172
f 143 233 242
f 143 242 159
f 122 220 239
f 122 239 148
f 118 223 236
f 118 236 154
f 156 134 277
f 156 277 288
f 159 242 235
f 159 235 145
f 287 275 142
f 287 142 158
f 157 139 284
f 157 284 290
f 154 236 230
f 154 230 138
f 148 239 229
f 148 229 135
f 128 120 222
f 128 222 224
f 124 116 221
f 124 221 227
f 294 276 278
f 294 278 292
f 288 277 275
f 288 275 287
f 290 284 286
f 290 286 289
f 298 280 282
f 298 282 296
f 279 288 287
f 279 287 281
f 274 290 289
f 274 289 272
f 271 293 291
f 271 291 273
f 283 297 295
f 283 295 285
f 133 157 290
f 133 290 274
f 309 344 351
f 309 351 323
f 319 386 381
f 319 381 314
f 331 340 364
f 331 364 367
f 322 350 358
f 322 358 380
f 352 361 357
f 352 357 348
f 310 324 387
f 310 387 391
f 393 385 317
f 393 317 303
f 342 373 370
f 342 370 347
f 382 356 336
f 382 336 315
f 313 335 339
f 313 339 318
f 327 300 305
f 327 305 332
f 325 353 349
f 325 349 320
f 346 312 307
f 346 307 341
f 302 316 337
f 302 337 330
f 308 400 374
f 308 374 343
f 388 326 321
f 388 321 379
f 399 306 311
f 399 311 392
f 299 397 394
f 299 394 304
f 369 362 354
f 369 354 345
f 375 328 333
f 375 333 368
f 398 301 329
f 398 329 376
f 399 392 396
f 399 396 401
f 401 396 394
f 401 394 397
f 388 379 383
f 388 383 390
f 390 383 381
f 390 381 386
f 363 355 359
f 363 359 365
f 365 359 357
f 365 357 361
f 375 368 372
f 375 372 377
f 377 372 370
f 377 370 373
f 385 393 395
f 385 395 389
f 389 395 391
f 389 391 387
f 356 382 384
f 356 384 360
f 360 384 380
f 360 380 358
f 362 369 371
f 362 371 366
f 366 371 367
f 366 367 364
f 398 376 378
f 398 378 402
f 402 378 374
f 402 374 400
f 363 338 334
f 363 334 355
f 403 411 417
f 403 417 409
f 406 414 412
f 406 412 404
f 407 415 413
f 407 413 405
f 411 419 425
f 411 425 417
f 414 422 420
f 414 420 412
f 415 423 421
f 415 421 413
f 419 427 433
f 419 433 425
f 422 430 428
f 422 428 420
f 423 431 429
f 423 429 421
f 427 435 441
f 427 441 433
f 430 438 436
f 430 436 428
f 431 439 437
f 431 437 429
f 435 443 449
f 435 449 441
f 438 446 444
f 438 444 436
f 439 447 445
f 439 445 437
f 443 451 457
f 443 457 449
f 446 454 452
f 446 452 444
f 447 455 453
f 447 453 445
f 454 462 460
f 454 460 452
f 455 463 461
f 455 461 453
f 459 467 473
f 459 473 465
f 462 470 468
f 462 468 460
f 463 471 469
f 463 469 461
f 483 486 476
f 483 476 479
f 451 459 465
f 451 465 457
f 471 481 478
f 471 478 469
f 470 480 477
f 470 477 468
f 467 475 484
f 467 484 473
f 482 472 474
f 482 474 485
f 472 464 466
f 472 466 474
f 464 456 458
f 464 458 466
f 456 448 450
f 456 450 458
f 448 440 442
f 448 442 450
f 440 432 434
f 440 434 442
f 432 424 426
f 432 426 434
f 424 416 418
f 424 418 426
f 416 408 410
f 416 410 418
f 510 518 496
f 510 496 494
f 488 490 535
f 488 535 528
f 534 489 497
f 534 497 512
f 523 530 519
f 523 519 503
f 501 505 507
f 513 515 521
f 532 525 529
f 532 529 536
f 499 526 524
f 499 524 504
f 533 511 520
f 533 520 531
f 516 508 506
f 516 506 522
f 492 502 509
f 492 509 493
f 514 498 495
f 514 495 517
f 487 527 500
f 487 500 491
f 537 545 551
f 537 551 543
f 541 549 547
f 541 547 539
f 544 552 550
f 544 550 542
f 545 553 559
f 545 559 551
f 549 557 555
f 549 555 547
f 552 560 558
f 552 558 550
f 553 561 567
f 553 567 559
f 557 565 563
f 557 563 555
f 560 568 566
f 560 566 558
f 561 569 575
f 561 575 567
f 565 573 571
f 565 571 563
f 568 576 574
f 568 574 566
f 569 577 583
f 569 583 575
f 573 581 579
f 573 579 571
f 576 584 582
f 576 582 574
f 577 585 591
f 577 591 583
f 581 589 587
f 581 587 579
f 584 592 590
f 584 590 582
f 585 593 599
f 585 599 591
f 589 597 595
f 589 595 587
f 592 600 598
f 592 598 590
f 593 601 607
f 593 607 599
f 597 605 603
f 597 603 595
f 600 608 606
f 600 606 598
f 601 609 615
f 601 615 607
f 605 613 611
f 605 611 603
f 608 616 614
f 608 614 606
f 609 617 624
f 609 624 615
f 613 621 619
f 613 619 611
f 616 623 622
f 616 622 614
f 617 625 632
f 617 632 624
f 621 629 627
f 621 627 619
f 623 631 630
f 623 630 622
f 625 633 640
f 625 640 632
f 629 637 635
f 629 635 627
f 631 639 638
f 631 638 630
f 633 641 648
f 633 648 640
f 637 645 643
f 637 643 635
f 639 647 646
f 639 646 638
f 641 649 656
f 641 656 648
f 645 653 651
f 645 651 643
f 647 655 654
f 647 654 646
f 649 657 664
f 649 664 656
f 653 661 659
f 653 659 651
f 655 663 662
f 655 662 654
f 657 665 672
f 657 672 664
f 661 669 667
f 661 667 659
f 663 671 670
f 663 670 662
f 665 673 680
f 665 680 672
f 669 677 675
f 669 675 667
f 671 679 678
f 671 678 670
f 673 681 688
f 673 688 680
f 677 685 683
f 677 683 675
f 679 687 686
f 679 686 678
f 681 689 695
f 681 695 688
f 685 693 691
f 685 691 683
f 687 696 694
f 687 694 686
f 689 697 703
f 689 703 695
f 693 702 699
f 693 699 691
f 696 704 701
f 696 701 694
f 697 705 712
f 697 712 703
f 702 709 707
f 702 707 699
f 704 711 710
f 704 710 701
f 705 713 720
f 705 720 712
f 709 717 715
f 709 715 707
f 711 719 718
f 711 718 710
f 713 721 728
f 713 728 720
f 717 725 723
f 717 723 715
f 719 727 726
f 719 726 718
f 721 730 735
f 721 735 728
f 725 733 732
f 725 732 723
f 727 736 734
f 727 734 726
f 730 738 743
f 730 743 735
f 733 741 739
f 733 739 732
f 736 744 742
f 736 742 734
f 738 746 751
f 738 751 743
f 741 749 747
f 741 747 739
f 744 752 750
f 744 750 742
f 746 754 759
f 746 759 751
f 749 757 755
f 749 755 747
f 752 760 758
f 752 758 750
f 754 761 767
f 754 767 759
f 757 765 764
f 757 764 755
f 760 768 766
f 760 766 758
f 761 769 775
f 761 775 767
f 765 773 772
f 765 772 764
f 768 776 774
f 768 774 766
f 769 777 783
f 769 783 775
f 773 781 780
f 773 780 772
f 776 784 782
f 776 782 774
f 777 785 791
f 777 791 783
f 781 789 788
f 781 788 780
f 784 792 790
f 784 790 782
f 785 793 799
f 785 799 791
f 789 797 796
f 789 796 788
f 792 800 798
f 792 798 790
f 793 801 807
f 793 807 799
f 797 805 804
f 797 804 796
f 800 808 806
f 800 806 798
f 801 809 815
f 801 815 807
f 805 813 812
f 805 812 804
f 808 816 814
f 808 814 806
f 809 817 823
f 809 823 815
f 813 821 820
f 813 820 812
f 816 824 822
f 816 822 814
f 817 825 831
f 817 831 823
f 821 829 828
f 821 828 820
f 824 832 830
f 824 830 822
f 825 833 839
f 825 839 831
f 829 837 835
f 829 835 828
f 832 840 838
f 832 838 830
f 833 841 847
f 833 847 839
f 837 845 843
f 837 843 835
f 840 848 846
f 840 846 838
f 841 849 855
f 841 855 847
f 845 853 851
f 845 851 843
f 848 856 854
f 848 854 846
f 849 857 863
f 849 863 855
f 853 861 859
f 853 859 851
f 856 864 862
f 856 862 854
f 857 865 871
f 857 871 863
f 861 869 867
f 861 867 859
f 864 872 870
f 864 870 862
f 865 873 879
f 865 879 871
f 869 877 875
f 869 875 867
f 872 880 878
f 872 878 870
f 873 881 887
f 873 887 879
f 877 885 883
f 877 883 875
f 880 888 886
f 880 886 878
f 881 889 895
f 881 895 887
f 885 893 891
f 885 891 883
f 888 896 894
f 888 894 886
f 889 897 903
f 889 903 895
f 893 901 899
f 893 899 891
f 896 904 902
f 896 902 894
f 897 905 911
f 897 911 903
f 901 909 907
f 901 907 899
f 904 912 910
f 904 910 902
f 905 914 926
f 905 926 911
f 909 921 917
f 909 917 907
f 912 928 924
f 912 924 910
f 913 537 543
f 913 543 925
f 922 541 539
f 922 539 918
f 927 544 542
f 927 542 923
f 540 538 915
f 540 915 919
f 892 890 882
f 892 882 884
f 860 858 850
f 860 850 852
f 908 906 898
f 908 898 900
f 850 842 844
f 850 844 852
f 868 866 858
f 868 858 860
f 882 874 876
f 882 876 884
f 874 866 868
f 874 868 876
f 916 906 908
f 916 908 920
f 898 890 892
f 898 892 900
f 842 834 836
f 842 836 844
f 834 826 827
f 834 827 836
f 826 818 819
f 826 819 827
f 818 810 811
f 818 811 819
f 810 802 803
f 810 803 811
f 802 794 795
f 802 795 803
f 794 786 787
f 794 787 795
f 786 778 779
f 786 779 787
f 778 770 771
f 778 771 779
f 770 762 763
f 770 763 771
f 762 753 756
f 762 756 763
f 753 745 748
f 753 748 756
f 745 737 740
f 745 740 748
f 737 729 731
f 737 731 740
f 729 722 724
f 729 724 731
f 722 714 716
f 722 716 724
f 714 706 708
f 714 708 716
f 706 698 700
f 706 700 708
f 698 690 692
f 698 692 700
f 690 682 684
f 690 684 692
f 682 674 676
f 682 676 684
f 674 666 668
f 674 668 676
f 666 658 660
f 666 660 668
f 658 650 652
f 658 652 660
f 650 642 644
f 650 644 652
f 642 634 636
f 642 636 644
f 634 626 628
f 634 628 636
f 626 618 620
f 626 620 628
f 618 610 612
f 618 612 620
f 610 602 604
f 610 604 612
f 602 594 596
f 602 596 604
f 594 586 588
f 594 588 596
f 586 578 580
f 586 580 588
f 578 570 572
f 578 572 580
f 570 562 564
f 570 564 572
f 562 554 556
f 562 556 564
f 554 546 548
f 554 548 556
f 546 538 540
f 546 540 548
