# Level-zero anatomical extract from Blender Human Base Meshes v1.4.1 (CC0)
o human-forearm-r
v 0.3205046 0.0104117 1.1019943
v 0.3095009 -0.0366379 1.1057122
v 0.3219332 -0.0488851 1.0744045
v 0.3380081 0.0018783 1.0689398
v 0.3478961 -0.0022526 1.0529641
v 0.3283828 -0.0538737 1.0579300
v 0.3639838 -0.0109701 1.0203985
v 0.3402689 -0.0581927 1.0238225
v 0.3742993 -0.0213471 0.9881951
v 0.3510787 -0.0626227 0.9913438
v 0.3342320 -0.0566335 1.0408915
v 0.3566689 -0.0068053 1.0368942
v 0.3158387 -0.0423737 1.0902883
v 0.3776801 -0.0260959 0.9725978
v 0.3698025 -0.0155439 1.0038110
v 0.3283036 0.0058576 1.0855144
v 0.3457525 -0.0602546 1.0071920
v 0.3565068 -0.0651715 0.9766261
v 0.2892647 0.0499721 1.0806861
v 0.2994143 0.0468233 1.0648777
v 0.3077347 0.0414271 1.0464996
v 0.3154052 0.0361380 1.0278615
v 0.3235142 0.0304622 1.0105653
v 0.3317454 0.0245589 0.9944661
v 0.3393994 0.0181630 0.9793925
v 0.3469197 0.0113162 0.9658107
v 0.3530865 0.0043288 0.9526443
v 0.3143633 -0.0399475 0.9507728
v 0.3059715 -0.0361461 0.9636236
v 0.2972349 -0.0330246 0.9774266
v 0.2891417 -0.0300999 0.9928296
v 0.2820445 -0.0261176 1.0092425
v 0.2770096 -0.0214077 1.0261310
v 0.2721558 -0.0162788 1.0422109
v 0.2667091 -0.0130207 1.0577927
v 0.2608638 -0.0118252 1.0729933
v 0.2778349 -0.0258157 1.0851822
v 0.2693392 -0.0202509 1.0788512
v 0.2555343 0.0017322 1.0683573
v 0.2554776 0.0184326 1.0660475
v 0.2634233 0.0337061 1.0676992
v 0.2757578 0.0438522 1.0727537
v 0.3104708 0.0405787 1.0970534
v 0.3012688 0.0494558 1.0903525
v 0.3175355 0.0264947 1.0998405
v 0.3263291 -0.0025816 1.1065640
v 0.3266228 -0.0151771 1.1094360
v 0.3166133 -0.0323212 1.1083069
v 0.2932541 -0.0351465 1.0965953
v 0.2855781 -0.0306101 1.0911417
v 0.3313826 -0.0440143 1.0772277
v 0.3026929 -0.0467642 1.0655581
v 0.2943873 -0.0414927 1.0601331
v 0.2869601 -0.0347817 1.0545657
v 0.2796009 -0.0267562 1.0486889
v 0.2677942 -0.0018179 1.0363615
v 0.2685909 0.0158323 1.0324146
v 0.2782352 0.0313787 1.0333022
v 0.2928123 0.0400164 1.0387604
v 0.3319128 0.0299308 1.0607996
v 0.3210528 0.0377944 1.0541667
v 0.3367654 0.0166684 1.0654696
v 0.3417070 -0.0110540 1.0736394
v 0.3422572 -0.0237962 1.0770864
v 0.3502162 -0.0147966 1.0572979
v 0.3497929 -0.0273395 1.0604095
v 0.3452106 0.0106868 1.0485165
v 0.3288512 0.0314827 1.0355004
v 0.3392443 0.0224216 1.0427078
v 0.3006355 0.0356910 1.0208143
v 0.2861756 0.0274851 1.0162334
v 0.2753451 0.0121283 1.0154766
v 0.2728885 -0.0061986 1.0195805
v 0.2914261 -0.0405327 1.0384793
v 0.2841225 -0.0323052 1.0327417
v 0.3077169 -0.0523764 1.0492941
v 0.2989788 -0.0473569 1.0439532
v 0.3383268 -0.0484422 1.0606543
v 0.3650097 -0.0233752 1.0242724
v 0.3624756 -0.0351751 1.0265362
v 0.3603215 0.0007119 1.0154549
v 0.3432584 0.0187900 1.0020590
v 0.3529920 0.0104359 1.0091974
v 0.3172041 0.0237913 0.9875877
v 0.3024045 0.0159252 0.9831846
v 0.2907432 0.0016470 0.9827727
v 0.2865531 -0.0156293 0.9866457
v 0.3019774 -0.0495223 1.0055161
v 0.2946404 -0.0412301 0.9992782
v 0.3200327 -0.0597156 1.0162725
v 0.3103772 -0.0559187 1.0112301
v 0.3494110 -0.0532484 1.0260419
v 0.3742424 -0.0324772 0.9912503
v 0.3711642 -0.0428480 0.9930541
v 0.3709387 -0.0105587 0.9838247
v 0.3568414 0.0066247 0.9724731
v 0.3646863 -0.0012237 0.9785668
v 0.3341887 0.0106933 0.9594459
v 0.3207023 0.0034960 0.9553540
v 0.3097512 -0.0089527 0.9547502
v 0.3046385 -0.0236861 0.9579586
v 0.3171265 -0.0540288 0.9751785
v 0.3106525 -0.0461610 0.9695270
v 0.3332979 -0.0635858 0.9849719
v 0.3247196 -0.0600276 0.9804410
v 0.3594127 -0.0588134 0.9932033
v 0.3134038 -0.0277206 0.9453813
v 0.3187310 -0.0138234 0.9426559
v 0.2953662 -0.0196177 0.9715512
v 0.3001047 -0.0037944 0.9680176
v 0.2787892 -0.0106705 1.0026948
v 0.2826410 0.0072435 0.9987036
v 0.2615490 0.0007699 1.0525266
v 0.2614676 0.0177708 1.0492131
v 0.3402280 -0.0651533 0.9708502
v 0.3265781 -0.0620604 1.0001513
v 0.3136698 -0.0567161 1.0327761
v 0.2983074 -0.0403169 1.0814128
v 0.3414953 0.0040912 0.9468387
v 0.3257412 0.0173361 0.9727566
v 0.3088236 0.0301349 1.0036029
v 0.2842765 0.0428936 1.0562179
v 0.3775925 -0.0363926 0.9754847
v 0.3747290 -0.0460990 0.9772235
v 0.3703306 -0.0275409 1.0074511
v 0.3674450 -0.0388730 1.0095453
v 0.3582060 -0.0190212 1.0409176
v 0.3565772 -0.0311652 1.0435185
v 0.3341078 -0.0072584 1.0903301
v 0.3346625 -0.0198790 1.0936865
v 0.3744445 -0.0161248 0.9685633
v 0.3659536 -0.0042898 0.9989860
v 0.3535109 0.0054425 1.0320907
v 0.3278894 0.0226208 1.0832894
v 0.3621072 -0.0000114 0.9585042
v 0.3689159 -0.0073661 0.9638905
v 0.3501618 0.0131668 0.9866112
v 0.3590633 0.0051481 0.9932297
v 0.3359082 0.0250030 1.0181835
v 0.3463219 0.0160967 1.0255545
v 0.3222632 0.0369915 1.0800346
v 0.3124251 0.0447021 1.0739219
v 0.3439589 -0.0513088 1.0433675
v 0.3044738 -0.0521684 1.0276061
v 0.2963300 -0.0455319 1.0220507
v 0.2887065 -0.0373022 1.0160059
v 0.2941130 0.0219750 0.9993201
v 0.3114056 0.0096953 0.9684489
v 0.3239834 -0.0380788 1.0930003
v 0.3290130 -0.0025692 0.9431522
v 0.3171258 -0.0585817 0.9952490
v 0.2702717 0.0331450 1.0506147
v 0.3251821 -0.0566596 0.9618978
v 0.3190234 -0.0494120 0.9566104
v 0.2833520 -0.0291482 1.0702323
v 0.2751681 -0.0222738 1.0640075
v 0.3089562 -0.0521812 0.9896590
v 0.3021396 -0.0437329 0.9836118
v 0.3324620 -0.0618172 0.9666997
v 0.2907306 -0.0351617 1.0760257
v 0.3546104 -0.0557370 1.0092311
v 0.3639063 -0.0609838 0.9778942
v 0.3069463 -0.0429814 1.0862420
v 0.3571916 -0.0455825 1.0271356
v 0.3459405 -0.0391824 1.0617260
v 0.3422908 -0.0642003 0.9886057
v 0.3177495 -0.0548423 1.0540297
v 0.3389339 -0.0353066 1.0784198
v 0.3621103 -0.0486057 1.0101218
v 0.3517359 -0.0425173 1.0444231
v 0.3309117 -0.0304062 1.0943974
v 0.3484043 -0.0663788 0.9741962
v 0.3700087 -0.0544578 0.9780567
v 0.3229261 -0.0252371 1.1098382
v 0.3237785 -0.0582384 1.0372865
v 0.3663552 -0.0521302 0.9938020
v 0.3120665 -0.0495585 1.0703771
v 0.3362984 -0.0622762 1.0041820
v 0.3014638 -0.0373784 1.1015579
v 0.3302696 -0.0602930 1.0205638
v 0.3604132 -0.0863352 0.8856878
v 0.3572911 -0.0827470 0.8809428
v 0.3585432 -0.0189965 0.9109291
v 0.3640585 -0.0254078 0.8981861
v 0.3705780 -0.0315031 0.8859619
v 0.3589507 -0.0032678 0.9403536
v 0.3631462 -0.0105637 0.9272711
v 0.3670026 -0.0181891 0.9140954
v 0.3550338 -0.0783143 0.8755625
v 0.3721504 -0.0250004 0.9013684
v 0.3781293 -0.0321183 0.8895660
v 0.3892357 -0.0358975 0.8947639
v 0.3841348 -0.0298426 0.9073578
v 0.3798807 -0.0238539 0.9211845
v 0.3657577 -0.0889821 0.8894600
v 0.3765014 -0.0184986 0.9355776
v 0.3730976 -0.0135455 0.9499430
v 0.3805034 -0.0304153 0.9574901
v 0.3875547 -0.0772295 0.8935256
v 0.3835286 -0.0336076 0.9426160
v 0.3865476 -0.0364240 0.9280460
v 0.3890750 -0.0414006 0.9133713
v 0.3901816 -0.0711994 0.8924790
v 0.3925143 -0.0464946 0.9001130
v 0.3597020 -0.0430506 0.8724184
v 0.3958099 -0.0526607 0.8875746
v 0.3553498 -0.0501023 0.8736243
v 0.3520229 -0.0590049 0.8762807
v 0.3510733 -0.0663245 0.8782322
v 0.3938094 -0.0410254 0.8820651
v 0.3670799 -0.0070776 0.9453731
v 0.3705822 -0.0134083 0.9314945
v 0.3739713 -0.0202252 0.9176604
v 0.3892315 -0.0377360 0.8792673
v 0.3785232 -0.0270400 0.9044643
v 0.3840109 -0.0332902 0.8919199
v 0.3556692 -0.0796035 0.8987074
v 0.3505251 -0.0743586 0.9115363
v 0.3451395 -0.0683388 0.9243184
v 0.3828717 -0.0367393 0.8769410
v 0.3392565 -0.0639782 0.9367591
v 0.3325194 -0.0602543 0.9491499
v 0.3759876 -0.0366194 0.8732017
v 0.3686806 -0.0380063 0.8681707
v 0.3628324 -0.0449197 0.8640609
v 0.3581117 -0.0561159 0.8616340
v 0.3536461 -0.0114726 0.9232264
v 0.3484186 -0.0033516 0.9353558
v 0.3366410 -0.0087801 0.9318174
v 0.3432798 -0.0162357 0.9204325
v 0.3493842 -0.0231295 0.9085830
v 0.3549529 -0.0292055 0.8957867
v 0.3609084 -0.0354225 0.8809139
v 0.3610918 -0.0833964 0.9022813
v 0.3564738 -0.0783239 0.9149378
v 0.3515744 -0.0725994 0.9281038
v 0.3460585 -0.0685216 0.9410694
v 0.3395314 -0.0651205 0.9537407
v 0.3518034 -0.0431642 0.8843736
v 0.3469095 -0.0368650 0.8960801
v 0.3410579 -0.0310635 0.9082657
v 0.3340412 -0.0250620 0.9199277
v 0.3267187 -0.0188496 0.9312265
v 0.3851956 -0.0732095 0.9068478
v 0.3824200 -0.0697921 0.9207971
v 0.3785554 -0.0672399 0.9351122
v 0.3738098 -0.0650796 0.9493237
v 0.3685793 -0.0629511 0.9634370
v 0.3739783 -0.0566361 0.9632730
v 0.3781906 -0.0586271 0.9486930
v 0.3821691 -0.0604231 0.9340659
v 0.3851034 -0.0633446 0.9195348
v 0.3877229 -0.0668425 0.9057105
v 0.3487802 -0.0673427 0.8876910
v 0.3421521 -0.0584806 0.9021766
v 0.3354266 -0.0530434 0.9143523
v 0.3287227 -0.0480925 0.9263521
v 0.3218141 -0.0436694 0.9383394
v 0.3264503 -0.0531627 0.9439903
v 0.3332140 -0.0573936 0.9317430
v 0.3394752 -0.0621193 0.9196132
v 0.3457402 -0.0684479 0.9073570
v 0.3518727 -0.0748303 0.8943327
v 0.3790968 -0.0871662 0.8937660
v 0.3761638 -0.0832967 0.9071243
v 0.3716477 -0.0791572 0.9206586
v 0.3663236 -0.0751158 0.9339160
v 0.3607481 -0.0719432 0.9473503
v 0.3545414 -0.0690950 0.9605770
v 0.3725849 -0.0893760 0.8922169
v 0.3687055 -0.0849909 0.9052904
v 0.3640666 -0.0802911 0.9182704
v 0.3587874 -0.0750230 0.9313800
v 0.3533629 -0.0712173 0.9445952
v 0.3469504 -0.0680823 0.9575731
v 0.3841324 -0.0826719 0.8940467
v 0.3961715 -0.0466541 0.8851436
v 0.3917439 -0.0402475 0.8975437
v 0.3876858 -0.0346270 0.9103819
v 0.3843614 -0.0291637 0.9247346
v 0.3811322 -0.0252230 0.9393280
v 0.3778317 -0.0214479 0.9539808
v 0.3816480 -0.0789388 0.9074376
v 0.3779577 -0.0753583 0.9212877
v 0.3732142 -0.0724087 0.9351808
v 0.3679122 -0.0698224 0.9489754
v 0.3620178 -0.0674908 0.9626150
v 0.3545150 -0.0649308 0.8667292
v 0.3534322 -0.0727304 0.8707705
v 0.3211160 -0.0315657 0.9334741
v 0.3285047 -0.0365697 0.9219423
v 0.3356943 -0.0417107 0.9102718
v 0.3423050 -0.0472312 0.8985323
v 0.3478281 -0.0536641 0.8869290
v 0.3943209 -0.0593289 0.8897119
v 0.3922902 -0.0653993 0.8912049
v 0.3915158 -0.0538004 0.9024103
v 0.3896504 -0.0605646 0.9041694
v 0.3885809 -0.0491150 0.9158250
v 0.3868832 -0.0564551 0.9177477
v 0.3865826 -0.0447893 0.9305718
v 0.3847469 -0.0527817 0.9325023
v 0.3835711 -0.0425772 0.9453607
v 0.3815107 -0.0510636 0.9473682
v 0.3806782 -0.0398699 0.9603192
v 0.3781784 -0.0488606 0.9621930
usemtl blender_human_cc0
f 13 149 48
f 2 13 48
f 175 11 6
f 167 175 6
f 171 130 47
f 174 171 47
f 171 168 64
f 130 171 64
f 129 16 1
f 46 129 1
f 67 62 4
f 5 67 4
f 129 130 64
f 63 129 64
f 140 69 67
f 133 140 67
f 130 129 46
f 47 130 46
f 78 51 3
f 6 78 3
f 133 67 5
f 12 133 5
f 65 5 4
f 63 65 4
f 163 118 52
f 177 163 52
f 175 180 8
f 11 175 8
f 12 127 79
f 7 12 79
f 140 133 81
f 83 140 81
f 17 161 92
f 8 17 92
f 123 14 9
f 93 123 9
f 18 162 106
f 10 18 106
f 169 176 94
f 126 169 94
f 180 178 17
f 8 180 17
f 129 63 4
f 16 129 4
f 95 132 15
f 9 95 15
f 122 42 19
f 20 122 19
f 139 23 22
f 68 139 22
f 98 120 25
f 26 98 25
f 107 28 29
f 101 107 29
f 152 58 57
f 114 152 57
f 112 111 73
f 72 112 73
f 152 114 40
f 41 152 40
f 68 61 60
f 69 68 60
f 67 69 60
f 62 67 60
f 22 70 59
f 21 22 59
f 163 13 2
f 179 163 2
f 160 118 49
f 50 160 49
f 168 51 78
f 165 168 78
f 155 54 53
f 160 155 53
f 167 177 52
f 76 167 52
f 11 143 78
f 6 11 78
f 81 133 12
f 7 81 12
f 132 81 7
f 15 132 7
f 75 74 54
f 55 75 54
f 128 80 79
f 127 128 79
f 155 156 55
f 54 155 55
f 134 62 60
f 141 134 60
f 122 59 58
f 152 122 58
f 82 24 23
f 139 82 23
f 23 121 70
f 22 23 70
f 84 121 23
f 24 84 23
f 66 128 127
f 65 66 127
f 169 164 92
f 161 169 92
f 64 66 65
f 63 64 65
f 160 53 52
f 118 160 52
f 170 128 66
f 165 170 66
f 138 83 81
f 132 138 81
f 147 71 70
f 121 147 70
f 158 103 102
f 157 158 102
f 120 84 24
f 25 120 24
f 151 91 88
f 157 151 88
f 117 144 91
f 90 117 91
f 144 77 74
f 145 144 74
f 144 117 76
f 77 144 76
f 39 113 35
f 36 39 35
f 126 125 79
f 80 126 79
f 172 18 10
f 166 172 10
f 138 97 96
f 137 138 96
f 126 94 93
f 125 126 93
f 138 137 82
f 83 138 82
f 147 121 84
f 85 147 84
f 27 119 98
f 26 27 98
f 109 87 86
f 110 109 86
f 55 34 33
f 75 55 33
f 131 136 97
f 95 131 97
f 158 157 88
f 89 158 88
f 178 166 10
f 17 178 10
f 151 116 90
f 91 151 90
f 79 125 15
f 7 79 15
f 140 83 82
f 139 140 82
f 124 123 93
f 94 124 93
f 106 161 17
f 10 106 17
f 97 138 132
f 95 97 132
f 136 135 96
f 97 136 96
f 99 148 120
f 98 99 120
f 148 99 100
f 110 148 100
f 109 110 100
f 101 109 100
f 151 157 102
f 105 151 102
f 103 154 153
f 102 103 153
f 159 115 104
f 105 159 104
f 30 158 89
f 31 30 89
f 72 57 58
f 71 72 58
f 70 71 58
f 59 70 58
f 131 95 9
f 14 131 9
f 143 11 8
f 92 143 8
f 74 77 53
f 54 74 53
f 134 45 1
f 16 134 1
f 51 149 13
f 3 51 13
f 134 16 4
f 62 134 4
f 59 122 20
f 21 59 20
f 170 164 80
f 128 170 80
f 100 108 107
f 101 100 107
f 173 124 94
f 176 173 94
f 125 93 9
f 15 125 9
f 135 27 26
f 96 135 26
f 148 85 84
f 120 148 84
f 77 76 52
f 53 77 52
f 137 25 24
f 82 137 24
f 150 99 98
f 119 150 98
f 44 142 20
f 19 44 20
f 146 145 74
f 75 146 74
f 113 56 34
f 35 113 34
f 112 72 71
f 147 112 71
f 146 89 88
f 145 146 88
f 127 12 5
f 65 127 5
f 111 112 86
f 87 111 86
f 142 44 43
f 141 142 43
f 32 111 87
f 31 32 87
f 114 113 39
f 40 114 39
f 55 156 35
f 34 55 35
f 146 32 31
f 89 146 31
f 122 152 41
f 42 122 41
f 61 21 20
f 142 61 20
f 142 141 60
f 61 142 60
f 147 85 86
f 112 147 86
f 153 159 105
f 102 153 105
f 96 26 25
f 137 96 25
f 103 29 28
f 154 103 28
f 151 105 104
f 116 151 104
f 134 141 43
f 45 134 43
f 68 22 21
f 61 68 21
f 140 139 68
f 69 140 68
f 110 86 85
f 148 110 85
f 108 100 99
f 150 108 99
f 158 30 29
f 103 158 29
f 87 109 30
f 31 87 30
f 109 101 29
f 30 109 29
f 145 88 91
f 144 145 91
f 146 75 33
f 32 146 33
f 73 33 34
f 56 73 34
f 73 111 32
f 33 73 32
f 72 73 56
f 57 72 56
f 38 36 35
f 156 38 35
f 160 50 37
f 155 160 37
f 156 155 37
f 38 156 37
f 114 57 56
f 113 114 56
f 176 106 162
f 173 176 162
f 164 170 143
f 92 164 143
f 178 116 104
f 166 178 104
f 172 166 104
f 115 172 104
f 170 165 78
f 143 170 78
f 169 126 80
f 164 169 80
f 3 177 167
f 6 3 167
f 165 66 64
f 168 165 64
f 179 49 118
f 163 179 118
f 178 180 90
f 116 178 90
f 169 161 106
f 176 169 106
f 180 175 117
f 90 180 117
f 163 177 3
f 13 163 3
f 171 149 51
f 168 171 51
f 171 174 48
f 149 171 48
f 175 167 76
f 117 175 76
f 184 232 231
f 183 184 231
f 233 232 184
f 185 233 184
f 224 233 185
f 223 224 185
f 274 275 238
f 237 274 238
f 274 237 236
f 273 274 236
f 272 273 236
f 235 272 236
f 272 235 234
f 271 272 234
f 271 234 195
f 270 271 195
f 291 292 256
f 257 291 256
f 292 293 255
f 256 292 255
f 283 284 266
f 265 283 266
f 283 265 264
f 276 283 264
f 247 250 249
f 248 247 249
f 250 247 246
f 251 250 246
f 251 246 245
f 252 251 245
f 253 252 245
f 244 253 245
f 203 253 244
f 199 203 244
f 260 259 258
f 257 260 258
f 256 261 260
f 257 256 260
f 261 256 255
f 262 261 255
f 254 263 262
f 255 254 262
f 263 254 189
f 182 263 189
f 290 243 242
f 291 290 242
f 191 185 184
f 190 191 184
f 220 223 185
f 191 220 185
f 227 230 229
f 228 227 229
f 230 227 183
f 231 230 183
f 188 190 184
f 183 188 184
f 187 188 183
f 227 187 183
f 228 186 187
f 227 228 187
f 288 208 207
f 226 288 207
f 293 240 239
f 294 293 239
f 292 241 240
f 293 292 240
f 291 242 241
f 292 291 241
f 290 291 257
f 258 290 257
f 278 204 206
f 277 278 206
f 279 202 204
f 278 279 204
f 279 280 201
f 202 279 201
f 280 281 200
f 201 280 200
f 281 282 198
f 200 281 198
f 225 226 207
f 205 225 207
f 240 241 231
f 232 240 231
f 242 230 231
f 241 242 231
f 242 243 229
f 230 242 229
f 205 233 224
f 225 205 224
f 214 220 191
f 216 214 191
f 216 191 190
f 215 216 190
f 215 190 188
f 213 215 188
f 213 188 187
f 212 213 187
f 212 187 186
f 211 212 186
f 263 182 181
f 217 263 181
f 262 263 217
f 218 262 217
f 261 262 218
f 219 261 218
f 260 261 219
f 221 260 219
f 259 260 221
f 222 259 221
f 195 234 217
f 181 195 217
f 235 218 217
f 234 235 217
f 236 219 218
f 235 236 218
f 236 237 221
f 219 236 221
f 237 238 222
f 221 237 222
f 202 299 297
f 204 202 297
f 299 202 201
f 301 299 201
f 303 301 201
f 200 303 201
f 198 305 303
f 200 198 303
f 216 192 210
f 214 216 210
f 216 215 193
f 192 216 193
f 193 215 213
f 194 193 213
f 213 212 196
f 194 213 196
f 196 212 211
f 197 196 211
f 284 285 267
f 266 284 267
f 285 286 268
f 267 285 268
f 286 287 269
f 268 286 269
f 271 270 264
f 265 271 264
f 272 271 265
f 266 272 265
f 267 273 272
f 266 267 272
f 274 273 267
f 268 274 267
f 275 274 268
f 269 275 268
f 285 284 245
f 246 285 245
f 286 285 246
f 247 286 246
f 248 287 286
f 247 248 286
f 304 306 249
f 250 304 249
f 282 281 196
f 197 282 196
f 196 281 280
f 194 196 280
f 280 279 193
f 194 280 193
f 279 278 192
f 193 279 192
f 192 278 277
f 210 192 277
f 302 304 250
f 251 302 250
f 300 302 251
f 252 300 251
f 298 300 252
f 253 298 252
f 298 253 203
f 296 298 203
f 297 295 206
f 204 297 206
f 283 276 199
f 244 283 199
f 284 283 244
f 245 284 244
f 294 208 209
f 254 294 209
f 207 239 233
f 205 207 233
f 208 294 239
f 207 208 239
f 289 209 208
f 288 289 208
f 189 254 209
f 289 189 209
f 306 304 303
f 305 306 303
f 304 302 301
f 303 304 301
f 302 300 299
f 301 302 299
f 300 298 297
f 299 300 297
f 298 296 295
f 297 298 295
f 293 294 254
f 255 293 254
f 240 232 233
f 239 240 233
f 228 119 27
f 186 228 27
f 211 186 27
f 135 211 27
f 197 211 135
f 136 197 135
f 131 282 197
f 136 131 197
f 282 131 14
f 198 282 14
f 305 198 14
f 123 305 14
f 306 305 123
f 124 306 123
f 249 306 124
f 173 249 124
f 249 173 162
f 248 249 162
f 248 162 18
f 287 248 18
f 269 287 18
f 172 269 18
f 269 172 115
f 275 269 115
f 238 275 115
f 159 238 115
f 238 159 153
f 222 238 153
f 154 259 222
f 153 154 222
f 259 154 28
f 258 259 28
f 290 258 28
f 107 290 28
f 243 290 107
f 108 243 107
f 229 243 108
f 150 229 108
f 229 150 119
f 228 229 119
