# Level-zero anatomical extract from Blender Human Base Meshes v1.4.1 (CC0)
o human-hand-l
v -0.4280419 -0.0598734 0.7233894
v -0.4291248 -0.0616110 0.7233555
v -0.4293315 -0.0619621 0.7264411
v -0.4278194 -0.0598035 0.7261890
v -0.4280417 -0.0604212 0.7293677
v -0.4288989 -0.0627142 0.7300069
v -0.4284098 -0.0650917 0.7293805
v -0.4289607 -0.0649429 0.7265168
v -0.4294291 -0.0637933 0.7240707
v -0.4317802 -0.1110623 0.7221255
v -0.4312941 -0.1085523 0.7203797
v -0.4309932 -0.1099679 0.7167290
v -0.4314407 -0.1130477 0.7182283
v -0.4306082 -0.1152652 0.7151335
v -0.4308612 -0.1125752 0.7140220
v -0.4306228 -0.1139355 0.7226952
v -0.4298947 -0.1157923 0.7195663
v -0.4294882 -0.1170620 0.7166688
v -0.4362664 -0.1440254 0.7289044
v -0.4370919 -0.1416329 0.7273832
v -0.4371935 -0.1433869 0.7243802
v -0.4358700 -0.1461724 0.7254303
v -0.4354064 -0.1477679 0.7224740
v -0.4370837 -0.1454318 0.7218034
v -0.4340375 -0.1465854 0.7292742
v -0.4333467 -0.1483302 0.7258542
v -0.4333632 -0.1491051 0.7231384
v -0.4227841 -0.1688814 0.7438128
v -0.4229193 -0.1659771 0.7426609
v -0.4233528 -0.1642392 0.7450541
v -0.4235229 -0.1678110 0.7465858
v -0.4239215 -0.1663410 0.7498404
v -0.4240281 -0.1633913 0.7482591
v -0.4219769 -0.1692454 0.7504917
v -0.4212177 -0.1708204 0.7477180
v -0.4214076 -0.1710999 0.7452223
v -0.3685614 -0.1785930 0.8125471
v -0.3724030 -0.1773622 0.8120132
v -0.3737702 -0.1735995 0.8138681
v -0.3689273 -0.1749619 0.8153952
v -0.3732915 -0.1698613 0.8165299
v -0.3688772 -0.1705050 0.8179243
v -0.3647774 -0.1705951 0.8161911
v -0.3643149 -0.1741502 0.8136097
v -0.3648737 -0.1775007 0.8114874
v -0.4324869 -0.1093825 0.7266747
v -0.4300942 -0.1146594 0.7266578
v -0.4274969 -0.1177615 0.7204820
v -0.4277396 -0.1180626 0.7160913
v -0.4285041 -0.1156606 0.7135961
v -0.4289974 -0.1120369 0.7125145
v -0.4293987 -0.1075162 0.7154241
v -0.4310183 -0.1052887 0.7226282
v -0.4334681 -0.1013999 0.7313192
v -0.4352604 -0.1071990 0.7336470
v -0.4324082 -0.1126970 0.7353659
v -0.4280826 -0.0986219 0.7303793
v -0.4262584 -0.1018014 0.7216183
v -0.4249947 -0.1060207 0.7142850
v -0.4266878 -0.1137071 0.7359648
v -0.4245679 -0.1161572 0.7279241
v -0.4230190 -0.1182000 0.7205282
v -0.4203841 -0.1147108 0.7193480
v -0.4205426 -0.1127689 0.7268386
v -0.4224305 -0.1103864 0.7349315
v -0.4230357 -0.1008408 0.7313074
v -0.4214353 -0.1038715 0.7227927
v -0.4213542 -0.1079941 0.7157648
v -0.4195478 -0.1111693 0.7174190
v -0.4192512 -0.1081019 0.7248991
v -0.4218132 -0.1055905 0.7330293
v -0.4235203 -0.1081099 0.7435585
v -0.4292252 -0.0958284 0.7396253
v -0.4350632 -0.0980956 0.7403535
v -0.4283082 -0.1107498 0.7444971
v -0.4225915 -0.1031093 0.7418094
v -0.4239222 -0.0980466 0.7402668
v -0.4341801 -0.1097807 0.7441551
v -0.4369615 -0.1042218 0.7424067
v -0.4244841 -0.1015748 0.7786508
v -0.4304111 -0.0983470 0.7820023
v -0.4327236 -0.0905645 0.7819308
v -0.4280948 -0.0847569 0.7785483
v -0.4221970 -0.0843669 0.7754478
v -0.4178326 -0.0874383 0.7744258
v -0.4169545 -0.0934960 0.7754127
v -0.4185205 -0.0999290 0.7762725
v -0.4248999 -0.0555239 0.7393953
v -0.4198053 -0.0559852 0.7387483
v -0.4174251 -0.0608062 0.7386217
v -0.4186006 -0.0661280 0.7389300
v -0.4221294 -0.0697984 0.7394122
v -0.4271692 -0.0687268 0.7400430
v -0.4300179 -0.0644087 0.7405201
v -0.4288841 -0.0591179 0.7401042
v -0.4270527 -0.0588335 0.7597805
v -0.4287783 -0.0652329 0.7603185
v -0.4252321 -0.0700940 0.7590951
v -0.4198343 -0.0707424 0.7572505
v -0.4163358 -0.0666886 0.7561303
v -0.4147546 -0.0615515 0.7557230
v -0.4164158 -0.0565983 0.7564280
v -0.4216416 -0.0551705 0.7580988
v -0.4090658 -0.0589936 0.7785560
v -0.4128594 -0.0572316 0.7807128
v -0.4172881 -0.0587553 0.7835647
v -0.4204116 -0.0636882 0.7857995
v -0.4183378 -0.0714005 0.7850894
v -0.4158600 -0.0757900 0.7786243
v -0.4083157 -0.0730984 0.7775044
v -0.4072164 -0.0643773 0.7777316
v -0.4392116 -0.1332314 0.7384520
v -0.4261301 -0.1331733 0.7377940
v -0.4252146 -0.1385344 0.7401338
v -0.4347197 -0.1437869 0.7429783
v -0.4352990 -0.1296175 0.7364525
v -0.4297336 -0.1290632 0.7360534
v -0.4283240 -0.1433070 0.7423365
v -0.4389777 -0.1388748 0.7413775
v -0.4244153 -0.1075374 0.7803124
v -0.4302513 -0.1083660 0.7853211
v -0.4323905 -0.1149682 0.7911802
v -0.4265035 -0.1216651 0.7924622
v -0.4196867 -0.1235528 0.7892882
v -0.4154539 -0.1203804 0.7850890
v -0.4161134 -0.1146035 0.7818364
v -0.4186298 -0.1095066 0.7790238
v -0.4289491 -0.1063520 0.7616288
v -0.4239473 -0.1037081 0.7597079
v -0.4234728 -0.0985369 0.7580027
v -0.4183702 -0.1682046 0.7633387
v -0.4134728 -0.1652834 0.7620029
v -0.4215596 -0.1527364 0.7560697
v -0.4262361 -0.1558235 0.7576940
v -0.4273128 -0.1612846 0.7604736
v -0.4244943 -0.0936106 0.7566363
v -0.4289812 -0.0901807 0.7564934
v -0.4359759 -0.0908767 0.7582175
v -0.4400255 -0.0978655 0.7612033
v -0.4240095 -0.1664786 0.7626050
v -0.4130802 -0.1595627 0.7592659
v -0.4158219 -0.1543348 0.7567732
v -0.4360849 -0.1051430 0.7627724
v -0.4095305 -0.1424320 0.8056860
v -0.4157436 -0.1401216 0.8081129
v -0.4213501 -0.1343157 0.8074209
v -0.4202936 -0.1264488 0.8019881
v -0.4155954 -0.1259397 0.7932419
v -0.4071386 -0.1276806 0.7925915
v -0.4041565 -0.1353883 0.7968494
v -0.4050801 -0.1407373 0.8013614
v -0.4261453 -0.1435441 0.7932817
v -0.4251131 -0.1367357 0.7886572
v -0.4190043 -0.1346075 0.7846678
v -0.4118389 -0.1368438 0.7829452
v -0.4082087 -0.1434654 0.7858419
v -0.4090244 -0.1493567 0.7902787
v -0.4144206 -0.1516146 0.7940666
v -0.4214016 -0.1498136 0.7954757
v -0.4281451 -0.1565097 0.7694572
v -0.4265863 -0.1512231 0.7665204
v -0.4217491 -0.1489035 0.7646499
v -0.4160962 -0.1503159 0.7647122
v -0.4131182 -0.1553778 0.7671000
v -0.4135260 -0.1609265 0.7701827
v -0.4183870 -0.1639416 0.7722977
v -0.4245679 -0.1619029 0.7718791
v -0.4349447 -0.1396960 0.7539626
v -0.4281913 -0.1391545 0.7527854
v -0.4245553 -0.1348886 0.7502330
v -0.4253293 -0.1295670 0.7478449
v -0.4285370 -0.1251100 0.7462354
v -0.4344804 -0.1248362 0.7468659
v -0.4397382 -0.1280331 0.7490552
v -0.4400257 -0.1345211 0.7522509
v -0.4372863 -0.0943910 0.7717182
v -0.4334497 -0.0874412 0.7683911
v -0.4264295 -0.0874207 0.7660313
v -0.4207440 -0.0900512 0.7650229
v -0.4190744 -0.0960976 0.7662818
v -0.4206780 -0.1023974 0.7683530
v -0.4270111 -0.1039881 0.7708117
v -0.4341218 -0.1021654 0.7728420
v -0.4384971 -0.1010695 0.7516043
v -0.4357783 -0.0948304 0.7493129
v -0.4296060 -0.0929957 0.7481740
v -0.4242471 -0.0955896 0.7485374
v -0.4227021 -0.1008231 0.7500166
v -0.4237603 -0.1060270 0.7517805
v -0.4290057 -0.1084704 0.7530984
v -0.4354169 -0.1070998 0.7532570
v -0.4259269 -0.0686067 0.7492861
v -0.4212165 -0.0696348 0.7482310
v -0.4176382 -0.0661582 0.7474828
v -0.4164465 -0.0609247 0.7472038
v -0.4185054 -0.0561333 0.7475844
v -0.4238105 -0.0554963 0.7486488
v -0.4285810 -0.0591952 0.7496793
v -0.4294369 -0.0649150 0.7499706
v -0.4269755 -0.0647089 0.7699298
v -0.4237596 -0.0706692 0.7684665
v -0.4181423 -0.0729130 0.7655499
v -0.4134934 -0.0684500 0.7637649
v -0.4121920 -0.0623809 0.7635102
v -0.4141957 -0.0574162 0.7646177
v -0.4188998 -0.0554634 0.7667633
v -0.4244871 -0.0580728 0.7690537
v -0.4332480 -0.1469728 0.7330619
v -0.4372753 -0.1419413 0.7333318
v -0.4370209 -0.1380111 0.7295093
v -0.4366499 -0.1404244 0.7227749
v -0.4364214 -0.1442065 0.7199312
v -0.4340484 -0.1475501 0.7201183
v -0.4318013 -0.1495543 0.7220107
v -0.4310405 -0.1499092 0.7261577
v -0.4252403 -0.1115259 0.7119458
v -0.4228601 -0.1114207 0.7130530
v -0.4224516 -0.1134974 0.7137330
v -0.4221761 -0.1152109 0.7152768
v -0.4240542 -0.1172099 0.7150900
v -0.4277695 -0.0675966 0.7319717
v -0.4291954 -0.0634904 0.7338440
v -0.4270439 -0.0596603 0.7317457
v -0.4257265 -0.0591466 0.7261736
v -0.4265362 -0.0596305 0.7225686
v -0.4276308 -0.0621408 0.7215829
v -0.4283018 -0.0652590 0.7229637
v -0.4278832 -0.0677286 0.7262268
v -0.4243545 -0.1600673 0.7500787
v -0.4248456 -0.1644464 0.7536839
v -0.4213357 -0.1693479 0.7539521
v -0.4191577 -0.1718369 0.7484378
v -0.4198390 -0.1716749 0.7446169
v -0.4207844 -0.1690272 0.7422473
v -0.4215129 -0.1651220 0.7411163
v -0.4225160 -0.1614999 0.7438629
v -0.4171486 -0.1712088 0.7551868
v -0.4161012 -0.1728385 0.7487665
v -0.4130469 -0.1684115 0.7542036
v -0.4133267 -0.1701399 0.7479178
v -0.4204446 -0.1560915 0.7485544
v -0.4190749 -0.1595418 0.7427939
v -0.4146240 -0.1576249 0.7493972
v -0.4145652 -0.1613048 0.7438241
v -0.4115656 -0.1628975 0.7518582
v -0.4123335 -0.1657039 0.7458379
v -0.4168093 -0.1717269 0.7440657
v -0.4146032 -0.1703443 0.7442385
v -0.4145837 -0.1676102 0.7422474
v -0.4154690 -0.1643440 0.7413084
v -0.4183004 -0.1642550 0.7402539
v -0.4351531 -0.1337890 0.7275845
v -0.4300379 -0.1324740 0.7268925
v -0.4252903 -0.1360143 0.7284400
v -0.4242388 -0.1417781 0.7308156
v -0.4271122 -0.1467843 0.7329109
v -0.4270622 -0.1486426 0.7250894
v -0.4249294 -0.1443221 0.7232638
v -0.4259865 -0.1391619 0.7209798
v -0.4306212 -0.1361178 0.7198903
v -0.4354348 -0.1370519 0.7206020
v -0.4343242 -0.1417412 0.7173907
v -0.4312565 -0.1399830 0.7171142
v -0.4286898 -0.1427510 0.7177928
v -0.4272928 -0.1453805 0.7198426
v -0.4291272 -0.1480808 0.7204840
v -0.4244590 -0.0565395 0.7316508
v -0.4204610 -0.0566281 0.7309709
v -0.4177421 -0.0610417 0.7307663
v -0.4183974 -0.0667068 0.7310594
v -0.4226537 -0.0702246 0.7315798
v -0.4238807 -0.0693155 0.7252666
v -0.4201905 -0.0665783 0.7248220
v -0.4195894 -0.0619977 0.7247566
v -0.4214143 -0.0582025 0.7250959
v -0.4242789 -0.0571927 0.7256516
v -0.4242913 -0.0595522 0.7219628
v -0.4224442 -0.0600979 0.7223240
v -0.4219461 -0.0629771 0.7216902
v -0.4221694 -0.0658115 0.7221377
v -0.4249648 -0.0667635 0.7215878
v -0.3760221 -0.1671453 0.8175399
v -0.3763764 -0.1728174 0.8121965
v -0.3735617 -0.1778664 0.8102716
v -0.3686596 -0.1794551 0.8099256
v -0.3639648 -0.1776768 0.8092691
v -0.3620930 -0.1726882 0.8108370
v -0.3624213 -0.1671426 0.8164513
v -0.3688391 -0.1674781 0.8208036
v -0.3767510 -0.1613324 0.8231856
v -0.3690928 -0.1633006 0.8256149
v -0.3615668 -0.1621018 0.8228652
v -0.3709524 -0.1018696 0.8666157
v -0.3808386 -0.1301017 0.8420494
v -0.3861508 -0.1281311 0.8412786
v -0.3914904 -0.1288672 0.8365473
v -0.4061593 -0.1267514 0.8282074
v -0.3659252 -0.1743520 0.8032880
v -0.3738140 -0.1749808 0.8044043
v -0.3785327 -0.1723308 0.8088694
v -0.3704251 -0.1688924 0.8030626
v -0.3606220 -0.1713424 0.8069437
v -0.3634252 -0.1618065 0.8064938
v -0.3776506 -0.1623805 0.8072372
v -0.3804795 -0.1652208 0.8125778
v -0.3809070 -0.1580353 0.8176428
v -0.3781439 -0.1543926 0.8120033
v -0.3704395 -0.1530969 0.8101679
v -0.3624075 -0.1541307 0.8116854
v -0.3582602 -0.1581051 0.8169726
v -0.3786233 -0.1347503 0.8394079
v -0.3770896 -0.1367805 0.8481987
v -0.3688488 -0.1382399 0.8527294
v -0.3595607 -0.1371844 0.8503885
v -0.3552721 -0.1339638 0.8433115
v -0.3572351 -0.1305728 0.8353131
v -0.3659172 -0.1285738 0.8298987
v -0.3758000 -0.1325520 0.8310317
v -0.3588923 -0.1463011 0.8314235
v -0.3614421 -0.1419810 0.8260482
v -0.3680956 -0.1395240 0.8229534
v -0.3751337 -0.1408900 0.8249654
v -0.3776322 -0.1448895 0.8302400
v -0.3757494 -0.1490308 0.8355858
v -0.3694806 -0.1515312 0.8383303
v -0.3622238 -0.1504174 0.8365262
v -0.3617321 -0.1568426 0.8298342
v -0.3584199 -0.1521762 0.8242602
v -0.3621251 -0.1479183 0.8191428
v -0.3695746 -0.1467313 0.8176549
v -0.3767803 -0.1474348 0.8188403
v -0.3795323 -0.1511322 0.8238901
v -0.3767070 -0.1554040 0.8293393
v -0.3695821 -0.1582799 0.8321798
v -0.3676043 -0.1276087 0.8576891
v -0.3782800 -0.1258190 0.8537550
v -0.3873002 -0.1169329 0.8506608
v -0.3957937 -0.1198948 0.8422754
v -0.3996291 -0.1315538 0.8238965
v -0.3642370 -0.1766491 0.8056363
v -0.3699497 -0.1750694 0.8031835
v -0.3743034 -0.1771666 0.8071187
v -0.3759468 -0.1701715 0.8047926
v -0.3645470 -0.1693010 0.8035655
v -0.3589786 -0.1645522 0.8109648
v -0.3706287 -0.1610328 0.8052985
v -0.4115780 -0.1198662 0.8303352
v -0.3995188 -0.1099852 0.8441464
v -0.3930393 -0.1054415 0.8521442
v -0.4152763 -0.1043025 0.8273830
v -0.4052104 -0.0950006 0.8443545
v -0.4013439 -0.0911557 0.8532421
v -0.4175092 -0.0972375 0.8260480
v -0.4077287 -0.0884744 0.8435102
v -0.4032428 -0.0848142 0.8521154
v -0.4162058 -0.0781393 0.8184907
v -0.4082530 -0.0705081 0.8371443
v -0.4044483 -0.0671542 0.8463005
v -0.4133732 -0.0649845 0.8122315
v -0.4056172 -0.0582349 0.8308736
v -0.4020172 -0.0551229 0.8403531
v -0.4103721 -0.0588755 0.8088311
v -0.4026280 -0.0524114 0.8270233
v -0.3990663 -0.0496417 0.8365399
v -0.4055191 -0.0546659 0.8050612
v -0.3981730 -0.0479751 0.8229089
v -0.3944993 -0.0456274 0.8323091
v -0.4008601 -0.0516628 0.8012708
v -0.3930187 -0.0454409 0.8187162
v -0.3890483 -0.0434744 0.8280627
v -0.3953123 -0.0531859 0.7981095
v -0.3868710 -0.0472376 0.8149628
v -0.3827219 -0.0450625 0.8240985
v -0.3912006 -0.0593109 0.7969606
v -0.3808819 -0.0529577 0.8121582
v -0.3761901 -0.0501800 0.8207468
v -0.3909229 -0.0677836 0.7985734
v -0.3792349 -0.0624064 0.8127292
v -0.3735828 -0.0596368 0.8202794
v -0.3928134 -0.0762513 0.8013023
v -0.3821083 -0.0709361 0.8158326
v -0.3759554 -0.0686323 0.8225244
v -0.3944386 -0.0843261 0.8037975
v -0.3843074 -0.0791479 0.8182217
v -0.3782822 -0.0769079 0.8245116
v -0.3817121 -0.1302576 0.8315854
v -0.3782175 -0.1311229 0.8324015
v -0.3858884 -0.1299265 0.8280259
v -0.3940823 -0.1311496 0.8180858
v -0.3586031 -0.1273150 0.8549557
v -0.3642866 -0.1047637 0.8651878
v -0.3575118 -0.1056661 0.8619368
v -0.3634446 -0.0936066 0.8733504
v -0.3591154 -0.0928213 0.8686802
v -0.3603664 -0.0862683 0.8856338
v -0.3571413 -0.0826527 0.8809279
v -0.3537248 -0.1255895 0.8478647
v -0.3522375 -0.1053713 0.8554533
v -0.3548917 -0.0904555 0.8614954
v -0.3550943 -0.0782606 0.8755738
v -0.3544059 -0.1232145 0.8389124
v -0.3511793 -0.1050898 0.8452057
v -0.3511841 -0.0942922 0.8478106
v -0.3921790 -0.1260597 0.8135564
v -0.3924803 -0.1196556 0.8109270
v -0.3941973 -0.1123415 0.8098879
v -0.3949758 -0.1049971 0.8085295
v -0.4187055 -0.1170917 0.8217687
v -0.4169474 -0.0673723 0.8038677
v -0.3842033 -0.1021040 0.8206679
v -0.3827039 -0.1094849 0.8204876
v -0.3809199 -0.1171358 0.8197489
v -0.3818572 -0.1251076 0.8218634
v -0.3764026 -0.1258172 0.8246688
v -0.3719103 -0.1262058 0.8278689
v -0.4176459 -0.0747804 0.8066658
v -0.3599448 -0.1210128 0.8315661
v -0.3669766 -0.1188046 0.8277001
v -0.3738293 -0.1158946 0.8245346
v -0.3764809 -0.1079649 0.8250635
v -0.3619736 -0.1048860 0.8293728
v -0.3552634 -0.1048176 0.8356819
v -0.3777013 -0.1005689 0.8251760
v -0.3621079 -0.0970390 0.8306835
v -0.3552416 -0.0958659 0.8375526
v -0.3686181 -0.0933635 0.8766527
v -0.3656512 -0.0889024 0.8894059
v -0.3934195 -0.0839997 0.8711733
v -0.3904485 -0.0807014 0.8817440
v -0.3956670 -0.0782599 0.8701469
v -0.3928239 -0.0753033 0.8807759
v -0.3875650 -0.0770407 0.8935203
v -0.3901510 -0.0711175 0.8925042
v -0.3979273 -0.0612515 0.8647959
v -0.3970295 -0.0582578 0.8756639
v -0.3960866 -0.0529271 0.8877637
v -0.3964725 -0.0495633 0.8594557
v -0.3951516 -0.0464042 0.8703913
v -0.3932650 -0.0409356 0.8821569
v -0.3926962 -0.0451825 0.8560556
v -0.3909664 -0.0425563 0.8673811
v -0.3890430 -0.0382513 0.8797785
v -0.4143769 -0.0609320 0.8009461
v -0.4096306 -0.0568736 0.7973481
v -0.3974972 -0.1339621 0.8126265
v -0.3949606 -0.0703808 0.7906339
v -0.3966596 -0.0790507 0.7932824
v -0.3875578 -0.0419268 0.8523083
v -0.3847254 -0.0398864 0.8638432
v -0.3828472 -0.0370466 0.8770300
v -0.3815087 -0.0408046 0.8484798
v -0.3785364 -0.0387174 0.8601220
v -0.3757866 -0.0365672 0.8730501
v -0.3746583 -0.0413055 0.8444939
v -0.3716044 -0.0395298 0.8562496
v -0.3684592 -0.0381133 0.8681985
v -0.3669852 -0.0452565 0.8405547
v -0.3646070 -0.0450316 0.8525357
v -0.3628332 -0.0449601 0.8641097
v -0.3624596 -0.0544058 0.8377358
v -0.3630971 -0.0643870 0.8364173
v -0.3642456 -0.0730702 0.8352492
v -0.3584364 -0.0718091 0.8417031
v -0.3583450 -0.0638118 0.8449838
v -0.3593372 -0.0540297 0.8491280
v -0.3581321 -0.0561020 0.8616534
v -0.3573331 -0.0663326 0.8530952
v -0.3563894 -0.0716736 0.8478395
v -0.4318478 -0.1459145 0.7178318
v -0.4251392 -0.1149298 0.7127524
v -0.4246266 -0.0629843 0.7206324
v -0.4176706 -0.1687810 0.7410672
v -0.3692152 -0.1786680 0.8061529
v -0.3984806 -0.0869954 0.7958643
v -0.3987634 -0.1067887 0.8009710
v -0.3971502 -0.1142415 0.8025347
v -0.3960507 -0.1219551 0.8046683
v -0.3816831 -0.0904818 0.8816063
v -0.3791238 -0.0871357 0.8937523
v -0.3844860 -0.0950435 0.8711367
v -0.3752981 -0.0926080 0.8796426
v -0.3724430 -0.0893712 0.8921932
v -0.3780512 -0.0996554 0.8698988
v -0.4090075 -0.1202297 0.7898020
v -0.4164374 -0.1229504 0.7935002
v -0.4220183 -0.1189414 0.8002252
v -0.4106236 -0.0822678 0.7793924
v -0.4172801 -0.0798612 0.7806275
v -0.4211918 -0.0804404 0.7874695
v -0.3841891 -0.0824669 0.8940166
v -0.3980276 -0.0978936 0.8534181
v -0.4041350 -0.1024558 0.8458667
v -0.4143558 -0.1119736 0.8295121
v -0.4288856 -0.1110627 0.7995515
v -0.4275861 -0.0870223 0.7912234
v -0.4152788 -0.0716039 0.8155622
v -0.4070172 -0.0645695 0.8342090
v -0.4035072 -0.0612222 0.8435726
v -0.3977994 -0.0551909 0.8623663
v -0.3970474 -0.0518889 0.8731242
v -0.3959962 -0.0463688 0.8851714
v -0.3868822 -0.0858658 0.8820923
v -0.3895991 -0.0896412 0.8714538
v -0.4064782 -0.1384287 0.8118707
v -0.4103521 -0.0914408 0.7811259
v -0.4131886 -0.1357214 0.8150581
v -0.4013643 -0.1372287 0.8069805
v -0.4011024 -0.0636473 0.7828838
v -0.4089860 -0.0565540 0.7871041
v -0.4097254 -0.1117990 0.7870124
v -0.4135359 -0.0582662 0.7903502
v -0.4044352 -0.0580312 0.7844021
v -0.3994772 -0.1321081 0.8020262
v -0.4193195 -0.1298672 0.8155314
v -0.4264717 -0.1067774 0.8090845
v -0.4220555 -0.1140769 0.8104932
v -0.4176486 -0.0624845 0.7934555
v -0.4242578 -0.0839637 0.8008227
v -0.4201757 -0.0772810 0.7978660
v -0.4181847 -0.0695630 0.7953026
v -0.4208775 -0.1219075 0.8127517
v -0.4005094 -0.0722370 0.7833081
v -0.3999319 -0.1247863 0.7979112
v -0.4013522 -0.1167940 0.7952665
v -0.4022467 -0.0810324 0.7856950
v -0.4039941 -0.0892447 0.7881875
v -0.4035303 -0.1091257 0.7936407
v -0.4102856 -0.1316270 0.8222634
v -0.4032437 -0.1345942 0.8179694
v -0.3996812 -0.0559576 0.7907502
v -0.4048267 -0.0547046 0.7938073
v -0.4166383 -0.1253564 0.8238686
v -0.4225349 -0.1019400 0.8178746
v -0.4197748 -0.1092319 0.8193554
v -0.4206000 -0.0811220 0.8098783
v -0.3952551 -0.1290258 0.8077306
v -0.3956181 -0.0617841 0.7893468
v -0.4012897 -0.1228759 0.8346586
v -0.3957235 -0.1300898 0.8301497
v -0.4057296 -0.1144789 0.8366235
v -0.4101490 -0.0994181 0.8356002
v -0.4126351 -0.0926707 0.8346892
v -0.4121527 -0.0743415 0.8276556
v -0.4093076 -0.0617804 0.8212558
v -0.4064892 -0.0557148 0.8176151
v -0.4016802 -0.0513961 0.8136742
v -0.3968621 -0.0484279 0.8096701
v -0.3909550 -0.0500233 0.8061925
v -0.3858331 -0.0561321 0.8042456
v -0.3851175 -0.0651721 0.8056345
v -0.3878053 -0.0735532 0.8088048
v -0.3897720 -0.0816658 0.8113677
v -0.3901479 -0.1299242 0.8232301
v -0.3903300 -0.1035106 0.8153222
v -0.3884603 -0.1107868 0.8151555
v -0.3869060 -0.1181513 0.8154425
v -0.3876817 -0.1246915 0.8184084
v -0.4111142 -0.0681569 0.8247116
v -0.4096086 -0.1069331 0.8375794
v -0.4120719 -0.1469156 0.7999318
v -0.4236783 -0.1389866 0.8003598
v -0.4226735 -0.1320758 0.7950850
v -0.4168117 -0.1302624 0.7900228
v -0.4100361 -0.1330786 0.7885986
v -0.4060456 -0.1394638 0.7913111
v -0.4069631 -0.1450831 0.7959176
v -0.4186294 -0.1450655 0.8019906
v -0.4276991 -0.1112344 0.7733972
v -0.4361881 -0.1194306 0.7823175
v -0.4307001 -0.1262142 0.7841122
v -0.4231680 -0.1270797 0.7814906
v -0.4180776 -0.1240545 0.7773609
v -0.4182734 -0.1181807 0.7737414
v -0.4214448 -0.1127787 0.7716875
v -0.4342228 -0.1124700 0.7772613
v -0.4114390 -0.0579888 0.7718394
v -0.4237338 -0.0641555 0.7782607
v -0.4215009 -0.0706898 0.7767531
v -0.4165611 -0.0744798 0.7731474
v -0.4110960 -0.0701579 0.7710181
v -0.4091653 -0.0633095 0.7706093
v -0.4158989 -0.0563303 0.7741562
v -0.4208630 -0.0583697 0.7767437
v -0.4218887 -0.1223883 0.7654621
v -0.4248687 -0.1262920 0.7572863
v -0.4239570 -0.1312067 0.7595676
v -0.4212987 -0.1279895 0.7683930
v -0.4273406 -0.1354227 0.7627158
v -0.4259992 -0.1316178 0.7721228
v -0.4402701 -0.1296248 0.7630144
v -0.4398625 -0.1246983 0.7729770
v -0.4381349 -0.1169911 0.7683004
v -0.4394634 -0.1225188 0.7591100
v -0.4331305 -0.1199468 0.7564073
v -0.4310478 -0.1153890 0.7649986
v -0.4272693 -0.1217326 0.7557824
v -0.4248483 -0.1173893 0.7637711
v -0.4337947 -0.1314886 0.7747129
v -0.4347626 -0.1356806 0.7647241
v -0.4127287 -0.1569114 0.7776603
v -0.4117890 -0.1530247 0.7843002
v -0.4209578 -0.1391314 0.7786958
v -0.4216054 -0.1441266 0.7722652
v -0.4288273 -0.1519830 0.7782589
v -0.4289649 -0.1479460 0.7863038
v -0.4164803 -0.1561685 0.7877472
v -0.4176027 -0.1601787 0.7805945
v -0.4116512 -0.1474169 0.7807404
v -0.4125247 -0.1512492 0.7742838
v -0.4156360 -0.1459478 0.7719249
v -0.4147175 -0.1417241 0.7782155
v -0.4271553 -0.1412739 0.7818648
v -0.4272841 -0.1460622 0.7745933
v -0.4238756 -0.1544660 0.7887238
v -0.4245805 -0.1579867 0.7807342
v -0.3532669 -0.0846075 0.8487995
v -0.3549592 -0.0767744 0.8485836
v -0.3549841 -0.0719634 0.8574802
v -0.3550535 -0.0798657 0.8599783
v -0.3544743 -0.0649554 0.8667795
v -0.3534766 -0.0727330 0.8707756
v -0.3960389 -0.0913925 0.8061298
v -0.3958981 -0.0981389 0.8074904
v -0.3853232 -0.0870289 0.8197989
v -0.3856643 -0.0946667 0.8210747
v -0.3790230 -0.0850057 0.8253615
v -0.3785724 -0.0929124 0.8252792
v -0.3578740 -0.0791543 0.8401581
v -0.3562754 -0.0870298 0.8388321
v -0.3630124 -0.0889125 0.8321095
v -0.3640148 -0.0809844 0.8336779
v -0.4004042 -0.1001862 0.7998601
v -0.4000598 -0.0938264 0.7980971
v -0.4129821 -0.0996648 0.7815799
v -0.4127523 -0.1051851 0.7831189
v -0.4218614 -0.1010009 0.7834286
v -0.4219458 -0.1037990 0.7840217
v -0.4266841 -0.1033056 0.7930519
v -0.4256530 -0.0958951 0.7906734
v -0.4173601 -0.0906322 0.8235691
v -0.4170999 -0.0842921 0.8211666
v -0.4088136 -0.0763297 0.8396196
v -0.4079390 -0.0823069 0.8414446
v -0.4048151 -0.0729384 0.8486137
v -0.4042557 -0.0787846 0.8504729
v -0.3978477 -0.0672928 0.8669458
v -0.3970532 -0.0727137 0.8687317
v -0.3956178 -0.0638645 0.8778862
v -0.3942297 -0.0693817 0.8793677
v -0.3943079 -0.0593144 0.8897615
v -0.3922439 -0.0653274 0.8912445
v -0.4253054 -0.0990453 0.8053220
v -0.4235829 -0.0917266 0.8025005
v -0.4045476 -0.1026826 0.7911022
v -0.4044335 -0.0966107 0.7892190
v -0.4219768 -0.0947854 0.8149323
v -0.4210498 -0.0879608 0.8122360
v -0.3916511 -0.0963355 0.8150501
v -0.3915370 -0.0890399 0.8137566
v -0.4126985 -0.0803034 0.8301907
v -0.4125510 -0.0863809 0.8323652
v -0.3773960 -0.1395259 0.8353871
v -0.3755911 -0.1430776 0.8416904
v -0.3690488 -0.1448189 0.8448391
v -0.3615737 -0.1438287 0.8431567
v -0.3575145 -0.1405469 0.8377765
v -0.3601772 -0.1366234 0.8317223
v -0.3669067 -0.1343527 0.8277812
v -0.3744717 -0.1358108 0.8293356
v -0.3990662 -0.0815524 0.8607126
v -0.4003952 -0.0757002 0.8592312
v -0.3953661 -0.0476294 0.8458993
v -0.3786137 -0.0436215 0.8339637
v -0.3850276 -0.0428289 0.8378959
v -0.4007331 -0.0699923 0.8573148
v -0.3684768 -0.0568881 0.8287482
v -0.3814655 -0.1073024 0.8609366
v -0.3986408 -0.0525700 0.8495345
v -0.4002749 -0.0583263 0.8526565
v -0.3905977 -0.0442904 0.8419138
v -0.3927130 -0.0933439 0.8615078
v -0.3873541 -0.0997275 0.8607700
v -0.3715041 -0.0475851 0.8300869
v -0.3969229 -0.0875075 0.8617418
v -0.3744174 -0.1136299 0.8625086
v -0.4006820 -0.0642944 0.8551484
v -0.3526451 -0.1162018 0.8514594
v -0.3567089 -0.1132327 0.8335503
v -0.3657113 -0.1161725 0.8611483
v -0.3632808 -0.1120279 0.8282049
v -0.3580694 -0.1168000 0.8578286
v -0.3525172 -0.1146970 0.8422085
v -0.3689065 -0.1111094 0.8266649
v -0.3693195 -0.1058817 0.8267172
v -0.3698741 -0.0986315 0.8270892
v -0.3707313 -0.0908945 0.8280385
v -0.3716047 -0.0830492 0.8294477
v -0.3715256 -0.0749003 0.8301423
v -0.3695190 -0.0663966 0.8291850
usemtl blender_human_cc0
f 3 4 1
f 2 3 1
f 3 6 5
f 4 3 5
f 7 6 3
f 8 7 3
f 2 9 8
f 3 2 8
f 12 13 10
f 11 12 10
f 12 15 14
f 13 12 14
f 13 17 16
f 10 13 16
f 18 17 13
f 14 18 13
f 21 22 19
f 20 21 19
f 21 24 23
f 22 21 23
f 26 25 19
f 22 26 19
f 23 27 26
f 22 23 26
f 31 30 29
f 28 31 29
f 32 33 30
f 31 32 30
f 31 35 34
f 32 31 34
f 35 31 28
f 36 35 28
f 40 39 38
f 37 40 38
f 42 41 39
f 40 42 39
f 43 42 40
f 44 43 40
f 45 44 40
f 37 45 40
f 47 46 10
f 16 47 10
f 48 47 16
f 17 48 16
f 49 48 17
f 18 49 17
f 49 18 14
f 50 49 14
f 51 50 14
f 15 51 14
f 52 51 15
f 12 52 15
f 11 53 52
f 12 11 52
f 53 11 10
f 46 53 10
f 55 54 53
f 46 55 53
f 56 55 46
f 47 56 46
f 58 53 54
f 57 58 54
f 59 52 53
f 58 59 53
f 61 60 56
f 47 61 56
f 62 61 47
f 48 62 47
f 63 64 61
f 62 63 61
f 65 60 61
f 64 65 61
f 67 58 57
f 66 67 57
f 68 59 58
f 67 68 58
f 69 68 67
f 70 69 67
f 70 67 66
f 71 70 66
f 70 71 65
f 64 70 65
f 70 64 63
f 69 70 63
f 184 191 143
f 139 184 143
f 138 185 184
f 139 138 184
f 186 185 138
f 137 186 138
f 186 137 136
f 187 186 136
f 130 188 187
f 136 130 187
f 129 189 188
f 130 129 188
f 189 129 128
f 190 189 128
f 191 190 128
f 143 191 128
f 591 598 570
f 569 591 570
f 183 182 80
f 81 183 80
f 176 183 81
f 82 176 81
f 177 176 82
f 83 177 82
f 178 177 83
f 84 178 83
f 85 179 178
f 84 85 178
f 180 179 85
f 86 180 85
f 181 180 86
f 87 181 86
f 198 95 94
f 199 198 94
f 199 94 93
f 192 199 93
f 192 93 92
f 193 192 92
f 194 193 92
f 91 194 92
f 194 91 90
f 195 194 90
f 195 90 89
f 196 195 89
f 88 197 196
f 89 88 196
f 198 197 88
f 95 198 88
f 206 205 102
f 103 206 102
f 206 103 96
f 207 206 96
f 200 207 96
f 97 200 96
f 98 201 200
f 97 98 200
f 202 201 98
f 99 202 98
f 100 203 202
f 99 100 202
f 204 203 100
f 101 204 100
f 205 204 101
f 102 205 101
f 175 174 112
f 119 175 112
f 175 119 115
f 168 175 115
f 169 168 115
f 118 169 115
f 170 169 118
f 114 170 118
f 171 170 114
f 113 171 114
f 117 172 171
f 113 117 171
f 172 117 116
f 173 172 116
f 173 116 112
f 174 173 112
f 594 596 172
f 173 594 172
f 590 175 168
f 599 590 168
f 590 593 174
f 175 590 174
f 588 599 168
f 169 588 168
f 586 588 169
f 170 586 169
f 586 170 171
f 585 586 171
f 613 161 160
f 604 613 160
f 614 159 152
f 605 614 152
f 612 605 152
f 153 612 152
f 155 611 602
f 154 155 602
f 179 180 130
f 136 179 130
f 600 607 166
f 165 600 166
f 601 608 156
f 157 601 156
f 608 611 155
f 156 608 155
f 560 567 159
f 158 560 159
f 567 561 152
f 159 567 152
f 562 153 152
f 561 562 152
f 562 563 154
f 153 562 154
f 564 155 154
f 563 564 154
f 564 565 156
f 155 564 156
f 566 157 156
f 565 566 156
f 566 560 158
f 157 566 158
f 615 604 160
f 167 615 160
f 610 163 162
f 603 610 162
f 613 603 162
f 161 613 162
f 610 609 164
f 163 610 164
f 602 612 153
f 154 602 153
f 609 600 165
f 164 609 165
f 615 167 166
f 607 615 166
f 614 606 158
f 159 614 158
f 160 161 134
f 135 160 134
f 161 162 133
f 134 161 133
f 162 163 142
f 133 162 142
f 164 141 142
f 163 164 142
f 164 165 132
f 141 164 132
f 165 166 131
f 132 165 131
f 167 140 131
f 166 167 131
f 167 160 135
f 140 167 135
f 571 589 587
f 572 571 587
f 587 584 573
f 572 587 573
f 597 574 573
f 584 597 573
f 597 595 568
f 574 597 568
f 595 592 575
f 568 595 575
f 575 592 591
f 569 575 591
f 570 598 589
f 571 570 589
f 593 594 173
f 174 593 173
f 181 129 130
f 180 181 130
f 181 87 80
f 182 181 80
f 183 176 139
f 143 183 139
f 176 177 138
f 139 176 138
f 177 178 137
f 138 177 137
f 178 179 136
f 137 178 136
f 182 183 143
f 128 182 143
f 184 185 74
f 79 184 74
f 185 186 73
f 74 185 73
f 186 187 77
f 73 186 77
f 187 188 76
f 77 187 76
f 188 189 72
f 76 188 72
f 190 75 72
f 189 190 72
f 191 78 75
f 190 191 75
f 78 191 184
f 79 78 184
f 192 193 99
f 98 192 99
f 193 194 100
f 99 193 100
f 194 195 101
f 100 194 101
f 196 102 101
f 195 196 101
f 197 103 102
f 196 197 102
f 197 198 96
f 103 197 96
f 199 97 96
f 198 199 96
f 97 199 192
f 98 97 192
f 201 578 577
f 200 201 577
f 579 578 201
f 202 579 201
f 580 579 202
f 203 580 202
f 581 580 203
f 204 581 203
f 576 581 204
f 205 576 204
f 582 576 205
f 206 582 205
f 583 582 206
f 207 583 206
f 583 207 200
f 577 583 200
f 208 209 19
f 25 208 19
f 210 20 19
f 209 210 19
f 210 211 21
f 20 210 21
f 212 24 21
f 211 212 21
f 212 213 23
f 24 212 23
f 214 27 23
f 213 214 23
f 215 26 27
f 214 215 27
f 215 208 25
f 26 215 25
f 59 216 51
f 52 59 51
f 217 216 59
f 68 217 59
f 218 217 68
f 69 218 68
f 63 219 218
f 69 63 218
f 219 63 62
f 220 219 62
f 220 62 48
f 49 220 48
f 210 209 119
f 112 210 119
f 119 209 208
f 115 119 208
f 78 79 55
f 56 78 55
f 75 78 56
f 60 75 56
f 79 74 54
f 55 79 54
f 73 57 54
f 74 73 54
f 77 66 57
f 73 77 57
f 75 60 65
f 72 75 65
f 76 72 65
f 71 76 65
f 77 76 71
f 66 77 71
f 487 85 84
f 488 487 84
f 488 84 83
f 489 488 83
f 221 222 6
f 7 221 6
f 94 222 221
f 93 94 221
f 223 5 6
f 222 223 6
f 95 223 222
f 94 95 222
f 223 224 4
f 5 223 4
f 224 225 1
f 4 224 1
f 225 226 2
f 1 225 2
f 227 9 2
f 226 227 2
f 227 228 8
f 9 227 8
f 8 228 221
f 7 8 221
f 32 230 229
f 33 32 229
f 34 231 230
f 32 34 230
f 232 231 34
f 35 232 34
f 233 232 35
f 36 233 35
f 233 36 28
f 234 233 28
f 235 234 28
f 29 235 28
f 30 236 235
f 29 30 235
f 229 236 30
f 33 229 30
f 230 135 134
f 229 230 134
f 230 231 140
f 135 230 140
f 231 237 131
f 140 231 131
f 238 237 231
f 232 238 231
f 239 132 131
f 237 239 131
f 240 239 237
f 238 240 237
f 133 241 229
f 134 133 229
f 242 236 229
f 241 242 229
f 243 241 133
f 142 243 133
f 244 242 241
f 243 244 241
f 243 142 141
f 245 243 141
f 245 141 132
f 239 245 132
f 246 244 243
f 245 246 243
f 246 245 239
f 240 246 239
f 247 238 232
f 233 247 232
f 248 240 238
f 247 248 238
f 249 246 240
f 248 249 240
f 249 250 244
f 246 249 244
f 250 251 242
f 244 250 242
f 251 235 236
f 242 251 236
f 252 210 112
f 116 252 112
f 253 252 116
f 117 253 116
f 253 117 113
f 254 253 113
f 114 255 254
f 113 114 254
f 256 255 114
f 118 256 114
f 208 256 118
f 115 208 118
f 257 256 208
f 215 257 208
f 258 255 256
f 257 258 256
f 259 254 255
f 258 259 255
f 259 260 253
f 254 259 253
f 261 252 253
f 260 261 253
f 252 261 211
f 210 252 211
f 262 212 211
f 261 262 211
f 262 261 260
f 263 262 260
f 264 263 260
f 259 264 260
f 264 259 258
f 265 264 258
f 265 258 257
f 266 265 257
f 266 257 215
f 214 266 215
f 223 95 88
f 267 223 88
f 268 267 88
f 89 268 88
f 269 268 89
f 90 269 89
f 270 269 90
f 91 270 90
f 271 270 91
f 92 271 91
f 221 271 92
f 93 221 92
f 272 271 221
f 228 272 221
f 273 270 271
f 272 273 271
f 273 274 269
f 270 273 269
f 275 268 269
f 274 275 269
f 276 267 268
f 275 276 268
f 276 224 223
f 267 276 223
f 277 225 224
f 276 277 224
f 277 276 275
f 278 277 275
f 278 275 274
f 279 278 274
f 280 279 274
f 273 280 274
f 272 281 280
f 273 272 280
f 281 272 228
f 227 281 228
f 283 39 41
f 282 283 41
f 283 284 38
f 39 283 38
f 284 285 37
f 38 284 37
f 286 45 37
f 285 286 37
f 286 287 44
f 45 286 44
f 287 288 43
f 44 287 43
f 289 42 43
f 288 289 43
f 289 282 41
f 42 289 41
f 289 291 290
f 282 289 290
f 288 292 291
f 289 288 291
f 327 326 325
f 334 327 325
f 334 325 324
f 333 334 324
f 333 324 323
f 332 333 323
f 332 323 322
f 331 332 322
f 331 322 321
f 330 331 321
f 330 321 320
f 329 330 320
f 329 320 319
f 328 329 319
f 327 328 319
f 326 327 319
f 669 668 321
f 322 669 321
f 668 667 320
f 321 668 320
f 667 666 319
f 320 667 319
f 666 665 326
f 319 666 326
f 326 665 664
f 325 326 664
f 325 664 663
f 324 325 663
f 663 662 323
f 324 663 323
f 662 669 322
f 323 662 322
f 327 334 291
f 292 327 291
f 334 333 290
f 291 334 290
f 328 327 292
f 310 328 292
f 309 329 328
f 310 309 328
f 330 329 309
f 308 330 309
f 330 308 307
f 331 330 307
f 331 307 306
f 332 331 306
f 332 306 290
f 333 332 290
f 306 305 282
f 290 306 282
f 306 307 304
f 305 306 304
f 308 346 304
f 307 308 304
f 308 309 303
f 346 308 303
f 310 345 303
f 309 310 303
f 310 292 288
f 345 310 288
f 345 288 287
f 302 345 287
f 302 344 303
f 345 302 303
f 303 344 301
f 346 303 301
f 301 343 304
f 346 301 304
f 304 343 300
f 305 304 300
f 282 305 300
f 283 282 300
f 342 284 283
f 300 342 283
f 299 342 300
f 343 299 300
f 301 341 299
f 343 301 299
f 298 341 301
f 344 298 301
f 298 344 302
f 340 298 302
f 286 340 302
f 287 286 302
f 538 539 296
f 338 538 296
f 338 296 295
f 337 338 295
f 337 295 294
f 336 337 294
f 312 336 294
f 311 312 294
f 685 336 335
f 689 685 335
f 335 336 312
f 313 335 312
f 540 538 338
f 348 540 338
f 348 338 337
f 349 348 337
f 559 540 348
f 492 559 348
f 491 352 351
f 492 491 351
f 542 541 351
f 354 542 351
f 355 354 351
f 352 355 351
f 671 645 355
f 670 671 355
f 643 661 542
f 354 643 542
f 558 543 357
f 497 558 357
f 498 361 360
f 497 498 360
f 363 545 544
f 360 363 544
f 364 363 360
f 361 364 360
f 366 546 545
f 363 366 545
f 367 366 363
f 364 367 363
f 369 547 546
f 366 369 546
f 370 369 366
f 367 370 366
f 548 547 369
f 372 548 369
f 373 372 369
f 370 373 369
f 549 548 372
f 375 549 372
f 376 375 372
f 373 376 372
f 550 549 375
f 378 550 375
f 551 550 378
f 381 551 378
f 382 381 378
f 379 382 378
f 384 552 551
f 381 384 551
f 385 384 381
f 382 385 381
f 386 387 294
f 295 386 294
f 318 311 294
f 387 318 294
f 388 386 295
f 296 388 295
f 389 553 539
f 339 389 539
f 390 335 313
f 314 390 313
f 691 689 335
f 390 691 335
f 394 393 391
f 392 394 391
f 394 396 395
f 393 394 395
f 397 390 314
f 315 397 314
f 687 691 390
f 397 687 390
f 399 394 392
f 398 399 392
f 400 396 394
f 399 400 394
f 316 401 397
f 315 316 397
f 692 687 397
f 401 692 397
f 403 399 398
f 402 403 398
f 617 628 463
f 468 617 463
f 620 618 467
f 466 620 467
f 698 697 626
f 385 698 626
f 513 523 477
f 536 513 477
f 625 627 423
f 410 625 423
f 554 555 406
f 407 554 406
f 556 555 411
f 412 556 411
f 556 557 404
f 405 556 404
f 557 413 388
f 553 557 388
f 413 414 386
f 388 413 386
f 414 415 387
f 386 414 387
f 387 415 317
f 318 387 317
f 696 695 423
f 627 696 423
f 524 476 477
f 523 524 477
f 417 401 316
f 317 417 316
f 418 417 317
f 415 418 317
f 419 418 415
f 414 419 415
f 419 414 413
f 412 419 413
f 419 412 411
f 420 419 411
f 693 694 421
f 690 693 421
f 688 690 421
f 422 688 421
f 688 692 401
f 417 688 401
f 626 624 384
f 385 626 384
f 420 411 410
f 423 420 410
f 694 695 424
f 421 694 424
f 425 422 421
f 424 425 421
f 425 403 402
f 422 425 402
f 616 619 399
f 403 616 399
f 654 632 475
f 527 654 475
f 628 631 462
f 463 628 462
f 426 293 391
f 393 426 391
f 427 426 393
f 395 427 393
f 127 635 510
f 126 127 510
f 481 482 479
f 478 481 479
f 352 684 670
f 355 352 670
f 429 431 430
f 428 429 430
f 490 432 429
f 502 490 429
f 623 658 554
f 407 623 554
f 622 633 474
f 383 622 474
f 530 531 368
f 371 530 368
f 433 431 429
f 432 433 429
f 368 531 444
f 365 368 444
f 408 532 347
f 493 408 347
f 445 389 339
f 529 445 339
f 675 686 358
f 644 675 358
f 649 647 430
f 431 649 430
f 650 436 435
f 648 650 435
f 532 528 297
f 347 532 297
f 358 686 679
f 498 358 679
f 500 438 437
f 499 500 437
f 501 500 435
f 436 501 435
f 678 672 364
f 361 678 364
f 441 440 437
f 438 441 437
f 442 441 438
f 439 442 438
f 617 468 467
f 618 617 467
f 629 425 424
f 630 629 424
f 446 522 508
f 537 446 508
f 619 621 400
f 399 619 400
f 672 680 367
f 364 672 367
f 449 448 440
f 441 449 440
f 442 450 449
f 441 442 449
f 674 370 367
f 680 674 367
f 452 451 448
f 449 452 448
f 453 452 449
f 450 453 449
f 674 673 373
f 370 674 373
f 455 454 451
f 452 455 451
f 456 455 452
f 453 456 452
f 683 376 373
f 673 683 373
f 458 457 454
f 455 458 454
f 459 458 455
f 456 459 455
f 376 379 378
f 375 376 378
f 699 382 379
f 676 699 379
f 698 699 461
f 462 698 461
f 527 475 476
f 524 527 476
f 464 463 462
f 461 464 462
f 460 465 464
f 461 460 464
f 676 683 457
f 460 676 457
f 466 467 464
f 465 466 464
f 467 468 463
f 464 467 463
f 633 655 526
f 474 633 526
f 525 522 446
f 447 525 446
f 474 526 525
f 447 474 525
f 469 213 212
f 262 469 212
f 264 469 262
f 263 264 262
f 266 214 213
f 469 266 213
f 469 264 265
f 266 469 265
f 216 470 50
f 51 216 50
f 470 220 49
f 50 470 49
f 470 216 217
f 218 470 217
f 220 470 218
f 219 220 218
f 471 226 225
f 277 471 225
f 226 471 281
f 227 226 281
f 279 471 277
f 278 279 277
f 281 471 279
f 280 281 279
f 234 472 247
f 233 234 247
f 249 248 247
f 472 249 247
f 251 472 234
f 235 251 234
f 249 472 251
f 250 249 251
f 285 473 340
f 286 285 340
f 473 285 284
f 342 473 284
f 473 341 298
f 340 473 298
f 341 473 342
f 299 341 342
f 657 535 518
f 653 657 518
f 503 480 478
f 502 503 478
f 681 491 349
f 682 681 349
f 482 481 426
f 427 482 426
f 483 481 478
f 480 483 478
f 682 677 483
f 480 682 483
f 336 685 677
f 337 336 677
f 481 483 293
f 426 481 293
f 639 81 80
f 636 639 80
f 638 637 120
f 121 638 120
f 485 124 125
f 484 485 125
f 485 486 123
f 124 485 123
f 485 148 147
f 486 485 147
f 484 149 148
f 485 484 148
f 639 495 82
f 81 639 82
f 634 87 86
f 505 634 86
f 488 489 108
f 109 488 108
f 487 488 109
f 110 487 109
f 514 146 145
f 506 514 145
f 507 504 144
f 151 507 144
f 514 521 147
f 146 514 147
f 106 511 509
f 105 106 509
f 509 512 104
f 105 509 104
f 684 352 491
f 681 684 491
f 486 494 122
f 123 486 122
f 652 638 494
f 515 652 494
f 495 489 83
f 82 495 83
f 653 518 495
f 639 653 495
f 502 429 428
f 503 502 428
f 486 516 515
f 494 486 515
f 444 443 362
f 365 444 362
f 108 520 517
f 107 108 517
f 501 439 438
f 500 501 438
f 500 499 434
f 435 500 434
f 679 678 361
f 498 679 361
f 498 497 357
f 358 498 357
f 544 558 497
f 360 544 497
f 496 359 409
f 416 496 409
f 518 519 489
f 495 518 489
f 651 649 431
f 433 651 431
f 648 435 434
f 646 648 434
f 642 644 358
f 357 642 358
f 645 643 354
f 355 645 354
f 494 638 121
f 122 494 121
f 661 640 353
f 542 661 353
f 537 530 371
f 374 537 371
f 506 145 144
f 504 506 144
f 490 502 478
f 479 490 478
f 492 348 349
f 491 492 349
f 559 492 351
f 541 559 351
f 516 486 147
f 521 516 147
f 445 536 404
f 389 445 404
f 126 510 484
f 125 126 484
f 634 636 80
f 87 634 80
f 525 487 110
f 522 525 110
f 654 527 510
f 635 654 510
f 655 634 505
f 526 655 505
f 487 505 86
f 85 487 86
f 150 513 507
f 151 150 507
f 516 521 408
f 534 516 408
f 529 528 506
f 504 529 506
f 508 111 104
f 512 508 104
f 533 656 652
f 515 533 652
f 518 535 416
f 519 518 416
f 519 520 108
f 489 519 108
f 517 520 409
f 443 517 409
f 107 517 511
f 106 107 511
f 534 533 515
f 516 534 515
f 509 531 530
f 512 509 530
f 509 511 444
f 531 509 444
f 408 521 514
f 532 408 514
f 504 507 445
f 529 504 445
f 532 514 506
f 528 532 506
f 526 505 487
f 525 526 487
f 524 523 149
f 484 524 149
f 635 127 120
f 637 635 120
f 513 150 149
f 523 513 149
f 508 522 110
f 111 508 110
f 527 524 484
f 510 527 484
f 465 460 457
f 458 465 457
f 466 465 458
f 459 466 458
f 534 350 353
f 533 534 353
f 443 409 359
f 362 443 359
f 356 496 416
f 535 356 416
f 656 533 353
f 640 656 353
f 660 543 356
f 641 660 356
f 529 339 297
f 528 529 297
f 408 493 350
f 534 408 350
f 513 536 445
f 507 513 445
f 537 508 512
f 530 537 512
f 519 416 409
f 520 519 409
f 511 517 443
f 444 511 443
f 474 447 380
f 383 474 380
f 447 446 377
f 380 447 377
f 659 622 383
f 552 659 383
f 659 552 384
f 624 659 384
f 406 476 475
f 407 406 475
f 446 537 374
f 377 446 374
f 476 406 405
f 477 476 405
f 477 405 404
f 536 477 404
f 559 541 350
f 493 559 350
f 660 642 357
f 543 660 357
f 558 544 359
f 496 558 359
f 658 625 410
f 554 658 410
f 557 553 389
f 404 557 389
f 557 556 412
f 413 557 412
f 555 556 405
f 406 555 405
f 411 555 554
f 410 411 554
f 475 632 623
f 407 475 623
f 553 388 296
f 539 553 296
f 552 383 380
f 551 552 380
f 551 380 377
f 550 551 377
f 550 377 374
f 549 550 374
f 548 549 374
f 371 548 374
f 548 371 368
f 547 548 368
f 546 547 368
f 365 546 368
f 546 365 362
f 545 546 362
f 545 362 359
f 544 545 359
f 558 496 356
f 543 558 356
f 535 657 641
f 356 535 641
f 542 353 350
f 541 542 350
f 559 493 347
f 540 559 347
f 540 347 297
f 538 540 297
f 539 538 297
f 339 539 297
f 566 151 144
f 560 566 144
f 566 565 150
f 151 566 150
f 565 564 149
f 150 565 149
f 149 564 563
f 148 149 563
f 563 562 147
f 148 563 147
f 147 562 561
f 146 147 561
f 567 145 146
f 561 567 146
f 145 567 560
f 144 145 560
f 569 122 121
f 575 569 121
f 575 121 120
f 568 575 120
f 127 574 568
f 120 127 568
f 573 574 127
f 126 573 127
f 573 126 125
f 572 573 125
f 571 572 125
f 124 571 125
f 571 124 123
f 570 571 123
f 570 123 122
f 569 570 122
f 106 583 577
f 107 106 577
f 582 583 106
f 105 582 106
f 582 105 104
f 576 582 104
f 581 576 104
f 111 581 104
f 581 111 110
f 580 581 110
f 579 580 110
f 109 579 110
f 579 109 108
f 578 579 108
f 577 578 108
f 107 577 108
f 596 597 584
f 585 596 584
f 598 599 588
f 589 598 588
f 597 596 594
f 595 597 594
f 589 588 586
f 587 589 586
f 592 593 590
f 591 592 590
f 594 593 592
f 595 594 592
f 586 585 584
f 587 586 584
f 598 591 590
f 599 598 590
f 596 585 171
f 172 596 171
f 612 613 604
f 605 612 604
f 606 607 600
f 601 606 600
f 610 611 608
f 609 610 608
f 613 612 602
f 603 613 602
f 615 607 606
f 614 615 606
f 600 609 608
f 601 600 608
f 602 611 610
f 603 602 610
f 604 615 614
f 605 604 614
f 606 601 157
f 158 606 157
f 619 616 617
f 618 619 617
f 620 621 619
f 618 620 619
f 658 659 624
f 625 658 624
f 633 622 623
f 632 633 623
f 626 627 625
f 624 626 625
f 630 631 628
f 629 630 628
f 616 629 628
f 617 616 628
f 696 627 626
f 697 696 626
f 655 633 632
f 654 655 632
f 638 639 636
f 637 638 636
f 637 636 634
f 635 637 634
f 649 651 650
f 648 649 650
f 649 648 646
f 647 649 646
f 671 675 644
f 645 671 644
f 645 644 642
f 643 645 642
f 660 661 643
f 642 660 643
f 652 653 639
f 638 652 639
f 657 653 652
f 656 657 652
f 634 655 654
f 635 634 654
f 641 657 656
f 640 641 656
f 622 659 658
f 623 622 658
f 661 660 641
f 640 661 641
f 629 616 403
f 425 629 403
f 318 669 662
f 311 318 662
f 663 312 311
f 662 663 311
f 664 313 312
f 663 664 312
f 665 314 313
f 664 665 313
f 666 315 314
f 665 666 314
f 667 316 315
f 666 667 315
f 668 317 316
f 667 668 316
f 669 318 317
f 668 669 317
f 382 699 698
f 385 382 698
f 686 675 646
f 434 686 646
f 684 681 503
f 428 684 503
f 679 686 434
f 499 679 434
f 681 682 480
f 503 681 480
f 672 678 437
f 440 672 437
f 682 349 337
f 677 682 337
f 674 680 448
f 451 674 448
f 646 675 671
f 647 646 671
f 679 499 437
f 678 679 437
f 457 683 673
f 454 457 673
f 683 676 379
f 376 683 379
f 685 293 483
f 677 685 483
f 671 670 430
f 647 671 430
f 680 672 440
f 448 680 440
f 670 684 428
f 430 670 428
f 674 451 454
f 673 674 454
f 392 691 687
f 398 392 687
f 692 402 398
f 687 692 398
f 690 688 417
f 418 690 417
f 402 692 688
f 422 402 688
f 689 391 293
f 685 689 293
f 693 690 418
f 419 693 418
f 691 392 391
f 689 691 391
f 697 698 462
f 631 697 462
f 696 697 631
f 630 696 631
f 696 630 424
f 695 696 424
f 423 695 694
f 420 423 694
f 694 693 419
f 420 694 419
f 461 699 676
f 460 461 676
f 182 128 129
f 181 182 129
