# Level-zero anatomical extract from Blender Human Base Meshes v1.4.1 (CC0)
o human-thigh-l
v -0.0124734 -0.0673783 0.7564746
v -0.0074160 -0.0285010 0.7524507
v -0.0116821 0.0104647 0.7598834
v -0.0867591 0.0764969 0.7602850
v -0.0904904 0.0600635 0.7337548
v -0.0949071 0.0594080 0.7035606
v -0.0993217 0.0640732 0.6726786
v -0.1042407 0.0678125 0.6405492
v -0.1096495 0.0674324 0.6072901
v -0.1162129 0.0638776 0.5742092
v -0.1230135 0.0601703 0.5422782
v -0.1295420 0.0619059 0.5118676
v -0.1345816 0.0655769 0.4836721
v -0.1378463 0.0715120 0.4581693
v -0.1270449 -0.0312351 0.4350674
v -0.1184757 -0.0447861 0.4619707
v -0.1105318 -0.0575933 0.4933603
v -0.1042509 -0.0686234 0.5282610
v -0.0998152 -0.0794548 0.5639156
v -0.0972423 -0.0883848 0.6001767
v -0.0959497 -0.0965272 0.6367465
v -0.0946057 -0.1039232 0.6733996
v -0.0929018 -0.1092735 0.7097851
v -0.0904508 -0.1133230 0.7447165
v -0.0880059 -0.1133381 0.7780429
v -0.0570475 0.0653556 0.7547095
v -0.0620607 0.0533221 0.7279680
v -0.0653982 0.0547180 0.6976144
v -0.0699508 0.0583493 0.6674165
v -0.0759516 0.0602436 0.6361825
v -0.0833035 0.0607565 0.6039231
v -0.0922437 0.0595267 0.5716162
v -0.1012896 0.0599963 0.5401115
v -0.1087587 0.0615519 0.5100684
v -0.1146771 0.0634234 0.4819791
v -0.1191653 0.0670438 0.4561766
v -0.1132124 -0.0215655 0.4389853
v -0.1040690 -0.0330029 0.4658177
v -0.0933574 -0.0457515 0.4945123
v -0.0858045 -0.0566115 0.5278709
v -0.0791594 -0.0680987 0.5630472
v -0.0762602 -0.0748244 0.6000080
v -0.0738291 -0.0809088 0.6363539
v -0.0715049 -0.0870265 0.6710898
v -0.0681923 -0.0938754 0.7046636
v -0.0649251 -0.0994810 0.7370117
v -0.0616035 -0.1019138 0.7691671
v -0.0172334 -0.0635206 0.7409869
v -0.0201892 -0.0587879 0.7185495
v -0.0249075 -0.0513417 0.6927522
v -0.0316633 -0.0434473 0.6632217
v -0.0412497 -0.0359848 0.6318632
v -0.0506383 -0.0299181 0.5991282
v -0.0570107 -0.0241672 0.5648197
v -0.0635841 -0.0165731 0.5306535
v -0.0742408 -0.0078401 0.5002618
v -0.0821211 -0.0000953 0.4709713
v -0.0903140 0.0073138 0.4439195
v -0.1751758 -0.0677327 0.7961904
v -0.1794033 -0.0695961 0.7632427
v -0.1821721 -0.0699609 0.7265631
v -0.1837766 -0.0689956 0.6872917
v -0.1838199 -0.0647540 0.6467186
v -0.1820771 -0.0567411 0.6069275
v -0.1774946 -0.0466174 0.5698977
v -0.1735312 -0.0357677 0.5358227
v -0.1707986 -0.0247462 0.5043611
v -0.1725786 -0.0150748 0.4750107
v -0.1778520 -0.0071603 0.4475073
v -0.1831830 0.0095520 0.4509544
v -0.1790278 0.0022522 0.4778920
v -0.1776958 -0.0067725 0.5066950
v -0.1794162 -0.0153381 0.5380691
v -0.1836032 -0.0231476 0.5721356
v -0.1883683 -0.0296278 0.6090518
v -0.1904660 -0.0344516 0.6484382
v -0.1904519 -0.0371484 0.6887997
v -0.1892699 -0.0378531 0.7280032
v -0.1864083 -0.0375053 0.7642901
v -0.1808548 -0.0360059 0.7963114
v -0.0373139 -0.0871961 0.7585669
v -0.0411298 -0.0821403 0.7277620
v -0.0459213 -0.0742464 0.6990291
v -0.0509613 -0.0660964 0.6682196
v -0.0566423 -0.0592369 0.6351516
v -0.0612773 -0.0538148 0.5998819
v -0.0642527 -0.0480093 0.5631181
v -0.0712438 -0.0390838 0.5285509
v -0.0826467 -0.0275713 0.4982202
v -0.0923154 -0.0174664 0.4692022
v -0.1013532 -0.0077628 0.4425799
v -0.1038409 0.0560711 0.4531885
v -0.0961760 0.0542963 0.4792952
v -0.0889777 0.0521448 0.5075287
v -0.0816920 0.0491826 0.5376576
v -0.0726944 0.0465625 0.5689180
v -0.0627710 0.0442835 0.6008340
v -0.0533353 0.0420189 0.6322759
v -0.0450181 0.0399745 0.6627567
v -0.0381020 0.0389763 0.6919041
v -0.0343695 0.0384456 0.7214914
v -0.0347881 0.0401654 0.7502910
v -0.0074916 -0.0275273 0.7348756
v -0.0093722 -0.0245171 0.7132009
v -0.1201884 -0.1163195 0.7144896
v -0.1213082 -0.1111815 0.6762440
v -0.1464717 -0.1113678 0.7189815
v -0.1477237 -0.1073245 0.6795740
v -0.1684372 -0.0961570 0.7231149
v -0.1695486 -0.0933465 0.6834261
v -0.1654453 -0.0959077 0.7604342
v -0.1818270 -0.0032823 0.7617370
v -0.1862483 -0.0043154 0.7264977
v -0.1738201 -0.0021036 0.7926853
v -0.1672502 0.0263242 0.7558927
v -0.1596018 0.0283103 0.7864647
v -0.1446889 0.0465997 0.7482399
v -0.1407149 0.0532286 0.7784297
v -0.1726522 0.0250805 0.7221536
v -0.1611252 -0.0929359 0.7941346
v -0.1410747 -0.1101703 0.7907804
v -0.1158171 -0.1173393 0.7855066
v -0.1442816 -0.1125632 0.7564074
v -0.1183886 -0.1187299 0.7511659
v -0.1881149 -0.0052163 0.6885993
v -0.1754723 0.0236997 0.6858661
v -0.1757666 0.0220382 0.6489580
v -0.1880634 -0.0047805 0.6496935
v -0.1861970 -0.0026697 0.6114033
v -0.1672802 -0.0774634 0.6043811
v -0.1687787 -0.0876672 0.6434852
v -0.1744040 0.0219906 0.6123784
v -0.1595334 0.0430219 0.5773990
v -0.1585090 0.0444614 0.6120617
v -0.1734038 0.0231112 0.5769229
v -0.1821956 0.0004510 0.5751374
v -0.1562764 0.0443846 0.6470147
v -0.1537439 0.0448306 0.6819776
v -0.1498850 0.0451173 0.7161420
v -0.1233320 0.0559021 0.7096992
v -0.1184353 0.0577988 0.7406363
v -0.1281119 0.0585913 0.6775732
v -0.1470245 -0.0996016 0.6401966
v -0.1216246 -0.1027304 0.6378990
v -0.1219385 -0.0920645 0.6005846
v -0.1460488 -0.0891240 0.6022220
v -0.1451487 -0.0772575 0.5657861
v -0.1229865 -0.0819599 0.5646237
v -0.1447202 -0.0646920 0.5313987
v -0.1253969 -0.0716603 0.5293218
v -0.1641997 -0.0654287 0.5675815
v -0.1613113 -0.0526652 0.5334280
v -0.1295647 -0.0613188 0.4947657
v -0.1357021 -0.0492348 0.4603125
v -0.1472800 -0.0543458 0.4972672
v -0.1533963 -0.0452396 0.4625970
v -0.1583297 -0.0323439 0.4352651
v -0.1426343 -0.0343852 0.4334138
v -0.0685677 0.0132372 0.5015789
v -0.0755296 0.0191750 0.4722450
v -0.0546473 0.0016419 0.5652711
v -0.0618591 0.0074423 0.5327250
v -0.0336007 -0.0087459 0.6286902
v -0.0227471 -0.0145559 0.6592203
v -0.0387130 0.0178933 0.6295690
v -0.0278180 0.0147487 0.6595339
v -0.0498384 0.0214961 0.5987885
v -0.0453657 -0.0034808 0.5975220
v -0.0594922 0.0254352 0.5670189
v -0.1367570 0.0616967 0.6102322
v -0.1403434 0.0579825 0.5763239
v -0.1325634 0.0612906 0.6443307
v -0.0679134 0.0302314 0.5351596
v -0.0139838 0.0114342 0.7150728
v -0.0190742 0.0122696 0.6882472
v -0.0138932 0.0099397 0.7401325
v -0.0145130 -0.0201142 0.6880527
v -0.1163263 0.0707510 0.7692249
v -0.1865863 0.0251855 0.4549143
v -0.1712235 -0.0227339 0.4412889
v -0.0854965 0.0248149 0.4459134
v -0.0909490 0.0423620 0.4495361
v -0.0807412 0.0395927 0.4755772
v -0.0740862 0.0351451 0.5044550
v -0.1529904 0.0594342 0.4843548
v -0.1475284 0.0536803 0.5128906
v -0.1565278 0.0669152 0.4587114
v -0.1435353 0.0532043 0.5438020
v -0.1730591 0.0241828 0.5433823
v -0.1602678 0.0404203 0.5440206
v -0.1752716 0.0280307 0.5122339
v -0.1795288 0.0105433 0.5100600
v -0.1793038 0.0341811 0.4838254
v -0.1840915 0.0178253 0.4816617
v -0.1785731 0.0045020 0.5413652
v -0.1827530 0.0415170 0.4570514
v -0.1718525 0.0561035 0.4582359
v -0.1678064 0.0483437 0.4842405
v -0.1626824 0.0419001 0.5127599
v -0.1606184 -0.0409640 0.5010813
v -0.1651330 -0.0320633 0.4699915
v -0.0485031 0.0879818 0.7778577
v -0.0196398 0.0593714 0.7712184
v -0.1136281 0.0838227 0.7984362
v -0.0822944 0.0948005 0.7874448
v -0.1357211 0.0601817 0.8079685
v -0.1501422 0.0306602 0.8146822
v -0.1623341 -0.0009397 0.8199453
v -0.1728808 -0.0336149 0.8245648
v -0.1702502 -0.0645722 0.8257064
v -0.1127006 -0.1120921 0.8172765
v -0.1373294 -0.1048504 0.8219867
v -0.1563207 -0.0879980 0.8244572
v -0.0851574 -0.1107600 0.8102168
v -0.0563006 -0.1040030 0.8016088
v -0.0275805 -0.1119996 0.7835173
usemtl blender_human_cc0
f 103 2 1
f 48 103 1
f 202 203 102
f 26 202 102
f 208 207 116
f 114 208 116
f 116 207 206
f 118 116 206
f 27 5 4
f 26 27 4
f 104 103 48
f 49 104 48
f 212 213 120
f 121 212 120
f 102 203 3
f 176 102 3
f 209 208 114
f 80 209 114
f 1 216 81
f 48 1 81
f 205 4 178
f 204 205 178
f 176 3 2
f 103 176 2
f 214 211 122
f 25 214 122
f 79 78 61
f 60 79 61
f 29 7 6
f 28 29 6
f 141 178 4
f 5 141 4
f 101 27 26
f 102 101 26
f 205 202 26
f 4 205 26
f 176 103 104
f 174 176 104
f 172 142 7
f 8 172 7
f 29 99 98
f 30 29 98
f 32 10 9
f 31 32 9
f 10 171 170
f 9 10 170
f 96 32 31
f 97 96 31
f 188 171 10
f 11 188 10
f 94 34 33
f 95 94 33
f 14 187 185
f 13 14 185
f 92 36 35
f 93 92 35
f 110 108 107
f 109 110 107
f 158 15 16
f 154 158 16
f 39 17 16
f 38 39 16
f 148 19 20
f 145 148 20
f 144 145 20
f 21 144 20
f 106 144 21
f 22 106 21
f 106 22 23
f 105 106 23
f 216 215 47
f 81 216 47
f 170 172 8
f 9 170 8
f 95 33 32
f 96 95 32
f 198 193 191
f 199 198 191
f 40 18 17
f 39 40 17
f 89 39 38
f 90 89 38
f 41 19 18
f 40 41 18
f 88 40 39
f 89 88 39
f 87 86 42
f 41 87 42
f 43 21 20
f 42 43 20
f 44 45 23
f 22 44 23
f 82 46 45
f 83 82 45
f 47 25 24
f 46 47 24
f 131 143 108
f 110 131 108
f 166 164 163
f 165 166 163
f 86 53 52
f 85 86 52
f 164 177 50
f 51 164 50
f 86 87 54
f 53 86 54
f 168 53 54
f 161 168 54
f 160 159 56
f 57 160 56
f 184 159 160
f 183 184 160
f 90 57 56
f 89 90 56
f 112 113 78
f 79 112 78
f 209 80 59
f 210 209 59
f 131 110 62
f 63 131 62
f 61 78 77
f 62 61 77
f 128 129 75
f 76 128 75
f 125 128 76
f 77 125 76
f 140 142 138
f 139 140 138
f 130 131 63
f 64 130 63
f 129 136 74
f 75 129 74
f 71 68 67
f 72 71 67
f 71 194 179
f 70 71 179
f 180 201 68
f 69 180 68
f 193 198 197
f 196 193 197
f 201 200 67
f 68 201 67
f 200 155 149
f 152 200 149
f 180 157 156
f 201 180 156
f 66 152 151
f 65 66 151
f 73 195 192
f 72 73 192
f 143 131 130
f 146 143 130
f 72 67 66
f 73 72 66
f 135 136 129
f 132 135 129
f 74 65 64
f 75 74 64
f 111 60 61
f 109 111 61
f 62 77 76
f 63 62 76
f 111 120 59
f 60 111 59
f 110 109 61
f 62 110 61
f 120 213 210
f 59 120 210
f 83 50 49
f 82 83 49
f 163 164 51
f 52 163 51
f 81 47 46
f 82 81 46
f 162 161 54
f 55 162 54
f 83 45 44
f 84 83 44
f 162 55 56
f 159 162 56
f 43 44 22
f 21 43 22
f 40 88 87
f 41 40 87
f 90 91 58
f 57 90 58
f 153 154 16
f 17 153 16
f 169 173 95
f 96 169 95
f 34 12 11
f 33 34 11
f 174 175 100
f 101 174 100
f 100 175 166
f 99 100 166
f 30 8 7
f 29 30 7
f 204 178 118
f 206 204 118
f 183 182 92
f 93 183 92
f 186 199 190
f 188 186 190
f 80 114 112
f 79 80 112
f 129 128 127
f 132 129 127
f 113 125 77
f 78 113 77
f 85 52 51
f 84 85 51
f 107 108 106
f 105 107 106
f 119 113 112
f 115 119 112
f 76 75 64
f 63 76 64
f 151 130 64
f 65 151 64
f 116 115 112
f 114 116 112
f 139 119 115
f 117 139 115
f 124 122 121
f 123 124 121
f 150 148 147
f 149 150 147
f 142 172 137
f 138 142 137
f 127 128 125
f 126 127 125
f 195 73 74
f 136 195 74
f 195 136 135
f 189 195 135
f 170 171 133
f 134 170 133
f 132 134 133
f 135 132 133
f 172 170 134
f 137 172 134
f 145 144 143
f 146 145 143
f 119 139 138
f 126 119 138
f 148 145 146
f 147 148 146
f 142 140 6
f 7 142 6
f 31 9 8
f 30 31 8
f 33 11 10
f 32 33 10
f 199 191 189
f 190 199 189
f 152 149 147
f 151 152 147
f 201 156 155
f 200 201 155
f 192 194 71
f 72 192 71
f 156 154 153
f 155 156 153
f 167 168 161
f 169 167 161
f 89 56 55
f 88 89 55
f 173 169 161
f 162 173 161
f 36 14 13
f 35 36 13
f 35 13 12
f 34 35 12
f 175 174 104
f 177 175 104
f 123 107 105
f 124 123 105
f 118 117 115
f 116 118 115
f 168 163 52
f 53 168 52
f 176 174 101
f 102 176 101
f 140 141 5
f 6 140 5
f 99 29 28
f 100 99 28
f 198 185 187
f 197 198 187
f 173 162 159
f 184 173 159
f 167 169 96
f 97 167 96
f 97 31 30
f 98 97 30
f 166 165 98
f 99 166 98
f 186 188 11
f 12 186 11
f 94 93 35
f 34 94 35
f 193 196 179
f 194 193 179
f 193 194 192
f 191 193 192
f 121 120 111
f 123 121 111
f 192 195 189
f 191 192 189
f 140 139 117
f 141 140 117
f 188 190 133
f 171 188 133
f 181 160 57
f 58 181 57
f 88 55 54
f 87 88 54
f 27 28 6
f 5 27 6
f 182 183 160
f 181 182 160
f 200 152 66
f 67 200 66
f 73 66 65
f 74 73 65
f 153 150 149
f 155 153 149
f 133 190 189
f 135 133 189
f 137 134 132
f 127 137 132
f 38 16 15
f 37 38 15
f 175 177 164
f 166 175 164
f 90 38 37
f 91 90 37
f 42 20 19
f 41 42 19
f 86 85 43
f 42 86 43
f 157 158 154
f 156 157 154
f 46 24 23
f 45 46 23
f 84 44 43
f 85 84 43
f 124 105 23
f 24 124 23
f 122 124 24
f 25 122 24
f 147 146 130
f 151 147 130
f 177 104 49
f 50 177 49
f 138 137 127
f 126 138 127
f 111 109 107
f 123 111 107
f 167 165 163
f 168 167 163
f 184 183 93
f 94 184 93
f 153 17 18
f 150 153 18
f 148 150 18
f 19 148 18
f 198 199 186
f 185 198 186
f 173 184 94
f 95 173 94
f 165 167 97
f 98 165 97
f 185 186 12
f 13 185 12
f 68 71 70
f 69 68 70
f 143 144 106
f 108 143 106
f 82 49 48
f 81 82 48
f 119 126 125
f 113 119 125
f 178 141 117
f 118 178 117
f 215 214 25
f 47 215 25
f 80 79 60
f 59 80 60
f 84 51 50
f 83 84 50
f 211 212 121
f 122 211 121
f 27 101 100
f 28 27 100
