# Level-zero anatomical extract from Blender Human Base Meshes v1.4.1 (CC0)
o human-torso
v 0.0371383 -0.0901390 1.3338313
v 0.0713413 -0.0805321 1.3429955
v 0.0820439 -0.0771586 1.3486986
v 0.0922702 -0.0724074 1.3544422
v 0.1015427 -0.0655493 1.3588415
v 0.1104855 -0.0568081 1.3614107
v 0.1223882 -0.0489685 1.3663625
v 0.1287148 -0.0150289 1.3935608
v 0.1282658 0.0135467 1.4090720
v 0.0908705 0.0675415 1.4016414
v 0.0763838 0.0751778 1.3934962
v 0.0580301 0.0816621 1.3813876
v 0.0356007 0.0782901 1.3796957
v 0.0642473 0.0625402 1.4092798
v 0.0776769 0.0563195 1.4149573
v 0.1123693 0.0107773 1.4157636
v 0.1046908 -0.0385239 1.3775957
v 0.0978819 -0.0481329 1.3731416
v 0.0721833 -0.0683404 1.3619303
v 0.0627440 -0.0718629 1.3572109
v 0.0331941 -0.0797441 1.3470006
v 0.1138827 -0.0127027 1.4021406
v 0.0487884 0.0655480 1.4030819
v 0.0814308 -0.0637034 1.3664812
v 0.0321525 0.0646593 1.3990203
v 0.0411729 0.0500383 1.4182367
v 0.0651055 0.0430931 1.4250191
v 0.0966702 0.0075995 1.4216518
v 0.0993847 -0.0117331 1.4104739
v 0.0898856 -0.0309304 1.3881361
v 0.0841849 -0.0380269 1.3816783
v 0.0703113 -0.0520376 1.3735149
v 0.0627964 -0.0572054 1.3709015
v 0.0548073 -0.0615989 1.3680526
v 0.0297213 -0.0716293 1.3602644
v 0.0537111 0.0476094 1.4218235
v 0.0278729 0.0509161 1.4155471
v 0.0775011 -0.0453262 1.3768253
v 0.0900395 -0.0568333 1.3701267
v 0.0821439 0.0033400 1.4282112
v 0.0489159 -0.0559035 1.3806940
v 0.0859130 -0.0122900 1.4189582
v 0.0545521 0.0307188 1.4342862
v 0.0450082 0.0345234 1.4330255
v 0.0238755 0.0385295 1.4298822
v 0.0687639 -0.0423915 1.3909943
v 0.0267515 -0.0656406 1.3727516
v 0.0561580 -0.0520045 1.3847884
v 0.0346523 0.0371190 1.4313639
v 0.0790492 -0.0295770 1.4013429
v 0.0746256 -0.0359806 1.3957341
v 0.0622827 -0.0477074 1.3877077
v 0.0415631 -0.0992312 1.3183144
v 0.0805667 -0.0908706 1.3280807
v 0.0923909 -0.0871377 1.3338088
v 0.1033084 -0.0816721 1.3397506
v 0.1129309 -0.0745580 1.3453202
v 0.1221119 -0.0666804 1.3498441
v 0.1318206 -0.0617388 1.3544431
v 0.1397026 -0.0555003 1.3652027
v 0.1400351 -0.0614289 1.3576301
v 0.1449639 -0.0206191 1.3877660
v 0.1439622 0.0156078 1.3995564
v 0.1048071 0.0748601 1.3852760
v 0.0907400 0.0835431 1.3764619
v 0.0683002 0.0928185 1.3556280
v 0.0376416 0.0866892 1.3576975
v 0.0127567 -0.0885146 1.3291099
v 0.0249266 -0.0905143 1.3316040
v 0.0227642 -0.0798579 1.3445702
v 0.0115917 -0.0788677 1.3432336
v 0.0108293 -0.0701029 1.3566761
v 0.0206251 -0.0722475 1.3580201
v 0.0186683 -0.0676093 1.3707381
v 0.0099028 -0.0656207 1.3691545
v 0.0134667 -0.0984944 1.3147073
v 0.0274791 -0.1000524 1.3166280
v 0.0943090 -0.0245297 1.3959781
v 0.0995961 -0.0053178 1.4151158
v 0.0719906 -0.0443218 1.5549363
v 0.0708796 -0.0461044 1.5536174
v 0.0697050 -0.0431877 1.5543861
v 0.0715363 -0.0431279 1.5550125
v 0.1249499 -0.0372486 1.3791708
v 0.0826044 -0.0237188 1.4076957
v 0.1414443 -0.0461328 1.3746421
v 0.0855771 -0.0070723 1.4225837
v 0.1087662 -0.0279493 1.3849481
v 0.1147398 -0.0054121 1.4078574
v 0.1300179 -0.0063846 1.4000330
v 0.1458007 -0.0081211 1.3922715
v 0.0177830 0.0730944 1.3769101
v 0.0190594 0.0811899 1.3556019
v 0.0153880 -0.0605724 1.4916804
v 0.0214220 -0.0583595 1.4997880
v 0.1724164 -0.0119115 1.2357856
v 0.1811779 0.0528718 1.2200806
v 0.1796678 0.0349193 1.2158631
v 0.1752954 0.0186230 1.2185376
v 0.1728689 0.0029437 1.2257766
v 0.1755688 -0.0299234 1.2388514
v 0.1877696 -0.0468405 1.2445987
v 0.1794403 0.0734764 1.2369562
v 0.1600174 0.0821524 1.2201891
v 0.1736256 0.0603436 1.2060084
v 0.1779083 0.0369521 1.2051059
v 0.1737502 0.0181172 1.2097319
v 0.1699314 0.0002604 1.2213510
v 0.1681292 -0.0156285 1.2363267
v 0.1701850 -0.0331197 1.2429212
v 0.1796020 -0.0524781 1.2557875
v 0.1672319 0.0977895 1.2650812
v 0.1470033 0.1043903 1.2477349
v 0.1819262 -0.0713103 1.2735612
v 0.1624441 -0.0261778 1.3835663
v 0.1553492 0.0302256 1.3879526
v 0.1038456 0.0861145 1.3573080
v 0.0613174 -0.1067787 1.3039055
v 0.0457623 -0.1080423 1.3016275
v 0.0899760 -0.1018060 1.3121293
v 0.0761668 -0.1048917 1.3075629
v 0.1571337 -0.0539299 1.3701426
v 0.1594217 0.0167614 1.3883405
v 0.1406813 0.0557924 1.3818202
v 0.1180632 0.0777714 1.3668408
v 0.1536819 -0.0625195 1.3603091
v 0.1632891 -0.0107768 1.3874662
v 0.0741027 0.0976593 1.3412346
v 0.0582711 0.0969176 1.3376211
v 0.1302873 0.0674269 1.3753221
v 0.1494677 -0.0674036 1.3510275
v 0.0149373 -0.1060026 1.2979727
v 0.0207522 0.0870151 1.3329214
v 0.0401277 0.0929850 1.3350406
v 0.1248715 -0.0836995 1.3298721
v 0.1145813 -0.0910143 1.3234308
v 0.1028970 -0.0971315 1.3173749
v 0.0302760 -0.1080194 1.2998559
v 0.1341587 -0.0763331 1.3363661
v 0.0888908 0.0937725 1.3485577
v 0.1426426 -0.0710068 1.3432510
v 0.1176309 0.0915304 1.3386530
v 0.1326944 0.0960266 1.3172557
v 0.1487787 0.0990364 1.2929693
v 0.1641189 -0.0253127 1.2166002
v 0.1583969 -0.0401911 1.1997468
v 0.1515829 -0.0586042 1.1903356
v 0.1406598 -0.0801240 1.1851304
v 0.1274025 -0.1013697 1.1822522
v 0.1102307 -0.1198112 1.1812509
v 0.0883155 -0.1310064 1.1825899
v 0.0646530 -0.1351839 1.1855674
v 0.0416614 -0.1334228 1.1883174
v 0.0208959 -0.1264469 1.1892560
v 0.0677504 -0.1169935 1.2864040
v 0.0502270 -0.1176748 1.2844726
v 0.0734697 -0.1270201 1.2675288
v 0.0540016 -0.1275738 1.2664454
v 0.0786715 -0.1356241 1.2482738
v 0.0570881 -0.1362951 1.2481228
v 0.0592666 -0.1420767 1.2305055
v 0.0609287 -0.1439099 1.2139925
v 0.0853753 -0.1425667 1.2128589
v 0.0626785 -0.1414959 1.1987396
v 0.0868565 -0.1387498 1.1965929
v 0.0668281 -0.1265347 1.1737546
v 0.0897081 -0.1203493 1.1704209
v 0.0691835 -0.1251897 1.1554077
v 0.0927743 -0.1153807 1.1517583
v 0.0979186 -0.1141920 1.1316935
v 0.0743127 -0.1290095 1.1362984
v 0.1016545 -0.1108149 1.1093298
v 0.0791016 -0.1283276 1.1132454
v 0.0813253 -0.1218558 1.0854840
v 0.1035907 -0.1043625 1.0837212
v 0.1000314 -0.1111112 1.2933434
v 0.0846444 -0.1149693 1.2893468
v 0.1097143 -0.1192228 1.2727606
v 0.0923366 -0.1243014 1.2695974
v 0.1179011 -0.1255762 1.2519621
v 0.0825945 -0.1412030 1.2300377
v 0.1276170 -0.1285086 1.2155008
v 0.1081819 -0.1376618 1.2142341
v 0.1289250 -0.1189599 1.1970493
v 0.1096668 -0.1315639 1.1966960
v 0.1102135 -0.1058826 1.1679001
v 0.1276830 -0.0865845 1.1657798
v 0.1144922 -0.1005496 1.1483501
v 0.1327809 -0.0810036 1.1462101
v 0.1345787 -0.0750022 1.1257442
v 0.1193472 -0.0967535 1.1281276
v 0.1360944 -0.0706224 1.1032271
v 0.1215202 -0.0915971 1.1059872
v 0.1222703 -0.0859396 1.0813403
v 0.1347814 -0.0661850 1.0784829
v 0.1146954 0.0744355 1.1359715
v 0.1075935 0.0701340 1.1123974
v 0.0858040 0.0842969 1.1378340
v 0.0805445 0.0802552 1.1134006
v 0.1419734 0.0577570 1.1347735
v 0.1331439 0.0538213 1.1130100
v 0.1594281 0.0318340 1.1384907
v 0.1516801 0.0289873 1.1183366
v 0.1641317 0.0011365 1.1489505
v 0.1585533 -0.0018613 1.1294141
v 0.1540389 -0.0319990 1.1408856
v 0.1563999 -0.0346732 1.1660126
v 0.1235234 -0.1288230 1.2332314
v 0.1522878 -0.0296784 1.1176220
v 0.1530099 -0.0016574 1.1072570
v 0.1258923 0.0508209 1.0914420
v 0.1014456 0.0657567 1.0904497
v 0.1185680 0.0473324 1.0703866
v 0.0952405 0.0612460 1.0694067
v 0.0901313 0.0581678 1.0477792
v 0.1129162 0.0463581 1.0487404
v 0.1461769 -0.0253217 1.0674434
v 0.1437595 0.0001699 1.0590706
v 0.1318638 0.0260849 1.0521544
v 0.0664408 0.0642982 1.0475227
v 0.0832340 0.1043810 1.3209188
v 0.0639587 0.1041865 1.3151430
v 0.0938919 0.1081301 1.2962810
v 0.1053870 0.1109940 1.2676216
v 0.0711882 0.1081278 1.2892655
v 0.0783882 0.1076886 1.2604488
v 0.1495112 -0.0275784 1.0930556
v 0.1473774 -0.0012220 1.0836210
v 0.1188359 0.1053063 1.2352328
v 0.0869382 0.1055919 1.2286201
v 0.1328283 0.0896227 1.1977280
v 0.0920298 0.0991918 1.1961894
v 0.0753068 0.0743942 1.0914307
v 0.0704990 0.0686484 1.0699552
v 0.1441995 0.0275140 1.0968432
v 0.1378422 0.0260473 1.0746450
v 0.0277419 -0.1384549 1.0872686
v 0.0269795 -0.1420641 1.1181035
v 0.0247974 -0.1392996 1.1409413
v 0.0227145 -0.1343854 1.1593660
v 0.0215216 -0.1282704 1.1744982
v 0.0190799 -0.1307508 1.2025684
v 0.0185196 -0.1331951 1.2168388
v 0.0180037 -0.1331223 1.2319344
v 0.0178053 -0.1292048 1.2480102
v 0.0172543 -0.1223292 1.2644801
v 0.0164175 -0.1136352 1.2809569
v 0.0223773 0.0915662 1.3082488
v 0.0437655 0.0988644 1.3109558
v 0.0239865 0.0941554 1.2815282
v 0.0479718 0.1019832 1.2846051
v 0.0270517 0.0951760 1.2533571
v 0.0530568 0.1001907 1.2562386
v 0.0291052 0.0931537 1.2244353
v 0.0572238 0.0996785 1.2258688
v 0.0296706 0.0891228 1.1959667
v 0.0593093 0.0965460 1.1957102
v 0.0285549 0.0798127 1.1425903
v 0.0565512 0.0870225 1.1399347
v 0.0271943 0.0754946 1.1184779
v 0.0535176 0.0820170 1.1157097
v 0.0253702 0.0709937 1.0954444
v 0.0501784 0.0759883 1.0932049
v 0.0233370 0.0661189 1.0725540
v 0.0467045 0.0708439 1.0709341
v 0.0217138 0.0633527 1.0479838
v 0.0436840 0.0663727 1.0475647
v 0.0548915 -0.1334144 1.0867403
v 0.0531703 -0.1390619 1.1162776
v 0.0494448 -0.1376990 1.1393672
v 0.0456194 -0.1313704 1.1575202
v 0.0434610 -0.1280367 1.1744143
v 0.1367379 -0.0902291 1.3124117
v 0.1484620 -0.0936200 1.2927843
v 0.1586029 -0.0929632 1.2721291
v 0.1641103 -0.0875471 1.2524583
v 0.1642345 -0.0767140 1.2348228
v 0.1585355 -0.0601341 1.2182715
v 0.1634134 -0.0172507 1.1813397
v 0.1686202 0.0088207 1.1666349
v 0.1655734 0.0361540 1.1585319
v 0.1509025 0.0627399 1.1578215
v 0.1230861 0.0822324 1.1621922
v 0.0905409 0.0902999 1.1652428
v 0.0590209 0.0915781 1.1666280
v 0.0297122 0.0849656 1.1682861
v 0.1261024 -0.0980072 1.3049488
v 0.1379592 -0.1027558 1.2842474
v 0.1482345 -0.1045580 1.2626061
v 0.1541008 -0.1018469 1.2426327
v 0.1560686 -0.0933401 1.2241858
v 0.1529408 -0.0780816 1.2078037
v 0.1427942 -0.0464619 1.0741237
v 0.1452448 -0.0493443 1.0994525
v 0.1460970 -0.0530321 1.1231290
v 0.1442936 -0.0574380 1.1453227
v 0.1437376 -0.0659225 1.1657698
v 0.1433914 -0.0990269 1.2000954
v 0.1437055 -0.1120611 1.2176833
v 0.1404321 -0.1165750 1.2362639
v 0.1345059 -0.1160683 1.2561291
v 0.1250380 -0.1117877 1.2776512
v 0.1138869 -0.1052998 1.2985957
v 0.0329545 -0.1168127 1.2828894
v 0.0349668 -0.1261828 1.2657933
v 0.0362565 -0.1342030 1.2484994
v 0.0371403 -0.1392481 1.2315605
v 0.0381164 -0.1409474 1.2158366
v 0.0396955 -0.1388265 1.2014492
v 0.1461157 -0.0829545 1.3205640
v 0.1578461 -0.0858835 1.3022211
v 0.1678598 -0.0839925 1.2824601
v 0.1723104 -0.0755063 1.2636212
v 0.1698922 -0.0618658 1.2460864
v 0.1640806 -0.0436514 1.2316587
v 0.1680287 -0.0061929 1.1996884
v 0.1724162 0.0157614 1.1862283
v 0.1722740 0.0392837 1.1815802
v 0.1610386 0.0652745 1.1824762
v 0.1043700 -0.1367990 1.2314245
v 0.0992231 -0.1320873 1.2496065
v 0.1010085 0.0993900 1.3290049
v 0.1143969 0.1030598 1.3059144
v 0.1296947 0.1079225 1.2792898
v 0.1765753 -0.0784167 1.2935065
v 0.1664504 -0.0797224 1.3124560
v 0.1544465 -0.0771978 1.3293476
v 0.1491705 0.0434065 1.3859040
v 0.0603342 -0.0836014 1.3385794
v 0.0490047 -0.0872326 1.3357611
v 0.0412602 -0.0587628 1.3774948
v 0.0339692 -0.0620814 1.3748403
v 0.0383028 -0.0689424 1.3624374
v 0.0465727 -0.0655252 1.3650780
v 0.0433703 -0.0777150 1.3497062
v 0.0531676 -0.0749537 1.3530070
v 0.0551872 -0.0968540 1.3201536
v 0.0681287 -0.0938667 1.3233205
v 0.1170578 0.0645173 1.3925629
v 0.1271640 0.0528336 1.3978869
v 0.1349099 0.0402988 1.4003212
v 0.1404522 0.0277935 1.4006884
v 0.1090196 0.0196428 1.4181679
v 0.1041285 0.0289862 1.4194947
v 0.0975068 0.0386945 1.4197459
v 0.0889389 0.0481474 1.4185029
v 0.1029922 0.0580288 1.4073778
v 0.1123456 0.0470195 1.4106609
v 0.1193983 0.0356299 1.4115933
v 0.1246877 0.0245105 1.4110377
v 0.0629502 0.0259292 1.4347161
v 0.0699133 0.0204052 1.4341824
v 0.0752861 0.0145799 1.4327164
v 0.0792633 0.0088100 1.4307028
v 0.0935305 0.0146008 1.4241495
v 0.0890862 0.0220527 1.4260684
v 0.0829398 0.0296608 1.4270856
v 0.0749597 0.0369046 1.4268367
v 0.1116281 -0.0200674 1.3944172
v 0.0842851 -0.0018781 1.4255898
v 0.1142446 0.0023389 1.4122040
v 0.1269598 -0.0250462 1.3863921
v 0.0986774 0.0009758 1.4187484
v 0.1300032 0.0029875 1.4053249
v 0.1434526 -0.0340265 1.3826087
v 0.1456565 0.0035955 1.3966279
v 0.0850148 -0.0179976 1.4139390
v 0.0975516 -0.0182596 1.4039783
v 0.1620653 0.0032873 1.3882356
v 0.1603197 -0.0412277 1.3781478
v 0.0763988 0.0895122 1.3658171
v 0.0556993 0.0904103 1.3581338
v -0.0372027 -0.0900427 1.3337543
v -0.0714281 -0.0805658 1.3430157
v -0.0821032 -0.0770802 1.3486022
v -0.0922108 -0.0722855 1.3542355
v -0.1014636 -0.0654521 1.3587407
v -0.1105273 -0.0568807 1.3616319
v -0.1222643 -0.0488073 1.3663088
v -0.1288701 -0.0154247 1.3935740
v -0.1282676 0.0135153 1.4089139
v -0.0907973 0.0671840 1.4013879
v -0.0762428 0.0752734 1.3933796
v -0.0580944 0.0816929 1.3812138
v -0.0355835 0.0779750 1.3796819
v -0.0641787 0.0622690 1.4091406
v -0.0776272 0.0559509 1.4146775
v -0.1123307 0.0107661 1.4158144
v -0.1045401 -0.0384195 1.3777119
v -0.0977120 -0.0482637 1.3732910
v -0.0722027 -0.0682719 1.3619130
v -0.0628448 -0.0719112 1.3572079
v -0.0331628 -0.0798094 1.3470507
v -0.1139864 -0.0128563 1.4021437
v -0.0486091 0.0655978 1.4030169
v -0.0813294 -0.0636896 1.3666052
v -0.0320189 0.0647928 1.3990241
v -0.0411798 0.0499939 1.4181435
v -0.0652655 0.0429216 1.4249728
v -0.0967307 0.0076012 1.4218669
v -0.0994512 -0.0118136 1.4105542
v -0.0900800 -0.0313001 1.3884282
v -0.0843507 -0.0383412 1.3819377
v -0.0703109 -0.0522012 1.3740009
v -0.0629948 -0.0573600 1.3711643
v -0.0549500 -0.0616060 1.3680334
v -0.0296766 -0.0713175 1.3601400
v -0.0538264 0.0474799 1.4217372
v -0.0279515 0.0508839 1.4154799
v -0.0774889 -0.0455513 1.3771983
v -0.0898724 -0.0569383 1.3703096
v -0.0822750 0.0032161 1.4283276
v -0.0489985 -0.0557577 1.3809006
v -0.0859052 -0.0122932 1.4190310
v -0.0546312 0.0307447 1.4343215
v -0.0450361 0.0344485 1.4329520
v -0.0238782 0.0386723 1.4299418
v -0.0686544 -0.0422248 1.3910793
v -0.0267553 -0.0658072 1.3728440
v -0.0557800 -0.0520064 1.3850394
v -0.0346823 0.0370292 1.4312534
v -0.0787781 -0.0292942 1.4012408
v -0.0742833 -0.0357571 1.3956442
v -0.0624015 -0.0476035 1.3877602
v -0.0000858 -0.0967441 1.3134325
v -0.0414648 -0.0991930 1.3182412
v -0.0805319 -0.0908759 1.3280697
v -0.0923161 -0.0870627 1.3337065
v -0.1032671 -0.0816484 1.3395867
v -0.1129119 -0.0745598 1.3452245
v -0.1220395 -0.0665998 1.3498201
v -0.1317662 -0.0614764 1.3544103
v -0.1396090 -0.0553636 1.3653001
v -0.1399346 -0.0612999 1.3578002
v -0.1448468 -0.0203219 1.3875188
v -0.1439796 0.0157502 1.3996098
v -0.1047325 0.0749142 1.3854427
v -0.0905728 0.0839002 1.3766663
v -0.0685820 0.0930270 1.3556675
v -0.0377972 0.0865350 1.3576069
v -0.0125976 -0.0885615 1.3292367
v -0.0249782 -0.0903264 1.3314737
v -0.0227221 -0.0798156 1.3445615
v -0.0117339 -0.0786269 1.3431071
v -0.0109299 -0.0697284 1.3565137
v -0.0206186 -0.0719713 1.3580348
v -0.0187835 -0.0673145 1.3707755
v -0.0099698 -0.0654257 1.3688643
v -0.0135104 -0.0984610 1.3146608
v -0.0274667 -0.0998980 1.3165665
v -0.0944903 -0.0246930 1.3961470
v -0.0996828 -0.0054489 1.4152850
v -0.0720340 -0.0443733 1.5549660
v -0.0709131 -0.0460647 1.5536155
v -0.0697364 -0.0432248 1.5543540
v -0.0715559 -0.0432005 1.5550888
v -0.1250426 -0.0364929 1.3782389
v -0.0824410 -0.0235875 1.4077302
v -0.1413660 -0.0461459 1.3750105
v -0.0856330 -0.0070877 1.4227934
v -0.1087362 -0.0283095 1.3851154
v -0.1147251 -0.0054191 1.4078838
v -0.1301483 -0.0064372 1.4001057
v -0.1457585 -0.0080977 1.3922347
v 0.0000608 -0.0871269 1.3280573
v -0.0176566 0.0729848 1.3768477
v -0.0000697 -0.0632929 1.3682661
v -0.0001101 -0.0669427 1.3561814
v -0.0000904 -0.0771514 1.3425735
v 0.0001417 0.0410960 1.4298407
v -0.0000699 0.0527314 1.4144138
v -0.0001679 0.0616022 1.3954481
v -0.0191621 0.0808613 1.3555633
v 0.0000436 -0.0562620 1.5011263
v -0.0001270 0.0867281 1.2803847
v 0.0000673 0.0867629 1.2529240
v -0.0000179 0.0825467 1.2249858
v 0.0000856 0.0781599 1.1970905
v 0.0000471 0.0692391 1.1449983
v 0.0000456 0.0652659 1.1207541
v -0.0000873 0.0617599 1.0973805
v -0.0002044 0.0586268 1.0737550
v -0.0001199 0.0571935 1.0483348
v 0.0003915 0.0736311 1.1702378
v -0.1732055 -0.0117518 1.2344819
v -0.1809910 0.0540809 1.2189208
v -0.1796484 0.0351595 1.2156935
v -0.1771054 0.0186786 1.2182856
v -0.1739150 0.0032215 1.2251444
v -0.1760161 -0.0304120 1.2382615
v -0.1881221 -0.0467591 1.2445842
v -0.1794171 0.0743129 1.2367185
v -0.1607496 0.0828586 1.2200934
v -0.1737525 0.0601162 1.2061325
v -0.1779154 0.0364680 1.2050955
v -0.1738568 0.0177106 1.2105256
v -0.1708203 0.0002597 1.2221409
v -0.1681629 -0.0150336 1.2359349
v -0.1692567 -0.0327110 1.2428181
v -0.1796486 -0.0524203 1.2554770
v -0.1672508 0.0976572 1.2648594
v -0.1467519 0.1041983 1.2479013
v -0.1820321 -0.0710208 1.2733756
v -0.1625114 -0.0260058 1.3837926
v -0.1553502 0.0303689 1.3881807
v -0.1038842 0.0869898 1.3578432
v -0.0612776 -0.1068030 1.3039418
v -0.0457575 -0.1080221 1.3016195
v -0.0899230 -0.1016898 1.3120060
v -0.0761171 -0.1047537 1.3075006
v -0.1571521 -0.0539356 1.3702382
v -0.1593942 0.0167914 1.3883159
v -0.1408706 0.0561804 1.3819973
v -0.1181478 0.0783654 1.3672824
v -0.1537359 -0.0624541 1.3602757
v -0.1632765 -0.0107788 1.3873413
v -0.0742861 0.0976438 1.3412441
v -0.0583596 0.0967655 1.3376157
v -0.1305303 0.0680658 1.3757424
v -0.1494404 -0.0675316 1.3510380
v 0.0000727 0.0818170 1.3317893
v -0.0150216 -0.1059150 1.2979389
v -0.0207068 0.0868605 1.3330002
v -0.0402528 0.0929707 1.3350383
v -0.1249815 -0.0837443 1.3297615
v -0.1146032 -0.0910004 1.3233287
v -0.1028539 -0.0970436 1.3172863
v -0.0302854 -0.1078621 1.2997953
v -0.1341542 -0.0763689 1.3363190
v -0.0888616 0.0942358 1.3487399
v -0.1426566 -0.0709856 1.3432080
v -0.1175793 0.0916699 1.3386514
v -0.1327246 0.0959661 1.3170776
v -0.1489036 0.0989793 1.2927887
v -0.1639886 -0.0252707 1.2166049
v -0.1582677 -0.0401526 1.1998693
v -0.1515196 -0.0586500 1.1903703
v -0.1406702 -0.0803262 1.1850251
v -0.1269847 -0.1013009 1.1826167
v -0.1099127 -0.1192061 1.1818002
v -0.0882472 -0.1303394 1.1829643
v -0.0647247 -0.1344254 1.1857131
v -0.0421365 -0.1319808 1.1886024
v -0.0205830 -0.1267863 1.1890689
v -0.0676055 -0.1169885 1.2863250
v -0.0501358 -0.1176823 1.2844160
v -0.0733653 -0.1270969 1.2676036
v -0.0539339 -0.1276834 1.2665143
v -0.0786030 -0.1358240 1.2484527
v -0.0570060 -0.1365470 1.2482290
v -0.0592531 -0.1426258 1.2304130
v -0.0610691 -0.1444340 1.2137283
v -0.0856825 -0.1431424 1.2131761
v -0.0628586 -0.1415004 1.1984853
v -0.0873147 -0.1390783 1.1967463
v -0.0668525 -0.1266996 1.1730440
v -0.0895583 -0.1197464 1.1705328
v -0.0695563 -0.1257223 1.1550343
v -0.0928647 -0.1153779 1.1516020
v -0.0978219 -0.1139935 1.1315897
v -0.0744101 -0.1285603 1.1358730
v -0.1017952 -0.1108383 1.1092703
v -0.0793151 -0.1279490 1.1129465
v -0.0817986 -0.1219615 1.0852375
v -0.1037447 -0.1046594 1.0837249
v -0.0999978 -0.1109992 1.2932441
v -0.0845532 -0.1149182 1.2891722
v -0.1096330 -0.1192255 1.2727761
v -0.0922796 -0.1242930 1.2695572
v -0.1178443 -0.1257959 1.2521247
v -0.0826491 -0.1416179 1.2300522
v -0.1282030 -0.1272316 1.2164630
v -0.1085314 -0.1376271 1.2154201
v -0.1291573 -0.1180944 1.1973904
v -0.1100877 -0.1317569 1.1971592
v -0.1097742 -0.1058559 1.1678611
v -0.1272420 -0.0869715 1.1659775
v -0.1145927 -0.1005814 1.1482441
v -0.1323532 -0.0809145 1.1458846
v -0.1345022 -0.0753791 1.1254469
v -0.1190018 -0.0966054 1.1279490
v -0.1361551 -0.0709397 1.1031424
v -0.1212792 -0.0917471 1.1060758
v -0.1229803 -0.0868213 1.0814724
v -0.1351736 -0.0663742 1.0785611
v -0.1148316 0.0743106 1.1359873
v -0.1074980 0.0700641 1.1124829
v -0.0860190 0.0846813 1.1376789
v -0.0805350 0.0802635 1.1134242
v -0.1419268 0.0576994 1.1348124
v -0.1331806 0.0539359 1.1130021
v -0.1597052 0.0318504 1.1384994
v -0.1520435 0.0287287 1.1183712
v -0.1641560 0.0014341 1.1488175
v -0.1583032 -0.0014658 1.1290579
v -0.1537366 -0.0315593 1.1399163
v -0.1568534 -0.0347887 1.1654643
v -0.1238991 -0.1287279 1.2338243
v -0.1523873 -0.0294582 1.1169248
v -0.1528229 -0.0014737 1.1070312
v -0.1260150 0.0507671 1.0915182
v -0.1011176 0.0656793 1.0905675
v -0.1184449 0.0473832 1.0705094
v -0.0950309 0.0612244 1.0694773
v -0.0900457 0.0579738 1.0478159
v -0.1128236 0.0461204 1.0489199
v -0.1464306 -0.0250994 1.0673938
v -0.1437152 0.0002540 1.0591674
v -0.1318709 0.0260984 1.0523065
v -0.0664376 0.0641367 1.0475845
v -0.0833153 0.1043944 1.3208023
v -0.0639844 0.1038231 1.3149450
v -0.0937911 0.1083445 1.2962744
v -0.1052908 0.1104835 1.2675810
v -0.0710597 0.1078164 1.2891921
v -0.0784152 0.1077172 1.2603900
v -0.1496419 -0.0272128 1.0928111
v -0.1473708 -0.0010218 1.0835704
v -0.1188769 0.1055777 1.2354099
v -0.0870334 0.1053299 1.2286496
v -0.1330080 0.0898755 1.1978884
v -0.0924163 0.0988388 1.1961743
v -0.0754665 0.0744768 1.0913272
v -0.0705857 0.0687703 1.0698540
v -0.1445537 0.0271766 1.0970019
v -0.1377254 0.0258992 1.0748004
v 0.0001211 0.0844984 1.3070377
v -0.0271095 -0.1386261 1.0866575
v -0.0265049 -0.1418708 1.1178665
v -0.0245516 -0.1386248 1.1408314
v -0.0227827 -0.1345807 1.1595215
v -0.0214086 -0.1291205 1.1746968
v -0.0198981 -0.1290950 1.2029567
v -0.0187456 -0.1322868 1.2168031
v -0.0181114 -0.1327467 1.2318035
v -0.0178462 -0.1291070 1.2479050
v -0.0172436 -0.1222843 1.2644491
v -0.0163823 -0.1137109 1.2810140
v -0.0224106 0.0910105 1.3082521
v -0.0438906 0.0985399 1.3107847
v -0.0242338 0.0940103 1.2815994
v -0.0481058 0.1015687 1.2844386
v -0.0267923 0.0951560 1.2534566
v -0.0532589 0.1004053 1.2560647
v -0.0288289 0.0934468 1.2244555
v -0.0573700 0.0995994 1.2259542
v -0.0298212 0.0892881 1.1959555
v -0.0598875 0.0965322 1.1957393
v -0.0285747 0.0795963 1.1426822
v -0.0565460 0.0867775 1.1400164
v -0.0270809 0.0752817 1.1184969
v -0.0534388 0.0819295 1.1156205
v -0.0251355 0.0710699 1.0954311
v -0.0501777 0.0760611 1.0931102
v -0.0233191 0.0664560 1.0724676
v -0.0467167 0.0709611 1.0709493
v -0.0217431 0.0634591 1.0479686
v -0.0438467 0.0661647 1.0476971
v -0.0547556 -0.1336405 1.0864280
v -0.0530403 -0.1390591 1.1160856
v -0.0490947 -0.1371497 1.1391224
v -0.0456639 -0.1322084 1.1575513
v -0.0434488 -0.1297539 1.1738560
v -0.1367719 -0.0902561 1.3123622
v -0.1484116 -0.0936557 1.2927737
v -0.1586482 -0.0931578 1.2720425
v -0.1641169 -0.0878118 1.2524703
v -0.1642354 -0.0771545 1.2350072
v -0.1584809 -0.0603759 1.2185924
v -0.1637589 -0.0174294 1.1811987
v -0.1687454 0.0086736 1.1664323
v -0.1657733 0.0362846 1.1583997
v -0.1508621 0.0626915 1.1578529
v -0.1226779 0.0817182 1.1624233
v -0.0904396 0.0902949 1.1652105
v -0.0589675 0.0918063 1.1666479
v -0.0293176 0.0845044 1.1683989
v -0.1261215 -0.0979460 1.3049476
v -0.1379706 -0.1028165 1.2842127
v -0.1484224 -0.1046026 1.2624935
v -0.1542649 -0.1019427 1.2427216
v -0.1561069 -0.0933176 1.2243713
v -0.1525158 -0.0777434 1.2079864
v -0.1427840 -0.0464549 1.0741426
v -0.1454174 -0.0495856 1.0992650
v -0.1461070 -0.0534973 1.1227105
v -0.1447187 -0.0580036 1.1446210
v -0.1430287 -0.0658743 1.1655625
v -0.1429036 -0.0980197 1.2004747
v -0.1439514 -0.1113575 1.2177701
v -0.1406580 -0.1167727 1.2364900
v -0.1345082 -0.1163628 1.2561116
v -0.1250427 -0.1118922 1.2776169
v -0.1138971 -0.1052067 1.2985723
v -0.0329528 -0.1168197 1.2828712
v -0.0349594 -0.1262562 1.2657784
v -0.0362705 -0.1343076 1.2484436
v -0.0371458 -0.1395240 1.2315342
v -0.0381065 -0.1411584 1.2157583
v -0.0397000 -0.1388029 1.2011411
v -0.1461582 -0.0830004 1.3204616
v -0.1578121 -0.0858481 1.3022302
v -0.1676681 -0.0839765 1.2826146
v -0.1723383 -0.0759527 1.2634904
v -0.1702399 -0.0622490 1.2456833
v -0.1636377 -0.0440723 1.2311028
v -0.1683857 -0.0063484 1.2003981
v -0.1725925 0.0152946 1.1863248
v -0.1726478 0.0389741 1.1812007
v -0.1611163 0.0648536 1.1825597
v -0.1042649 -0.1370347 1.2319043
v -0.0991469 -0.1322626 1.2498008
v -0.1011779 0.0996503 1.3289433
v -0.1145192 0.1031435 1.3056014
v -0.1296328 0.1074637 1.2790966
v -0.1765380 -0.0783771 1.2934380
v -0.1664183 -0.0797370 1.3124760
v -0.1545019 -0.0771827 1.3292546
v 0.0000062 -0.1185700 1.2630072
v 0.0001541 -0.1404017 1.1179976
v 0.0000010 -0.1337654 1.1597211
v 0.0000053 -0.1267861 1.2307842
v -0.0000497 -0.1041575 1.2968552
v 0.0000263 -0.1243753 1.2466799
v 0.0002753 -0.1379381 1.0861853
v 0.0001035 -0.1373644 1.1410522
v -0.0000033 -0.1109861 1.2797058
v 0.0000145 -0.1278811 1.1747779
v 0.0000293 -0.1241078 1.1891024
v 0.0000308 -0.1250776 1.2163421
v 0.0001607 -0.1237500 1.2030127
v -0.1491842 0.0436865 1.3861207
v -0.0603939 -0.0838595 1.3386835
v -0.0490363 -0.0874041 1.3358686
v -0.0413422 -0.0588936 1.3775134
v -0.0339951 -0.0623600 1.3749053
v -0.0382662 -0.0686402 1.3622303
v -0.0466191 -0.0653704 1.3649188
v -0.0433657 -0.0778972 1.3498145
v -0.0532440 -0.0751162 1.3530910
v -0.0551478 -0.0967296 1.3201088
v -0.0681577 -0.0938671 1.3234241
v -0.1169104 0.0643330 1.3926151
v -0.1270871 0.0526859 1.3976567
v -0.1348000 0.0403583 1.4001095
v -0.1403884 0.0279229 1.4007072
v -0.1089605 0.0196393 1.4180988
v -0.1039905 0.0289970 1.4194217
v -0.0973220 0.0386441 1.4196398
v -0.0887018 0.0479292 1.4182397
v -0.1027783 0.0576971 1.4070674
v -0.1122428 0.0468343 1.4103460
v -0.1193850 0.0354975 1.4113524
v -0.1246879 0.0243751 1.4108678
v -0.0630857 0.0259095 1.4348141
v -0.0700966 0.0203658 1.4343361
v -0.0754389 0.0146914 1.4329174
v -0.0793651 0.0088649 1.4308447
v -0.0936131 0.0145237 1.4243721
v -0.0891662 0.0219179 1.4262310
v -0.0830418 0.0295246 1.4271839
v -0.0751012 0.0367393 1.4268777
v -0.1117954 -0.0205064 1.3943644
v -0.0844069 -0.0020356 1.4257082
v -0.1141937 0.0023087 1.4123082
v -0.1269112 -0.0249380 1.3858486
v -0.0987476 0.0009108 1.4189271
v -0.1300812 0.0030565 1.4053075
v -0.1433677 -0.0337191 1.3824983
v -0.1457013 0.0036430 1.3966049
v -0.0849203 -0.0179372 1.4139978
v -0.0977226 -0.0183648 1.4041119
v -0.1620153 0.0032810 1.3880087
v -0.1602678 -0.0412634 1.3783919
v -0.0764745 0.0896181 1.3658301
v -0.0000591 0.0767063 1.3540528
v -0.0558426 0.0903862 1.3580301
v -0.0086699 -0.0579394 1.4947546
v 0.0086030 -0.0579625 1.4948328
v 0.0001039 0.0698101 1.3751932
v 0.0000098 -0.0576413 1.4944073
v 0.0158629 0.0626935 1.3965435
v 0.0107118 -0.0564812 1.5008571
v 0.0128138 0.0398672 1.4295397
v 0.0142916 0.0518324 1.4143447
v -0.0159441 0.0627404 1.3965385
v -0.0107368 -0.0564470 1.5008188
v -0.0126848 0.0402466 1.4297161
v -0.0144291 0.0518272 1.4145136
usemtl blender_human_cc0
f 465 425 76
f 68 465 76
f 74 73 35
f 47 74 35
f 34 20 19
f 33 34 19
f 39 18 31
f 38 39 31
f 785 37 25
f 782 785 25
f 21 70 69
f 1 21 69
f 48 33 32
f 52 48 32
f 338 54 2
f 329 338 2
f 38 32 24
f 39 38 24
f 77 53 1
f 69 77 1
f 73 70 21
f 35 73 21
f 469 465 68
f 71 469 68
f 24 19 3
f 4 24 3
f 61 60 7
f 59 61 7
f 59 7 6
f 58 59 6
f 91 366 364
f 90 91 364
f 18 39 5
f 6 18 5
f 371 12 11
f 65 371 11
f 355 28 16
f 343 355 16
f 17 18 6
f 7 17 6
f 67 13 12
f 372 67 12
f 67 93 92
f 13 67 92
f 86 84 7
f 60 86 7
f 84 88 17
f 7 84 17
f 25 23 12
f 13 25 12
f 10 347 339
f 64 10 339
f 65 11 10
f 64 65 10
f 89 22 8
f 90 89 8
f 343 16 9
f 350 343 9
f 336 329 2
f 20 336 2
f 46 52 32
f 38 46 32
f 332 47 35
f 333 332 35
f 32 33 19
f 24 32 19
f 468 469 71
f 72 468 71
f 55 56 4
f 3 55 4
f 19 20 2
f 3 19 2
f 21 335 333
f 35 21 333
f 41 34 33
f 48 41 33
f 46 38 31
f 51 46 31
f 57 5 4
f 56 57 4
f 58 6 5
f 57 58 5
f 39 24 4
f 5 39 4
f 31 18 17
f 30 31 17
f 51 31 30
f 50 51 30
f 784 45 37
f 785 784 37
f 17 88 78
f 30 17 78
f 22 89 79
f 29 22 79
f 85 50 30
f 78 85 30
f 26 36 14
f 23 26 14
f 44 36 26
f 49 44 26
f 45 49 26
f 37 45 26
f 79 87 42
f 29 79 42
f 37 26 23
f 25 37 23
f 36 44 43
f 27 36 43
f 351 358 27
f 43 351 27
f 12 23 14
f 11 12 14
f 27 15 14
f 36 27 14
f 15 10 11
f 14 15 11
f 467 468 72
f 75 467 72
f 55 3 2
f 54 55 2
f 77 69 68
f 76 77 68
f 73 72 71
f 70 73 71
f 75 72 73
f 74 75 73
f 70 71 68
f 69 70 68
f 367 368 29
f 42 367 29
f 29 368 359
f 22 29 359
f 362 8 22
f 359 362 22
f 365 362 84
f 86 365 84
f 360 363 28
f 40 360 28
f 361 363 79
f 89 361 79
f 364 361 89
f 90 364 89
f 91 90 8
f 62 91 8
f 285 286 256
f 257 285 256
f 476 475 250
f 252 476 250
f 480 479 258
f 260 480 258
f 477 476 252
f 254 477 252
f 483 482 264
f 266 483 264
f 307 244 243
f 308 307 243
f 255 254 252
f 253 255 252
f 262 481 480
f 260 262 480
f 484 478 256
f 286 484 256
f 484 286 258
f 479 484 258
f 270 239 238
f 269 270 238
f 160 159 157
f 158 160 157
f 263 265 264
f 262 263 264
f 264 482 481
f 262 264 481
f 325 326 311
f 312 325 311
f 242 309 308
f 243 242 308
f 271 240 239
f 270 271 239
f 161 181 159
f 160 161 159
f 731 242 243
f 730 731 243
f 104 103 97
f 105 104 97
f 108 107 99
f 100 108 99
f 108 100 96
f 109 108 96
f 98 106 105
f 97 98 105
f 101 110 109
f 96 101 109
f 99 107 106
f 98 99 106
f 111 110 101
f 102 111 101
f 318 106 107
f 317 318 107
f 317 316 279
f 280 317 279
f 315 110 111
f 314 315 111
f 145 316 108
f 109 145 108
f 312 311 274
f 275 312 274
f 318 319 105
f 106 318 105
f 231 229 113
f 104 231 113
f 176 303 137
f 120 176 137
f 105 319 231
f 104 105 231
f 316 317 107
f 108 316 107
f 313 314 111
f 114 313 111
f 156 155 118
f 119 156 118
f 177 176 120
f 121 177 120
f 239 726 720
f 238 239 720
f 731 729 154
f 242 731 154
f 223 225 222
f 221 223 222
f 222 129 128
f 221 222 128
f 727 247 132
f 723 727 132
f 249 248 133
f 134 249 133
f 287 303 302
f 288 287 302
f 303 287 136
f 137 303 136
f 287 273 135
f 136 287 135
f 724 245 246
f 719 724 246
f 730 243 244
f 722 730 244
f 158 157 155
f 156 158 155
f 627 521 133
f 248 627 133
f 288 274 273
f 287 288 273
f 273 310 139
f 135 273 139
f 724 722 244
f 245 724 244
f 304 156 119
f 138 304 119
f 727 719 246
f 247 727 246
f 728 721 240
f 241 728 240
f 247 304 138
f 132 247 138
f 313 312 275
f 276 313 275
f 721 726 239
f 240 721 239
f 324 323 143
f 144 324 143
f 251 250 248
f 249 251 248
f 257 256 254
f 255 257 254
f 322 140 117
f 142 322 117
f 298 148 147
f 292 298 147
f 324 144 112
f 113 324 112
f 319 318 281
f 282 319 281
f 294 227 209
f 295 294 209
f 169 188 186
f 167 169 186
f 181 161 162
f 163 181 162
f 272 153 154
f 241 272 154
f 191 188 169
f 170 191 169
f 177 179 178
f 176 177 178
f 307 308 162
f 161 307 162
f 321 179 157
f 159 321 157
f 306 160 158
f 305 306 158
f 165 163 162
f 164 165 162
f 168 169 167
f 166 168 167
f 171 170 169
f 168 171 169
f 309 242 154
f 153 309 154
f 185 183 163
f 165 185 163
f 168 271 270
f 171 168 270
f 268 174 173
f 269 268 173
f 300 301 180
f 208 300 180
f 295 190 192
f 294 295 192
f 296 297 187
f 189 296 187
f 208 320 183
f 182 208 183
f 186 150 151
f 167 186 151
f 295 296 189
f 190 295 189
f 294 192 195
f 293 294 195
f 228 227 217
f 218 228 217
f 627 248 250
f 475 627 250
f 201 197 196
f 200 201 196
f 198 284 283
f 196 198 283
f 203 235 211
f 201 203 211
f 282 281 202
f 200 282 202
f 297 296 206
f 207 297 206
f 193 192 190
f 191 193 190
f 174 175 172
f 173 174 172
f 187 149 150
f 186 187 150
f 227 228 210
f 209 227 210
f 324 224 223
f 323 324 223
f 188 189 187
f 186 188 187
f 210 235 203
f 205 210 203
f 214 234 233
f 212 214 233
f 234 214 215
f 220 234 215
f 294 293 217
f 227 294 217
f 113 112 103
f 104 113 103
f 720 725 237
f 238 720 237
f 323 322 142
f 143 323 142
f 295 209 206
f 296 295 206
f 164 152 151
f 165 164 151
f 307 161 160
f 306 307 160
f 166 272 271
f 168 166 271
f 226 225 223
f 224 226 223
f 279 316 145
f 146 279 145
f 175 194 193
f 172 175 193
f 185 184 182
f 183 185 182
f 236 235 210
f 228 236 210
f 265 263 233
f 234 265 233
f 203 201 200
f 202 203 200
f 209 210 205
f 206 209 205
f 233 263 261
f 199 233 261
f 214 212 211
f 213 214 211
f 219 216 213
f 236 219 213
f 249 134 129
f 222 249 129
f 261 259 198
f 199 261 198
f 267 265 234
f 220 267 234
f 233 199 197
f 212 233 197
f 320 181 163
f 183 320 163
f 226 253 251
f 225 226 251
f 322 221 128
f 140 322 128
f 230 226 224
f 229 230 224
f 195 192 193
f 194 195 193
f 322 323 223
f 221 322 223
f 232 257 255
f 230 232 255
f 291 299 298
f 292 291 298
f 478 477 254
f 256 478 254
f 253 252 250
f 251 253 250
f 272 241 240
f 271 272 240
f 244 307 306
f 245 244 306
f 728 241 154
f 729 728 154
f 306 305 246
f 245 306 246
f 301 289 288
f 302 301 288
f 285 259 258
f 286 285 258
f 261 260 258
f 259 261 258
f 274 311 310
f 273 274 310
f 327 141 139
f 310 327 139
f 289 290 276
f 275 289 276
f 320 321 159
f 181 320 159
f 291 277 276
f 290 291 276
f 315 314 277
f 278 315 277
f 297 207 147
f 148 297 147
f 207 279 146
f 147 207 146
f 281 318 317
f 280 281 317
f 231 319 282
f 283 231 282
f 285 284 198
f 259 285 198
f 292 278 277
f 291 292 277
f 150 185 165
f 151 150 165
f 235 236 213
f 211 235 213
f 279 207 204
f 280 279 204
f 207 206 205
f 204 207 205
f 199 198 196
f 197 199 196
f 213 216 215
f 214 213 215
f 300 208 182
f 299 300 182
f 301 300 290
f 289 301 290
f 300 299 291
f 290 300 291
f 288 289 275
f 274 288 275
f 114 325 312
f 313 114 312
f 255 253 226
f 230 255 226
f 184 149 148
f 298 184 148
f 315 278 146
f 145 315 146
f 285 257 232
f 284 285 232
f 155 177 121
f 118 155 121
f 284 232 231
f 283 284 231
f 326 327 310
f 311 326 310
f 185 150 149
f 184 185 149
f 187 297 148
f 149 187 148
f 190 189 188
f 191 190 188
f 251 249 222
f 225 251 222
f 164 309 153
f 152 164 153
f 272 166 152
f 153 272 152
f 305 158 156
f 304 305 156
f 224 324 113
f 229 224 113
f 309 164 162
f 308 309 162
f 179 177 155
f 157 179 155
f 173 172 170
f 171 173 170
f 193 191 170
f 172 193 170
f 269 173 171
f 270 269 171
f 321 180 178
f 179 321 178
f 302 303 176
f 178 302 176
f 205 203 202
f 204 205 202
f 202 281 280
f 204 202 280
f 292 147 146
f 278 292 146
f 282 200 196
f 283 282 196
f 298 299 182
f 184 298 182
f 232 230 229
f 231 232 229
f 167 151 152
f 166 167 152
f 180 321 320
f 208 180 320
f 314 313 276
f 277 314 276
f 261 263 262
f 260 261 262
f 246 305 304
f 247 246 304
f 265 267 266
f 264 265 266
f 268 269 238
f 237 268 238
f 315 145 109
f 110 315 109
f 301 302 178
f 180 301 178
f 236 228 218
f 219 236 218
f 211 212 197
f 201 211 197
f 723 132 76
f 425 723 76
f 60 126 122
f 86 60 122
f 61 131 126
f 60 61 126
f 131 61 59
f 141 131 59
f 141 59 58
f 139 141 58
f 139 58 57
f 135 139 57
f 135 57 56
f 136 135 56
f 55 137 136
f 56 55 136
f 334 336 20
f 34 334 20
f 335 336 334
f 333 335 334
f 334 34 41
f 331 334 41
f 334 331 332
f 333 334 332
f 335 21 1
f 330 335 1
f 335 330 329
f 336 335 329
f 337 330 1
f 53 337 1
f 337 338 329
f 330 337 329
f 137 55 54
f 120 137 54
f 338 121 120
f 54 338 120
f 121 338 337
f 118 121 337
f 53 119 118
f 337 53 118
f 138 119 53
f 77 138 53
f 138 77 76
f 132 138 76
f 370 115 62
f 365 370 62
f 115 127 91
f 62 115 91
f 369 123 63
f 366 369 63
f 355 354 40
f 28 355 40
f 355 356 353
f 354 355 353
f 357 352 353
f 356 357 353
f 357 358 351
f 352 357 351
f 346 347 10
f 15 346 10
f 347 346 345
f 348 347 345
f 348 345 344
f 349 348 344
f 349 344 343
f 350 349 343
f 342 350 9
f 63 342 9
f 350 342 341
f 349 350 341
f 349 341 340
f 348 349 340
f 347 348 340
f 339 347 340
f 358 346 15
f 27 358 15
f 358 357 345
f 346 358 345
f 357 356 344
f 345 357 344
f 356 355 343
f 344 356 343
f 127 369 366
f 91 127 366
f 370 365 86
f 122 370 86
f 361 364 9
f 16 361 9
f 363 361 16
f 28 363 16
f 360 87 79
f 363 360 79
f 365 62 8
f 362 365 8
f 359 88 84
f 362 359 84
f 359 368 78
f 88 359 78
f 78 368 367
f 85 78 367
f 366 63 9
f 364 366 9
f 116 342 63
f 123 116 63
f 342 116 328
f 341 342 328
f 341 328 124
f 340 341 124
f 339 340 124
f 130 339 124
f 130 125 64
f 339 130 64
f 64 125 117
f 65 64 117
f 140 371 65
f 117 140 65
f 140 128 66
f 371 140 66
f 129 372 66
f 128 129 66
f 129 134 67
f 372 129 67
f 133 93 67
f 134 133 67
f 776 93 133
f 521 776 133
f 66 372 12
f 371 66 12
f 441 449 425
f 465 441 425
f 447 419 407
f 446 447 407
f 392 406 405
f 391 392 405
f 390 411 410
f 403 390 410
f 789 471 472
f 786 789 472
f 442 443 393
f 373 442 393
f 420 424 404
f 405 420 404
f 742 733 374
f 427 742 374
f 410 411 396
f 404 410 396
f 426 450 442
f 373 426 442
f 446 407 393
f 443 446 393
f 469 444 441
f 465 469 441
f 391 396 376
f 375 391 376
f 434 432 379
f 433 434 379
f 379 432 431
f 378 379 431
f 768 770 464
f 463 768 464
f 377 411 390
f 378 377 390
f 775 438 383
f 384 775 383
f 759 747 388
f 400 759 388
f 389 379 378
f 390 389 378
f 440 777 384
f 385 440 384
f 473 440 385
f 466 473 385
f 459 433 379
f 457 459 379
f 461 457 379
f 389 461 379
f 397 385 384
f 395 397 384
f 743 751 382
f 437 743 382
f 383 438 437
f 382 383 437
f 462 463 380
f 394 462 380
f 754 381 388
f 747 754 388
f 733 740 392
f 374 733 392
f 418 410 404
f 424 418 404
f 736 737 407
f 419 736 407
f 405 404 396
f 391 405 396
f 468 445 444
f 469 468 444
f 429 428 375
f 376 429 375
f 391 375 374
f 392 391 374
f 739 393 407
f 737 739 407
f 413 420 405
f 406 413 405
f 423 403 410
f 418 423 410
f 430 429 376
f 377 430 376
f 431 430 377
f 378 431 377
f 396 411 377
f 376 396 377
f 403 402 389
f 390 403 389
f 423 422 402
f 403 423 402
f 789 788 470
f 471 789 470
f 451 461 389
f 402 451 389
f 452 462 394
f 401 452 394
f 458 451 402
f 422 458 402
f 386 408 398
f 395 386 398
f 416 421 398
f 408 416 398
f 421 417 409
f 398 421 409
f 414 460 452
f 401 414 452
f 409 397 395
f 398 409 395
f 416 408 399
f 415 416 399
f 762 755 415
f 399 762 415
f 395 384 383
f 386 395 383
f 399 408 386
f 387 399 386
f 382 387 386
f 383 382 386
f 468 467 448
f 445 468 448
f 428 427 374
f 375 428 374
f 450 449 441
f 442 450 441
f 446 443 444
f 445 446 444
f 447 446 445
f 448 447 445
f 443 442 441
f 444 443 441
f 401 772 771
f 414 401 771
f 772 401 394
f 763 772 394
f 763 394 380
f 766 763 380
f 766 769 459
f 457 766 459
f 764 412 400
f 767 764 400
f 452 767 765
f 462 452 765
f 768 463 462
f 765 768 462
f 464 435 380
f 463 464 380
f 676 648 647
f 677 676 647
f 643 641 475
f 476 643 475
f 480 651 649
f 479 480 649
f 645 643 476
f 477 645 476
f 657 655 482
f 483 657 482
f 698 699 634
f 635 698 634
f 646 644 643
f 645 646 643
f 653 651 480
f 481 653 480
f 677 647 478
f 484 677 478
f 677 484 479
f 649 677 479
f 630 661 660
f 629 630 660
f 550 548 547
f 549 550 547
f 656 654 653
f 655 656 653
f 655 653 481
f 482 655 481
f 717 716 703
f 702 717 703
f 699 700 633
f 634 699 633
f 662 661 630
f 631 662 630
f 549 571 551
f 550 549 551
f 730 634 633
f 731 730 633
f 493 494 486
f 492 493 486
f 497 489 488
f 496 497 488
f 497 498 485
f 489 497 485
f 494 495 487
f 486 494 487
f 499 490 485
f 498 499 485
f 495 496 488
f 487 495 488
f 500 491 490
f 499 500 490
f 709 708 496
f 495 709 496
f 707 708 671
f 670 707 671
f 706 705 500
f 499 706 500
f 535 498 497
f 707 535 497
f 702 703 666
f 665 702 666
f 709 495 494
f 710 709 494
f 619 621 493
f 502 619 493
f 694 566 509
f 527 694 509
f 710 494 493
f 621 710 493
f 708 707 497
f 496 708 497
f 704 503 500
f 705 704 500
f 546 508 507
f 545 546 507
f 567 510 509
f 566 567 509
f 720 726 630
f 629 720 630
f 731 633 544
f 729 731 544
f 615 613 611
f 612 615 611
f 612 611 517
f 518 612 517
f 727 723 522
f 638 727 522
f 639 640 524
f 523 639 524
f 693 694 678
f 679 693 678
f 678 694 527
f 526 678 527
f 678 526 525
f 664 678 525
f 636 724 719
f 637 636 719
f 730 722 635
f 634 730 635
f 547 548 546
f 545 547 546
f 639 523 521
f 627 639 521
f 679 678 664
f 665 679 664
f 529 701 664
f 525 529 664
f 724 636 635
f 722 724 635
f 695 528 508
f 546 695 508
f 727 638 637
f 719 727 637
f 728 632 631
f 721 728 631
f 528 695 638
f 522 528 638
f 704 667 666
f 703 704 666
f 721 631 630
f 726 721 630
f 715 534 533
f 714 715 533
f 642 640 639
f 641 642 639
f 648 646 645
f 647 648 645
f 713 532 506
f 530 713 506
f 689 683 537
f 538 689 537
f 715 502 501
f 534 715 501
f 710 673 672
f 709 710 672
f 685 686 599
f 617 685 599
f 578 559 557
f 576 578 557
f 571 553 552
f 551 571 552
f 632 544 543
f 663 632 543
f 578 581 560
f 559 578 560
f 568 569 567
f 566 568 567
f 699 698 551
f 552 699 551
f 569 712 549
f 547 569 549
f 697 696 548
f 550 697 548
f 555 554 552
f 553 555 552
f 559 558 556
f 557 559 556
f 560 561 558
f 559 560 558
f 633 700 543
f 544 633 543
f 575 555 553
f 573 575 553
f 661 662 558
f 561 661 558
f 659 660 563
f 564 659 563
f 570 692 691
f 598 570 691
f 685 582 580
f 686 685 580
f 577 688 687
f 579 577 687
f 711 598 572
f 573 711 572
f 557 541 540
f 576 557 540
f 579 687 686
f 580 579 686
f 684 585 582
f 685 684 582
f 617 618 608
f 607 617 608
f 475 641 639
f 627 475 639
f 591 590 586
f 587 591 586
f 675 588 586
f 674 675 586
f 601 625 593
f 591 601 593
f 672 673 590
f 592 672 590
f 688 597 596
f 687 688 596
f 582 583 581
f 580 582 581
f 564 563 562
f 565 564 562
f 576 540 539
f 577 576 539
f 618 617 599
f 600 618 599
f 715 714 613
f 614 715 613
f 579 578 576
f 577 579 576
f 600 595 593
f 625 600 593
f 624 604 602
f 623 624 602
f 624 610 605
f 604 624 605
f 685 617 607
f 684 685 607
f 502 493 492
f 501 502 492
f 720 629 628
f 725 720 628
f 714 533 532
f 713 714 532
f 686 687 596
f 599 686 596
f 554 555 541
f 542 554 541
f 551 698 697
f 550 551 697
f 662 663 556
f 558 662 556
f 615 616 614
f 613 615 614
f 707 670 536
f 535 707 536
f 584 565 562
f 583 584 562
f 574 575 573
f 572 574 573
f 626 618 600
f 625 626 600
f 656 624 623
f 654 656 623
f 593 592 590
f 591 593 590
f 595 600 599
f 596 595 599
f 654 623 589
f 652 654 589
f 604 603 601
f 602 604 601
f 609 626 603
f 606 609 603
f 640 612 518
f 524 640 518
f 652 589 588
f 650 652 588
f 658 610 624
f 656 658 624
f 623 602 587
f 589 623 587
f 711 573 553
f 571 711 553
f 644 616 615
f 642 644 615
f 713 530 517
f 611 713 517
f 620 619 614
f 616 620 614
f 582 585 584
f 583 582 584
f 714 713 611
f 613 714 611
f 648 622 620
f 646 648 620
f 690 682 683
f 689 690 683
f 647 645 477
f 478 647 477
f 644 642 641
f 643 644 641
f 663 662 631
f 632 663 631
f 697 698 635
f 636 697 635
f 728 729 544
f 632 728 544
f 696 697 636
f 637 696 636
f 692 693 679
f 680 692 679
f 676 677 649
f 650 676 649
f 652 650 649
f 651 652 649
f 702 665 664
f 701 702 664
f 718 701 529
f 531 718 529
f 681 680 666
f 667 681 666
f 549 712 711
f 571 549 711
f 668 682 681
f 667 668 681
f 706 669 668
f 705 706 668
f 688 538 537
f 597 688 537
f 536 670 597
f 537 536 597
f 708 709 672
f 671 708 672
f 621 674 673
f 710 621 673
f 676 650 588
f 675 676 588
f 669 683 682
f 668 669 682
f 555 575 540
f 541 555 540
f 626 625 601
f 603 626 601
f 670 671 594
f 597 670 594
f 597 594 595
f 596 597 595
f 589 587 586
f 588 589 586
f 605 606 603
f 604 605 603
f 598 691 690
f 572 598 690
f 692 680 681
f 691 692 681
f 690 691 681
f 682 690 681
f 680 679 665
f 666 680 665
f 703 716 503
f 704 703 503
f 644 646 620
f 616 644 620
f 574 689 538
f 539 574 538
f 669 706 535
f 536 669 535
f 676 675 622
f 648 676 622
f 510 567 545
f 507 510 545
f 675 674 621
f 622 675 621
f 718 717 702
f 701 718 702
f 575 574 539
f 540 575 539
f 538 688 577
f 539 538 577
f 580 581 578
f 579 580 578
f 642 615 612
f 640 642 612
f 700 554 542
f 543 700 542
f 663 543 542
f 556 663 542
f 696 695 546
f 548 696 546
f 502 715 614
f 619 502 614
f 700 699 552
f 554 700 552
f 569 547 545
f 567 569 545
f 563 561 560
f 562 563 560
f 583 562 560
f 581 583 560
f 660 661 561
f 563 660 561
f 712 569 568
f 570 712 568
f 693 568 566
f 694 693 566
f 593 595 594
f 592 593 594
f 672 592 594
f 671 672 594
f 683 669 536
f 537 683 536
f 674 586 590
f 673 674 590
f 690 689 574
f 572 690 574
f 622 621 619
f 620 622 619
f 541 557 556
f 542 541 556
f 711 712 570
f 598 711 570
f 705 668 667
f 704 705 667
f 653 654 652
f 651 653 652
f 695 696 637
f 638 695 637
f 657 658 656
f 655 657 656
f 660 659 628
f 629 660 628
f 706 499 498
f 535 706 498
f 692 570 568
f 693 692 568
f 626 609 608
f 618 626 608
f 601 591 587
f 602 601 587
f 723 425 449
f 522 723 449
f 515 433 459
f 511 515 459
f 520 434 433
f 515 520 433
f 520 531 432
f 434 520 432
f 432 531 529
f 431 432 529
f 529 525 430
f 431 529 430
f 525 526 429
f 430 525 429
f 526 527 428
f 429 526 428
f 740 738 406
f 392 740 406
f 738 740 739
f 737 738 739
f 735 413 406
f 738 735 406
f 738 737 736
f 735 738 736
f 739 734 373
f 393 739 373
f 739 740 733
f 734 739 733
f 741 426 373
f 734 741 373
f 741 734 733
f 742 741 733
f 527 509 427
f 428 527 427
f 510 742 427
f 509 510 427
f 741 742 510
f 507 741 510
f 426 741 507
f 508 426 507
f 528 450 426
f 508 528 426
f 528 522 449
f 450 528 449
f 504 774 769
f 435 504 769
f 516 504 435
f 464 516 435
f 512 773 770
f 436 512 770
f 758 759 400
f 412 758 400
f 757 760 759
f 758 757 759
f 760 757 756
f 761 760 756
f 761 756 755
f 762 761 755
f 382 751 750
f 387 382 750
f 752 749 750
f 751 752 750
f 752 753 748
f 749 752 748
f 754 747 748
f 753 754 748
f 754 746 436
f 381 754 436
f 746 754 753
f 745 746 753
f 753 752 744
f 745 753 744
f 752 751 743
f 744 752 743
f 762 399 387
f 750 762 387
f 762 750 749
f 761 762 749
f 761 749 748
f 760 761 748
f 760 748 747
f 759 760 747
f 773 516 464
f 770 773 464
f 774 511 459
f 769 774 459
f 381 768 765
f 388 381 765
f 767 400 388
f 765 767 388
f 764 767 452
f 460 764 452
f 769 766 380
f 435 769 380
f 763 766 457
f 461 763 457
f 763 461 451
f 772 763 451
f 771 772 451
f 458 771 451
f 770 768 381
f 436 770 381
f 436 746 505
f 512 436 505
f 505 746 745
f 732 505 745
f 732 745 744
f 513 732 744
f 743 519 513
f 744 743 513
f 519 743 437
f 514 519 437
f 506 514 437
f 438 506 437
f 782 25 13
f 92 782 13
f 530 506 438
f 775 530 438
f 530 775 439
f 517 530 439
f 518 517 439
f 777 518 439
f 518 777 440
f 524 518 440
f 523 524 440
f 473 523 440
f 521 523 473
f 776 521 473
f 439 775 384
f 777 439 384
f 776 473 466
f 780 776 466
f 466 786 472
f 780 466 472
f 780 92 93
f 776 780 93
f 785 471 470
f 784 785 470
f 471 785 782
f 472 471 782
f 788 789 409
f 417 788 409
f 409 789 786
f 397 409 786
f 786 466 385
f 397 786 385
f 92 780 472
f 782 92 472
f 474 787 778
f 781 474 778
f 783 779 94
f 95 783 94
f 82 83 80
f 81 82 80
f 455 454 453
f 456 455 453
