# Level-zero anatomical extract from Blender Human Base Meshes v1.4.1 (CC0)
o human-shin-l
v -0.1420642 0.0441635 0.0974580
v -0.1409386 0.0456150 0.0885431
v -0.1421194 0.0545947 0.0978602
v -0.1424939 0.0558615 0.0876553
v -0.1445081 0.0654916 0.0977105
v -0.1454204 0.0665055 0.0871319
v -0.1544944 0.0934519 0.0973575
v -0.1555073 0.0938306 0.0868286
v -0.1630784 0.0959695 0.0977730
v -0.1636419 0.0962959 0.0870415
v -0.1719366 0.0912213 0.0983194
v -0.1719714 0.0912008 0.0869989
v -0.1823296 0.0868774 0.0994889
v -0.1822377 0.0863180 0.0876832
v -0.1933322 0.0822503 0.1016888
v -0.1944102 0.0826049 0.0904519
v -0.1998334 0.0719328 0.1044267
v -0.2022997 0.0724665 0.0941434
v -0.2016207 0.0589720 0.1070984
v -0.2042139 0.0587896 0.0976513
v -0.2004163 0.0457221 0.1095609
v -0.2024745 0.0450273 0.1007093
v -0.1958682 0.0335825 0.1112269
v -0.1978201 0.0325762 0.1030995
v -0.1884544 0.0232080 0.1123643
v -0.1899611 0.0219458 0.1045734
v -0.1783502 0.0165678 0.1124795
v -0.1797430 0.0144892 0.1048464
v -0.1662004 0.0178010 0.1100439
v -0.1672743 0.0147520 0.1024404
v -0.1554075 0.0243735 0.1058591
v -0.1563482 0.0209098 0.0981438
v -0.1472035 0.0321174 0.1008885
v -0.1476887 0.0282879 0.0938426
v -0.1433393 0.0375455 0.0962858
v -0.1426191 0.0365231 0.0902921
v -0.1552869 0.0283685 0.1144074
v -0.1560805 0.0312440 0.1246225
v -0.1656396 0.0208696 0.1181610
v -0.1656934 0.0233048 0.1272949
v -0.1578356 0.0184076 0.0904677
v -0.1684854 0.0120575 0.0951221
v -0.1773238 0.0188234 0.1204305
v -0.1811328 0.0127132 0.0976067
v -0.1768259 0.0206646 0.1291007
v -0.1488749 0.0258437 0.0859684
v -0.1981371 0.0715641 0.1146988
v -0.1973995 0.0715447 0.1250149
v -0.1925500 0.0821094 0.1125881
v -0.1920555 0.0822944 0.1234098
v -0.2040488 0.0723964 0.0835970
v -0.1954537 0.0824022 0.0790602
v -0.1436284 0.0565243 0.0775802
v -0.1426766 0.0531369 0.1088753
v -0.1435887 0.0527188 0.1205807
v -0.1461660 0.0396159 0.1085968
v -0.1419307 0.0458025 0.0793836
v -0.2055881 0.0582023 0.0879025
v -0.1992090 0.0590637 0.1166069
v -0.1980929 0.0591006 0.1264682
v -0.1822063 0.0877970 0.1107235
v -0.1719097 0.0923736 0.1095224
v -0.1623969 0.0959608 0.1087505
v -0.1535028 0.0930465 0.1082346
v -0.1431945 0.0646273 0.1085563
v -0.1870863 0.0245667 0.1205577
v -0.1938188 0.0344084 0.1196012
v -0.1980524 0.0462754 0.1183953
v -0.1992810 0.0313701 0.0951109
v -0.1431341 0.0352475 0.0819881
v -0.1465076 0.0674823 0.0762997
v -0.1563929 0.0942528 0.0765903
v -0.1638567 0.0971227 0.0766626
v -0.1720005 0.0931172 0.0758193
v -0.1824847 0.0872150 0.0740145
v -0.2035473 0.0441719 0.0917770
v -0.1914649 0.0205256 0.0971763
v -0.1972249 0.0463633 0.1277120
v -0.1865137 0.0254262 0.1293686
v -0.1481143 0.0412490 0.1219478
v -0.1421559 0.0640088 0.1198766
v -0.1524770 0.0927024 0.1195210
v -0.1616167 0.0961580 0.1200253
v -0.1718205 0.0937185 0.1207447
v -0.1821119 0.0888082 0.1218867
v -0.1930794 0.0346371 0.1286151
v -0.1743312 0.0994803 0.1835900
v -0.1606604 0.0999032 0.1834662
v -0.1732305 0.0984381 0.1696192
v -0.1602104 0.0986879 0.1692921
v -0.1723759 0.0973693 0.1566447
v -0.1600419 0.0976017 0.1561622
v -0.1719640 0.0960993 0.1442011
v -0.1604403 0.0967735 0.1436629
v -0.1718210 0.0948793 0.1322716
v -0.1609676 0.0962648 0.1316573
v -0.1660008 0.0248352 0.1374941
v -0.1662209 0.0256612 0.1486185
v -0.1662922 0.0257507 0.1607009
v -0.1662358 0.0253979 0.1737884
v -0.1656737 0.0245198 0.1879742
v -0.1472767 0.0949598 0.1836857
v -0.1482746 0.0938609 0.1692344
v -0.1491701 0.0930062 0.1559419
v -0.1503033 0.0925327 0.1433157
v -0.1514187 0.0924454 0.1312831
v -0.1449596 0.0389668 0.1868104
v -0.1467614 0.0409112 0.1720941
v -0.1480057 0.0420368 0.1586144
v -0.1487253 0.0423969 0.1458985
v -0.1487987 0.0421291 0.1338557
v -0.2021132 0.0407725 0.1859941
v -0.2003569 0.0443136 0.1600790
v -0.1989414 0.0453401 0.1484190
v -0.1550031 0.0317228 0.1880103
v -0.1560284 0.0327257 0.1732703
v -0.1565247 0.0332370 0.1597810
v -0.1567707 0.0332957 0.1473117
v -0.1566372 0.0326585 0.1356706
v -0.1407797 0.0635444 0.1315392
v -0.1390930 0.0629385 0.1436369
v -0.1370563 0.0618338 0.1562317
v -0.1345127 0.0601697 0.1694558
v -0.1315307 0.0583677 0.1836624
v -0.1362670 0.0470014 0.1847875
v -0.1871717 0.0937842 0.1836493
v -0.1831793 0.0911064 0.1450305
v -0.1841996 0.0922109 0.1572721
v -0.1941671 0.0833543 0.1579981
v -0.2000120 0.0711931 0.1588242
v -0.1930045 0.0830903 0.1459253
v -0.1985576 0.0714567 0.1469128
v -0.2028184 0.0692464 0.1845325
v -0.2042239 0.0545421 0.1852716
v -0.1969562 0.0830335 0.1838993
v -0.2013947 0.0576696 0.1596186
v -0.1994905 0.0583649 0.1479030
v -0.1824195 0.0899138 0.1332765
v -0.1975995 0.0715153 0.1356539
v -0.1921810 0.0826250 0.1343959
v -0.1406557 0.0509779 0.1572218
v -0.1423602 0.0521505 0.1446193
v -0.1433955 0.0525664 0.1324631
v -0.1977603 0.0460102 0.1376849
v -0.1982929 0.0588297 0.1368473
v -0.1953458 0.0328594 0.1606619
v -0.1944754 0.0336848 0.1490753
v -0.1936128 0.0342555 0.1384464
v -0.1865919 0.0256755 0.1389815
v -0.1869653 0.0254852 0.1495890
v -0.1962489 0.0300799 0.1865552
v -0.1878825 0.0236233 0.1868725
v -0.1873197 0.0251220 0.1611283
v -0.1767750 0.0218217 0.1387704
v -0.1769438 0.0223814 0.1494946
v -0.1771923 0.0224529 0.1611924
v -0.1773706 0.0214953 0.1873499
v -0.2014368 0.0429288 0.1725942
v -0.1959741 0.0316842 0.1731011
v -0.1875980 0.0246167 0.1735139
v -0.1773625 0.0223871 0.1737617
v -0.1387659 0.0493586 0.1704492
v -0.1855893 0.0929794 0.1699772
v -0.1955050 0.0832301 0.1704982
v -0.2014942 0.0704847 0.1712724
v -0.2032107 0.0564658 0.1719921
v -0.1608045 0.0131269 0.0749948
v -0.1595490 0.0161437 0.0828690
v -0.1712873 0.0063038 0.0808532
v -0.1697991 0.0092681 0.0881917
v -0.1844948 0.0066129 0.0843593
v -0.1826410 0.0106313 0.0907558
v -0.1525428 0.0220363 0.0693657
v -0.1508749 0.0241566 0.0778784
v -0.2038651 0.0695200 0.0629684
v -0.2042882 0.0711268 0.0730867
v -0.1971403 0.0796996 0.0590491
v -0.1966833 0.0811145 0.0686543
v -0.1471917 0.0546039 0.0584655
v -0.1492499 0.0639850 0.0552933
v -0.1451997 0.0562310 0.0674975
v -0.1465079 0.0439492 0.0614140
v -0.1440876 0.0451981 0.0702175
v -0.2066828 0.0555902 0.0682531
v -0.2059972 0.0570663 0.0780098
v -0.2038980 0.0263428 0.0802751
v -0.2009820 0.0294859 0.0874508
v -0.1475285 0.0326310 0.0648720
v -0.1508597 0.0697710 0.0520656
v -0.1512548 0.0746024 0.0542110
v -0.1579412 0.0961248 0.0568126
v -0.1641669 0.1000543 0.0570974
v -0.1715719 0.0997519 0.0568533
v -0.1781162 0.0958063 0.0558746
v -0.1837213 0.0911188 0.0552743
v -0.1897376 0.0860309 0.0564711
v -0.2063252 0.0405583 0.0742360
v -0.1962414 0.0145555 0.0841126
v -0.1451457 0.0340669 0.0733902
v -0.1484815 0.0685093 0.0637473
v -0.1572147 0.0949884 0.0665952
v -0.1639777 0.0984516 0.0667436
v -0.1716458 0.0965703 0.0659421
v -0.1784497 0.0921607 0.0639142
v -0.1830577 0.0896721 0.0613612
v -0.1878536 0.0861543 0.0647250
v -0.2044175 0.0427802 0.0829191
v -0.1934289 0.0183519 0.0902947
v -0.1375464 0.0844036 0.1838487
v -0.1325558 0.0715424 0.1837542
v -0.1509601 0.0793550 0.0655127
v -0.1528682 0.0881092 0.0661478
v -0.1466147 0.0758590 0.0974987
v -0.1492344 0.0855429 0.0973011
v -0.1397328 0.0843216 0.1692411
v -0.1352000 0.0724354 0.1692374
v -0.1518285 0.0821499 0.0556474
v -0.1536284 0.0898432 0.0563496
v -0.1482126 0.0766855 0.0868861
v -0.1507532 0.0860900 0.0867415
v -0.1432461 0.0748421 0.1194684
v -0.1461940 0.0848171 0.1193579
v -0.1415055 0.0842220 0.1558116
v -0.1373753 0.0733108 0.1558333
v -0.1476755 0.0851199 0.1081120
v -0.1449108 0.0752274 0.1082760
v -0.1430582 0.0843837 0.1431198
v -0.1394342 0.0740094 0.1431873
v -0.1445895 0.0845878 0.1310261
v -0.1414296 0.0744585 0.1310771
v -0.1496340 0.0776911 0.0762220
v -0.1519108 0.0868660 0.0763411
v -0.1378463 0.0715120 0.4581693
v -0.1393710 0.0811114 0.4348896
v -0.1411831 0.0903466 0.4113121
v -0.1432026 0.0991252 0.3866624
v -0.1454356 0.1060756 0.3601265
v -0.1476629 0.1097896 0.3316744
v -0.1497415 0.1101202 0.3022528
v -0.1523233 0.1083521 0.2735804
v -0.1554454 0.1059582 0.2466816
v -0.1585623 0.1033299 0.2219307
v -0.1606079 0.1012863 0.2004670
v -0.1645583 0.0230253 0.2043198
v -0.1630862 0.0199855 0.2239239
v -0.1611368 0.0158876 0.2458575
v -0.1589262 0.0112428 0.2690097
v -0.1561020 0.0070264 0.2933114
v -0.1526435 0.0035408 0.3184351
v -0.1488564 0.0003730 0.3435512
v -0.1445537 -0.0038108 0.3678739
v -0.1401318 -0.0093964 0.3914627
v -0.1349522 -0.0182534 0.4140446
v -0.1270449 -0.0312351 0.4350674
v -0.1191653 0.0670438 0.4561766
v -0.1205743 0.0750259 0.4323607
v -0.1212230 0.0841081 0.4085140
v -0.1219400 0.0926031 0.3837274
v -0.1230095 0.0996031 0.3572237
v -0.1247569 0.1038272 0.3288571
v -0.1277820 0.1040610 0.2996853
v -0.1322691 0.1022646 0.2715468
v -0.1375282 0.0993736 0.2455773
v -0.1421964 0.0974366 0.2216250
v -0.1455877 0.0961475 0.2006980
v -0.1530996 0.0298134 0.2046791
v -0.1508354 0.0269270 0.2242887
v -0.1482075 0.0233018 0.2462339
v -0.1454569 0.0193784 0.2695745
v -0.1423149 0.0154595 0.2940319
v -0.1389346 0.0125597 0.3193226
v -0.1352301 0.0096338 0.3445237
v -0.1313629 0.0053678 0.3690231
v -0.1269117 -0.0010936 0.3926426
v -0.1221297 -0.0093290 0.4163495
v -0.1132124 -0.0215655 0.4389853
v -0.0903140 0.0073138 0.4439195
v -0.0996940 0.0152886 0.4196700
v -0.1064205 0.0232325 0.3961941
v -0.1078559 0.0280321 0.3716707
v -0.1072429 0.0289497 0.3457572
v -0.1087150 0.0299267 0.3192009
v -0.1132111 0.0325886 0.2929819
v -0.1179990 0.0359272 0.2676057
v -0.1224570 0.0390709 0.2434488
v -0.1271802 0.0417116 0.2210495
v -0.1325065 0.0443725 0.2014278
v -0.1778520 -0.0071603 0.4475073
v -0.1836533 0.0002813 0.4218560
v -0.1910069 0.0055186 0.3979079
v -0.1975695 0.0099557 0.3738353
v -0.2025625 0.0144585 0.3487635
v -0.2053450 0.0194227 0.3228312
v -0.2061759 0.0243530 0.2965997
v -0.2058170 0.0289229 0.2708991
v -0.2047799 0.0326329 0.2460261
v -0.2038445 0.0353964 0.2223857
v -0.2027881 0.0380917 0.2019155
v -0.2051220 0.0522885 0.2012503
v -0.2063699 0.0505605 0.2223539
v -0.2073932 0.0489473 0.2469461
v -0.2091716 0.0462689 0.2727225
v -0.2107076 0.0425282 0.2991845
v -0.2107913 0.0379688 0.3259408
v -0.2084657 0.0326163 0.3523344
v -0.2032059 0.0277326 0.3776170
v -0.1955729 0.0226746 0.4015452
v -0.1886407 0.0165470 0.4255266
v -0.1831830 0.0095520 0.4509544
v -0.1013532 -0.0077628 0.4425799
v -0.1094586 0.0016949 0.4180971
v -0.1150363 0.0098849 0.3943364
v -0.1187221 0.0161636 0.3703726
v -0.1206949 0.0184207 0.3451878
v -0.1232431 0.0195941 0.3193414
v -0.1265419 0.0219636 0.2935091
v -0.1300979 0.0254424 0.2685312
v -0.1338072 0.0293008 0.2449224
v -0.1377918 0.0328096 0.2229126
v -0.1420817 0.0363508 0.2035045
v -0.1347088 0.0844742 0.2007602
v -0.1302509 0.0847863 0.2211602
v -0.1243735 0.0861637 0.2442217
v -0.1174807 0.0881555 0.2694373
v -0.1117700 0.0891499 0.2968092
v -0.1087933 0.0877331 0.3253211
v -0.1080365 0.0832627 0.3531195
v -0.1081436 0.0771084 0.3795303
v -0.1083017 0.0696247 0.4044848
v -0.1079524 0.0614862 0.4286503
v -0.1038409 0.0560711 0.4531885
v -0.1291572 0.0705210 0.2004875
v -0.1747951 0.1031899 0.2222033
v -0.1741317 0.1059606 0.2473383
v -0.1731326 0.1080478 0.2747406
v -0.1725304 0.1092996 0.3037913
v -0.1024879 0.0594350 0.3758934
v -0.1019805 0.0640051 0.3496512
v -0.1026073 0.0427963 0.3733141
v -0.1014962 0.0453331 0.3471565
v -0.1050321 0.0689309 0.2945082
v -0.1109575 0.0696328 0.2680416
v -0.1048681 0.0490035 0.2930661
v -0.1111644 0.0512706 0.2673846
v -0.1028888 0.0531603 0.4009686
v -0.1662198 0.0962374 0.3880319
v -0.1692734 0.1041204 0.3617423
v -0.2062670 0.0830688 0.3032380
v -0.2045204 0.0843005 0.2749280
v -0.1926657 0.0997909 0.3041673
v -0.1919312 0.0997991 0.2753138
v -0.2027697 0.0846424 0.2474609
v -0.2006048 0.0839850 0.2218011
v -0.1910783 0.0987985 0.2476847
v -0.1899464 0.0970472 0.2220351
v -0.2076465 0.0667150 0.2473276
v -0.2061153 0.0673799 0.2219746
v -0.2095623 0.0652135 0.2740824
v -0.2113568 0.0627501 0.3014995
v -0.2045227 0.0748216 0.3594503
v -0.1905207 0.0929421 0.3614751
v -0.1999618 0.0679470 0.3853498
v -0.1867407 0.0853636 0.3877802
v -0.1944920 0.0597763 0.4096398
v -0.1819000 0.0760393 0.4118783
v -0.1628696 0.0866948 0.4122643
v -0.1181712 0.0695824 0.2433433
v -0.1243393 0.0696069 0.2206023
v -0.1177600 0.0532974 0.2430165
v -0.1228828 0.0547748 0.2202159
v -0.1277026 0.0564917 0.2002199
v -0.1750752 0.1009603 0.2004598
v -0.1986149 0.0831007 0.2000925
v -0.2044297 0.0680035 0.2004990
v -0.1886968 0.0951958 0.2001802
v -0.1632850 -0.0225786 0.4148676
v -0.1583297 -0.0323439 0.4352651
v -0.1487692 -0.0236684 0.4131083
v -0.1426343 -0.0343852 0.4334138
v -0.1730313 -0.0094684 0.3683876
v -0.1674161 -0.0137533 0.3924635
v -0.1584749 -0.0091943 0.3675398
v -0.1535756 -0.0155947 0.3909047
v -0.1802484 -0.0068093 0.3945433
v -0.1870408 -0.0033944 0.3706263
v -0.1968744 0.0410080 0.4055596
v -0.2033807 0.0475346 0.3813125
v -0.1865863 0.0251855 0.4549143
v -0.1908673 0.0334917 0.4294215
v -0.1746430 -0.0126801 0.4180065
v -0.1712235 -0.0227339 0.4412889
v -0.2083721 0.0532834 0.3558265
v -0.1924396 0.0003051 0.3456720
v -0.1977441 0.0097664 0.2942846
v -0.1984963 0.0147597 0.2691366
v -0.1727030 0.0054860 0.2680790
v -0.1865820 0.0065914 0.2680843
v -0.1701918 0.0006296 0.2924756
v -0.1849650 0.0013459 0.2927372
v -0.1783953 -0.0070157 0.3435501
v -0.1630626 -0.0063288 0.3429256
v -0.0962369 0.0308785 0.4221808
v -0.0854965 0.0248149 0.4459134
v -0.1026050 0.0377438 0.3983187
v -0.0909490 0.0423620 0.4495361
v -0.0996498 0.0465164 0.4252810
v -0.1595834 0.0767074 0.4353495
v -0.1565278 0.0669152 0.4587114
v -0.1758401 0.0159393 0.2228897
v -0.1875172 0.0172941 0.2224630
v -0.1743224 0.0110057 0.2448464
v -0.1871426 0.0121003 0.2445465
v -0.1965242 0.0276111 0.2025345
v -0.1972122 0.0239500 0.2224588
v -0.1979929 0.0196638 0.2450994
v -0.1878081 0.0213736 0.2028102
v -0.1769197 0.0195128 0.2033129
v -0.1880242 0.0506802 0.4326964
v -0.1765281 0.0657715 0.4346122
v -0.1827530 0.0415170 0.4570514
v -0.1718525 0.0561035 0.4582359
v -0.1959608 0.0047826 0.3200293
v -0.2109146 0.0588019 0.3290340
v -0.2067199 0.0801848 0.3317657
v -0.1925699 0.0977594 0.3331992
v -0.1716565 0.1085380 0.3332734
v -0.1023428 0.0672787 0.3222153
v -0.1015689 0.0472036 0.3199912
v -0.1669029 -0.0033616 0.3176566
v -0.1822644 -0.0032836 0.3181382
usemtl blender_human_cc0
f 219 213 5
f 6 219 5
f 54 56 1
f 3 54 1
f 216 123 122
f 224 216 122
f 162 141 122
f 123 162 122
f 226 65 5
f 213 226 5
f 10 9 7
f 8 10 7
f 12 11 9
f 10 12 9
f 140 138 85
f 50 140 85
f 138 127 93
f 95 138 93
f 49 15 17
f 47 49 17
f 59 47 17
f 19 59 17
f 68 59 19
f 21 68 19
f 67 68 21
f 23 67 21
f 198 208 187
f 186 198 187
f 150 153 146
f 147 150 146
f 79 66 43
f 45 79 43
f 172 171 169
f 170 172 169
f 157 161 100
f 101 157 100
f 32 34 33
f 31 32 33
f 36 35 33
f 34 36 33
f 42 30 28
f 44 42 28
f 41 32 30
f 42 41 30
f 170 169 167
f 168 170 167
f 208 198 171
f 172 208 171
f 116 117 109
f 108 116 109
f 56 37 31
f 33 56 31
f 46 34 32
f 41 46 32
f 161 156 99
f 100 161 99
f 118 98 97
f 119 118 97
f 39 43 27
f 29 39 27
f 143 142 110
f 111 143 110
f 207 76 58
f 185 207 58
f 178 176 51
f 52 178 51
f 224 122 121
f 228 224 121
f 80 56 54
f 55 80 54
f 164 135 126
f 163 164 126
f 75 52 16
f 14 75 16
f 62 63 9
f 11 62 9
f 63 64 7
f 9 63 7
f 231 219 6
f 71 231 6
f 43 66 25
f 27 43 25
f 148 147 114
f 144 148 114
f 26 25 23
f 24 26 23
f 46 70 36
f 34 46 36
f 145 139 48
f 60 145 48
f 6 5 3
f 4 6 3
f 142 143 120
f 121 142 120
f 232 72 8
f 220 232 8
f 73 10 8
f 72 73 8
f 74 12 10
f 73 74 10
f 16 15 13
f 14 16 13
f 163 89 91
f 128 163 91
f 24 23 21
f 22 24 21
f 161 157 152
f 160 161 152
f 148 144 78
f 86 148 78
f 154 149 79
f 45 154 79
f 120 143 55
f 81 120 55
f 141 142 121
f 122 141 121
f 222 225 64
f 82 222 64
f 82 64 63
f 83 82 63
f 84 83 63
f 62 84 63
f 85 138 95
f 84 85 95
f 129 164 163
f 128 129 163
f 166 134 133
f 165 166 133
f 88 90 89
f 87 88 89
f 118 110 109
f 117 118 109
f 94 93 91
f 92 94 91
f 94 96 95
f 93 94 95
f 95 96 83
f 84 95 83
f 170 168 41
f 42 170 41
f 37 39 29
f 31 37 29
f 40 45 43
f 39 40 43
f 103 90 88
f 102 103 88
f 163 126 87
f 89 163 87
f 104 105 94
f 92 104 94
f 106 96 94
f 105 106 94
f 96 106 82
f 83 96 82
f 119 97 40
f 38 119 40
f 30 29 27
f 28 30 27
f 156 155 98
f 99 156 98
f 178 177 175
f 176 178 175
f 50 49 47
f 48 50 47
f 137 136 130
f 132 137 130
f 166 165 130
f 136 166 130
f 86 67 66
f 79 86 66
f 207 197 186
f 187 207 186
f 119 111 110
f 118 119 110
f 61 13 15
f 49 61 15
f 104 92 90
f 103 104 90
f 115 116 108
f 107 115 108
f 111 119 38
f 80 111 38
f 1 56 33
f 35 1 33
f 229 222 82
f 106 229 82
f 200 180 189
f 190 200 189
f 227 229 106
f 105 227 106
f 123 216 210
f 124 123 210
f 227 105 104
f 223 227 104
f 81 55 54
f 65 81 54
f 67 86 78
f 68 67 78
f 221 230 120
f 81 221 120
f 65 54 3
f 5 65 3
f 130 165 164
f 129 130 164
f 221 81 65
f 226 221 65
f 111 80 55
f 143 111 55
f 90 92 91
f 89 90 91
f 18 20 19
f 17 18 19
f 14 13 11
f 12 14 11
f 125 162 123
f 124 125 123
f 131 132 130
f 129 131 130
f 62 11 13
f 61 62 13
f 205 206 75
f 204 205 75
f 144 145 60
f 78 144 60
f 162 108 109
f 141 162 109
f 139 132 131
f 140 139 131
f 172 170 42
f 44 172 42
f 51 18 16
f 52 51 16
f 161 160 153
f 156 161 153
f 26 77 44
f 28 26 44
f 208 77 69
f 187 208 69
f 129 128 127
f 131 129 127
f 140 131 127
f 138 140 127
f 80 38 37
f 56 80 37
f 223 104 103
f 215 223 103
f 50 85 61
f 49 50 61
f 150 147 148
f 149 150 148
f 115 101 100
f 116 115 100
f 153 160 159
f 146 153 159
f 77 26 24
f 69 77 24
f 79 149 148
f 86 79 148
f 26 28 27
f 25 26 27
f 158 166 136
f 113 158 136
f 164 165 133
f 135 164 133
f 228 121 120
f 230 228 120
f 85 84 62
f 61 85 62
f 75 14 12
f 74 75 12
f 183 182 179
f 181 183 179
f 110 142 141
f 109 110 141
f 32 31 29
f 30 32 29
f 155 150 149
f 154 155 149
f 207 185 184
f 197 207 184
f 36 2 1
f 35 36 1
f 22 21 19
f 20 22 19
f 137 114 113
f 136 137 113
f 174 168 167
f 173 174 167
f 53 4 2
f 57 53 2
f 155 154 97
f 98 155 97
f 98 118 117
f 99 98 117
f 58 20 18
f 51 58 18
f 36 70 57
f 2 36 57
f 70 199 183
f 57 70 183
f 76 22 20
f 58 76 20
f 134 166 158
f 112 134 158
f 162 125 107
f 108 162 107
f 199 188 182
f 183 199 182
f 200 71 53
f 181 200 53
f 185 58 51
f 176 185 51
f 139 145 137
f 132 139 137
f 211 231 71
f 200 211 71
f 4 3 1
f 2 4 1
f 145 144 114
f 137 145 114
f 60 48 47
f 59 60 47
f 18 17 15
f 16 18 15
f 69 24 22
f 76 69 22
f 139 140 50
f 48 139 50
f 159 158 113
f 146 159 113
f 183 181 53
f 57 183 53
f 185 176 175
f 184 185 175
f 114 147 146
f 113 114 146
f 67 23 25
f 66 67 25
f 77 208 172
f 44 77 172
f 188 199 174
f 173 188 174
f 127 128 91
f 93 127 91
f 212 218 191
f 201 212 191
f 202 201 191
f 192 202 191
f 203 202 192
f 193 203 192
f 204 203 193
f 194 204 193
f 205 204 194
f 195 205 194
f 206 205 195
f 196 206 195
f 178 206 196
f 177 178 196
f 207 187 69
f 76 207 69
f 116 100 99
f 117 116 99
f 156 153 150
f 155 156 150
f 174 46 41
f 168 174 41
f 40 39 37
f 38 40 37
f 200 181 179
f 180 200 179
f 199 70 46
f 174 199 46
f 71 6 4
f 53 71 4
f 202 73 72
f 201 202 72
f 203 74 73
f 202 203 73
f 204 75 74
f 203 204 74
f 206 178 52
f 75 206 52
f 159 151 112
f 158 159 112
f 160 152 151
f 159 160 151
f 78 60 59
f 68 78 59
f 72 232 212
f 201 72 212
f 232 231 211
f 212 232 211
f 190 217 211
f 200 190 211
f 218 212 211
f 217 218 211
f 224 223 215
f 216 224 215
f 215 103 102
f 209 215 102
f 216 215 209
f 210 216 209
f 224 228 227
f 223 224 227
f 228 230 229
f 227 228 229
f 229 230 221
f 222 229 221
f 225 222 221
f 226 225 221
f 232 220 219
f 231 232 219
f 225 214 7
f 64 225 7
f 225 226 213
f 214 225 213
f 220 8 7
f 214 220 7
f 220 214 213
f 219 220 213
f 154 45 40
f 97 154 40
f 429 430 399
f 398 429 399
f 331 330 256
f 255 331 256
f 407 408 233
f 234 407 233
f 407 234 235
f 366 407 235
f 256 330 329
f 257 256 329
f 328 258 257
f 329 328 257
f 428 343 341
f 427 428 341
f 237 347 346
f 236 237 346
f 426 347 237
f 238 426 237
f 262 240 239
f 261 262 239
f 336 426 238
f 239 336 238
f 335 336 239
f 240 335 239
f 324 262 261
f 325 324 261
f 334 335 240
f 241 334 240
f 404 339 337
f 345 404 337
f 322 264 263
f 323 322 263
f 322 321 265
f 264 322 265
f 426 425 361
f 347 426 361
f 318 268 267
f 319 318 267
f 271 249 248
f 270 271 248
f 429 398 248
f 249 429 248
f 398 396 247
f 248 398 247
f 317 269 268
f 318 317 268
f 382 401 250
f 251 382 250
f 313 312 274
f 273 313 274
f 378 383 252
f 253 378 252
f 379 378 253
f 254 379 253
f 256 234 233
f 255 256 233
f 259 237 236
f 258 259 236
f 354 352 349
f 351 354 349
f 325 261 260
f 326 325 260
f 323 263 262
f 324 323 262
f 350 336 335
f 351 350 335
f 267 268 246
f 245 267 246
f 316 315 271
f 270 316 271
f 314 272 271
f 315 314 271
f 272 250 249
f 271 272 249
f 313 273 272
f 314 313 272
f 276 254 253
f 275 276 253
f 311 275 274
f 312 311 274
f 311 278 277
f 310 311 277
f 404 402 278
f 279 404 278
f 314 281 280
f 313 314 280
f 340 339 280
f 281 340 280
f 316 283 282
f 315 316 282
f 356 358 349
f 352 356 349
f 369 344 284
f 285 369 284
f 371 370 286
f 287 371 286
f 288 309 308
f 289 288 308
f 306 305 292
f 291 306 292
f 293 304 303
f 294 293 303
f 395 394 294
f 295 395 294
f 394 422 293
f 294 394 293
f 301 296 295
f 302 301 295
f 296 301 300
f 297 296 300
f 413 414 297
f 298 413 297
f 302 358 356
f 301 302 356
f 430 422 394
f 399 430 394
f 415 296 297
f 414 415 297
f 357 374 299
f 300 357 299
f 376 390 384
f 381 376 384
f 399 394 395
f 397 399 395
f 400 380 385
f 393 400 385
f 302 295 294
f 303 302 294
f 292 393 385
f 291 292 385
f 423 359 303
f 304 423 303
f 392 423 304
f 305 392 304
f 384 390 289
f 290 384 289
f 391 288 289
f 390 391 289
f 307 306 291
f 290 307 291
f 308 389 386
f 307 308 386
f 389 308 309
f 388 389 309
f 403 277 278
f 402 403 278
f 405 403 402
f 406 405 402
f 428 340 281
f 282 428 281
f 310 276 275
f 311 310 275
f 273 274 252
f 251 273 252
f 370 369 285
f 286 370 285
f 273 251 250
f 272 273 250
f 318 285 284
f 317 318 284
f 269 270 248
f 247 269 248
f 269 247 246
f 268 269 246
f 267 245 244
f 266 267 244
f 265 243 242
f 264 265 242
f 425 350 348
f 424 425 348
f 327 259 258
f 328 327 258
f 257 235 234
f 256 257 234
f 367 368 322
f 323 367 322
f 367 323 324
f 342 367 324
f 372 333 242
f 243 372 242
f 419 365 364
f 418 419 364
f 369 367 342
f 344 369 342
f 344 342 341
f 343 344 341
f 405 406 330
f 331 405 330
f 361 363 346
f 347 361 346
f 370 368 367
f 369 370 367
f 263 241 240
f 262 263 240
f 351 349 348
f 350 351 348
f 374 357 353
f 373 374 353
f 423 424 348
f 359 423 348
f 425 424 360
f 361 425 360
f 365 363 362
f 364 365 362
f 355 375 373
f 353 355 373
f 363 361 360
f 362 363 360
f 365 366 346
f 363 365 346
f 261 239 238
f 260 261 238
f 326 260 259
f 327 326 259
f 427 326 327
f 338 427 327
f 370 371 332
f 368 370 332
f 354 334 333
f 355 354 333
f 410 414 413
f 416 410 413
f 351 335 334
f 354 351 334
f 391 390 376
f 377 391 376
f 383 378 376
f 381 383 376
f 378 379 377
f 376 378 377
f 312 279 278
f 311 312 278
f 384 385 380
f 381 384 380
f 319 286 285
f 318 319 285
f 383 381 380
f 382 383 380
f 412 411 396
f 397 412 396
f 305 304 293
f 292 305 293
f 387 306 307
f 386 387 307
f 385 384 290
f 291 385 290
f 415 395 295
f 296 415 295
f 300 299 298
f 297 300 298
f 399 397 396
f 398 399 396
f 423 392 360
f 424 423 360
f 421 408 407
f 419 421 407
f 257 258 236
f 235 257 236
f 412 410 409
f 411 412 409
f 365 419 407
f 366 365 407
f 421 419 418
f 420 421 418
f 389 418 364
f 386 389 364
f 308 307 290
f 289 308 290
f 395 415 412
f 397 395 412
f 339 340 338
f 337 339 338
f 357 356 352
f 353 357 352
f 362 387 386
f 364 362 386
f 320 287 286
f 319 320 286
f 344 343 283
f 284 344 283
f 315 282 281
f 314 315 281
f 339 404 279
f 280 339 279
f 402 404 345
f 406 402 345
f 422 393 292
f 293 422 292
f 417 244 245
f 409 417 245
f 319 267 266
f 320 319 266
f 316 270 269
f 317 316 269
f 412 415 414
f 410 412 414
f 388 420 418
f 389 388 418
f 387 392 305
f 306 387 305
f 430 400 393
f 422 430 393
f 358 359 348
f 349 358 348
f 260 238 237
f 259 260 237
f 428 427 338
f 340 428 338
f 313 280 279
f 312 313 279
f 346 366 235
f 236 346 235
f 416 417 409
f 410 416 409
f 303 359 358
f 302 303 358
f 430 429 401
f 400 430 401
f 330 406 345
f 329 330 345
f 343 428 282
f 283 343 282
f 317 284 283
f 316 317 283
f 383 382 251
f 252 383 251
f 357 300 301
f 356 357 301
f 275 253 252
f 274 275 252
f 329 345 337
f 328 329 337
f 264 242 241
f 263 264 241
f 337 338 327
f 328 337 327
f 387 362 360
f 392 387 360
f 401 429 249
f 250 401 249
f 326 427 341
f 325 326 341
f 333 334 241
f 242 333 241
f 354 355 353
f 352 354 353
f 396 411 246
f 247 396 246
f 341 342 324
f 325 341 324
f 411 409 245
f 246 411 245
f 426 336 350
f 425 426 350
f 322 368 332
f 321 322 332
f 375 355 333
f 372 375 333
f 401 382 380
f 400 401 380
f 299 134 112
f 298 299 112
f 413 298 112
f 151 413 112
f 416 413 151
f 152 416 151
f 417 416 152
f 157 417 152
f 417 157 101
f 244 417 101
f 266 244 101
f 115 266 101
f 266 115 107
f 320 266 107
f 287 320 107
f 125 287 107
f 287 125 124
f 371 287 124
f 332 371 124
f 210 332 124
f 332 210 209
f 321 332 209
f 321 209 102
f 265 321 102
f 243 265 102
f 88 243 102
f 243 88 87
f 372 243 87
f 375 372 87
f 126 375 87
f 373 375 126
f 135 373 126
f 133 374 373
f 135 133 373
f 299 374 133
f 134 299 133
