# Level-zero anatomical extract from Blender Human Base Meshes v1.4.1 (CC0)
o human-upper-arm-r
v 0.3205046 0.0104117 1.1019943
v 0.3095009 -0.0366379 1.1057122
v 0.3095786 0.0199844 1.1339955
v 0.2946315 -0.0312282 1.1359004
v 0.2974215 0.0282602 1.1668361
v 0.2805755 -0.0295535 1.1676247
v 0.2874940 -0.0307450 1.1515012
v 0.3043886 0.0243499 1.1501851
v 0.3148821 0.0151370 1.1180410
v 0.3023264 -0.0327616 1.1207836
v 0.2495564 0.0552828 1.1328145
v 0.2584482 0.0532352 1.1194474
v 0.2683703 0.0507892 1.1068130
v 0.2779614 0.0498298 1.0936050
v 0.2892647 0.0499721 1.0806861
v 0.2608638 -0.0118252 1.0729933
v 0.2539164 -0.0123934 1.0872592
v 0.2450056 -0.0146588 1.1002060
v 0.2345553 -0.0186695 1.1127157
v 0.2249993 -0.0217896 1.1263692
v 0.1724164 -0.0119115 1.2357856
v 0.2778349 -0.0258157 1.0851822
v 0.2693392 -0.0202509 1.0788512
v 0.2555343 0.0017322 1.0683573
v 0.2554776 0.0184326 1.0660475
v 0.2634233 0.0337061 1.0676992
v 0.2757578 0.0438522 1.0727537
v 0.3104708 0.0405787 1.0970534
v 0.3012688 0.0494558 1.0903525
v 0.3175355 0.0264947 1.0998405
v 0.3263291 -0.0025816 1.1065640
v 0.3266228 -0.0151771 1.1094360
v 0.3166133 -0.0323212 1.1083069
v 0.2932541 -0.0351465 1.0965953
v 0.2855781 -0.0306101 1.0911417
v 0.2599785 -0.0324923 1.1115798
v 0.2512586 -0.0261086 1.1047020
v 0.2418854 -0.0007381 1.0975624
v 0.2423398 0.0151628 1.0965115
v 0.2468533 0.0314739 1.0970309
v 0.2561921 0.0443383 1.1004201
v 0.2941734 0.0459796 1.1224086
v 0.2813442 0.0516704 1.1143746
v 0.3045098 0.0347467 1.1293256
v 0.3111317 0.0060294 1.1375986
v 0.3104698 -0.0061347 1.1398787
v 0.3014811 -0.0252592 1.1389650
v 0.2780818 -0.0368842 1.1254041
v 0.2689473 -0.0353575 1.1188564
v 0.2413076 -0.0433123 1.1391191
v 0.2313616 -0.0356891 1.1314273
v 0.2233966 -0.0050331 1.1238294
v 0.2250989 0.0127984 1.1229525
v 0.2289009 0.0303268 1.1232157
v 0.2369495 0.0457031 1.1261621
v 0.2641222 0.0567252 1.1418556
v 0.2787552 0.0522388 1.1514314
v 0.2904533 0.0420133 1.1601220
v 0.3007216 0.0139244 1.1715480
v 0.2994427 0.0005933 1.1737446
v 0.2883369 -0.0209680 1.1714449
v 0.2625477 -0.0425803 1.1554557
v 0.2520801 -0.0449715 1.1475168
v 0.2030332 -0.0561471 1.2676929
v 0.1811779 0.0528718 1.2200806
v 0.1796678 0.0349193 1.2158631
v 0.1752954 0.0186230 1.2185376
v 0.1728689 0.0029437 1.2257766
v 0.1755688 -0.0299234 1.2388514
v 0.1877696 -0.0468405 1.2445987
v 0.2500378 0.0011510 1.0837345
v 0.2498170 0.0167402 1.0820035
v 0.2336880 0.0140016 1.1099013
v 0.2323492 -0.0030424 1.1104412
v 0.2861203 -0.0341648 1.1112452
v 0.2703108 -0.0404074 1.1400576
v 0.2657253 0.0436842 1.0868477
v 0.2459227 0.0451215 1.1129578
v 0.3180583 0.0017169 1.1219046
v 0.3181421 -0.0104592 1.1244500
v 0.3064494 0.0100363 1.1543525
v 0.3046037 -0.0026124 1.1563658
v 0.3112630 0.0305452 1.1145556
v 0.2975206 0.0381866 1.1441764
v 0.3016629 0.0426821 1.1092277
v 0.2903444 0.0504122 1.1018586
v 0.2866420 0.0494778 1.1365042
v 0.2726138 0.0543848 1.1276881
v 0.2553454 0.0324273 1.0827775
v 0.2505287 -0.0388200 1.1248205
v 0.2410259 -0.0315795 1.1174214
v 0.2945944 -0.0231670 1.1548290
v 0.2605541 -0.0412695 1.1326905
v 0.2380084 0.0306072 1.1104836
v 0.3091016 -0.0281475 1.1235775
v 0.2697072 -0.0267523 1.0991757
v 0.2615934 -0.0212895 1.0928271
v 0.2777980 -0.0310028 1.1054053
v 0.2419405 -0.0301083 1.3063020
v 0.2381248 0.0347554 1.3124148
v 0.1794403 0.0734764 1.2369562
v 0.2206800 -0.0527191 1.2840929
v 0.2452872 -0.0140900 1.3125427
v 0.2427314 0.0185258 1.3154478
v 0.2230818 0.0695931 1.2954891
v 0.1920677 0.0774934 1.2624534
v 0.2094975 0.0809193 1.2798257
v 0.1924293 -0.0615967 1.2688398
v 0.1796020 -0.0524781 1.2557875
v 0.2255016 0.0358382 1.3341737
v 0.2314890 -0.0320109 1.3290999
v 0.1672319 0.0977895 1.2650812
v 0.2143291 -0.0583964 1.3073272
v 0.2302737 0.0191278 1.3371881
v 0.2092063 0.0710471 1.3182938
v 0.1811845 0.0903526 1.2850417
v 0.2345132 -0.0148781 1.3351912
v 0.1966039 0.0843668 1.3033547
v 0.1917901 -0.0693945 1.2847531
v 0.1819262 -0.0713103 1.2735612
v 0.1624441 -0.0261778 1.3835663
v 0.1553492 0.0302256 1.3879526
v 0.1038456 0.0861145 1.3573080
v 0.1571337 -0.0539299 1.3701426
v 0.1594217 0.0167614 1.3883405
v 0.1406813 0.0557924 1.3818202
v 0.1180632 0.0777714 1.3668408
v 0.1536819 -0.0625195 1.3603091
v 0.1632891 -0.0107768 1.3874662
v 0.1302873 0.0674269 1.3753221
v 0.1494677 -0.0674036 1.3510275
v 0.1426426 -0.0710068 1.3432510
v 0.1815145 -0.0303278 1.3775854
v 0.1715054 0.0326049 1.3757915
v 0.1904434 0.0351454 1.3652672
v 0.2092121 0.0363171 1.3520881
v 0.2012744 -0.0335710 1.3678408
v 0.2184545 -0.0339019 1.3503320
v 0.1176309 0.0915304 1.3386530
v 0.1326944 0.0960266 1.3172557
v 0.1487787 0.0990364 1.2929693
v 0.2031695 -0.0611796 1.3294663
v 0.2026793 -0.0657848 1.2946233
v 0.1884148 -0.0617115 1.3480737
v 0.1729247 -0.0598726 1.3619251
v 0.2146389 0.0197168 1.3552431
v 0.1963313 0.0195727 1.3689098
v 0.1769674 0.0180672 1.3786802
v 0.1928061 0.0702118 1.3381660
v 0.1739753 0.0656668 1.3537776
v 0.1559035 0.0600230 1.3667510
v 0.1650845 0.0917956 1.3087771
v 0.1487937 0.0891986 1.3302534
v 0.1327120 0.0833583 1.3494123
v 0.1678571 -0.0678597 1.3500180
v 0.1829706 -0.0132373 1.3817024
v 0.1818801 -0.0697069 1.3350849
v 0.1941748 -0.0691472 1.3168283
v 0.2038062 -0.0151529 1.3727517
v 0.2212785 -0.0155995 1.3560603
v 0.1454387 0.0727983 1.3592330
v 0.1630266 0.0800117 1.3437469
v 0.1805817 0.0841411 1.3250660
v 0.1850895 -0.0740847 1.3051425
v 0.1743731 -0.0750234 1.3233798
v 0.1617940 -0.0728309 1.3390818
v 0.1765753 -0.0784167 1.2935065
v 0.1664504 -0.0797224 1.3124560
v 0.1544465 -0.0771978 1.3293476
v 0.1835070 0.0507425 1.3610210
v 0.2315764 0.0522208 1.3059659
v 0.2021951 0.0533458 1.3468469
v 0.1491705 0.0434065 1.3859040
v 0.1647459 0.0467163 1.3721826
v 0.2185377 0.0535061 1.3280104
v 0.2937893 0.0044616 1.1918964
v 0.2872731 0.0085392 1.2106649
v 0.2785845 0.0123593 1.2298160
v 0.2671431 0.0160709 1.2485237
v 0.2569723 0.0180863 1.2689508
v 0.2505586 0.0186694 1.2918174
v 0.2822250 -0.0181634 1.1890783
v 0.2751297 -0.0151741 1.2069212
v 0.2669074 -0.0116795 1.2251446
v 0.2591390 -0.0096483 1.2442193
v 0.2554749 -0.0106460 1.2656709
v 0.2523068 -0.0128562 1.2886233
v 0.2480579 -0.0274938 1.2823179
v 0.2504015 -0.0230329 1.2600700
v 0.2522747 -0.0196251 1.2390656
v 0.2586869 -0.0208373 1.2198545
v 0.2665331 -0.0243552 1.2020144
v 0.2738826 -0.0271698 1.1847571
v 0.2550462 -0.0423980 1.1720008
v 0.2472074 -0.0410536 1.1885043
v 0.2397247 -0.0392307 1.2053733
v 0.2332864 -0.0385550 1.2231621
v 0.2279077 -0.0398762 1.2418779
v 0.2240950 -0.0445250 1.2624412
v 0.2441380 -0.0462106 1.1636151
v 0.2356809 -0.0460573 1.1794155
v 0.2278688 -0.0456894 1.1954722
v 0.2205604 -0.0458141 1.2120174
v 0.2142231 -0.0464889 1.2294612
v 0.2087522 -0.0469473 1.2478732
v 0.2329124 -0.0457666 1.1547147
v 0.2240201 -0.0461315 1.1699016
v 0.2154125 -0.0460291 1.1850243
v 0.2070117 -0.0460700 1.1999266
v 0.1997546 -0.0461947 1.2153281
v 0.1937022 -0.0463645 1.2307638
v 0.2225631 -0.0382969 1.1463521
v 0.2138545 -0.0386912 1.1610593
v 0.2053100 -0.0376910 1.1754472
v 0.1970443 -0.0364937 1.1893278
v 0.1895353 -0.0352205 1.2030964
v 0.1826035 -0.0325488 1.2194903
v 0.2166415 -0.0232472 1.1407005
v 0.2089473 -0.0234457 1.1549183
v 0.2014422 -0.0221636 1.1688037
v 0.1941604 -0.0199660 1.1822345
v 0.1875699 -0.0171926 1.1955500
v 0.1797794 -0.0138127 1.2163962
v 0.2158616 -0.0053345 1.1378999
v 0.2088159 -0.0050259 1.1518542
v 0.2022090 -0.0036201 1.1654936
v 0.1951293 -0.0012657 1.1781352
v 0.1876189 0.0014333 1.1908749
v 0.1790168 0.0029061 1.2114860
v 0.1791255 0.0190305 1.2086952
v 0.1870840 0.0197485 1.1878860
v 0.1950925 0.0177140 1.1745697
v 0.2034185 0.0154145 1.1628810
v 0.2106140 0.0136243 1.1500990
v 0.2175084 0.0128934 1.1364943
v 0.2206606 0.0310731 1.1361614
v 0.2128356 0.0326382 1.1490375
v 0.2037942 0.0353043 1.1606584
v 0.1945084 0.0375830 1.1726589
v 0.1871461 0.0384177 1.1890318
v 0.1816722 0.0355821 1.2089751
v 0.2288618 0.0470203 1.1393384
v 0.2196658 0.0501484 1.1517137
v 0.2096277 0.0538947 1.1640838
v 0.2002735 0.0566434 1.1777549
v 0.1921735 0.0573963 1.1941885
v 0.1858259 0.0541284 1.2128062
v 0.2410513 0.0579620 1.1464374
v 0.2315770 0.0621603 1.1595081
v 0.2219496 0.0662299 1.1737282
v 0.2125780 0.0698549 1.1888494
v 0.2028625 0.0720324 1.2047877
v 0.1920781 0.0699823 1.2222083
v 0.2556852 0.0607540 1.1564026
v 0.2467710 0.0652008 1.1711202
v 0.2377691 0.0701128 1.1866134
v 0.2282625 0.0749698 1.2031473
v 0.2176861 0.0788151 1.2206420
v 0.2052210 0.0784984 1.2395593
v 0.2216319 0.0778580 1.2576755
v 0.2336517 0.0752783 1.2374018
v 0.2442157 0.0711365 1.2181858
v 0.2531531 0.0650218 1.2001739
v 0.2615662 0.0597175 1.1833203
v 0.2702329 0.0556882 1.1671304
v 0.2821139 0.0455939 1.1767092
v 0.2735037 0.0492466 1.1937734
v 0.2662412 0.0552865 1.2119195
v 0.2568625 0.0601993 1.2314450
v 0.2460214 0.0635290 1.2515649
v 0.2344015 0.0664330 1.2727556
v 0.2892582 0.0318689 1.1839011
v 0.2828152 0.0367339 1.2020882
v 0.2756433 0.0421618 1.2214869
v 0.2645504 0.0455899 1.2409878
v 0.2528085 0.0478891 1.2611634
v 0.2418981 0.0501361 1.2829621
v 0.2467224 0.0336857 1.2888546
v 0.2559479 0.0324339 1.2665064
v 0.2676290 0.0304008 1.2465129
v 0.2794185 0.0269174 1.2274898
v 0.2878708 0.0226611 1.2080579
v 0.2941387 0.0180562 1.1892546
v 0.2867528 -0.0351134 1.1313171
v 0.2718881 -0.0368122 1.1622179
v 0.2012822 0.0030468 1.3722961
v 0.2333191 -0.0432954 1.2965194
v 0.2242322 -0.0468766 1.3194691
v 0.1810050 0.0029491 1.3812528
v 0.1620653 0.0032873 1.3882356
v 0.3148780 -0.0206326 1.1249580
v 0.2948158 -0.0108477 1.1735766
v 0.2448466 0.0024557 1.3153018
v 0.2945790 -0.0353479 1.1166626
v 0.2192262 0.0026480 1.3571742
v 0.3070894 -0.0167331 1.1403842
v 0.2336487 0.0023892 1.3375854
v 0.3004608 -0.0136595 1.1564596
v 0.2110777 -0.0490173 1.3410504
v 0.3229261 -0.0252371 1.1098382
v 0.1778161 -0.0469956 1.3720844
v 0.1603197 -0.0412277 1.3781478
v 0.1948408 -0.0497918 1.3597994
v 0.3014638 -0.0373784 1.1015579
v 0.2792754 -0.0365139 1.1464802
v 0.2647966 -0.0351259 1.1790326
v 0.2572151 -0.0326347 1.1958562
v 0.2495028 -0.0294381 1.2132620
v 0.2432231 -0.0284511 1.2320614
v 0.2403939 -0.0323543 1.2520431
v 0.2381620 -0.0385500 1.2733597
v 0.2893443 -0.0075389 1.1917320
v 0.2826427 -0.0042242 1.2102026
v 0.2740414 -0.0006308 1.2288537
v 0.2642578 0.0025378 1.2476634
v 0.2567582 0.0036705 1.2687247
v 0.2523564 0.0031322 1.2917233
usemtl blender_human_cc0
f 76 93 49
f 48 76 49
f 83 9 1
f 30 83 1
f 84 8 3
f 44 84 3
f 80 32 31
f 79 80 31
f 60 82 81
f 59 60 81
f 7 92 61
f 6 7 61
f 79 31 1
f 9 79 1
f 97 96 36
f 37 97 36
f 95 10 2
f 33 95 2
f 79 9 3
f 45 79 3
f 92 7 4
f 47 92 4
f 80 79 45
f 46 80 45
f 298 82 60
f 292 298 60
f 297 117 103
f 293 297 103
f 305 285 62
f 76 305 62
f 81 8 5
f 59 81 5
f 78 55 11
f 12 78 11
f 78 12 13
f 41 78 13
f 85 42 44
f 83 85 44
f 77 41 13
f 14 77 13
f 77 14 15
f 27 77 15
f 71 24 16
f 17 71 16
f 73 94 40
f 39 73 40
f 19 74 38
f 18 19 38
f 96 98 49
f 36 96 49
f 98 96 22
f 35 98 22
f 96 97 23
f 22 96 23
f 72 25 24
f 71 72 24
f 77 27 26
f 89 77 26
f 85 83 30
f 28 85 30
f 83 44 3
f 9 83 3
f 294 75 34
f 304 294 34
f 98 35 34
f 75 98 34
f 8 81 45
f 3 8 45
f 93 90 36
f 49 93 36
f 52 74 19
f 20 52 19
f 78 41 40
f 94 78 40
f 72 71 38
f 39 72 38
f 89 72 39
f 40 89 39
f 77 89 40
f 41 77 40
f 88 87 42
f 43 88 42
f 82 46 45
f 81 82 45
f 7 305 284
f 4 7 284
f 294 284 48
f 75 294 48
f 51 91 90
f 50 51 90
f 78 94 54
f 55 78 54
f 86 29 15
f 14 86 15
f 84 58 5
f 8 84 5
f 71 17 18
f 38 71 18
f 136 146 114
f 110 136 114
f 288 113 102
f 287 288 102
f 156 129 121
f 133 156 121
f 110 114 104
f 100 110 104
f 86 43 42
f 85 86 42
f 143 119 108
f 64 143 108
f 10 95 47
f 4 10 47
f 51 20 19
f 91 51 19
f 49 98 75
f 48 49 75
f 63 93 76
f 62 63 76
f 86 14 13
f 43 86 13
f 291 300 32
f 80 291 32
f 88 43 13
f 12 88 13
f 56 88 12
f 11 56 12
f 299 142 113
f 288 299 113
f 91 19 18
f 37 91 18
f 158 164 119
f 143 158 119
f 116 118 107
f 106 116 107
f 108 109 70
f 64 108 70
f 87 88 56
f 57 87 56
f 84 44 42
f 87 84 42
f 73 74 52
f 53 73 52
f 38 74 73
f 39 38 73
f 163 118 116
f 152 163 116
f 84 87 57
f 58 84 57
f 86 85 28
f 29 86 28
f 97 17 16
f 23 97 16
f 90 93 63
f 50 90 63
f 94 73 53
f 54 94 53
f 91 37 36
f 90 91 36
f 291 80 46
f 296 291 46
f 298 92 47
f 296 298 47
f 37 18 17
f 97 37 17
f 89 26 25
f 72 89 25
f 143 64 102
f 113 143 102
f 175 171 105
f 115 175 105
f 117 111 99
f 103 117 99
f 118 115 105
f 107 118 105
f 164 167 120
f 119 164 120
f 162 150 149
f 163 162 149
f 295 297 114
f 146 295 114
f 160 138 111
f 117 160 111
f 125 148 134
f 122 125 134
f 175 172 136
f 110 175 136
f 120 109 108
f 119 120 108
f 174 173 122
f 134 174 122
f 165 157 155
f 166 165 155
f 301 133 121
f 302 301 121
f 169 166 131
f 132 169 131
f 159 156 133
f 137 159 133
f 158 143 113
f 142 158 113
f 160 159 137
f 138 160 137
f 161 162 153
f 154 161 153
f 290 289 148
f 125 290 148
f 147 146 136
f 135 147 136
f 303 299 138
f 137 303 138
f 161 130 126
f 151 161 126
f 163 152 153
f 162 163 153
f 169 168 165
f 166 169 165
f 155 157 144
f 145 155 144
f 164 158 157
f 165 164 157
f 147 135 134
f 148 147 134
f 130 161 154
f 127 130 154
f 163 149 115
f 118 163 115
f 289 286 147
f 148 289 147
f 295 146 147
f 286 295 147
f 141 152 116
f 112 141 116
f 150 162 161
f 151 150 161
f 153 140 139
f 154 153 139
f 168 167 164
f 165 168 164
f 166 155 128
f 131 166 128
f 157 158 142
f 144 157 142
f 172 170 135
f 136 172 135
f 127 154 139
f 123 127 139
f 140 153 152
f 141 140 152
f 170 174 134
f 135 170 134
f 128 155 145
f 124 128 145
f 112 116 106
f 101 112 106
f 303 137 133
f 301 303 133
f 317 181 104
f 293 317 104
f 193 6 61
f 182 193 61
f 287 311 188
f 99 287 188
f 199 102 64
f 205 199 64
f 211 205 64
f 70 211 64
f 217 211 70
f 69 217 70
f 217 69 21
f 223 217 21
f 229 223 21
f 68 229 21
f 224 235 53
f 52 224 53
f 230 67 66
f 241 230 66
f 241 66 65
f 247 241 65
f 253 247 65
f 101 253 65
f 259 253 101
f 106 259 101
f 265 57 56
f 254 265 56
f 105 271 260
f 107 105 260
f 174 170 150
f 151 174 150
f 172 149 150
f 170 172 150
f 174 151 126
f 173 174 126
f 172 175 115
f 149 172 115
f 175 110 100
f 171 175 100
f 277 271 105
f 171 277 105
f 283 59 5
f 272 283 5
f 176 60 59
f 283 176 59
f 181 278 100
f 104 181 100
f 278 181 180
f 279 278 180
f 279 180 179
f 280 279 179
f 280 179 178
f 281 280 178
f 281 178 177
f 282 281 177
f 176 283 282
f 177 176 282
f 278 277 171
f 100 278 171
f 278 279 276
f 277 278 276
f 279 280 275
f 276 279 275
f 280 281 274
f 275 280 274
f 281 282 273
f 274 281 273
f 282 283 272
f 273 282 272
f 272 5 58
f 266 272 58
f 273 272 266
f 267 273 266
f 274 273 267
f 268 274 267
f 275 274 268
f 269 275 268
f 276 275 269
f 270 276 269
f 277 276 270
f 271 277 270
f 266 58 57
f 265 266 57
f 264 267 266
f 265 264 266
f 267 264 263
f 268 267 263
f 268 263 262
f 269 268 262
f 269 262 261
f 270 269 261
f 270 261 260
f 271 270 260
f 107 260 259
f 106 107 259
f 260 261 258
f 259 260 258
f 262 257 258
f 261 262 258
f 262 263 256
f 257 262 256
f 263 264 255
f 256 263 255
f 264 265 254
f 255 264 254
f 254 56 11
f 248 254 11
f 255 254 248
f 249 255 248
f 256 255 249
f 250 256 249
f 257 256 250
f 251 257 250
f 258 257 251
f 252 258 251
f 259 258 252
f 253 259 252
f 242 248 11
f 55 242 11
f 249 248 242
f 243 249 242
f 250 249 243
f 244 250 243
f 251 250 244
f 245 251 244
f 246 252 251
f 245 246 251
f 253 252 246
f 247 253 246
f 242 55 54
f 236 242 54
f 243 242 236
f 237 243 236
f 244 243 237
f 238 244 237
f 245 244 238
f 239 245 238
f 246 245 239
f 240 246 239
f 247 246 240
f 241 247 240
f 236 54 53
f 235 236 53
f 234 237 236
f 235 234 236
f 237 234 233
f 238 237 233
f 238 233 232
f 239 238 232
f 239 232 231
f 240 239 231
f 240 231 230
f 241 240 230
f 67 230 229
f 68 67 229
f 230 231 228
f 229 230 228
f 232 227 228
f 231 232 228
f 232 233 226
f 227 232 226
f 234 225 226
f 233 234 226
f 235 224 225
f 234 235 225
f 218 224 52
f 20 218 52
f 225 224 218
f 219 225 218
f 226 225 219
f 220 226 219
f 227 226 220
f 221 227 220
f 228 227 221
f 222 228 221
f 229 228 222
f 223 229 222
f 218 20 51
f 212 218 51
f 219 218 212
f 213 219 212
f 214 220 219
f 213 214 219
f 221 220 214
f 215 221 214
f 222 221 215
f 216 222 215
f 223 222 216
f 217 223 216
f 212 51 50
f 206 212 50
f 207 213 212
f 206 207 212
f 214 213 207
f 208 214 207
f 215 214 208
f 209 215 208
f 216 215 209
f 210 216 209
f 217 216 210
f 211 217 210
f 200 206 50
f 63 200 50
f 207 206 200
f 201 207 200
f 208 207 201
f 202 208 201
f 209 208 202
f 203 209 202
f 210 209 203
f 204 210 203
f 211 210 204
f 205 211 204
f 194 200 63
f 62 194 63
f 195 201 200
f 194 195 200
f 202 201 195
f 196 202 195
f 203 202 196
f 197 203 196
f 204 203 197
f 198 204 197
f 205 204 198
f 199 205 198
f 306 285 6
f 193 306 6
f 307 306 193
f 192 307 193
f 307 192 191
f 308 307 191
f 308 191 190
f 309 308 190
f 309 190 189
f 310 309 189
f 310 189 188
f 311 310 188
f 188 187 103
f 99 188 103
f 189 186 187
f 188 189 187
f 189 190 185
f 186 189 185
f 190 191 184
f 185 190 184
f 192 183 184
f 191 192 184
f 193 182 183
f 192 193 183
f 312 292 60
f 176 312 60
f 313 312 176
f 177 313 176
f 314 313 177
f 178 314 177
f 315 314 178
f 179 315 178
f 316 315 179
f 180 316 179
f 317 316 180
f 181 317 180
f 316 317 187
f 186 316 187
f 315 316 186
f 185 315 186
f 315 185 184
f 314 315 184
f 314 184 183
f 313 314 183
f 312 313 183
f 182 312 183
f 292 312 182
f 61 292 182
f 311 199 198
f 310 311 198
f 309 310 198
f 197 309 198
f 308 309 197
f 196 308 197
f 308 196 195
f 307 308 195
f 307 195 194
f 306 307 194
f 306 194 62
f 285 306 62
f 199 311 287
f 102 199 287
f 187 317 293
f 103 187 293
f 301 145 144
f 303 301 144
f 295 286 159
f 160 295 159
f 289 156 159
f 286 289 159
f 303 144 142
f 299 303 142
f 290 129 156
f 289 290 156
f 301 302 124
f 145 301 124
f 295 160 117
f 297 295 117
f 298 296 46
f 82 298 46
f 291 296 47
f 95 291 47
f 138 299 288
f 111 138 288
f 291 95 33
f 300 291 33
f 288 287 99
f 111 288 99
f 294 10 4
f 284 294 4
f 305 76 48
f 284 305 48
f 294 304 2
f 10 294 2
f 305 7 6
f 285 305 6
f 297 293 104
f 114 297 104
f 92 298 292
f 61 92 292
