# Level-zero anatomical extract from Blender Human Base Meshes v1.4.1 (CC0)
o human-hand-r
v 0.4280382 -0.0598890 0.7233685
v 0.4289941 -0.0616270 0.7233584
v 0.4293833 -0.0619632 0.7264478
v 0.4279408 -0.0597671 0.7261978
v 0.4280944 -0.0604075 0.7294042
v 0.4289262 -0.0627272 0.7300140
v 0.4283427 -0.0651296 0.7294087
v 0.4290098 -0.0648870 0.7265534
v 0.4294533 -0.0636908 0.7240970
v 0.4318262 -0.1109363 0.7221053
v 0.4314178 -0.1084207 0.7203516
v 0.4313114 -0.1097718 0.7166458
v 0.4315619 -0.1129924 0.7181566
v 0.4306945 -0.1153675 0.7150854
v 0.4311972 -0.1126211 0.7139466
v 0.4305251 -0.1137491 0.7226328
v 0.4294912 -0.1157731 0.7194154
v 0.4288879 -0.1167586 0.7169855
v 0.4363104 -0.1439279 0.7289292
v 0.4371644 -0.1416525 0.7273647
v 0.4370832 -0.1434501 0.7245228
v 0.4358820 -0.1461969 0.7254522
v 0.4352581 -0.1478238 0.7224104
v 0.4368116 -0.1454662 0.7221889
v 0.4337741 -0.1464942 0.7293690
v 0.4331329 -0.1483006 0.7257560
v 0.4332756 -0.1491811 0.7229383
v 0.4229244 -0.1689445 0.7440319
v 0.4231647 -0.1659576 0.7428465
v 0.4234748 -0.1641917 0.7450125
v 0.4235881 -0.1677859 0.7466360
v 0.4239174 -0.1662620 0.7498196
v 0.4240344 -0.1633520 0.7481875
v 0.4218351 -0.1690602 0.7504331
v 0.4209541 -0.1706088 0.7476975
v 0.4211026 -0.1711833 0.7453039
v 0.3685126 -0.1785559 0.8126484
v 0.3725714 -0.1775716 0.8123329
v 0.3738029 -0.1736060 0.8139491
v 0.3689669 -0.1748460 0.8151996
v 0.3733553 -0.1699393 0.8165946
v 0.3689426 -0.1705412 0.8178747
v 0.3648241 -0.1704836 0.8160550
v 0.3644426 -0.1739569 0.8133729
v 0.3648432 -0.1774275 0.8114444
v 0.4325737 -0.1093041 0.7266105
v 0.4302103 -0.1147507 0.7266842
v 0.4276321 -0.1179196 0.7205024
v 0.4273499 -0.1179415 0.7162144
v 0.4285407 -0.1158056 0.7136261
v 0.4292944 -0.1121399 0.7123998
v 0.4290988 -0.1073739 0.7153745
v 0.4309448 -0.1053002 0.7226632
v 0.4335040 -0.1013748 0.7313567
v 0.4352900 -0.1071839 0.7336496
v 0.4323784 -0.1126681 0.7353276
v 0.4281168 -0.0985991 0.7303864
v 0.4262561 -0.1016126 0.7215778
v 0.4247493 -0.1057041 0.7140025
v 0.4266832 -0.1136763 0.7359530
v 0.4246157 -0.1160276 0.7278475
v 0.4234483 -0.1178060 0.7204630
v 0.4204582 -0.1146271 0.7193418
v 0.4205599 -0.1126725 0.7267856
v 0.4224938 -0.1103417 0.7349082
v 0.4230444 -0.1007978 0.7312983
v 0.4214245 -0.1037508 0.7227595
v 0.4212385 -0.1079253 0.7156515
v 0.4195513 -0.1111046 0.7173833
v 0.4192514 -0.1080019 0.7248585
v 0.4218134 -0.1055671 0.7330163
v 0.4234980 -0.1080858 0.7435462
v 0.4292209 -0.0958468 0.7396478
v 0.4350522 -0.0980658 0.7403742
v 0.4282978 -0.1107517 0.7444915
v 0.4225626 -0.1030506 0.7417900
v 0.4239321 -0.0980187 0.7402619
v 0.4341996 -0.1097883 0.7441496
v 0.4369991 -0.1041968 0.7424096
v 0.4244386 -0.1016341 0.7786911
v 0.4305224 -0.0983364 0.7821054
v 0.4326839 -0.0905207 0.7819031
v 0.4280338 -0.0848734 0.7785618
v 0.4222282 -0.0844821 0.7755201
v 0.4178548 -0.0874528 0.7744600
v 0.4169994 -0.0934288 0.7754228
v 0.4184929 -0.0999116 0.7762840
v 0.4249237 -0.0555585 0.7393782
v 0.4198337 -0.0559334 0.7387252
v 0.4173543 -0.0607777 0.7386059
v 0.4186091 -0.0661076 0.7389337
v 0.4220941 -0.0697900 0.7393962
v 0.4271810 -0.0687291 0.7400334
v 0.4300152 -0.0643664 0.7405033
v 0.4288466 -0.0591143 0.7400999
v 0.4270422 -0.0588661 0.7597792
v 0.4288034 -0.0652464 0.7603312
v 0.4252076 -0.0701231 0.7590765
v 0.4197869 -0.0707384 0.7572155
v 0.4163275 -0.0666720 0.7561126
v 0.4147090 -0.0615276 0.7557042
v 0.4164257 -0.0565802 0.7564135
v 0.4216830 -0.0552122 0.7580974
v 0.4091232 -0.0590502 0.7785822
v 0.4128264 -0.0573112 0.7806866
v 0.4172147 -0.0587638 0.7835135
v 0.4204326 -0.0636317 0.7858156
v 0.4185618 -0.0713529 0.7850699
v 0.4158579 -0.0760463 0.7785849
v 0.4083012 -0.0730376 0.7774879
v 0.4072388 -0.0643575 0.7777520
v 0.4392163 -0.1332549 0.7384775
v 0.4260116 -0.1331397 0.7378074
v 0.4254453 -0.1385126 0.7401427
v 0.4346653 -0.1437192 0.7429720
v 0.4353327 -0.1295663 0.7364324
v 0.4297247 -0.1290363 0.7360417
v 0.4283442 -0.1432453 0.7423385
v 0.4390296 -0.1389128 0.7413948
v 0.4243442 -0.1076076 0.7804310
v 0.4301322 -0.1084304 0.7853094
v 0.4323772 -0.1148951 0.7911748
v 0.4265063 -0.1215916 0.7925010
v 0.4196074 -0.1235224 0.7893313
v 0.4154461 -0.1203936 0.7851198
v 0.4161705 -0.1145864 0.7819151
v 0.4186425 -0.1094423 0.7790556
v 0.4289805 -0.1063879 0.7616516
v 0.4239612 -0.1037391 0.7597368
v 0.4234433 -0.0985365 0.7579997
v 0.4183288 -0.1682221 0.7633366
v 0.4135725 -0.1652001 0.7619601
v 0.4215496 -0.1527716 0.7560936
v 0.4262230 -0.1557324 0.7576962
v 0.4273010 -0.1612433 0.7604794
v 0.4245066 -0.0935765 0.7566265
v 0.4289969 -0.0902392 0.7565176
v 0.4359580 -0.0908386 0.7581748
v 0.4401403 -0.0978564 0.7612256
v 0.4239934 -0.1664906 0.7626160
v 0.4132394 -0.1595654 0.7592658
v 0.4158727 -0.1543375 0.7567786
v 0.4361404 -0.1052212 0.7628012
v 0.4095112 -0.1424298 0.8057143
v 0.4157095 -0.1400882 0.8081229
v 0.4213722 -0.1342492 0.8074545
v 0.4202815 -0.1263893 0.8019852
v 0.4156952 -0.1257684 0.7929722
v 0.4070065 -0.1276322 0.7924488
v 0.4040650 -0.1353668 0.7968364
v 0.4050875 -0.1406957 0.8013942
v 0.4261050 -0.1435619 0.7933219
v 0.4251383 -0.1367290 0.7886873
v 0.4189986 -0.1345736 0.7846525
v 0.4118135 -0.1368522 0.7829549
v 0.4081615 -0.1434855 0.7858715
v 0.4090485 -0.1493687 0.7902966
v 0.4144709 -0.1515934 0.7940391
v 0.4213918 -0.1498106 0.7954669
v 0.4281402 -0.1565024 0.7694394
v 0.4265812 -0.1512118 0.7665287
v 0.4217386 -0.1489227 0.7646532
v 0.4160705 -0.1502704 0.7646833
v 0.4130685 -0.1553696 0.7670858
v 0.4135134 -0.1608927 0.7701496
v 0.4183512 -0.1639758 0.7722852
v 0.4246040 -0.1618852 0.7718470
v 0.4349355 -0.1396797 0.7539586
v 0.4281514 -0.1392101 0.7527987
v 0.4246365 -0.1348574 0.7502219
v 0.4252571 -0.1295486 0.7478241
v 0.4285131 -0.1250868 0.7462189
v 0.4344200 -0.1248170 0.7468645
v 0.4397626 -0.1279377 0.7490265
v 0.4400437 -0.1345108 0.7522480
v 0.4371724 -0.0943543 0.7716653
v 0.4333794 -0.0875264 0.7683615
v 0.4264642 -0.0874906 0.7660468
v 0.4207797 -0.0900246 0.7650295
v 0.4190576 -0.0960516 0.7662989
v 0.4206269 -0.1024668 0.7683712
v 0.4269911 -0.1040568 0.7708598
v 0.4341331 -0.1021696 0.7728962
v 0.4384944 -0.1010363 0.7515888
v 0.4357347 -0.0948387 0.7493160
v 0.4295881 -0.0930355 0.7481822
v 0.4242551 -0.0956135 0.7485375
v 0.4227452 -0.1008285 0.7500116
v 0.4237470 -0.1060067 0.7517930
v 0.4290261 -0.1085050 0.7531156
v 0.4354373 -0.1071045 0.7532570
v 0.4259416 -0.0686006 0.7492788
v 0.4212098 -0.0696455 0.7482276
v 0.4176820 -0.0661433 0.7474874
v 0.4164364 -0.0609267 0.7472039
v 0.4185206 -0.0561272 0.7475743
v 0.4238197 -0.0555031 0.7486410
v 0.4285679 -0.0591962 0.7496634
v 0.4294445 -0.0649161 0.7499493
v 0.4269997 -0.0646616 0.7699744
v 0.4237813 -0.0707363 0.7684917
v 0.4181252 -0.0729794 0.7655527
v 0.4135174 -0.0684395 0.7637931
v 0.4122284 -0.0623841 0.7635127
v 0.4142219 -0.0574505 0.7646232
v 0.4188940 -0.0555032 0.7667800
v 0.4244701 -0.0580267 0.7690716
v 0.4333616 -0.1471346 0.7331362
v 0.4373400 -0.1419793 0.7332376
v 0.4368897 -0.1379659 0.7294712
v 0.4367927 -0.1406007 0.7230510
v 0.4366948 -0.1443504 0.7199136
v 0.4341465 -0.1475563 0.7199268
v 0.4318299 -0.1495172 0.7218766
v 0.4310876 -0.1503838 0.7262402
v 0.4252262 -0.1116132 0.7117819
v 0.4228482 -0.1114561 0.7129206
v 0.4225321 -0.1134219 0.7136714
v 0.4222438 -0.1150637 0.7152293
v 0.4241970 -0.1169395 0.7151332
v 0.4277588 -0.0676846 0.7319834
v 0.4291896 -0.0634823 0.7338298
v 0.4269515 -0.0597207 0.7317562
v 0.4257957 -0.0590342 0.7261583
v 0.4265147 -0.0595659 0.7224623
v 0.4276198 -0.0621658 0.7215643
v 0.4283666 -0.0650866 0.7230279
v 0.4279046 -0.0677081 0.7262477
v 0.4243681 -0.1600858 0.7500824
v 0.4250009 -0.1644979 0.7536176
v 0.4215218 -0.1694069 0.7539229
v 0.4194265 -0.1723327 0.7484673
v 0.4196922 -0.1716309 0.7445858
v 0.4208849 -0.1691890 0.7420425
v 0.4216225 -0.1651368 0.7409933
v 0.4223334 -0.1615469 0.7439325
v 0.4172152 -0.1711728 0.7551486
v 0.4162900 -0.1727193 0.7487276
v 0.4131037 -0.1683437 0.7541662
v 0.4134414 -0.1700794 0.7479109
v 0.4204801 -0.1560931 0.7485554
v 0.4191390 -0.1593811 0.7427115
v 0.4146301 -0.1576421 0.7493947
v 0.4145316 -0.1612741 0.7437960
v 0.4116344 -0.1629169 0.7518480
v 0.4124041 -0.1657199 0.7458329
v 0.4167351 -0.1717241 0.7440643
v 0.4146682 -0.1703229 0.7442797
v 0.4145740 -0.1676229 0.7422591
v 0.4154609 -0.1643383 0.7412585
v 0.4182861 -0.1641660 0.7400423
v 0.4350678 -0.1338282 0.7275857
v 0.4300464 -0.1324428 0.7268643
v 0.4252587 -0.1360244 0.7284284
v 0.4242121 -0.1418125 0.7308049
v 0.4271819 -0.1467074 0.7328870
v 0.4273156 -0.1485929 0.7251484
v 0.4248377 -0.1444123 0.7232699
v 0.4259979 -0.1392172 0.7210078
v 0.4305359 -0.1359912 0.7197090
v 0.4351662 -0.1372821 0.7206765
v 0.4344538 -0.1417392 0.7173266
v 0.4311964 -0.1399449 0.7170252
v 0.4286369 -0.1427391 0.7177861
v 0.4272935 -0.1453883 0.7198738
v 0.4292190 -0.1480011 0.7203941
v 0.4245053 -0.0565973 0.7316663
v 0.4204911 -0.0565361 0.7310010
v 0.4177103 -0.0610101 0.7307953
v 0.4184004 -0.0666915 0.7310925
v 0.4225693 -0.0701822 0.7315864
v 0.4238735 -0.0692293 0.7252352
v 0.4202971 -0.0666155 0.7248196
v 0.4195614 -0.0620318 0.7247354
v 0.4214252 -0.0581385 0.7250943
v 0.4243299 -0.0571238 0.7256362
v 0.4242780 -0.0596044 0.7219635
v 0.4224150 -0.0601251 0.7223264
v 0.4219859 -0.0630182 0.7217146
v 0.4222092 -0.0658083 0.7222121
v 0.4248737 -0.0666883 0.7216610
v 0.3760664 -0.1671105 0.8175237
v 0.3761054 -0.1724583 0.8117038
v 0.3734656 -0.1778019 0.8102947
v 0.3685578 -0.1792087 0.8101162
v 0.3640235 -0.1775974 0.8090899
v 0.3622344 -0.1725509 0.8107271
v 0.3623033 -0.1672830 0.8165644
v 0.3688762 -0.1674647 0.8208323
v 0.3767654 -0.1613349 0.8231989
v 0.3691142 -0.1633598 0.8255951
v 0.3615647 -0.1621198 0.8228590
v 0.3708698 -0.1018042 0.8665452
v 0.3808729 -0.1301016 0.8420673
v 0.3861799 -0.1281412 0.8413015
v 0.3915166 -0.1288711 0.8365948
v 0.4062027 -0.1267175 0.8281831
v 0.3659481 -0.1743613 0.8031527
v 0.3739160 -0.1750286 0.8041803
v 0.3787717 -0.1723839 0.8088065
v 0.3704524 -0.1688715 0.8029642
v 0.3607508 -0.1712720 0.8068740
v 0.3634614 -0.1618135 0.8064961
v 0.3776893 -0.1623277 0.8071770
v 0.3805115 -0.1651598 0.8125595
v 0.3809094 -0.1580302 0.8176463
v 0.3781176 -0.1543429 0.8119938
v 0.3704202 -0.1530971 0.8101773
v 0.3624453 -0.1541210 0.8116925
v 0.3582613 -0.1580947 0.8169795
v 0.3786397 -0.1347264 0.8393882
v 0.3771158 -0.1367943 0.8482010
v 0.3688661 -0.1382546 0.8527428
v 0.3595464 -0.1372088 0.8503884
v 0.3552966 -0.1339624 0.8432807
v 0.3572169 -0.1305821 0.8353279
v 0.3659022 -0.1285666 0.8299131
v 0.3758355 -0.1325864 0.8310089
v 0.3588871 -0.1463095 0.8314252
v 0.3614566 -0.1419631 0.8260396
v 0.3680944 -0.1395226 0.8229525
v 0.3751201 -0.1409080 0.8249440
v 0.3776223 -0.1448814 0.8302154
v 0.3757614 -0.1490362 0.8355983
v 0.3694650 -0.1515184 0.8383350
v 0.3622366 -0.1504119 0.8365330
v 0.3617544 -0.1568692 0.8298460
v 0.3584232 -0.1521821 0.8242705
v 0.3621651 -0.1479402 0.8191278
v 0.3696103 -0.1467292 0.8176544
v 0.3767759 -0.1474511 0.8188415
v 0.3795200 -0.1511390 0.8238673
v 0.3767214 -0.1553832 0.8293532
v 0.3695899 -0.1582744 0.8321598
v 0.3675987 -0.1275856 0.8576802
v 0.3783109 -0.1258369 0.8537742
v 0.3872876 -0.1169155 0.8506245
v 0.3958198 -0.1198812 0.8422596
v 0.3996412 -0.1316375 0.8239173
v 0.3642161 -0.1766199 0.8054985
v 0.3699914 -0.1751304 0.8029616
v 0.3744892 -0.1773792 0.8069893
v 0.3760365 -0.1701557 0.8046399
v 0.3645816 -0.1692870 0.8035312
v 0.3590429 -0.1645462 0.8109267
v 0.3706304 -0.1610156 0.8052717
v 0.4115732 -0.1198346 0.8302933
v 0.3995182 -0.1099998 0.8441368
v 0.3930249 -0.1054280 0.8521495
v 0.4152445 -0.1042883 0.8273618
v 0.4052448 -0.0950056 0.8443963
v 0.4013873 -0.0911693 0.8533005
v 0.4175591 -0.0972227 0.8260438
v 0.4077151 -0.0884844 0.8435259
v 0.4032159 -0.0848057 0.8521116
v 0.4161787 -0.0781628 0.8184915
v 0.4082462 -0.0705092 0.8371621
v 0.4044547 -0.0671551 0.8462945
v 0.4132945 -0.0650147 0.8122088
v 0.4056033 -0.0582084 0.8308825
v 0.4019947 -0.0551065 0.8403602
v 0.4103332 -0.0588868 0.8088239
v 0.4026035 -0.0524011 0.8270075
v 0.3990377 -0.0496380 0.8365492
v 0.4055009 -0.0546449 0.8050466
v 0.3981550 -0.0480126 0.8228974
v 0.3944755 -0.0456669 0.8323041
v 0.4008506 -0.0516881 0.8012900
v 0.3930155 -0.0454764 0.8187163
v 0.3890319 -0.0435102 0.8280563
v 0.3953213 -0.0532073 0.7981357
v 0.3868923 -0.0472085 0.8149651
v 0.3827440 -0.0450272 0.8241050
v 0.3911544 -0.0592838 0.7969348
v 0.3808911 -0.0529713 0.8121746
v 0.3762326 -0.0502201 0.8207783
v 0.3908801 -0.0677715 0.7985339
v 0.3791744 -0.0624357 0.8126996
v 0.3734916 -0.0596713 0.8202356
v 0.3927979 -0.0762590 0.8012908
v 0.3820764 -0.0709503 0.8158090
v 0.3759443 -0.0686633 0.8225273
v 0.3944226 -0.0843215 0.8037839
v 0.3843228 -0.0791556 0.8182273
v 0.3782763 -0.0769173 0.8244869
v 0.3817542 -0.1302966 0.8315576
v 0.3782760 -0.1311389 0.8323467
v 0.3858481 -0.1300035 0.8280224
v 0.3940191 -0.1311907 0.8180457
v 0.3586268 -0.1273163 0.8549398
v 0.3642877 -0.1047530 0.8651563
v 0.3575048 -0.1056887 0.8619233
v 0.3635505 -0.0935938 0.8733575
v 0.3590896 -0.0927579 0.8686807
v 0.3604132 -0.0863352 0.8856878
v 0.3572911 -0.0827470 0.8809428
v 0.3537438 -0.1255828 0.8478407
v 0.3522345 -0.1053684 0.8554333
v 0.3549676 -0.0904258 0.8614713
v 0.3550338 -0.0783143 0.8755625
v 0.3544081 -0.1232029 0.8389279
v 0.3512052 -0.1050860 0.8452315
v 0.3511979 -0.0942800 0.8477852
v 0.3921639 -0.1260108 0.8135946
v 0.3924513 -0.1196329 0.8109370
v 0.3942235 -0.1123361 0.8098742
v 0.3950531 -0.1049915 0.8085535
v 0.4186364 -0.1170995 0.8217145
v 0.4171024 -0.0673276 0.8038865
v 0.3842148 -0.1021230 0.8206888
v 0.3827587 -0.1094786 0.8205186
v 0.3809748 -0.1171118 0.8197894
v 0.3817942 -0.1251581 0.8217638
v 0.3763865 -0.1258284 0.8246141
v 0.3718757 -0.1262057 0.8278302
v 0.4175913 -0.0748117 0.8066360
v 0.3599152 -0.1210390 0.8315529
v 0.3669707 -0.1188317 0.8277256
v 0.3738804 -0.1159039 0.8246102
v 0.3764618 -0.1079838 0.8250523
v 0.3619805 -0.1048894 0.8293949
v 0.3552505 -0.1048150 0.8356894
v 0.3776716 -0.1005807 0.8251682
v 0.3621370 -0.0970370 0.8306881
v 0.3552515 -0.0958707 0.8375732
v 0.3685649 -0.0934341 0.8766869
v 0.3657577 -0.0889821 0.8894600
v 0.3934419 -0.0839811 0.8711383
v 0.3904389 -0.0805891 0.8816943
v 0.3956989 -0.0783151 0.8701257
v 0.3927852 -0.0752347 0.8807352
v 0.3875547 -0.0772295 0.8935256
v 0.3901816 -0.0711994 0.8924790
v 0.3979539 -0.0613224 0.8647823
v 0.3969482 -0.0582391 0.8756533
v 0.3958099 -0.0526607 0.8875746
v 0.3964083 -0.0496511 0.8594262
v 0.3948362 -0.0462460 0.8703381
v 0.3938094 -0.0410254 0.8820651
v 0.3926012 -0.0452736 0.8560278
v 0.3914654 -0.0429907 0.8677175
v 0.3892315 -0.0377360 0.8792673
v 0.4143327 -0.0609388 0.8009307
v 0.4095604 -0.0568983 0.7973050
v 0.3974458 -0.1339882 0.8125898
v 0.3949834 -0.0703612 0.7906620
v 0.3966732 -0.0790428 0.7933028
v 0.3874664 -0.0419842 0.8522611
v 0.3847921 -0.0399769 0.8639544
v 0.3828717 -0.0367393 0.8769410
v 0.3814813 -0.0408484 0.8484913
v 0.3784349 -0.0388853 0.8600922
v 0.3759876 -0.0366194 0.8732017
v 0.3747117 -0.0414201 0.8445252
v 0.3716708 -0.0395935 0.8562307
v 0.3686806 -0.0380063 0.8681707
v 0.3670527 -0.0452450 0.8405796
v 0.3645464 -0.0449753 0.8525367
v 0.3628324 -0.0449197 0.8640609
v 0.3623672 -0.0543750 0.8376960
v 0.3630572 -0.0643696 0.8363843
v 0.3642308 -0.0730467 0.8352274
v 0.3584306 -0.0718108 0.8417253
v 0.3583095 -0.0638050 0.8449933
v 0.3593751 -0.0540288 0.8491392
v 0.3581117 -0.0561159 0.8616340
v 0.3573467 -0.0663380 0.8531284
v 0.3564583 -0.0716916 0.8478796
v 0.4317464 -0.1455839 0.7177410
v 0.4251967 -0.1148694 0.7127062
v 0.4246472 -0.0630769 0.7207177
v 0.4174863 -0.1687611 0.7409614
v 0.3692066 -0.1789941 0.8061481
v 0.3984742 -0.0869892 0.7958744
v 0.3987923 -0.1067723 0.8009510
v 0.3971795 -0.1142354 0.8025348
v 0.3961217 -0.1219400 0.8047375
v 0.3816653 -0.0904757 0.8815966
v 0.3790968 -0.0871662 0.8937660
v 0.3845373 -0.0950212 0.8711176
v 0.3754262 -0.0925207 0.8795999
v 0.3725849 -0.0893760 0.8922169
v 0.3779375 -0.0995488 0.8697767
v 0.4089225 -0.1203619 0.7897015
v 0.4165756 -0.1233270 0.7934712
v 0.4219971 -0.1190837 0.8003442
v 0.4106659 -0.0822123 0.7792985
v 0.4172897 -0.0797597 0.7806909
v 0.4210145 -0.0805287 0.7874278
v 0.3841324 -0.0826719 0.8940467
v 0.3979549 -0.0978666 0.8533949
v 0.4041137 -0.1024535 0.8458731
v 0.4143562 -0.1119607 0.8295215
v 0.4289234 -0.1110620 0.7996112
v 0.4275045 -0.0869829 0.7911988
v 0.4153408 -0.0715947 0.8155857
v 0.4070100 -0.0645622 0.8342277
v 0.4035150 -0.0612253 0.8435661
v 0.3976794 -0.0551311 0.8623337
v 0.3971643 -0.0520382 0.8730379
v 0.3961715 -0.0466541 0.8851436
v 0.3869082 -0.0857185 0.8820199
v 0.3896222 -0.0896656 0.8714296
v 0.4064663 -0.1384187 0.8118848
v 0.4103498 -0.0914275 0.7810905
v 0.4131884 -0.1357591 0.8150994
v 0.4013226 -0.1372269 0.8069741
v 0.4011135 -0.0636214 0.7829223
v 0.4089612 -0.0566002 0.7870811
v 0.4096291 -0.1117812 0.7869622
v 0.4134938 -0.0582764 0.7903286
v 0.4044870 -0.0580834 0.7844426
v 0.3994812 -0.1321001 0.8020264
v 0.4194125 -0.1298884 0.8155510
v 0.4265481 -0.1067571 0.8090724
v 0.4221607 -0.1140296 0.8105086
v 0.4175788 -0.0624804 0.7934633
v 0.4242194 -0.0838463 0.8007968
v 0.4200654 -0.0772422 0.7978470
v 0.4183118 -0.0694602 0.7953083
v 0.4209528 -0.1218509 0.8127517
v 0.4004579 -0.0722374 0.7832946
v 0.3999289 -0.1247866 0.7979264
v 0.4013691 -0.1167764 0.7953159
v 0.4021948 -0.0810434 0.7856573
v 0.4039871 -0.0892305 0.7882002
v 0.4035500 -0.1091053 0.7936876
v 0.4102951 -0.1316651 0.8222995
v 0.4032437 -0.1346238 0.8179828
v 0.3996879 -0.0560188 0.7907708
v 0.4047860 -0.0547425 0.7937821
v 0.4166416 -0.1253698 0.8238596
v 0.4225392 -0.1019293 0.8178493
v 0.4197965 -0.1092081 0.8193565
v 0.4205401 -0.0811336 0.8098542
v 0.3952544 -0.1289653 0.8077326
v 0.3956597 -0.0617589 0.7893690
v 0.4013323 -0.1228638 0.8346417
v 0.3957704 -0.1301569 0.8301915
v 0.4057494 -0.1144842 0.8366017
v 0.4101344 -0.0994219 0.8356201
v 0.4126317 -0.0926619 0.8346946
v 0.4121808 -0.0743469 0.8276274
v 0.4093245 -0.0617621 0.8212765
v 0.4064809 -0.0557131 0.8176211
v 0.4016915 -0.0514354 0.8136971
v 0.3968851 -0.0484784 0.8097118
v 0.3910053 -0.0500229 0.8062345
v 0.3858141 -0.0561270 0.8042427
v 0.3850568 -0.0651827 0.8056012
v 0.3878089 -0.0735624 0.8088043
v 0.3897588 -0.0816619 0.8113587
v 0.3901283 -0.1299129 0.8232014
v 0.3903132 -0.1035135 0.8153132
v 0.3884668 -0.1107714 0.8151363
v 0.3868667 -0.1181034 0.8154243
v 0.3876209 -0.1246584 0.8184132
v 0.4110941 -0.0681718 0.8246916
v 0.4096057 -0.1069328 0.8375788
v 0.4120714 -0.1468626 0.7998997
v 0.4236901 -0.1390053 0.8004274
v 0.4226551 -0.1320399 0.7951251
v 0.4167396 -0.1302218 0.7899982
v 0.4101204 -0.1331537 0.7887813
v 0.4060960 -0.1394796 0.7914000
v 0.4070479 -0.1450720 0.7959490
v 0.4185200 -0.1450762 0.8019725
v 0.4276788 -0.1113050 0.7734660
v 0.4361902 -0.1194038 0.7823226
v 0.4307526 -0.1261980 0.7841542
v 0.4231489 -0.1271049 0.7815155
v 0.4180996 -0.1240115 0.7774099
v 0.4183058 -0.1181434 0.7737969
v 0.4214830 -0.1127847 0.7717494
v 0.4341659 -0.1124696 0.7772419
v 0.4114932 -0.0580270 0.7718518
v 0.4237443 -0.0641256 0.7783153
v 0.4215758 -0.0707685 0.7768012
v 0.4166117 -0.0745298 0.7730210
v 0.4110341 -0.0701170 0.7710071
v 0.4091770 -0.0632612 0.7705910
v 0.4158790 -0.0563897 0.7741400
v 0.4208160 -0.0583574 0.7767323
v 0.4218373 -0.1223260 0.7654071
v 0.4249788 -0.1263507 0.7572969
v 0.4240746 -0.1311823 0.7595456
v 0.4211784 -0.1279970 0.7683743
v 0.4273525 -0.1353675 0.7626902
v 0.4259847 -0.1315953 0.7721300
v 0.4404309 -0.1296586 0.7630510
v 0.4397774 -0.1246494 0.7729839
v 0.4381499 -0.1170313 0.7682929
v 0.4395193 -0.1224800 0.7590982
v 0.4331593 -0.1198926 0.7563932
v 0.4310555 -0.1153895 0.7649825
v 0.4272393 -0.1217452 0.7557914
v 0.4248187 -0.1173171 0.7637084
v 0.4338089 -0.1314321 0.7746782
v 0.4347572 -0.1357792 0.7647837
v 0.4127603 -0.1568550 0.7776507
v 0.4117755 -0.1530272 0.7843279
v 0.4209935 -0.1391310 0.7786981
v 0.4215626 -0.1440843 0.7722481
v 0.4289882 -0.1520154 0.7783067
v 0.4288656 -0.1479685 0.7862337
v 0.4165315 -0.1561429 0.7877350
v 0.4175512 -0.1602034 0.7806067
v 0.4115247 -0.1474084 0.7807206
v 0.4126603 -0.1512814 0.7742978
v 0.4156672 -0.1460376 0.7719770
v 0.4146323 -0.1416528 0.7780967
v 0.4271910 -0.1412829 0.7818782
v 0.4273603 -0.1460152 0.7745714
v 0.4239330 -0.1544601 0.7886938
v 0.4246037 -0.1580413 0.7807626
v 0.3533208 -0.0845954 0.8488005
v 0.3549291 -0.0767594 0.8485823
v 0.3549938 -0.0719562 0.8575203
v 0.3550584 -0.0798837 0.8600246
v 0.3545150 -0.0649308 0.8667292
v 0.3534322 -0.0727304 0.8707705
v 0.3960389 -0.0913884 0.8061310
v 0.3959413 -0.0981349 0.8075249
v 0.3853118 -0.0870346 0.8198009
v 0.3856579 -0.0946812 0.8210938
v 0.3790256 -0.0850184 0.8253601
v 0.3785575 -0.0929246 0.8252684
v 0.3579043 -0.0791590 0.8401920
v 0.3562741 -0.0870270 0.8388271
v 0.3630224 -0.0889062 0.8321061
v 0.3640322 -0.0809705 0.8336955
v 0.4004430 -0.1001781 0.7998801
v 0.4000744 -0.0938087 0.7980979
v 0.4129107 -0.0998009 0.7814846
v 0.4126450 -0.1052017 0.7830819
v 0.4218673 -0.1010980 0.7834800
v 0.4221873 -0.1035349 0.7835785
v 0.4265459 -0.1032687 0.7931427
v 0.4258154 -0.0959752 0.7907537
v 0.4173327 -0.0906240 0.8235534
v 0.4171152 -0.0842872 0.8211924
v 0.4088088 -0.0763220 0.8396398
v 0.4079489 -0.0823124 0.8414684
v 0.4048025 -0.0729311 0.8486140
v 0.4042719 -0.0787839 0.8504860
v 0.3977779 -0.0672417 0.8669357
v 0.3970752 -0.0727432 0.8687145
v 0.3957858 -0.0640355 0.8778963
v 0.3943163 -0.0694973 0.8793947
v 0.3943209 -0.0593289 0.8897119
v 0.3922902 -0.0653993 0.8912049
v 0.4252207 -0.0990192 0.8053121
v 0.4236707 -0.0916061 0.8025348
v 0.4045393 -0.1026592 0.7911277
v 0.4044669 -0.0965740 0.7892434
v 0.4218931 -0.0947913 0.8148691
v 0.4211001 -0.0879161 0.8122339
v 0.3916348 -0.0963307 0.8150575
v 0.3915125 -0.0890315 0.8137452
v 0.4127235 -0.0802965 0.8301870
v 0.4125231 -0.0863734 0.8323544
v 0.3773978 -0.1395092 0.8353679
v 0.3756049 -0.1430852 0.8417016
v 0.3690467 -0.1448307 0.8448397
v 0.3615708 -0.1438440 0.8431604
v 0.3575104 -0.1405453 0.8377738
v 0.3601811 -0.1366263 0.8317401
v 0.3668830 -0.1343724 0.8278081
v 0.3744832 -0.1358117 0.8293400
v 0.3990401 -0.0815701 0.8606992
v 0.4004092 -0.0757239 0.8592346
v 0.3953494 -0.0476488 0.8458912
v 0.3786425 -0.0436385 0.8339835
v 0.3850178 -0.0428505 0.8378977
v 0.4007615 -0.0700223 0.8573223
v 0.3684111 -0.0568879 0.8287109
v 0.3815050 -0.1073916 0.8610771
v 0.3986336 -0.0526189 0.8495401
v 0.4002759 -0.0583743 0.8526584
v 0.3905724 -0.0443179 0.8419023
v 0.3926868 -0.0933331 0.8614630
v 0.3872935 -0.0997710 0.8608044
v 0.3715039 -0.0475827 0.8301030
v 0.3969148 -0.0875186 0.8617204
v 0.3743900 -0.1135972 0.8624665
v 0.4006673 -0.0643100 0.8551497
v 0.3526594 -0.1161854 0.8514278
v 0.3567289 -0.1132316 0.8335733
v 0.3657097 -0.1161839 0.8611408
v 0.3632511 -0.1120469 0.8281808
v 0.3580390 -0.1167719 0.8578095
v 0.3525423 -0.1146781 0.8422202
v 0.3688736 -0.1111356 0.8265842
v 0.3692874 -0.1058862 0.8266695
v 0.3698313 -0.0986315 0.8270438
v 0.3707167 -0.0908985 0.8280279
v 0.3715944 -0.0830506 0.8294563
v 0.3715160 -0.0749009 0.8301361
v 0.3694661 -0.0664270 0.8291374
usemtl blender_human_cc0
f 1 4 3
f 2 1 3
f 5 6 3
f 4 5 3
f 8 3 6
f 7 8 6
f 9 2 3
f 8 9 3
f 12 11 10
f 13 12 10
f 14 15 12
f 13 14 12
f 17 13 10
f 16 17 10
f 17 18 14
f 13 17 14
f 21 20 19
f 22 21 19
f 23 24 21
f 22 23 21
f 26 22 19
f 25 26 19
f 26 27 23
f 22 26 23
f 30 31 28
f 29 30 28
f 30 33 32
f 31 30 32
f 34 35 31
f 32 34 31
f 35 36 28
f 31 35 28
f 39 40 37
f 38 39 37
f 41 42 40
f 39 41 40
f 43 44 40
f 42 43 40
f 45 37 40
f 44 45 40
f 47 16 10
f 46 47 10
f 48 17 16
f 47 48 16
f 49 18 17
f 48 49 17
f 50 14 18
f 49 50 18
f 51 15 14
f 50 51 14
f 52 12 15
f 51 52 15
f 52 53 11
f 12 52 11
f 11 53 46
f 10 11 46
f 55 46 53
f 54 55 53
f 56 47 46
f 55 56 46
f 57 54 53
f 58 57 53
f 52 59 58
f 53 52 58
f 61 47 56
f 60 61 56
f 62 48 47
f 61 62 47
f 63 62 61
f 64 63 61
f 65 64 61
f 60 65 61
f 58 67 66
f 57 58 66
f 68 67 58
f 59 68 58
f 70 67 68
f 69 70 68
f 71 66 67
f 70 71 67
f 71 70 64
f 65 71 64
f 64 70 69
f 63 64 69
f 191 184 139
f 143 191 139
f 184 185 138
f 139 184 138
f 186 137 138
f 185 186 138
f 187 136 137
f 186 187 137
f 187 188 130
f 136 187 130
f 188 189 129
f 130 188 129
f 189 190 128
f 129 189 128
f 191 143 128
f 190 191 128
f 570 598 591
f 569 570 591
f 183 81 80
f 182 183 80
f 176 82 81
f 183 176 81
f 177 83 82
f 176 177 82
f 177 178 84
f 83 177 84
f 179 85 84
f 178 179 84
f 180 86 85
f 179 180 85
f 180 181 87
f 86 180 87
f 198 199 94
f 95 198 94
f 199 192 93
f 94 199 93
f 192 193 92
f 93 192 92
f 193 194 91
f 92 193 91
f 194 195 90
f 91 194 90
f 195 196 89
f 90 195 89
f 196 197 88
f 89 196 88
f 198 95 88
f 197 198 88
f 205 206 103
f 102 205 103
f 207 96 103
f 206 207 103
f 96 207 200
f 97 96 200
f 201 98 97
f 200 201 97
f 202 99 98
f 201 202 98
f 202 203 100
f 99 202 100
f 203 204 101
f 100 203 101
f 205 102 101
f 204 205 101
f 175 119 112
f 174 175 112
f 175 168 115
f 119 175 115
f 168 169 118
f 115 168 118
f 169 170 114
f 118 169 114
f 170 171 113
f 114 170 113
f 171 172 117
f 113 171 117
f 172 173 116
f 117 172 116
f 173 174 112
f 116 173 112
f 594 173 172
f 596 594 172
f 590 599 168
f 175 590 168
f 590 175 174
f 593 590 174
f 599 588 169
f 168 599 169
f 586 170 169
f 588 586 169
f 586 585 171
f 170 586 171
f 613 604 160
f 161 613 160
f 614 605 152
f 159 614 152
f 612 153 152
f 605 612 152
f 611 155 154
f 602 611 154
f 180 179 136
f 130 180 136
f 607 600 165
f 166 607 165
f 608 601 157
f 156 608 157
f 155 611 608
f 156 155 608
f 567 560 158
f 159 567 158
f 567 159 152
f 561 567 152
f 562 561 152
f 153 562 152
f 563 562 153
f 154 563 153
f 564 563 154
f 155 564 154
f 565 564 155
f 156 565 155
f 566 565 156
f 157 566 156
f 560 566 157
f 158 560 157
f 604 615 167
f 160 604 167
f 610 603 162
f 163 610 162
f 613 161 162
f 603 613 162
f 609 610 163
f 164 609 163
f 602 154 153
f 612 602 153
f 600 609 164
f 165 600 164
f 167 615 607
f 166 167 607
f 614 159 158
f 606 614 158
f 160 135 134
f 161 160 134
f 161 134 133
f 162 161 133
f 163 162 133
f 142 163 133
f 163 142 141
f 164 163 141
f 164 141 132
f 165 164 132
f 165 132 131
f 166 165 131
f 167 166 131
f 140 167 131
f 167 140 135
f 160 167 135
f 587 589 571
f 572 587 571
f 587 572 573
f 584 587 573
f 574 597 584
f 573 574 584
f 597 574 568
f 595 597 568
f 595 568 575
f 592 595 575
f 591 592 575
f 569 591 575
f 598 570 571
f 589 598 571
f 594 593 174
f 173 594 174
f 180 130 129
f 181 180 129
f 181 182 80
f 87 181 80
f 176 183 143
f 139 176 143
f 176 139 138
f 177 176 138
f 177 138 137
f 178 177 137
f 179 178 137
f 136 179 137
f 183 182 128
f 143 183 128
f 184 79 74
f 185 184 74
f 185 74 73
f 186 185 73
f 187 186 73
f 77 187 73
f 187 77 76
f 188 187 76
f 188 76 72
f 189 188 72
f 190 189 72
f 75 190 72
f 191 190 75
f 78 191 75
f 184 191 78
f 79 184 78
f 99 193 192
f 98 99 192
f 194 193 99
f 100 194 99
f 195 194 100
f 101 195 100
f 196 195 101
f 102 196 101
f 197 196 102
f 103 197 102
f 197 103 96
f 198 197 96
f 199 198 96
f 97 199 96
f 199 97 98
f 192 199 98
f 578 201 200
f 577 578 200
f 579 202 201
f 578 579 201
f 579 580 203
f 202 579 203
f 581 204 203
f 580 581 203
f 581 576 205
f 204 581 205
f 582 206 205
f 576 582 205
f 583 207 206
f 582 583 206
f 583 577 200
f 207 583 200
f 19 209 208
f 25 19 208
f 210 209 19
f 20 210 19
f 21 211 210
f 20 21 210
f 212 211 21
f 24 212 21
f 212 24 23
f 213 212 23
f 214 213 23
f 27 214 23
f 214 27 26
f 215 214 26
f 208 215 26
f 25 208 26
f 216 59 52
f 51 216 52
f 216 217 68
f 59 216 68
f 217 218 69
f 68 217 69
f 218 219 63
f 69 218 63
f 219 220 62
f 63 219 62
f 220 49 48
f 62 220 48
f 209 210 112
f 119 209 112
f 208 209 119
f 115 208 119
f 78 56 55
f 79 78 55
f 75 60 56
f 78 75 56
f 79 55 54
f 74 79 54
f 73 74 54
f 57 73 54
f 77 73 57
f 66 77 57
f 75 72 65
f 60 75 65
f 72 76 71
f 65 72 71
f 76 77 66
f 71 76 66
f 487 488 84
f 85 487 84
f 488 489 83
f 84 488 83
f 6 222 221
f 7 6 221
f 222 94 93
f 221 222 93
f 222 6 5
f 223 222 5
f 223 95 94
f 222 223 94
f 223 5 4
f 224 223 4
f 1 225 224
f 4 1 224
f 226 225 1
f 2 226 1
f 9 227 226
f 2 9 226
f 227 9 8
f 228 227 8
f 228 8 7
f 221 228 7
f 229 230 32
f 33 229 32
f 230 231 34
f 32 230 34
f 232 35 34
f 231 232 34
f 233 36 35
f 232 233 35
f 234 28 36
f 233 234 36
f 234 235 29
f 28 234 29
f 235 236 30
f 29 235 30
f 30 236 229
f 33 30 229
f 230 229 134
f 135 230 134
f 231 230 135
f 140 231 135
f 131 237 231
f 140 131 231
f 238 232 231
f 237 238 231
f 132 239 237
f 131 132 237
f 240 238 237
f 239 240 237
f 229 241 133
f 134 229 133
f 242 241 229
f 236 242 229
f 241 243 142
f 133 241 142
f 244 243 241
f 242 244 241
f 245 141 142
f 243 245 142
f 245 239 132
f 141 245 132
f 246 245 243
f 244 246 243
f 246 240 239
f 245 246 239
f 247 233 232
f 238 247 232
f 248 247 238
f 240 248 238
f 249 248 240
f 246 249 240
f 249 246 244
f 250 249 244
f 251 250 244
f 242 251 244
f 242 236 235
f 251 242 235
f 252 116 112
f 210 252 112
f 252 253 117
f 116 252 117
f 253 254 113
f 117 253 113
f 255 114 113
f 254 255 113
f 256 118 114
f 255 256 114
f 118 256 208
f 115 118 208
f 257 215 208
f 256 257 208
f 257 256 255
f 258 257 255
f 258 255 254
f 259 258 254
f 260 259 254
f 253 260 254
f 260 253 252
f 261 260 252
f 261 252 210
f 211 261 210
f 212 262 261
f 211 212 261
f 262 263 260
f 261 262 260
f 264 259 260
f 263 264 260
f 264 265 258
f 259 264 258
f 265 266 257
f 258 265 257
f 257 266 214
f 215 257 214
f 223 267 88
f 95 223 88
f 268 89 88
f 267 268 88
f 269 90 89
f 268 269 89
f 270 91 90
f 269 270 90
f 270 271 92
f 91 270 92
f 92 271 221
f 93 92 221
f 272 228 221
f 271 272 221
f 272 271 270
f 273 272 270
f 273 270 269
f 274 273 269
f 275 274 269
f 268 275 269
f 275 268 267
f 276 275 267
f 276 267 223
f 224 276 223
f 277 276 224
f 225 277 224
f 277 278 275
f 276 277 275
f 279 274 275
f 278 279 275
f 279 280 273
f 274 279 273
f 280 281 272
f 273 280 272
f 272 281 227
f 228 272 227
f 282 41 39
f 283 282 39
f 283 39 38
f 284 283 38
f 285 284 38
f 37 285 38
f 286 285 37
f 45 286 37
f 287 286 45
f 44 287 45
f 287 44 43
f 288 287 43
f 42 289 288
f 43 42 288
f 289 42 41
f 282 289 41
f 291 289 282
f 290 291 282
f 292 288 289
f 291 292 289
f 327 334 325
f 326 327 325
f 334 333 324
f 325 334 324
f 333 332 323
f 324 333 323
f 323 332 331
f 322 323 331
f 322 331 330
f 321 322 330
f 330 329 320
f 321 330 320
f 320 329 328
f 319 320 328
f 319 328 327
f 326 319 327
f 669 322 321
f 668 669 321
f 668 321 320
f 667 668 320
f 667 320 319
f 666 667 319
f 665 666 319
f 326 665 319
f 665 326 325
f 664 665 325
f 664 325 324
f 663 664 324
f 663 324 323
f 662 663 323
f 322 669 662
f 323 322 662
f 327 292 291
f 334 327 291
f 333 334 291
f 290 333 291
f 328 310 292
f 327 328 292
f 328 329 309
f 310 328 309
f 329 330 308
f 309 329 308
f 330 331 307
f 308 330 307
f 331 332 306
f 307 331 306
f 332 333 290
f 306 332 290
f 306 290 282
f 305 306 282
f 306 305 304
f 307 306 304
f 304 346 308
f 307 304 308
f 308 346 303
f 309 308 303
f 310 309 303
f 345 310 303
f 310 345 288
f 292 310 288
f 345 302 287
f 288 345 287
f 302 345 303
f 344 302 303
f 303 346 301
f 344 303 301
f 301 346 304
f 343 301 304
f 300 343 304
f 305 300 304
f 300 305 282
f 283 300 282
f 342 300 283
f 284 342 283
f 300 342 299
f 343 300 299
f 301 343 299
f 341 301 299
f 298 344 301
f 341 298 301
f 302 344 298
f 340 302 298
f 302 340 286
f 287 302 286
f 538 338 296
f 539 538 296
f 338 337 295
f 296 338 295
f 337 336 294
f 295 337 294
f 312 311 294
f 336 312 294
f 685 689 335
f 336 685 335
f 336 335 313
f 312 336 313
f 538 540 348
f 338 538 348
f 349 337 338
f 348 349 338
f 559 492 348
f 540 559 348
f 491 492 351
f 352 491 351
f 542 354 351
f 541 542 351
f 355 352 351
f 354 355 351
f 671 670 355
f 645 671 355
f 661 643 354
f 542 661 354
f 543 558 497
f 357 543 497
f 498 497 360
f 361 498 360
f 545 363 360
f 544 545 360
f 364 361 360
f 363 364 360
f 546 366 363
f 545 546 363
f 367 364 363
f 366 367 363
f 547 369 366
f 546 547 366
f 370 367 366
f 369 370 366
f 547 548 372
f 369 547 372
f 373 370 369
f 372 373 369
f 548 549 375
f 372 548 375
f 376 373 372
f 375 376 372
f 550 378 375
f 549 550 375
f 551 381 378
f 550 551 378
f 382 379 378
f 381 382 378
f 551 552 384
f 381 551 384
f 385 382 381
f 384 385 381
f 294 387 386
f 295 294 386
f 318 387 294
f 311 318 294
f 388 296 295
f 386 388 295
f 553 389 339
f 539 553 339
f 335 390 314
f 313 335 314
f 691 390 335
f 689 691 335
f 393 394 392
f 391 393 392
f 396 394 393
f 395 396 393
f 390 397 315
f 314 390 315
f 687 397 390
f 691 687 390
f 399 398 392
f 394 399 392
f 400 399 394
f 396 400 394
f 401 316 315
f 397 401 315
f 692 401 397
f 687 692 397
f 403 402 398
f 399 403 398
f 617 468 463
f 628 617 463
f 618 620 466
f 467 618 466
f 697 698 385
f 626 697 385
f 513 536 477
f 523 513 477
f 423 627 625
f 410 423 625
f 554 407 406
f 555 554 406
f 556 412 411
f 555 556 411
f 556 405 404
f 557 556 404
f 557 553 388
f 413 557 388
f 413 388 386
f 414 413 386
f 415 414 386
f 387 415 386
f 387 318 317
f 415 387 317
f 696 627 423
f 695 696 423
f 523 477 476
f 524 523 476
f 417 317 316
f 401 417 316
f 417 418 415
f 317 417 415
f 419 414 415
f 418 419 415
f 414 419 412
f 413 414 412
f 419 420 411
f 412 419 411
f 694 693 690
f 421 694 690
f 421 690 688
f 422 421 688
f 401 692 688
f 417 401 688
f 626 385 384
f 624 626 384
f 420 423 410
f 411 420 410
f 695 694 421
f 424 695 421
f 422 425 424
f 421 422 424
f 425 422 402
f 403 425 402
f 619 616 403
f 399 619 403
f 654 527 475
f 632 654 475
f 631 628 463
f 462 631 463
f 393 391 293
f 426 393 293
f 426 427 395
f 393 426 395
f 510 635 127
f 126 510 127
f 482 481 478
f 479 482 478
f 684 352 355
f 670 684 355
f 431 429 428
f 430 431 428
f 490 502 429
f 432 490 429
f 658 623 407
f 554 658 407
f 633 622 383
f 474 633 383
f 530 371 368
f 531 530 368
f 431 433 432
f 429 431 432
f 444 531 368
f 365 444 368
f 408 493 347
f 532 408 347
f 445 529 339
f 389 445 339
f 675 644 358
f 686 675 358
f 649 431 430
f 647 649 430
f 650 648 435
f 436 650 435
f 532 347 297
f 528 532 297
f 679 686 358
f 498 679 358
f 500 499 437
f 438 500 437
f 500 501 436
f 435 500 436
f 678 361 364
f 672 678 364
f 441 438 437
f 440 441 437
f 442 439 438
f 441 442 438
f 617 618 467
f 468 617 467
f 629 630 424
f 425 629 424
f 446 537 508
f 522 446 508
f 621 619 399
f 400 621 399
f 367 680 672
f 364 367 672
f 448 449 441
f 440 448 441
f 450 442 441
f 449 450 441
f 674 680 367
f 370 674 367
f 452 449 448
f 451 452 448
f 453 450 449
f 452 453 449
f 674 370 373
f 673 674 373
f 455 452 451
f 454 455 451
f 455 456 453
f 452 455 453
f 683 673 373
f 376 683 373
f 458 455 454
f 457 458 454
f 459 456 455
f 458 459 455
f 379 376 375
f 378 379 375
f 699 676 379
f 382 699 379
f 699 698 462
f 461 699 462
f 524 476 475
f 527 524 475
f 464 461 462
f 463 464 462
f 464 465 460
f 461 464 460
f 457 683 676
f 460 457 676
f 466 465 464
f 467 466 464
f 463 468 467
f 464 463 467
f 655 633 474
f 526 655 474
f 522 525 447
f 446 522 447
f 526 474 447
f 525 526 447
f 469 262 212
f 213 469 212
f 264 263 262
f 469 264 262
f 469 213 214
f 266 469 214
f 469 266 265
f 264 469 265
f 470 216 51
f 50 470 51
f 470 50 49
f 220 470 49
f 218 217 216
f 470 218 216
f 470 220 219
f 218 470 219
f 471 277 225
f 226 471 225
f 281 471 226
f 227 281 226
f 471 279 278
f 277 471 278
f 281 280 279
f 471 281 279
f 472 234 233
f 247 472 233
f 249 472 247
f 248 249 247
f 472 251 235
f 234 472 235
f 251 472 249
f 250 251 249
f 340 473 285
f 286 340 285
f 285 473 342
f 284 285 342
f 473 340 298
f 341 473 298
f 473 341 299
f 342 473 299
f 657 653 518
f 535 657 518
f 503 502 478
f 480 503 478
f 681 682 349
f 491 681 349
f 481 482 427
f 426 481 427
f 481 483 480
f 478 481 480
f 682 480 483
f 677 682 483
f 677 685 336
f 337 677 336
f 481 426 293
f 483 481 293
f 81 639 636
f 80 81 636
f 637 638 121
f 120 637 121
f 484 125 124
f 485 484 124
f 485 124 123
f 486 485 123
f 485 486 147
f 148 485 147
f 484 485 148
f 149 484 148
f 495 639 81
f 82 495 81
f 634 505 86
f 87 634 86
f 488 109 108
f 489 488 108
f 487 110 109
f 488 487 109
f 514 506 145
f 146 514 145
f 507 151 144
f 504 507 144
f 147 521 514
f 146 147 514
f 511 106 105
f 509 511 105
f 512 509 105
f 104 512 105
f 684 681 491
f 352 684 491
f 486 123 122
f 494 486 122
f 652 515 494
f 638 652 494
f 495 82 83
f 489 495 83
f 653 639 495
f 518 653 495
f 502 503 428
f 429 502 428
f 515 516 486
f 494 515 486
f 444 365 362
f 443 444 362
f 517 520 108
f 107 517 108
f 501 500 438
f 439 501 438
f 500 435 434
f 499 500 434
f 679 498 361
f 678 679 361
f 497 498 358
f 357 497 358
f 497 558 544
f 360 497 544
f 359 496 416
f 409 359 416
f 518 495 489
f 519 518 489
f 649 651 433
f 431 649 433
f 648 646 434
f 435 648 434
f 644 642 357
f 358 644 357
f 645 355 354
f 643 645 354
f 638 494 122
f 121 638 122
f 640 661 542
f 353 640 542
f 530 537 374
f 371 530 374
f 506 504 144
f 145 506 144
f 502 490 479
f 478 502 479
f 491 349 348
f 492 491 348
f 559 541 351
f 492 559 351
f 516 521 147
f 486 516 147
f 536 445 389
f 404 536 389
f 510 126 125
f 484 510 125
f 636 634 87
f 80 636 87
f 525 522 110
f 487 525 110
f 654 635 510
f 527 654 510
f 655 526 505
f 634 655 505
f 505 487 85
f 86 505 85
f 507 513 150
f 151 507 150
f 516 534 408
f 521 516 408
f 528 529 504
f 506 528 504
f 508 512 104
f 111 508 104
f 656 533 515
f 652 656 515
f 416 535 518
f 519 416 518
f 108 520 519
f 489 108 519
f 517 443 409
f 520 517 409
f 517 107 106
f 511 517 106
f 534 516 515
f 533 534 515
f 530 531 509
f 512 530 509
f 509 531 444
f 511 509 444
f 514 521 408
f 532 514 408
f 445 507 504
f 529 445 504
f 532 528 506
f 514 532 506
f 526 525 487
f 505 526 487
f 524 484 149
f 523 524 149
f 637 120 127
f 635 637 127
f 513 523 149
f 150 513 149
f 522 508 111
f 110 522 111
f 527 510 484
f 524 527 484
f 465 458 457
f 460 465 457
f 465 466 459
f 458 465 459
f 350 534 533
f 353 350 533
f 443 362 359
f 409 443 359
f 416 496 356
f 535 416 356
f 656 640 353
f 533 656 353
f 660 641 356
f 543 660 356
f 529 528 297
f 339 529 297
f 408 534 350
f 493 408 350
f 513 507 445
f 536 513 445
f 508 537 530
f 512 508 530
f 519 520 409
f 416 519 409
f 517 511 444
f 443 517 444
f 474 383 380
f 447 474 380
f 447 380 377
f 446 447 377
f 659 552 383
f 622 659 383
f 659 624 384
f 552 659 384
f 475 476 406
f 407 475 406
f 446 377 374
f 537 446 374
f 477 405 406
f 476 477 406
f 477 536 404
f 405 477 404
f 559 493 350
f 541 559 350
f 660 543 357
f 642 660 357
f 558 496 359
f 544 558 359
f 658 554 410
f 625 658 410
f 557 404 389
f 553 557 389
f 557 413 412
f 556 557 412
f 555 406 405
f 556 555 405
f 555 411 410
f 554 555 410
f 623 632 475
f 407 623 475
f 553 539 296
f 388 553 296
f 552 551 380
f 383 552 380
f 380 551 550
f 377 380 550
f 377 550 549
f 374 377 549
f 374 549 548
f 371 374 548
f 548 547 368
f 371 548 368
f 547 546 365
f 368 547 365
f 365 546 545
f 362 365 545
f 362 545 544
f 359 362 544
f 558 543 356
f 496 558 356
f 641 657 535
f 356 641 535
f 542 541 350
f 353 542 350
f 559 540 347
f 493 559 347
f 347 540 538
f 297 347 538
f 539 339 297
f 538 539 297
f 566 560 144
f 151 566 144
f 565 566 151
f 150 565 151
f 564 565 150
f 149 564 150
f 564 149 148
f 563 564 148
f 563 148 147
f 562 563 147
f 562 147 146
f 561 562 146
f 561 146 145
f 567 561 145
f 567 145 144
f 560 567 144
f 575 121 122
f 569 575 122
f 575 568 120
f 121 575 120
f 574 127 120
f 568 574 120
f 127 574 573
f 126 127 573
f 126 573 572
f 125 126 572
f 572 571 124
f 125 572 124
f 124 571 570
f 123 124 570
f 123 570 569
f 122 123 569
f 583 106 107
f 577 583 107
f 106 583 582
f 105 106 582
f 582 576 104
f 105 582 104
f 581 111 104
f 576 581 104
f 111 581 580
f 110 111 580
f 580 579 109
f 110 580 109
f 109 579 578
f 108 109 578
f 578 577 107
f 108 578 107
f 584 597 596
f 585 584 596
f 599 598 589
f 588 599 589
f 597 595 594
f 596 597 594
f 589 587 586
f 588 589 586
f 593 592 591
f 590 593 591
f 594 595 592
f 593 594 592
f 587 584 585
f 586 587 585
f 598 599 590
f 591 598 590
f 585 596 172
f 171 585 172
f 613 612 605
f 604 613 605
f 606 601 600
f 607 606 600
f 611 610 609
f 608 611 609
f 613 603 602
f 612 613 602
f 615 614 606
f 607 615 606
f 608 609 600
f 601 608 600
f 611 602 603
f 610 611 603
f 615 604 605
f 614 615 605
f 606 158 157
f 601 606 157
f 618 617 616
f 619 618 616
f 621 620 618
f 619 621 618
f 658 625 624
f 659 658 624
f 632 623 622
f 633 632 622
f 627 626 624
f 625 627 624
f 630 629 628
f 631 630 628
f 629 616 617
f 628 629 617
f 696 697 626
f 627 696 626
f 633 655 654
f 632 633 654
f 636 639 638
f 637 636 638
f 637 635 634
f 636 637 634
f 651 649 648
f 650 651 648
f 648 649 647
f 646 648 647
f 644 675 671
f 645 644 671
f 644 645 643
f 642 644 643
f 661 660 642
f 643 661 642
f 653 652 638
f 639 653 638
f 657 656 652
f 653 657 652
f 654 655 634
f 635 654 634
f 657 641 640
f 656 657 640
f 658 659 622
f 623 658 622
f 661 640 641
f 660 661 641
f 629 425 403
f 616 629 403
f 662 669 318
f 311 662 318
f 312 663 662
f 311 312 662
f 664 663 312
f 313 664 312
f 314 665 664
f 313 314 664
f 315 666 665
f 314 315 665
f 316 667 666
f 315 316 666
f 317 668 667
f 316 317 667
f 669 668 317
f 318 669 317
f 698 699 382
f 385 698 382
f 675 686 434
f 646 675 434
f 681 684 428
f 503 681 428
f 686 679 499
f 434 686 499
f 681 503 480
f 682 681 480
f 678 672 440
f 437 678 440
f 682 677 337
f 349 682 337
f 680 674 451
f 448 680 451
f 671 675 646
f 647 671 646
f 679 678 437
f 499 679 437
f 673 683 457
f 454 673 457
f 676 683 376
f 379 676 376
f 293 685 677
f 483 293 677
f 671 647 430
f 670 671 430
f 680 448 440
f 672 680 440
f 684 670 430
f 428 684 430
f 673 454 451
f 674 673 451
f 687 691 392
f 398 687 392
f 692 687 398
f 402 692 398
f 690 418 417
f 688 690 417
f 692 402 422
f 688 692 422
f 689 685 293
f 391 689 293
f 690 693 419
f 418 690 419
f 691 689 391
f 392 691 391
f 697 631 462
f 698 697 462
f 697 696 630
f 631 697 630
f 696 695 424
f 630 696 424
f 695 423 420
f 694 695 420
f 694 420 419
f 693 694 419
f 699 461 460
f 676 699 460
f 128 182 181
f 129 128 181
