# Level-zero anatomical extract from Blender Human Base Meshes v1.4.1 (CC0)
o human-torso
v 0.0371383 -0.0901390 1.3338313
v 0.0713413 -0.0805321 1.3429955
v 0.0820439 -0.0771586 1.3486986
v 0.0922702 -0.0724074 1.3544422
v 0.1015427 -0.0655493 1.3588415
v 0.1104855 -0.0568081 1.3614107
v 0.1223882 -0.0489685 1.3663625
v 0.1287148 -0.0150289 1.3935608
v 0.1282658 0.0135467 1.4090720
v 0.0908705 0.0675415 1.4016414
v 0.0763838 0.0751778 1.3934962
v 0.0580301 0.0816621 1.3813876
v 0.0356007 0.0782901 1.3796957
v 0.0642473 0.0625402 1.4092798
v 0.0776769 0.0563195 1.4149573
v 0.1123693 0.0107773 1.4157636
v 0.1046908 -0.0385239 1.3775957
v 0.0978819 -0.0481329 1.3731416
v 0.0721833 -0.0683404 1.3619303
v 0.0627440 -0.0718629 1.3572109
v 0.0331941 -0.0797441 1.3470006
v 0.1138827 -0.0127027 1.4021406
v 0.0487884 0.0655480 1.4030819
v 0.0814308 -0.0637034 1.3664812
v 0.0321525 0.0646593 1.3990203
v 0.0411729 0.0500383 1.4182367
v 0.0651055 0.0430931 1.4250191
v 0.0966702 0.0075995 1.4216518
v 0.0993847 -0.0117331 1.4104739
v 0.0898856 -0.0309304 1.3881361
v 0.0841849 -0.0380269 1.3816783
v 0.0703113 -0.0520376 1.3735149
v 0.0627964 -0.0572054 1.3709015
v 0.0548073 -0.0615989 1.3680526
v 0.0297213 -0.0716293 1.3602644
v 0.0537111 0.0476094 1.4218235
v 0.0278729 0.0509161 1.4155471
v 0.0775011 -0.0453262 1.3768253
v 0.0900395 -0.0568333 1.3701267
v 0.0821439 0.0033400 1.4282112
v 0.0489159 -0.0559035 1.3806940
v 0.0859130 -0.0122900 1.4189582
v 0.0545521 0.0307188 1.4342862
v 0.0450082 0.0345234 1.4330255
v 0.0238755 0.0385295 1.4298822
v 0.0687639 -0.0423915 1.3909943
v 0.0267515 -0.0656406 1.3727516
v 0.0561580 -0.0520045 1.3847884
v 0.0346523 0.0371190 1.4313639
v 0.0790492 -0.0295770 1.4013429
v 0.0746256 -0.0359806 1.3957341
v 0.0622827 -0.0477074 1.3877077
v 0.0415631 -0.0992312 1.3183144
v 0.0805667 -0.0908706 1.3280807
v 0.0923909 -0.0871377 1.3338088
v 0.1033084 -0.0816721 1.3397506
v 0.1129309 -0.0745580 1.3453202
v 0.1221119 -0.0666804 1.3498441
v 0.1318206 -0.0617388 1.3544431
v 0.1397026 -0.0555003 1.3652027
v 0.1400351 -0.0614289 1.3576301
v 0.1449639 -0.0206191 1.3877660
v 0.1439622 0.0156078 1.3995564
v 0.1048071 0.0748601 1.3852760
v 0.0907400 0.0835431 1.3764619
v 0.0683002 0.0928185 1.3556280
v 0.0376416 0.0866892 1.3576975
v 0.0127567 -0.0885146 1.3291099
v 0.0249266 -0.0905143 1.3316040
v 0.0227642 -0.0798579 1.3445702
v 0.0115917 -0.0788677 1.3432336
v 0.0108293 -0.0701029 1.3566761
v 0.0206251 -0.0722475 1.3580201
v 0.0186683 -0.0676093 1.3707381
v 0.0099028 -0.0656207 1.3691545
v 0.0134667 -0.0984944 1.3147073
v 0.0274791 -0.1000524 1.3166280
v 0.0943090 -0.0245297 1.3959781
v 0.0995961 -0.0053178 1.4151158
v 0.1249499 -0.0372486 1.3791708
v 0.0826044 -0.0237188 1.4076957
v 0.1414443 -0.0461328 1.3746421
v 0.0855771 -0.0070723 1.4225837
v 0.1087662 -0.0279493 1.3849481
v 0.1147398 -0.0054121 1.4078574
v 0.1300179 -0.0063846 1.4000330
v 0.1458007 -0.0081211 1.3922715
v 0.0177830 0.0730944 1.3769101
v 0.0190594 0.0811899 1.3556019
v 0.1724164 -0.0119115 1.2357856
v 0.1811779 0.0528718 1.2200806
v 0.1796678 0.0349193 1.2158631
v 0.1752954 0.0186230 1.2185376
v 0.1728689 0.0029437 1.2257766
v 0.1755688 -0.0299234 1.2388514
v 0.1877696 -0.0468405 1.2445987
v 0.1794403 0.0734764 1.2369562
v 0.1600174 0.0821524 1.2201891
v 0.1736256 0.0603436 1.2060084
v 0.1779083 0.0369521 1.2051059
v 0.1737502 0.0181172 1.2097319
v 0.1699314 0.0002604 1.2213510
v 0.1681292 -0.0156285 1.2363267
v 0.1701850 -0.0331197 1.2429212
v 0.1796020 -0.0524781 1.2557875
v 0.1672319 0.0977895 1.2650812
v 0.1470033 0.1043903 1.2477349
v 0.1819262 -0.0713103 1.2735612
v 0.1624441 -0.0261778 1.3835663
v 0.1553492 0.0302256 1.3879526
v 0.1038456 0.0861145 1.3573080
v 0.0613174 -0.1067787 1.3039055
v 0.0457623 -0.1080423 1.3016275
v 0.0899760 -0.1018060 1.3121293
v 0.0761668 -0.1048917 1.3075629
v 0.1571337 -0.0539299 1.3701426
v 0.1594217 0.0167614 1.3883405
v 0.1406813 0.0557924 1.3818202
v 0.1180632 0.0777714 1.3668408
v 0.1536819 -0.0625195 1.3603091
v 0.1632891 -0.0107768 1.3874662
v 0.0741027 0.0976593 1.3412346
v 0.0582711 0.0969176 1.3376211
v 0.1302873 0.0674269 1.3753221
v 0.1494677 -0.0674036 1.3510275
v 0.0149373 -0.1060026 1.2979727
v 0.0207522 0.0870151 1.3329214
v 0.0401277 0.0929850 1.3350406
v 0.1248715 -0.0836995 1.3298721
v 0.1145813 -0.0910143 1.3234308
v 0.1028970 -0.0971315 1.3173749
v 0.0302760 -0.1080194 1.2998559
v 0.1341587 -0.0763331 1.3363661
v 0.0888908 0.0937725 1.3485577
v 0.1426426 -0.0710068 1.3432510
v 0.1176309 0.0915304 1.3386530
v 0.1326944 0.0960266 1.3172557
v 0.1487787 0.0990364 1.2929693
v 0.1641189 -0.0253127 1.2166002
v 0.1583969 -0.0401911 1.1997468
v 0.1515829 -0.0586042 1.1903356
v 0.1406598 -0.0801240 1.1851304
v 0.1274025 -0.1013697 1.1822522
v 0.1102307 -0.1198112 1.1812509
v 0.0883155 -0.1310064 1.1825899
v 0.0646530 -0.1351839 1.1855674
v 0.0416614 -0.1334228 1.1883174
v 0.0208959 -0.1264469 1.1892560
v 0.0677504 -0.1169935 1.2864040
v 0.0502270 -0.1176748 1.2844726
v 0.0734697 -0.1270201 1.2675288
v 0.0540016 -0.1275738 1.2664454
v 0.0786715 -0.1356241 1.2482738
v 0.0570881 -0.1362951 1.2481228
v 0.0592666 -0.1420767 1.2305055
v 0.0609287 -0.1439099 1.2139925
v 0.0853753 -0.1425667 1.2128589
v 0.0626785 -0.1414959 1.1987396
v 0.0868565 -0.1387498 1.1965929
v 0.0668281 -0.1265347 1.1737546
v 0.0897081 -0.1203493 1.1704209
v 0.0691835 -0.1251897 1.1554077
v 0.0927743 -0.1153807 1.1517583
v 0.0979186 -0.1141920 1.1316935
v 0.0743127 -0.1290095 1.1362984
v 0.1016545 -0.1108149 1.1093298
v 0.0791016 -0.1283276 1.1132454
v 0.0813253 -0.1218558 1.0854840
v 0.1035907 -0.1043625 1.0837212
v 0.1000314 -0.1111112 1.2933434
v 0.0846444 -0.1149693 1.2893468
v 0.1097143 -0.1192228 1.2727606
v 0.0923366 -0.1243014 1.2695974
v 0.1179011 -0.1255762 1.2519621
v 0.0825945 -0.1412030 1.2300377
v 0.1276170 -0.1285086 1.2155008
v 0.1081819 -0.1376618 1.2142341
v 0.1289250 -0.1189599 1.1970493
v 0.1096668 -0.1315639 1.1966960
v 0.1102135 -0.1058826 1.1679001
v 0.1276830 -0.0865845 1.1657798
v 0.1144922 -0.1005496 1.1483501
v 0.1327809 -0.0810036 1.1462101
v 0.1345787 -0.0750022 1.1257442
v 0.1193472 -0.0967535 1.1281276
v 0.1360944 -0.0706224 1.1032271
v 0.1215202 -0.0915971 1.1059872
v 0.1222703 -0.0859396 1.0813403
v 0.1347814 -0.0661850 1.0784829
v 0.1146954 0.0744355 1.1359715
v 0.1075935 0.0701340 1.1123974
v 0.0858040 0.0842969 1.1378340
v 0.0805445 0.0802552 1.1134006
v 0.1419734 0.0577570 1.1347735
v 0.1331439 0.0538213 1.1130100
v 0.1594281 0.0318340 1.1384907
v 0.1516801 0.0289873 1.1183366
v 0.1641317 0.0011365 1.1489505
v 0.1585533 -0.0018613 1.1294141
v 0.1540389 -0.0319990 1.1408856
v 0.1563999 -0.0346732 1.1660126
v 0.1235234 -0.1288230 1.2332314
v 0.1522878 -0.0296784 1.1176220
v 0.1530099 -0.0016574 1.1072570
v 0.1258923 0.0508209 1.0914420
v 0.1014456 0.0657567 1.0904497
v 0.1185680 0.0473324 1.0703866
v 0.0952405 0.0612460 1.0694067
v 0.0901313 0.0581678 1.0477792
v 0.1129162 0.0463581 1.0487404
v 0.1461769 -0.0253217 1.0674434
v 0.1437595 0.0001699 1.0590706
v 0.1318638 0.0260849 1.0521544
v 0.0664408 0.0642982 1.0475227
v 0.0832340 0.1043810 1.3209188
v 0.0639587 0.1041865 1.3151430
v 0.0938919 0.1081301 1.2962810
v 0.1053870 0.1109940 1.2676216
v 0.0711882 0.1081278 1.2892655
v 0.0783882 0.1076886 1.2604488
v 0.1495112 -0.0275784 1.0930556
v 0.1473774 -0.0012220 1.0836210
v 0.1188359 0.1053063 1.2352328
v 0.0869382 0.1055919 1.2286201
v 0.1328283 0.0896227 1.1977280
v 0.0920298 0.0991918 1.1961894
v 0.0753068 0.0743942 1.0914307
v 0.0704990 0.0686484 1.0699552
v 0.1441995 0.0275140 1.0968432
v 0.1378422 0.0260473 1.0746450
v 0.0277419 -0.1384549 1.0872686
v 0.0269795 -0.1420641 1.1181035
v 0.0247974 -0.1392996 1.1409413
v 0.0227145 -0.1343854 1.1593660
v 0.0215216 -0.1282704 1.1744982
v 0.0190799 -0.1307508 1.2025684
v 0.0185196 -0.1331951 1.2168388
v 0.0180037 -0.1331223 1.2319344
v 0.0178053 -0.1292048 1.2480102
v 0.0172543 -0.1223292 1.2644801
v 0.0164175 -0.1136352 1.2809569
v 0.0223773 0.0915662 1.3082488
v 0.0437655 0.0988644 1.3109558
v 0.0239865 0.0941554 1.2815282
v 0.0479718 0.1019832 1.2846051
v 0.0270517 0.0951760 1.2533571
v 0.0530568 0.1001907 1.2562386
v 0.0291052 0.0931537 1.2244353
v 0.0572238 0.0996785 1.2258688
v 0.0296706 0.0891228 1.1959667
v 0.0593093 0.0965460 1.1957102
v 0.0285549 0.0798127 1.1425903
v 0.0565512 0.0870225 1.1399347
v 0.0271943 0.0754946 1.1184779
v 0.0535176 0.0820170 1.1157097
v 0.0253702 0.0709937 1.0954444
v 0.0501784 0.0759883 1.0932049
v 0.0233370 0.0661189 1.0725540
v 0.0467045 0.0708439 1.0709341
v 0.0217138 0.0633527 1.0479838
v 0.0436840 0.0663727 1.0475647
v 0.0548915 -0.1334144 1.0867403
v 0.0531703 -0.1390619 1.1162776
v 0.0494448 -0.1376990 1.1393672
v 0.0456194 -0.1313704 1.1575202
v 0.0434610 -0.1280367 1.1744143
v 0.1367379 -0.0902291 1.3124117
v 0.1484620 -0.0936200 1.2927843
v 0.1586029 -0.0929632 1.2721291
v 0.1641103 -0.0875471 1.2524583
v 0.1642345 -0.0767140 1.2348228
v 0.1585355 -0.0601341 1.2182715
v 0.1634134 -0.0172507 1.1813397
v 0.1686202 0.0088207 1.1666349
v 0.1655734 0.0361540 1.1585319
v 0.1509025 0.0627399 1.1578215
v 0.1230861 0.0822324 1.1621922
v 0.0905409 0.0902999 1.1652428
v 0.0590209 0.0915781 1.1666280
v 0.0297122 0.0849656 1.1682861
v 0.1261024 -0.0980072 1.3049488
v 0.1379592 -0.1027558 1.2842474
v 0.1482345 -0.1045580 1.2626061
v 0.1541008 -0.1018469 1.2426327
v 0.1560686 -0.0933401 1.2241858
v 0.1529408 -0.0780816 1.2078037
v 0.1427942 -0.0464619 1.0741237
v 0.1452448 -0.0493443 1.0994525
v 0.1460970 -0.0530321 1.1231290
v 0.1442936 -0.0574380 1.1453227
v 0.1437376 -0.0659225 1.1657698
v 0.1433914 -0.0990269 1.2000954
v 0.1437055 -0.1120611 1.2176833
v 0.1404321 -0.1165750 1.2362639
v 0.1345059 -0.1160683 1.2561291
v 0.1250380 -0.1117877 1.2776512
v 0.1138869 -0.1052998 1.2985957
v 0.0329545 -0.1168127 1.2828894
v 0.0349668 -0.1261828 1.2657933
v 0.0362565 -0.1342030 1.2484994
v 0.0371403 -0.1392481 1.2315605
v 0.0381164 -0.1409474 1.2158366
v 0.0396955 -0.1388265 1.2014492
v 0.1461157 -0.0829545 1.3205640
v 0.1578461 -0.0858835 1.3022211
v 0.1678598 -0.0839925 1.2824601
v 0.1723104 -0.0755063 1.2636212
v 0.1698922 -0.0618658 1.2460864
v 0.1640806 -0.0436514 1.2316587
v 0.1680287 -0.0061929 1.1996884
v 0.1724162 0.0157614 1.1862283
v 0.1722740 0.0392837 1.1815802
v 0.1610386 0.0652745 1.1824762
v 0.1043700 -0.1367990 1.2314245
v 0.0992231 -0.1320873 1.2496065
v 0.1010085 0.0993900 1.3290049
v 0.1143969 0.1030598 1.3059144
v 0.1296947 0.1079225 1.2792898
v 0.1765753 -0.0784167 1.2935065
v 0.1664504 -0.0797224 1.3124560
v 0.1544465 -0.0771978 1.3293476
v 0.1491705 0.0434065 1.3859040
v 0.0603342 -0.0836014 1.3385794
v 0.0490047 -0.0872326 1.3357611
v 0.0412602 -0.0587628 1.3774948
v 0.0339692 -0.0620814 1.3748403
v 0.0383028 -0.0689424 1.3624374
v 0.0465727 -0.0655252 1.3650780
v 0.0433703 -0.0777150 1.3497062
v 0.0531676 -0.0749537 1.3530070
v 0.0551872 -0.0968540 1.3201536
v 0.0681287 -0.0938667 1.3233205
v 0.1170578 0.0645173 1.3925629
v 0.1271640 0.0528336 1.3978869
v 0.1349099 0.0402988 1.4003212
v 0.1404522 0.0277935 1.4006884
v 0.1090196 0.0196428 1.4181679
v 0.1041285 0.0289862 1.4194947
v 0.0975068 0.0386945 1.4197459
v 0.0889389 0.0481474 1.4185029
v 0.1029922 0.0580288 1.4073778
v 0.1123456 0.0470195 1.4106609
v 0.1193983 0.0356299 1.4115933
v 0.1246877 0.0245105 1.4110377
v 0.0629502 0.0259292 1.4347161
v 0.0699133 0.0204052 1.4341824
v 0.0752861 0.0145799 1.4327164
v 0.0792633 0.0088100 1.4307028
v 0.0935305 0.0146008 1.4241495
v 0.0890862 0.0220527 1.4260684
v 0.0829398 0.0296608 1.4270856
v 0.0749597 0.0369046 1.4268367
v 0.1116281 -0.0200674 1.3944172
v 0.0842851 -0.0018781 1.4255898
v 0.1142446 0.0023389 1.4122040
v 0.1269598 -0.0250462 1.3863921
v 0.0986774 0.0009758 1.4187484
v 0.1300032 0.0029875 1.4053249
v 0.1434526 -0.0340265 1.3826087
v 0.1456565 0.0035955 1.3966279
v 0.0850148 -0.0179976 1.4139390
v 0.0975516 -0.0182596 1.4039783
v 0.1620653 0.0032873 1.3882356
v 0.1603197 -0.0412277 1.3781478
v 0.0763988 0.0895122 1.3658171
v 0.0556993 0.0904103 1.3581338
v -0.0372027 -0.0900427 1.3337543
v -0.0714281 -0.0805658 1.3430157
v -0.0821032 -0.0770802 1.3486022
v -0.0922108 -0.0722855 1.3542355
v -0.1014636 -0.0654521 1.3587407
v -0.1105273 -0.0568807 1.3616319
v -0.1222643 -0.0488073 1.3663088
v -0.1288701 -0.0154247 1.3935740
v -0.1282676 0.0135153 1.4089139
v -0.0907973 0.0671840 1.4013879
v -0.0762428 0.0752734 1.3933796
v -0.0580944 0.0816929 1.3812138
v -0.0355835 0.0779750 1.3796819
v -0.0641787 0.0622690 1.4091406
v -0.0776272 0.0559509 1.4146775
v -0.1123307 0.0107661 1.4158144
v -0.1045401 -0.0384195 1.3777119
v -0.0977120 -0.0482637 1.3732910
v -0.0722027 -0.0682719 1.3619130
v -0.0628448 -0.0719112 1.3572079
v -0.0331628 -0.0798094 1.3470507
v -0.1139864 -0.0128563 1.4021437
v -0.0486091 0.0655978 1.4030169
v -0.0813294 -0.0636896 1.3666052
v -0.0320189 0.0647928 1.3990241
v -0.0411798 0.0499939 1.4181435
v -0.0652655 0.0429216 1.4249728
v -0.0967307 0.0076012 1.4218669
v -0.0994512 -0.0118136 1.4105542
v -0.0900800 -0.0313001 1.3884282
v -0.0843507 -0.0383412 1.3819377
v -0.0703109 -0.0522012 1.3740009
v -0.0629948 -0.0573600 1.3711643
v -0.0549500 -0.0616060 1.3680334
v -0.0296766 -0.0713175 1.3601400
v -0.0538264 0.0474799 1.4217372
v -0.0279515 0.0508839 1.4154799
v -0.0774889 -0.0455513 1.3771983
v -0.0898724 -0.0569383 1.3703096
v -0.0822750 0.0032161 1.4283276
v -0.0489985 -0.0557577 1.3809006
v -0.0859052 -0.0122932 1.4190310
v -0.0546312 0.0307447 1.4343215
v -0.0450361 0.0344485 1.4329520
v -0.0238782 0.0386723 1.4299418
v -0.0686544 -0.0422248 1.3910793
v -0.0267553 -0.0658072 1.3728440
v -0.0557800 -0.0520064 1.3850394
v -0.0346823 0.0370292 1.4312534
v -0.0787781 -0.0292942 1.4012408
v -0.0742833 -0.0357571 1.3956442
v -0.0624015 -0.0476035 1.3877602
v -0.0000858 -0.0967441 1.3134325
v -0.0414648 -0.0991930 1.3182412
v -0.0805319 -0.0908759 1.3280697
v -0.0923161 -0.0870627 1.3337065
v -0.1032671 -0.0816484 1.3395867
v -0.1129119 -0.0745598 1.3452245
v -0.1220395 -0.0665998 1.3498201
v -0.1317662 -0.0614764 1.3544103
v -0.1396090 -0.0553636 1.3653001
v -0.1399346 -0.0612999 1.3578002
v -0.1448468 -0.0203219 1.3875188
v -0.1439796 0.0157502 1.3996098
v -0.1047325 0.0749142 1.3854427
v -0.0905728 0.0839002 1.3766663
v -0.0685820 0.0930270 1.3556675
v -0.0377972 0.0865350 1.3576069
v -0.0125976 -0.0885615 1.3292367
v -0.0249782 -0.0903264 1.3314737
v -0.0227221 -0.0798156 1.3445615
v -0.0117339 -0.0786269 1.3431071
v -0.0109299 -0.0697284 1.3565137
v -0.0206186 -0.0719713 1.3580348
v -0.0187835 -0.0673145 1.3707755
v -0.0099698 -0.0654257 1.3688643
v -0.0135104 -0.0984610 1.3146608
v -0.0274667 -0.0998980 1.3165665
v -0.0944903 -0.0246930 1.3961470
v -0.0996828 -0.0054489 1.4152850
v -0.1250426 -0.0364929 1.3782389
v -0.0824410 -0.0235875 1.4077302
v -0.1413660 -0.0461459 1.3750105
v -0.0856330 -0.0070877 1.4227934
v -0.1087362 -0.0283095 1.3851154
v -0.1147251 -0.0054191 1.4078838
v -0.1301483 -0.0064372 1.4001057
v -0.1457585 -0.0080977 1.3922347
v 0.0000608 -0.0871269 1.3280573
v -0.0176566 0.0729848 1.3768477
v -0.0000697 -0.0632929 1.3682661
v -0.0001101 -0.0669427 1.3561814
v -0.0000904 -0.0771514 1.3425735
v 0.0001417 0.0410960 1.4298407
v -0.0000699 0.0527314 1.4144138
v -0.0001679 0.0616022 1.3954481
v -0.0191621 0.0808613 1.3555633
v -0.0001270 0.0867281 1.2803847
v 0.0000673 0.0867629 1.2529240
v -0.0000179 0.0825467 1.2249858
v 0.0000856 0.0781599 1.1970905
v 0.0000471 0.0692391 1.1449983
v 0.0000456 0.0652659 1.1207541
v -0.0000873 0.0617599 1.0973805
v -0.0002044 0.0586268 1.0737550
v -0.0001199 0.0571935 1.0483348
v 0.0003915 0.0736311 1.1702378
v -0.1732055 -0.0117518 1.2344819
v -0.1809910 0.0540809 1.2189208
v -0.1796484 0.0351595 1.2156935
v -0.1771054 0.0186786 1.2182856
v -0.1739150 0.0032215 1.2251444
v -0.1760161 -0.0304120 1.2382615
v -0.1881221 -0.0467591 1.2445842
v -0.1794171 0.0743129 1.2367185
v -0.1607496 0.0828586 1.2200934
v -0.1737525 0.0601162 1.2061325
v -0.1779154 0.0364680 1.2050955
v -0.1738568 0.0177106 1.2105256
v -0.1708203 0.0002597 1.2221409
v -0.1681629 -0.0150336 1.2359349
v -0.1692567 -0.0327110 1.2428181
v -0.1796486 -0.0524203 1.2554770
v -0.1672508 0.0976572 1.2648594
v -0.1467519 0.1041983 1.2479013
v -0.1820321 -0.0710208 1.2733756
v -0.1625114 -0.0260058 1.3837926
v -0.1553502 0.0303689 1.3881807
v -0.1038842 0.0869898 1.3578432
v -0.0612776 -0.1068030 1.3039418
v -0.0457575 -0.1080221 1.3016195
v -0.0899230 -0.1016898 1.3120060
v -0.0761171 -0.1047537 1.3075006
v -0.1571521 -0.0539356 1.3702382
v -0.1593942 0.0167914 1.3883159
v -0.1408706 0.0561804 1.3819973
v -0.1181478 0.0783654 1.3672824
v -0.1537359 -0.0624541 1.3602757
v -0.1632765 -0.0107788 1.3873413
v -0.0742861 0.0976438 1.3412441
v -0.0583596 0.0967655 1.3376157
v -0.1305303 0.0680658 1.3757424
v -0.1494404 -0.0675316 1.3510380
v 0.0000727 0.0818170 1.3317893
v -0.0150216 -0.1059150 1.2979389
v -0.0207068 0.0868605 1.3330002
v -0.0402528 0.0929707 1.3350383
v -0.1249815 -0.0837443 1.3297615
v -0.1146032 -0.0910004 1.3233287
v -0.1028539 -0.0970436 1.3172863
v -0.0302854 -0.1078621 1.2997953
v -0.1341542 -0.0763689 1.3363190
v -0.0888616 0.0942358 1.3487399
v -0.1426566 -0.0709856 1.3432080
v -0.1175793 0.0916699 1.3386514
v -0.1327246 0.0959661 1.3170776
v -0.1489036 0.0989793 1.2927887
v -0.1639886 -0.0252707 1.2166049
v -0.1582677 -0.0401526 1.1998693
v -0.1515196 -0.0586500 1.1903703
v -0.1406702 -0.0803262 1.1850251
v -0.1269847 -0.1013009 1.1826167
v -0.1099127 -0.1192061 1.1818002
v -0.0882472 -0.1303394 1.1829643
v -0.0647247 -0.1344254 1.1857131
v -0.0421365 -0.1319808 1.1886024
v -0.0205830 -0.1267863 1.1890689
v -0.0676055 -0.1169885 1.2863250
v -0.0501358 -0.1176823 1.2844160
v -0.0733653 -0.1270969 1.2676036
v -0.0539339 -0.1276834 1.2665143
v -0.0786030 -0.1358240 1.2484527
v -0.0570060 -0.1365470 1.2482290
v -0.0592531 -0.1426258 1.2304130
v -0.0610691 -0.1444340 1.2137283
v -0.0856825 -0.1431424 1.2131761
v -0.0628586 -0.1415004 1.1984853
v -0.0873147 -0.1390783 1.1967463
v -0.0668525 -0.1266996 1.1730440
v -0.0895583 -0.1197464 1.1705328
v -0.0695563 -0.1257223 1.1550343
v -0.0928647 -0.1153779 1.1516020
v -0.0978219 -0.1139935 1.1315897
v -0.0744101 -0.1285603 1.1358730
v -0.1017952 -0.1108383 1.1092703
v -0.0793151 -0.1279490 1.1129465
v -0.0817986 -0.1219615 1.0852375
v -0.1037447 -0.1046594 1.0837249
v -0.0999978 -0.1109992 1.2932441
v -0.0845532 -0.1149182 1.2891722
v -0.1096330 -0.1192255 1.2727761
v -0.0922796 -0.1242930 1.2695572
v -0.1178443 -0.1257959 1.2521247
v -0.0826491 -0.1416179 1.2300522
v -0.1282030 -0.1272316 1.2164630
v -0.1085314 -0.1376271 1.2154201
v -0.1291573 -0.1180944 1.1973904
v -0.1100877 -0.1317569 1.1971592
v -0.1097742 -0.1058559 1.1678611
v -0.1272420 -0.0869715 1.1659775
v -0.1145927 -0.1005814 1.1482441
v -0.1323532 -0.0809145 1.1458846
v -0.1345022 -0.0753791 1.1254469
v -0.1190018 -0.0966054 1.1279490
v -0.1361551 -0.0709397 1.1031424
v -0.1212792 -0.0917471 1.1060758
v -0.1229803 -0.0868213 1.0814724
v -0.1351736 -0.0663742 1.0785611
v -0.1148316 0.0743106 1.1359873
v -0.1074980 0.0700641 1.1124829
v -0.0860190 0.0846813 1.1376789
v -0.0805350 0.0802635 1.1134242
v -0.1419268 0.0576994 1.1348124
v -0.1331806 0.0539359 1.1130021
v -0.1597052 0.0318504 1.1384994
v -0.1520435 0.0287287 1.1183712
v -0.1641560 0.0014341 1.1488175
v -0.1583032 -0.0014658 1.1290579
v -0.1537366 -0.0315593 1.1399163
v -0.1568534 -0.0347887 1.1654643
v -0.1238991 -0.1287279 1.2338243
v -0.1523873 -0.0294582 1.1169248
v -0.1528229 -0.0014737 1.1070312
v -0.1260150 0.0507671 1.0915182
v -0.1011176 0.0656793 1.0905675
v -0.1184449 0.0473832 1.0705094
v -0.0950309 0.0612244 1.0694773
v -0.0900457 0.0579738 1.0478159
v -0.1128236 0.0461204 1.0489199
v -0.1464306 -0.0250994 1.0673938
v -0.1437152 0.0002540 1.0591674
v -0.1318709 0.0260984 1.0523065
v -0.0664376 0.0641367 1.0475845
v -0.0833153 0.1043944 1.3208023
v -0.0639844 0.1038231 1.3149450
v -0.0937911 0.1083445 1.2962744
v -0.1052908 0.1104835 1.2675810
v -0.0710597 0.1078164 1.2891921
v -0.0784152 0.1077172 1.2603900
v -0.1496419 -0.0272128 1.0928111
v -0.1473708 -0.0010218 1.0835704
v -0.1188769 0.1055777 1.2354099
v -0.0870334 0.1053299 1.2286496
v -0.1330080 0.0898755 1.1978884
v -0.0924163 0.0988388 1.1961743
v -0.0754665 0.0744768 1.0913272
v -0.0705857 0.0687703 1.0698540
v -0.1445537 0.0271766 1.0970019
v -0.1377254 0.0258992 1.0748004
v 0.0001211 0.0844984 1.3070377
v -0.0271095 -0.1386261 1.0866575
v -0.0265049 -0.1418708 1.1178665
v -0.0245516 -0.1386248 1.1408314
v -0.0227827 -0.1345807 1.1595215
v -0.0214086 -0.1291205 1.1746968
v -0.0198981 -0.1290950 1.2029567
v -0.0187456 -0.1322868 1.2168031
v -0.0181114 -0.1327467 1.2318035
v -0.0178462 -0.1291070 1.2479050
v -0.0172436 -0.1222843 1.2644491
v -0.0163823 -0.1137109 1.2810140
v -0.0224106 0.0910105 1.3082521
v -0.0438906 0.0985399 1.3107847
v -0.0242338 0.0940103 1.2815994
v -0.0481058 0.1015687 1.2844386
v -0.0267923 0.0951560 1.2534566
v -0.0532589 0.1004053 1.2560647
v -0.0288289 0.0934468 1.2244555
v -0.0573700 0.0995994 1.2259542
v -0.0298212 0.0892881 1.1959555
v -0.0598875 0.0965322 1.1957393
v -0.0285747 0.0795963 1.1426822
v -0.0565460 0.0867775 1.1400164
v -0.0270809 0.0752817 1.1184969
v -0.0534388 0.0819295 1.1156205
v -0.0251355 0.0710699 1.0954311
v -0.0501777 0.0760611 1.0931102
v -0.0233191 0.0664560 1.0724676
v -0.0467167 0.0709611 1.0709493
v -0.0217431 0.0634591 1.0479686
v -0.0438467 0.0661647 1.0476971
v -0.0547556 -0.1336405 1.0864280
v -0.0530403 -0.1390591 1.1160856
v -0.0490947 -0.1371497 1.1391224
v -0.0456639 -0.1322084 1.1575513
v -0.0434488 -0.1297539 1.1738560
v -0.1367719 -0.0902561 1.3123622
v -0.1484116 -0.0936557 1.2927737
v -0.1586482 -0.0931578 1.2720425
v -0.1641169 -0.0878118 1.2524703
v -0.1642354 -0.0771545 1.2350072
v -0.1584809 -0.0603759 1.2185924
v -0.1637589 -0.0174294 1.1811987
v -0.1687454 0.0086736 1.1664323
v -0.1657733 0.0362846 1.1583997
v -0.1508621 0.0626915 1.1578529
v -0.1226779 0.0817182 1.1624233
v -0.0904396 0.0902949 1.1652105
v -0.0589675 0.0918063 1.1666479
v -0.0293176 0.0845044 1.1683989
v -0.1261215 -0.0979460 1.3049476
v -0.1379706 -0.1028165 1.2842127
v -0.1484224 -0.1046026 1.2624935
v -0.1542649 -0.1019427 1.2427216
v -0.1561069 -0.0933176 1.2243713
v -0.1525158 -0.0777434 1.2079864
v -0.1427840 -0.0464549 1.0741426
v -0.1454174 -0.0495856 1.0992650
v -0.1461070 -0.0534973 1.1227105
v -0.1447187 -0.0580036 1.1446210
v -0.1430287 -0.0658743 1.1655625
v -0.1429036 -0.0980197 1.2004747
v -0.1439514 -0.1113575 1.2177701
v -0.1406580 -0.1167727 1.2364900
v -0.1345082 -0.1163628 1.2561116
v -0.1250427 -0.1118922 1.2776169
v -0.1138971 -0.1052067 1.2985723
v -0.0329528 -0.1168197 1.2828712
v -0.0349594 -0.1262562 1.2657784
v -0.0362705 -0.1343076 1.2484436
v -0.0371458 -0.1395240 1.2315342
v -0.0381065 -0.1411584 1.2157583
v -0.0397000 -0.1388029 1.2011411
v -0.1461582 -0.0830004 1.3204616
v -0.1578121 -0.0858481 1.3022302
v -0.1676681 -0.0839765 1.2826146
v -0.1723383 -0.0759527 1.2634904
v -0.1702399 -0.0622490 1.2456833
v -0.1636377 -0.0440723 1.2311028
v -0.1683857 -0.0063484 1.2003981
v -0.1725925 0.0152946 1.1863248
v -0.1726478 0.0389741 1.1812007
v -0.1611163 0.0648536 1.1825597
v -0.1042649 -0.1370347 1.2319043
v -0.0991469 -0.1322626 1.2498008
v -0.1011779 0.0996503 1.3289433
v -0.1145192 0.1031435 1.3056014
v -0.1296328 0.1074637 1.2790966
v -0.1765380 -0.0783771 1.2934380
v -0.1664183 -0.0797370 1.3124760
v -0.1545019 -0.0771827 1.3292546
v 0.0000062 -0.1185700 1.2630072
v 0.0001541 -0.1404017 1.1179976
v 0.0000010 -0.1337654 1.1597211
v 0.0000053 -0.1267861 1.2307842
v -0.0000497 -0.1041575 1.2968552
v 0.0000263 -0.1243753 1.2466799
v 0.0002753 -0.1379381 1.0861853
v 0.0001035 -0.1373644 1.1410522
v -0.0000033 -0.1109861 1.2797058
v 0.0000145 -0.1278811 1.1747779
v 0.0000293 -0.1241078 1.1891024
v 0.0000308 -0.1250776 1.2163421
v 0.0001607 -0.1237500 1.2030127
v -0.1491842 0.0436865 1.3861207
v -0.0603939 -0.0838595 1.3386835
v -0.0490363 -0.0874041 1.3358686
v -0.0413422 -0.0588936 1.3775134
v -0.0339951 -0.0623600 1.3749053
v -0.0382662 -0.0686402 1.3622303
v -0.0466191 -0.0653704 1.3649188
v -0.0433657 -0.0778972 1.3498145
v -0.0532440 -0.0751162 1.3530910
v -0.0551478 -0.0967296 1.3201088
v -0.0681577 -0.0938671 1.3234241
v -0.1169104 0.0643330 1.3926151
v -0.1270871 0.0526859 1.3976567
v -0.1348000 0.0403583 1.4001095
v -0.1403884 0.0279229 1.4007072
v -0.1089605 0.0196393 1.4180988
v -0.1039905 0.0289970 1.4194217
v -0.0973220 0.0386441 1.4196398
v -0.0887018 0.0479292 1.4182397
v -0.1027783 0.0576971 1.4070674
v -0.1122428 0.0468343 1.4103460
v -0.1193850 0.0354975 1.4113524
v -0.1246879 0.0243751 1.4108678
v -0.0630857 0.0259095 1.4348141
v -0.0700966 0.0203658 1.4343361
v -0.0754389 0.0146914 1.4329174
v -0.0793651 0.0088649 1.4308447
v -0.0936131 0.0145237 1.4243721
v -0.0891662 0.0219179 1.4262310
v -0.0830418 0.0295246 1.4271839
v -0.0751012 0.0367393 1.4268777
v -0.1117954 -0.0205064 1.3943644
v -0.0844069 -0.0020356 1.4257082
v -0.1141937 0.0023087 1.4123082
v -0.1269112 -0.0249380 1.3858486
v -0.0987476 0.0009108 1.4189271
v -0.1300812 0.0030565 1.4053075
v -0.1433677 -0.0337191 1.3824983
v -0.1457013 0.0036430 1.3966049
v -0.0849203 -0.0179372 1.4139978
v -0.0977226 -0.0183648 1.4041119
v -0.1620153 0.0032810 1.3880087
v -0.1602678 -0.0412634 1.3783919
v -0.0764745 0.0896181 1.3658301
v -0.0000591 0.0767063 1.3540528
v -0.0558426 0.0903862 1.3580301
v 0.0001039 0.0698101 1.3751932
v 0.0158629 0.0626935 1.3965435
v 0.0128138 0.0398672 1.4295397
v 0.0142916 0.0518324 1.4143447
v -0.0159441 0.0627404 1.3965385
v -0.0126848 0.0402466 1.4297161
v -0.0144291 0.0518272 1.4145136
usemtl blender_human_cc0
f 455 419 76
f 455 459 435
f 459 458 438
f 439 458 442
f 441 440 439
f 441 413 401
f 726 728 401
f 727 726 725
f 727 724 400
f 724 407 400
f 407 414 399
f 414 418 398
f 418 412 398
f 412 417 404
f 397 417 396
f 384 397 383
f 372 371 384
f 372 373 425
f 451 447 373
f 752 451 445
f 755 752 374
f 755 758 449
f 429 493 758
f 454 505 429
f 759 762 454
f 430 759 375
f 501 430 494
f 721 494 734
f 502 721 733
f 732 508 502
f 741 740 732
f 738 741 737
f 750 751 738
f 750 745 744
f 749 746 745
f 748 749 736
f 747 748 394
f 756 394 382
f 753 756 446
f 450 753 446
f 452 446 754
f 757 453 452
f 754 757 452
f 395 408 446
f 761 395 388
f 395 761 760
f 408 395 760
f 408 450 446
f 395 446 388
f 446 452 388
f 446 756 754
f 754 756 382
f 406 747 394
f 756 753 394
f 753 406 394
f 394 748 382
f 736 743 382
f 735 743 742
f 748 736 382
f 747 746 748
f 746 749 748
f 750 749 745
f 739 751 381
f 381 376 739
f 377 376 380
f 389 378 377
f 392 403 389
f 402 410 392
f 409 410 393
f 410 402 393
f 410 415 392
f 391 403 771
f 391 771 379
f 456 463 379
f 767 456 462
f 765 767 89
f 510 765 127
f 616 628 510
f 464 616 244
f 465 632 464
f 466 634 465
f 467 636 466
f 473 666 467
f 468 473 252
f 468 469 638
f 470 642 469
f 471 644 470
f 472 646 471
f 260 472 258
f 259 261 260
f 228 259 227
f 214 228 209
f 208 207 209
f 208 206 205
f 195 205 191
f 197 195 194
f 199 197 196
f 198 201 199
f 274 273 198
f 274 275 311
f 276 313 275
f 277 276 190
f 277 278 225
f 278 279 226
f 253 279 192
f 193 255 192
f 254 255 256
f 255 257 256
f 255 253 192
f 251 279 250
f 249 251 248
f 224 249 220
f 223 224 218
f 223 218 107
f 98 107 97
f 99 98 91
f 100 312 99
f 92 93 100
f 94 102 93
f 102 310 101
f 103 139 102
f 104 309 103
f 105 104 95
f 108 307 105
f 108 319 306
f 319 320 305
f 320 321 304
f 321 135 133
f 135 59 58
f 125 61 59
f 60 61 120
f 82 60 116
f 364 359 82
f 364 109 62
f 109 121 87
f 121 363 360
f 363 117 63
f 117 110 63
f 336 110 322
f 344 336 335
f 344 343 337
f 342 343 334
f 342 339 338
f 340 352 339
f 15 340 10
f 14 15 11
f 36 27 14
f 36 44 43
f 49 44 26
f 37 26 23
f 770 769 37
f 461 770 768
f 461 773 460
f 773 772 460
f 88 768 13
f 13 25 12
f 365 66 12
f 134 365 65
f 134 316 122
f 215 316 217
f 317 318 217
f 137 317 136
f 318 138 106
f 138 318 137
f 318 317 137
f 215 217 216
f 219 245 216
f 243 245 242
f 243 128 123
f 366 123 67
f 123 128 67
f 245 243 216
f 216 243 123
f 217 219 216
f 316 317 217
f 317 316 136
f 136 316 111
f 64 119 111
f 333 124 64
f 124 333 118
f 124 119 64
f 316 215 122
f 215 216 122
f 216 123 122
f 316 134 111
f 111 134 65
f 65 64 111
f 122 123 66
f 123 366 66
f 365 134 66
f 134 122 66
f 66 366 12
f 366 67 12
f 13 67 88
f 67 13 12
f 768 25 13
f 770 461 460
f 768 770 25
f 769 770 460
f 769 45 37
f 770 37 25
f 25 37 23
f 25 23 12
f 37 45 26
f 45 49 26
f 44 36 26
f 43 345 27
f 346 351 345
f 350 351 347
f 348 349 347
f 28 349 40
f 28 357 16
f 357 354 79
f 354 83 79
f 85 355 79
f 86 358 85
f 86 85 8
f 356 8 22
f 356 353 80
f 84 353 78
f 81 78 361
f 81 50 30
f 50 51 30
f 51 46 31
f 38 46 32
f 39 38 24
f 5 39 4
f 6 18 5
f 7 17 6
f 17 18 6
f 56 57 4
f 56 55 130
f 131 55 54
f 114 170 131
f 332 115 114
f 331 332 323
f 331 53 112
f 77 132 53
f 77 69 68
f 1 21 69
f 324 329 1
f 327 329 328
f 327 326 35
f 326 47 35
f 47 74 35
f 74 75 73
f 75 457 72
f 75 72 73
f 70 73 71
f 73 72 71
f 74 73 35
f 327 328 326
f 328 325 326
f 325 328 41
f 48 41 33
f 33 34 19
f 3 19 2
f 20 330 2
f 19 20 2
f 34 20 19
f 41 34 33
f 328 34 41
f 34 328 20
f 328 330 20
f 329 330 328
f 329 21 1
f 35 21 327
f 21 329 327
f 35 73 21
f 73 70 21
f 21 70 69
f 69 70 68
f 70 71 68
f 69 77 1
f 126 241 132
f 712 716 126
f 511 712 443
f 511 517 627
f 497 517 420
f 535 684 497
f 537 685 535
f 539 686 537
f 539 538 540
f 560 538 700
f 560 542 541
f 562 564 542
f 561 563 562
f 561 587 679
f 587 559 680
f 681 559 557
f 681 669 670
f 655 669 654
f 692 693 655
f 692 705 492
f 691 706 692
f 690 707 691
f 518 690 653
f 518 514 424
f 514 515 423
f 515 516 422
f 516 498 421
f 555 556 498
f 683 682 555
f 668 682 667
f 682 683 667
f 556 558 534
f 558 536 534
f 496 499 534
f 496 730 499
f 731 730 722
f 368 722 386
f 385 369 368
f 385 390 370
f 369 385 370
f 386 385 368
f 722 729 386
f 731 722 368
f 730 723 722
f 723 730 367
f 367 436 387
f 436 437 387
f 730 731 499
f 499 556 534
f 556 499 498
f 683 555 498
f 498 499 421
f 499 731 421
f 421 731 368
f 667 683 516
f 516 683 498
f 422 516 421
f 369 422 368
f 422 421 368
f 515 667 516
f 423 515 422
f 370 423 369
f 423 422 369
f 667 515 514
f 424 514 423
f 424 423 370
f 426 520 518
f 428 509 426
f 504 509 427
f 509 428 427
f 509 520 426
f 514 518 653
f 668 667 653
f 653 667 514
f 520 707 518
f 707 690 518
f 690 691 653
f 707 706 691
f 706 705 692
f 693 694 656
f 694 695 657
f 524 695 487
f 525 658 524
f 526 672 525
f 586 677 526
f 585 586 584
f 588 675 585
f 589 607 588
f 614 615 589
f 590 614 582
f 591 590 576
f 612 613 591
f 643 612 578
f 577 578 575
f 664 665 577
f 611 664 610
f 609 611 608
f 605 633 609
f 604 605 603
f 631 604 601
f 629 631 601
f 513 629 507
f 512 513 434
f 513 507 434
f 507 766 434
f 766 507 433
f 506 519 433
f 600 702 506
f 602 703 600
f 703 522 521
f 704 523 522
f 704 491 490
f 491 482 481
f 699 483 482
f 698 699 661
f 484 698 485
f 476 484 477
f 486 478 477
f 697 696 486
f 659 696 660
f 659 660 583
f 696 697 660
f 478 486 474
f 488 479 474
f 488 489 479
f 489 480 479
f 485 697 486
f 484 485 477
f 485 486 477
f 698 697 485
f 660 661 583
f 661 581 583
f 660 697 661
f 697 698 661
f 581 661 579
f 662 663 579
f 661 662 579
f 699 662 661
f 699 698 483
f 698 484 483
f 475 483 476
f 483 484 476
f 482 483 475
f 481 482 475
f 490 491 481
f 523 704 490
f 704 703 602
f 703 704 522
f 703 702 600
f 702 703 521
f 702 521 495
f 432 495 431
f 495 503 431
f 764 519 432
f 519 495 432
f 702 519 506
f 519 702 495
f 519 764 433
f 507 506 433
f 629 601 507
f 507 601 506
f 601 600 506
f 601 604 600
f 604 602 600
f 491 704 603
f 602 604 603
f 603 704 602
f 633 631 630
f 631 633 604
f 633 605 604
f 633 635 609
f 635 637 609
f 605 609 603
f 608 491 603
f 609 608 603
f 491 608 482
f 637 611 609
f 611 610 608
f 699 610 662
f 610 663 662
f 610 699 482
f 608 610 482
f 664 663 610
f 637 665 611
f 665 664 611
f 665 639 577
f 639 641 577
f 663 575 579
f 663 664 575
f 664 577 575
f 580 579 575
f 641 578 577
f 641 643 578
f 643 645 612
f 645 647 613
f 647 599 613
f 645 613 612
f 593 613 594
f 593 594 592
f 595 598 592
f 594 595 592
f 613 599 594
f 613 593 591
f 578 576 575
f 578 612 576
f 612 591 576
f 576 580 575
f 590 580 576
f 591 593 590
f 593 592 590
f 581 582 583
f 580 582 579
f 582 581 579
f 580 590 582
f 615 598 597
f 596 606 597
f 673 674 596
f 673 574 571
f 572 571 573
f 570 572 549
f 569 570 567
f 568 569 567
f 566 568 565
f 528 527 566
f 566 565 528
f 565 529 528
f 530 544 529
f 531 530 545
f 652 532 531
f 621 652 620
f 621 717 533
f 718 717 148
f 147 303 148
f 147 266 146
f 265 266 234
f 162 160 265
f 165 162 264
f 263 167 165
f 262 263 232
f 231 262 232
f 709 714 231
f 709 618 617
f 618 619 649
f 715 710 619
f 710 715 233
f 651 650 619
f 550 650 547
f 650 651 547
f 552 649 550
f 553 552 551
f 554 553 551
f 553 648 552
f 649 650 550
f 648 649 552
f 619 650 649
f 618 649 617
f 649 648 617
f 618 709 619
f 709 715 619
f 233 715 709
f 714 709 617
f 232 709 231
f 232 233 709
f 167 166 164
f 166 169 187
f 188 189 187
f 287 288 189
f 221 288 211
f 203 221 204
f 289 203 200
f 184 289 183
f 185 184 182
f 180 182 181
f 161 180 145
f 145 144 159
f 179 144 143
f 177 179 176
f 177 314 157
f 202 174 314
f 174 295 172
f 283 295 284
f 282 283 269
f 281 282 267
f 281 297 296
f 281 267 129
f 282 268 267
f 282 281 296
f 268 282 269
f 269 283 270
f 271 308 270
f 285 286 271
f 294 293 285
f 285 293 292
f 292 178 142
f 142 291 141
f 292 142 141
f 272 286 140
f 286 141 140
f 286 285 292
f 286 292 141
f 286 272 271
f 285 271 270
f 284 294 285
f 284 285 270
f 283 284 270
f 295 294 284
f 296 295 282
f 295 283 282
f 295 296 172
f 173 315 172
f 151 173 149
f 152 154 151
f 299 152 150
f 240 299 298
f 239 300 240
f 239 713 238
f 711 713 624
f 623 719 624
f 623 688 622
f 688 689 622
f 687 688 623
f 720 719 622
f 720 236 237
f 237 236 302
f 301 302 156
f 155 301 156
f 155 175 153
f 175 155 156
f 302 301 237
f 719 623 622
f 719 720 237
f 719 711 624
f 624 687 623
f 713 625 624
f 626 625 708
f 625 713 708
f 713 711 238
f 711 719 238
f 719 237 238
f 301 238 237
f 239 238 300
f 238 301 300
f 708 713 240
f 713 239 240
f 300 299 240
f 298 299 150
f 298 150 113
f 299 300 152
f 300 301 154
f 301 155 154
f 300 154 152
f 154 155 153
f 154 153 151
f 150 152 149
f 152 151 149
f 173 171 149
f 153 315 151
f 315 173 151
f 171 173 172
f 315 174 172
f 202 294 174
f 294 295 174
f 174 315 314
f 175 314 153
f 314 315 153
f 314 175 157
f 157 175 156
f 202 314 177
f 178 292 176
f 292 293 176
f 293 294 176
f 294 202 176
f 176 202 177
f 179 178 176
f 179 177 157
f 178 179 143
f 178 143 142
f 144 179 159
f 159 179 157
f 158 159 156
f 159 157 156
f 159 158 145
f 180 144 145
f 161 163 180
f 143 181 142
f 181 291 142
f 180 181 144
f 181 143 144
f 290 291 181
f 185 182 163
f 163 182 180
f 184 183 182
f 182 183 181
f 183 290 181
f 289 290 183
f 289 184 186
f 290 289 200
f 291 290 200
f 222 230 204
f 213 230 212
f 230 222 212
f 230 229 204
f 221 222 204
f 212 222 211
f 222 221 211
f 288 287 211
f 288 289 186
f 289 288 203
f 288 221 203
f 288 186 189
f 189 186 187
f 169 188 187
f 185 187 184
f 187 186 184
f 168 169 166
f 166 187 164
f 187 185 164
f 164 185 163
f 167 168 166
f 263 262 167
f 262 168 167
f 165 167 164
f 165 164 163
f 264 263 165
f 263 264 232
f 264 233 232
f 162 165 163
f 162 163 161
f 160 162 161
f 162 265 264
f 264 265 233
f 234 710 233
f 265 234 233
f 266 235 234
f 160 266 265
f 160 161 146
f 161 145 146
f 266 160 146
f 158 146 145
f 146 158 147
f 302 303 156
f 303 158 156
f 158 303 147
f 236 303 302
f 303 236 148
f 235 266 148
f 266 147 148
f 236 720 148
f 720 718 148
f 717 235 148
f 235 717 234
f 717 710 234
f 717 718 533
f 718 720 533
f 720 622 533
f 710 620 619
f 710 717 620
f 717 621 620
f 620 651 619
f 652 651 620
f 533 622 532
f 622 689 532
f 652 621 532
f 621 533 532
f 532 689 531
f 689 543 531
f 545 652 531
f 547 651 545
f 651 652 545
f 546 548 545
f 548 547 545
f 530 546 545
f 531 543 530
f 543 544 530
f 546 530 529
f 565 546 529
f 568 566 676
f 568 567 565
f 565 567 546
f 567 548 546
f 551 552 549
f 552 550 549
f 548 549 547
f 549 550 547
f 548 567 549
f 567 570 549
f 572 551 549
f 572 573 551
f 573 554 551
f 571 574 573
f 569 571 570
f 571 572 570
f 674 673 571
f 674 571 569
f 674 606 596
f 592 615 590
f 615 614 590
f 598 615 592
f 614 589 582
f 607 615 597
f 615 607 589
f 606 607 597
f 607 606 588
f 606 674 588
f 569 568 675
f 568 676 675
f 675 674 569
f 674 675 588
f 675 676 585
f 582 584 583
f 585 584 588
f 584 589 588
f 589 584 582
f 586 583 584
f 586 659 583
f 527 677 566
f 676 677 585
f 677 586 585
f 566 677 676
f 677 527 526
f 527 678 526
f 678 672 526
f 526 525 586
f 525 659 586
f 696 659 525
f 672 658 525
f 658 672 671
f 524 696 525
f 696 524 486
f 524 487 486
f 487 488 474
f 486 487 474
f 695 488 487
f 658 695 524
f 488 695 489
f 657 658 671
f 695 658 657
f 695 694 489
f 694 657 656
f 693 692 492
f 694 693 489
f 693 492 489
f 693 656 655
f 691 692 655
f 691 654 653
f 654 668 653
f 654 691 655
f 669 668 654
f 656 657 670
f 657 671 670
f 656 670 655
f 670 669 655
f 669 681 668
f 681 682 668
f 682 681 557
f 682 557 555
f 701 558 557
f 555 557 556
f 557 558 556
f 559 701 557
f 680 681 670
f 559 681 680
f 671 679 670
f 679 680 670
f 587 680 679
f 678 679 672
f 679 671 672
f 561 679 563
f 679 678 563
f 528 563 527
f 563 678 527
f 529 564 528
f 564 563 528
f 544 564 529
f 563 564 562
f 564 544 542
f 543 689 541
f 689 688 541
f 542 544 541
f 544 543 541
f 587 700 559
f 700 701 559
f 560 700 542
f 700 562 542
f 562 700 561
f 700 587 561
f 538 701 700
f 536 558 538
f 558 701 538
f 541 688 540
f 688 687 540
f 540 560 541
f 538 560 540
f 538 539 536
f 625 686 624
f 686 687 624
f 539 540 686
f 540 687 686
f 539 537 536
f 626 685 625
f 685 686 625
f 686 685 537
f 534 536 535
f 536 537 535
f 534 535 496
f 684 685 626
f 685 684 535
f 535 497 496
f 497 420 496
f 420 730 496
f 730 420 367
f 367 420 436
f 420 444 436
f 517 444 420
f 684 517 497
f 627 684 626
f 517 684 627
f 444 517 443
f 517 511 443
f 708 716 626
f 716 627 626
f 627 716 511
f 716 712 511
f 716 708 240
f 241 240 298
f 241 716 240
f 716 241 126
f 241 298 132
f 132 298 113
f 132 113 53
f 77 53 1
f 53 113 112
f 113 150 112
f 150 149 112
f 53 331 1
f 331 324 1
f 324 331 323
f 330 329 323
f 329 324 323
f 330 323 2
f 323 332 2
f 112 115 331
f 115 332 331
f 112 149 115
f 149 171 115
f 115 171 114
f 172 296 170
f 296 297 170
f 170 171 172
f 171 170 114
f 170 297 131
f 54 332 114
f 114 131 54
f 332 54 2
f 54 55 2
f 55 3 2
f 55 131 130
f 130 281 129
f 131 297 130
f 297 281 130
f 130 129 56
f 129 57 56
f 57 5 4
f 3 55 4
f 55 56 4
f 18 39 5
f 39 24 4
f 4 24 3
f 24 19 3
f 24 32 19
f 32 33 19
f 38 32 24
f 52 48 32
f 48 33 32
f 46 52 32
f 31 18 17
f 46 38 31
f 38 39 31
f 39 18 31
f 51 31 30
f 30 31 17
f 42 361 29
f 361 362 29
f 78 362 361
f 78 81 30
f 30 17 78
f 17 84 78
f 353 362 78
f 29 362 353
f 353 84 80
f 7 80 17
f 80 84 17
f 353 356 22
f 22 29 353
f 85 22 8
f 355 358 9
f 358 355 85
f 29 79 42
f 79 83 42
f 29 22 79
f 22 85 79
f 355 357 79
f 357 355 16
f 16 355 9
f 354 357 28
f 40 354 28
f 349 348 40
f 349 28 16
f 349 350 347
f 351 346 347
f 27 36 43
f 12 23 14
f 23 26 14
f 26 36 14
f 11 12 14
f 65 365 11
f 365 12 11
f 27 15 14
f 15 10 11
f 64 65 10
f 65 11 10
f 64 10 333
f 10 341 333
f 340 341 10
f 27 352 15
f 352 340 15
f 351 352 345
f 345 352 27
f 352 351 339
f 341 340 339
f 339 351 338
f 351 350 338
f 342 341 339
f 333 334 118
f 333 341 334
f 341 342 334
f 343 342 338
f 338 350 337
f 350 349 337
f 343 338 337
f 337 16 9
f 337 349 16
f 344 337 9
f 334 335 118
f 343 335 334
f 343 344 335
f 336 344 9
f 335 322 118
f 335 336 322
f 110 336 63
f 63 336 9
f 358 360 9
f 360 63 9
f 360 363 63
f 87 121 360
f 87 86 8
f 86 87 358
f 87 360 358
f 62 109 87
f 62 87 8
f 356 359 8
f 359 62 8
f 359 364 62
f 359 356 80
f 82 359 80
f 82 80 7
f 116 364 82
f 60 82 7
f 60 120 116
f 61 125 120
f 61 60 7
f 59 7 6
f 59 61 7
f 57 58 5
f 58 6 5
f 58 59 6
f 135 125 59
f 129 133 57
f 133 58 57
f 133 135 58
f 129 267 133
f 304 321 133
f 267 268 304
f 267 304 133
f 305 320 304
f 268 305 304
f 269 306 268
f 306 305 268
f 306 319 305
f 308 307 270
f 307 108 306
f 270 307 269
f 307 306 269
f 307 308 105
f 96 105 95
f 309 272 140
f 272 309 271
f 309 308 271
f 308 309 105
f 309 104 105
f 90 95 103
f 95 104 103
f 309 139 103
f 139 309 140
f 139 310 102
f 103 102 90
f 102 94 90
f 102 101 93
f 93 101 100
f 312 100 101
f 92 100 99
f 91 92 99
f 98 97 91
f 107 106 97
f 107 318 106
f 218 318 107
f 318 218 217
f 224 220 218
f 219 220 245
f 220 247 245
f 218 220 217
f 220 219 217
f 249 247 220
f 247 249 246
f 249 248 246
f 251 250 248
f 279 280 250
f 226 224 223
f 279 251 226
f 224 226 249
f 226 251 249
f 279 278 192
f 225 226 223
f 278 226 225
f 98 99 225
f 98 225 107
f 225 223 107
f 192 278 277
f 193 192 190
f 190 192 277
f 277 225 276
f 225 313 276
f 99 313 225
f 312 313 99
f 313 312 275
f 275 312 311
f 310 311 101
f 311 312 101
f 140 273 139
f 273 310 139
f 274 311 273
f 311 310 273
f 273 201 198
f 141 201 140
f 201 273 140
f 291 201 141
f 201 291 200
f 201 200 199
f 200 203 199
f 203 204 199
f 198 196 274
f 196 275 274
f 198 199 196
f 276 275 196
f 199 204 197
f 204 229 197
f 276 194 190
f 196 197 194
f 194 276 196
f 194 195 190
f 191 193 190
f 195 191 190
f 205 206 191
f 195 197 205
f 197 229 205
f 205 229 207
f 229 230 207
f 230 213 207
f 213 210 207
f 207 208 205
f 207 210 209
f 228 208 209
f 206 227 191
f 227 193 191
f 193 227 255
f 227 257 255
f 206 208 227
f 208 228 227
f 259 257 227
f 214 261 228
f 261 259 228
f 258 259 260
f 256 257 258
f 257 259 258
f 646 647 645
f 472 471 258
f 644 646 645
f 646 644 471
f 256 258 470
f 258 471 470
f 640 642 641
f 642 643 641
f 644 642 470
f 644 645 642
f 645 643 642
f 642 640 469
f 254 256 469
f 256 470 469
f 640 641 638
f 641 639 638
f 639 665 638
f 469 640 638
f 253 255 252
f 255 254 252
f 280 279 252
f 279 253 252
f 254 469 252
f 469 468 252
f 473 280 252
f 280 473 250
f 665 666 638
f 638 666 468
f 666 473 468
f 250 467 248
f 473 467 250
f 666 636 467
f 666 665 636
f 665 637 636
f 467 466 248
f 248 466 246
f 636 634 466
f 636 637 634
f 637 635 634
f 466 465 246
f 632 633 630
f 634 635 632
f 635 633 632
f 634 632 465
f 632 630 464
f 245 247 244
f 247 246 244
f 245 244 242
f 246 465 244
f 465 464 244
f 616 242 244
f 616 464 628
f 464 630 628
f 630 631 628
f 631 629 628
f 512 628 513
f 628 629 513
f 628 512 510
f 128 127 67
f 242 616 127
f 616 510 127
f 128 243 127
f 243 242 127
f 765 89 127
f 127 89 67
f 67 89 88
f 767 88 89
f 768 88 462
f 88 767 462
f 462 461 768
f 773 461 462
f 767 765 456
f 765 463 456
f 765 510 463
f 510 512 463
f 463 512 434
f 463 434 379
f 771 456 379
f 456 771 462
f 771 773 462
f 403 773 771
f 411 772 403
f 772 773 403
f 392 415 403
f 415 411 403
f 403 391 389
f 766 433 378
f 433 764 378
f 389 391 378
f 391 379 378
f 379 434 378
f 434 766 378
f 377 432 431
f 378 764 377
f 764 432 377
f 393 402 380
f 380 389 377
f 389 380 392
f 380 402 392
f 376 377 431
f 376 381 380
f 381 393 380
f 751 393 381
f 751 750 744
f 393 751 409
f 751 744 409
f 751 739 738
f 749 737 736
f 749 750 737
f 750 738 737
f 742 743 737
f 743 736 737
f 741 742 737
f 741 738 739
f 740 741 739
f 376 740 739
f 431 732 376
f 732 740 376
f 503 508 431
f 508 732 431
f 733 732 502
f 733 741 732
f 742 741 733
f 721 734 733
f 734 742 733
f 734 735 742
f 494 735 734
f 430 735 494
f 743 735 430
f 382 375 754
f 375 757 754
f 375 743 430
f 743 375 382
f 759 757 375
f 430 501 759
f 501 762 759
f 453 757 454
f 757 759 454
f 762 505 454
f 505 493 429
f 493 763 758
f 758 763 449
f 763 500 449
f 500 504 449
f 504 427 449
f 429 758 374
f 758 755 374
f 453 454 374
f 454 429 374
f 388 452 374
f 452 453 374
f 752 388 374
f 752 761 388
f 448 760 445
f 760 761 445
f 761 752 445
f 451 752 447
f 752 755 447
f 447 755 449
f 447 449 373
f 449 427 373
f 427 428 373
f 428 426 373
f 425 518 424
f 425 426 518
f 373 426 425
f 370 390 371
f 390 405 371
f 372 425 371
f 425 424 371
f 371 424 370
f 371 405 384
f 445 451 383
f 383 451 373
f 384 383 372
f 383 373 372
f 416 448 396
f 448 445 396
f 396 445 383
f 397 396 383
f 417 416 396
f 417 397 404
f 404 405 390
f 397 384 404
f 384 405 404
f 412 404 398
f 398 404 390
f 385 399 390
f 399 398 390
f 399 414 398
f 385 386 399
f 386 729 400
f 400 407 399
f 386 400 399
f 729 727 400
f 724 727 725
f 723 728 722
f 728 729 722
f 387 728 367
f 728 723 367
f 726 727 728
f 727 729 728
f 728 387 401
f 413 725 401
f 725 726 401
f 437 440 387
f 440 401 387
f 440 441 401
f 442 441 439
f 458 457 442
f 457 458 72
f 72 458 71
f 439 440 438
f 440 437 438
f 458 439 438
f 458 459 71
f 71 459 68
f 438 437 435
f 437 436 435
f 436 444 435
f 444 443 435
f 459 438 435
f 459 455 68
f 712 419 443
f 455 435 419
f 435 443 419
f 126 132 76
f 132 77 76
f 419 712 76
f 712 126 76
f 76 77 68
f 68 455 76
