# Level-zero anatomical extract from Blender Human Base Meshes v1.4.1 (CC0)
o human-thigh-r
v 0.0122293 -0.0679331 0.7559089
v 0.0077372 -0.0278624 0.7525618
v 0.0121168 0.0105937 0.7596763
v 0.0868530 0.0765779 0.7602496
v 0.0906203 0.0603423 0.7335312
v 0.0949480 0.0593995 0.7036210
v 0.0994848 0.0638240 0.6727377
v 0.1046029 0.0686957 0.6406648
v 0.1106427 0.0705411 0.6073747
v 0.1178911 0.0674462 0.5740927
v 0.1239006 0.0626577 0.5421285
v 0.1297226 0.0627430 0.5116391
v 0.1346021 0.0652531 0.4835084
v 0.1377465 0.0714626 0.4582273
v 0.1275719 -0.0314178 0.4349032
v 0.1188252 -0.0441941 0.4621984
v 0.1102925 -0.0576605 0.4924986
v 0.1045442 -0.0672080 0.5265105
v 0.0996608 -0.0778322 0.5618425
v 0.0971986 -0.0876412 0.5990734
v 0.0958138 -0.0964214 0.6363961
v 0.0945983 -0.1038295 0.6734247
v 0.0928581 -0.1094797 0.7097497
v 0.0903301 -0.1132640 0.7447080
v 0.0879491 -0.1132120 0.7780186
v 0.0570415 0.0652798 0.7550313
v 0.0619552 0.0536324 0.7278594
v 0.0654970 0.0548248 0.6977189
v 0.0704029 0.0590966 0.6673628
v 0.0768973 0.0621717 0.6358873
v 0.0842569 0.0635507 0.6034975
v 0.0933937 0.0618585 0.5713870
v 0.1016738 0.0607817 0.5400902
v 0.1089204 0.0616317 0.5099648
v 0.1147644 0.0633052 0.4818943
v 0.1190147 0.0672315 0.4561616
v 0.1138043 -0.0212201 0.4393909
v 0.1038404 -0.0331607 0.4656655
v 0.0938546 -0.0453204 0.4948034
v 0.0856141 -0.0564276 0.5273024
v 0.0783625 -0.0671854 0.5612832
v 0.0757324 -0.0748924 0.5984560
v 0.0736226 -0.0813491 0.6351650
v 0.0714761 -0.0873147 0.6706597
v 0.0681886 -0.0936997 0.7045988
v 0.0649588 -0.0992562 0.7369772
v 0.0617842 -0.1023143 0.7688080
v 0.0174794 -0.0633346 0.7411243
v 0.0204367 -0.0587292 0.7182524
v 0.0259465 -0.0514099 0.6922391
v 0.0330209 -0.0432496 0.6629626
v 0.0417312 -0.0355427 0.6312286
v 0.0499264 -0.0295253 0.5980352
v 0.0563179 -0.0230621 0.5637715
v 0.0633912 -0.0162078 0.5304136
v 0.0744065 -0.0080485 0.5002899
v 0.0818225 -0.0002183 0.4708045
v 0.0900769 0.0071745 0.4437509
v 0.1754008 -0.0678393 0.7962476
v 0.1794665 -0.0695827 0.7633029
v 0.1821718 -0.0697360 0.7263793
v 0.1839836 -0.0678928 0.6865236
v 0.1843927 -0.0630358 0.6454773
v 0.1821601 -0.0554026 0.6058255
v 0.1771720 -0.0453166 0.5688459
v 0.1720439 -0.0342448 0.5344357
v 0.1700998 -0.0231786 0.5025100
v 0.1737821 -0.0145341 0.4726586
v 0.1791561 -0.0070048 0.4460954
v 0.1836163 0.0097638 0.4504586
v 0.1793070 0.0026446 0.4772351
v 0.1773794 -0.0061863 0.5061617
v 0.1790701 -0.0150524 0.5375699
v 0.1833492 -0.0229307 0.5717898
v 0.1883640 -0.0292080 0.6086628
v 0.1905319 -0.0337285 0.6480145
v 0.1907296 -0.0367619 0.6884774
v 0.1895574 -0.0378207 0.7280202
v 0.1867212 -0.0375022 0.7644001
v 0.1811501 -0.0360336 0.7963374
v 0.0375490 -0.0874791 0.7584324
v 0.0413332 -0.0819991 0.7278304
v 0.0464628 -0.0742854 0.6989025
v 0.0519022 -0.0663911 0.6674938
v 0.0566272 -0.0596456 0.6339006
v 0.0602386 -0.0542619 0.5984926
v 0.0635620 -0.0475828 0.5623584
v 0.0708640 -0.0389071 0.5284434
v 0.0828029 -0.0277423 0.4983032
v 0.0925625 -0.0172853 0.4693853
v 0.1012705 -0.0077839 0.4425763
v 0.1038705 0.0559517 0.4531937
v 0.0962556 0.0541362 0.4793376
v 0.0890071 0.0523084 0.5075871
v 0.0819998 0.0493251 0.5377731
v 0.0734523 0.0469363 0.5687990
v 0.0638629 0.0456197 0.6001214
v 0.0544627 0.0440605 0.6315153
v 0.0455514 0.0420150 0.6621005
v 0.0384052 0.0395634 0.6917400
v 0.0342457 0.0382948 0.7212077
v 0.0343384 0.0397455 0.7500014
v 0.0074243 -0.0273870 0.7349339
v 0.0095205 -0.0245193 0.7130880
v 0.1203632 -0.1163861 0.7144358
v 0.1212783 -0.1112659 0.6762105
v 0.1465451 -0.1113867 0.7189461
v 0.1476242 -0.1071033 0.6795748
v 0.1684530 -0.0961687 0.7230546
v 0.1697940 -0.0930188 0.6831307
v 0.1651935 -0.0959265 0.7602984
v 0.1818115 -0.0033077 0.7617520
v 0.1863790 -0.0041165 0.7264605
v 0.1737783 -0.0022171 0.7926461
v 0.1670262 0.0262026 0.7559447
v 0.1593363 0.0282155 0.7864183
v 0.1447011 0.0466766 0.7482838
v 0.1406958 0.0533716 0.7782984
v 0.1725164 0.0248208 0.7221519
v 0.1610710 -0.0929093 0.7941370
v 0.1413040 -0.1105328 0.7908781
v 0.1159210 -0.1175220 0.7855925
v 0.1441729 -0.1127078 0.7563289
v 0.1184331 -0.1187747 0.7511588
v 0.1883308 -0.0042916 0.6881542
v 0.1758236 0.0242040 0.6857843
v 0.1762015 0.0234158 0.6485970
v 0.1882897 -0.0035070 0.6489894
v 0.1863988 -0.0017724 0.6106600
v 0.1679253 -0.0758827 0.6030727
v 0.1696148 -0.0861683 0.6424360
v 0.1754986 0.0236740 0.6118127
v 0.1600457 0.0444038 0.5767632
v 0.1580964 0.0450386 0.6116080
v 0.1739762 0.0243073 0.5762517
v 0.1825243 0.0010293 0.5742958
v 0.1555248 0.0439948 0.6469080
v 0.1536263 0.0444662 0.6819951
v 0.1496800 0.0450193 0.7161680
v 0.1233222 0.0562826 0.7097665
v 0.1184803 0.0578929 0.7404661
v 0.1284484 0.0589974 0.6777163
v 0.1474082 -0.0992450 0.6397861
v 0.1215902 -0.1025793 0.6377075
v 0.1219658 -0.0913832 0.5999875
v 0.1467597 -0.0878969 0.6011205
v 0.1457431 -0.0750697 0.5641856
v 0.1233572 -0.0798548 0.5629693
v 0.1448586 -0.0623791 0.5290282
v 0.1257581 -0.0695622 0.5269945
v 0.1645599 -0.0637713 0.5659566
v 0.1601411 -0.0501308 0.5315865
v 0.1300498 -0.0604127 0.4924161
v 0.1360388 -0.0484225 0.4597701
v 0.1484606 -0.0538959 0.4941047
v 0.1535475 -0.0451203 0.4605753
v 0.1586797 -0.0313839 0.4353327
v 0.1437005 -0.0341517 0.4331929
v 0.0686079 0.0131245 0.5016683
v 0.0754992 0.0193391 0.4722991
v 0.0550190 0.0022035 0.5648659
v 0.0619935 0.0076235 0.5325367
v 0.0336169 -0.0081981 0.6281775
v 0.0229612 -0.0139698 0.6588464
v 0.0395428 0.0195263 0.6284978
v 0.0284005 0.0166360 0.6585325
v 0.0512775 0.0223574 0.5979292
v 0.0455889 -0.0030034 0.5971746
v 0.0608671 0.0258713 0.5666170
v 0.1372677 0.0630201 0.6102487
v 0.1415831 0.0603770 0.5761333
v 0.1325793 0.0614949 0.6443124
v 0.0685006 0.0303092 0.5351790
v 0.0141024 0.0116116 0.7148021
v 0.0195508 0.0135643 0.6876767
v 0.0138356 0.0101205 0.7398887
v 0.0150326 -0.0197905 0.6877844
v 0.1163223 0.0709123 0.7691345
v 0.1865582 0.0258297 0.4540624
v 0.1713060 -0.0222724 0.4403708
v 0.0856319 0.0248927 0.4460043
v 0.0912429 0.0421237 0.4497044
v 0.0808433 0.0395461 0.4756716
v 0.0740967 0.0351322 0.5045538
v 0.1531958 0.0596442 0.4841703
v 0.1483009 0.0552772 0.5123137
v 0.1565211 0.0668940 0.4587664
v 0.1446016 0.0558649 0.5433171
v 0.1736528 0.0253377 0.5424439
v 0.1615711 0.0426517 0.5432928
v 0.1762404 0.0292196 0.5112143
v 0.1802262 0.0116049 0.5090656
v 0.1800487 0.0348350 0.4829001
v 0.1839839 0.0187460 0.4805177
v 0.1791218 0.0052735 0.5403742
v 0.1828341 0.0417386 0.4567125
v 0.1720304 0.0562366 0.4582790
v 0.1682846 0.0488231 0.4839926
v 0.1641827 0.0440492 0.5122190
v 0.1611909 -0.0397898 0.4980488
v 0.1673195 -0.0326550 0.4663233
v 0.0487046 0.0880260 0.7780102
v 0.0194469 0.0595182 0.7713066
v 0.1135424 0.0838264 0.7983186
v 0.0824296 0.0949357 0.7872716
v 0.1357449 0.0601544 0.8078608
v 0.1497462 0.0303405 0.8146192
v 0.1621921 -0.0011134 0.8198239
v 0.1725288 -0.0337284 0.8244413
v 0.1701096 -0.0646927 0.8256472
v 0.1127960 -0.1120804 0.8172715
v 0.1374343 -0.1049443 0.8220226
v 0.1563528 -0.0880750 0.8245574
v 0.0850291 -0.1109929 0.8102466
v 0.0566711 -0.1036179 0.8015475
v 0.0270828 -0.1117199 0.7838895
usemtl blender_human_cc0
f 103 48 1
f 2 103 1
f 203 202 26
f 102 203 26
f 207 208 114
f 116 207 114
f 206 207 116
f 118 206 116
f 27 26 4
f 5 27 4
f 103 104 49
f 48 103 49
f 120 213 212
f 121 120 212
f 102 176 3
f 203 102 3
f 208 209 80
f 114 208 80
f 216 1 48
f 81 216 48
f 204 178 4
f 205 204 4
f 176 103 2
f 3 176 2
f 211 214 25
f 122 211 25
f 78 79 60
f 61 78 60
f 7 29 28
f 6 7 28
f 178 141 5
f 4 178 5
f 102 26 27
f 101 102 27
f 202 205 4
f 26 202 4
f 103 176 174
f 104 103 174
f 172 8 7
f 142 172 7
f 98 99 29
f 30 98 29
f 32 31 9
f 10 32 9
f 170 171 10
f 9 170 10
f 97 31 32
f 96 97 32
f 188 11 10
f 171 188 10
f 94 95 33
f 34 94 33
f 187 14 13
f 185 187 13
f 92 93 35
f 36 92 35
f 110 109 107
f 108 110 107
f 154 16 15
f 158 154 15
f 17 39 38
f 16 17 38
f 145 20 19
f 148 145 19
f 144 21 20
f 145 144 20
f 144 106 22
f 21 144 22
f 22 106 105
f 23 22 105
f 216 81 47
f 215 216 47
f 170 9 8
f 172 170 8
f 95 96 32
f 33 95 32
f 198 199 191
f 193 198 191
f 18 40 39
f 17 18 39
f 89 90 38
f 39 89 38
f 41 40 18
f 19 41 18
f 89 39 40
f 88 89 40
f 86 87 41
f 42 86 41
f 43 42 20
f 21 43 20
f 23 45 44
f 22 23 44
f 82 83 45
f 46 82 45
f 25 47 46
f 24 25 46
f 143 131 110
f 108 143 110
f 166 165 163
f 164 166 163
f 53 86 85
f 52 53 85
f 164 51 50
f 177 164 50
f 87 86 53
f 54 87 53
f 168 161 54
f 53 168 54
f 159 160 57
f 56 159 57
f 184 183 160
f 159 184 160
f 57 90 89
f 56 57 89
f 78 113 112
f 79 78 112
f 209 210 59
f 80 209 59
f 131 63 62
f 110 131 62
f 77 78 61
f 62 77 61
f 75 129 128
f 76 75 128
f 125 77 76
f 128 125 76
f 140 139 138
f 142 140 138
f 130 64 63
f 131 130 63
f 129 75 74
f 136 129 74
f 72 67 68
f 71 72 68
f 179 194 71
f 70 179 71
f 201 180 69
f 68 201 69
f 198 193 196
f 197 198 196
f 201 68 67
f 200 201 67
f 200 152 149
f 155 200 149
f 180 201 156
f 157 180 156
f 151 152 66
f 65 151 66
f 195 73 72
f 192 195 72
f 143 146 130
f 131 143 130
f 72 73 66
f 67 72 66
f 136 135 132
f 129 136 132
f 75 64 65
f 74 75 65
f 109 61 60
f 111 109 60
f 76 77 62
f 63 76 62
f 111 60 59
f 120 111 59
f 110 62 61
f 109 110 61
f 210 213 120
f 59 210 120
f 83 82 49
f 50 83 49
f 164 163 52
f 51 164 52
f 81 82 46
f 47 81 46
f 161 162 55
f 54 161 55
f 84 44 45
f 83 84 45
f 159 56 55
f 162 159 55
f 22 44 43
f 21 22 43
f 88 40 41
f 87 88 41
f 91 90 57
f 58 91 57
f 154 153 17
f 16 154 17
f 169 96 95
f 173 169 95
f 34 33 11
f 12 34 11
f 174 101 100
f 175 174 100
f 175 100 99
f 166 175 99
f 30 29 7
f 8 30 7
f 204 206 118
f 178 204 118
f 183 93 92
f 182 183 92
f 199 186 188
f 190 199 188
f 112 114 80
f 79 112 80
f 132 127 128
f 129 132 128
f 113 78 77
f 125 113 77
f 85 84 51
f 52 85 51
f 108 107 105
f 106 108 105
f 119 115 112
f 113 119 112
f 75 76 63
f 64 75 63
f 151 65 64
f 130 151 64
f 116 114 112
f 115 116 112
f 139 117 115
f 119 139 115
f 124 123 121
f 122 124 121
f 150 149 147
f 148 150 147
f 137 172 142
f 138 137 142
f 127 126 125
f 128 127 125
f 73 195 136
f 74 73 136
f 195 189 135
f 136 195 135
f 170 134 133
f 171 170 133
f 132 135 133
f 134 132 133
f 172 137 134
f 170 172 134
f 145 146 143
f 144 145 143
f 138 139 119
f 126 138 119
f 147 146 145
f 148 147 145
f 142 7 6
f 140 142 6
f 9 31 30
f 8 9 30
f 11 33 32
f 10 11 32
f 199 190 189
f 191 199 189
f 152 151 147
f 149 152 147
f 201 200 155
f 156 201 155
f 194 192 72
f 71 194 72
f 156 155 153
f 154 156 153
f 161 168 167
f 169 161 167
f 56 89 88
f 55 56 88
f 169 173 162
f 161 169 162
f 36 35 13
f 14 36 13
f 35 34 12
f 13 35 12
f 175 177 104
f 174 175 104
f 123 124 105
f 107 123 105
f 118 116 115
f 117 118 115
f 168 53 52
f 163 168 52
f 174 176 102
f 101 174 102
f 141 140 6
f 5 141 6
f 100 28 29
f 99 100 29
f 197 187 185
f 198 197 185
f 173 184 159
f 162 173 159
f 169 167 97
f 96 169 97
f 98 30 31
f 97 98 31
f 166 99 98
f 165 166 98
f 11 188 186
f 12 11 186
f 94 34 35
f 93 94 35
f 179 196 193
f 194 179 193
f 192 194 193
f 191 192 193
f 121 123 111
f 120 121 111
f 192 191 189
f 195 192 189
f 141 117 139
f 140 141 139
f 133 190 188
f 171 133 188
f 181 58 57
f 160 181 57
f 88 87 54
f 55 88 54
f 28 27 5
f 6 28 5
f 183 182 181
f 160 183 181
f 200 67 66
f 152 200 66
f 74 65 66
f 73 74 66
f 153 155 149
f 150 153 149
f 190 133 135
f 189 190 135
f 134 137 127
f 132 134 127
f 38 37 15
f 16 38 15
f 164 177 175
f 166 164 175
f 90 91 37
f 38 90 37
f 42 41 19
f 20 42 19
f 86 42 43
f 85 86 43
f 158 157 156
f 154 158 156
f 24 46 45
f 23 24 45
f 84 85 43
f 44 84 43
f 105 124 24
f 23 105 24
f 122 25 24
f 124 122 24
f 151 130 146
f 147 151 146
f 177 50 49
f 104 177 49
f 137 138 126
f 127 137 126
f 111 123 107
f 109 111 107
f 167 168 163
f 165 167 163
f 184 94 93
f 183 184 93
f 153 150 18
f 17 153 18
f 148 19 18
f 150 148 18
f 186 199 198
f 185 186 198
f 173 95 94
f 184 173 94
f 97 167 165
f 98 97 165
f 185 13 12
f 186 185 12
f 70 71 68
f 69 70 68
f 143 108 106
f 144 143 106
f 49 82 81
f 48 49 81
f 125 126 119
f 113 125 119
f 141 178 118
f 117 141 118
f 215 47 25
f 214 215 25
f 79 80 59
f 60 79 59
f 84 83 50
f 51 84 50
f 212 211 122
f 121 212 122
f 100 101 27
f 28 100 27
