# Level-zero anatomical extract from Blender Human Base Meshes v1.4.1 (CC0)
o human-shin-r
v 0.1419357 0.0442179 0.0974850
v 0.1408887 0.0456331 0.0885581
v 0.1421988 0.0545950 0.0978565
v 0.1426082 0.0558665 0.0876582
v 0.1444925 0.0653840 0.0977448
v 0.1453496 0.0664691 0.0871075
v 0.1543527 0.0934571 0.0973713
v 0.1555133 0.0938626 0.0868341
v 0.1630822 0.0957997 0.0978067
v 0.1636230 0.0961480 0.0870732
v 0.1719593 0.0911424 0.0983185
v 0.1719032 0.0909915 0.0869629
v 0.1824335 0.0870179 0.0994622
v 0.1823721 0.0866676 0.0876916
v 0.1934222 0.0823499 0.1017425
v 0.1944284 0.0827982 0.0904796
v 0.1998939 0.0719686 0.1044915
v 0.2021937 0.0724917 0.0941797
v 0.2017274 0.0589425 0.1071081
v 0.2042550 0.0588326 0.0976948
v 0.2001752 0.0457473 0.1094842
v 0.2024019 0.0450644 0.1007069
v 0.1956559 0.0336612 0.1111752
v 0.1976464 0.0326739 0.1030592
v 0.1885023 0.0231251 0.1123749
v 0.1900212 0.0218527 0.1046142
v 0.1784211 0.0162459 0.1126014
v 0.1799141 0.0139281 0.1051192
v 0.1663154 0.0180084 0.1099527
v 0.1673444 0.0150034 0.1023947
v 0.1554274 0.0243559 0.1059044
v 0.1563794 0.0209227 0.0981548
v 0.1471424 0.0320991 0.1009463
v 0.1477536 0.0282440 0.0938654
v 0.1432672 0.0375895 0.0962938
v 0.1425796 0.0365183 0.0903013
v 0.1551833 0.0283864 0.1143805
v 0.1560719 0.0312809 0.1245669
v 0.1657743 0.0209808 0.1180908
v 0.1657887 0.0233998 0.1272909
v 0.1578509 0.0184637 0.0904138
v 0.1685936 0.0124444 0.0950148
v 0.1773715 0.0186469 0.1205190
v 0.1813223 0.0122290 0.0978132
v 0.1768842 0.0204219 0.1292050
v 0.1488875 0.0258836 0.0859150
v 0.1982291 0.0715478 0.1147006
v 0.1974006 0.0715666 0.1250095
v 0.1925753 0.0821403 0.1125869
v 0.1920305 0.0823627 0.1233443
v 0.2038046 0.0722417 0.0835731
v 0.1954634 0.0824824 0.0790635
v 0.1435199 0.0565415 0.0775565
v 0.1425124 0.0531701 0.1088459
v 0.1433160 0.0526628 0.1205514
v 0.1461722 0.0397582 0.1085515
v 0.1419159 0.0458328 0.0793465
v 0.2055056 0.0581934 0.0878980
v 0.1993000 0.0590353 0.1166077
v 0.1981546 0.0591711 0.1264811
v 0.1821946 0.0878086 0.1106716
v 0.1719817 0.0923173 0.1094990
v 0.1624484 0.0957638 0.1087777
v 0.1533876 0.0930481 0.1082354
v 0.1432569 0.0646727 0.1085515
v 0.1871241 0.0244584 0.1205686
v 0.1936459 0.0345199 0.1195630
v 0.1977091 0.0463166 0.1183211
v 0.1991303 0.0314481 0.0950582
v 0.1430071 0.0352290 0.0819533
v 0.1462935 0.0675217 0.0762609
v 0.1564049 0.0942502 0.0765649
v 0.1638280 0.0970165 0.0766270
v 0.1719674 0.0929142 0.0757818
v 0.1825212 0.0873114 0.0739960
v 0.2035148 0.0441933 0.0917551
v 0.1913884 0.0206700 0.0970688
v 0.1969530 0.0464976 0.1276954
v 0.1865490 0.0253223 0.1293910
v 0.1482324 0.0412978 0.1219484
v 0.1422025 0.0641085 0.1198371
v 0.1524537 0.0928090 0.1194574
v 0.1617027 0.0960036 0.1200167
v 0.1718621 0.0936628 0.1207509
v 0.1820909 0.0888768 0.1219112
v 0.1930146 0.0348445 0.1286048
v 0.1743523 0.0993434 0.1836260
v 0.1606511 0.0998415 0.1835019
v 0.1732116 0.0984245 0.1695852
v 0.1602135 0.0986482 0.1693344
v 0.1723314 0.0974409 0.1566338
v 0.1600764 0.0975046 0.1561864
v 0.1719336 0.0961390 0.1441960
v 0.1604373 0.0966267 0.1436425
v 0.1718327 0.0948381 0.1323059
v 0.1609815 0.0961500 0.1316546
v 0.1659940 0.0249569 0.1374923
v 0.1662935 0.0256959 0.1485657
v 0.1662580 0.0256875 0.1606937
v 0.1661647 0.0254275 0.1737737
v 0.1656961 0.0245462 0.1879276
v 0.1473292 0.0949426 0.1836725
v 0.1482879 0.0938195 0.1692112
v 0.1492190 0.0929375 0.1558861
v 0.1503305 0.0924693 0.1432854
v 0.1513941 0.0924654 0.1312738
v 0.1451369 0.0390698 0.1868391
v 0.1468337 0.0409615 0.1721201
v 0.1480588 0.0419868 0.1586153
v 0.1487157 0.0423369 0.1459278
v 0.1487696 0.0421393 0.1338651
v 0.2020936 0.0408812 0.1860164
v 0.2003064 0.0443511 0.1600573
v 0.1989412 0.0453163 0.1484736
v 0.1551283 0.0317851 0.1880220
v 0.1560137 0.0327687 0.1732982
v 0.1566068 0.0332365 0.1598178
v 0.1568154 0.0333282 0.1473207
v 0.1566393 0.0328158 0.1356387
v 0.1407405 0.0635069 0.1315373
v 0.1389729 0.0629065 0.1436048
v 0.1369632 0.0618623 0.1562105
v 0.1345852 0.0602499 0.1694690
v 0.1316743 0.0584572 0.1837924
v 0.1361089 0.0468365 0.1847208
v 0.1871663 0.0937222 0.1836556
v 0.1831493 0.0911585 0.1449261
v 0.1841937 0.0922517 0.1572192
v 0.1941369 0.0834260 0.1580648
v 0.1999768 0.0711978 0.1588871
v 0.1930230 0.0831427 0.1459224
v 0.1984944 0.0714361 0.1470373
v 0.2027210 0.0691943 0.1845039
v 0.2042056 0.0546063 0.1852579
v 0.1969528 0.0829386 0.1838862
v 0.2016733 0.0576212 0.1595308
v 0.1997211 0.0583499 0.1478922
v 0.1824710 0.0899511 0.1332678
v 0.1975494 0.0715270 0.1357044
v 0.1922527 0.0826638 0.1343890
v 0.1405724 0.0509772 0.1572118
v 0.1423190 0.0520975 0.1446557
v 0.1432787 0.0525126 0.1324654
v 0.1976342 0.0459826 0.1377401
v 0.1983760 0.0587760 0.1368646
v 0.1954327 0.0329120 0.1606124
v 0.1944657 0.0337114 0.1491089
v 0.1935090 0.0343631 0.1384888
v 0.1865969 0.0256163 0.1390495
v 0.1869434 0.0253904 0.1496663
v 0.1962951 0.0302163 0.1865993
v 0.1879218 0.0236749 0.1868703
v 0.1873700 0.0250615 0.1611225
v 0.1769123 0.0216462 0.1388171
v 0.1770361 0.0222774 0.1495291
v 0.1771580 0.0223556 0.1612208
v 0.1773775 0.0214758 0.1872840
v 0.2014096 0.0429730 0.1725733
v 0.1960502 0.0317551 0.1730890
v 0.1877100 0.0246383 0.1734693
v 0.1773254 0.0223570 0.1737850
v 0.1387277 0.0492810 0.1704475
v 0.1855982 0.0929957 0.1699485
v 0.1955437 0.0832211 0.1705492
v 0.2015063 0.0704135 0.1712213
v 0.2033163 0.0564521 0.1719349
v 0.1608365 0.0130577 0.0751696
v 0.1594362 0.0160340 0.0828142
v 0.1713447 0.0063713 0.0809119
v 0.1699264 0.0096379 0.0879517
v 0.1845714 0.0066211 0.0845403
v 0.1827756 0.0100614 0.0909650
v 0.1525965 0.0220216 0.0696231
v 0.1507901 0.0241358 0.0778087
v 0.2038359 0.0695327 0.0629774
v 0.2043229 0.0711191 0.0731009
v 0.1971112 0.0796839 0.0590293
v 0.1966796 0.0811239 0.0686636
v 0.1472249 0.0545873 0.0584629
v 0.1493514 0.0639742 0.0553467
v 0.1450982 0.0562237 0.0674891
v 0.1465920 0.0439430 0.0613652
v 0.1441873 0.0452094 0.0702398
v 0.2066855 0.0555899 0.0682344
v 0.2059589 0.0570382 0.0780025
v 0.2038158 0.0262649 0.0802212
v 0.2008189 0.0294934 0.0873720
v 0.1475492 0.0326754 0.0647564
v 0.1509229 0.0697630 0.0520913
v 0.1513073 0.0746132 0.0542072
v 0.1579393 0.0961362 0.0568150
v 0.1641644 0.1000988 0.0571061
v 0.1715951 0.0998106 0.0568587
v 0.1781450 0.0958577 0.0558858
v 0.1837225 0.0911150 0.0552473
v 0.1897021 0.0859899 0.0564367
v 0.2064145 0.0405415 0.0742297
v 0.1961517 0.0145156 0.0840111
v 0.1451092 0.0340773 0.0733194
v 0.1484789 0.0685120 0.0637676
v 0.1571920 0.0949751 0.0665930
v 0.1639666 0.0984543 0.0667495
v 0.1716622 0.0965785 0.0659384
v 0.1784409 0.0921644 0.0639058
v 0.1830469 0.0896560 0.0613173
v 0.1878465 0.0861404 0.0647114
v 0.2044115 0.0427653 0.0829068
v 0.1932197 0.0184970 0.0900815
v 0.1375374 0.0844737 0.1837758
v 0.1327000 0.0714878 0.1838273
v 0.1509578 0.0793572 0.0655025
v 0.1528958 0.0881155 0.0661360
v 0.1466529 0.0757449 0.0975412
v 0.1491353 0.0855010 0.0972677
v 0.1396628 0.0843897 0.1692028
v 0.1352228 0.0724884 0.1692574
v 0.1518292 0.0821691 0.0556276
v 0.1536538 0.0898650 0.0563354
v 0.1481434 0.0766853 0.0868585
v 0.1506931 0.0861398 0.0867091
v 0.1431982 0.0747970 0.1194612
v 0.1460952 0.0849344 0.1193170
v 0.1414252 0.0842995 0.1558113
v 0.1373000 0.0733854 0.1558063
v 0.1476251 0.0852028 0.1080731
v 0.1449064 0.0752889 0.1082520
v 0.1430765 0.0843963 0.1431554
v 0.1392515 0.0740408 0.1431628
v 0.1445331 0.0846038 0.1310349
v 0.1411852 0.0744042 0.1311235
v 0.1494778 0.0777724 0.0761716
v 0.1519631 0.0869009 0.0763136
v 0.1377465 0.0714626 0.4582273
v 0.1394090 0.0807613 0.4348408
v 0.1412160 0.0900950 0.4112964
v 0.1432586 0.0989472 0.3866749
v 0.1454387 0.1061197 0.3602388
v 0.1477810 0.1096912 0.3316835
v 0.1496369 0.1101206 0.3022964
v 0.1523239 0.1086067 0.2736526
v 0.1554418 0.1061559 0.2467391
v 0.1586175 0.1032991 0.2219424
v 0.1606479 0.1013888 0.2004387
v 0.1646210 0.0228492 0.2043128
v 0.1631412 0.0199851 0.2239559
v 0.1611796 0.0158263 0.2458414
v 0.1589667 0.0112202 0.2689746
v 0.1561251 0.0069347 0.2932751
v 0.1526003 0.0035263 0.3184537
v 0.1487070 0.0002807 0.3435239
v 0.1446297 -0.0037609 0.3679039
v 0.1398944 -0.0096045 0.3912323
v 0.1349619 -0.0179791 0.4142998
v 0.1275719 -0.0314178 0.4349032
v 0.1190147 0.0672315 0.4561616
v 0.1204478 0.0754232 0.4324013
v 0.1212100 0.0843592 0.4085150
v 0.1220025 0.0924879 0.3837292
v 0.1229357 0.0995796 0.3572740
v 0.1249194 0.1036009 0.3288242
v 0.1277884 0.1040946 0.2996859
v 0.1323838 0.1022196 0.2715515
v 0.1373198 0.0996618 0.2455726
v 0.1421952 0.0974422 0.2216264
v 0.1456363 0.0962009 0.2006446
v 0.1532544 0.0300119 0.2047427
v 0.1508662 0.0271665 0.2243594
v 0.1483326 0.0234309 0.2462676
v 0.1456923 0.0196862 0.2696881
v 0.1425914 0.0158322 0.2941192
v 0.1389413 0.0127279 0.3193378
v 0.1352636 0.0098913 0.3444926
v 0.1315534 0.0055304 0.3690418
v 0.1268830 -0.0011086 0.3925872
v 0.1218905 -0.0094296 0.4162860
v 0.1138043 -0.0212201 0.4393909
v 0.0900769 0.0071745 0.4437509
v 0.0998565 0.0154911 0.4198290
v 0.1066089 0.0233499 0.3961448
v 0.1074646 0.0279552 0.3716244
v 0.1070750 0.0290623 0.3457943
v 0.1088899 0.0302289 0.3192619
v 0.1131309 0.0325469 0.2929977
v 0.1179367 0.0359531 0.2675861
v 0.1225508 0.0391917 0.2435106
v 0.1271215 0.0416451 0.2210434
v 0.1321820 0.0442869 0.2012776
v 0.1791561 -0.0070048 0.4460954
v 0.1838815 0.0003111 0.4216234
v 0.1910222 0.0056530 0.3979692
v 0.1976459 0.0099278 0.3738972
v 0.2025918 0.0144909 0.3488336
v 0.2053624 0.0193643 0.3228061
v 0.2061280 0.0243539 0.2966279
v 0.2059556 0.0288945 0.2709328
v 0.2048456 0.0325847 0.2460280
v 0.2038732 0.0352698 0.2224188
v 0.2028012 0.0380216 0.2019473
v 0.2052317 0.0522673 0.2012468
v 0.2064122 0.0505393 0.2223525
v 0.2074901 0.0488696 0.2469562
v 0.2088451 0.0462731 0.2727728
v 0.2104350 0.0425610 0.2991746
v 0.2107482 0.0379125 0.3259606
v 0.2085960 0.0325813 0.3523586
v 0.2030677 0.0277418 0.3775621
v 0.1958510 0.0227418 0.4016380
v 0.1887077 0.0166356 0.4255148
v 0.1836163 0.0097638 0.4504586
v 0.1012705 -0.0077839 0.4425763
v 0.1091419 0.0014638 0.4180415
v 0.1153445 0.0101372 0.3944923
v 0.1185542 0.0158532 0.3703135
v 0.1202105 0.0178726 0.3451234
v 0.1228623 0.0191767 0.3193096
v 0.1264408 0.0214468 0.2934255
v 0.1300226 0.0251126 0.2685097
v 0.1338281 0.0291161 0.2448849
v 0.1376781 0.0327239 0.2229033
v 0.1420549 0.0363189 0.2034954
v 0.1345603 0.0845491 0.2007088
v 0.1301270 0.0848191 0.2211994
v 0.1242160 0.0860749 0.2442461
v 0.1174972 0.0882225 0.2694101
v 0.1115836 0.0892026 0.2967813
v 0.1084350 0.0879622 0.3253661
v 0.1081671 0.0831999 0.3531042
v 0.1079257 0.0771347 0.3796034
v 0.1084372 0.0696302 0.4044314
v 0.1078781 0.0616575 0.4285872
v 0.1038705 0.0559517 0.4531937
v 0.1291444 0.0705666 0.2004719
v 0.1747770 0.1029682 0.2222338
v 0.1741191 0.1057421 0.2473178
v 0.1731018 0.1077593 0.2747063
v 0.1723288 0.1092462 0.3038136
v 0.1026236 0.0594063 0.3759058
v 0.1018680 0.0640741 0.3496115
v 0.1022924 0.0428911 0.3733065
v 0.1012895 0.0454615 0.3471406
v 0.1051590 0.0688711 0.2945086
v 0.1111244 0.0696051 0.2680160
v 0.1051426 0.0491267 0.2931108
v 0.1111499 0.0513173 0.2672854
v 0.1027278 0.0531976 0.4009668
v 0.1662729 0.0962226 0.3880189
v 0.1692920 0.1040806 0.3616807
v 0.2062338 0.0831526 0.3032996
v 0.2046365 0.0843375 0.2749606
v 0.1925914 0.0997260 0.3041487
v 0.1918907 0.0997127 0.2752305
v 0.2027040 0.0845525 0.2475522
v 0.2005522 0.0840421 0.2217397
v 0.1910997 0.0987267 0.2476568
v 0.1898679 0.0970873 0.2220096
v 0.2075963 0.0666893 0.2473448
v 0.2061124 0.0674262 0.2219606
v 0.2095923 0.0652347 0.2740360
v 0.2113636 0.0628404 0.3013792
v 0.2042232 0.0747230 0.3593748
v 0.1905032 0.0930507 0.3614921
v 0.2000049 0.0679259 0.3854454
v 0.1867357 0.0853741 0.3878071
v 0.1942100 0.0598149 0.4094726
v 0.1820237 0.0761773 0.4120137
v 0.1629511 0.0865164 0.4122622
v 0.1180680 0.0694865 0.2433192
v 0.1242951 0.0695635 0.2206007
v 0.1175666 0.0531900 0.2429239
v 0.1228049 0.0546791 0.2202722
v 0.1275457 0.0566138 0.2002507
v 0.1751471 0.1009442 0.2004535
v 0.1986215 0.0830876 0.2000352
v 0.2043750 0.0680008 0.2004751
v 0.1887216 0.0951678 0.2001881
v 0.1627552 -0.0224896 0.4147967
v 0.1586797 -0.0313839 0.4353327
v 0.1484025 -0.0234818 0.4131241
v 0.1437005 -0.0341517 0.4331929
v 0.1731028 -0.0094997 0.3684387
v 0.1673904 -0.0141278 0.3923938
v 0.1584869 -0.0094234 0.3675079
v 0.1534486 -0.0150416 0.3909367
v 0.1802691 -0.0066904 0.3945873
v 0.1871457 -0.0036105 0.3706876
v 0.1968569 0.0410401 0.4055018
v 0.2035731 0.0474497 0.3814263
v 0.1865582 0.0258297 0.4540624
v 0.1905493 0.0336431 0.4292162
v 0.1746350 -0.0127674 0.4179299
v 0.1713060 -0.0222724 0.4403708
v 0.2085386 0.0532163 0.3558410
v 0.1925770 0.0001996 0.3457175
v 0.1977710 0.0097564 0.2942791
v 0.1985264 0.0148345 0.2691607
v 0.1725983 0.0052049 0.2680149
v 0.1865895 0.0065593 0.2680862
v 0.1701446 0.0004630 0.2924223
v 0.1849640 0.0012573 0.2927593
v 0.1783509 -0.0069380 0.3435742
v 0.1629805 -0.0064767 0.3428952
v 0.0965679 0.0310287 0.4222615
v 0.0856319 0.0248927 0.4460043
v 0.1024223 0.0376831 0.3982733
v 0.0912429 0.0421237 0.4497044
v 0.1000724 0.0464961 0.4252828
v 0.1595425 0.0765135 0.4353316
v 0.1565211 0.0668940 0.4587664
v 0.1758608 0.0159201 0.2228578
v 0.1876073 0.0172419 0.2224015
v 0.1743195 0.0108741 0.2448932
v 0.1871425 0.0121320 0.2445946
v 0.1965339 0.0276143 0.2025332
v 0.1971822 0.0239503 0.2224586
v 0.1979793 0.0196856 0.2451298
v 0.1878751 0.0213257 0.2027330
v 0.1769456 0.0194046 0.2032488
v 0.1877063 0.0507704 0.4325166
v 0.1766175 0.0659729 0.4347205
v 0.1828341 0.0417386 0.4567125
v 0.1720304 0.0562366 0.4582790
v 0.1958694 0.0047529 0.3199970
v 0.2111086 0.0586931 0.3290107
v 0.2066019 0.0800356 0.3317702
v 0.1924773 0.0976831 0.3332396
v 0.1715312 0.1084133 0.3332507
v 0.1021077 0.0673184 0.3222576
v 0.1015645 0.0473347 0.3200217
v 0.1668974 -0.0034795 0.3176933
v 0.1822520 -0.0034076 0.3181045
usemtl blender_human_cc0
f 213 219 6
f 5 213 6
f 1 56 54
f 3 1 54
f 216 224 122
f 123 216 122
f 141 162 123
f 122 141 123
f 226 213 5
f 65 226 5
f 10 8 7
f 9 10 7
f 11 12 10
f 9 11 10
f 138 140 50
f 85 138 50
f 138 95 93
f 127 138 93
f 47 17 15
f 49 47 15
f 47 59 19
f 17 47 19
f 68 21 19
f 59 68 19
f 68 67 23
f 21 68 23
f 208 198 186
f 187 208 186
f 153 150 147
f 146 153 147
f 79 45 43
f 66 79 43
f 172 170 169
f 171 172 169
f 100 161 157
f 101 100 157
f 34 32 31
f 33 34 31
f 36 34 33
f 35 36 33
f 44 28 30
f 42 44 30
f 41 42 30
f 32 41 30
f 169 170 168
f 167 169 168
f 208 172 171
f 198 208 171
f 117 116 108
f 109 117 108
f 56 33 31
f 37 56 31
f 46 41 32
f 34 46 32
f 161 100 99
f 156 161 99
f 118 119 97
f 98 118 97
f 27 43 39
f 29 27 39
f 142 143 111
f 110 142 111
f 207 185 58
f 76 207 58
f 178 52 51
f 176 178 51
f 224 228 121
f 122 224 121
f 56 80 55
f 54 56 55
f 164 163 126
f 135 164 126
f 52 75 14
f 16 52 14
f 62 11 9
f 63 62 9
f 63 9 7
f 64 63 7
f 219 231 71
f 6 219 71
f 43 27 25
f 66 43 25
f 148 144 114
f 147 148 114
f 26 24 23
f 25 26 23
f 70 46 34
f 36 70 34
f 145 60 48
f 139 145 48
f 5 6 4
f 3 5 4
f 142 121 120
f 143 142 120
f 232 220 8
f 72 232 8
f 73 72 8
f 10 73 8
f 74 73 10
f 12 74 10
f 16 14 13
f 15 16 13
f 128 91 89
f 163 128 89
f 24 22 21
f 23 24 21
f 161 160 152
f 157 161 152
f 148 86 78
f 144 148 78
f 149 154 45
f 79 149 45
f 55 143 120
f 81 55 120
f 142 141 122
f 121 142 122
f 222 82 64
f 225 222 64
f 82 83 63
f 64 82 63
f 83 84 62
f 63 83 62
f 138 85 84
f 95 138 84
f 164 129 128
f 163 164 128
f 134 166 165
f 133 134 165
f 90 88 87
f 89 90 87
f 110 118 117
f 109 110 117
f 94 92 91
f 93 94 91
f 96 94 93
f 95 96 93
f 83 96 95
f 84 83 95
f 170 42 41
f 168 170 41
f 39 37 31
f 29 39 31
f 43 45 40
f 39 43 40
f 90 103 102
f 88 90 102
f 163 89 87
f 126 163 87
f 94 105 104
f 92 94 104
f 96 106 105
f 94 96 105
f 82 106 96
f 83 82 96
f 97 119 38
f 40 97 38
f 29 30 28
f 27 29 28
f 156 99 98
f 155 156 98
f 178 176 175
f 177 178 175
f 49 50 48
f 47 49 48
f 136 137 132
f 130 136 132
f 166 136 130
f 165 166 130
f 86 79 66
f 67 86 66
f 207 187 186
f 197 207 186
f 119 118 110
f 111 119 110
f 49 15 13
f 61 49 13
f 92 104 103
f 90 92 103
f 116 115 107
f 108 116 107
f 111 80 38
f 119 111 38
f 33 56 1
f 35 33 1
f 222 229 106
f 82 222 106
f 200 190 189
f 180 200 189
f 106 229 227
f 105 106 227
f 210 216 123
f 124 210 123
f 227 223 104
f 105 227 104
f 81 65 54
f 55 81 54
f 78 86 67
f 68 78 67
f 120 230 221
f 81 120 221
f 54 65 5
f 3 54 5
f 165 130 129
f 164 165 129
f 226 65 81
f 221 226 81
f 111 143 55
f 80 111 55
f 92 90 89
f 91 92 89
f 20 18 17
f 19 20 17
f 14 12 11
f 13 14 11
f 125 124 123
f 162 125 123
f 132 131 129
f 130 132 129
f 11 62 61
f 13 11 61
f 206 205 204
f 75 206 204
f 145 144 78
f 60 145 78
f 108 162 141
f 109 108 141
f 140 131 132
f 139 140 132
f 170 172 44
f 42 170 44
f 51 52 16
f 18 51 16
f 161 156 153
f 160 161 153
f 44 77 26
f 28 44 26
f 208 187 69
f 77 208 69
f 129 131 127
f 128 129 127
f 131 140 138
f 127 131 138
f 80 56 37
f 38 80 37
f 223 215 103
f 104 223 103
f 85 50 49
f 61 85 49
f 147 150 149
f 148 147 149
f 115 116 100
f 101 115 100
f 160 153 146
f 159 160 146
f 77 69 24
f 26 77 24
f 148 149 79
f 86 148 79
f 28 26 25
f 27 28 25
f 166 158 113
f 136 166 113
f 164 135 133
f 165 164 133
f 228 230 120
f 121 228 120
f 85 61 62
f 84 85 62
f 14 75 74
f 12 14 74
f 183 181 179
f 182 183 179
f 142 110 109
f 141 142 109
f 32 30 29
f 31 32 29
f 155 154 149
f 150 155 149
f 207 197 184
f 185 207 184
f 36 35 1
f 2 36 1
f 21 22 20
f 19 21 20
f 137 136 113
f 114 137 113
f 174 173 167
f 168 174 167
f 53 57 2
f 4 53 2
f 154 155 98
f 97 154 98
f 118 98 99
f 117 118 99
f 20 58 51
f 18 20 51
f 70 36 2
f 57 70 2
f 183 199 70
f 57 183 70
f 22 76 58
f 20 22 58
f 158 166 134
f 112 158 134
f 162 108 107
f 125 162 107
f 199 183 182
f 188 199 182
f 200 181 53
f 71 200 53
f 185 176 51
f 58 185 51
f 145 139 132
f 137 145 132
f 211 200 71
f 231 211 71
f 4 2 1
f 3 4 1
f 145 137 114
f 144 145 114
f 60 59 47
f 48 60 47
f 18 16 15
f 17 18 15
f 69 76 22
f 24 69 22
f 140 139 48
f 50 140 48
f 159 146 113
f 158 159 113
f 181 183 57
f 53 181 57
f 185 184 175
f 176 185 175
f 146 147 114
f 113 146 114
f 66 25 23
f 67 66 23
f 208 77 44
f 172 208 44
f 199 188 173
f 174 199 173
f 127 93 91
f 128 127 91
f 191 218 212
f 201 191 212
f 202 192 191
f 201 202 191
f 203 193 192
f 202 203 192
f 204 194 193
f 203 204 193
f 205 195 194
f 204 205 194
f 206 196 195
f 205 206 195
f 196 206 178
f 177 196 178
f 207 76 69
f 187 207 69
f 116 117 99
f 100 116 99
f 156 155 150
f 153 156 150
f 174 168 41
f 46 174 41
f 40 38 37
f 39 40 37
f 200 180 179
f 181 200 179
f 199 174 46
f 70 199 46
f 71 53 4
f 6 71 4
f 202 201 72
f 73 202 72
f 203 202 73
f 74 203 73
f 75 204 203
f 74 75 203
f 178 206 75
f 52 178 75
f 151 159 158
f 112 151 158
f 160 159 151
f 152 160 151
f 60 78 68
f 59 60 68
f 232 72 201
f 212 232 201
f 232 212 211
f 231 232 211
f 211 217 190
f 200 211 190
f 212 218 217
f 211 212 217
f 224 216 215
f 223 224 215
f 215 209 102
f 103 215 102
f 216 210 209
f 215 216 209
f 227 228 224
f 223 227 224
f 230 228 227
f 229 230 227
f 221 230 229
f 222 221 229
f 225 226 221
f 222 225 221
f 232 231 219
f 220 232 219
f 225 64 7
f 214 225 7
f 225 214 213
f 226 225 213
f 220 214 7
f 8 220 7
f 214 220 219
f 213 214 219
f 154 97 40
f 45 154 40
f 430 429 398
f 399 430 398
f 331 255 256
f 330 331 256
f 408 407 234
f 233 408 234
f 366 235 234
f 407 366 234
f 329 330 256
f 257 329 256
f 329 257 258
f 328 329 258
f 428 427 341
f 343 428 341
f 347 237 236
f 346 347 236
f 426 238 237
f 347 426 237
f 262 261 239
f 240 262 239
f 336 239 238
f 426 336 238
f 336 335 240
f 239 336 240
f 324 325 261
f 262 324 261
f 335 334 241
f 240 335 241
f 339 404 345
f 337 339 345
f 323 263 264
f 322 323 264
f 321 322 264
f 265 321 264
f 425 426 347
f 361 425 347
f 318 319 267
f 268 318 267
f 249 271 270
f 248 249 270
f 429 249 248
f 398 429 248
f 398 248 247
f 396 398 247
f 317 318 268
f 269 317 268
f 382 251 250
f 401 382 250
f 312 313 273
f 274 312 273
f 378 253 252
f 383 378 252
f 379 254 253
f 378 379 253
f 256 255 233
f 234 256 233
f 237 259 258
f 236 237 258
f 352 354 351
f 349 352 351
f 325 326 260
f 261 325 260
f 323 324 262
f 263 323 262
f 351 335 336
f 350 351 336
f 268 267 245
f 246 268 245
f 316 270 271
f 315 316 271
f 315 271 272
f 314 315 272
f 250 272 271
f 249 250 271
f 313 314 272
f 273 313 272
f 254 276 275
f 253 254 275
f 311 312 274
f 275 311 274
f 311 310 277
f 278 311 277
f 404 279 278
f 402 404 278
f 314 313 280
f 281 314 280
f 340 281 280
f 339 340 280
f 316 315 282
f 283 316 282
f 349 358 356
f 352 349 356
f 344 369 285
f 284 344 285
f 371 287 286
f 370 371 286
f 308 309 288
f 289 308 288
f 306 291 292
f 305 306 292
f 303 304 293
f 294 303 293
f 395 295 294
f 394 395 294
f 394 294 293
f 422 394 293
f 301 302 295
f 296 301 295
f 301 296 297
f 300 301 297
f 413 298 297
f 414 413 297
f 358 302 301
f 356 358 301
f 430 399 394
f 422 430 394
f 414 297 296
f 415 414 296
f 374 357 300
f 299 374 300
f 390 376 381
f 384 390 381
f 397 395 394
f 399 397 394
f 393 385 380
f 400 393 380
f 302 303 294
f 295 302 294
f 393 292 291
f 385 393 291
f 423 304 303
f 359 423 303
f 392 305 304
f 423 392 304
f 384 290 289
f 390 384 289
f 391 390 289
f 288 391 289
f 307 290 291
f 306 307 291
f 389 308 307
f 386 389 307
f 389 388 309
f 308 389 309
f 402 278 277
f 403 402 277
f 406 402 403
f 405 406 403
f 428 282 281
f 340 428 281
f 310 311 275
f 276 310 275
f 274 273 251
f 252 274 251
f 370 286 285
f 369 370 285
f 251 273 272
f 250 251 272
f 318 317 284
f 285 318 284
f 248 270 269
f 247 248 269
f 269 268 246
f 247 269 246
f 267 266 244
f 245 267 244
f 265 264 242
f 243 265 242
f 425 424 348
f 350 425 348
f 327 328 258
f 259 327 258
f 257 256 234
f 235 257 234
f 368 367 323
f 322 368 323
f 342 324 323
f 367 342 323
f 372 243 242
f 333 372 242
f 419 418 364
f 365 419 364
f 367 369 344
f 342 367 344
f 344 343 341
f 342 344 341
f 406 405 331
f 330 406 331
f 346 363 361
f 347 346 361
f 370 369 367
f 368 370 367
f 263 262 240
f 241 263 240
f 351 350 348
f 349 351 348
f 374 373 353
f 357 374 353
f 423 359 348
f 424 423 348
f 424 425 361
f 360 424 361
f 365 364 362
f 363 365 362
f 375 355 353
f 373 375 353
f 363 362 360
f 361 363 360
f 365 363 346
f 366 365 346
f 261 260 238
f 239 261 238
f 326 327 259
f 260 326 259
f 427 338 327
f 326 427 327
f 371 370 368
f 332 371 368
f 354 355 333
f 334 354 333
f 410 416 413
f 414 410 413
f 351 354 334
f 335 351 334
f 391 377 376
f 390 391 376
f 383 381 376
f 378 383 376
f 377 379 378
f 376 377 378
f 312 311 278
f 279 312 278
f 384 381 380
f 385 384 380
f 319 318 285
f 286 319 285
f 383 382 380
f 381 383 380
f 411 412 397
f 396 411 397
f 304 305 292
f 293 304 292
f 386 307 306
f 387 386 306
f 384 385 291
f 290 384 291
f 415 296 295
f 395 415 295
f 299 300 297
f 298 299 297
f 399 398 396
f 397 399 396
f 423 424 360
f 392 423 360
f 408 421 419
f 407 408 419
f 236 258 257
f 235 236 257
f 412 411 409
f 410 412 409
f 407 419 365
f 366 407 365
f 421 420 418
f 419 421 418
f 389 386 364
f 418 389 364
f 308 289 290
f 307 308 290
f 415 395 397
f 412 415 397
f 340 339 337
f 338 340 337
f 357 353 352
f 356 357 352
f 387 362 364
f 386 387 364
f 320 319 286
f 287 320 286
f 344 284 283
f 343 344 283
f 315 314 281
f 282 315 281
f 339 280 279
f 404 339 279
f 402 406 345
f 404 402 345
f 422 293 292
f 393 422 292
f 417 409 245
f 244 417 245
f 320 266 267
f 319 320 267
f 316 317 269
f 270 316 269
f 415 412 410
f 414 415 410
f 420 388 389
f 418 420 389
f 392 387 306
f 305 392 306
f 400 430 422
f 393 400 422
f 359 358 349
f 348 359 349
f 260 259 237
f 238 260 237
f 427 428 340
f 338 427 340
f 313 312 279
f 280 313 279
f 366 346 236
f 235 366 236
f 417 416 410
f 409 417 410
f 359 303 302
f 358 359 302
f 430 400 401
f 429 430 401
f 406 330 329
f 345 406 329
f 428 343 283
f 282 428 283
f 284 317 316
f 283 284 316
f 383 252 251
f 382 383 251
f 357 356 301
f 300 357 301
f 275 274 252
f 253 275 252
f 345 329 328
f 337 345 328
f 264 263 241
f 242 264 241
f 327 338 337
f 328 327 337
f 387 392 360
f 362 387 360
f 401 250 249
f 429 401 249
f 427 326 325
f 341 427 325
f 241 334 333
f 242 241 333
f 355 354 352
f 353 355 352
f 396 247 246
f 411 396 246
f 324 342 341
f 325 324 341
f 411 246 245
f 409 411 245
f 425 350 336
f 426 425 336
f 368 322 321
f 332 368 321
f 375 372 333
f 355 375 333
f 401 400 380
f 382 401 380
f 299 298 112
f 134 299 112
f 413 151 112
f 298 413 112
f 413 416 152
f 151 413 152
f 417 157 152
f 416 417 152
f 417 244 101
f 157 417 101
f 266 115 101
f 244 266 101
f 266 320 107
f 115 266 107
f 107 320 287
f 125 107 287
f 287 371 124
f 125 287 124
f 371 332 210
f 124 371 210
f 332 321 209
f 210 332 209
f 209 321 265
f 102 209 265
f 265 243 88
f 102 265 88
f 243 372 87
f 88 243 87
f 372 375 126
f 87 372 126
f 126 375 373
f 135 126 373
f 373 374 133
f 135 373 133
f 374 299 134
f 133 374 134
