# Level-zero anatomical extract from Blender Human Base Meshes v1.4.1 (CC0)
o human-neck
v 0.0260042 -0.1297387 1.5013802
v 0.0257440 -0.1295778 1.5000548
v 0.0253511 -0.1298250 1.4989280
v 0.0245708 -0.1308372 1.4980310
v 0.0233363 -0.1325188 1.4971606
v 0.0214651 -0.1346257 1.4963017
v 0.0190142 -0.1369389 1.4953754
v 0.0160773 -0.1391190 1.4942591
v 0.0123426 -0.1406641 1.4927374
v 0.0071527 -0.1416632 1.4908209
v 0.0146819 -0.1415361 1.4986320
v 0.0061255 -0.1435641 1.4979839
v 0.0205981 -0.1371526 1.4993182
v 0.0255358 -0.1337129 1.5013015
v 0.0244665 -0.1341904 1.5006871
v 0.0206618 -0.1392526 1.5011092
v 0.0143216 -0.1436833 1.5014906
v 0.0057303 -0.1465885 1.5020608
v 0.0108812 -0.1428865 1.4982436
v 0.0104028 -0.1453941 1.5017591
v 0.0254728 -0.1316059 1.5011586
v 0.0249906 -0.1316051 1.5002277
v 0.0246037 -0.1314300 1.4994781
v 0.0238838 -0.1327805 1.4993683
v 0.0177937 -0.1394669 1.4989371
v 0.0175455 -0.1415768 1.5012220
v 0.0227904 -0.1367224 1.5009186
v 0.0225753 -0.1347989 1.4993489
v 0.0592316 -0.1046455 1.5179099
v 0.0693955 -0.0592295 1.5300004
v 0.0274236 -0.1304995 1.4710768
v 0.0335551 -0.1240131 1.4742469
v 0.0398231 -0.1244028 1.4909760
v 0.0172928 -0.1447896 1.4899040
v 0.0064095 -0.1483121 1.4895780
v 0.0170188 -0.1469162 1.4925056
v 0.0064835 -0.1506340 1.4913781
v 0.0265961 -0.1356179 1.5012132
v 0.0301947 -0.1287501 1.4756309
v 0.0303502 -0.1256721 1.4695262
v 0.0264651 -0.1355906 1.5011958
v 0.0325788 -0.1366818 1.5023905
v 0.0439105 -0.1224565 1.5026848
v 0.0381235 -0.1302473 1.5008100
v 0.0364720 -0.1310225 1.4963843
v 0.0216797 -0.1370968 1.4789047
v 0.0308394 -0.1370275 1.5015719
v 0.0300465 -0.1365307 1.5005088
v 0.0285044 -0.1369798 1.4995428
v 0.0166225 -0.1483477 1.4955018
v 0.0064918 -0.1528780 1.4937894
v 0.0308565 -0.1346910 1.4935942
v 0.0062189 -0.1450054 1.4845804
v 0.0176271 -0.1410701 1.4837940
v 0.0242326 -0.1366557 1.4842290
v 0.0166846 -0.1406470 1.4798737
v 0.0422711 -0.1232456 1.4966636
v 0.0674276 -0.0574287 1.5175675
v 0.0397791 -0.1207892 1.4850888
v 0.0366670 -0.1257269 1.4856898
v 0.0297415 -0.1339250 1.4883300
v 0.0254666 -0.1389683 1.4929175
v 0.0242533 -0.1407427 1.4953001
v 0.0231409 -0.1418369 1.4978112
v 0.0121630 -0.1512312 1.4946218
v 0.0122635 -0.1494806 1.4916890
v 0.0122309 -0.1472367 1.4893738
v 0.0119660 -0.1436624 1.4840502
v 0.0166130 -0.1336319 1.4613181
v 0.0178249 -0.1285862 1.4595137
v 0.0200292 -0.1451006 1.4964119
v 0.0208429 -0.1438502 1.4936637
v 0.0216462 -0.1418406 1.4910742
v 0.0332816 -0.1271464 1.4806020
v 0.0366363 -0.1222906 1.4795195
v 0.0120098 -0.1420829 1.4678572
v 0.0093462 -0.1429771 1.4677474
v 0.0050401 -0.1436836 1.4677482
v 0.0116171 -0.1338986 1.4598229
v 0.0060770 -0.1339349 1.4591821
v 0.0255236 -0.1364642 1.5012357
v 0.0211651 -0.1408135 1.5013721
v 0.0182635 -0.1437003 1.5016353
v 0.0150948 -0.1464916 1.5019329
v 0.0108995 -0.1489323 1.5020316
v 0.0058466 -0.1504074 1.5017029
v 0.0336126 -0.1321561 1.4922482
v 0.0155916 -0.1413462 1.4760430
v 0.0108440 -0.1435949 1.4771936
v 0.0056471 -0.1449092 1.4780279
v 0.0198599 -0.1382377 1.4746350
v 0.0132514 -0.1405437 1.4661230
v 0.0097677 -0.1412015 1.4649453
v 0.0052086 -0.1416653 1.4644773
v 0.0114086 -0.1431235 1.4806806
v 0.0059285 -0.1445941 1.4813710
v 0.0428297 -0.1195667 1.4909587
v 0.0660058 -0.0897032 1.5275156
v 0.0687183 -0.0674682 1.5275471
v 0.0471375 -0.1179992 1.5039865
v 0.0541183 -0.1084339 1.5069575
v 0.0647903 -0.0877500 1.5129050
v 0.0671174 -0.0674857 1.5146959
v 0.0519774 -0.1084364 1.4988252
v 0.0622719 -0.0880606 1.5008752
v 0.0640265 -0.0690537 1.5000801
v 0.0455884 -0.1101608 1.4844244
v 0.0381948 -0.1132203 1.4725298
v 0.0341156 -0.1147174 1.4676217
v 0.0191424 -0.1178809 1.4580463
v 0.0419573 -0.1116097 1.4781866
v 0.0490580 -0.1090553 1.4912722
v 0.0580907 -0.0896254 1.4907168
v 0.0526745 -0.0916655 1.4825931
v 0.0468167 -0.0938039 1.4761192
v 0.0409306 -0.0959076 1.4710109
v 0.0354687 -0.0979555 1.4666510
v 0.0199831 -0.1027290 1.4567374
v 0.0584621 -0.0724510 1.4879217
v 0.0515984 -0.0762096 1.4794453
v 0.0450181 -0.0797506 1.4732274
v 0.0390063 -0.0830983 1.4683874
v 0.0334888 -0.0861974 1.4645245
v 0.0185613 -0.0926244 1.4562966
v 0.0195295 -0.0978199 1.4566098
v 0.0347542 -0.0922405 1.4659600
v 0.0403279 -0.0896794 1.4701180
v 0.0465627 -0.0869888 1.4750030
v 0.0531370 -0.0841968 1.4812702
v 0.0594282 -0.0813417 1.4896625
v 0.0640229 -0.0788892 1.5008688
v 0.0664889 -0.0776769 1.5138482
v 0.0676408 -0.0774796 1.5268116
v 0.0505659 -0.1133745 1.5054076
v 0.0485164 -0.1136776 1.4980558
v 0.0458772 -0.1144383 1.4911183
v 0.0427086 -0.1155560 1.4847231
v 0.0394268 -0.1170193 1.4787772
v 0.0361235 -0.1187171 1.4732622
v 0.0325226 -0.1202921 1.4683688
v 0.0185594 -0.1231322 1.4586511
v 0.0556292 -0.1095561 1.5151548
v 0.0520658 -0.1139545 1.5128343
v 0.0363327 -0.1331605 1.5040748
v 0.0387559 -0.1299961 1.5053422
v 0.0449576 -0.1223336 1.5087457
v 0.0484794 -0.1181695 1.5107219
v 0.0341650 -0.1354585 1.5031360
v 0.0356497 -0.1331893 1.5003904
v 0.0335170 -0.1351954 1.5003523
v 0.0319355 -0.1361269 1.5004979
v 0.0337736 -0.1336349 1.4968630
v 0.0315138 -0.1352427 1.4977582
v 0.0300569 -0.1361514 1.4987392
v 0.0287007 -0.1365132 1.4952658
v 0.0273960 -0.1378574 1.4970634
v 0.0262394 -0.1388978 1.4988354
v 0.0237103 -0.1384141 1.5012728
v 0.0063500 -0.1463566 1.4873823
v 0.0121918 -0.1451832 1.4869601
v 0.0176187 -0.1427132 1.4871358
v 0.0227290 -0.1395975 1.4882271
v 0.0272442 -0.1368042 1.4905608
v 0.0416404 -0.1263165 1.5069220
v 0.0408751 -0.1265917 1.5015862
v 0.0393343 -0.1274818 1.4963187
v 0.0367219 -0.1287024 1.4913671
v 0.0331961 -0.1301515 1.4867104
v 0.0292643 -0.1316013 1.4821225
v 0.0262027 -0.1330206 1.4773147
v 0.0238259 -0.1346226 1.4728917
v 0.0149598 -0.1376962 1.4637005
v 0.0106342 -0.1382130 1.4621127
v 0.0055751 -0.1384208 1.4614028
v 0.0286548 -0.1367344 1.5011252
v 0.0281498 -0.1366008 1.5007806
v 0.0269663 -0.1374135 1.5005019
v 0.0249540 -0.1392456 1.5003283
v 0.0219775 -0.1417197 1.5000924
v 0.0190678 -0.1449308 1.4993889
v 0.0159121 -0.1482171 1.4990693
v 0.0115736 -0.1510430 1.4985901
v 0.0061233 -0.1526941 1.4979388
v 0.0453166 -0.1185967 1.4972936
v 0.0627591 -0.0985532 1.5215609
v 0.0578592 -0.1029043 1.5087271
v 0.0616496 -0.0962354 1.5108089
v 0.0523279 -0.1032581 1.4913470
v 0.0554628 -0.0968640 1.4912360
v 0.0175694 -0.0871275 1.4536514
v 0.0319316 -0.0795078 1.4613553
v 0.0372582 -0.0760596 1.4648387
v 0.0428368 -0.0722899 1.4694287
v 0.0486982 -0.0682271 1.4756709
v 0.0550501 -0.0637690 1.4840447
v 0.0616089 -0.0580093 1.4972295
v 0.0124770 -0.1288277 1.4582067
v 0.0066367 -0.1288686 1.4578053
v 0.0135218 -0.1184686 1.4565623
v 0.0073878 -0.1187595 1.4558678
v 0.0079305 -0.1038214 1.4541099
v 0.0143170 -0.1035267 1.4550112
v 0.0075531 -0.0936854 1.4535280
v 0.0135198 -0.0934734 1.4546602
v 0.0141023 -0.0986485 1.4549646
v 0.0078093 -0.0988601 1.4540443
v 0.0130675 -0.1235559 1.4573561
v 0.0070735 -0.1237634 1.4568498
v 0.0072562 -0.0892105 1.4498360
v 0.0129005 -0.0884171 1.4516431
v 0.0508671 -0.0983788 1.4835278
v 0.0483773 -0.1044875 1.4840869
v 0.0356398 -0.1035240 1.4669657
v 0.0351866 -0.1090996 1.4672015
v 0.0459323 -0.1001181 1.4769874
v 0.0442304 -0.1060195 1.4776335
v 0.0407631 -0.1018416 1.4715452
v 0.0398122 -0.1075927 1.4719908
v 0.0200155 -0.1076831 1.4569639
v 0.0197056 -0.1127506 1.4573822
v 0.0592481 -0.0959760 1.5003358
v 0.0556411 -0.1026308 1.4995978
v 0.0078552 -0.1087406 1.4543799
v 0.0076453 -0.1137428 1.4549661
v 0.0139385 -0.1134352 1.4557592
v 0.0142380 -0.1084215 1.4552422
v 0.0208912 -0.1330385 1.4637519
v 0.0244278 -0.1319955 1.4670838
v 0.0268109 -0.1270680 1.4653586
v 0.0226250 -0.1280109 1.4619641
v 0.0158434 -0.1400213 1.4681416
v 0.0180245 -0.1393321 1.4710455
v 0.0253055 -0.1014760 1.4593141
v 0.0303393 -0.0998619 1.4627661
v 0.0184981 -0.1369993 1.4660223
v 0.0213971 -0.1360312 1.4691128
v 0.0236851 -0.1224762 1.4609827
v 0.0283536 -0.1215426 1.4642652
v 0.0143559 -0.1420080 1.4726132
v 0.0130210 -0.1422293 1.4697206
v 0.0234826 -0.0910856 1.4584904
v 0.0284199 -0.0889045 1.4612300
v 0.0254192 -0.1065812 1.4595889
v 0.0305532 -0.1051684 1.4630134
v 0.0102192 -0.1440139 1.4738164
v 0.0095702 -0.1438310 1.4706286
v 0.0251076 -0.1117604 1.4599388
v 0.0302655 -0.1105372 1.4632096
v 0.0269414 -0.0826338 1.4584213
v 0.0221710 -0.0852145 1.4558837
v 0.0053961 -0.1451463 1.4746205
v 0.0051238 -0.1447466 1.4711611
v 0.0244696 -0.1170448 1.4604108
v 0.0294958 -0.1159994 1.4635823
v 0.0246713 -0.0964103 1.4590552
v 0.0296668 -0.0945257 1.4622411
v -0.0260707 -0.1297689 1.5013725
v -0.0257893 -0.1296152 1.5000356
v -0.0253627 -0.1298559 1.4989110
v -0.0245823 -0.1308494 1.4980096
v -0.0233317 -0.1325146 1.4971688
v -0.0214662 -0.1346184 1.4963135
v -0.0190201 -0.1369160 1.4953544
v -0.0160742 -0.1390768 1.4942186
v -0.0123276 -0.1405973 1.4926926
v -0.0071447 -0.1416027 1.4908085
v -0.0146021 -0.1414782 1.4988005
v -0.0060866 -0.1435063 1.4981701
v -0.0205482 -0.1371322 1.4992676
v -0.0254184 -0.1336742 1.5011817
v -0.0244418 -0.1341981 1.5007558
v -0.0205817 -0.1391721 1.5011077
v -0.0142730 -0.1437549 1.5016798
v -0.0056994 -0.1466337 1.5021415
v -0.0108022 -0.1428268 1.4984914
v -0.0103575 -0.1455059 1.5019164
v -0.0253932 -0.1315252 1.5011145
v -0.0249728 -0.1315635 1.5002428
v -0.0246584 -0.1314250 1.4994873
v -0.0239509 -0.1327368 1.4994271
v -0.0177462 -0.1394303 1.4989904
v -0.0175194 -0.1415600 1.5013558
v -0.0227780 -0.1367497 1.5009741
v -0.0225815 -0.1347913 1.4993914
v -0.0592310 -0.1046585 1.5179114
v -0.0694063 -0.0592457 1.5299329
v -0.0274160 -0.1304717 1.4710934
v -0.0335540 -0.1239924 1.4742590
v -0.0398154 -0.1244054 1.4909910
v -0.0172958 -0.1447746 1.4899371
v -0.0064011 -0.1482741 1.4895855
v -0.0170726 -0.1469511 1.4925420
v -0.0064968 -0.1506156 1.4913193
v -0.0265351 -0.1356755 1.5011524
v -0.0302065 -0.1287358 1.4756478
v -0.0303750 -0.1256731 1.4695174
v -0.0265441 -0.1355866 1.5012710
v -0.0325259 -0.1366222 1.5022960
v -0.0438964 -0.1224552 1.5026913
v -0.0381270 -0.1302493 1.5008185
v -0.0364375 -0.1309962 1.4964046
v -0.0216853 -0.1371019 1.4789152
v -0.0308262 -0.1369391 1.5014827
v -0.0300869 -0.1364657 1.5004264
v -0.0284554 -0.1370536 1.4996246
v -0.0166075 -0.1483047 1.4955504
v -0.0065040 -0.1527912 1.4936193
v -0.0308476 -0.1346853 1.4935819
v -0.0062195 -0.1450372 1.4845512
v -0.0176455 -0.1410701 1.4838073
v -0.0242268 -0.1366615 1.4842284
v -0.0166986 -0.1406440 1.4798851
v -0.0422572 -0.1232451 1.4966787
v -0.0674040 -0.0574571 1.5175148
v -0.0397756 -0.1207951 1.4850972
v -0.0366931 -0.1257505 1.4856826
v -0.0297375 -0.1339437 1.4883137
v -0.0254583 -0.1389417 1.4929358
v -0.0242629 -0.1407317 1.4953007
v -0.0231986 -0.1418220 1.4977540
v -0.0121636 -0.1511643 1.4947001
v -0.0122953 -0.1494744 1.4917552
v -0.0122212 -0.1471703 1.4894419
v -0.0119903 -0.1437020 1.4840308
v -0.0166136 -0.1336237 1.4613291
v -0.0178320 -0.1285685 1.4595463
v -0.0200985 -0.1451049 1.4964241
v -0.0209011 -0.1438642 1.4936644
v -0.0216648 -0.1418433 1.4910760
v -0.0333005 -0.1271548 1.4806036
v -0.0366305 -0.1222894 1.4795232
v -0.0120215 -0.1421020 1.4678402
v -0.0093556 -0.1429771 1.4677358
v -0.0050318 -0.1436723 1.4677751
v -0.0116209 -0.1339086 1.4598173
v -0.0060835 -0.1339518 1.4591763
v -0.0254748 -0.1364983 1.5012772
v -0.0212262 -0.1408262 1.5014318
v -0.0182594 -0.1437331 1.5015743
v -0.0150023 -0.1465262 1.5018126
v -0.0108936 -0.1489310 1.5019449
v -0.0058452 -0.1503867 1.5016111
v -0.0335856 -0.1321408 1.4922624
v -0.0155905 -0.1413065 1.4760485
v -0.0108576 -0.1435973 1.4771850
v -0.0056811 -0.1449914 1.4780272
v -0.0198842 -0.1382495 1.4746401
v -0.0132597 -0.1405463 1.4661165
v -0.0097847 -0.1412385 1.4649022
v -0.0051489 -0.1417099 1.4644775
v -0.0114255 -0.1431268 1.4806710
v -0.0059331 -0.1445940 1.4813671
v -0.0427926 -0.1195502 1.4909829
v -0.0659949 -0.0897227 1.5275091
v -0.0687373 -0.0674237 1.5275998
v -0.0471317 -0.1180063 1.5039895
v -0.0541343 -0.1084337 1.5069529
v -0.0647808 -0.0877635 1.5128794
v -0.0671294 -0.0674275 1.5146902
v -0.0519847 -0.1084173 1.4988291
v -0.0622899 -0.0880498 1.5008667
v -0.0639942 -0.0690352 1.5001243
v -0.0455817 -0.1101543 1.4844300
v -0.0381981 -0.1132075 1.4725320
v -0.0341053 -0.1147095 1.4676235
v -0.0191557 -0.1178871 1.4580122
v -0.0419674 -0.1116084 1.4781792
v -0.0490695 -0.1090602 1.4912686
v -0.0581093 -0.0896310 1.4907179
v -0.0526992 -0.0916841 1.4825746
v -0.0468188 -0.0938151 1.4761038
v -0.0409474 -0.0959117 1.4709996
v -0.0354612 -0.0979479 1.4666710
v -0.0199735 -0.1027342 1.4567245
v -0.0584568 -0.0724602 1.4879173
v -0.0515880 -0.0762173 1.4794204
v -0.0450227 -0.0797632 1.4732039
v -0.0390227 -0.0831245 1.4683534
v -0.0335132 -0.0862024 1.4644918
v -0.0185592 -0.0926435 1.4563339
v -0.0195059 -0.0978229 1.4566356
v -0.0347469 -0.0922400 1.4659700
v -0.0403272 -0.0897020 1.4701151
v -0.0465490 -0.0870032 1.4749901
v -0.0531258 -0.0841984 1.4812522
v -0.0594371 -0.0813460 1.4896730
v -0.0640211 -0.0788922 1.5008495
v -0.0664878 -0.0776647 1.5137997
v -0.0676420 -0.0774741 1.5268618
v -0.0505598 -0.1133683 1.5054061
v -0.0485269 -0.1136612 1.4980552
v -0.0458938 -0.1144455 1.4911135
v -0.0427010 -0.1155554 1.4847286
v -0.0394249 -0.1170238 1.4787743
v -0.0361027 -0.1186994 1.4732698
v -0.0324915 -0.1202660 1.4684013
v -0.0185645 -0.1231323 1.4586674
v -0.0556060 -0.1095529 1.5151545
v -0.0520535 -0.1139514 1.5128305
v -0.0363275 -0.1331500 1.5040811
v -0.0387494 -0.1299860 1.5053449
v -0.0449614 -0.1223399 1.5087469
v -0.0484592 -0.1181665 1.5107235
v -0.0341819 -0.1354454 1.5031395
v -0.0356575 -0.1331973 1.5004071
v -0.0335009 -0.1351752 1.5003414
v -0.0318627 -0.1360714 1.5003676
v -0.0337673 -0.1336274 1.4968805
v -0.0315190 -0.1352419 1.4977114
v -0.0299714 -0.1361036 1.4986948
v -0.0286618 -0.1364485 1.4952705
v -0.0273183 -0.1378983 1.4972148
v -0.0261656 -0.1389625 1.4990177
v -0.0236789 -0.1384508 1.5012788
v -0.0063507 -0.1463751 1.4873440
v -0.0122077 -0.1452052 1.4869379
v -0.0176420 -0.1427224 1.4871429
v -0.0227249 -0.1395938 1.4882164
v -0.0272187 -0.1368102 1.4905714
v -0.0416675 -0.1263407 1.5069216
v -0.0408850 -0.1266012 1.5015936
v -0.0393146 -0.1274719 1.4963372
v -0.0367090 -0.1286953 1.4913809
v -0.0332104 -0.1301687 1.4867014
v -0.0292612 -0.1316070 1.4821177
v -0.0262006 -0.1330095 1.4773229
v -0.0238394 -0.1346131 1.4728988
v -0.0149494 -0.1376674 1.4637257
v -0.0106462 -0.1382162 1.4621176
v -0.0055435 -0.1384589 1.4613911
v -0.0286242 -0.1367840 1.5011203
v -0.0281275 -0.1366745 1.5008160
v -0.0269133 -0.1374753 1.5005753
v -0.0248571 -0.1392580 1.5004221
v -0.0220367 -0.1417035 1.4999623
v -0.0191439 -0.1449858 1.4993635
v -0.0158907 -0.1482290 1.4990278
v -0.0115866 -0.1510328 1.4985533
v -0.0061370 -0.1526551 1.4978112
v -0.0452872 -0.1185795 1.4973109
v -0.0627749 -0.0985702 1.5215617
v -0.0578560 -0.1029120 1.5087292
v -0.0616453 -0.0962404 1.5108317
v -0.0523410 -0.1032735 1.4913465
v -0.0554892 -0.0968823 1.4912323
v -0.0175573 -0.0871225 1.4536421
v -0.0319587 -0.0795295 1.4613130
v -0.0372633 -0.0760728 1.4648229
v -0.0428230 -0.0722739 1.4694757
v -0.0486664 -0.0682235 1.4756879
v -0.0550109 -0.0637776 1.4840297
v -0.0616240 -0.0580126 1.4972203
v -0.0124794 -0.1288295 1.4582191
v -0.0066497 -0.1288810 1.4577700
v -0.0135401 -0.1184638 1.4565482
v -0.0073919 -0.1187488 1.4558883
v -0.0078957 -0.1038244 1.4541056
v -0.0143098 -0.1035230 1.4549854
v -0.0076205 -0.0937038 1.4535279
v -0.0135000 -0.0934889 1.4546862
v -0.0140611 -0.0986449 1.4550101
v -0.0078196 -0.0988569 1.4541265
v -0.0130792 -0.1235568 1.4573585
v -0.0070809 -0.1237596 1.4568563
v -0.0072180 -0.0892138 1.4498160
v -0.0128813 -0.0884118 1.4516071
v -0.0508884 -0.0983936 1.4835351
v -0.0483712 -0.1044824 1.4840991
v -0.0356290 -0.1035220 1.4669765
v -0.0351629 -0.1090987 1.4672103
v -0.0459193 -0.1001159 1.4769874
v -0.0442293 -0.1060179 1.4776250
v -0.0407532 -0.1018299 1.4715689
v -0.0398037 -0.1075805 1.4720068
v -0.0200167 -0.1076876 1.4569465
v -0.0197077 -0.1127538 1.4573598
v -0.0592878 -0.0959830 1.5003420
v -0.0556725 -0.1026513 1.4995948
v -0.0078321 -0.1087373 1.4543784
v -0.0076407 -0.1137366 1.4549681
v -0.0139536 -0.1134258 1.4557505
v -0.0142456 -0.1084191 1.4552386
v 0.0000094 -0.1137933 1.4547822
v 0.0000055 -0.1188066 1.4557705
v 0.0000017 -0.1238059 1.4567792
v 0.0000113 -0.1038489 1.4538385
v -0.0000885 -0.0987876 1.4538467
v -0.0001635 -0.0936032 1.4531908
v -0.0000050 -0.1288672 1.4577229
v -0.0000017 -0.1338866 1.4591416
v 0.0000377 -0.1384531 1.4613577
v 0.0000470 -0.1417727 1.4645284
v 0.0000158 -0.1437921 1.4678917
v -0.0000043 -0.1453891 1.4783406
v 0.0000078 -0.1450378 1.4816763
v 0.0000080 -0.1453256 1.4848636
v -0.0000012 -0.1465879 1.4875990
v -0.0000061 -0.1484449 1.4896847
v -0.0000198 -0.1506645 1.4911263
v -0.0000468 -0.1530185 1.4929354
v -0.0000110 -0.1529918 1.4973264
v 0.0000155 -0.1508943 1.5013123
v 0.0000143 -0.1471108 1.5021752
v 0.0000088 -0.1437536 1.4980116
v 0.0000078 -0.1421389 1.4898968
v 0.0000093 -0.0894541 1.4490762
v 0.0000184 -0.1087953 1.4541407
v -0.0208731 -0.1330132 1.4637822
v -0.0244303 -0.1319839 1.4670943
v -0.0268217 -0.1270715 1.4653568
v -0.0226477 -0.1280099 1.4619529
v -0.0158453 -0.1399989 1.4681582
v -0.0180333 -0.1393151 1.4710484
v -0.0253007 -0.1014789 1.4593143
v -0.0303702 -0.0998509 1.4627330
v -0.0184839 -0.1369678 1.4660442
v -0.0213970 -0.1360078 1.4691176
v -0.0236917 -0.1224711 1.4609801
v -0.0283736 -0.1215423 1.4642594
v -0.0000030 -0.1454850 1.4748790
v 0.0000047 -0.1449737 1.4713442
v -0.0143501 -0.1419760 1.4726126
v -0.0130320 -0.1422390 1.4697154
v -0.0234800 -0.0910927 1.4584901
v -0.0284051 -0.0888999 1.4612454
v -0.0254259 -0.1065731 1.4596004
v -0.0305657 -0.1051627 1.4630028
v -0.0102356 -0.1440352 1.4738011
v -0.0095939 -0.1438749 1.4706093
v -0.0251320 -0.1117572 1.4599096
v -0.0302719 -0.1105328 1.4631990
v -0.0269275 -0.0826388 1.4584016
v -0.0221448 -0.0852108 1.4558616
v -0.0054223 -0.1451935 1.4746064
v -0.0051412 -0.1447616 1.4711511
v -0.0244960 -0.1170508 1.4603605
v -0.0294996 -0.1159948 1.4635847
v -0.0246712 -0.0964088 1.4590368
v -0.0296635 -0.0945143 1.4622440
usemtl blender_human_cc0
f 205 125 118
f 202 205 118
f 233 243 219
f 118 233 219
f 237 230 70
f 141 237 70
f 138 75 32
f 139 138 32
f 40 140 139
f 32 40 139
f 485 208 198
f 489 485 198
f 491 174 94
f 492 491 94
f 32 39 31
f 40 32 31
f 125 205 204
f 124 125 204
f 255 233 118
f 125 255 118
f 138 139 108
f 111 138 108
f 140 109 108
f 139 140 108
f 174 80 79
f 173 174 79
f 506 209 203
f 488 506 203
f 488 203 206
f 487 488 206
f 227 235 172
f 69 227 172
f 241 255 125
f 124 241 125
f 126 127 116
f 117 126 116
f 129 130 113
f 114 129 113
f 95 96 90
f 89 95 90
f 218 216 111
f 108 218 111
f 174 173 93
f 94 174 93
f 492 94 78
f 493 492 78
f 138 111 107
f 137 138 107
f 74 39 32
f 75 74 32
f 75 138 137
f 59 75 137
f 136 137 107
f 112 136 107
f 495 494 90
f 96 495 90
f 127 128 115
f 116 127 115
f 501 500 51
f 183 501 51
f 111 216 212
f 107 111 212
f 95 68 53
f 96 95 53
f 91 171 170
f 46 91 170
f 94 93 77
f 78 94 77
f 127 126 123
f 122 127 123
f 170 39 74
f 169 170 74
f 173 79 69
f 172 173 69
f 74 75 59
f 60 74 59
f 163 162 55
f 61 163 55
f 521 493 78
f 252 521 78
f 93 173 172
f 92 93 172
f 249 191 123
f 242 249 123
f 191 192 122
f 123 191 122
f 68 160 159
f 53 68 159
f 497 496 53
f 159 497 53
f 127 122 121
f 128 127 121
f 188 112 107
f 212 188 107
f 188 222 104
f 112 188 104
f 68 95 56
f 54 68 56
f 46 55 54
f 56 46 54
f 136 112 104
f 135 136 104
f 251 245 89
f 90 251 89
f 89 88 56
f 95 89 56
f 231 240 76
f 92 231 76
f 129 114 115
f 128 129 115
f 136 97 59
f 137 136 59
f 33 60 59
f 97 33 59
f 245 239 88
f 89 245 88
f 91 46 56
f 88 91 56
f 77 93 92
f 76 77 92
f 143 147 100
f 134 143 100
f 62 163 52
f 155 62 52
f 167 166 45
f 87 167 45
f 193 121 122
f 192 193 122
f 194 120 121
f 193 194 121
f 497 159 35
f 498 497 35
f 499 498 35
f 37 499 35
f 142 143 134
f 101 142 134
f 135 104 101
f 134 135 101
f 168 60 33
f 167 168 33
f 169 74 60
f 168 169 60
f 129 120 119
f 130 129 119
f 46 170 169
f 55 46 169
f 167 87 61
f 168 167 61
f 195 119 120
f 194 195 120
f 166 167 33
f 57 166 33
f 55 169 168
f 61 55 168
f 135 184 97
f 136 135 97
f 129 128 121
f 120 129 121
f 500 499 37
f 51 500 37
f 29 142 101
f 186 29 101
f 130 131 105
f 113 130 105
f 132 133 98
f 102 132 98
f 184 135 134
f 100 184 134
f 160 161 34
f 67 160 34
f 166 165 44
f 45 166 44
f 97 184 57
f 33 97 57
f 61 87 52
f 163 61 52
f 184 100 43
f 57 184 43
f 162 163 62
f 73 162 62
f 162 73 34
f 161 162 34
f 66 37 35
f 67 66 35
f 131 132 102
f 105 131 102
f 65 51 37
f 66 65 37
f 66 67 34
f 36 66 34
f 65 66 36
f 50 65 36
f 52 87 45
f 152 52 45
f 162 161 54
f 55 162 54
f 147 146 43
f 100 147 43
f 196 106 119
f 195 196 119
f 166 57 43
f 165 166 43
f 180 181 50
f 71 180 50
f 155 156 63
f 62 155 63
f 131 106 103
f 132 131 103
f 179 180 71
f 64 179 71
f 503 502 86
f 18 503 86
f 182 183 51
f 65 182 51
f 132 103 99
f 133 132 99
f 182 65 50
f 181 182 50
f 183 182 85
f 86 183 85
f 182 181 84
f 85 182 84
f 34 73 72
f 36 34 72
f 71 50 36
f 72 71 36
f 164 165 43
f 146 164 43
f 84 181 180
f 83 84 180
f 144 149 44
f 145 144 44
f 72 73 62
f 63 72 62
f 153 155 52
f 152 153 52
f 196 58 103
f 106 196 103
f 71 72 63
f 64 71 63
f 152 45 44
f 149 152 44
f 164 145 44
f 165 164 44
f 86 85 20
f 18 86 20
f 154 153 150
f 151 154 150
f 103 58 30
f 99 103 30
f 157 64 63
f 156 157 63
f 18 20 19
f 12 18 19
f 19 11 8
f 9 19 8
f 503 18 12
f 504 503 12
f 20 85 84
f 17 20 84
f 154 151 48
f 49 154 48
f 153 152 149
f 150 153 149
f 180 179 82
f 83 180 82
f 150 149 144
f 148 150 144
f 26 25 11
f 17 26 11
f 504 12 10
f 505 504 10
f 12 19 9
f 10 12 9
f 20 17 11
f 19 20 11
f 157 156 154
f 49 157 154
f 151 150 148
f 42 151 148
f 178 157 49
f 177 178 49
f 83 82 16
f 26 83 16
f 84 83 26
f 17 84 26
f 11 25 7
f 8 11 7
f 48 151 42
f 47 48 42
f 82 158 27
f 16 82 27
f 25 26 16
f 13 25 16
f 178 177 81
f 158 178 81
f 25 13 6
f 7 25 6
f 177 49 48
f 176 177 48
f 175 176 48
f 47 175 48
f 177 176 41
f 81 177 41
f 158 81 15
f 27 158 15
f 27 28 13
f 16 27 13
f 81 41 14
f 15 81 14
f 28 27 15
f 24 28 15
f 28 24 4
f 5 28 4
f 22 21 1
f 2 22 1
f 3 23 22
f 2 3 22
f 22 15 14
f 21 22 14
f 24 23 3
f 4 24 3
f 24 15 22
f 23 24 22
f 226 219 220
f 225 226 220
f 226 202 118
f 219 226 118
f 202 226 223
f 201 202 223
f 13 28 5
f 6 13 5
f 178 179 64
f 157 178 64
f 178 158 82
f 179 178 82
f 156 155 153
f 154 156 153
f 222 186 101
f 104 222 101
f 225 224 223
f 226 225 223
f 485 484 200
f 208 485 200
f 170 171 31
f 39 170 31
f 238 254 109
f 140 238 109
f 174 491 490
f 80 174 490
f 229 40 31
f 228 229 31
f 214 218 108
f 109 214 108
f 495 96 53
f 496 495 53
f 235 231 92
f 172 235 92
f 130 119 106
f 131 130 106
f 160 68 54
f 161 160 54
f 41 176 175
f 38 41 175
f 483 224 200
f 484 483 200
f 160 67 35
f 159 160 35
f 187 221 105
f 102 187 105
f 501 183 86
f 502 501 86
f 489 198 80
f 490 489 80
f 225 220 110
f 199 225 110
f 207 199 110
f 141 207 110
f 210 190 124
f 204 210 124
f 197 70 69
f 79 197 69
f 487 206 201
f 486 487 201
f 201 206 205
f 202 201 205
f 209 210 204
f 203 209 204
f 198 197 79
f 80 198 79
f 208 207 197
f 198 208 197
f 208 200 199
f 207 208 199
f 205 206 203
f 204 205 203
f 225 199 200
f 224 225 200
f 207 141 70
f 197 207 70
f 222 221 187
f 186 222 187
f 507 486 201
f 223 507 201
f 483 507 223
f 224 483 223
f 213 117 116
f 217 213 116
f 217 218 214
f 213 217 214
f 187 102 98
f 185 187 98
f 186 187 185
f 29 186 185
f 189 113 105
f 221 189 105
f 221 222 188
f 189 221 188
f 211 114 113
f 189 211 113
f 211 189 188
f 212 211 188
f 215 115 114
f 211 215 114
f 216 215 211
f 212 216 211
f 217 116 115
f 215 217 115
f 218 217 215
f 216 218 215
f 253 110 220
f 247 253 220
f 243 247 220
f 219 243 220
f 109 254 248
f 214 109 248
f 244 248 247
f 243 244 247
f 214 248 244
f 213 214 244
f 248 254 253
f 247 248 253
f 236 171 91
f 232 236 91
f 236 232 231
f 235 236 231
f 230 227 69
f 70 230 69
f 227 230 229
f 228 227 229
f 237 141 110
f 253 237 110
f 253 254 238
f 237 253 238
f 246 77 76
f 240 246 76
f 245 246 240
f 239 245 240
f 232 91 88
f 239 232 88
f 239 240 231
f 232 239 231
f 252 78 77
f 246 252 77
f 252 246 245
f 251 252 245
f 250 241 124
f 190 250 124
f 250 249 242
f 241 250 242
f 494 520 251
f 90 494 251
f 521 252 251
f 520 521 251
f 256 242 123
f 126 256 123
f 256 255 241
f 242 256 241
f 236 228 31
f 171 236 31
f 236 235 227
f 228 236 227
f 256 126 117
f 234 256 117
f 256 234 233
f 255 256 233
f 229 238 140
f 40 229 140
f 237 238 229
f 230 237 229
f 244 234 117
f 213 244 117
f 234 244 243
f 233 234 243
f 461 458 374
f 381 461 374
f 475 526 514
f 374 475 514
f 518 397 326
f 511 518 326
f 394 395 288
f 331 394 288
f 395 396 296
f 288 395 296
f 485 489 454
f 464 485 454
f 491 492 350
f 430 491 350
f 287 295 288
f 296 287 288
f 460 461 381
f 380 460 381
f 514 538 381
f 374 514 381
f 394 367 364
f 395 394 364
f 396 395 364
f 365 396 364
f 430 429 335
f 336 430 335
f 506 488 459
f 465 506 459
f 488 487 462
f 459 488 462
f 516 508 325
f 428 516 325
f 538 524 380
f 381 538 380
f 382 373 372
f 383 382 372
f 385 370 369
f 386 385 369
f 352 351 345
f 346 352 345
f 472 474 364
f 367 472 364
f 430 350 349
f 429 430 349
f 492 493 334
f 350 492 334
f 394 393 363
f 367 394 363
f 331 288 295
f 330 331 295
f 394 331 315
f 393 394 315
f 363 393 392
f 368 363 392
f 495 352 346
f 494 495 346
f 383 372 371
f 384 383 371
f 501 439 307
f 500 501 307
f 472 367 363
f 468 472 363
f 351 352 309
f 324 351 309
f 427 347 302
f 426 427 302
f 350 334 333
f 349 350 333
f 382 383 378
f 379 382 378
f 426 425 330
f 295 426 330
f 335 429 428
f 325 335 428
f 315 331 330
f 316 315 330
f 419 317 311
f 418 419 311
f 521 535 334
f 493 521 334
f 429 349 348
f 428 429 348
f 532 525 379
f 447 532 379
f 448 447 379
f 378 448 379
f 415 416 324
f 309 415 324
f 497 415 309
f 496 497 309
f 384 377 378
f 383 384 378
f 444 468 363
f 368 444 363
f 444 368 360
f 478 444 360
f 351 324 310
f 312 351 310
f 302 312 310
f 311 302 310
f 392 391 360
f 368 392 360
f 534 346 345
f 528 534 345
f 345 351 312
f 344 345 312
f 512 348 332
f 523 512 332
f 384 371 370
f 385 384 370
f 392 393 315
f 353 392 315
f 315 316 289
f 353 315 289
f 522 528 345
f 344 522 345
f 344 312 302
f 347 344 302
f 349 333 332
f 348 349 332
f 399 390 356
f 403 399 356
f 308 419 318
f 411 308 318
f 423 343 301
f 422 423 301
f 449 448 378
f 377 449 378
f 376 450 449
f 377 376 449
f 497 498 291
f 415 497 291
f 498 499 293
f 291 498 293
f 399 398 357
f 390 399 357
f 360 391 390
f 357 360 390
f 424 423 289
f 316 424 289
f 330 425 424
f 316 330 424
f 385 386 375
f 376 385 375
f 425 426 302
f 311 425 302
f 423 424 317
f 343 423 317
f 375 451 450
f 376 375 450
f 423 422 313
f 289 423 313
f 424 425 311
f 317 424 311
f 391 392 353
f 440 391 353
f 384 385 376
f 377 384 376
f 500 307 293
f 499 500 293
f 357 398 285
f 442 357 285
f 386 369 361
f 387 386 361
f 354 389 388
f 358 354 388
f 391 440 356
f 390 391 356
f 416 323 290
f 417 416 290
f 422 301 300
f 421 422 300
f 313 440 353
f 289 313 353
f 308 343 317
f 419 308 317
f 356 440 313
f 299 356 313
f 418 329 318
f 419 418 318
f 418 417 290
f 329 418 290
f 322 323 291
f 293 322 291
f 388 387 361
f 358 388 361
f 322 293 307
f 321 322 307
f 323 322 292
f 290 323 292
f 322 321 306
f 292 322 306
f 308 408 301
f 343 308 301
f 417 418 311
f 310 417 311
f 402 403 356
f 299 402 356
f 451 375 362
f 452 451 362
f 422 421 299
f 313 422 299
f 437 436 327
f 306 437 327
f 412 411 318
f 319 412 318
f 387 388 359
f 362 387 359
f 436 435 320
f 327 436 320
f 502 503 274
f 342 502 274
f 438 321 307
f 439 438 307
f 389 355 359
f 388 389 359
f 438 437 306
f 321 438 306
f 439 342 341
f 438 439 341
f 438 341 340
f 437 438 340
f 328 329 290
f 292 328 290
f 327 328 292
f 306 327 292
f 420 402 299
f 421 420 299
f 437 340 339
f 436 437 339
f 300 405 400
f 401 300 400
f 318 329 328
f 319 318 328
f 409 408 308
f 411 409 308
f 362 359 314
f 452 362 314
f 327 320 319
f 328 327 319
f 301 408 405
f 300 301 405
f 421 300 401
f 420 421 401
f 341 342 274
f 276 341 274
f 410 407 406
f 409 410 406
f 359 355 286
f 314 359 286
f 320 413 412
f 319 320 412
f 276 274 268
f 275 276 268
f 275 265 264
f 267 275 264
f 503 504 268
f 274 503 268
f 341 276 273
f 340 341 273
f 410 305 304
f 407 410 304
f 409 406 405
f 408 409 405
f 436 339 338
f 435 436 338
f 406 404 400
f 405 406 400
f 282 273 267
f 281 282 267
f 504 505 266
f 268 504 266
f 268 266 265
f 275 268 265
f 276 275 267
f 273 276 267
f 412 413 305
f 410 412 305
f 406 407 298
f 404 406 298
f 434 433 305
f 413 434 305
f 339 282 272
f 338 339 272
f 339 340 273
f 282 339 273
f 263 281 267
f 264 263 267
f 407 304 303
f 298 407 303
f 283 414 338
f 272 283 338
f 282 281 269
f 272 282 269
f 434 414 337
f 433 434 337
f 281 263 262
f 269 281 262
f 433 432 304
f 305 433 304
f 432 431 303
f 304 432 303
f 432 433 337
f 297 432 337
f 414 283 271
f 337 414 271
f 283 272 269
f 284 283 269
f 337 271 270
f 297 337 270
f 284 280 271
f 283 284 271
f 284 261 260
f 280 284 260
f 278 258 257
f 277 278 257
f 279 259 258
f 278 279 258
f 278 277 270
f 271 278 270
f 280 260 259
f 279 280 259
f 280 279 278
f 271 280 278
f 475 482 481
f 476 475 481
f 482 475 374
f 458 482 374
f 482 458 457
f 479 482 457
f 284 269 262
f 261 284 262
f 434 413 320
f 435 434 320
f 435 338 414
f 434 435 414
f 412 410 409
f 411 412 409
f 478 360 357
f 442 478 357
f 481 482 479
f 480 481 479
f 485 464 456
f 484 485 456
f 426 295 287
f 427 426 287
f 537 519 396
f 365 537 396
f 491 430 336
f 490 491 336
f 296 510 509
f 287 296 509
f 470 365 364
f 474 470 364
f 496 309 352
f 495 496 352
f 516 428 348
f 512 516 348
f 387 362 375
f 386 387 375
f 416 417 310
f 324 416 310
f 431 297 294
f 431 432 297
f 483 484 456
f 480 483 456
f 323 416 415
f 291 323 415
f 477 443 358
f 361 477 358
f 501 502 342
f 439 501 342
f 490 336 454
f 489 490 454
f 481 455 366
f 476 481 366
f 455 463 397
f 366 455 397
f 466 460 380
f 446 466 380
f 453 335 325
f 326 453 325
f 487 486 457
f 462 487 457
f 462 457 458
f 461 462 458
f 466 465 459
f 460 466 459
f 454 336 335
f 453 454 335
f 464 454 453
f 463 464 453
f 464 463 455
f 456 464 455
f 461 460 459
f 462 461 459
f 481 480 456
f 455 481 456
f 463 453 326
f 397 463 326
f 477 478 442
f 443 477 442
f 507 479 457
f 486 507 457
f 483 480 479
f 507 483 479
f 469 473 372
f 373 469 372
f 474 473 469
f 470 474 469
f 443 441 354
f 358 443 354
f 441 443 442
f 285 441 442
f 445 477 361
f 369 445 361
f 478 477 445
f 444 478 445
f 467 445 369
f 370 467 369
f 468 444 445
f 467 468 445
f 471 467 370
f 371 471 370
f 472 468 467
f 471 472 467
f 473 471 371
f 372 473 371
f 474 472 471
f 473 474 471
f 536 530 476
f 366 536 476
f 530 526 475
f 476 530 475
f 531 537 365
f 470 531 365
f 531 527 526
f 530 531 526
f 531 470 469
f 527 531 469
f 537 531 530
f 536 537 530
f 517 513 347
f 427 517 347
f 517 516 512
f 513 517 512
f 511 326 325
f 508 511 325
f 510 511 508
f 509 510 508
f 518 536 366
f 397 518 366
f 537 536 518
f 519 537 518
f 529 523 332
f 333 529 332
f 523 529 528
f 522 523 528
f 513 522 344
f 347 513 344
f 522 513 512
f 523 522 512
f 535 529 333
f 334 535 333
f 529 535 534
f 528 529 534
f 533 446 380
f 524 533 380
f 532 533 524
f 525 532 524
f 534 520 494
f 346 534 494
f 534 535 521
f 520 534 521
f 525 539 382
f 379 525 382
f 538 539 525
f 524 538 525
f 517 427 287
f 509 517 287
f 516 517 509
f 508 516 509
f 539 515 373
f 382 539 373
f 539 538 514
f 515 539 514
f 519 510 296
f 396 519 296
f 518 511 510
f 519 518 510
f 527 469 373
f 515 527 373
f 526 527 515
f 514 526 515
