# Level-zero anatomical extract from Blender Human Base Meshes v1.4.1 (CC0)
o human-pelvis
v 0.0779804 -0.1069668 0.9568844
v 0.1015259 -0.0937788 0.9602448
v 0.0773054 -0.1049833 0.9293373
v 0.1015285 -0.0942359 0.9314058
v 0.0781072 -0.1055794 0.9014659
v 0.1038497 -0.0977991 0.9035312
v 0.0801342 -0.1080764 0.8722742
v 0.1060698 -0.1007987 0.8756490
v 0.0822396 -0.1074292 0.8415926
v 0.1092439 -0.1057521 0.8470631
v 0.1219269 -0.0812861 0.9620752
v 0.1384663 -0.0634823 0.9613322
v 0.1224755 -0.0839941 0.9341489
v 0.1407697 -0.0676471 0.9337596
v 0.1258915 -0.0868747 0.9053875
v 0.1448686 -0.0716954 0.9063534
v 0.1289425 -0.0909945 0.8781046
v 0.1489005 -0.0768697 0.8798596
v 0.1329293 -0.0974024 0.8507334
v 0.1525023 -0.0825383 0.8529453
v 0.1146528 0.0585355 0.9492757
v 0.0903002 0.0707866 0.9474916
v 0.1179297 0.0627566 0.9218333
v 0.0941764 0.0793836 0.9208480
v 0.1207699 0.0653760 0.8941687
v 0.0989332 0.0876599 0.8931910
v 0.1228431 0.0650451 0.8658553
v 0.1030040 0.0911274 0.8626572
v 0.1282077 0.0637760 0.8370510
v 0.1082845 0.0905164 0.8302931
v 0.0656384 0.0763096 0.9458423
v 0.1362723 0.0388507 0.9519083
v 0.1509437 0.0125411 0.9552965
v 0.1549300 -0.0161400 0.9582788
v 0.1594215 -0.0188286 0.9303689
v 0.1621267 -0.0223389 0.9033114
v 0.1536440 0.0113312 0.9269406
v 0.1530844 0.0083703 0.8993838
v 0.1381282 0.0393825 0.9236448
v 0.1376960 0.0377637 0.8960206
v 0.0684658 0.0876848 0.9195927
v 0.0718496 0.0998861 0.8912975
v 0.1617128 -0.0264684 0.8769065
v 0.1513403 0.0045318 0.8727919
v 0.1378655 0.0354170 0.8689371
v 0.0747771 0.1061720 0.8581604
v 0.0780718 0.1043459 0.8219306
v 0.1417237 0.0329691 0.8419945
v 0.1537612 0.0012055 0.8463358
v 0.1644519 -0.0305377 0.8507235
v 0.0243307 -0.1228473 0.8656729
v 0.0239386 -0.1230216 0.8983658
v 0.0246519 -0.1274798 0.9265200
v 0.0253644 -0.1306558 0.9517456
v 0.0209454 0.0745825 0.9423021
v 0.0425408 0.0764609 0.9436449
v 0.0210668 0.0841974 0.9154570
v 0.0435876 0.0886893 0.9177351
v 0.0207694 0.0938849 0.8860366
v 0.0444904 0.1016325 0.8887540
v 0.0197833 0.0989256 0.8509874
v 0.0450303 0.1082866 0.8536438
v 0.0187970 0.0916052 0.8108085
v 0.0459596 0.1033971 0.8143405
v 0.0539406 -0.1139402 0.8350418
v 0.0519378 -0.1162505 0.8686180
v 0.0504384 -0.1145114 0.8996387
v 0.0512542 -0.1178384 0.9274154
v 0.0522693 -0.1207543 0.9531646
v 0.1651416 -0.0601603 0.8531325
v 0.1617138 -0.0550072 0.8796795
v 0.1581145 -0.0500471 0.9058581
v 0.1539402 -0.0456863 0.9324767
v 0.1498455 -0.0417953 0.9600549
v 0.0122293 -0.0679331 0.7559089
v 0.0077372 -0.0278624 0.7525618
v 0.0121168 0.0105937 0.7596763
v 0.0487046 0.0880260 0.7780102
v 0.0194469 0.0595182 0.7713066
v 0.1135424 0.0838264 0.7983186
v 0.0824296 0.0949357 0.7872716
v 0.1357449 0.0601544 0.8078608
v 0.1497462 0.0303405 0.8146192
v 0.1621921 -0.0011134 0.8198239
v 0.1725288 -0.0337284 0.8244413
v 0.1701096 -0.0646927 0.8256472
v 0.1127960 -0.1120804 0.8172715
v 0.1374343 -0.1049443 0.8220226
v 0.1563528 -0.0880750 0.8245574
v 0.0850291 -0.1109929 0.8102466
v 0.0566711 -0.1036179 0.8015475
v 0.0265672 -0.1261784 0.8281071
v 0.0270828 -0.1117199 0.7838895
v -0.0000150 0.0720230 0.9414969
v 0.0000047 0.0785485 0.9137564
v -0.0000969 0.0803465 0.8840939
v -0.0000890 0.0805384 0.8516551
v -0.0001626 0.0732012 0.8165510
v -0.0783923 -0.1074315 0.9568207
v -0.1012310 -0.0936418 0.9603727
v -0.0771347 -0.1049554 0.9293793
v -0.1016900 -0.0947375 0.9314765
v -0.0782645 -0.1061623 0.9015560
v -0.1038565 -0.0980542 0.9035817
v -0.0800598 -0.1080734 0.8723216
v -0.1061442 -0.1010479 0.8756444
v -0.0821809 -0.1077620 0.8416530
v -0.1092941 -0.1058704 0.8470840
v -0.1215822 -0.0809815 0.9619355
v -0.1381986 -0.0635628 0.9612225
v -0.1231546 -0.0843580 0.9334463
v -0.1407258 -0.0674422 0.9333938
v -0.1259250 -0.0871842 0.9054500
v -0.1448994 -0.0719177 0.9064434
v -0.1290559 -0.0912767 0.8782306
v -0.1488793 -0.0769078 0.8799088
v -0.1328582 -0.0974586 0.8506756
v -0.1521993 -0.0823666 0.8527350
v -0.1146732 0.0587084 0.9493016
v -0.0902970 0.0710255 0.9475437
v -0.1177789 0.0625647 0.9217565
v -0.0940355 0.0791103 0.9207725
v -0.1208218 0.0653065 0.8941131
v -0.0988861 0.0874726 0.8930484
v -0.1233115 0.0653581 0.8659748
v -0.1031391 0.0912591 0.8626939
v -0.1284001 0.0638666 0.8370901
v -0.1083588 0.0904099 0.8303618
v -0.0655816 0.0764049 0.9458604
v -0.1363405 0.0389747 0.9519358
v -0.1508748 0.0125137 0.9552989
v -0.1547707 -0.0161391 0.9583592
v -0.1589964 -0.0188601 0.9303325
v -0.1610187 -0.0224567 0.9031818
v -0.1532941 0.0110925 0.9269049
v -0.1530453 0.0082663 0.8992873
v -0.1380913 0.0393399 0.9236521
v -0.1381834 0.0380493 0.8960304
v -0.0683775 0.0874464 0.9195006
v -0.0718170 0.0996913 0.8912115
v -0.1613142 -0.0265405 0.8768243
v -0.1517145 0.0046256 0.8728006
v -0.1386613 0.0358092 0.8690103
v -0.0747990 0.1062394 0.8581392
v -0.0781357 0.1041761 0.8219434
v -0.1422241 0.0331658 0.8419470
v -0.1535279 0.0011235 0.8463536
v -0.1647513 -0.0305081 0.8507565
v -0.0244430 -0.1230343 0.8656356
v -0.0238837 -0.1229774 0.8983653
v -0.0247728 -0.1277041 0.9265274
v -0.0253966 -0.1306969 0.9519041
v -0.0208725 0.0746880 0.9423673
v -0.0425762 0.0763846 0.9436338
v -0.0211164 0.0840259 0.9153674
v -0.0435787 0.0885260 0.9176551
v -0.0208934 0.0932343 0.8858856
v -0.0445778 0.1015051 0.8886806
v -0.0198931 0.0985030 0.8510014
v -0.0451278 0.1082020 0.8536626
v -0.0189457 0.0913155 0.8108608
v -0.0460509 0.1034783 0.8143135
v -0.0540006 -0.1141954 0.8350457
v -0.0518726 -0.1160777 0.8686327
v -0.0504561 -0.1146259 0.8996404
v -0.0513056 -0.1179488 0.9274247
v -0.0521909 -0.1205543 0.9532570
v -0.1654596 -0.0602511 0.8531194
v -0.1616503 -0.0551449 0.8796234
v -0.1577668 -0.0500567 0.9058338
v -0.1534338 -0.0455342 0.9324074
v -0.1494413 -0.0418429 0.9602380
v -0.0124734 -0.0673783 0.7564746
v -0.0074160 -0.0285010 0.7524507
v -0.0116821 0.0104647 0.7598834
v -0.0485031 0.0879818 0.7778577
v -0.0196398 0.0593714 0.7712184
v -0.1136281 0.0838227 0.7984362
v -0.0822944 0.0948005 0.7874448
v -0.0000702 0.0470981 0.7845557
v -0.1357211 0.0601817 0.8079685
v -0.1501422 0.0306602 0.8146822
v -0.1623341 -0.0009397 0.8199453
v -0.1728808 -0.0336149 0.8245648
v -0.1702502 -0.0645722 0.8257064
v -0.1127006 -0.1120921 0.8172765
v -0.1373294 -0.1048504 0.8219867
v -0.1563207 -0.0879980 0.8244572
v -0.0851574 -0.1107600 0.8102168
v -0.0563006 -0.1040030 0.8016088
v 0.0000006 0.0084305 0.7709792
v -0.0000087 -0.0286605 0.7616016
v 0.0000727 -0.0707088 0.7567124
v -0.0266131 -0.1263995 0.8281271
v -0.0275805 -0.1119996 0.7835173
v 0.0001652 -0.1210819 0.7840950
v -0.0000472 -0.1257087 0.8645172
v 0.0000630 -0.1334838 0.9521837
v 0.0000076 -0.1262056 0.8979121
v 0.0000017 -0.1304232 0.9265555
v -0.0000796 -0.1310422 0.8255503
usemtl blender_human_cc0
f 59 96 95
f 57 59 95
f 98 97 61
f 63 98 61
f 51 92 65
f 66 51 65
f 180 98 63
f 79 180 63
f 201 92 51
f 197 201 51
f 69 54 53
f 68 69 53
f 57 95 94
f 55 57 94
f 97 96 59
f 61 97 59
f 68 3 1
f 69 68 1
f 4 13 11
f 2 4 11
f 66 7 5
f 67 66 5
f 15 13 4
f 6 15 4
f 65 9 7
f 66 65 7
f 73 74 12
f 14 73 12
f 73 14 16
f 72 73 16
f 47 81 78
f 64 47 78
f 45 40 38
f 44 45 38
f 70 71 18
f 20 70 18
f 44 38 36
f 43 44 36
f 23 24 22
f 21 23 22
f 60 58 41
f 42 60 41
f 39 23 21
f 32 39 21
f 40 25 23
f 39 40 23
f 35 37 33
f 34 35 33
f 58 56 31
f 41 58 31
f 80 30 29
f 82 80 29
f 46 42 26
f 28 46 26
f 80 81 47
f 30 80 47
f 18 16 15
f 17 18 15
f 42 41 24
f 26 42 24
f 37 39 32
f 33 37 32
f 27 28 26
f 25 27 26
f 19 20 18
f 17 19 18
f 6 4 3
f 5 6 3
f 199 197 51
f 52 199 51
f 200 199 52
f 53 200 52
f 86 85 50
f 70 86 50
f 13 14 12
f 11 13 12
f 68 67 5
f 3 68 5
f 85 84 49
f 50 85 49
f 25 26 24
f 23 25 24
f 88 89 20
f 19 88 20
f 38 40 39
f 37 38 39
f 90 87 10
f 9 90 10
f 19 17 8
f 10 19 8
f 50 49 44
f 43 50 44
f 73 72 36
f 35 73 36
f 36 38 37
f 35 36 37
f 48 29 27
f 45 48 27
f 48 83 82
f 29 48 82
f 30 28 27
f 29 30 27
f 16 14 13
f 15 16 13
f 8 6 5
f 7 8 5
f 71 72 16
f 18 71 16
f 41 31 22
f 24 41 22
f 74 73 35
f 34 74 35
f 87 88 19
f 10 87 19
f 17 15 6
f 8 17 6
f 62 60 42
f 46 62 42
f 40 45 27
f 25 40 27
f 30 47 46
f 28 30 46
f 49 48 45
f 44 49 45
f 86 70 20
f 89 86 20
f 84 83 48
f 49 84 48
f 200 53 54
f 198 200 54
f 67 52 51
f 66 67 51
f 68 53 52
f 67 68 52
f 58 57 55
f 56 58 55
f 64 63 61
f 62 64 61
f 93 91 65
f 92 93 65
f 70 50 43
f 71 70 43
f 36 72 71
f 43 36 71
f 201 196 93
f 92 201 93
f 4 2 1
f 3 4 1
f 10 8 7
f 9 10 7
f 65 91 90
f 9 65 90
f 47 64 62
f 46 47 62
f 60 59 57
f 58 60 57
f 62 61 59
f 60 62 59
f 78 79 63
f 64 78 63
f 192 191 77
f 76 192 77
f 192 76 75
f 193 192 75
f 77 191 180
f 79 77 180
f 196 193 75
f 93 196 75
f 157 155 95
f 96 157 95
f 161 159 97
f 98 161 97
f 163 194 149
f 164 163 149
f 98 180 177
f 161 98 177
f 201 197 149
f 194 201 149
f 167 166 151
f 152 167 151
f 155 153 94
f 95 155 94
f 159 157 96
f 97 159 96
f 166 167 99
f 101 166 99
f 109 111 102
f 100 109 102
f 164 165 103
f 105 164 103
f 113 104 102
f 111 113 102
f 163 164 105
f 107 163 105
f 171 112 110
f 172 171 110
f 170 114 112
f 171 170 112
f 176 179 145
f 162 176 145
f 143 142 136
f 138 143 136
f 116 169 168
f 118 116 168
f 142 141 134
f 136 142 134
f 122 121 119
f 120 122 119
f 156 158 140
f 139 156 140
f 121 137 130
f 119 121 130
f 138 137 121
f 123 138 121
f 131 135 133
f 132 131 133
f 156 139 129
f 154 156 129
f 181 127 128
f 178 181 128
f 144 126 124
f 140 144 124
f 179 178 128
f 145 179 128
f 116 115 113
f 114 116 113
f 140 124 122
f 139 140 122
f 137 135 131
f 130 137 131
f 126 125 123
f 124 126 123
f 116 118 117
f 115 116 117
f 104 103 101
f 102 104 101
f 199 150 149
f 197 199 149
f 200 151 150
f 199 200 150
f 184 185 168
f 148 184 168
f 110 112 111
f 109 110 111
f 165 166 101
f 103 165 101
f 183 184 148
f 147 183 148
f 124 123 121
f 122 124 121
f 118 188 187
f 117 118 187
f 137 138 136
f 135 137 136
f 186 189 107
f 108 186 107
f 117 108 106
f 115 117 106
f 148 141 142
f 147 148 142
f 170 171 133
f 134 170 133
f 136 134 133
f 135 136 133
f 146 143 125
f 127 146 125
f 182 146 127
f 181 182 127
f 128 127 125
f 126 128 125
f 114 113 111
f 112 114 111
f 104 106 105
f 103 104 105
f 114 170 169
f 116 114 169
f 129 139 122
f 120 129 122
f 172 132 133
f 171 172 133
f 187 186 108
f 117 187 108
f 115 106 104
f 113 115 104
f 160 144 140
f 158 160 140
f 143 138 123
f 125 143 123
f 145 128 126
f 144 145 126
f 146 147 142
f 143 146 142
f 185 188 118
f 168 185 118
f 183 147 146
f 182 183 146
f 198 152 151
f 200 198 151
f 165 164 149
f 150 165 149
f 166 165 150
f 151 166 150
f 156 154 153
f 155 156 153
f 161 162 160
f 159 161 160
f 195 194 163
f 190 195 163
f 168 169 141
f 148 168 141
f 169 170 134
f 141 169 134
f 196 201 194
f 195 196 194
f 102 101 99
f 100 102 99
f 108 107 105
f 106 108 105
f 190 163 107
f 189 190 107
f 160 162 145
f 144 160 145
f 158 156 155
f 157 158 155
f 160 158 157
f 159 160 157
f 176 162 161
f 177 176 161
f 191 192 174
f 175 191 174
f 192 193 173
f 174 192 173
f 180 191 175
f 177 180 175
f 196 195 173
f 193 196 173
