# Level-zero anatomical extract from Blender Human Base Meshes v1.4.1 (CC0)
o human-upper-arm-l
v -0.3210855 0.0105689 1.1022186
v -0.3094717 -0.0364408 1.1056967
v -0.3101160 0.0202500 1.1341323
v -0.2946096 -0.0310839 1.1358508
v -0.2972420 0.0282767 1.1668882
v -0.2807244 -0.0295879 1.1677364
v -0.2874689 -0.0306100 1.1514544
v -0.3041621 0.0243447 1.1502404
v -0.3152594 0.0155124 1.1183034
v -0.3022349 -0.0328152 1.1207409
v -0.2495032 0.0555178 1.1326320
v -0.2584387 0.0535512 1.1193576
v -0.2684357 0.0510474 1.1067425
v -0.2781841 0.0502450 1.0936550
v -0.2891070 0.0499470 1.0805128
v -0.2613111 -0.0115022 1.0730574
v -0.2542510 -0.0119633 1.0873429
v -0.2448840 -0.0150402 1.1002302
v -0.2343519 -0.0186586 1.1124934
v -0.2247891 -0.0219681 1.1262112
v -0.1732055 -0.0117518 1.2344819
v -0.2777796 -0.0256463 1.0851460
v -0.2694328 -0.0201085 1.0789144
v -0.2555714 0.0015757 1.0684423
v -0.2555359 0.0183001 1.0661238
v -0.2631516 0.0339866 1.0676414
v -0.2757359 0.0444665 1.0727092
v -0.3121135 0.0398668 1.0969212
v -0.3018560 0.0488397 1.0900495
v -0.3180425 0.0259839 1.1000333
v -0.3249482 -0.0031384 1.1061838
v -0.3268738 -0.0150944 1.1094428
v -0.3166648 -0.0324002 1.1084141
v -0.2932193 -0.0353947 1.0965945
v -0.2853675 -0.0310376 1.0911021
v -0.2599705 -0.0322889 1.1118271
v -0.2516427 -0.0260495 1.1052352
v -0.2419419 -0.0007390 1.0975900
v -0.2423735 0.0151637 1.0964614
v -0.2471648 0.0309013 1.0972614
v -0.2561929 0.0442128 1.1004614
v -0.2940907 0.0459057 1.1224179
v -0.2813715 0.0518001 1.1144171
v -0.3043317 0.0346098 1.1292853
v -0.3113110 0.0058874 1.1375881
v -0.3103861 -0.0063073 1.1398772
v -0.3014196 -0.0250354 1.1388288
v -0.2780933 -0.0367541 1.1253936
v -0.2689399 -0.0355978 1.1187356
v -0.2414503 -0.0431018 1.1392422
v -0.2314901 -0.0356032 1.1315578
v -0.2228127 -0.0050998 1.1235442
v -0.2247603 0.0127347 1.1227671
v -0.2292567 0.0302876 1.1233730
v -0.2369657 0.0457111 1.1260922
v -0.2642103 0.0572116 1.1418209
v -0.2784857 0.0520939 1.1514217
v -0.2902451 0.0421652 1.1601274
v -0.3004060 0.0140638 1.1714784
v -0.2994732 0.0007525 1.1736797
v -0.2884897 -0.0211201 1.1715496
v -0.2626207 -0.0424257 1.1555898
v -0.2522289 -0.0448391 1.1476731
v -0.2031092 -0.0565808 1.2676114
v -0.1809910 0.0540809 1.2189208
v -0.1796484 0.0351595 1.2156935
v -0.1771054 0.0186786 1.2182856
v -0.1739150 0.0032215 1.2251444
v -0.1760161 -0.0304120 1.2382615
v -0.1881221 -0.0467591 1.2445842
v -0.2497766 0.0011495 1.0836216
v -0.2498084 0.0168380 1.0819085
v -0.2335972 0.0140112 1.1096936
v -0.2320963 -0.0029025 1.1102207
v -0.2861498 -0.0345503 1.1112406
v -0.2701145 -0.0402972 1.1399951
v -0.2659754 0.0442078 1.0870094
v -0.2461116 0.0447852 1.1131477
v -0.3179118 0.0017561 1.1218815
v -0.3181250 -0.0103119 1.1243896
v -0.3064363 0.0101901 1.1543069
v -0.3047232 -0.0026492 1.1563566
v -0.3105052 0.0301153 1.1145184
v -0.2976075 0.0383773 1.1442602
v -0.3022013 0.0433612 1.1092867
v -0.2903819 0.0506984 1.1016674
v -0.2865765 0.0495565 1.1364520
v -0.2727280 0.0544949 1.1278311
v -0.2554206 0.0322574 1.0828856
v -0.2504807 -0.0385538 1.1248114
v -0.2410900 -0.0314334 1.1175523
v -0.2945723 -0.0230954 1.1547624
v -0.2604343 -0.0412619 1.1325651
v -0.2382170 0.0303611 1.1105328
v -0.3089943 -0.0281023 1.1235440
v -0.2696196 -0.0268505 1.0990524
v -0.2615123 -0.0207495 1.0928721
v -0.2778267 -0.0311197 1.1053156
v -0.2415069 -0.0299123 1.3060620
v -0.2377179 0.0347651 1.3122673
v -0.1794171 0.0743129 1.2367185
v -0.2204916 -0.0528979 1.2836033
v -0.2451972 -0.0139059 1.3125103
v -0.2422349 0.0186092 1.3153086
v -0.2233136 0.0698292 1.2954327
v -0.1924226 0.0777897 1.2621977
v -0.2093582 0.0804368 1.2800628
v -0.1927140 -0.0618368 1.2687776
v -0.1796486 -0.0524203 1.2554770
v -0.2253136 0.0356807 1.3339932
v -0.2313308 -0.0317595 1.3290839
v -0.1672508 0.0976572 1.2648594
v -0.2143361 -0.0584990 1.3072301
v -0.2304016 0.0189638 1.3371370
v -0.2095799 0.0715965 1.3184391
v -0.1813797 0.0903318 1.2849054
v -0.2345388 -0.0149268 1.3352005
v -0.1965626 0.0843299 1.3035531
v -0.1919015 -0.0693835 1.2846334
v -0.1820321 -0.0710208 1.2733756
v -0.1625114 -0.0260058 1.3837926
v -0.1553502 0.0303689 1.3881807
v -0.1038842 0.0869898 1.3578432
v -0.1571521 -0.0539356 1.3702382
v -0.1593942 0.0167914 1.3883159
v -0.1408706 0.0561804 1.3819973
v -0.1181478 0.0783654 1.3672824
v -0.1537359 -0.0624541 1.3602757
v -0.1632765 -0.0107788 1.3873413
v -0.1305303 0.0680658 1.3757424
v -0.1494404 -0.0675316 1.3510380
v -0.1426566 -0.0709856 1.3432080
v -0.1814840 -0.0302839 1.3776172
v -0.1716037 0.0326215 1.3758918
v -0.1902037 0.0350554 1.3648514
v -0.2090346 0.0361359 1.3519745
v -0.2007464 -0.0335190 1.3677498
v -0.2184328 -0.0341863 1.3506401
v -0.1175793 0.0916699 1.3386514
v -0.1327246 0.0959661 1.3170776
v -0.1489036 0.0989793 1.2927887
v -0.2032368 -0.0609812 1.3293484
v -0.2026806 -0.0658792 1.2946681
v -0.1888689 -0.0618568 1.3477541
v -0.1729726 -0.0597141 1.3617669
v -0.2147242 0.0197981 1.3554363
v -0.1963583 0.0196697 1.3689284
v -0.1769563 0.0180044 1.3785927
v -0.1929030 0.0703082 1.3381144
v -0.1741088 0.0655760 1.3535402
v -0.1560520 0.0601173 1.3667753
v -0.1650904 0.0915057 1.3086716
v -0.1486330 0.0890821 1.3303704
v -0.1325779 0.0832210 1.3493316
v -0.1677125 -0.0678695 1.3501205
v -0.1829815 -0.0131809 1.3815939
v -0.1818340 -0.0698056 1.3351656
v -0.1941671 -0.0691476 1.3168297
v -0.2036961 -0.0149911 1.3724706
v -0.2213329 -0.0156962 1.3559964
v -0.1454499 0.0728216 1.3592706
v -0.1626913 0.0794130 1.3435870
v -0.1804629 0.0840797 1.3250619
v -0.1851322 -0.0742644 1.3049343
v -0.1743522 -0.0750008 1.3234155
v -0.1616740 -0.0728831 1.3391097
v -0.1765380 -0.0783771 1.2934380
v -0.1664183 -0.0797370 1.3124760
v -0.1545019 -0.0771827 1.3292546
v -0.1834921 0.0508201 1.3608139
v -0.2319902 0.0525223 1.3061032
v -0.2021978 0.0533895 1.3468292
v -0.1491842 0.0436865 1.3861207
v -0.1647932 0.0467671 1.3722291
v -0.2185194 0.0536119 1.3280059
v -0.2938132 0.0043961 1.1918584
v -0.2873743 0.0084784 1.2106981
v -0.2784545 0.0124164 1.2297868
v -0.2669511 0.0159961 1.2484438
v -0.2570502 0.0178854 1.2689738
v -0.2503878 0.0188388 1.2918023
v -0.2823808 -0.0184104 1.1891603
v -0.2752412 -0.0152433 1.2070183
v -0.2669649 -0.0116260 1.2251818
v -0.2591633 -0.0097263 1.2442076
v -0.2557703 -0.0108705 1.2656455
v -0.2520721 -0.0125572 1.2886981
v -0.2478337 -0.0273049 1.2824000
v -0.2503032 -0.0231520 1.2599286
v -0.2525036 -0.0198857 1.2390622
v -0.2587816 -0.0208781 1.2198895
v -0.2666881 -0.0243939 1.2021500
v -0.2740458 -0.0273227 1.1848367
v -0.2550087 -0.0422467 1.1719871
v -0.2471404 -0.0408075 1.1884342
v -0.2396307 -0.0389923 1.2052450
v -0.2332305 -0.0382163 1.2231282
v -0.2279319 -0.0398620 1.2418009
v -0.2241734 -0.0450599 1.2621922
v -0.2441735 -0.0460788 1.1636926
v -0.2357807 -0.0458928 1.1795068
v -0.2279620 -0.0454153 1.1955782
v -0.2208076 -0.0456477 1.2122004
v -0.2144815 -0.0459794 1.2295080
v -0.2086437 -0.0469460 1.2478055
v -0.2328089 -0.0453659 1.1546807
v -0.2240629 -0.0458519 1.1699222
v -0.2154368 -0.0457259 1.1850021
v -0.2071720 -0.0458067 1.1999402
v -0.1998382 -0.0461076 1.2152740
v -0.1939101 -0.0459986 1.2305503
v -0.2224995 -0.0379029 1.1463091
v -0.2137563 -0.0383778 1.1609368
v -0.2051559 -0.0376053 1.1753213
v -0.1968734 -0.0365576 1.1891069
v -0.1895701 -0.0351952 1.2025682
v -0.1825883 -0.0325873 1.2204192
v -0.2163333 -0.0233265 1.1405305
v -0.2085082 -0.0232945 1.1547801
v -0.2010295 -0.0221231 1.1686195
v -0.1939153 -0.0199522 1.1817065
v -0.1873787 -0.0170799 1.1958815
v -0.1793712 -0.0135604 1.2185372
v -0.2152662 -0.0055492 1.1375579
v -0.2083467 -0.0049223 1.1515118
v -0.2018142 -0.0037039 1.1650342
v -0.1951504 -0.0012723 1.1775243
v -0.1875100 0.0013592 1.1915822
v -0.1787359 0.0028319 1.2131040
v -0.1790583 0.0188042 1.2097752
v -0.1868041 0.0192368 1.1892585
v -0.1955093 0.0176730 1.1740550
v -0.2034062 0.0154653 1.1627378
v -0.2106147 0.0138924 1.1498806
v -0.2172641 0.0126803 1.1362705
v -0.2209418 0.0307846 1.1363418
v -0.2131867 0.0324216 1.1492028
v -0.2042478 0.0349744 1.1610379
v -0.1950690 0.0374998 1.1726396
v -0.1869644 0.0375028 1.1903921
v -0.1815606 0.0355476 1.2097631
v -0.2287416 0.0470734 1.1391282
v -0.2199329 0.0498548 1.1518711
v -0.2098112 0.0538460 1.1640935
v -0.2003987 0.0567109 1.1774247
v -0.1920033 0.0568645 1.1946295
v -0.1860674 0.0532619 1.2135571
v -0.2410412 0.0577240 1.1463528
v -0.2314609 0.0622206 1.1594198
v -0.2219587 0.0665964 1.1735247
v -0.2126496 0.0700653 1.1885462
v -0.2028727 0.0719246 1.2045959
v -0.1928096 0.0693578 1.2225671
v -0.2556908 0.0609274 1.1563141
v -0.2469024 0.0654833 1.1709563
v -0.2378653 0.0702636 1.1865714
v -0.2282684 0.0749113 1.2030624
v -0.2177105 0.0787821 1.2205096
v -0.2053738 0.0780886 1.2394876
v -0.2216303 0.0776568 1.2577440
v -0.2336374 0.0752336 1.2373437
v -0.2443450 0.0709938 1.2182505
v -0.2532906 0.0651657 1.2001547
v -0.2616739 0.0599622 1.1831777
v -0.2701967 0.0556914 1.1671369
v -0.2819731 0.0456606 1.1766694
v -0.2736918 0.0495247 1.1937602
v -0.2663117 0.0550072 1.2120533
v -0.2569171 0.0602199 1.2314231
v -0.2458996 0.0635550 1.2514825
v -0.2342748 0.0662812 1.2726955
v -0.2894818 0.0318938 1.1839057
v -0.2828007 0.0366863 1.2020657
v -0.2757998 0.0420996 1.2215931
v -0.2645426 0.0456433 1.2409271
v -0.2527345 0.0477508 1.2610943
v -0.2423740 0.0503360 1.2830065
v -0.2470276 0.0339751 1.2889513
v -0.2559112 0.0321319 1.2665288
v -0.2675536 0.0303566 1.2464631
v -0.2794383 0.0269390 1.2274864
v -0.2880009 0.0226065 1.2081310
v -0.2939695 0.0178761 1.1891382
v -0.2867855 -0.0350029 1.1312855
v -0.2719379 -0.0366988 1.1622653
v -0.2014391 0.0031933 1.3723609
v -0.2330860 -0.0434355 1.2962419
v -0.2244696 -0.0468583 1.3195153
v -0.1810668 0.0029271 1.3812966
v -0.1620153 0.0032810 1.3880087
v -0.3147108 -0.0205325 1.1249088
v -0.2949598 -0.0110344 1.1736194
v -0.2445856 0.0025802 1.3152819
v -0.2945804 -0.0351697 1.1166066
v -0.2193538 0.0027117 1.3572371
v -0.3070337 -0.0166371 1.1403167
v -0.2336989 0.0022612 1.3376002
v -0.3005793 -0.0137724 1.1565058
v -0.2114680 -0.0493233 1.3413352
v -0.3228860 -0.0252464 1.1098527
v -0.1776358 -0.0469277 1.3715415
v -0.1602678 -0.0412634 1.3783919
v -0.1947368 -0.0500445 1.3598540
v -0.3015141 -0.0377995 1.1017511
v -0.2792210 -0.0363976 1.1464463
v -0.2647822 -0.0352551 1.1789968
v -0.2573313 -0.0327383 1.1959782
v -0.2495313 -0.0297097 1.2131889
v -0.2434471 -0.0288148 1.2320756
v -0.2404035 -0.0326549 1.2519166
v -0.2380575 -0.0385256 1.2733953
v -0.2894152 -0.0078162 1.1917288
v -0.2827067 -0.0042634 1.2102308
v -0.2739375 -0.0005561 1.2288551
v -0.2640090 0.0025288 1.2475656
v -0.2575082 0.0034244 1.2687531
v -0.2525672 0.0032184 1.2918001
usemtl blender_human_cc0
f 93 76 48
f 49 93 48
f 83 30 1
f 9 83 1
f 84 44 3
f 8 84 3
f 80 79 31
f 32 80 31
f 82 60 59
f 81 82 59
f 92 7 6
f 61 92 6
f 79 9 1
f 31 79 1
f 97 37 36
f 96 97 36
f 10 95 33
f 2 10 33
f 79 45 3
f 9 79 3
f 92 47 4
f 7 92 4
f 79 80 46
f 45 79 46
f 298 292 60
f 82 298 60
f 297 293 103
f 117 297 103
f 285 305 76
f 62 285 76
f 81 59 5
f 8 81 5
f 78 12 11
f 55 78 11
f 12 78 41
f 13 12 41
f 83 44 42
f 85 83 42
f 77 14 13
f 41 77 13
f 27 15 14
f 77 27 14
f 71 17 16
f 24 71 16
f 40 94 73
f 39 40 73
f 74 19 18
f 38 74 18
f 98 96 36
f 49 98 36
f 98 35 22
f 96 98 22
f 97 96 22
f 23 97 22
f 72 71 24
f 25 72 24
f 77 89 26
f 27 77 26
f 83 85 28
f 30 83 28
f 44 83 9
f 3 44 9
f 294 304 34
f 75 294 34
f 98 75 34
f 35 98 34
f 81 8 3
f 45 81 3
f 93 49 36
f 90 93 36
f 52 20 19
f 74 52 19
f 78 94 40
f 41 78 40
f 71 72 39
f 38 71 39
f 89 40 39
f 72 89 39
f 77 41 40
f 89 77 40
f 87 88 43
f 42 87 43
f 82 81 45
f 46 82 45
f 305 7 4
f 284 305 4
f 284 294 75
f 48 284 75
f 90 91 51
f 50 90 51
f 78 55 54
f 94 78 54
f 29 86 14
f 15 29 14
f 84 8 5
f 58 84 5
f 38 18 17
f 71 38 17
f 114 146 136
f 110 114 136
f 288 287 102
f 113 288 102
f 156 133 121
f 129 156 121
f 114 110 100
f 104 114 100
f 86 85 42
f 43 86 42
f 143 64 108
f 119 143 108
f 47 95 10
f 4 47 10
f 91 19 20
f 51 91 20
f 98 49 48
f 75 98 48
f 76 93 63
f 62 76 63
f 14 86 43
f 13 14 43
f 300 291 80
f 32 300 80
f 43 88 12
f 13 43 12
f 12 88 56
f 11 12 56
f 142 299 288
f 113 142 288
f 91 37 18
f 19 91 18
f 158 143 119
f 164 158 119
f 118 116 106
f 107 118 106
f 109 108 64
f 70 109 64
f 88 87 57
f 56 88 57
f 84 87 42
f 44 84 42
f 74 73 53
f 52 74 53
f 73 74 38
f 39 73 38
f 163 152 116
f 118 163 116
f 84 58 57
f 87 84 57
f 86 29 28
f 85 86 28
f 97 23 16
f 17 97 16
f 93 90 50
f 63 93 50
f 94 54 53
f 73 94 53
f 37 91 90
f 36 37 90
f 296 46 80
f 291 296 80
f 298 296 47
f 92 298 47
f 37 97 17
f 18 37 17
f 89 72 25
f 26 89 25
f 113 102 64
f 143 113 64
f 175 115 105
f 171 175 105
f 111 117 103
f 99 111 103
f 115 118 107
f 105 115 107
f 167 164 119
f 120 167 119
f 162 163 149
f 150 162 149
f 295 146 114
f 297 295 114
f 160 117 111
f 138 160 111
f 134 148 125
f 122 134 125
f 172 175 110
f 136 172 110
f 120 119 108
f 109 120 108
f 173 174 134
f 122 173 134
f 165 166 155
f 157 165 155
f 302 121 133
f 301 302 133
f 169 132 131
f 166 169 131
f 159 137 133
f 156 159 133
f 158 142 113
f 143 158 113
f 160 138 137
f 159 160 137
f 161 154 153
f 162 161 153
f 289 290 125
f 148 289 125
f 146 147 135
f 136 146 135
f 299 303 137
f 138 299 137
f 161 151 126
f 130 161 126
f 162 153 152
f 163 162 152
f 169 166 165
f 168 169 165
f 155 145 144
f 157 155 144
f 164 165 157
f 158 164 157
f 148 134 135
f 147 148 135
f 161 130 127
f 154 161 127
f 163 118 115
f 149 163 115
f 289 148 147
f 286 289 147
f 286 147 146
f 295 286 146
f 152 141 112
f 116 152 112
f 162 150 151
f 161 162 151
f 153 154 139
f 140 153 139
f 168 165 164
f 167 168 164
f 166 131 128
f 155 166 128
f 158 157 144
f 142 158 144
f 172 136 135
f 170 172 135
f 154 127 123
f 139 154 123
f 152 153 140
f 141 152 140
f 170 135 134
f 174 170 134
f 145 155 128
f 124 145 128
f 106 116 112
f 101 106 112
f 303 301 133
f 137 303 133
f 317 293 104
f 181 317 104
f 182 61 6
f 193 182 6
f 311 287 99
f 188 311 99
f 199 205 64
f 102 199 64
f 211 70 64
f 205 211 64
f 211 217 69
f 70 211 69
f 223 21 69
f 217 223 69
f 229 68 21
f 223 229 21
f 235 224 52
f 53 235 52
f 230 241 66
f 67 230 66
f 247 65 66
f 241 247 66
f 253 101 65
f 247 253 65
f 259 106 101
f 253 259 101
f 265 254 56
f 57 265 56
f 260 271 105
f 107 260 105
f 174 151 150
f 170 174 150
f 170 150 149
f 172 170 149
f 151 174 173
f 126 151 173
f 115 175 172
f 149 115 172
f 110 175 171
f 100 110 171
f 277 171 105
f 271 277 105
f 283 272 5
f 59 283 5
f 176 283 59
f 60 176 59
f 278 181 104
f 100 278 104
f 278 279 180
f 181 278 180
f 279 280 179
f 180 279 179
f 280 281 178
f 179 280 178
f 281 282 177
f 178 281 177
f 282 283 176
f 177 282 176
f 278 100 171
f 277 278 171
f 276 279 278
f 277 276 278
f 279 276 275
f 280 279 275
f 281 280 275
f 274 281 275
f 273 282 281
f 274 273 281
f 282 273 272
f 283 282 272
f 5 272 266
f 58 5 266
f 272 273 267
f 266 272 267
f 273 274 268
f 267 273 268
f 275 269 268
f 274 275 268
f 276 270 269
f 275 276 269
f 277 271 270
f 276 277 270
f 266 265 57
f 58 266 57
f 267 264 265
f 266 267 265
f 267 268 263
f 264 267 263
f 268 269 262
f 263 268 262
f 270 261 262
f 269 270 262
f 270 271 260
f 261 270 260
f 260 107 106
f 259 260 106
f 258 261 260
f 259 258 260
f 257 262 261
f 258 257 261
f 256 263 262
f 257 256 262
f 263 256 255
f 264 263 255
f 265 264 255
f 254 265 255
f 254 248 11
f 56 254 11
f 255 249 248
f 254 255 248
f 255 256 250
f 249 255 250
f 257 251 250
f 256 257 250
f 257 258 252
f 251 257 252
f 259 253 252
f 258 259 252
f 11 248 242
f 55 11 242
f 249 243 242
f 248 249 242
f 249 250 244
f 243 249 244
f 250 251 245
f 244 250 245
f 251 252 246
f 245 251 246
f 252 253 247
f 246 252 247
f 242 236 54
f 55 242 54
f 242 243 237
f 236 242 237
f 244 238 237
f 243 244 237
f 245 239 238
f 244 245 238
f 246 240 239
f 245 246 239
f 247 241 240
f 246 247 240
f 54 236 235
f 53 54 235
f 236 237 234
f 235 236 234
f 237 238 233
f 234 237 233
f 238 239 232
f 233 238 232
f 239 240 231
f 232 239 231
f 240 241 230
f 231 240 230
f 229 230 67
f 68 229 67
f 228 231 230
f 229 228 230
f 231 228 227
f 232 231 227
f 232 227 226
f 233 232 226
f 225 234 233
f 226 225 233
f 234 225 224
f 235 234 224
f 224 218 20
f 52 224 20
f 224 225 219
f 218 224 219
f 226 220 219
f 225 226 219
f 226 227 221
f 220 226 221
f 227 228 222
f 221 227 222
f 229 223 222
f 228 229 222
f 20 218 212
f 51 20 212
f 219 213 212
f 218 219 212
f 219 220 214
f 213 219 214
f 221 215 214
f 220 221 214
f 222 216 215
f 221 222 215
f 222 223 217
f 216 222 217
f 51 212 206
f 50 51 206
f 213 207 206
f 212 213 206
f 214 208 207
f 213 214 207
f 214 215 209
f 208 214 209
f 215 216 210
f 209 215 210
f 217 211 210
f 216 217 210
f 200 63 50
f 206 200 50
f 206 207 201
f 200 206 201
f 208 202 201
f 207 208 201
f 208 209 203
f 202 208 203
f 210 204 203
f 209 210 203
f 210 211 205
f 204 210 205
f 200 194 62
f 63 200 62
f 200 201 195
f 194 200 195
f 201 202 196
f 195 201 196
f 203 197 196
f 202 203 196
f 203 204 198
f 197 203 198
f 205 199 198
f 204 205 198
f 285 306 193
f 6 285 193
f 306 307 192
f 193 306 192
f 307 308 191
f 192 307 191
f 308 309 190
f 191 308 190
f 309 310 189
f 190 309 189
f 310 311 188
f 189 310 188
f 187 188 99
f 103 187 99
f 186 189 188
f 187 186 188
f 189 186 185
f 190 189 185
f 191 190 185
f 184 191 185
f 191 184 183
f 192 191 183
f 182 193 192
f 183 182 192
f 312 176 60
f 292 312 60
f 313 177 176
f 312 313 176
f 313 314 178
f 177 313 178
f 315 179 178
f 314 315 178
f 316 180 179
f 315 316 179
f 317 181 180
f 316 317 180
f 187 317 316
f 186 187 316
f 186 316 315
f 185 186 315
f 315 314 184
f 185 315 184
f 314 313 183
f 184 314 183
f 183 313 312
f 182 183 312
f 312 292 61
f 182 312 61
f 199 311 310
f 198 199 310
f 310 309 197
f 198 310 197
f 309 308 196
f 197 309 196
f 196 308 307
f 195 196 307
f 307 306 194
f 195 307 194
f 194 306 285
f 62 194 285
f 311 199 102
f 287 311 102
f 317 187 103
f 293 317 103
f 301 303 144
f 145 301 144
f 295 160 159
f 286 295 159
f 289 286 159
f 156 289 159
f 303 299 142
f 144 303 142
f 289 156 129
f 290 289 129
f 301 145 124
f 302 301 124
f 297 117 160
f 295 297 160
f 298 82 46
f 296 298 46
f 291 95 47
f 296 291 47
f 288 299 138
f 111 288 138
f 291 300 33
f 95 291 33
f 288 111 99
f 287 288 99
f 10 294 284
f 4 10 284
f 305 284 48
f 76 305 48
f 294 10 2
f 304 294 2
f 305 285 6
f 7 305 6
f 293 297 114
f 104 293 114
f 298 92 61
f 292 298 61
