# Level-zero anatomical extract from Blender Human Base Meshes v1.4.1 (CC0)
o human-forearm-l
v -0.3210855 0.0105689 1.1022186
v -0.3094717 -0.0364408 1.1056967
v -0.3220198 -0.0488262 1.0744481
v -0.3386036 0.0018830 1.0692835
v -0.3481310 -0.0020917 1.0530697
v -0.3282449 -0.0537662 1.0579194
v -0.3641496 -0.0110279 1.0204928
v -0.3402037 -0.0581527 1.0237997
v -0.3742028 -0.0211742 0.9880884
v -0.3512205 -0.0626765 0.9914580
v -0.3342861 -0.0564990 1.0408580
v -0.3569014 -0.0063999 1.0369081
v -0.3157037 -0.0424245 1.0901637
v -0.3775802 -0.0259325 0.9724559
v -0.3698168 -0.0158416 1.0039679
v -0.3295341 0.0062965 1.0858693
v -0.3457289 -0.0601886 1.0072241
v -0.3565003 -0.0650133 0.9766338
v -0.2891070 0.0499470 1.0805128
v -0.2990696 0.0469898 1.0644281
v -0.3076205 0.0418437 1.0461977
v -0.3155238 0.0365983 1.0278583
v -0.3238577 0.0307328 1.0107013
v -0.3318158 0.0245244 0.9945709
v -0.3394844 0.0180985 0.9795654
v -0.3466718 0.0112609 0.9656240
v -0.3532714 0.0043784 0.9527672
v -0.3144697 -0.0399541 0.9508493
v -0.3059951 -0.0362482 0.9636069
v -0.2971132 -0.0330463 0.9774216
v -0.2890924 -0.0300393 0.9928144
v -0.2822468 -0.0259504 1.0093219
v -0.2771280 -0.0213148 1.0261083
v -0.2722478 -0.0163954 1.0422025
v -0.2672095 -0.0130153 1.0578449
v -0.2613111 -0.0115022 1.0730574
v -0.2777796 -0.0256463 1.0851460
v -0.2694328 -0.0201085 1.0789144
v -0.2555714 0.0015757 1.0684423
v -0.2555359 0.0183001 1.0661238
v -0.2631516 0.0339866 1.0676414
v -0.2757359 0.0444665 1.0727092
v -0.3121135 0.0398668 1.0969212
v -0.3018560 0.0488397 1.0900495
v -0.3180425 0.0259839 1.1000333
v -0.3249482 -0.0031384 1.1061838
v -0.3268738 -0.0150944 1.1094428
v -0.3166648 -0.0324002 1.1084141
v -0.2932193 -0.0353947 1.0965945
v -0.2853675 -0.0310376 1.0911021
v -0.3314766 -0.0440011 1.0772997
v -0.3026575 -0.0467508 1.0655524
v -0.2943897 -0.0415705 1.0601742
v -0.2868440 -0.0349080 1.0545737
v -0.2794252 -0.0267988 1.0485880
v -0.2677779 -0.0020662 1.0363353
v -0.2690879 0.0155403 1.0326458
v -0.2782212 0.0312906 1.0334623
v -0.2926668 0.0401720 1.0386527
v -0.3313856 0.0295716 1.0608497
v -0.3208888 0.0381207 1.0539129
v -0.3374742 0.0168414 1.0658662
v -0.3409985 -0.0113704 1.0734365
v -0.3423923 -0.0237710 1.0771439
v -0.3498328 -0.0149835 1.0572176
v -0.3497179 -0.0274598 1.0604732
v -0.3452914 0.0107624 1.0485055
v -0.3286949 0.0316570 1.0354732
v -0.3389703 0.0226508 1.0425915
v -0.3005664 0.0357468 1.0208163
v -0.2860135 0.0274168 1.0161844
v -0.2754364 0.0120425 1.0155078
v -0.2729458 -0.0061365 1.0196589
v -0.2913547 -0.0407686 1.0384982
v -0.2841181 -0.0323987 1.0326687
v -0.3076356 -0.0523689 1.0492162
v -0.2989789 -0.0474567 1.0439522
v -0.3382124 -0.0484811 1.0606556
v -0.3649091 -0.0234380 1.0242816
v -0.3626594 -0.0351690 1.0266436
v -0.3599788 0.0005746 1.0153257
v -0.3435231 0.0192501 1.0020115
v -0.3527046 0.0105166 1.0089831
v -0.3172004 0.0239472 0.9876325
v -0.3023349 0.0158726 0.9832999
v -0.2907768 0.0016705 0.9827131
v -0.2867573 -0.0153826 0.9866086
v -0.3020514 -0.0495259 1.0055146
v -0.2948599 -0.0411351 0.9993469
v -0.3199686 -0.0596744 1.0162116
v -0.3103825 -0.0559368 1.0111841
v -0.3493914 -0.0532643 1.0260568
v -0.3742894 -0.0324060 0.9912592
v -0.3713329 -0.0428436 0.9930861
v -0.3705417 -0.0105509 0.9837302
v -0.3569126 0.0067973 0.9722993
v -0.3645955 -0.0011194 0.9784686
v -0.3339433 0.0105641 0.9594151
v -0.3204712 0.0033001 0.9554083
v -0.3097371 -0.0090551 0.9547969
v -0.3047472 -0.0236620 0.9580482
v -0.3170450 -0.0541023 0.9752383
v -0.3105524 -0.0461932 0.9695168
v -0.3333647 -0.0635298 0.9850004
v -0.3247332 -0.0601763 0.9804862
v -0.3594498 -0.0586372 0.9932445
v -0.3134672 -0.0277617 0.9454557
v -0.3186817 -0.0139581 0.9426041
v -0.2955344 -0.0194387 0.9715695
v -0.3001463 -0.0038769 0.9680215
v -0.2789764 -0.0107646 1.0028017
v -0.2825402 0.0071003 0.9986572
v -0.2616101 0.0005023 1.0525540
v -0.2619369 0.0176107 1.0495042
v -0.3403029 -0.0651218 0.9708869
v -0.3265536 -0.0619306 1.0001538
v -0.3136942 -0.0567338 1.0327557
v -0.2982040 -0.0404639 1.0814248
v -0.3415431 0.0040715 0.9469416
v -0.3257109 0.0172968 0.9728874
v -0.3088606 0.0302292 1.0036677
v -0.2840323 0.0431024 1.0560675
v -0.3777106 -0.0362601 0.9754462
v -0.3749438 -0.0460103 0.9772984
v -0.3703090 -0.0278273 1.0075667
v -0.3675094 -0.0389852 1.0096405
v -0.3580106 -0.0188752 1.0408094
v -0.3566250 -0.0310978 1.0435607
v -0.3328266 -0.0075911 1.0900688
v -0.3349278 -0.0198663 1.0937263
v -0.3741713 -0.0161059 0.9685274
v -0.3657514 -0.0046167 0.9991264
v -0.3531490 0.0054006 1.0319734
v -0.3283336 0.0224938 1.0834830
v -0.3623505 0.0000375 0.9586371
v -0.3690574 -0.0072472 0.9639288
v -0.3504775 0.0132698 0.9866638
v -0.3589933 0.0051131 0.9932415
v -0.3363587 0.0252953 1.0183543
v -0.3460585 0.0159631 1.0255837
v -0.3221509 0.0355666 1.0802147
v -0.3124121 0.0441631 1.0737188
v -0.3440025 -0.0512329 1.0433552
v -0.3043360 -0.0523076 1.0275720
v -0.2961307 -0.0455296 1.0219891
v -0.2887622 -0.0370831 1.0159714
v -0.2940047 0.0220197 0.9992674
v -0.3113258 0.0095437 0.9685266
v -0.3240254 -0.0382467 1.0930355
v -0.3289970 -0.0026804 0.9432688
v -0.3171714 -0.0585931 0.9952660
v -0.2701887 0.0333570 1.0506036
v -0.3251999 -0.0566319 0.9618933
v -0.3189953 -0.0494709 0.9565392
v -0.2830235 -0.0293102 1.0701917
v -0.2751974 -0.0222991 1.0639973
v -0.3089909 -0.0522880 0.9896882
v -0.3021695 -0.0438179 0.9836834
v -0.3324261 -0.0618861 0.9667627
v -0.2904041 -0.0353887 1.0760688
v -0.3545341 -0.0557369 1.0092607
v -0.3638748 -0.0607297 0.9779013
v -0.3068802 -0.0431245 1.0862207
v -0.3571100 -0.0454400 1.0271204
v -0.3457730 -0.0392089 1.0616184
v -0.3423571 -0.0642385 0.9886742
v -0.3176144 -0.0548503 1.0539770
v -0.3387605 -0.0353150 1.0784047
v -0.3619559 -0.0484991 1.0101143
v -0.3517341 -0.0423824 1.0443553
v -0.3309353 -0.0305010 1.0944519
v -0.3484049 -0.0665129 0.9742642
v -0.3701546 -0.0543112 0.9781088
v -0.3228860 -0.0252464 1.1098527
v -0.3238734 -0.0582498 1.0372800
v -0.3662207 -0.0517909 0.9937279
v -0.3120533 -0.0495286 1.0703790
v -0.3362821 -0.0621891 1.0041475
v -0.3015141 -0.0377995 1.1017511
v -0.3301950 -0.0602893 1.0204965
v -0.3603664 -0.0862683 0.8856338
v -0.3571413 -0.0826527 0.8809279
v -0.3585356 -0.0189444 0.9107135
v -0.3640456 -0.0254092 0.8979815
v -0.3704547 -0.0315337 0.8860267
v -0.3588975 -0.0031408 0.9404674
v -0.3631111 -0.0105691 0.9274305
v -0.3669682 -0.0182749 0.9138958
v -0.3550943 -0.0782606 0.8755738
v -0.3721651 -0.0250755 0.9011395
v -0.3785240 -0.0320997 0.8896418
v -0.3887564 -0.0359778 0.8943278
v -0.3840839 -0.0298148 0.9071389
v -0.3799369 -0.0238935 0.9211215
v -0.3656512 -0.0889024 0.8894059
v -0.3765808 -0.0185422 0.9357497
v -0.3731572 -0.0133792 0.9500839
v -0.3804969 -0.0303033 0.9574273
v -0.3875650 -0.0770407 0.8935203
v -0.3832644 -0.0336836 0.9427232
v -0.3865543 -0.0368484 0.9279846
v -0.3894825 -0.0416566 0.9134760
v -0.3901510 -0.0711175 0.8925042
v -0.3925707 -0.0467492 0.9001626
v -0.3597135 -0.0431405 0.8725237
v -0.3960866 -0.0529271 0.8877637
v -0.3553542 -0.0500416 0.8736985
v -0.3520408 -0.0589209 0.8764133
v -0.3510672 -0.0663146 0.8782825
v -0.3932650 -0.0409356 0.8821569
v -0.3671117 -0.0069703 0.9455513
v -0.3706647 -0.0134664 0.9316682
v -0.3740427 -0.0203227 0.9175504
v -0.3890430 -0.0382513 0.8797785
v -0.3786069 -0.0270468 0.9042273
v -0.3841496 -0.0335765 0.8918797
v -0.3557686 -0.0796330 0.8986586
v -0.3505584 -0.0742975 0.9115161
v -0.3451225 -0.0684619 0.9242923
v -0.3828472 -0.0370466 0.8770300
v -0.3391973 -0.0641487 0.9367792
v -0.3323121 -0.0603384 0.9491251
v -0.3757866 -0.0365672 0.8730501
v -0.3684592 -0.0381133 0.8681985
v -0.3628332 -0.0449601 0.8641097
v -0.3581321 -0.0561020 0.8616534
v -0.3535610 -0.0113791 0.9232193
v -0.3483671 -0.0032776 0.9354471
v -0.3366852 -0.0088342 0.9319078
v -0.3432136 -0.0161581 0.9203981
v -0.3493537 -0.0229707 0.9084219
v -0.3550539 -0.0290654 0.8956105
v -0.3610367 -0.0354403 0.8809943
v -0.3612232 -0.0835269 0.9022526
v -0.3565136 -0.0784231 0.9150771
v -0.3515188 -0.0727547 0.9281257
v -0.3459689 -0.0686226 0.9410565
v -0.3393428 -0.0652210 0.9537523
v -0.3518362 -0.0432898 0.8844467
v -0.3468108 -0.0368918 0.8960326
v -0.3409555 -0.0309946 0.9082104
v -0.3340603 -0.0249996 0.9198386
v -0.3266730 -0.0189088 0.9311619
v -0.3853160 -0.0730142 0.9066266
v -0.3824337 -0.0697449 0.9206380
v -0.3782893 -0.0671088 0.9349985
v -0.3737022 -0.0650198 0.9493027
v -0.3686143 -0.0628687 0.9634085
v -0.3741025 -0.0565794 0.9632697
v -0.3781612 -0.0585348 0.9486716
v -0.3819668 -0.0605118 0.9340515
v -0.3850927 -0.0633201 0.9194835
v -0.3878306 -0.0668699 0.9056192
v -0.3487238 -0.0673070 0.8877304
v -0.3423190 -0.0587646 0.9022859
v -0.3355419 -0.0528444 0.9144751
v -0.3289005 -0.0479805 0.9264798
v -0.3219575 -0.0435293 0.9384432
v -0.3263458 -0.0531601 0.9439853
v -0.3332259 -0.0574846 0.9318220
v -0.3395067 -0.0621187 0.9197025
v -0.3458403 -0.0682910 0.9072758
v -0.3519343 -0.0746902 0.8943369
v -0.3791238 -0.0871357 0.8937523
v -0.3762047 -0.0831375 0.9070114
v -0.3717114 -0.0790910 0.9205168
v -0.3662210 -0.0751873 0.9338881
v -0.3606326 -0.0719224 0.9473286
v -0.3545341 -0.0690728 0.9605967
v -0.3724430 -0.0893712 0.8921932
v -0.3685836 -0.0851396 0.9052799
v -0.3640856 -0.0803730 0.9182454
v -0.3587570 -0.0751117 0.9313927
v -0.3532189 -0.0712870 0.9445857
v -0.3469024 -0.0680892 0.9575752
v -0.3841891 -0.0824669 0.8940166
v -0.3959962 -0.0463688 0.8851714
v -0.3920857 -0.0405777 0.8975751
v -0.3881594 -0.0348435 0.9104081
v -0.3845027 -0.0293614 0.9247229
v -0.3810347 -0.0253734 0.9395195
v -0.3776835 -0.0213242 0.9540283
v -0.3817807 -0.0786633 0.9072242
v -0.3780395 -0.0753007 0.9211479
v -0.3730564 -0.0722866 0.9350652
v -0.3678073 -0.0698102 0.9489590
v -0.3620020 -0.0672887 0.9625701
v -0.3544743 -0.0649554 0.8667795
v -0.3534766 -0.0727330 0.8707756
v -0.3212453 -0.0315745 0.9335229
v -0.3286601 -0.0363982 0.9219100
v -0.3358108 -0.0414745 0.9102399
v -0.3422992 -0.0471286 0.8983959
v -0.3478408 -0.0536524 0.8868912
v -0.3943079 -0.0593144 0.8897615
v -0.3922439 -0.0653274 0.8912445
v -0.3915242 -0.0539737 0.9023950
v -0.3897600 -0.0606645 0.9041722
v -0.3886669 -0.0492855 0.9158776
v -0.3870111 -0.0566073 0.9178330
v -0.3863283 -0.0451119 0.9305680
v -0.3846226 -0.0530631 0.9325525
v -0.3833919 -0.0425286 0.9453377
v -0.3815217 -0.0509770 0.9473358
v -0.3806100 -0.0397614 0.9602656
v -0.3782482 -0.0487138 0.9622059
usemtl blender_human_cc0
f 149 13 2
f 48 149 2
f 175 167 6
f 11 175 6
f 171 174 47
f 130 171 47
f 168 171 130
f 64 168 130
f 16 129 46
f 1 16 46
f 67 5 4
f 62 67 4
f 130 129 63
f 64 130 63
f 140 133 67
f 69 140 67
f 130 47 46
f 129 130 46
f 78 6 3
f 51 78 3
f 133 12 5
f 67 133 5
f 65 63 4
f 5 65 4
f 163 177 52
f 118 163 52
f 180 175 11
f 8 180 11
f 127 12 7
f 79 127 7
f 133 140 83
f 81 133 83
f 161 17 8
f 92 161 8
f 123 93 9
f 14 123 9
f 162 18 10
f 106 162 10
f 169 126 94
f 176 169 94
f 178 180 8
f 17 178 8
f 129 16 4
f 63 129 4
f 132 95 9
f 15 132 9
f 42 122 20
f 19 42 20
f 139 68 22
f 23 139 22
f 98 26 25
f 120 98 25
f 101 29 28
f 107 101 28
f 152 114 57
f 58 152 57
f 111 112 72
f 73 111 72
f 152 41 40
f 114 152 40
f 69 60 61
f 68 69 61
f 67 62 60
f 69 67 60
f 70 22 21
f 59 70 21
f 163 179 2
f 13 163 2
f 160 50 49
f 118 160 49
f 51 168 165
f 78 51 165
f 155 160 53
f 54 155 53
f 167 76 52
f 177 167 52
f 78 143 11
f 6 78 11
f 133 81 7
f 12 133 7
f 132 15 7
f 81 132 7
f 75 55 54
f 74 75 54
f 128 127 79
f 80 128 79
f 55 156 155
f 54 55 155
f 134 141 60
f 62 134 60
f 122 152 58
f 59 122 58
f 82 139 23
f 24 82 23
f 121 23 22
f 70 121 22
f 84 24 23
f 121 84 23
f 128 66 65
f 127 128 65
f 164 169 161
f 92 164 161
f 65 66 64
f 63 65 64
f 53 160 118
f 52 53 118
f 170 165 66
f 128 170 66
f 83 138 132
f 81 83 132
f 147 121 70
f 71 147 70
f 158 157 102
f 103 158 102
f 120 25 24
f 84 120 24
f 151 157 88
f 91 151 88
f 91 144 117
f 90 91 117
f 145 74 77
f 144 145 77
f 144 77 76
f 117 144 76
f 113 39 36
f 35 113 36
f 126 80 79
f 125 126 79
f 172 166 10
f 18 172 10
f 138 137 96
f 97 138 96
f 126 125 93
f 94 126 93
f 138 83 82
f 137 138 82
f 147 85 84
f 121 147 84
f 119 27 26
f 98 119 26
f 109 110 86
f 87 109 86
f 55 75 33
f 34 55 33
f 136 131 95
f 97 136 95
f 158 89 88
f 157 158 88
f 178 17 10
f 166 178 10
f 151 91 90
f 116 151 90
f 125 79 7
f 15 125 7
f 140 139 82
f 83 140 82
f 124 94 93
f 123 124 93
f 161 106 10
f 17 161 10
f 132 138 97
f 95 132 97
f 136 97 96
f 135 136 96
f 120 148 99
f 98 120 99
f 110 100 99
f 148 110 99
f 109 101 100
f 110 109 100
f 157 151 105
f 102 157 105
f 154 103 102
f 153 154 102
f 159 105 104
f 115 159 104
f 158 30 31
f 89 158 31
f 72 71 58
f 57 72 58
f 70 59 58
f 71 70 58
f 131 14 9
f 95 131 9
f 143 92 8
f 11 143 8
f 74 54 53
f 77 74 53
f 134 16 1
f 45 134 1
f 149 51 3
f 13 149 3
f 134 62 4
f 16 134 4
f 122 59 21
f 20 122 21
f 170 128 80
f 164 170 80
f 107 108 100
f 101 107 100
f 173 176 94
f 124 173 94
f 93 125 15
f 9 93 15
f 135 96 26
f 27 135 26
f 85 148 120
f 84 85 120
f 77 53 52
f 76 77 52
f 25 137 82
f 24 25 82
f 150 119 98
f 99 150 98
f 142 44 19
f 20 142 19
f 146 75 74
f 145 146 74
f 113 35 34
f 56 113 34
f 147 71 72
f 112 147 72
f 146 145 88
f 89 146 88
f 127 65 5
f 12 127 5
f 111 87 86
f 112 111 86
f 142 141 43
f 44 142 43
f 111 32 31
f 87 111 31
f 113 114 40
f 39 113 40
f 156 55 34
f 35 156 34
f 32 146 89
f 31 32 89
f 41 152 122
f 42 41 122
f 61 142 20
f 21 61 20
f 142 61 60
f 141 142 60
f 85 147 112
f 86 85 112
f 159 153 102
f 105 159 102
f 137 25 26
f 96 137 26
f 154 28 29
f 103 154 29
f 105 151 116
f 104 105 116
f 141 134 45
f 43 141 45
f 68 61 21
f 22 68 21
f 140 69 68
f 139 140 68
f 148 85 86
f 110 148 86
f 150 99 100
f 108 150 100
f 158 103 29
f 30 158 29
f 87 31 30
f 109 87 30
f 109 30 29
f 101 109 29
f 145 144 91
f 88 145 91
f 75 146 32
f 33 75 32
f 56 34 33
f 73 56 33
f 73 33 32
f 111 73 32
f 72 57 56
f 73 72 56
f 38 156 35
f 36 38 35
f 160 155 37
f 50 160 37
f 156 38 37
f 155 156 37
f 114 113 56
f 57 114 56
f 173 162 106
f 176 173 106
f 170 164 92
f 143 170 92
f 178 166 104
f 116 178 104
f 172 115 104
f 166 172 104
f 165 170 143
f 78 165 143
f 126 169 164
f 80 126 164
f 177 3 6
f 167 177 6
f 165 168 64
f 66 165 64
f 49 179 163
f 118 49 163
f 178 116 90
f 180 178 90
f 169 176 106
f 161 169 106
f 175 180 90
f 117 175 90
f 163 13 3
f 177 163 3
f 171 168 51
f 149 171 51
f 48 174 171
f 149 48 171
f 175 117 76
f 167 175 76
f 232 184 183
f 231 232 183
f 232 233 185
f 184 232 185
f 224 223 185
f 233 224 185
f 275 274 237
f 238 275 237
f 274 273 236
f 237 274 236
f 273 272 235
f 236 273 235
f 272 271 234
f 235 272 234
f 234 271 270
f 195 234 270
f 292 291 257
f 256 292 257
f 293 292 256
f 255 293 256
f 284 283 265
f 266 284 265
f 283 276 264
f 265 283 264
f 250 247 248
f 249 250 248
f 250 251 246
f 247 250 246
f 252 245 246
f 251 252 246
f 252 253 244
f 245 252 244
f 253 203 199
f 244 253 199
f 259 260 257
f 258 259 257
f 260 261 256
f 257 260 256
f 261 262 255
f 256 261 255
f 262 263 254
f 255 262 254
f 254 263 182
f 189 254 182
f 291 242 243
f 290 291 243
f 185 191 190
f 184 185 190
f 185 223 220
f 191 185 220
f 229 230 227
f 228 229 227
f 230 231 183
f 227 230 183
f 190 188 183
f 184 190 183
f 183 188 187
f 227 183 187
f 228 227 187
f 186 228 187
f 288 226 207
f 208 288 207
f 293 294 239
f 240 293 239
f 292 293 240
f 241 292 240
f 291 292 241
f 242 291 241
f 291 290 258
f 257 291 258
f 277 206 204
f 278 277 204
f 278 204 202
f 279 278 202
f 279 202 201
f 280 279 201
f 280 201 200
f 281 280 200
f 281 200 198
f 282 281 198
f 226 225 205
f 207 226 205
f 240 232 231
f 241 240 231
f 241 231 230
f 242 241 230
f 242 230 229
f 243 242 229
f 205 225 224
f 233 205 224
f 214 216 191
f 220 214 191
f 191 216 215
f 190 191 215
f 215 213 188
f 190 215 188
f 188 213 212
f 187 188 212
f 187 212 211
f 186 187 211
f 263 217 181
f 182 263 181
f 262 218 217
f 263 262 217
f 218 262 261
f 219 218 261
f 260 221 219
f 261 260 219
f 259 222 221
f 260 259 221
f 234 195 181
f 217 234 181
f 235 234 217
f 218 235 217
f 236 235 218
f 219 236 218
f 237 236 219
f 221 237 219
f 238 237 221
f 222 238 221
f 297 299 202
f 204 297 202
f 299 301 201
f 202 299 201
f 301 303 200
f 201 301 200
f 305 198 200
f 303 305 200
f 214 210 192
f 216 214 192
f 215 216 192
f 193 215 192
f 213 215 193
f 194 213 193
f 213 194 196
f 212 213 196
f 211 212 196
f 197 211 196
f 285 284 266
f 267 285 266
f 286 285 267
f 268 286 267
f 287 286 268
f 269 287 268
f 271 265 264
f 270 271 264
f 272 266 265
f 271 272 265
f 273 267 266
f 272 273 266
f 274 268 267
f 273 274 267
f 275 269 268
f 274 275 268
f 285 246 245
f 284 285 245
f 285 286 247
f 246 285 247
f 287 248 247
f 286 287 247
f 306 304 250
f 249 306 250
f 282 197 196
f 281 282 196
f 280 281 196
f 194 280 196
f 280 194 193
f 279 280 193
f 278 279 193
f 192 278 193
f 277 278 192
f 210 277 192
f 304 302 251
f 250 304 251
f 300 252 251
f 302 300 251
f 298 253 252
f 300 298 252
f 298 296 203
f 253 298 203
f 295 297 204
f 206 295 204
f 283 244 199
f 276 283 199
f 284 245 244
f 283 284 244
f 254 209 208
f 294 254 208
f 239 207 205
f 233 239 205
f 294 208 207
f 239 294 207
f 289 288 208
f 209 289 208
f 189 289 209
f 254 189 209
f 306 305 303
f 304 306 303
f 304 303 301
f 302 304 301
f 302 301 299
f 300 302 299
f 298 300 299
f 297 298 299
f 296 298 297
f 295 296 297
f 254 294 293
f 255 254 293
f 239 233 232
f 240 239 232
f 228 186 27
f 119 228 27
f 211 135 27
f 186 211 27
f 135 211 197
f 136 135 197
f 197 282 131
f 136 197 131
f 282 198 14
f 131 282 14
f 198 305 123
f 14 198 123
f 306 124 123
f 305 306 123
f 249 173 124
f 306 249 124
f 249 248 162
f 173 249 162
f 287 18 162
f 248 287 162
f 269 172 18
f 287 269 18
f 269 275 115
f 172 269 115
f 275 238 159
f 115 275 159
f 238 222 153
f 159 238 153
f 222 259 154
f 153 222 154
f 259 258 28
f 154 259 28
f 258 290 107
f 28 258 107
f 290 243 108
f 107 290 108
f 229 150 108
f 243 229 108
f 229 228 119
f 150 229 119
